<?xml version="1.0" encoding="utf-8"?>
<!-- Generator: Adobe Illustrator 20.1.0, SVG Export Plug-In . SVG Version: 6.00 Build 0)  -->
<svg version="1.1" id="Layer_1" xmlns="http://www.w3.org/2000/svg" xmlns:xlink="http://www.w3.org/1999/xlink" x="0px" y="0px"
	 viewBox="0 0 75 75" style="enable-background:new 0 0 75 93.8;" xml:space="preserve">
<g transform="scale(1 -1)" fill="#4CAF50">
	<g transform="translate(0 -75)">
		<g>
			<path marker-end="none" marker-start="none" d="M72.7,7.4L72.7,7.4c-0.1-0.3-0.3-0.6-0.4-0.8c-0.1-0.2-0.4-0.6-0.6-0.7
				c-0.1-0.1-0.3-0.1-0.4,0C71.2,5.9,71.1,6,71,6.1c-0.1,0.2-0.1,0.3,0,0.4c0,0,0,0,0,0c-0.2-0.1-0.3-0.2-0.5-0.3
				c-0.5-0.3-0.9-0.5-1.4-0.7h1.5c0.1,0,0.2-0.1,0.2-0.2c0-0.1-0.1-0.2-0.2-0.2h-1.8c0,0,0,0,0-0.1c-0.1-0.1-0.2-0.1-0.3,0
				c0,0-0.1,0.1-0.1,0.1h-0.5c-0.2-0.1-0.5-0.1-0.7-0.2c-0.1-0.2-0.3-0.3-0.5-0.3c-0.3,0-0.7,0-1,0c-0.3,0-0.5,0-0.8-0.1
				c-0.1,0-0.2,0-0.2,0.1c-0.1,0-0.3,0-0.4,0c-1.2,0-2.4,0-3.6,0c-2.2,0-4.5,0.1-6.7,0.1c-1.8,0-3.5,0-5.3,0
				c-6.3,0-12.6,0.1-18.9,0.1c-3.3,0-6.7,0-10,0c-0.6,0-1.1,0-1.7,0c-0.6,0-1.2,0-1.9,0.1c-0.6,0-1.3,0.1-1.9,0.1c-1,0-2,0-3,0
				c-0.6,0-1.1,0-1.7,0c-0.5,0-0.9,0-1.4,0c-0.8,0-1.6,0-2.4,0c-0.2,0-0.4,0.1-0.4,0.3l0,0c0,0-0.1,0-0.1,0c-0.1,0-0.2,0-0.2,0
				c0,0,0,0,0,0c0,0,0,0,0,0c-0.2,0-0.4,0.1-0.7,0.2C4.2,5.6,4.1,5.7,3.9,5.8C3.7,5.8,3.4,6,3.3,6.1C3.2,6.2,3.1,6.4,3,6.5
				C2.9,6.7,2.8,7,2.7,7.3C2.5,8,2.3,8.8,2.3,9.5C2.2,9.6,2.2,9.7,2.1,9.9C2.1,10,2,10.1,2,10.3C2,9.4,2,8.5,2,7.7
				c0-0.1-0.1-0.3-0.3-0.3c-0.1,0-0.3,0.1-0.3,0.3c0,1.5-0.1,3.1-0.1,4.6c0,0.2,0,0.4,0,0.6c-0.2,0.2-0.3,0.3-0.5,0.4l0,0.1l0.1,0
				C1,13.3,1.2,13.2,1.3,13c0,0.3-0.1,0.5-0.1,0.8c0,0.5-0.1,1,0,1.5c0,0.4,0,0.7,0,1.1c0,0,0,0-0.1,0.1l0,0c0,0,0,0,0,0
				c0,0.9-0.1,1.8-0.1,2.7c-0.2,0.2-0.4,0.4-0.7,0.6l0,0.1c0.2-0.2,0.4-0.3,0.6-0.5c0,0.3,0,0.6,0,0.9c-0.1,2.3-0.2,4.7-0.3,7
				c0,1-0.1,2-0.1,3c0,0-0.1,0-0.1,0.1l0,0.1l0.1,0c0,0,0,0,0,0c0,1.1,0,2.1,0,3.2c0,0.6,0,1.2,0,1.9c0,0.3,0,0.6,0,1
				c0,0.4,0,0.9,0,1.3c0,0,0,0-0.1,0.1c-0.1,0.1-0.3,0.2-0.5,0.4l0,0.1l0.1,0c0.2-0.1,0.3-0.3,0.5-0.4c0,0,0,0,0,0
				c0,1.5,0,1.9,0,2.3c-0.1,0.1-0.3,0.2-0.4,0.3c0,0,0,0.1,0,0.1c0,0,0.1,0,0.1,0c0.1-0.1,0.2-0.1,0.3-0.2c0,1,0,2,0,3
				c0,0.6,0,1.1,0,1.7c-0.1,0.1-0.1,0.1-0.2,0.2l0,0.1l0.1,0c0.1,0,0.1-0.1,0.2-0.1c0,1.8,0,3.6,0.1,5.4c-0.1,0-0.1,0.1-0.1,0.1
				c-0.2,0.6-0.4,1.3-0.5,1.9C0,52.9,0,53.3,0,53.8c0,1,0.1,1.9,0.4,2.8c0.1,0.4,0.3,0.8,0.5,1.2c0.8,1.6,2.3,2.5,4,3
				c-0.1,0.1-0.2,0.1-0.3,0.2l0,0C4.7,61,4.8,61,4.9,60.9c0.3,0.1,0.6,0.2,0.9,0.2c0,1.1,0.3,2.2,1.5,2.5c0.2,0.1,0.4,0.1,0.6,0.1
				c0.9,0,1.7-0.3,2.6-0.6c0.2-0.1,0.4-0.2,0.6-0.2c0.2,0,0.3,0,0.5-0.2c0.2-0.2,0.2-0.5,0-0.6c0,0,0,0-0.1-0.1l0,0c0,0,0-0.1,0-0.1
				c0-0.1-0.1-0.2-0.2-0.2c0,0,0,0,0.1,0l0.2,0c0.9,0.2,1.8,0.3,2.7,0.4c2.3,0.3,4.6,0.5,7,0.5c0,0.6,0,1.2,0.1,1.8
				c0.1,0.9,0.1,1.7,0.3,2.6c0.1,0.3,0.1,0.7,0.2,1c0,0,0,0,0,0c0,0.4,0.1,0.8,0.2,1.1c0,0.1,0.1,0.3,0.3,0.3
				c0.1,0.2,0.2,0.5,0.4,0.7c0.1,0.2,0.2,0.4,0.4,0.5c0,0.1,0.1,0.1,0.1,0.2c0.1,0.1,0.1,0.1,0.2,0.2c0.1,0.1,0.1,0.1,0.2,0.2
				c0.2,0.2,0.5,0.3,0.8,0.4c0.6,0.3,1.4,0.4,2,0.5c0.1,0,0.3,0,0.4,0.1c0.5,0.1,0.9,0.1,1.4,0.1c0.2,0,0.4,0,0.5,0
				c0.3,0,0.6,0,0.9,0c0.4,0.1,0.7,0.2,1.1,0.2c0.5,0.1,0.9,0.1,1.4,0.2c0.2,0,0.3,0,0.5,0c0.2,0,0.3,0,0.5,0c0.4,0,0.9,0,1.3,0
				c0.8,0,1.6,0,2.3-0.1c0.4,0,0.7-0.1,1.1-0.1c0.1,0,0.3,0,0.4,0c0.2,0,0.4,0,0.6,0c0.1,0,0.2,0,0.3,0c0.3,0,0.6,0,0.8,0
				c1.3-0.1,2.5-0.3,3.6-0.9c0.4-0.2,0.7-0.4,1.1-0.6c0.1-0.1,0.2-0.1,0.2-0.2c0.1-0.1,0.2-0.1,0.3-0.2c0.2-0.2,0.4-0.4,0.6-0.6
				c0.1-0.1,0.2-0.3,0.3-0.4c0,0,0.1-0.1,0.1-0.1c0.2-0.1,0.3-0.3,0.4-0.4c0.1-0.1,0.1-0.2,0-0.3c-0.1-0.1-0.2-0.1-0.3,0
				c0.1-0.3,0.1-0.6,0.1-0.9c0.1-1.3,0.1-2.6,0.2-4c0-0.3,0-0.6,0-0.9c0-0.2,0-0.3,0-0.5c0-0.2,0-0.4,0.1-0.6
				c2.9,0.1,5.7,0.2,8.6,0.4c0.1,0.1,0.1,0.3,0.2,0.4c0.3,0.4,0.7,0.8,1.2,1l0.5,0.2c0,0,0,0.1,0,0.1c0,0.3,0.2,0.5,0.5,0.5
				c0.5,0,0.9,0,1.4,0.1c0.6,0,1.2,0.1,1.8,0.1c0.2,0,0.5,0,0.8,0c0.2,0,0.4,0,0.6,0c0.5,0,0.9-0.1,1.3-0.1c0.2,0,0.5-0.1,0.7-0.2
				c0.2-0.1,0.4-0.1,0.6-0.2l0.2-0.1l0.3-0.1c0.2,0,0.5-0.1,0.7-0.2c0.4-0.1,0.3-0.4,0.3-0.7c0-0.5,0.1-1,0-1.5c0-0.1,0-0.1,0-0.2
				c0.3-0.1,0.7-0.1,1.4-0.4c0.1,0,0.1,0,0.2,0c0.1,0,0.2,0,0.3-0.1c1.1-0.3,2.1-0.8,2.9-1.6c0.2-0.2,0.4-0.4,0.6-0.7
				c0.2-0.3,0.4-0.7,0.5-1c0-0.1,0.1-0.2,0.1-0.4c0.1-0.3,0.1-0.5,0.2-0.8c0,0.4,0,0.7,0,1.1c0,0,0,0.1,0.1,0.1c0,0,0.1,0,0.1-0.1
				c0-0.6,0-1.3,0-1.9c0.1,0,0.1-0.1,0.2-0.2c0-0.1,0.2-0.3,0.2-0.4c0.1-0.5,0.2-0.9,0.2-1.4c0-0.3,0.1-0.6,0.1-0.9
				c0.1-0.7,0.1-1.3,0.2-2c0.2-2.6,0.2-5.3,0.3-7.9c0-0.6,0-1.3,0-1.9c0-1.6-0.1-3.3-0.1-4.9c0-0.9-0.1-1.8-0.1-2.6c0,0,0,0,0,0
				c0.1-0.1,0.2-0.2,0.1-0.4c0-0.1-0.1-0.1-0.2-0.1c0-1.1-0.1-2.2-0.1-3.3c0,0,0,0,0,0c0.1-0.1,0.2-0.2,0.1-0.3c0,0-0.1-0.1-0.1-0.1
				C73.8,26,74,23,74,20c0-1.7-0.1-3.4-0.2-5c0-0.1,0-0.2,0-0.3c0-0.1,0-0.1,0-0.2c0,0,0-0.1,0-0.1c0-0.5,0-1.1,0.1-1.7
				c0-0.2,0-0.4,0-0.6c0-0.2,0-0.4,0-0.7c0,0,0.1,0,0.1-0.1c0.2-0.1,0.3-0.2,0.5-0.3c0.2-0.1,0.4-0.3,0.6-0.5c0.1,0,0.1-0.1,0.1-0.2
				c0-0.1-0.1-0.1-0.2-0.1c-0.2,0.1-0.4,0.1-0.6,0.2c-0.1,0.1-0.2,0.1-0.4,0.2c0,0,0,0,0,0l0-0.1l0-0.5c0-0.1,0-0.3,0-0.4
				c0-0.1,0-0.3,0-0.4c0-0.1,0-0.1,0-0.2c0,0,0,0,0-0.1c0.1-0.1,0.1-0.2,0.1-0.2c0-0.1,0-0.3-0.1-0.4l0,0l0,0l-0.2-0.2
				c-0.1-0.1-0.2-0.2-0.3-0.3C73,8,73,8,73,7.9l-0.2-0.3L72.7,7.4L72.7,7.4c0-1,0-2.1,0-3.2C72.7,5.3,72.7,6.3,72.7,7.4z M71.6,5
				c-0.1,0.1-0.1,0.2,0,0.3c0.2,0.2,0.4,0.3,0.6,0.5c0.1,0.1,0.2,0.1,0.3,0c0.1-0.1,0.1-0.2,0-0.3c-0.2-0.2-0.4-0.3-0.6-0.5
				C71.8,4.9,71.7,4.9,71.6,5z M67.3,5.6L67.3,5.6L67.3,5.6c-0.1,0.1-0.2,0.1-0.3,0.1c0,0,0,0,0.1-0.1H67.3z M67.3,5.8
				c-0.1,0.1,0,0.2,0,0.3c-0.1,0.1-0.3,0.2-0.4,0.3c-0.6,0.4-1.2,0.8-1.7,1.2C65,7.7,64.9,7.9,64.7,8c-0.2,0.2-0.5,0.4-0.7,0.6
				c0,0,0,0.1,0,0.1c0,0,0.1,0,0.1,0c0.8-0.8,1.9-1.4,2.9-2c0.2-0.1,0.4-0.2,0.6-0.4c0.7,0.4,1.4,0.7,2.2,1c-0.9,0.6-1.7,1.3-2.6,2
				c-0.3,0.3-0.7,0.5-1,0.8c-0.1,0.1-0.3,0.2-0.4,0.3c-0.3,0.2-0.6,0.4-0.9,0.6c-0.1,0-0.1,0.1,0,0.2c0,0.1,0.1,0.1,0.2,0
				c0.3-0.2,0.6-0.3,0.8-0.5c0.5-0.3,1-0.7,1.4-1c1-0.7,1.9-1.5,3-2.1c0.3,0.2,0.6,0.3,0.9,0.5c0.1,0.1,0.3,0.2,0.4,0.3
				c0,0.3-0.1,0.5-0.1,0.8c-0.2,0.1-0.4,0.2-0.6,0.4c-1,0.7-2,1.4-2.9,2.2c-0.7-0.1-1.3-0.2-2-0.3c-1.2-0.1-2.3-0.2-3.5-0.2
				C61,11.1,59.5,11,58,11c-4.1,0-8.2,0.1-12.2,0.2c0.5-0.4,1.1-0.7,1.6-1.1c0.1-0.1,0.1-0.2,0-0.3c-0.1-0.1-0.2-0.1-0.3-0.1
				c-0.7,0.5-1.4,0.9-2,1.4c-0.3,0-0.6,0-1,0c-1.2,0-2.3,0.1-3.5,0.1c0.9-0.6,1.9-1.1,2.8-1.7c0.1-0.1,0.1-0.2,0.1-0.3
				c-0.1-0.1-0.2-0.1-0.3-0.1c-1.1,0.6-2.3,1.3-3.3,2c-1.3,0-2.6,0-3.8,0c0.1,0,0.1-0.1,0.2-0.1c0.3-0.2,0.5-0.4,0.8-0.6
				c0.2-0.1,0.4-0.3,0.5-0.5c0.1,0,0.1-0.1,0.2-0.1c0.1-0.1,0.2-0.3,0.3-0.4c0,0,0-0.1,0-0.1c0,0-0.1,0-0.1,0
				c-0.6,0.3-1.1,0.8-1.7,1.2c-0.3,0.2-0.6,0.5-0.9,0.7c-1,0-1.9-0.1-2.9-0.1c-0.1,0-0.1,0-0.2,0c0.2-0.2,0.5-0.4,0.7-0.7
				c0.3-0.3,0.5-0.6,0.8-0.9c-0.1,0-0.2,0.1-0.3,0.1c-0.1,0.1-0.2,0.2-0.3,0.2c-0.4,0.3-0.7,0.5-1,0.8c-0.1,0.1-0.3,0.2-0.4,0.3
				c-0.4,0-0.7,0-1.1,0c-0.6,0-1.1,0-1.7,0c-1.5,0-3,0-4.5,0c-2.5,0.1-5,0.2-7.5,0.2c-1.2,0-2.4,0.1-3.6,0.1c-0.8,0-1.5,0-2.3,0.1
				c0,0,0-0.1,0-0.1c0-0.1-0.1-0.1-0.2,0c-0.1,0.1-0.2,0.1-0.3,0.2c-0.7,0-1.5,0-2.2,0c-0.6,0-1.1,0-1.7,0c0.1-0.1,0.2-0.1,0.3-0.2
				c0.5-0.3,0.9-0.6,1.4-0.9c0.4-0.3,0.8-0.5,1.3-0.8c0.3-0.2,0.6-0.4,1-0.5c0.1-0.1,0.1-0.2,0.1-0.3c-0.1-0.1-0.2-0.1-0.3-0.1
				c-1.4,0.9-2.8,1.8-4.1,2.9c-0.1,0-0.2,0-0.3,0c-0.6,0-1.1,0-1.7,0c-0.1,0-0.2,0-0.3,0c0-0.4,0.1-0.7,0.1-1.1
				c0.9-0.7,1.9-1.3,2.8-2C8,8.1,8.8,7.5,9.7,6.9c0.2-0.1,0.4-0.3,0.6-0.4c0.2,0,0.4,0.1,0.6,0.1c0.5,0.1,1,0.2,1.5,0.2
				c-0.1-0.1-0.3-0.3-0.5-0.4c-0.2-0.1-0.3-0.2-0.5-0.3c2.8,0,5.6,0.1,8.5,0.1c5.5,0,11,0.1,16.5,0.1c2.8,0,5.6,0,8.4,0
				c2.9,0,5.8-0.1,8.7-0.1c0.3,0,0.6,0,0.9,0c0.3,0,0.6,0,0.9,0c1.3-0.1,2.6-0.1,3.9-0.2C61.4,6,63.7,5.9,66,5.8c0.1,0,0.2,0,0.3,0
				c0.1,0,0.3,0,0.5,0c0,0,0.1,0,0.1,0C67,5.8,67.1,5.8,67.3,5.8C67.3,5.8,67.3,5.8,67.3,5.8C67.3,5.8,67.3,5.8,67.3,5.8z M5.9,6.1
				c0.1,0,0.2,0,0.3,0c-0.3,0-0.6,0-0.8,0.1C4.8,6.4,4.3,6.7,3.8,7C3.7,7.2,3.6,7.3,3.5,7.4C3.4,7.5,3.3,7.7,3.2,7.8
				c0,0,0-0.1,0-0.1c0.1-0.2,0.1-0.3,0.2-0.5C3.5,7.1,3.5,7,3.5,7c0-0.1,0.1-0.2,0.1-0.3l0.1-0.1l0.1,0c0.1,0,0.2-0.1,0.3-0.1
				c0.3-0.1,0.6-0.2,0.8-0.3C5.2,6.1,5.4,6.1,5.6,6C5.7,6.1,5.8,6.1,5.9,6.1z M7.2,6.1C7.1,6.2,7.1,6.2,7,6.3c0,0-0.1,0-0.1,0.1
				c-0.2,0-0.3,0.1-0.5,0.2c0,0,0-0.1,0-0.1c0-0.1-0.1-0.3-0.3-0.3C6.7,6.1,6.9,6.1,7.2,6.1z M8.8,6.2c0.2,0,0.5,0.1,0.7,0.1
				c0.1,0,0.2,0.1,0.3,0.1c0,0-0.1,0-0.1,0.1C8.8,7.1,7.9,7.8,7,8.5c-0.9,0.7-1.8,1.3-2.7,2c0-0.2,0-0.5,0.1-0.7c0-0.2,0-0.3,0-0.5
				c0,0,0-0.1,0.1-0.1C4.6,9.1,4.6,9,4.7,8.9c0.2-0.2,0.5-0.4,0.7-0.6c0.2-0.2,0.5-0.4,0.7-0.6C6.4,7.4,6.7,7.2,7,7
				c0.1,0,0.2-0.2,0.3-0.2c0.2-0.1,0.4-0.1,0.6,0c0.1,0,0.2-0.1,0.2-0.2c0-0.1-0.1-0.2-0.2-0.2c-0.1,0-0.3,0-0.4-0.1c0,0,0,0,0,0
				c0.1,0,0.1-0.1,0.2-0.1C8.1,6.2,8.5,6.2,8.8,6.2z M4.6,7.9C4.5,8.1,4.4,8.2,4.3,8.4C4.2,8.3,4.1,8.3,4,8.3c-0.1,0-0.2,0-0.2,0
				c0,0,0.1-0.1,0.1-0.1C4,8,4.1,7.9,4.2,7.8c0.1-0.1,0.1-0.1,0.2-0.2c0.1-0.1,0.2-0.2,0.4-0.3c0.4-0.3,0.8-0.5,1.3-0.5
				C5.5,7,5.1,7.4,4.6,7.9z M5.7,7.5c0.2-0.1,0.4-0.3,0.6-0.4C6.1,7.2,5.9,7.4,5.7,7.5z M3.4,9.3c0,0-0.1,0.1-0.1,0.1
				C3.2,9.5,3.1,9.6,3.1,9.6c0.1-0.1,0.1-0.3,0.2-0.4c0.1-0.1,0.1-0.3,0.2-0.5C3.5,9,3.4,9.2,3.4,9.3z M71.3,11.9
				c-0.1,0-0.3,0-0.4,0c-0.1,0-0.3,0-0.4,0c-0.4,0-0.8,0-1.2,0c0,0,0,0,0,0c-0.3-0.1-0.5-0.1-0.8-0.2c0.2-0.1,0.3-0.3,0.5-0.4
				c0.8-0.6,1.6-1.1,2.4-1.6C71.3,10.4,71.3,11.1,71.3,11.9z M72.4,9.7l0.1,0.4l0.1,0.4l0,0c0,0.4,0,0.7,0,1
				c-0.1,0.1-0.2,0.2-0.3,0.2C72.4,11.1,72.4,10.4,72.4,9.7L72.4,9.7z M2.8,10.4L2.8,10.4L2.8,10.4l0,0.1
				C2.8,10.5,2.8,10.5,2.8,10.4z M72.8,10.8L72.8,10.8L72.8,10.8L72.8,10.8z M72.8,10.8L72.8,10.8l0,0.2c0,0.2,0,0.3,0,0.5
				c0,0,0,0,0,0C72.8,11.3,72.8,11.1,72.8,10.8z M2.6,11.1c-0.1,0.2-0.1,0.3-0.2,0.5C2.5,11.5,2.5,11.3,2.6,11.1
				C2.6,11.1,2.6,11.1,2.6,11.1C2.6,11.1,2.6,11.1,2.6,11.1z M3.2,11.3C3.2,11.4,3.2,11.4,3.2,11.3c-0.1-0.1,0-0.2,0-0.3
				C3.2,11.1,3.2,11.2,3.2,11.3z M3.2,11.8c0,0-0.1,0-0.1,0c0,0,0-0.1,0-0.1c0,0,0.1-0.1,0.1-0.1C3.2,11.6,3.2,11.7,3.2,11.8z
				 M25.7,11.9c-1.3,0.1-2.7,0.1-4,0.2c-1.1,0.1-2.1,0.1-3.2,0.2c-2.9,0.2-5.9,0.4-8.8,0.5c0,0,0,0,0,0c0.2-0.1,0.4-0.3,0.7-0.4
				c0.3,0,0.6,0,1,0c2,0,4-0.1,6-0.2c3-0.1,6-0.2,9-0.2C26.1,11.9,25.9,11.9,25.7,11.9z M63.2,12c0.8,0.1,1.5,0.1,2.3,0.2
				c0.6,0.1,1.1,0.1,1.7,0.1c0,0-0.1,0.1-0.1,0.1c-0.5,0.5-0.9,1-1.4,1.5c0,0.1,0,0.1,0,0.2c0.1,0.1,0.1,0,0.2,0
				c0.2-0.2,0.4-0.4,0.6-0.6c0.4-0.4,0.8-0.8,1.3-1.1c0.8,0.1,1.5,0.1,2.3,0.1c0.4,0,0.9,0,1.3-0.1c0,0,0,0.1,0,0.1
				c-2,1.4-3.9,3-5.8,4.5c-0.1,0-0.1,0.1,0,0.2c0,0.1,0.1,0.1,0.2,0c1.8-1.4,3.6-2.8,5.4-4c0.1-0.1,0.2-0.1,0.2-0.2
				c0,0.9,0,1.9,0,2.8c0,0,0,0,0,0c-0.2,0.2-0.4,0.3-0.6,0.5c-0.8,0.7-1.6,1.3-2.4,2c-0.8,0.7-1.6,1.4-2.5,2.2c0,0,0-0.1,0-0.1
				c-0.1-0.1-0.1-0.3-0.2-0.4c-0.3-0.6-0.7-1-1.3-1.3c-0.7-0.4-1.7-0.5-2.5-0.3c-0.3,0.1-0.5,0.2-0.7,0.3c-0.2,0.1-0.4,0.3-0.6,0.4
				c-0.2,0.2-0.5,0.5-0.6,0.8c0,0.1-0.1,0.2-0.1,0.3c0,0,0,0.1-0.1,0.2c-0.1,0.4-0.2,0.8-0.2,1.2c0,0.4,0,0.9,0.1,1.3l0.1,0.4l0,0.1
				c0.1,0.3,0.2,0.5,0.3,0.7l0,0.1c0.1,0.3,0.3,0.5,0.5,0.7c0.2,0.2,0.3,0.4,0.5,0.5c1.4,1.2,3.6,0.7,4.4-0.8
				c0.5-0.9,0.6-1.8,0.4-2.8l0-0.1l0-0.3c0-0.1,0-0.3,0-0.4c0-0.1,0-0.1,0-0.2c0.4-0.4,0.8-0.7,1.3-1.1c0.7-0.5,1.3-1.1,2-1.6
				c0.4-0.3,0.7-0.6,1.1-0.9c0.3-0.3,0.7-0.5,1-0.7c0,0,0,0,0,0c0,1.1,0.1,2.2,0.1,3.3c-2.3,1.4-4.4,3.1-6.2,5.2c0,0,0,0.1,0,0.1
				c0,0,0.1,0,0.1,0c0.3-0.4,0.7-0.8,1.1-1.1c0.7-0.7,1.6-1.4,2.4-2.1c0.2-0.2,0.5-0.3,0.7-0.5c0.6-0.4,1.2-0.8,1.9-1.1
				c0,0.8,0.1,1.5,0.1,2.3c-0.2,0.1-0.4,0.3-0.6,0.4C69.8,24,68.7,25,67.7,26c-0.6,0.5-1.2,1.1-1.7,1.6c0,0,0,0.1,0,0.1
				c0,0,0.1,0,0.1,0c0.7-0.7,1.4-1.3,2.2-2c1.1-1,2.2-1.9,3.5-2.7c0.1,1.1,0.1,2.2,0.2,3.2c-0.9,0.5-1.8,1.2-2.7,1.9
				c-0.3,0.3-0.7,0.5-1,0.8c-0.9,0.8-1.9,1.6-2.8,2.4c-0.1,0.1-0.1,0.2,0,0.3c0.1,0.1,0.2,0.1,0.3,0c0.7-0.6,1.4-1.2,2.2-1.8
				c1.3-1.1,2.6-2.2,4.1-3c0,0.3,0,0.7,0.1,1c0,0.7,0.1,1.4,0.1,2.1c-0.9,0.6-1.8,1.3-2.7,2c-0.7,0.5-1.4,1.1-2.1,1.6
				c-0.3,0.2-0.6,0.4-0.9,0.7c-0.4,0.3-0.7,0.5-1.1,0.8c0,0,0,0.1,0,0.1c0,0,0.1,0,0.1,0c0.3-0.2,0.7-0.5,1.1-0.7c1-0.7,2-1.5,3-2.2
				c0.4-0.3,0.8-0.6,1.2-0.8c0.2-0.1,0.4-0.3,0.6-0.4c0.3-0.2,0.6-0.4,0.9-0.6c0,0.1,0,0.1,0,0.2c0,0.7,0.1,1.5,0.1,2.2
				c0,0.3,0,0.6,0,0.9c-2,1.3-3.9,2.8-5.6,4.5c-0.2,0.2-0.4,0.4-0.6,0.6c-0.3,0.4-0.7,0.7-1,1.1c0,0,0,0.1,0,0.1c0,0,0.1,0,0.1,0
				c0.4-0.4,0.8-0.7,1.1-1c0.1-0.1,0.2-0.2,0.3-0.3c1.6-1.5,3.3-2.9,5.1-4.1c0.2-0.1,0.3-0.2,0.5-0.3c0,0.6,0,1.1,0,1.7
				c0,0.5,0,1.1,0,1.5c0,0.4,0,0.8,0,1.2c0,0,0,0,0,0.1c-0.2,0.1-0.5,0.2-0.7,0.3c-0.4,0.2-0.7,0.4-1.1,0.6
				c-0.5,0.3-0.9,0.6-1.4,0.9c-0.5,0.4-1,0.8-1.6,1.1c-0.2,0.2-0.5,0.3-0.7,0.5c-0.1,0.1-0.3,0.2-0.4,0.2c-0.1,0.1-0.2,0.1-0.3,0.2
				c-0.2,0.1-0.5,0.3-0.7,0.4C65.2,43,65,43,64.9,43.1c-0.1,0-0.1,0.2-0.1,0.2c0,0.1,0.2,0.1,0.2,0.1c0.5-0.2,1-0.5,1.6-0.8
				c0.9-0.5,1.8-1.2,2.7-1.7c0.4-0.3,0.8-0.6,1.2-0.8c0.3-0.2,0.6-0.4,0.9-0.5c0.3-0.1,0.5-0.3,0.8-0.4c0,0.2,0,0.4,0,0.6
				c0,0.3,0,0.5-0.1,0.8c0,0.4-0.1,0.7-0.1,1.1c-1,0.5-1.9,1.1-2.7,1.7c-0.3,0.2-0.7,0.5-1,0.7c-0.4,0.3-0.7,0.5-1.1,0.8
				c-0.4,0.3-0.8,0.6-1.3,0.9c-0.3,0.2-0.5,0.4-0.8,0.5c-0.1,0-0.1,0-0.2,0c-0.7-0.1-1.4-0.2-2-0.2c-0.6-0.1-1.2-0.1-1.8-0.2
				c-0.4,0-0.8-0.1-1.2,0c-0.4,0-0.8,0-1.3,0c-0.4,0-1.1,0.1-1.3,0.4c-0.4,0.4-0.5,1.1-0.5,1.6C56.8,48.9,57,50,57,51
				c0,0.2,0,0.4,0,0.7c0,0.1,0.1,0.2,0.1,0.2c0.1,0,0.2-0.1,0.2-0.1c0-0.5,0-0.9,0-1.4c0-0.4,0-0.8,0.1-1.2c0-0.4,0.1-0.8,0.1-1.2
				c0-0.3,0.1-0.9,0.3-1.1l0.1-0.1l0.2-0.1c0.3-0.1,0.5-0.1,0.8-0.1c0.7-0.1,1.5,0,2.2,0c1,0.1,2,0.2,3.1,0.3l2.8,0.4l0.1,0.7
				c0,0,0,0,0,0c-0.1,0-0.1,0.1-0.2,0.1c-0.4,0.3-0.8,0.6-1.3,0.9c-0.2,0.2-0.4,0.3-0.7,0.4c-0.1,0.1-0.1,0.2-0.1,0.3
				c0.1,0.1,0.2,0.1,0.3,0.1c0.1-0.1,0.3-0.2,0.4-0.3c0.1-0.1,0.3-0.2,0.4-0.3c0.3-0.2,0.5-0.4,0.8-0.6c0.1-0.1,0.2-0.1,0.3-0.2
				c0,0.1,0,0.3,0,0.4c0,0.3-0.1,0.5-0.1,0.8c0,0.1,0,0.2-0.1,0.4c0,0.3-0.1,0.6-0.1,0.8l-1.4,0.4c-0.9,0.2-1.7,0.4-2.6,0.5l-0.3,0
				l-2.1-0.1c-0.7,0-1.4-0.1-2.1-0.1c-0.1,0-0.3,0-0.5,0c0,0-0.1,0-0.1,0c-0.2,0-0.4,0.3-0.3,0.5c0.1,0.2,0.3,0.2,0.4,0.3
				c0.8,0.3,1.8,0.4,2.6,0.4c0.4,0,0.8,0,1.3-0.1l0.5-0.1l0.3,0c0.6,0,1.3,0.1,1.9,0.1c0.3,0,0.5,0,0.8,0c0.2,0,0.5,0,0.7,0
				c0.2,0,0.3,0,0.5,0c0,0,0,0,0,0c-0.2,0.1-0.3,0.2-0.5,0.3c-0.3,0.2-0.8,0.4-1.1,0.6c0,0,0,0,0,0.1c0,0,0,0,0.1,0
				c0.2-0.1,0.4-0.2,0.6-0.3c0.2-0.1,0.3-0.2,0.5-0.3c0.2-0.1,0.4-0.3,0.7-0.5c0,0,0,0,0,0c0.2,0,0.3,0,0.5,0c0.2,0,0.3-0.2,0.4-0.4
				c0-0.1,0-0.1,0-0.2c0,0,0,0,0.1,0c0.4-0.3,0.9-0.7,1.3-1c0.4-0.3,0.9-0.7,1.3-1c0.4-0.3,0.7-0.6,1.1-0.8c0,0.1,0,0.2,0,0.2
				c-0.1,0.7-0.2,1.5-0.3,2.2c-0.7,0.5-1.4,1.1-2,1.7c-0.8,0.7-1.5,1.4-2.4,2c-0.2,0.2-0.5,0.3-0.7,0.4l-0.7,0.3
				c-0.9,0-1.8,0,0.1-0.1l0.6-0.6l0,0c-0.2,0.2-0.4,0.4-0.6,0.6c0,0,0,0,0,0c-5.3,0.1-6.1,0.1-7,0.1c-0.8,0-1.6,0-2.4,0
				c-1.9,0-3.8,0-5.7,0c-4.8,0-9.5,0-14.3-0.1c-4.9,0-9.8-0.1-14.7-0.1c-0.8,0-1.7,0-2.5,0c-1.2,0-2.5,0-3.7,0c-3.3,0-6.5-0.1-9.7,0
				c0.1,0,0.1-0.1,0.2-0.1c0.3-0.2,0.6-0.4,1-0.7c0.4-0.3,0.8-0.6,1.2-0.8c0.2-0.1,0.3-0.2,0.5-0.3c0.1-0.1,0.1-0.2,0.1-0.3
				c-0.1-0.1-0.2-0.1-0.3-0.1C7.4,54,7,54.3,6.6,54.6c-0.2,0.2-0.5,0.4-0.8,0.5c-0.4,0.3-0.9,0.6-1.3,0.9c-0.5,0-1,0-1.6,0.1
				c-0.1-0.2-0.2-0.4-0.3-0.6c-0.1-0.3-0.3-0.6-0.4-1c0.3-0.2,0.5-0.4,0.8-0.7c0.5-0.5,1.1-1,1.6-1.5c1-0.9,1.9-1.7,3.2-2.1
				C8,50.3,8.1,50.1,8,50c0-0.1-0.2-0.2-0.3-0.1c-1.4,0.5-2.5,1.6-3.6,2.6c-0.5,0.5-1.1,1-1.6,1.5c-0.1,0.1-0.2,0.2-0.3,0.3
				c-0.1-0.4-0.2-0.8-0.3-1.1c0-0.1,0-0.2,0-0.3c0-0.3,0-0.6,0-0.9c0-0.2,0-0.4,0-0.6c0,0,0.1-0.1,0.1-0.1C2,51.6,2,51.9,2.1,52.3
				c0,0.1,0.1,0.1,0.1,0.1c0.1,0,0.1-0.1,0.1-0.1c-0.1-0.4-0.2-0.9-0.2-1.3c0.2-0.2,0.4-0.3,0.7-0.5c1.7-1.3,3.3-2.6,5-3.8
				c0.1-0.1,0.1-0.2,0.1-0.3c-0.1-0.1-0.2-0.1-0.3-0.1c-1.4,1-2.7,2.1-4,3.2c-0.5,0.4-0.9,0.8-1.4,1.2c-0.1-0.7-0.2-1.4-0.3-2.2
				c0-0.3,0-0.7,0-1c0.1-0.1,0.2-0.2,0.3-0.2c0.6-0.6,1.2-1.1,1.8-1.6c0.9-0.7,1.8-1.4,2.8-1.9c0.4-0.2,0.8-0.4,1.2-0.5
				C8,43.1,8,43,8,42.9s-0.2-0.2-0.3-0.1c-0.1,0-0.3,0.1-0.4,0.2c-0.1,0-0.2,0.1-0.3,0.2c-0.3,0.1-0.6,0.3-0.9,0.5
				c-0.8,0.5-1.5,1.1-2.2,1.7c-0.7,0.6-1.3,1.2-1.9,1.8c-0.1,0.1-0.2,0.2-0.3,0.3c0-0.3,0-0.6,0-0.9c0-0.5,0-1.1,0-1.7
				c0,0,0-0.1,0-0.2c0-0.2,0.1-0.4,0.1-0.6c0,0,0,0,0,0C2,44,2.1,44,2.2,43.9c0,0.3,0,0.6,0,0.9c0,0.3,0,0.5,0,0.8
				c0,0.2,0.2,0.3,0.4,0.3c0.2,0,0.3-0.2,0.3-0.4c0-0.4,0-0.8-0.1-1.2c0-0.3,0-0.6-0.1-0.9c0.6-0.5,1.3-1,1.9-1.5
				c0.1-0.1,0.2-0.2,0.4-0.3c0.2-0.2,0.5-0.4,0.7-0.6c0.4-0.3,0.7-0.6,1.1-0.8c0.3-0.2,0.6-0.4,0.8-0.5c0.3-0.2,0.5-0.4,0.8-0.6
				c0,0,0-0.1,0-0.1c0,0-0.1,0-0.1,0C8.2,38.8,8,38.9,7.7,39c-0.3,0.1-0.5,0.3-0.7,0.4c-0.6,0.4-1.2,0.9-1.7,1.3
				C5,41,4.8,41.2,4.5,41.4c-0.2,0.2-0.5,0.5-0.7,0.7c-0.3,0.3-0.7,0.7-1,1c0-0.7-0.1-1.4-0.1-2c0-0.4,0-0.9-0.1-1.3
				c0-0.3,0-0.5-0.1-0.8c0.3-0.2,0.7-0.5,1-0.7c1.6-1.1,3.1-2.2,4.8-3.1c0.1-0.1,0.1-0.2,0.1-0.3c-0.1-0.1-0.2-0.1-0.3-0.1
				c-1.9,1.2-3.8,2.5-5.6,3.9c0-0.4,0-0.8-0.1-1.2c0-0.4-0.1-0.9-0.1-1.3c0.3-0.3,0.6-0.5,0.9-0.8c0.2-0.2,0.4-0.3,0.5-0.5
				c0.4-0.3,0.8-0.7,1.2-1c0.6-0.4,1.2-0.8,1.8-1.2c0.2-0.1,0.5-0.3,0.8-0.4c0.1-0.1,0.2-0.2,0.1-0.3c0-0.1-0.2-0.2-0.3-0.1
				c-1.6,0.8-2.9,1.9-4.1,3.2C3,35.4,2.7,35.7,2.4,36c0-0.6-0.1-1.2-0.1-1.8c0-0.6,0-1.1,0.1-1.7c0.3-0.2,0.6-0.4,0.8-0.6
				c1.1-0.8,2.1-1.7,3.2-2.5c0.4-0.3,0.9-0.6,1.3-0.8c0.1-0.1,0.1-0.2,0.1-0.3c-0.1-0.1-0.2-0.1-0.3-0.1c-0.2,0.1-0.5,0.3-0.7,0.4
				c-1,0.7-1.9,1.5-2.8,2.4c-0.3,0.3-0.6,0.6-1,0.8c-0.2,0.2-0.4,0.3-0.6,0.5c-0.1,0-0.1,0.1-0.2,0.1c0-0.5,0-1,0.1-1.4
				c0-0.6,0.1-1.3,0.1-1.9c0.6-0.4,1.2-0.9,1.8-1.3c0.8-0.6,1.6-1.2,2.5-1.7c0.4-0.2,0.8-0.4,1.2-0.6c0.1,0,0.1-0.1,0.1-0.2
				c0-0.1-0.1-0.1-0.2-0.1c-0.5,0.3-1,0.6-1.5,0.9c-0.7,0.5-1.3,1-2,1.5C3.8,28,3.2,28.5,2.6,29c0,0,0,0,0,0c0.1-1,0.1-2,0.2-3
				c0.2-0.2,0.4-0.4,0.7-0.5c1-0.8,2.2-1.5,3.3-2.2c0.1-0.1,0.1-0.2,0.1-0.2c-0.1-0.1-0.2-0.1-0.2-0.1c-0.8,0.5-1.5,0.9-2.2,1.4
				C4,24.6,3.8,24.8,3.5,25c-0.2,0.1-0.4,0.3-0.6,0.4c-0.1,0-0.1,0.1-0.2,0.2c0-0.8,0.1-1.5,0.2-2.2C3,22.7,3,22.1,3,21.5
				c1.5-1.4,3.1-2.6,4.9-3.7c0.6-0.4,1.3-0.9,2-1.2c0.1-0.1,0.2-0.3,0.1-0.4C9.9,16,9.7,15.9,9.6,16c-1,0.6-1.9,1.2-2.8,1.9
				c-0.5,0.4-1,0.7-1.5,1.1c-0.6,0.5-1.2,1-1.8,1.5c-0.1,0.1-0.3,0.3-0.4,0.4c0.1-0.6,0.1-1.3,0.2-1.9c0-0.5,0.1-0.9,0.1-1.4
				c0.1-0.1,0.2-0.1,0.3-0.2c1.5-1.2,3-2.4,4.6-3.5c0.3-0.2,0.6-0.4,0.9-0.7c1.9,0,3.7-0.1,5.6-0.1c1.3,0,2.6-0.1,3.9-0.1
				c3-0.1,6.1-0.3,9.1-0.4c-0.1,0.1-0.2,0.2-0.3,0.3c-0.7,0.7-1.4,1.3-2.1,2c-0.6,0.5-1.1,1.1-1.7,1.6c-0.4,0.3-0.8,0.7-1.1,1
				c-0.5,0.5-1.1,0.9-1.7,1.4c-0.2,0.2-0.5,0.3-0.7,0.5c0,0-0.1,0.1,0,0.2c0,0.1,0.1,0.1,0.2,0c0.4-0.3,0.8-0.6,1.2-0.9
				c0.4-0.3,0.7-0.6,1.1-0.9c0.2-0.1,0.3-0.3,0.5-0.4c0.4-0.3,0.8-0.7,1.2-1c0.8-0.7,1.6-1.5,2.5-2.2c0.4-0.3,0.8-0.7,1.2-1
				c0.2-0.2,0.4-0.4,0.6-0.5c0.8,0,1.5-0.1,2.3-0.1c-0.4,0.3-0.7,0.7-1.1,1c-0.7,0.6-1.3,1.2-2,1.8c-0.6,0.5-1.1,1-1.7,1.5
				c-0.2,0.2-0.5,0.4-0.7,0.7c-1.8,0.9-3.3,2.1-4.6,3.6c-0.3,0.4-0.6,0.8-0.9,1.1c-0.2,0.3-0.5,0.7-0.7,1c-0.1,0.2-0.3,0.4-0.4,0.7
				c-1.6,2.2-2.7,4.7-3.3,7.3c-0.2,0-0.3,0.2-0.3,0.3c0,0.6-0.1,1.2-0.1,1.8c-0.1,0.4-0.1,0.9-0.1,1.3c-0.1,0.8-0.1,1.6,0,2.4
				c0,0.2,0,0.4,0.1,0.6c0,0.1,0.1,0.3,0.1,0.4c0,0.3,0.1,0.6,0.2,0.9c0.2,0.8,0.5,1.5,0.8,2.3c0.2,0.4,0.4,0.8,0.6,1.2
				c0,0,0,0,0,0.1c0.2,0.5,0.4,1.1,0.7,1.6c0.1,0.3,0.3,0.6,0.4,0.8c0.2,0.4,0.4,0.7,0.7,1.1c0.4,0.6,0.9,1.2,1.4,1.8
				c0.4,0.4,0.8,0.8,1.2,1.2c0.4,0.3,0.7,0.6,1.1,0.9c0.2,0.1,0.4,0.3,0.6,0.4c0.3,0.2,0.6,0.4,0.9,0.5c0.7,0.4,1.3,0.7,2,0.9
				c0.8,0.3,1.6,0.6,2.4,0.7c2.1,0.4,4.3,0.5,6.4,0.2c0,0,0.1,0,0.1,0c0.8,0.1,1.7,0.1,2.5,0c1.2-0.1,2.4-0.3,3.6-0.6
				c0.9-0.2,1.7-0.5,2.5-0.9c0.5-0.2,1-0.5,1.4-0.7c0.3-0.2,0.6-0.3,0.9-0.5c0.8-0.5,1.6-1.1,2.2-1.7c0.8-0.8,1.6-1.7,2.2-2.6
				c0.2-0.3,0.3-0.5,0.5-0.8c0.1-0.3,0.3-0.5,0.4-0.8c0.3-0.6,0.6-1.3,0.8-1.9c0.1-0.1,0.1-0.3,0.1-0.4c0.1-0.4,0.2-0.8,0.3-1.1
				c0.1-0.4,0.2-0.8,0.2-1.3c0-0.1,0-0.2,0.1-0.3c0-0.2,0-0.3,0.1-0.5c0-0.3,0.1-0.7,0.1-1c0-0.9,0-1.7,0-2.6c0.1-1.4,0-2.8-0.2-4.2
				c0.1-0.1,0.2-0.2,0.3-0.3c0.2-0.2,0.4-0.3,0.6-0.5c0.1-0.1,0.3-0.2,0.4-0.3c0.1,0,0.1-0.1,0.2-0.1c0.1-0.1,0.1-0.2,0-0.2
				c-0.1-0.1-0.2-0.1-0.2,0c-0.1,0.1-0.3,0.2-0.4,0.3c-0.3,0.3-0.7,0.5-1,0.8c-0.2-1.1-0.6-2.3-1-3.3c0.1,0,0.1-0.1,0.2-0.1
				c0.4-0.3,0.8-0.6,1.1-0.9c0.2-0.1,0.3-0.3,0.4-0.4c0.1-0.1,0.1-0.2,0-0.2c-0.1-0.1-0.2-0.1-0.2,0c-0.2,0.2-0.4,0.4-0.6,0.6
				c-0.3,0.3-0.6,0.5-1,0.8c-0.5-1.1-1.1-2-1.7-3c0.3-0.2,0.7-0.4,1-0.6c0.4-0.2,0.8-0.4,1.1-0.7c0.3-0.2,0.6-0.4,0.9-0.6
				c0.1-0.1,0.2-0.2,0.3-0.2c0.1-0.1,0.1-0.2,0-0.3c-0.1-0.1-0.2-0.1-0.3,0c-1,0.8-2.2,1.4-3.2,2.2c-0.7-0.9-1.5-1.7-2.3-2.5
				c1.2-1.5,2.6-2.7,4.2-3.8c0.4-0.3,0.9-0.6,1.3-0.9c0.2-0.1,0.4-0.3,0.7-0.4c0.1-0.1,0.2-0.2,0.1-0.3c-0.1-0.1-0.2-0.2-0.3-0.1
				c-1,0.6-2,1.3-2.9,2.1c-1.2,0.9-2.3,2-3.3,3.2c-0.5-0.4-1-0.9-1.6-1.2c0.1-0.1,0.1-0.1,0.2-0.2c1.4-1.6,2.7-3.2,4.7-4.2
				c0.2-0.1,0.4-0.2,0.6-0.3c0.1,0,0.2-0.2,0.1-0.3s-0.2-0.2-0.3-0.1c-0.5,0.2-1,0.5-1.4,0.8c-0.3,0.2-0.5,0.4-0.8,0.6
				c-0.8,0.7-1.5,1.5-2.2,2.3c-0.2,0.3-0.5,0.6-0.7,0.9c-0.1,0.1-0.2,0.2-0.3,0.4c-0.8-0.5-1.6-1-2.5-1.4c0.1-0.1,0.2-0.2,0.3-0.3
				c0.3-0.3,0.6-0.6,0.9-0.9c0.3-0.3,0.6-0.6,0.9-0.9c0.4-0.4,0.8-0.8,1.2-1.2c0.3-0.3,0.6-0.6,1-0.9c0.2-0.1,0.3-0.3,0.5-0.4
				c0.1-0.1,0.2-0.2,0.4-0.3c0.1-0.1,0.2-0.2,0.3-0.2c0.3-0.2,0.6-0.4,0.9-0.6c1.7,0,3.4,0,5.1,0c1.2,0,2.4,0,3.6,0
				c1.4,0,2.7-0.1,4.1-0.1C61.9,11.9,62.6,12,63.2,12z M72.9,12.9c0,0.4,0,0.8,0.1,1.2c-0.1,0-0.1,0.1-0.1,0.2c0-0.7,0-1.5,0-2.2
				c0,0,0,0,0.1,0C72.8,12.4,72.8,12.7,72.9,12.9z M44.2,15.5c-0.6,0.7-1.2,1.3-1.9,2c-0.1,0.1-0.2,0.2-0.3,0.3
				c-0.3-0.1-0.6-0.3-0.9-0.4c-0.6-0.2-1.2-0.4-1.7-0.6c1.1-1.2,2.3-2.2,3.6-3.3c0.5-0.4,1-0.8,1.6-1.2c0,0,0.1-0.1,0.1-0.1
				c1,0,2.1,0,3.1,0C46.5,13,45.3,14.3,44.2,15.5z M44,12.2c-1.7,1.4-3.3,2.9-4.8,4.5c-0.5-0.1-0.9-0.3-1.4-0.4
				c-0.8-0.2-1.6-0.3-2.4-0.4c0.1-0.1,0.2-0.2,0.3-0.3c0.2-0.2,0.3-0.3,0.5-0.5c0.3-0.3,0.7-0.6,1-1c0.5-0.4,1-0.9,1.5-1.3
				c0.3-0.2,0.6-0.4,0.9-0.7c0.9,0,1.9,0,2.8,0C43,12.1,43.6,12.1,44,12.2C44.1,12.1,44.1,12.1,44,12.2z M38.2,12.8
				c-0.5,0.4-1,0.8-1.4,1.2c-0.6,0.6-1.1,1.1-1.6,1.8c-0.1,0-0.3,0-0.4,0c-1.3-0.1-2.6-0.1-3.9,0c1-0.8,2-1.7,3-2.5
				c0.5-0.4,0.9-0.7,1.4-1.1c0.1,0,0.3,0,0.4,0c1.1,0,2.3,0,3.4,0C38.7,12.4,38.4,12.6,38.2,12.8z M72.7,15C72.7,15,72.7,15,72.7,15
				c0-0.3,0-0.6-0.1-0.9c0-0.5-0.1-1-0.1-1.5c0-0.1-0.1-0.1-0.1-0.2c0,0,0,0,0,0c0.1-0.1,0.2-0.2,0.3-0.2
				C72.7,13.1,72.7,14.1,72.7,15z M3.1,12.2C3.1,12.2,3.1,12.2,3.1,12.2c0,0.2-0.1,0.4-0.1,0.6c-0.1,0-0.2,0-0.2,0
				c0-0.2,0.1-0.4,0.1-0.6C3,12.2,3,12.2,3.1,12.2z M33.7,12.9c-1.2,0.9-2.3,1.9-3.4,2.9c-1.4,0.1-2.7,0.5-4,1
				c0.6-0.6,1.2-1.1,1.8-1.7c0.5-0.5,1.1-1,1.6-1.4c0.6-0.5,1.1-1,1.6-1.4c0.2,0,0.3,0,0.5,0c0.9,0,1.8,0,2.7-0.1
				C34.3,12.4,34,12.7,33.7,12.9z M4.5,12.2c0.4,0,0.9,0,1.3,0c-0.2,0.2-0.4,0.4-0.6,0.5c-0.3,0-0.6,0-1,0c-0.1,0-0.1,0-0.2,0
				c0-0.2,0.1-0.4,0.1-0.6c0,0,0,0,0,0C4.2,12.2,4.3,12.2,4.5,12.2z M8,12.3c0.4,0,0.9,0,1.3,0c0.1,0,0.3,0,0.4,0c0,0,0,0,0,0
				c-0.2,0.1-0.4,0.3-0.7,0.5c-1.1,0-2.1,0.1-3.2,0.1c-0.1,0-0.3,0-0.4,0c0.2-0.2,0.5-0.4,0.7-0.5C6.7,12.3,7.3,12.3,8,12.3z
				 M3,13.1c-0.1,0.6-0.2,1.2-0.3,1.9c-0.1,0.1-0.2,0.2-0.4,0.3c0-0.3,0.1-0.6,0.1-0.9c0-0.3,0.1-0.6,0.2-0.9c0-0.1,0.1-0.3,0.1-0.4
				C2.8,13.1,2.9,13.1,3,13.1z M4.2,13.1c0.2,0,0.4,0,0.5,0c-0.3,0.3-0.6,0.5-0.9,0.8c0-0.3,0.1-0.5,0.1-0.8
				C4.1,13.1,4.1,13.1,4.2,13.1z M7.8,13.1c0.2,0,0.5,0,0.7,0c-0.3,0.2-0.5,0.4-0.8,0.6c-1.2,0.9-2.3,1.8-3.4,2.7
				c-0.3,0.2-0.5,0.4-0.8,0.7c0,0,0,0,0-0.1c0-0.3,0.1-0.7,0.1-1c0-0.4,0.1-0.7,0.1-1.1c0-0.3,0.1-0.5,0.1-0.8
				c0.4-0.3,0.8-0.6,1.2-1C5.9,13.1,6.9,13.1,7.8,13.1z M2.7,15.3c-0.1,0.9-0.2,1.8-0.3,2.7c-0.1,0.1-0.2,0.2-0.3,0.2
				c0-0.5,0.1-1.1,0.1-1.6c0-0.4,0.1-0.8,0.1-1.3c0.1-0.1,0.2-0.2,0.4-0.3C2.7,15.1,2.7,15.2,2.7,15.3z M72.8,15.7
				c0,0.6,0.1,1.1,0.1,1.7c0,0.1,0,0.2,0,0.2c0,0-0.1,0-0.1,0c0-0.7,0-1.4,0-2.1c0,0,0,0,0,0C72.8,15.6,72.8,15.7,72.8,15.7z
				 M33.7,16.9c0.2,0,0.3,0,0.5,0c0,0.1-0.1,0.1-0.1,0.2c0,0.1,0,0.1,0,0.2c0.1,0,0.1,0,0.2,0c0.1-0.1,0.2-0.2,0.2-0.3
				c0.4,0,0.8,0.1,1.3,0.1c0.9,0.1,1.7,0.3,2.5,0.6c-0.2,0.2-0.3,0.4-0.5,0.6c0,0,0,0.1,0,0.1c0,0,0.1,0,0.1,0
				c0.2-0.2,0.4-0.4,0.5-0.6c0.7,0.2,1.4,0.5,2,0.8c0.6,0.3,1.2,0.6,1.7,0.9c0.5,0.3,0.9,0.6,1.4,0.9c0,0,0,0,0,0.1c0,0,0,0.1,0,0.1
				h0.1c0,0,0,0,0.1-0.1c0.3,0.2,0.6,0.4,0.9,0.7c0.3,0.3,0.7,0.6,1,0.9c0.4,0.3,0.8,0.7,1.1,1.1c0.4,0.4,0.7,0.8,1.1,1.2
				c-0.2,0.2-0.3,0.4-0.5,0.6c-0.1,0.1-0.2,0.3-0.3,0.5c0,0.1,0,0.2,0.1,0.2c0.1,0,0.2,0,0.2-0.1c0.1-0.2,0.2-0.3,0.3-0.5
				c0.1-0.2,0.3-0.3,0.4-0.5c0.3,0.4,0.6,0.7,0.8,1.1l0.9,1.7c-0.1,0-0.1,0.1-0.2,0.2c-0.2,0.2-0.5,0.4-0.7,0.6
				c-0.1,0.1-0.1,0.1,0,0.2c0.1,0.1,0.1,0.1,0.2,0c0.2-0.2,0.4-0.4,0.6-0.6c0.1-0.1,0.1-0.1,0.2-0.2l0,0l0,0.1l0.3,1
				c0.1,0.3,0.1,0.5,0.2,0.8c0,0.2,0.1,0.4,0.1,0.7c0.1,0.5,0.1,1,0.2,1.5c0,0.2,0,0.5,0,0.7c0,0.3,0,0.6,0,1c0,0.3,0,0.7-0.1,1
				c0,0.4-0.1,0.9-0.2,1.3c-0.1,0.6-0.2,1.3-0.4,1.9c-0.1,0.3-0.2,0.6-0.2,0.9c-0.1,0.3-0.2,0.6-0.3,0.9c-0.2,0.4-0.3,0.9-0.5,1.3
				c-0.5,1.2-1.3,2.5-2.1,3.6c-1,1.3-2.1,2.5-3.4,3.5c-0.4,0.3-0.8,0.6-1.3,0.9l-0.2,0.1c-0.5,0.2-0.9,0.4-1.4,0.6
				c-4,1.4-8.8,1.2-12.8-0.1c-0.9-0.3-1.8-0.7-2.7-1.1c-0.4-0.2-0.8-0.4-1.1-0.6c-0.6-0.4-1.2-0.8-1.7-1.2c-0.3-0.3-0.6-0.6-0.9-0.9
				c-0.5-0.5-0.9-1-1.3-1.5c-0.1-0.2-0.3-0.4-0.4-0.6c-0.2-0.3-0.4-0.6-0.6-0.9c-0.3-0.5-0.6-1.1-0.8-1.6c-0.9-2-1.3-4.3-1-6.5
				c0-0.1,0-0.1-0.1-0.1c-0.1,0-0.1,0-0.1,0.1c-0.2,2,0,4.1,0.8,5.9c0.2,0.5,0.4,0.9,0.6,1.3c0.2,0.5,0.5,1,0.8,1.4l-0.3-0.4
				c-0.2-0.3-0.3-0.6-0.5-0.9c-0.1-0.3-0.3-0.6-0.4-0.8c-0.3-0.8-0.6-1.6-0.8-2.4c-0.2-0.7-0.3-1.4-0.3-2.1
				c-0.2-2.1,0.1-4.3,0.7-6.4c0.1-0.4,0.2-0.8,0.4-1.1c0.1-0.2,0.2-0.5,0.3-0.7c0.1-0.3,0.2-0.5,0.3-0.7c0.1-0.2,0.2-0.4,0.3-0.5
				c0.2-0.4,0.4-0.8,0.6-1.2c0.2-0.2,0.3-0.5,0.5-0.7c0.1-0.1,0.2-0.2,0.2-0.3c0.2-0.3,0.4-0.5,0.6-0.8c0.2-0.2,0.3-0.4,0.5-0.6
				c0.3-0.4,0.6-0.7,1-1.1c0.4-0.4,0.8-0.7,1.1-1c0.4-0.3,0.7-0.5,1.1-0.8c0.7-0.5,1.5-0.9,2.4-1.3c-0.3,0.3-0.7,0.7-1,1
				c0,0,0,0.1,0,0.2c0,0,0.1,0,0.2,0c0.5-0.5,0.9-1,1.4-1.4c0.1-0.1,0.3-0.1,0.4-0.2c1.1-0.3,2.1-0.5,3.3-0.6c0.1,0,0.1,0,0.1-0.1
				S31,18,31,18c-0.4,0-0.8,0.1-1.1,0.1c-0.8,0.1-1.5,0.3-2.2,0.5c0.1-0.1,0.2-0.2,0.3-0.3c0.2-0.2,0.4-0.4,0.6-0.6
				c0.3-0.1,0.7-0.2,1-0.3c-0.2,0,0,0,0.1,0c0.7-0.2,1.3-0.3,2-0.4c0.3,0,0.5-0.1,0.8-0.1c0.2,0,0.4,0,0.6,0
				C33.3,16.9,33.5,16.9,33.7,16.9z M27,18.8c-0.4,0.1-0.8,0.3-1.2,0.5c-2.8,1.3-5.1,3.6-6.7,6.3c-0.2,0.3-0.4,0.7-0.6,1.1
				c-0.2,0.3-0.3,0.6-0.5,0.9c-0.2,0.5-0.4,1-0.6,1.5c0,0.1-0.1,0.2-0.1,0.3c-0.2,0.6-0.3,1.1-0.5,1.7c-0.3,1.3-0.4,2.6-0.5,3.9
				c0,0.4,0,0.7,0,1.1c0,0.1,0,0.3,0,0.4c-0.3-1.7-0.3-3.5,0-5.2c0.4-2,1.1-3.8,2.1-5.5c0.3-0.5,0.7-1.1,1-1.6
				c0.1-0.2,0.2-0.3,0.4-0.5c0.4-0.4,0.7-0.8,1.1-1.2c0.6-0.6,1.2-1.2,1.9-1.8c0.4-0.3,0.7-0.5,1.1-0.8c0.3-0.2,0.7-0.4,1-0.6
				c0.6-0.3,1.1-0.6,1.7-0.9c0.3-0.1,0.7-0.3,1-0.4c0,0,0,0,0.1,0C27.6,18.2,27.3,18.5,27,18.8z M2,21.8c0,0-0.1,0.1-0.1,0.1
				c0-1.1,0-2.2,0.2-3.4c0.1-0.1,0.1-0.1,0.2-0.2C2.2,19.5,2.1,20.6,2,21.8z M64.1,19.5c0.1,0,0.1,0.1,0.2,0.1l0.1,0.1l-0.1,0
				c-0.4-0.2-1-0.4-1.4-0.4c-0.3,0-0.5,0-0.8,0.1c-0.4,0.1-0.7,0.3-0.9,0.6c-0.2,0.2-0.3,0.4-0.4,0.7L60.8,21l0,0
				c-0.1,0-0.2,0-0.2,0.1l-0.1,0.2l0.1-0.3l0.1-0.3C61.1,19.2,62.9,18.8,64.1,19.5z M63.9,20.3l0.3,0.2l0.2,0.1
				c0.1,0.1,0.1,0.1,0.2,0.2c0.1,0.1,0.2,0.3,0.3,0.5c-0.1,0.1-0.3,0.2-0.4,0.4c-0.1,0.1-0.1,0.1,0,0.2c0.1,0.1,0.1,0.1,0.2,0
				c0.1-0.1,0.2-0.2,0.4-0.3c0,0,0,0.1,0.1,0.1l0.1,0.3l-0.1,0.3l0,0.1l0-0.1c-0.1-0.1-0.1-0.1-0.2-0.1c-0.2,0-0.4,0.1-0.4,0.3
				c0,0.2-0.1,0.4-0.1,0.6c-0.1,0.2-0.2,0.4-0.3,0.5c-0.5,0.5-1.2,0.3-1.7-0.1c-0.3-0.3-0.6-0.7-0.7-1.1l-0.1-0.4l0-0.3
				c0-0.3,0-0.6,0.1-0.9c0-0.1,0.1-0.2,0.2-0.3c0.1-0.1,0.3-0.4,0.5-0.4c0,0,0.1,0,0.1-0.1c0.1,0,0.3-0.1,0.4-0.1
				C63.1,20,63.5,20.1,63.9,20.3z M46.5,21.3l0.5,0.4l0.2,0.2L46.5,21.3z M33.1,21.5c-0.1,0-0.2,0-0.3,0c0,0-0.1,0-0.1,0.1
				c-0.1,0-0.2,0-0.3,0c-1.1,0-2.2,0.2-3.2,0.6c-0.5,0.2-0.9,0.4-1.3,0.6c-0.2,0.1-0.4,0.2-0.6,0.4c-0.4,0.2-0.8,0.5-1.1,0.8
				c-0.2,0.2-0.4,0.4-0.6,0.6c-0.8,0.8-1.5,1.7-2.1,2.7c0,0,0,0,0,0c0,0-0.1,0.1-0.1,0.1c-0.6,0.9-1.1,1.9-1.5,2.9
				c-0.1,0.3-0.2,0.5-0.3,0.8c0,0.1-0.1,0.2-0.1,0.3c-0.1,0.1-0.2,0.1-0.3,0.2c-0.1,0-0.1,0.1,0,0.2c0,0.1,0.1,0.1,0.2,0
				c-0.1,0.2-0.1,0.3-0.1,0.5c-0.1,0-0.3,0.2-0.3,0.3c0,0.5-0.1,1,0,1.5c-0.2,1.4-0.1,2.6,0.3,4c0.1,0.4,0.2,0.7,0.4,1.1
				c-0.1,0.1-0.2,0.2-0.3,0.3l0,0.1l0.1,0c0.1-0.1,0.2-0.2,0.3-0.3c0.1,0.3,0.3,0.6,0.4,0.8c0,0.1,0.1,0.1,0.1,0.2
				c0.2,0.6,0.5,1.2,0.8,1.7c0.1,0.2,0.2,0.4,0.4,0.6c0,0,0,0,0,0c0,0,0,0,0,0c0,0,0,0,0,0c0.1,0.2,0.2,0.4,0.4,0.5
				c0.3,0.4,0.7,0.8,1,1.2c0,0.1,0,0.1,0,0.2c0.1,0.1,0.2,0.1,0.2,0c0,0,0,0,0,0c0.5,0.5,1.1,0.9,1.7,1.3c2.2,1.4,4.9,1.8,7.5,1.5
				c0.1,0,0.2,0,0.3,0c0.3,0,0.6,0,0.8,0c0.3,0,0.7,0,1.1-0.1c0.6-0.1,1.3-0.2,1.9-0.3c0.3-0.1,0.6-0.2,0.9-0.3
				c0.1,0,0.3-0.1,0.3-0.1c0.3-0.1,0.6-0.2,0.8-0.4c1.1-0.5,2.3-1.4,3.1-2.3c0.6-0.6,1.1-1.3,1.5-2c0.2-0.1,0.3-0.3,0.5-0.4
				c0.2-0.2,0.4-0.3,0.5-0.5c0.1-0.1,0.3-0.3,0.4-0.4c0.2-0.2,0.3-0.3,0.5-0.5c0.1-0.1,0.3-0.3,0.4-0.4c0.2-0.2,0.3-0.5,0.4-0.7
				c-0.2,0.1-0.4,0.3-0.6,0.4c-0.3,0.3-0.6,0.6-0.9,0.9c-0.2,0.2-0.5,0.5-0.7,0.7c0.2-0.4,0.4-0.9,0.5-1.3c0.4-0.3,0.7-0.6,1.1-0.9
				c0.1-0.1,0.1-0.3,0-0.4c-0.1-0.1-0.3-0.1-0.4,0c-0.1,0.1-0.3,0.3-0.4,0.4c0.1-0.6,0.2-1.2,0.3-1.8c0.3-0.2,0.6-0.5,0.9-0.7
				c0.1-0.1,0.2-0.3,0-0.5c-0.1-0.1-0.3-0.2-0.5,0c-0.1,0.1-0.3,0.2-0.4,0.4c0-0.3,0-0.7,0-1c0.1-0.1,0.3-0.2,0.4-0.3
				c0.1-0.1,0.1-0.3,0-0.4c-0.1-0.1-0.3-0.1-0.4,0c0,0,0,0,0,0c0.1-0.2,0.1-0.7,0-1.1c0.2-0.2,0.5-0.4,0.7-0.6
				c0.1-0.1,0.1-0.2,0.1-0.4C47,32,46.9,32,46.8,32c-0.1,0.1-0.3,0.2-0.4,0.3c-0.1-0.5-0.2-1-0.3-1.6c0,0,0.1-0.1,0.1-0.1
				c0.1-0.1,0.2-0.3,0.1-0.4c-0.1-0.1-0.2-0.2-0.4-0.1c-0.1-0.2-0.2-0.4-0.3-0.7c0-0.1-0.1-0.2-0.1-0.3c0-0.1,0.1-0.1,0.1-0.2
				c0.1-0.2,0.1-0.3,0.2-0.5c0,0,0-0.1,0-0.1c0-0.1-0.1-0.3-0.2-0.2c-0.1,0-0.1,0.1-0.2,0.1c-0.1,0.1-0.2,0.1-0.3,0.2
				c-0.2-0.4-0.4-0.7-0.6-1c0,0,0,0,0,0c0.1-0.1,0.1-0.1,0.2-0.2c0.1-0.1,0.1-0.2,0-0.2c-0.1-0.1-0.2-0.1-0.2,0
				c-0.1,0-0.1,0.1-0.2,0.1c-0.6-0.8-1.4-1.6-2.2-2.3c-1-0.8-2-1.4-3-1.9c0.2-0.2,0.3-0.4,0.5-0.5c0.1-0.1,0.1-0.3,0-0.4
				c-0.1-0.1-0.3-0.1-0.4,0c-0.2,0.2-0.4,0.5-0.7,0.7c-0.1-0.1-0.3-0.1-0.4-0.1c0-0.1,0-0.2-0.1-0.2c-0.1-0.1-0.3-0.2-0.5-0.1
				c0,0-0.1,0-0.1,0.1c-1-0.3-2-0.5-3.1-0.6c-0.1,0-0.3,0-0.4,0c0-0.1,0-0.1-0.1-0.2c-0.1-0.1-0.3-0.2-0.4-0.1
				C33.3,21.4,33.2,21.5,33.1,21.5z M45.6,21.4l0.7,0.6l0.2,0.2L45.6,21.4z M60.7,21.5v0.4c0,0.4,0.1,0.8,0.2,1.1
				c0.1,0.3,0.3,0.6,0.5,0.9c0.2,0.3,0.6,0.5,0.9,0.7l0.2,0.1c-0.1,0-0.3,0-0.4,0c-0.4,0-0.7-0.1-1-0.3l-0.1-0.1L61,24.2
				c-0.4-0.6-0.6-1.3-0.6-2l0-0.1l0.1-0.2c0-0.1,0.1-0.2,0.2-0.3L60.7,21.5z M1.9,23.4c0-0.3,0-0.6,0-0.9c0,0,0,0,0.1-0.1
				C2,22.7,2,23.1,1.9,23.4z M33.9,22.6C33.9,22.6,33.9,22.6,33.9,22.6c-0.9,0.8-1.9,1.7-2.8,2.6c0,0,0,0,0,0
				c-0.4,0.3-0.8,0.5-1.1,0.8c-0.2,0.1-0.4,0.2-0.6,0.4c-0.2,0.1-0.4,0.3-0.6,0.4c-0.6,0.4-1.2,0.8-1.8,1.1c0,0,0,0.1,0,0.1
				c0,0,0.1,0,0.1,0c0.5-0.3,0.9-0.5,1.4-0.8c0.3-0.2,0.6-0.3,0.9-0.5c0.1-0.1,0.3-0.2,0.4-0.2c0.1-0.1,0.2-0.1,0.3-0.2c0,0,0,0,0,0
				c-0.4,0.4-0.7,0.7-1.1,1.1c-0.7,0.7-1.5,1.4-2.2,2.1c0.1-0.2,0.2-0.5,0.3-0.7c0-0.1,0-0.1,0.1-0.2c0-0.1,0.2-0.4,0.1-0.5
				c0,0,0,0-0.1-0.1c-0.1-0.1-0.2,0.1-0.3,0.2c-0.3,0.3-0.5,0.5-0.8,0.8c-0.1,0.1-0.2,0.3-0.4,0.4c-0.1,0.1-0.1,0.1-0.2,0.2
				l-0.2,0.2l0.8-1.1c0.2-0.3,0.5-0.7,0.7-1c0.1-0.1,0.1-0.1,0.2-0.2c0.9-0.9,1.8-1.7,2.7-2.6c0.5-0.4,1-0.8,1.5-1.2
				c0.2-0.1,0.4-0.2,0.5-0.4c0.1,0,0.2,0,0.3,0c0.1,0,0.1,0,0.1-0.1c0,0,0-0.1-0.1-0.1c0.1-0.1,0.2-0.1,0.3-0.2l0.6-0.4l0,0
				c0,0,0,0,0.1,0c-0.1,0-0.1,0.1-0.1,0.2c0,0,0,0.1-0.1,0.1c0,0,0.3-0.1,0.4-0.1c0.1,0,0.2-0.1,0.3-0.1
				C33.5,22.6,33.7,22.6,33.9,22.6z M36.3,23c-0.1,0.1-0.2,0.2-0.3,0.3c-0.6,0.5-1.1,0.9-1.6,1.4c-0.2,0.1-0.3,0.2-0.5,0.3l-0.1,0.1
				l0.5-0.5c0.4-0.5,0.8-1.1,1.2-1.7C35.7,22.9,36,22.9,36.3,23z M31.3,23c-0.2,0.1-0.3,0.3-0.5,0.4c-0.1,0-0.3,0-0.4,0.1
				c-0.2,0-0.4,0.1-0.6,0.2c-0.6,0.2-1,0.4-1.6,0.6c-0.2,0.1-0.4,0.2-0.6,0.4c-0.2,0.1-0.5,0.3-0.7,0.5c-0.1,0.1-0.3,0.2-0.4,0.3
				c-0.3,0.2-0.6,0.5-0.8,0.7c-0.1,0.1-0.2,0.2-0.3,0.3c0,0,0.1-0.1,0.1-0.1c0.1-0.1,0.2-0.2,0.2-0.4c0.1-0.1,0.1-0.1,0.2-0.2
				c1.2-1.1,2.8-2.1,4.4-2.5C30.7,23,31,23,31.3,23C31.3,22.9,31.3,22.9,31.3,23z M34.7,23.2L34.7,23.2L34.7,23.2
				C34.8,23.2,34.7,23.3,34.7,23.2z M34.6,23.4L34.6,23.4l-0.4,0.6c-0.4,0.5-0.8,0.9-1.2,1.4c-0.3,0.3-0.6,0.6-0.9,0.9l-0.5,0.4
				l-0.4,0.3c-0.4,0.3-0.7,0.6-1.1,0.8l-0.4,0.3l0,0l0,0c-0.1,0.1,0,0.4,0.2,0.3l0.1,0l0.1-0.1l0.1-0.1c0.1,0,0.2-0.1,0.2-0.2
				c0.1-0.1,0.3-0.2,0.4-0.2c0.2-0.1,0.4-0.3,0.6-0.4l0.3-0.3l0.3-0.2l-0.1,0.1c-0.3,0.2-0.5,0.5-0.8,0.7c-1.1,1.1-2.2,2.2-3.3,3.3
				c0-0.1,0-0.1,0.1-0.2c0.1-0.2-0.1-0.4-0.3-0.2c-0.5,0.5-1.1,1-1.6,1.4c-0.5,0.4-0.9,0.8-1.4,1.2l-0.2,0.2l0.1-0.2
				c0.2-0.3,0.3-0.5,0.5-0.8c0.1-0.2,0.3-0.4,0.4-0.6c0.3-0.5,0.6-0.9,0.9-1.4c0.8-0.8,1.5-1.5,2.3-2.3C30.3,26.6,32.4,25,34.6,23.4
				z M37.5,23.5c-0.2,0.2-0.3,0.3-0.5,0.5c0.1-0.2,0.2-0.4,0.3-0.6C37.4,23.4,37.5,23.4,37.5,23.5z M36.9,23.5l-0.5,0.8
				c-0.2,0.4-0.5,0.7-0.8,1l-0.4,0.4l-0.5,0.4c-0.2,0.1-0.3,0.3-0.5,0.4c-0.4,0.3-0.8,0.7-1.2,1c-0.3,0.2-0.6,0.5-0.9,0.7
				c0,0-0.1,0.1-0.2,0.1l0,0l0,0l-0.1,0.1c-0.1,0.1,0.1,0.3,0.2,0.3l0.1,0l0,0c0,0,0.1-0.1,0.1-0.1c-0.2,0.2-0.5,0.5-0.7,0.7
				c-0.8,0.8-1.7,1.6-2.5,2.4c-1.4,1.3-2.8,2.6-4.2,3.9c0.1-0.2,0.2-0.3,0.3-0.5c0.2-0.4,0.5-0.7,0.7-1.1c0.3-0.5,0.6-0.9,0.9-1.4
				c0.1-0.1,0.2-0.2,0.2-0.2c0.8-0.8,1.6-1.6,2.4-2.4c0.8-0.8,1.6-1.5,2.4-2.2c1.4-1.2,2.8-2.5,4.2-3.7c0.2-0.2,0.5-0.4,0.7-0.6
				L36.9,23.5z M28.9,25.1c-0.2,0.2-0.3,0.3-0.5,0.5c-0.1,0.1-0.2,0.1-0.2,0.2c0,0,0.1-0.1,0.1-0.2l0-0.1l0.1-0.2c0,0,0-0.1-0.1-0.1
				c-0.1-0.1-0.2,0-0.3,0.1c-0.1,0.1-0.2,0.2-0.3,0.3c-0.2,0.2-0.5,0.4-0.7,0.6c-0.3,0.3-0.6,0.6-0.9,0.9c-0.3,0.3-0.6,0.6-0.9,0.9
				c-0.2,0.1-0.3,0.3-0.5,0.4l0,0.1c0.1,0,0.1-0.1,0.2-0.1c-0.4,0.4-0.8,0.8-1.1,1.2c0-0.2,0.1-0.3,0.2-0.4c0.4-0.7,0.8-1.3,1.2-1.9
				c1.4-1.7,3.3-3.1,5.5-3.6C29.9,24.1,29.4,24.6,28.9,25.1z M65.2,23.7l0,0.1c-0.1,0.3-0.3,0.6-0.5,0.9c-0.1,0.1-0.3,0.3-0.4,0.3
				l-0.5,0.2l-0.2,0.1c-0.2,0.1-0.4,0.1-0.6,0.1c-0.1,0-0.1,0-0.2,0c-0.1,0-0.2,0-0.3-0.1l-0.3-0.1l0.1,0c0.3,0,0.7-0.1,1-0.2
				c0.2-0.1,0.4-0.1,0.6-0.2c0.1,0,0.2-0.1,0.2-0.1c0.4-0.2,0.7-0.5,1.1-0.8L65.2,23.7z M38.7,24L38.7,24l-0.4,0.6
				c-0.1,0.1-0.2,0.3-0.3,0.4c-0.1,0.1-0.2,0.2-0.2,0.3c0,0.1,0,0.1,0,0.2c0,0-0.1,0.1-0.1,0.1c0,0-0.1,0.1,0,0.2c0,0,0.1,0.1,0.2,0
				c0.1-0.1,0.1-0.1,0.2-0.2c0,0,0.1,0,0.1-0.1c0,0,0,0,0,0c0.3-0.3,0.7-0.5,1.1-0.8c0.1-0.1,0.2-0.1,0.3-0.2
				c0.1,0.1,0.2,0.1,0.3,0.2l0,0l-0.1,0.1L39.6,25l-0.1,0.1l-0.1,0.1l-0.1,0.1l-0.1,0.1l-0.1,0.1c-0.1,0.1-0.1,0.2,0,0.2
				c0.1,0.1,0.2,0.1,0.2,0c0,0,0,0,0,0l0.1,0l0.1,0l0.1-0.1l0.1,0l0.1,0l0.1,0l0,0L39.7,26L39.6,26l-0.1,0.1l-0.1,0.1l0,0l0,0
				l0.2,0.2l0.2,0.1l0,0l0,0l0.1-0.1l0-0.1l0.1-0.1l0.1-0.1l0.1-0.1l0-0.1l0.1-0.1l0.1-0.1l0.1-0.1l0-0.1l0.1-0.1l0.1-0.1l0.1-0.1
				l0.1-0.1l0-0.1l0,0c0.1,0.1,0.3,0.2,0.4,0.3c0.2,0.2,0.4,0.4,0.6,0.5c0,0-0.1,0.1-0.1,0.1c-0.1,0-0.3,0.2-0.4,0.2
				c-0.1,0.1-0.1,0.1-0.2,0.2c-0.1,0.1-0.2,0.2-0.3,0.2c-0.1,0.1-0.1,0.2-0.2,0.3c0,0,0,0.1,0,0.1c0,0,0.1,0,0.1,0
				c0.1-0.1,0.2-0.1,0.3-0.1c0.1-0.1,0.2-0.2,0.3-0.2c0,0,0,0,0,0C41.1,27,41,27,41,27.1c0,0,0,0.1,0,0.1c0,0.1-0.1,0.2-0.2,0.3
				c0,0-0.1,0.1,0,0.1c0,0,0.1,0.1,0.1,0c0,0,0.1,0,0.1,0c-0.1,0.1-0.1,0.1-0.1,0.2c0,0.1,0.1,0.1,0.1,0.2c0.1,0,0.1,0.1,0.2,0.1
				c0.1-0.1,0.2-0.2,0.3-0.3c0.1-0.1,0.1-0.2,0.2-0.2c0.1-0.1,0.2-0.2,0.2-0.2c0.2-0.1,0.4-0.2,0.6-0.3c0,0,0-0.1,0-0.1
				c0.1,0.1,0.2,0.2,0.2,0.3c-0.1,0-0.4,0.2-0.5,0.3c-0.4,0.3-0.8,0.5-1.2,0.8c0,0,0,0.1,0,0.1c0,0,0.1,0,0.1,0
				c0.3-0.2,0.5-0.4,0.8-0.5l0.5-0.3l-0.1,0.1c-0.1,0.1-0.2,0.3-0.3,0.4c0,0.1-0.1,0.1-0.2,0.2c-0.1,0.2-0.3,0.4-0.4,0.5
				c0,0-0.1,0.1-0.1,0.1c-0.6,0.5-1.1,1-1.7,1.5c-0.7,0.6-1.3,1.2-1.9,1.8c-1.6,1.5-3.1,3-4.7,4.6c-0.1,0.1-0.1,0.2,0,0.2
				c0.1,0.1,0.2,0.1,0.2,0c1.6-1.5,3.1-3,4.8-4.5c0,0,0,0.1-0.1,0.1c-0.2,0.2-0.4,0.5-0.5,0.7c-0.1,0.1-0.2,0.3-0.2,0.4c0,0,0,0,0,0
				c-0.2,0.2-0.5,0.5-0.7,0.7c-1.1,1.1-2.2,2.2-3.3,3.4c-0.1,0.1-0.1,0.2,0,0.3h0.1c0,0,0,0,0,0c0,0,0,0,0,0.1c0,0,0,0,0.1,0
				l1.1-0.7L34.3,38c-0.3,0.5-0.6,1-1,1.4c-0.1,0.1-0.2,0.2-0.2,0.3c-0.1,0.1-0.2,0.2-0.3,0.4c-0.2,0.3-0.5,0.5-0.8,0.8
				c-0.2,0.2-0.4,0.4-0.6,0.6c-0.6,0.6-1.2,1.1-1.8,1.7c-0.2,0.2-0.4,0.4-0.6,0.6l-0.2,0.2l0,0l0,0c0,0.1,0,0.2,0.1,0.2
				c0,0,0,0,0,0.1c0,0,0.1,0,0.1,0c0.4-0.2,0.7-0.4,1.1-0.7c0.7-0.5,1.5-1.1,2.1-1.6c0.4-0.4,0.9-0.8,1.3-1.2c0.1,0,0.1-0.1,0.2-0.1
				l1.9-1.1L35,40.3c-0.3,0.4-0.6,0.8-0.9,1.2c-0.3,0.2-0.5,0.5-0.8,0.7c-0.5,0.4-1,0.8-1.5,1.2c-0.3,0.2-0.7,0.5-1,0.7
				c0,0,0,0,0,0.1c0,0,0,0,0.1,0c0.3-0.2,0.7-0.5,1-0.7c0.6-0.4,1.2-0.9,1.7-1.3c-0.1,0.1-0.2,0.2-0.3,0.3c-0.3,0.3-0.6,0.6-0.8,0.9
				c-0.1,0.1-0.2,0.3-0.3,0.4c-0.3,0.4-0.7,0.9-1,1.3c-0.6-0.2-1.2-0.4-1.8-0.6c-0.7-0.3-1.4-0.7-2.1-1.1l0.1,0l0.1,0l0.1-0.1
				l0.1-0.1l0.1-0.1l0.1-0.1l0.1-0.1l0.1-0.1l0.1-0.1l0.1-0.1l0.1-0.1l0.1-0.1l0.1,0l0.1-0.1l0.1-0.1l0.1-0.1l0.1-0.1l0,0l0-0.1
				l-0.1-0.1l-0.1-0.1l0,0l0,0l-0.1,0.1l-0.1,0.1l0-0.1c0,0,0-0.1,0-0.1c0,0-0.1,0-0.1,0l-0.1,0l-0.1,0l-0.1,0.1l0,0
				c0-0.1,0-0.1,0.1-0.2c0.1-0.1,0.1-0.2,0-0.2c-0.1-0.1-0.2-0.1-0.2,0c-0.1,0-0.3,0-0.4,0.1c-0.2,0.1-0.5,0.4-0.7,0.6
				c-0.1,0.1-0.2,0.2-0.3,0.3c-0.1,0-0.1-0.1-0.2-0.1l0.2-0.2l0.1-0.2l0.1-0.2l0.1-0.2l0.1-0.2l0.1-0.2l0-0.1l-0.1-0.3l-0.3-0.1
				l-0.1,0l-0.1,0.2l-0.1,0.2L25.8,42l-0.1,0.2l-0.1,0.2l0,0c-0.1,0-0.1-0.1-0.2-0.2c-0.1-0.1-0.1-0.1-0.1-0.2l0,0l0.1-0.1l0.1-0.1
				l0.1-0.1l0.1,0l0.1-0.1l0.1-0.1l0.1,0l0.1-0.1l0.1-0.1l0.1,0l0.1-0.1l0-0.1l0.1,0l0.1-0.1l0.1,0l0,0L26.3,41
				c-0.1,0-0.1-0.1-0.2-0.1c-0.1,0.1-0.2,0.1-0.2,0.2l0,0c-0.1,0-0.1,0-0.1,0.1l0,0c0-0.1,0.1-0.2,0.1-0.3c0.1-0.2,0.2-0.2,0.2-0.4
				c0,0,0-0.1,0-0.1c0,0-0.1,0-0.1,0l-0.1,0.1l-0.1,0.1l-0.1,0.1l-0.1,0.1l-0.1,0.1l-0.1,0.1L25.5,41l-0.1,0.1l0,0l0,0l0,0l0,0l0,0
				l0,0l0,0.1l0,0l0,0l0,0l0,0l0,0l0,0l0,0.1l0,0l0,0c-0.1-0.2-0.3-0.3-0.4-0.5c0.1-0.1,0.2-0.2,0.4-0.4c0.1-0.1,0.3-0.3,0.4-0.4
				c0.1-0.1,0.3-0.3,0.4-0.4l0-0.1c0.1-0.1,0.1-0.4,0-0.5c-0.1-0.1-0.3-0.1-0.5,0c-0.2,0.1-0.3,0.3-0.4,0.5
				c-0.1,0.1-0.2,0.3-0.3,0.4c-0.1,0.2-0.2,0.3-0.4,0.5c-0.2-0.2-0.3-0.5-0.5-0.7c0.1-0.1,0.2-0.2,0.2-0.3c0,0,0.1,0,0.1,0l0,0l0,0
				l0.1,0l0.1,0l0.1,0l0.1,0l0,0l0,0l0.1-0.1l0.1-0.1l0.1-0.1l0.1-0.1l0.1-0.1l0.1-0.1l0-0.1l0,0c0,0,0.1-0.1,0.1-0.1h0l0.1-0.1l0,0
				c0.1-0.1,0.2-0.2,0.3-0.3c0.1-0.1,0.1-0.2,0-0.3c0,0-0.1-0.1-0.1-0.1c0.1-0.1,0.1-0.1,0.2-0.2c0.1-0.1,0.1-0.3-0.1-0.5
				c0,0-0.1-0.1-0.1-0.1c0-0.1,0-0.1,0.1-0.2c0-0.2,0.1-0.3,0.1-0.5c0,0,0-0.1,0-0.1c0-0.1-0.1-0.1-0.1-0.2c-0.1,0-0.1,0-0.2,0
				c-0.1,0.1-0.4,0.4-0.5,0.5c-0.2,0.2-0.3,0.4-0.5,0.6l-0.1,0.1l0.7-1.2v0c0.1-0.1,0.1-0.1,0.2-0.2c0.3-0.3,0.6-0.5,0.9-0.8
				c0.1-0.1,0.3-0.3,0.4-0.4c0.1-0.1,0.3-0.2,0.4-0.4c0.2-0.2,0.5-0.4,0.7-0.6c0.2-0.2,0.5-0.3,0.7-0.5c0.1-0.1,0.1-0.1,0.2-0.2l0,0
				c0-0.1,0-0.2-0.1-0.2c-0.1,0-0.3,0.1-0.4,0.1c-0.1,0-0.2,0.1-0.3,0.2c-0.3,0.2-0.5,0.4-0.8,0.6c-0.1,0.1-0.3,0.2-0.4,0.3
				c-0.1,0.1-0.2,0.2-0.3,0.3c-0.2,0.2-0.4,0.4-0.6,0.5l-0.4,0.4c-0.1,0-0.1,0-0.2,0c0,0-0.1,0.1-0.1,0.1c-0.2,0.2-0.3,0.3-0.4,0.5
				l0,0l-0.1,0.1l0.1-0.3c0,0,0,0,0,0c0.7-0.6,1.4-1.3,2.1-1.9c0.9-0.8,1.8-1.6,2.6-2.3c1.8-1.5,3.5-3.1,5.2-4.6
				c0.7-0.6,1.4-1.3,2-1.9c0.2-0.2,0.4-0.4,0.6-0.6c0.1,0,0.1-0.1,0.2-0.1L38.7,24L38.7,24C38.7,24,38.7,24,38.7,24z M35.3,27.4
				c-0.6,0.6-1.2,1.1-1.8,1.7c-1.5,1.5-3,2.9-4.4,4.5c0,0,0,0.1,0,0.2c0,0,0.1,0,0.2,0c1-1,2-2,3-3c0,0.1,0.1,0.3,0.2,0.2l0.1,0l0,0
				l0,0c0.1,0,0.1-0.1,0.2-0.1c0.1-0.1,0.2-0.2,0.3-0.3c0.1-0.1,0.3-0.2,0.4-0.3c0.2-0.1,0.4-0.2,0.5-0.4c0.2-0.2,0.4-0.3,0.6-0.5
				c0.1-0.1,0.3-0.2,0.4-0.3c0,0,0.1,0,0.1-0.1c-0.3,0.3-0.6,0.6-0.9,1c-1.2,1.3-2.4,2.6-3.6,3.9c-0.1,0.1-0.1,0.2,0,0.2
				c0.1,0.1,0.2,0.1,0.2,0c1.2-1.3,2.4-2.5,3.6-3.7c0.4-0.4,0.9-0.8,1.4-1.2c0.4-0.3,0.7-0.6,1-1c0.1-0.1,0.1-0.3,0-0.5
				c-0.1-0.1-0.1-0.1-0.2-0.1c0,0,0-0.1,0-0.1c-0.1,0-0.1-0.1-0.2-0.1c-0.1,0-0.2,0.1-0.3,0.2l0.2-0.2c0,0,0.1-0.1,0.1-0.1
				c0,0,0.1-0.1,0.1-0.2c0-0.1,0.1-0.1,0.1-0.2c0.2-0.2,0.4-0.3,0.5-0.5c0.1-0.1,0.1-0.3,0-0.5c-0.1-0.1-0.3-0.1-0.5,0
				C36.3,26.5,35.8,26.9,35.3,27.4z M27.2,26.4L27.2,26.4c-0.1,0.1-0.1,0.1-0.1,0.1L27.2,26.4z M27.1,26.6L27.1,26.6l-0.2,0.3
				c-0.6,0.6-1.2,1.1-1.9,1.7c-0.1,0.1-0.2,0.2-0.4,0.3c0.1-0.1,0.2-0.2,0.3-0.2c0.3-0.2,0.5-0.5,0.7-0.8c0.3-0.3,0.5-0.5,0.8-0.8
				C26.2,27.2,26.6,26.9,27.1,26.6z M24.5,27.2c-0.2,0.3-0.3,0.5-0.5,0.8c-0.1,0.3-0.3,0.5-0.5,0.8c-0.2,0.4-0.5,0.8-0.7,1.2
				c0,0,0,0,0,0c0.1-0.3,0.2-0.6,0.3-0.8c0.1-0.1,0.1-0.3,0.2-0.4c0.3-0.6,0.7-1.1,1.1-1.7c0,0,0.1-0.1,0.1-0.1
				C24.6,27.1,24.5,27.2,24.5,27.2z M43,27.6c-0.2,0.2-0.5,0.4-0.7,0.5c0.1-0.1,0.1-0.2,0.2-0.3c0.1-0.1,0.1-0.2,0.2-0.3
				c0,0,0.1-0.1,0.1-0.2C42.9,27.6,43,27.6,43,27.6z M24.9,29.2c-0.4,0.4-0.8,0.8-1.2,1.2c-0.3,0.3-0.5,0.5-0.8,0.7
				c0.1-0.2,0.2-0.5,0.2-0.7c0.4-0.3,0.8-0.7,1.3-1c0.2-0.1,0.4-0.3,0.5-0.4c0.1-0.1,0.3-0.2,0.4-0.3C25.2,28.9,25,29.1,24.9,29.2z
				 M43.9,28.9L43.9,28.9c-0.4,0.3-0.8,0.5-1.3,0.8c0.4-0.4,0.7-0.7,1.1-1C43.8,28.8,43.9,28.9,43.9,28.9z M34.1,29.2
				c-0.1,0.1-0.2,0.1-0.2,0.2c0,0,0,0-0.1,0c0.1-0.1,0.2-0.2,0.4-0.4C34.1,29.1,34.1,29.2,34.1,29.2z M26.4,29.1l-0.2,0.4
				c-0.2,0.3-0.3,0.6-0.5,0.9c-0.9,0.9-1.8,1.9-2.6,2.9c0,0,0,0,0,0c-0.1,0.1-0.2,0.2-0.3,0.3c0-0.1,0-0.2,0.1-0.3
				c0-0.1,0-0.2-0.1-0.2c-0.1,0-0.2,0-0.2,0.1c-0.1,0.2-0.1,0.5-0.2,0.7c0,0,0,0-0.1,0c0.1-0.8,0.2-1.7,0.4-2.5
				c0.5-0.5,1-0.9,1.5-1.4c0.2-0.2,0.5-0.5,0.7-0.7c-0.1,0.1-0.2,0.2-0.2,0.3c-0.2,0.3-0.4,0.5-0.5,0.8c-0.3,0.5-0.6,0.9-0.9,1.4
				l-0.1,0.3l0,0.1l0,0.1c0,0,0,0.1,0,0.1c0,0.1,0.2,0.1,0.2,0l0.1-0.1l0,0l0,0c0.3-0.4,0.6-0.8,1-1.2c0.4-0.4,0.7-0.8,1.1-1.2
				L26.4,29.1z M36.9,29.2c-0.1,0.1-0.2,0.2-0.3,0.2c-0.1,0-0.1,0.1-0.1,0.1c0,0,0,0.1-0.1,0.1c-0.1,0.1-0.2,0.2-0.3,0.3
				C36,30,35.9,30,35.9,30.1c-0.1,0.1-0.3,0.3-0.4,0.5c-0.1,0.1-0.2,0.2-0.3,0.3c-0.1,0.2-0.2,0.3-0.4,0.5c-0.1,0.1-0.2,0.2-0.3,0.3
				c-0.1,0.1-0.1,0.2-0.2,0.3c-0.1,0.1-0.2,0.2-0.2,0.3c0,0.1,0,0.2,0.1,0.2c0,0.1-0.1,0.1-0.1,0.2c-0.2,0.2-0.4,0.4-0.5,0.6
				c-0.1,0.1-0.2,0.2-0.3,0.3c-0.1,0.2-0.3,0.4-0.4,0.6c-0.2,0.3-0.5,0.6-0.7,0.9c0,0,0,0.1,0,0.1c0,0,0.1,0,0.1,0
				c0.3-0.3,0.6-0.6,1-0.9c0.2-0.1,0.4-0.3,0.5-0.4c0.7-0.8,1.5-1.5,2.3-2.2c0.3-0.3,0.6-0.5,1-0.8c0.1-0.1,0.4-0.3,0.5-0.4
				c0-0.1,0-0.2,0-0.3c0,0,0,0,0,0c0,0,0,0,0-0.1c0,0,0-0.1,0-0.1c0,0,0,0-0.1,0c0,0,0,0,0,0c-0.1,0-0.1-0.1-0.2-0.1
				c-0.1,0-0.1,0.1-0.2,0.1c0,0-0.1,0-0.1,0c-0.1,0-0.3,0.2-0.4,0.3c-0.3,0.2-0.6,0.5-0.9,0.8c-0.1,0.1-0.2,0.2-0.3,0.3l0.3-0.4
				c0.1-0.1,0.3-0.3,0.4-0.5c0.1-0.1,0.1-0.2,0.2-0.3c0.1-0.1,0.2-0.2,0.2-0.3c0,0,0.1-0.1,0.1-0.1c0,0,0-0.1,0.1-0.1
				C36.9,29.4,36.9,29.3,36.9,29.2C37,29.2,37,29.2,36.9,29.2C37,29.2,36.9,29.2,36.9,29.2z M40.4,30.8c-0.4,0.4-0.8,0.7-1.2,1.1
				c0.2-0.2,0.4-0.5,0.6-0.7c0.1-0.1,0.1-0.2,0.2-0.3c0.5-0.4,1.1-0.9,1.6-1.3c0.2-0.1,0.3-0.2,0.5-0.4
				C41.5,29.8,40.9,30.3,40.4,30.8z M44.1,29.3l0.3,0.6l0,0c-0.1,0.1-0.1,0.2-0.2,0.3c-0.9,0.5-1.7,1-2.5,1.6
				c-0.2,0.1-0.3,0.3-0.5,0.4c-0.2,0.2-0.5,0.4-0.7,0.6c-0.3,0.2-0.5,0.5-0.8,0.7c-0.4,0.4-0.8,0.8-1.3,1.3
				c-0.8,0.8-1.5,1.6-2.2,2.4c-0.7,0.8-1.5,1.6-2.2,2.4c-0.2,0.2-0.3,0.3-0.5,0.5c0,0-0.1,0.1-0.1,0.1c-0.4,0.2-0.7,0.5-1.1,0.7
				l-0.7,0.5l0.5-0.5c0.4-0.4,0.7-0.7,1-1.1c0.3-0.4,0.7-0.9,1-1.4c0.1-0.1,0.2-0.3,0.2-0.4c0.1-0.2,0.2-0.4,0.2-0.6
				c0-0.1,0-0.1-0.1-0.1c-0.1,0-0.3,0.2-0.4,0.3c-0.1,0.1-0.2,0.2-0.4,0.2c1.2-1.2,2.4-2.3,3.6-3.5c0.6-0.5,1.2-1.1,1.8-1.6
				c0.2-0.1,0.3-0.2,0.5-0.4c0.7-0.5,1.3-1,2-1.5c0.3-0.2,0.6-0.5,1-0.7c0.3-0.2,0.6-0.4,0.9-0.6C43.7,29.5,43.9,29.4,44.1,29.3
				L44.1,29.3z M37.7,30.6c-0.1,0.1-0.1,0.1-0.2,0.2c-0.1,0.1-0.3,0.2-0.4,0.3l0,0l-0.4,0.3c-0.1,0.1-0.3,0.2-0.4,0.3
				c-0.2,0.2-0.4,0.4-0.6,0.6l-0.1,0.1l-0.1,0.1l-0.3,0.3l-0.1,0.1l0,0L35,33c0,0,0,0.1,0,0.1c0.1,0.1,0.2,0.1,0.2,0l0,0
				c0.1-0.1,0.2-0.2,0.3-0.2c0.1-0.1,0.2-0.1,0.3-0.2l0.2-0.2l0,0l0.2-0.1l0.4-0.3c0.1-0.1,0.2-0.2,0.3-0.3l0.1-0.1l0.2-0.1
				c0.2-0.1,0.3-0.3,0.4-0.4c0.1-0.1,0.1-0.1,0.2-0.2c0.2-0.1,0.4-0.3,0.6-0.5l-0.1-0.2l0-0.1c0,0-0.1,0-0.1,0l-0.1-0.1
				C38,30.3,37.8,30.4,37.7,30.6z M51.1,30.6l0.1,0.4c0,0,0,0-0.1,0.1L51.1,30.6z M22.4,31.6c-0.1,0.1-0.1,0.1-0.2,0.2
				c0.1-0.2,0.1-0.5,0.2-0.7c0-0.1,0-0.1,0.1-0.2c0.1,0,0.1-0.1,0.2-0.1C22.6,31.1,22.5,31.4,22.4,31.6z M44.7,30.8l0,0.1
				c0,0-0.1,0.1-0.1,0.1c-0.3,0.2-0.5,0.4-0.7,0.6c-0.3,0.3-0.7,0.6-1,0.9c0,0,0,0,0.1-0.1c0.1-0.1,0.2-0.3,0.3-0.4
				c0.3-0.3,0.5-0.6,0.8-1C44.3,31,44.5,30.9,44.7,30.8L44.7,30.8z M35.5,31.2L35.5,31.2L35.5,31.2C35.5,31.2,35.5,31.2,35.5,31.2z
				 M35.5,31.2L35.5,31.2L35.5,31.2L35.5,31.2z M51.2,31.3l0.1,0.5c0,0,0,0.1,0,0.1c0,0.6,0.1,1.2,0.1,1.9c0,0.7-0.1,1.4-0.2,2.1
				c-0.2,1.3-0.6,2.5-1.1,3.7c0.2-0.4,0.3-0.8,0.4-1.3c0.2-0.6,0.4-1.3,0.5-2c0-0.3,0.1-0.5,0.1-0.8c0-0.3,0.1-0.6,0.1-0.9
				c0.1-0.7,0.1-1.4,0.1-2.1L51.2,31.3L51.2,31.3C51.2,31.4,51.2,31.4,51.2,31.3L51.2,31.3z M44.9,32c-0.3,0.1-0.6,0.3-1,0.4
				c-0.1,0.1-0.3,0.2-0.4,0.2c0.4-0.3,0.8-0.7,1.2-1C44.9,31.8,44.9,31.9,44.9,32z M24.7,32.1c-0.1,0.1-0.1,0.2-0.2,0.4
				c-0.1,0.1-0.1,0.2-0.2,0.3c-0.3,0.5-0.6,0.9-0.9,1.4c-0.2,0.2-0.3,0.5-0.5,0.7c-0.1,0.2-0.2,0.3-0.3,0.5l0,0l0,0.1
				c0,0.2,0.2,0.2,0.3,0.1l0,0l0,0l0.2-0.3c0.1-0.2,0.2-0.3,0.4-0.4c0.2-0.2,0.4-0.4,0.6-0.7c0.1-0.1,0.1-0.1,0.2-0.2
				c0.1-0.2,0.3-0.3,0.5-0.4c0.5-0.4,1-0.8,1.4-1.2l0.6-0.5l-0.2,0.3c-1.4,1.5-2.7,2.9-4.1,4.4c0-0.1,0-0.2,0-0.3c0-0.2,0-0.4,0-0.6
				c0-0.4,0-0.7,0-1c0-0.2,0-0.3,0.1-0.5c0,0,0.1,0,0.1,0c0.4-0.4,0.7-0.8,1.1-1.2c0.2-0.2,0.5-0.4,0.7-0.7c0.1-0.1,0.3-0.3,0.4-0.4
				C24.9,31.9,24.8,32,24.7,32.1z M42,33c-0.3,0.3-0.6,0.7-0.9,1.1c-0.3,0.3-0.6,0.7-0.8,1.1c-0.1,0.1-0.2,0.3-0.3,0.4
				c-0.8,0.8-1.5,1.6-2.3,2.4c-0.7,0.7-1.3,1.4-2,2c0.1-0.1,0.1-0.2,0.2-0.3c0-0.1,0.1-0.1,0.1-0.2c0-0.1,0.2-0.4,0.2-0.5
				c0-0.1-0.1-0.2-0.2-0.2c-0.1,0-0.2,0.1-0.2,0.1c-0.2,0.1-0.4,0.2-0.6,0.3c-0.2,0.1-0.3,0.2-0.4,0.3c0.4-0.4,0.8-0.8,1.3-1.2
				c1.1-1.1,2.3-2.3,3.4-3.4c0.9-0.8,1.8-1.6,2.8-2.3c0.3-0.3,0.7-0.5,1-0.8C42.7,32.2,42.3,32.6,42,33z M22.2,32.7
				c-0.1,0.6-0.2,1.1-0.2,1.7c0-0.8,0.1-1.5,0.2-2.3c0.1,0,0.1-0.1,0.2-0.1C22.3,32.3,22.2,32.5,22.2,32.7z M45,32.9
				c-0.2,0.3-0.4,0.6-0.7,0.8c-0.1,0.1-0.2,0.3-0.4,0.4c-0.2,0.2-0.4,0.4-0.6,0.6c-0.6,0.6-1.3,1.2-1.9,1.8c-0.3,0.3-0.7,0.7-1,1
				c-0.4,0.4-0.8,0.8-1.2,1.2c-0.5,0.5-0.9,0.9-1.4,1.4c-0.9,0.9-1.8,1.8-2.8,2.8c-0.1,0.1-0.2,0.1-0.2,0.2
				c-0.1,0.1-0.3,0.2-0.4,0.3c-0.5,0.4-1.1,0.9-1.7,1.3c-0.3,0.2-0.6,0.4-0.8,0.5l-0.5,0.2c0,0,0,0,0,0l0.8-1.1
				c0.2-0.2,0.4-0.4,0.5-0.6c0.6-0.7,1.2-1.3,1.8-2.1c0.2-0.2,0.4-0.5,0.5-0.7c0.1-0.1,0.2-0.2,0.3-0.2c1-1,2-1.9,3-2.9
				c0.4-0.4,0.9-0.9,1.3-1.3c0.1,0,0.1,0,0.2,0c0.1-0.1,0.2-0.1,0.2-0.2c0.1-0.1,0.2-0.2,0.4-0.3c0.4-0.3,0.7-0.7,1.1-1
				c0.9-0.8,1.8-1.6,2.9-2.2c0.2-0.1,0.4-0.2,0.6-0.3C45,32.7,45.1,33,45,32.9z M45,35.4c-0.8,0.8-1.7,1.6-2.5,2.4l-0.2-0.1l0.1-0.6
				c0.2-0.5,0.5-1,0.9-1.5c0.5-0.4,0.9-0.7,1.4-1.1c0.1-0.1,0.3-0.2,0.4-0.4C45,34.5,45,35,45,35.4z M25,34.7
				c-0.2,0.4-0.4,0.7-0.6,1.1c-0.1,0.3-0.3,0.5-0.4,0.8c-0.2,0.2-0.5,0.4-0.7,0.7c0-0.1,0-0.2,0.1-0.3c0-0.1,0-0.3,0.1-0.4
				c0-0.1,0-0.1-0.1-0.1c0,0,0,0-0.1,0c0.7-0.7,1.4-1.5,2-2.2C25.2,34.4,25.1,34.5,25,34.7z M33,35.3L33,35.3l-0.1,0l0,0l0,0l0,0
				l0,0.1l0,0l0,0l0,0l0,0.1c0,0,0,0,0,0.1l0,0l0,0.1l0,0l0,0l0.1,0.1L33,36l0,0l0,0l0-0.1l0-0.1l0,0l0-0.1l0-0.1l0-0.1l0-0.1l0-0.1
				l0-0.1l0-0.1l0,0L33,35.3L33,35.3z M22.4,36.6c0-0.2,0-0.3-0.1-0.5c0,0,0-0.1,0-0.1C22.4,36.2,22.4,36.4,22.4,36.6z M44.5,37.5
				c0,0,0,0.1,0,0.1c-0.3,0.2-0.5,0.4-0.8,0.6c0,0,0,0,0,0c-0.2-0.1-0.4-0.2-0.6-0.3l0,0l0,0c0.6-0.6,1.2-1.1,1.8-1.7
				C44.7,36.7,44.6,37.1,44.5,37.5z M42.1,36.7c-0.1,0.3-0.2,0.6-0.3,0.9c0,0.1,0,0.2,0,0.2c0,0.1,0.2,0.2,0.3,0.3
				c-0.2,0.2-0.4,0.4-0.6,0.6c-1.1,1.1-2.3,2.3-3.4,3.4c-0.8,0.8-1.6,1.5-2.4,2.2c-0.1,0.1-0.2,0.2-0.4,0.3c0.2-0.3,0.5-0.6,0.7-0.9
				c0.2-0.2,0.3-0.4,0.5-0.5c0.3-0.3,0.6-0.6,0.9-0.9c0.1-0.1,0.2-0.2,0.2-0.3c0-0.1,0.1-0.1,0.1-0.2c0.1-0.1,0.2-0.2,0.2-0.3
				c0.2-0.3,0.3-0.5,0.5-0.8c0-0.1,0.2-0.3,0.1-0.4c0-0.1-0.1-0.2-0.2-0.1c-0.1,0-0.5,0.3-0.6,0.4c-0.3,0.2-0.7,0.5-1,0.8
				c0.5-0.5,1-0.9,1.5-1.4c0.8-0.7,1.6-1.5,2.4-2.2c0.5-0.5,1.1-0.9,1.6-1.4C42.2,36.5,42.1,36.6,42.1,36.7z M16.7,38.2
				c-0.1-0.4-0.2-0.9-0.2-1.4c0-0.1,0-0.2,0-0.3C16.5,37.1,16.6,37.6,16.7,38.2z M23.2,37c0,0.2-0.1,0.4-0.1,0.6
				c-0.1,0.1-0.1,0.1-0.2,0.2c0-0.1-0.1-0.2-0.1-0.4c0-0.1,0-0.2-0.1-0.3c0.1-0.1,0.3-0.3,0.6-0.6C23.2,36.6,23.2,36.8,23.2,37z
				 M23.7,37.3c0,0.1,0.1,0.1,0.1,0.1c-0.2,0.3-0.4,0.5-0.6,0.7l-0.1,0.1l0.1-0.2c0-0.2,0.1-0.3,0.1-0.5c0,0,0,0,0,0
				c0.1-0.1,0.2-0.2,0.3-0.3c0,0,0.1-0.1,0.3-0.3C23.8,37,23.7,37.2,23.7,37.3z M16.3,38.3c0.2,0.7,0.5,1.4,0.8,2.1
				c0.1,0.3,0.3,0.6,0.5,0.9c0,0,0-0.1,0-0.1c0-0.1,0-0.1-0.1-0.2c0.5,1.3,1.3,2.5,2.2,3.6c0.3,0.3,0.5,0.6,0.8,0.8
				c0.6,0.6,1.2,1.2,1.9,1.7c0,0,0,0-0.1,0c-0.2-0.1-0.3-0.2-0.5-0.3c-0.1-0.1-0.1-0.1-0.2-0.2c-0.1-0.1-0.3-0.2-0.4-0.3
				c-0.7-0.5-1.3-1-1.9-1.6c-1.8-1.9-2.8-4.5-3.3-7.1c0,0,0-0.1,0-0.1C16.1,37.7,16.2,38,16.3,38.3z M24.9,37.7l-0.1,0.2
				c-0.1,0.2-0.2,0.5-0.3,0.7c-0.1,0.1-0.1,0.2-0.2,0.3c0,0.1-0.1,0.1-0.1,0.2c-0.2,0.3-0.4,0.6-0.6,0.9c0-0.1-0.1-0.1-0.1-0.2
				c-0.1-0.1-0.1-0.2-0.2-0.4c0.1-0.1,0.3-0.3,0.4-0.4c0.3-0.3,0.5-0.6,0.8-0.9L24.9,37.7z M51.8,37.7c0,0.1,0,0.3,0,0.4
				c0,0.4-0.1,0.8-0.2,1.2c-0.2,1.2-0.6,2.4-1.1,3.5c-0.1,0.2-0.2,0.5-0.3,0.7c-0.2,0.3-0.3,0.6-0.5,0.9C49.4,45,49,45.5,48.6,46
				c-0.4,0.5-0.8,0.9-1.3,1.4c-1.2,1.2-2.7,2.2-4.2,2.9c-0.4,0.2-0.8,0.3-1.1,0.5L41.5,51l-1.8,0.5c-0.8,0.2-1.7,0.3-2.5,0.4
				c0.3-0.1,0.7-0.2,1-0.3c1-0.4,2-0.8,3-1.3c0.5-0.2,0.9-0.5,1.3-0.8c0.1-0.1,0.3-0.2,0.4-0.3l0.6-0.4l0.4-0.2
				c0.1-0.1,0.2-0.1,0.4-0.2c0.2-0.1,0.3-0.2,0.4-0.3c0.1-0.1,0.2-0.2,0.4-0.3c0.1-0.1,0.2-0.2,0.3-0.2c0.3-0.2,0.5-0.4,0.8-0.6
				c1.1-0.9,1.9-1.9,2.7-3c0.2-0.3,0.4-0.7,0.6-1c0.5-0.9,0.9-1.7,1.3-2.7C51.3,39.4,51.6,38.6,51.8,37.7
				C51.8,37.7,51.8,37.7,51.8,37.7z M22.9,38c0,0,0-0.1,0-0.2c0,0,0.1-0.1,0.1-0.1C23,37.8,22.9,37.9,22.9,38z M23.7,38l-0.3,0.6
				c-0.1,0.1-0.1,0.2-0.2,0.3c-0.1-0.2-0.1-0.3-0.2-0.5c0.2-0.1,0.3-0.2,0.5-0.3L23.7,38z M45.5,39c0,0.1-0.1,0.2-0.1,0.3
				c-0.1,0.1-0.2,0.2-0.3,0.3c0.2-0.3,0.3-0.6,0.4-1c0.1-0.2,0.1-0.4,0.2-0.6C45.6,38.4,45.6,38.7,45.5,39z M43.2,38.7
				C43.2,38.7,43.2,38.7,43.2,38.7c-0.8,0.7-1.5,1.2-2.2,1.8c-1.1,0.9-2.3,1.9-3.4,2.8c0,0,0,0,0,0c-0.1,0.1-0.2,0.1-0.3,0.2
				c-0.2,0.1-0.4,0.3-0.6,0.4c1.1-1,2.1-2,3.2-3c0.9-0.8,1.7-1.6,2.6-2.5C42.8,38.5,43,38.6,43.2,38.7z M22.7,39.2
				c0.1,0.2,0.2,0.5,0.3,0.7c0.1,0.2,0.2,0.4,0.3,0.6c0,0,0,0,0,0.1c-0.4-0.7-0.8-1.4-1-2.1C22.4,38.7,22.5,38.9,22.7,39.2z
				 M44.1,38.6C44.1,38.6,44.1,38.6,44.1,38.6C44.1,38.6,44.1,38.6,44.1,38.6C44.1,38.5,44.1,38.5,44.1,38.6
				C44.1,38.5,44.1,38.6,44.1,38.6z M43.7,38.9c0,0-0.1,0-0.1,0.1c-0.2,0.1-0.4,0.4-0.6,0.5c-0.3,0.3-0.6,0.6-0.9,0.9
				c-0.5,0.6-1,1.1-1.5,1.7c0,0,0-0.1,0.1-0.1c0.1-0.2,0.2-0.4,0.3-0.6c0.4-0.6,0.9-1.1,1.3-1.6c0.1-0.1,0.1-0.1,0.2-0.2
				C42.9,39.4,43.3,39.1,43.7,38.9C43.7,38.9,43.7,38.9,43.7,38.9z M17.2,40.2c-0.1-0.1-0.1-0.3-0.2-0.4c0,0,0-0.1,0-0.2
				C17.1,39.8,17.2,40.1,17.2,40.2z M43.4,40.2c-0.1,0.2-0.2,0.4-0.3,0.5c-0.2,0.3-0.4,0.5-0.5,0.8c-0.1,0.1-0.2,0.3-0.3,0.4
				c-0.1,0.1-0.2,0.3-0.3,0.4c-0.9,0.8-1.8,1.6-2.8,2.3c-0.4,0.2-0.8,0.3-1.2,0.4c0.2-0.2,0.3-0.4,0.5-0.5c0.2-0.3,0.5-0.5,0.7-0.8
				c0.3-0.3,0.6-0.6,0.8-1c0.1-0.1,0.1-0.3,0.2-0.4c0.1-0.1,0.2-0.3,0.2-0.4c0.1-0.2-0.1-0.3-0.3-0.3c-0.1,0-0.2,0.1-0.3,0.1
				c-0.2,0.1-0.3,0.2-0.5,0.3c0.1-0.1,0.2-0.1,0.2-0.2c0.7-0.5,1.4-1,2.1-1.5c-0.6,0.7-1.1,1.4-1.4,2.3c-0.1,0.1-0.1,0.2-0.2,0.2
				c-0.2,0.2-0.4,0.5-0.6,0.7c-0.1,0.1-0.2,0.2-0.2,0.3c-0.1,0.1-0.1,0.2,0,0.3c0.1,0.1,0.2,0.1,0.3,0c0.1-0.1,0.2-0.2,0.2-0.3
				c0.2-0.2,0.4-0.5,0.6-0.7c0.5-0.6,1.1-1.3,1.6-1.8c0.2-0.2,0.5-0.5,0.7-0.7c0.2-0.3,0.5-0.5,0.8-0.7c0,0,0.1-0.1,0.1-0.1
				C43.5,39.9,43.5,40,43.4,40.2z M44.4,41.5c-0.1,0.1-0.2,0.3-0.2,0.4c-0.1,0.1-0.3,0.2-0.4,0.3c-0.4,0.3-0.9,0.7-1.3,1
				c0.5-0.5,0.9-1,1.4-1.5c0.2-0.2,0.3-0.5,0.5-0.7c0-0.1,0.1-0.1,0.1-0.2c0.1-0.1,0.3-0.2,0.4-0.4c0.1-0.1,0.1-0.1,0.2-0.2
				C44.9,40.7,44.7,41.1,44.4,41.5z M73.1,42.2c0,1.9,0.1,3.8,0,5.7c-0.1-0.1-0.1-0.1-0.2-0.1c0-0.2,0-0.4,0-0.7c0-1.6,0-3.2,0-4.8
				c0.1-0.5,0.1-1.1,0.2-1.6C73,41.2,73.1,41.7,73.1,42.2z M23.9,41.4C23.7,41.7,23.6,41.9,23.9,41.4c-0.2-0.2-0.3-0.4-0.5-0.6
				c-0.1,0.1-0.1,0.1,0,0C23.6,41,23.8,41.2,23.9,41.4z M2.1,43.1c0,0.2,0,0.4,0,0.7c-0.1,0.1-0.1,0.1-0.2,0.2c0-0.1,0-0.2,0-0.3
				c0-0.1,0-0.2,0-0.2c0-0.8,0.1-1.6,0.1-2.5C2,41.6,2.1,42.3,2.1,43.1z M37.9,41L37.9,41c-0.2,0.3-0.3,0.5-0.4,0.7
				c-0.1,0.1-0.1,0.2-0.2,0.3c-0.2,0.2-0.4,0.5-0.6,0.7c-0.1,0.2-0.3,0.3-0.4,0.5c-0.3,0.3-0.5,0.6-0.8,0.8c-0.4,0.5-0.7,0.9-1,1.4
				c0,0-0.1,0.1-0.1,0.2c0,0,0,0-0.1,0.1c-0.7,0-1.3-0.1-2-0.1c0.3-0.3,0.7-0.6,1-0.9c0.1-0.1,0.2-0.1,0.3-0.2
				c0.3-0.2,0.5-0.4,0.8-0.6c0.1-0.1,0.2-0.2,0.3-0.3c0.2-0.1,0.4-0.3,0.6-0.5c0.5-0.4,1-0.8,1.5-1.2C37.1,41.6,37.5,41.3,37.9,41
				L37.9,41z M31.3,42.3c-0.5,0.4-1,0.8-1.6,1.2c-0.1,0.1-0.3,0.2-0.4,0.3c0.1-0.1,0.2-0.2,0.3-0.2c0.5-0.4,1-0.8,1.5-1.2
				c0.3-0.3,0.7-0.5,1-0.8C31.9,41.8,31.6,42,31.3,42.3z M24.8,42.4c-0.1-0.1-0.3-0.3-0.4-0.4c-0.1-0.1-0.2-0.2-0.3-0.3c0,0,0,0,0,0
				C24.4,42,24.6,42.2,24.8,42.4z M29,42c-0.2,0.2-0.5,0.5-0.6,0.7c-0.2,0.2-0.3,0.5-0.5,0.7c-0.1,0.1-0.1,0.2,0,0.3
				c0.1,0.1,0.2,0.1,0.3,0l0.2-0.2l0.2-0.1l0.2-0.1l0.2-0.1L29,43l0.2-0.2l0.2-0.2l0.2-0.2c0.1-0.1,0.1-0.4,0-0.5
				C29.3,41.9,29.1,41.9,29,42z M71.9,43.2c0,0.5-0.1,1.1-0.2,1.6c-0.1,0.1-0.2,0.1-0.4,0.2c0-0.5,0-0.9,0.1-1.4
				c-0.1,0.5-0.1,0.9-0.1,1.4c-0.3,0.1-0.5,0.3-0.8,0.4c-0.7,0.4-1.3,0.9-1.9,1.4c-0.3,0.2-0.6,0.5-0.9,0.7c0-0.2-0.1-0.6-0.2-0.7
				c-0.1-0.1-0.2-0.1-0.4-0.1c-0.2,0-0.5-0.1-0.7-0.1c-0.3,0-0.6-0.1-0.9-0.1c0.2-0.1,0.4-0.3,0.7-0.4c0.7-0.5,1.5-1,2.2-1.5
				c1.1-0.8,2.3-1.6,3.6-2.2C72,42.5,72,42.8,71.9,43.2z M39.7,42.4L39.3,43c-0.2,0.2-0.4,0.5-0.6,0.7c-0.4,0.4-0.8,0.8-1.2,1.3
				c-0.1,0.1-0.1,0.2-0.2,0.2c-0.7,0.2-1.5,0.3-2.3,0.3c0.4-0.2,0.8-0.5,1.1-0.7c0.4-0.3,0.8-0.6,1.3-0.9c0.3-0.2,0.5-0.4,0.8-0.6
				c0.3-0.2,0.7-0.5,1-0.7L39.7,42.4z M49.1,42.7l-0.2,0.4c-0.3,0.4-0.6,0.9-0.9,1.3L49.1,42.7z M27.3,42.8L27.3,42.8L27.2,43l0,0.1
				l-0.1,0.1L27,43.2L27,43.3l0,0.1l0,0.1l0,0.1c-0.1-0.1-0.2-0.1-0.3-0.2c0.1-0.1,0.2-0.1,0.3-0.2C27.1,43,27.2,42.9,27.3,42.8
				L27.3,42.8z M43.3,43.1c-0.4,0.5-0.9,0.9-1.4,1.3c-0.1,0.1-0.3,0.2-0.4,0.3c-0.2,0.1-0.4,0.3-0.6,0.4l-2,0.9l-1.4,0.4
				c-0.2,0-0.5,0.1-0.7,0.1c0,0,0,0,0,0c0.8-0.3,1.5-0.6,2.3-1c0.1,0,0.1-0.1,0.2-0.1c0.1,0,0.2-0.1,0.3-0.1
				c0.1-0.1,0.3-0.1,0.4-0.2c0.3-0.1,0.6-0.3,0.9-0.5c0.5-0.3,1-0.6,1.5-0.9c0.2-0.1,0.3-0.2,0.5-0.3C43.1,43.3,43.2,43.2,43.3,43.1
				C43.3,43.1,43.3,43.1,43.3,43.1z M24.8,43.5L24.8,43.5L24.8,43.5c-0.2-0.1-0.3-0.2-0.4-0.4C24.5,43.2,24.7,43.4,24.8,43.5z
				 M25.2,43.8c0,0-0.1,0.1-0.1,0.1c0,0-0.1-0.1-0.1-0.1l0.2-0.1l-0.1,0C25.2,43.8,25.2,43.8,25.2,43.8z M26.3,43.8
				c0.1,0,0.1,0,0.2,0c0.1,0.1,0.2,0.2,0.3,0.2c0.4,0.2,0.7,0.4,1.1,0.6c0.4,0.2,0.8,0.4,1.2,0.6c0.5,0.2,1,0.4,1.5,0.6
				c0,0,0,0,0.1,0c0,0.1,0.1,0.1,0.2,0.1c0,0,0.1,0,0.1,0c0.4,0.1,0.8,0.2,1.1,0.3c0.4,0.1,0.7,0.1,1.1,0.2c0.3,0,0.7,0,1,0.1
				c0.2,0,0.4,0,0.6,0c0.2,0,0.3,0,0.5,0c-0.4,0.1-0.8,0.2-1.1,0.2c-0.9-0.1-1.7-0.2-2.6-0.4c-0.9-0.2-1.8-0.5-2.7-0.9
				c-0.9-0.4-1.9-0.9-2.7-1.6C26.2,43.8,26.2,43.8,26.3,43.8z M26.6,44.8c0.6,0.4,1.3,0.7,2,1.1c0.2,0.1,0.4,0.2,0.6,0.2
				c0.5,0.2,0.9,0.3,1.4,0.5c0.1,0,0.2,0.1,0.4,0.1c-0.3,0-0.6-0.1-0.9-0.2c-0.8-0.2-1.6-0.5-2.3-0.8c-0.1-0.1-0.3-0.1-0.4-0.2
				c-0.2-0.1-0.3-0.2-0.5-0.3c-0.1-0.1-0.3-0.2-0.4-0.3c-0.3-0.2-0.7-0.5-1-0.8c0,0,0.1-0.1,0.1-0.1C25.9,44.3,26.2,44.5,26.6,44.8z
				 M32.2,45.5c-0.1,0-0.1,0-0.2,0c0,0,0.1,0,0.1,0c0.2-0.1,0.4-0.3,0.6-0.4C32.5,45.1,32.3,45.3,32.2,45.5z M18.7,45.1l0.1,0.1l0,0
				L18.7,45.1z M22.5,48.4c1.5,1,3,1.8,4.6,2.4c0.8,0.3,1.6,0.6,2.5,0.8c0.4,0.1,0.9,0.2,1.3,0.3c0.1,0,0.3,0.1,0.4,0.1
				c-2.2-0.1-4.3-0.6-6.4-1.5c-0.7-0.3-1.5-0.8-2.2-1.3c-0.2-0.2-0.4-0.3-0.6-0.5c-0.2-0.2-0.5-0.4-0.7-0.6
				c-0.2-0.2-0.5-0.5-0.7-0.7c-0.7-0.7-1.3-1.5-1.9-2.3l0,0C19.9,46.4,21.1,47.5,22.5,48.4z M71.7,45.6c0,0.2,0,0.4-0.1,0.5
				c0-0.1-0.1-0.2-0.1-0.4c0-0.1,0-0.2-0.1-0.3c0.1,0,0.2-0.1,0.2-0.1C71.7,45.4,71.7,45.5,71.7,45.6z M71.6,46c0,0.1,0,0.2,0.1,0.2
				c-0.1,0.9-0.2,1.7-0.3,2.6c-0.7,0.5-1.3,1-1.9,1.5c-0.5,0.4-1,0.9-1.5,1.3c-0.1,0.1-0.3,0.3-0.5,0.4c0-0.1,0-0.2,0-0.3
				c0-0.1,0-0.1,0-0.2c0-0.4,0.1-0.9,0.2-1.3c0.1-0.4,0.1-0.7,0.2-1.1c0-0.4,0-0.8,0-1.2c0.1-0.1,0.2-0.2,0.4-0.3
				c1-0.8,2.1-1.6,3.3-2.2C71.5,45.7,71.5,45.8,71.6,46z M72.3,48.1c-0.1,0-0.1,0.1-0.2,0.1c0-0.1,0-0.1,0-0.2
				c0-0.3,0.1-0.6,0.1-0.9C72.3,47.5,72.3,47.8,72.3,48.1z M21.8,47.2c0.3,0.1,0.6,0.3,1,0.4c0.1,0,0.2,0,0.2-0.1c0,0,0,0,0-0.1
				c0,0,0.1,0,0.1,0.1c1,0.7,2.1,1.3,3.3,1.8c0.4,0.2,0.9,0.4,1.3,0.6c0.3,0.1,0.6,0.2,0.9,0.3c0.7,0.2,1.3,0.4,2,0.6
				c2.4,0.6,4.8,0.7,7.2,0.2c-0.5,0.2-1.1,0.3-1.6,0.4c-0.6,0.1-1.2,0.3-1.8,0.3c-0.1,0-0.3,0-0.4,0c-0.6,0-1.1-0.1-1.7-0.2
				c-0.5-0.1-0.9-0.2-1.4-0.3c-0.5-0.1-1-0.3-1.6-0.4c-0.4-0.1-0.7-0.2-1.1-0.3c-0.6-0.2-1.2-0.4-1.8-0.7c-0.3-0.1-0.6-0.3-1-0.4
				c-0.2-0.1-0.4-0.2-0.5-0.3c-0.3-0.1-0.5-0.3-0.8-0.4c-0.7-0.4-1.3-0.8-2-1.3c-0.2-0.1-0.4-0.3-0.6-0.5
				C21.7,47.1,21.8,47.2,21.8,47.2z M73,50.6c0,0.7-0.1,1.4-0.2,2.1c0-0.1,0-0.2,0-0.3c0-1.4,0-2.7,0-4c0.1,0,0.1-0.1,0.2-0.1
				c0,0,0.1,0,0.1-0.1C73.1,49,73.1,49.8,73,50.6z M72.4,50.9C72.4,50.9,72.4,50.9,72.4,50.9c-0.3,0.1-0.5,0.2-0.7,0.3
				c0.1-0.7,0.2-1.4,0.3-2.2c0-0.1,0-0.2,0-0.3c0.1-0.1,0.2-0.1,0.3-0.2C72.3,49.4,72.3,50.2,72.4,50.9z M1.8,50.8
				C1.8,50.8,1.8,50.9,1.8,50.8c-0.1-0.1-0.1-0.3-0.1-0.4C1.8,50.5,1.8,50.7,1.8,50.8z M33,50.9c-0.4,0-0.7-0.1-1-0.1
				c-0.1,0-0.1,0-0.2,0C32.2,50.9,32.6,50.9,33,50.9z M34.8,51c0.2,0,0.5,0,0.9,0c-0.1,0-0.3,0-0.4,0C35.1,51,35,51,34.8,51z
				 M72.5,53.1c0,0.1,0,0.1,0.1,0.1c0,0.2,0,0.4,0,0.5c-0.2,0.1-0.3,0.2-0.5,0.3c-0.4,0.2-0.7,0.4-1,0.7c0.2-0.9,0.3-1.9,0.4-2.8
				c0.2-0.1,0.5-0.3,0.7-0.4c0,0,0.1-0.1,0.2-0.1C72.5,52.1,72.5,52.6,72.5,53.1z M66.7,51.7l0,0.3l-0.6,0l-0.4,0l0.5-0.1L66.7,51.7
				z M70.8,52.7c-0.1,0.7-0.2,1.5-0.3,2.2c0,0.2-0.1,0.3-0.1,0.5c-0.2,0.1-0.4,0.3-0.5,0.4c-0.2,0.1-0.3,0.2-0.5,0.4
				c-1.3,0-2.6,0.1-4,0.1c0.2-0.1,0.3-0.1,0.4-0.2c0.5-0.2,0.9-0.5,1.3-0.8c0.3-0.2,0.5-0.4,0.8-0.6c0.2-0.1,0.4-0.3,0.6-0.5
				c0.6-0.4,1.1-0.9,1.7-1.3c0.2-0.1,0.3-0.2,0.5-0.3C70.8,52.6,70.8,52.6,70.8,52.7z M1,54.7c-0.1-0.3-0.1-0.6-0.1-0.9
				c0-0.3,0-0.5,0-0.8C0.9,53.6,1,54.2,1,54.7z M72.6,54.6L72.6,54.6C72.6,54.5,72.6,54.5,72.6,54.6c0-0.1,0-0.1,0-0.1
				C72.6,54.5,72.6,54.6,72.6,54.6z M72.6,55.1c0,0,0,0.1,0,0.2c-0.1-0.1-0.2-0.2-0.4-0.2c-0.3,0-0.6,0.2-0.6,0.5
				c0,0.2,0,0.4-0.1,0.5c0,0.1,0,0.2-0.1,0.4c0,0.1-0.1,0.2-0.1,0.3c0,0.1-0.1,0.3-0.1,0.4c-0.1-0.1-0.2,0-0.3,0.1
				c-0.1,0.1-0.2,0.3-0.3,0.4c0-0.2,0.1-0.4,0.1-0.5c0.1-0.6,0.2-1.1,0.3-1.7c0,0,0.1,0,0.1-0.1c0.4-0.3,0.8-0.5,1.3-0.8
				c0,0,0.1,0,0.1-0.1C72.5,54.8,72.6,54.9,72.6,55.1z M72.9,55.2L72.9,55.2C73,55.3,73,55.3,72.9,55.2z M2,55.4c0,0,0,0.1,0,0.1
				C2,55.5,2,55.5,2,55.4C1.9,55.4,1.9,55.4,2,55.4C1.9,55.4,1.9,55.4,2,55.4C1.9,55.4,1.9,55.4,2,55.4C1.9,55.4,2,55.4,2,55.4z
				 M70.2,56.4c0-0.1-0.1-0.1-0.2-0.2c0.1-0.1,0.2-0.1,0.2-0.2C70.2,56.1,70.2,56.2,70.2,56.4z M11.1,56.4c1.7,0.1,3.5,0.1,5.2,0.2
				c0.8,0,1.7,0.1,2.5,0.1c1.2,0.1,2.5,0.1,3.7,0.1c1.3,0,2.7,0,4,0c3.2,0,6.4,0.1,9.6,0.1c2.4,0,4.9,0,7.3,0c1.9,0,3.9,0,5.8,0
				c2.6,0,5.2,0,7.8,0c1.1,0,2.1,0,3.2,0h3.2c1.5,0,2.9,0,4.4-0.1c0.2,0,0.4,0,0.5,0c0,0,0,0,0,0c-0.6,0.5-1.2,1-1.8,1.6
				c-0.1,0.1-0.1,0.2,0,0.2c0.1,0.1,0.2,0.1,0.2,0c0.7-0.7,1.4-1.3,2.2-1.9c0.3,0,0.5,0,0.8,0c0.1,0,0.2-0.1,0.3-0.1
				c0,0.2-0.1,0.4-0.1,0.5c0,0.3,0,0.5-0.1,0.8c0,0.1,0,0.2,0,0.2c-0.2,0.2-0.3,0.3-0.5,0.5c-0.2,0.1-0.3,0.3-0.5,0.4
				c-0.2,0.1-0.4,0.3-0.6,0.4c-0.1,0.1-0.3,0.2-0.4,0.2c-0.1,0.1-0.2,0.1-0.3,0.2c-1.4,0.1-2.8,0.3-4.3,0.4
				c-1.7,0.2-3.5,0.5-5.2,0.6c-0.2,0-0.5,0-0.7,0.1c-0.5,0-0.9,0-1.4,0c0,0,0,0,0,0c0-0.2-0.1-0.4-0.3-0.4c-0.2,0-0.4,0.1-0.4,0.3
				c0,0,0,0.1,0,0.2c-0.4,0-0.8,0-1.2,0c-0.3,0-0.6,0-0.8,0c-0.4-0.1-0.8-0.1-1.2-0.2c-0.7-0.1-1.5-0.2-2.2-0.3
				c-1.9-0.3-3.7-0.7-5.6-1c-0.2,0-0.3,0.1-0.4,0.3c0,0.2,0.1,0.3,0.3,0.4c0.4,0.1,0.9,0.2,1.3,0.2c0,0.2,0,0.4-0.1,0.6
				c0,0.1,0,0.3,0,0.4c0,0-0.1,0-0.1,0c-0.1,0-0.2,0.1-0.2,0.2c0,0.1,0.1,0.2,0.2,0.2h0.1c0,0.3-0.1,0.5-0.1,0.8
				c-0.1,1-0.2,2-0.4,2.9c0,0.3-0.1,0.6-0.1,0.9c-0.1,0.4-0.1,0.8-0.2,1.2c0,0,0,0.1-0.1,0.1c0,0.1,0,0.1-0.1,0.2
				c-0.1,0.1-0.1,0.3-0.2,0.4l-0.2,0.4l-0.2,0.3c-0.1,0.1-0.2,0.2-0.3,0.3c-0.2,0.1-0.3,0.3-0.5,0.4c-1.2,0.8-2.8,1.1-4.2,1.3
				c-1.7,0.2-3.4,0.3-5.1,0.3c-1.6,0-3.2,0-4.8-0.2c-0.5,0-1.1-0.1-1.7-0.2c-0.3-0.1-0.5-0.3-0.8-0.5c-0.6-0.4-1.1-0.8-1.6-1.4
				c-0.4-0.4-0.7-0.8-0.9-1.3c-0.3-0.4-0.4-0.9-0.6-1.4c0-0.1-0.1-0.3-0.1-0.4c-0.1-0.3-0.2-0.6-0.2-0.9c-0.1-0.4-0.1-0.8-0.1-1.2
				c0-0.3,0-0.6,0-0.8c0-0.1,0-0.2,0-0.3c0,0,0,0,0,0l0.1,0l0.2,0l-0.1,0l0.2,0c0.1,0,0.2-0.1,0.3-0.3c0.1-0.3-0.1-0.7-0.4-0.7
				l-0.1,0h0l-0.1,0l-0.3,0c0,0,0,0,0,0c0,0,0,0,0-0.1c0-0.2-0.1-0.4-0.4-0.4c-0.1,0-0.2,0-0.2,0c0-0.1,0-0.1,0-0.2
				c0-0.1-0.1-0.3-0.2-0.3c-0.1,0-0.3,0.1-0.3,0.2c0,0.1,0,0.2,0,0.3c0,0-0.1,0-0.1,0c-0.9,0.1-1.9,0.1-2.9,0.1
				c-1.2-0.2-2.3-0.3-3.5-0.5c-0.6-0.1-1.2-0.1-1.7-0.2c-0.3,0-0.6,0-0.9-0.1L11,60.7l-1-0.2c-1.1-0.3-2.2-0.6-3.3-1
				c0.8-0.7,1.5-1.4,2.3-2.1c0.1,0,0.1-0.1,0-0.2s-0.1-0.1-0.2,0c-0.4,0.4-0.8,0.8-1.2,1.2c-0.4,0.4-0.7,0.7-1.1,1c0,0,0,0,0,0
				c-0.6-0.3-1.2-0.5-1.9-1c0.1,0.1,0.2,0,0.2,0c0.1-0.1,0.1-0.2,0-0.3c-0.2-0.2-0.4-0.3-0.6-0.5c-0.2-0.1-0.4-0.3-0.6-0.4
				c0,0-0.1,0-0.1-0.1c0,0,0-0.1-0.1-0.1C3.8,57,4,56.8,4.3,56.7c0.1-0.1,0.3-0.2,0.4-0.3c0.3,0,0.6,0,0.9,0
				C7.4,56.3,9.3,56.4,11.1,56.4z M3.3,56.8c0-0.1-0.1-0.1-0.1-0.2c0-0.1-0.1-0.1-0.1-0.2c0.3,0,0.6,0,0.9,0
				C3.8,56.6,3.6,56.7,3.3,56.8z M2.8,57.9c0,0.1,0.1,0.1,0.1,0.2c0.1,0.2,0.3,0.5,0.4,0.6c0.1,0.1,0.2,0.3,0.4,0.4
				c0,0,0.1,0.1,0.2,0.1c0,0-0.1-0.1-0.1-0.1c-0.4-0.2-0.8-0.5-1-0.9c-0.1-0.1-0.1-0.2-0.1-0.3c0-0.1-0.1-0.1-0.2-0.1
				c-0.1,0-0.1,0.1-0.1,0.2c0,0.1,0.1,0.2,0.1,0.2c0,0,0,0-0.1-0.1c-0.2-0.2-0.3-0.4-0.4-0.6c0.2-0.1,0.3-0.3,0.3-0.4
				c0,0,0-0.1,0-0.1C2.3,57.4,2.5,57.7,2.8,57.9z M4.6,58.3c-0.1,0-0.1,0-0.2-0.1c-0.1-0.1-0.2-0.2-0.3-0.3
				C4.3,58.1,4.5,58.2,4.6,58.3z M48.7,61.2c-0.1,0-0.2,0-0.2,0c-0.4,0-0.8,0-1.2-0.1c-0.1,0-0.3,0-0.4,0c-0.1-0.1-0.1-0.1-0.2-0.2
				c-0.2-0.1-0.5,0-0.6,0.2c0-0.2,0-0.3,0.1-0.5C46.9,60.8,47.8,61,48.7,61.2z M32.2,61.2c-1.2,0.1-2.4,0.3-3.6,0.5
				c-0.4,0.1-0.7,0.1-1.1,0.2c-0.2,0-0.4,0.1-0.6,0.1c-0.1,0-0.1,0-0.2,0.1l-0.1,0.1l-0.1,0c0,0-0.1,0.1-0.1,0.1
				c-0.8,0.9-0.8,2.5-0.8,3.7c0,0.3,0,0.6,0.1,0.9c0,0.1,0,0.4,0.1,0.5c0.1,0.2,0.3,0.4,0.5,0.5c0.5,0.3,1.1,0.6,1.7,0.8
				c1.2,0.4,2.6,0.5,3.9,0.6c0.5,0,1.1,0,1.6,0c1.5,0,3-0.1,4.5-0.3c0.4-0.1,0.8-0.1,1.1-0.2c0.5-0.1,1.1-0.3,1.7-0.4
				c0.5-0.2,1.1-0.4,1.5-0.7c0.5-0.4,0.6-1.3,0.6-1.9c0-0.2,0-0.4,0.1-0.7c0-0.3,0-0.7,0-1c0-0.5,0-0.9,0-1.4c0-0.2,0-0.6,0-0.7
				c0-0.1-0.1-0.1-0.2-0.2c-0.2-0.2-0.8-0.4-1.1-0.5c-0.3-0.1-0.6-0.1-0.9-0.2c-0.3,0-0.6-0.1-0.9-0.1
				C37.4,60.7,34.8,60.9,32.2,61.2z M7.1,61.3c0.4,0,0.7,0.1,1.1,0.1c0.5,0,1.1,0.1,1.6,0.1l0.4,0c0.1,0,0.1,0,0.2,0
				c0.2,0,0.3,0,0.5,0.1c0,0,0.1,0,0.1,0c0,0,0,0,0,0c-0.1,0-0.1,0.1-0.2,0.1c-0.1,0-0.1,0-0.2,0.1c-0.2,0.1-0.5,0.2-0.7,0.3
				c-0.7,0.2-1.5,0.3-2.3,0.3c-0.2,0-0.3,0-0.5,0c-0.1,0-0.2,0-0.3,0.1l-0.1,0.1l-0.1-0.1c-0.1-0.1-0.1-0.2-0.2-0.3
				c-0.1-0.3-0.2-0.6-0.2-0.9c0-0.1,0-0.1,0-0.2C6.5,61.2,6.8,61.3,7.1,61.3z M65.6,61.8c0,0.1,0,0.3,0,0.4c0,0.1-0.1,0.2-0.1,0.3
				c-0.2,0.3-0.3,0.4-0.5,0.6l-0.2,0.1l-0.1,0c-0.1,0-0.2,0-0.4,0.1c-0.4,0-0.8,0.1-1.2,0.1c-0.2,0-0.3,0-0.5,0
				c-0.8,0-1.5,0.1-2.3,0.1c-0.5,0-1,0-1.4-0.1c-0.2,0-0.5-0.1-0.7-0.1c-0.2,0-0.4-0.1-0.6-0.2c-0.4-0.1-1-0.4-1.3-0.8
				c0.3,0,0.7,0,1,0c0.7,0,1.3,0,2,0.1c0.7,0,1.3,0.1,2,0c1.1,0,2.1,0,3.2-0.1c0.3,0,0.5-0.2,0.5-0.5c0-0.1,0-0.2-0.1-0.3
				c0.2,0,0.4-0.1,0.6-0.1C65.6,61.6,65.6,61.7,65.6,61.8z M39,61.9c0.4,0,0.8,0,1.2,0.1c0.2,0,0.5,0,0.7,0.1
				c0.3,0.1,0.7,0.1,1.1,0.3l0,0l0,0.1c0,0.3,0,0.5,0,0.8c0,0.7,0,1.4-0.1,2.1c0,0.4-0.1,1-0.3,1.3l0,0L41.2,67
				c-0.5,0.3-1.1,0.4-1.7,0.6c-0.6,0.1-1.2,0.3-1.8,0.3c-1,0.1-2,0.2-3,0.3c-1.5,0.1-2.9,0-4.4-0.2c-0.8-0.1-1.5-0.2-2.3-0.5
				c-0.2-0.1-0.4-0.1-0.5-0.2c-0.1-0.1-0.3-0.1-0.4-0.2l-0.2-0.2l-0.1-1.1c0-0.2,0-0.4-0.1-0.6c0-0.2,0-0.3,0-0.5c0-0.2,0-0.6,0-0.8
				c0.1-0.3,0.1-0.7,0.3-1l0,0l0.1,0c0.1,0,0.1,0,0.2,0c0.2,0,0.4-0.1,0.5-0.1c0.3-0.1,0.6-0.1,0.8-0.2c0.8-0.1,1.5-0.2,2.3-0.3
				c0.4-0.1,0.9-0.1,1.3-0.2c1.1-0.1,2.3-0.2,3.4-0.3c0.8,0,1.6-0.1,2.3-0.1C38.3,61.9,38.7,61.9,39,61.9z M23,67.3
				c0.3,0.6,0.6,1.2,1,1.7c0.5,0.7,1.1,1.3,1.9,1.7c-0.6-0.1-1.2-0.3-1.7-0.6c-0.2-0.1-0.4-0.2-0.5-0.4c-0.1-0.1-0.2-0.2-0.3-0.3
				c-0.1-0.3-0.3-0.6-0.4-0.9c0-0.1,0-0.1,0-0.2c0-0.3,0-0.6-0.1-0.9c-0.1-0.3-0.1-0.5-0.1-0.8c0-0.1-0.1-0.3-0.1-0.4
				C22.7,66.6,22.8,67,23,67.3z M45.4,68.4c0,0.2-0.1,0.5-0.1,0.7c0,0.1-0.1,0.2-0.1,0.4l0,0.1l-0.3,0.3c-0.1,0.1-0.2,0.2-0.3,0.2
				c-0.1,0.1-0.2,0.2-0.3,0.3c0.1-0.2,0.1-0.4,0.2-0.6c0,0,0,0,0-0.1c0.2-0.3,0.4-0.6,0.6-0.9c0.2-0.4,0.3-0.8,0.5-1.2
				C45.5,67.8,45.5,68.1,45.4,68.4z M43.7,70.6C43.7,70.6,43.7,70.6,43.7,70.6C43.6,70.8,43.5,70.8,43.7,70.6
				c-0.4,0.2-0.9,0.4-1.3,0.5c-0.5,0.2-1,0.3-1.6,0.5c-0.2,0-0.4,0-0.5,0.1c1.3-0.3,2.6-0.7,3.6-1.4C43.8,70.4,43.8,70.5,43.7,70.6z
				 M33.6,72.4c0.4,0,0.9,0,1.3,0.1C34.4,72.5,34,72.5,33.6,72.4c-0.5,0.1-0.9,0-1.4,0C32.7,72.4,33.1,72.4,33.6,72.4z"/>
		</g>
	</g>
</g>
</svg>
