<?xml version="1.0" encoding="utf-8"?>
<!-- Generator: Adobe Illustrator 20.1.0, SVG Export Plug-In . SVG Version: 6.00 Build 0)  -->
<svg version="1.1" id="Layer_1" xmlns="http://www.w3.org/2000/svg" xmlns:xlink="http://www.w3.org/1999/xlink" x="0px" y="0px"
	 viewBox="0 0 75 75" style="enable-background:new 0 0 75 93.8;" xml:space="preserve">
<style type="text/css">
	.st0{fill:none;stroke:#000000;stroke-width:1.5;stroke-linecap:round;stroke-linejoin:round;stroke-miterlimit:79.8403;}
</style>
<g transform="scale(1 -1)" fill="#9C27B0">
	<g transform="translate(0 -75)">
		<g>
			<path class="st0" d="M41.4-26.4c-0.3,0-0.5,0-0.8,0"/>
			<path class="st0" d="M36.4-25.3l0.8-0.8"/>
			<path marker-end="none" marker-start="none" d="M42.1,0.9H25.3c0.1-0.1,0.2-0.2,0.3-0.3c0,0-0.1,0-0.1,0
				c-0.1,0.1-0.3,0.2-0.4,0.3l0,0h-2.2c0,0,0-0.1,0-0.1c0-0.1-0.1-0.1-0.2,0c-0.1,0-0.1,0.1-0.2,0.1h-6.6c0,0,0.1-0.1,0.1-0.1
				c0.1-0.1,0.1-0.1,0-0.2c-0.1-0.1-0.1-0.1-0.2,0c-0.1,0.1-0.2,0.2-0.3,0.3h-4.8l0,0l0,0c0.1-0.2,0-0.3-0.2-0.4
				c-0.2-0.1-0.4,0-0.5,0.1C9.6,0.9,9.5,1.3,9.3,1.7c-0.1,0-0.3,0-0.4,0.1L8.8,2c0,0.1,0,0.1,0,0.2l0,0v0l0,0.1
				c-0.2,0-0.3,0.2-0.3,0.4c0,0.4,0.1,0.9,0.1,1.3c0,0,0,0,0,0c0,0.2,0,0.4,0.1,0.5c0,0,0,0,0,0.1c0,0.1,0,0.2,0.1,0.3
				C8.6,5.1,8.3,5.3,8.1,5.5l0,0c0.2-0.2,0.5-0.4,0.7-0.6c0,0,0,0,0,0c0.1,0.6,0.2,1.2,0.4,1.7c0.1,0.5,0.2,1,0.3,1.4
				c0.2,0.7,0.4,1.3,0.5,2l0.1,0.3l0.1,0.6c0.1,0.2,0.1,0.4,0.2,0.6c0.1,0.3,0.2,0.7,0.3,1l0.1,0.2l0.3,0.8c0.1,0.2,0.1,0.4,0.2,0.6
				c0,0.1,0.1,0.2,0.1,0.3c0,0.1,0.1,0.1,0.1,0.2c0,0.1,0.1,0.2,0.1,0.3c0,0,0,0,0,0.1c-0.1,0.2,0,0.4,0.2,0.4c0,0,0,0,0.1,0
				c0.1,0.2,0.2,0.4,0.2,0.6c0,0.1,0.1,0.2,0.1,0.3l0,0.1l0,0l0,0.1c0,0,0,0.1,0.1,0.1c0.1,0.1,0.2,0.1,0.4,0.1
				c0.3,0,0.4-0.3,0.4-0.5c0.1,0.1,0.2,0.2,0.4,0.3c0.3,0.2,0.5,0.4,0.8,0.6c0.1,0.1,0.3,0.2,0.4,0.3c0.2,0.1,0.5,0.3,0.7,0.4
				c0.9,0.5,1.8,0.9,2.8,1.2c0,0,0,0,0.1,0c1.5,0.8,3.1,1.6,4.6,2.4c0.1,0.1,0.3,0.1,0.4,0.2c0.3,0.2,0.7,0.4,1,0.6
				c1.2,0.7,2.3,1.4,3.4,2c0.3,0.2,0.5,0.4,0.8,0.7c0.3,0.3,0.7,0.6,1,0.9c0,0.3,0,0.7,0,1c0,0.3,0,0.5,0,0.8
				c-0.1-0.1-0.1-0.1-0.2-0.2c-0.7-0.7-1.5-1.4-2.4-1.8c-1.5-0.7-3.1-1-4.7-1c-0.3-0.1-0.5-0.1-0.8-0.1c-0.5-0.1-1-0.1-1.4-0.1
				c-0.2,0-0.3,0-0.5,0c-0.2,0-0.3,0-0.5,0c-0.4,0-0.8,0.1-1.3,0.3c-0.5,0.1-0.9,0.3-1.3,0.5c-1.6,0.8-2.9,2.1-3.8,3.6c0,0,0,0,0,0
				l-0.2,0.3c-0.1,0-0.1,0-0.2,0l0,0c-0.4,0.2-0.6,0.4-0.7,0.7c-0.1,0-0.1,0-0.1,0.1c-0.2,0.1-0.3,0.1-0.5,0.2
				c-0.1,0-0.1,0.1-0.1,0.2s0.1,0.1,0.2,0.1c0.2-0.1,0.3-0.1,0.4-0.1l0,0l-0.1,0.2C11.2,31,11,31.3,11,31.5c0,0.2,0.1,0.3,0.3,0.3
				l0.1,0l0,0.1c0,0,0,0.1,0,0.1c0,0.2-0.1,0.4-0.1,0.6c0,0.1,0,0.1,0.1,0.2c0.1,0,0.1,0,0.2-0.1l0.1-0.4l0,0c0,0,0.1,0,0.1-0.1
				c0-0.1,0.1-0.1,0.1-0.2c0.1,0.1,0.2,0.1,0.3,0.1c0,0,0,0,0.1,0c0.1,0,0.3-0.1,0.4-0.2c0.1-0.1,0.2-0.2,0.2-0.2
				c0.1,0,0.2-0.1,0.3-0.1c0.4,0,0.8,0.1,1.1,0.2c0.2,0.1,0.5,0.2,0.7,0.4c0.2,0.2,0.4,0.5,0.5,0.7c0.1,0.1,0.2,0.3,0.2,0.3
				c0.1,0.1,0.1,0.3,0.2,0.4c0.1,0.1,0.1,0.3,0.1,0.4c0.5,1.2,0.9,2.6,1,4c0.1,0.5,0.1,1.1,0.2,1.6c0,0.3,0,0.6,0,0.8
				c0,0.2,0,0.4,0,0.5c0,0.2,0,0.4,0,0.6c0,0.5-0.1,0.9-0.1,1.4c-0.1,1.1-0.2,2.2-0.2,3.3c-0.1,0.8-0.1,1.6-0.1,2.4
				c-0.1,1.8-0.1,3.7-0.1,5.5c0,2.5,0.2,5,0.7,7.5c0.4,2,1,4.3,2.3,5.9c0.3,0.4,0.7,0.8,1.1,1.2c-0.1,0.1-0.1,0.2-0.2,0.3
				c0,0,0,0.1,0,0.1c0,0,0.1,0,0.1,0c0.1-0.1,0.2-0.2,0.3-0.3c0.1,0.1,0.2,0.2,0.3,0.2c0.3,0.2,0.5,0.3,0.8,0.4
				c-0.2,0.4-0.5,0.7-0.7,1.1c0,0,0,0.1,0,0.1c0,0,0.1,0,0.1,0c0.2-0.4,0.5-0.7,0.9-1c0,0,0,0,0-0.1c0,0,0.1,0,0.1,0
				c0,0,0.1,0,0.2,0c0,0,0,0-0.1,0c-0.1,0.1-0.1,0.3,0,0.4c0,0,0.1,0.1,0.1,0.1c-0.1,0.1-0.1,0.2-0.2,0.3c0,0.1,0,0.1,0,0.2
				c0.1,0,0.1,0,0.2,0c0.1-0.1,0.1-0.2,0.2-0.3c0.1,0.1,0.2,0.1,0.2,0.2c0.1,0,0.1,0.1,0.2,0.1c0,0.1-0.1,0.1-0.1,0.2
				c0,0,0,0.1,0,0.1s0.1,0,0.1,0c0-0.1,0.1-0.1,0.1-0.2c0.4,0.3,0.9,0.7,1.3,0.9c0.3,0.2,0.6,0.4,0.9,0.5c0.2,0.1,0.3,0.2,0.5,0.3
				c0.3,0.2,0.6,0.3,0.8,0.4c0.3,0.1,0.5,0.2,0.8,0.3c0.2,0.1,0.5,0.1,0.8,0.2c0.5,0.1,1.1,0.1,1.6,0.1c0,0,0.1,0,0.1,0
				c0.6,0.1,1.3,0.1,1.9,0c0.3,0,0.6-0.1,0.9-0.2c0,0,0,0,0,0c-0.1,0.1-0.2,0.3-0.4,0.5c0,0,0,0.1,0,0.1c0,0,0.1,0,0.1,0
				c0.1-0.2,0.2-0.3,0.4-0.5c0,0,0.1,0,0.1,0.1c0,0,0,0,0,0c0,0.1,0,0.1,0.1,0.1c0.1,0,0.2,0,0.3,0c0.2,0.1,0.5,0.2,0.7,0.3
				c0,0,0,0.1,0,0.1c0,0.1,0.1,0.1,0.2,0c0,0,0.1,0,0.1-0.1c0.3,0.1,0.5,0.1,0.8,0.2c0.5,0.1,0.9,0.1,1.4,0.1c0.4,0,0.7,0,1.1,0
				c0.5,0,1,0,1.5-0.1c0.1,0,0.3,0,0.4,0c0.2,0,0.3,0,0.5,0c1.4-0.1,2.8-0.1,4.2-0.4c0.6-0.1,1.3-0.3,1.9-0.5
				c0.2-0.1,0.3-0.1,0.5-0.2c0.1,0,0.2-0.1,0.4-0.1c0.3-0.1,0.6-0.2,0.9-0.4c1-0.4,1.9-0.9,2.7-1.5c0.2-0.1,0.4-0.3,0.6-0.4
				c0.3-0.3,0.6-0.5,0.9-0.8c0.2-0.3,0.5-0.5,0.7-0.8c0.2-0.2,0.3-0.4,0.5-0.6c0-0.1,0.1-0.1,0.1-0.2c0.2-0.2,0.4-0.4,0.5-0.6
				c0.1-0.2,0.2-0.3,0.4-0.5c0-0.1,0-0.1,0-0.2c0,0-0.1,0-0.1,0c0.2-0.4,0.3-0.8,0.5-1.2c0,0,0-0.1,0.1-0.4c0-0.1,0-0.1,0.1-0.2
				c0-0.1,0.1-0.2,0.1-0.2c0.2-0.5,0.3-0.9,0.4-1.4c0.1-0.4,0.2-0.7,0.3-1.1c0.1-0.7,0.3-1.4,0.4-2c0.1-0.8,0.2-1.7,0.3-2.6
				c0.1-0.8,0.1-1.7,0.2-2.5c0-0.7,0.1-1.5,0.1-2.2c0.1-1.6,0.1-3.3,0.1-4.9c0-1.5,0-3.1,0.1-4.6c0-0.6,0.1-1.1,0.1-1.7
				c0-0.3,0-0.6,0.1-0.9c0.1-0.5,0.1-1,0.2-1.5c0.1-0.4,0.1-0.8,0.2-1.2c0.1-0.2,0.1-0.5,0.1-0.7c0.1-0.6,0.4-1.3,0.7-1.8
				c0.2-0.3,0.4-0.5,0.6-0.7c0.1,0,0.1,0,0.2-0.1c0.1,0,0.2,0,0.3,0c0.3,0,0.6,0.1,0.8,0.2c0.1,0,0.1,0.1,0.2,0.1
				c0.2,0.1,0.4,0.2,0.5,0.4c0,0,0,0.1,0.1,0.1c0,0,0.1,0.2,0.1,0.3c0.1,0.2,0.1,0.6,0.2,0.8c0.1,0.1,0.2,0.2,0.3,0.2
				c0.3,0,0.5-0.1,0.6-0.4c0.1-0.5,0.1-1.1,0.2-1.6c0-0.3,0-0.6,0-0.9c0.1,0,0.3,0,0.4-0.1c0.2-0.2,0.2-0.5,0.1-0.7
				c-0.1-0.1-0.2-0.2-0.3-0.3c-0.1-0.1-0.1-0.1-0.2-0.2c-0.1-0.5-0.2-1-0.3-1.4c-0.1-0.2-0.1-0.4-0.2-0.6c-0.1-0.4-0.3-0.8-0.5-1.1
				c-0.1-0.2-0.2-0.4-0.4-0.6c-0.1-0.2-0.2-0.3-0.4-0.5c-0.7-0.9-1.7-1.6-2.7-2.1c-0.1,0-0.1-0.1-0.2-0.1c-0.4-0.2-0.8-0.4-1.2-0.6
				c-2.2-0.9-4.4-1.2-6.8-0.5c-0.7,0.2-1.4,0.5-2,0.9l-0.3,0.2l-0.8,0.3c-0.1,0-0.2,0.1-0.2,0.1c0.1-0.4,0.1-0.8,0-1.2
				c0,0.1,0,0.1-0.1,0.2l0,0l0-0.1c0-0.1,0.1-0.1,0.1-0.2c0,0,0-0.1,0-0.1c1.1-0.9,2.2-1.8,3.4-2.6c0.2-0.1,0.3-0.2,0.5-0.3
				c1-0.4,1.9-0.9,2.9-1.3c1.6-0.7,3.3-1.5,4.7-2.5c0.1,0,0.2-0.1,0.3-0.1c0,0,0,0.1,0,0.2c0,0.1,0.1,0.1,0.2,0
				c0.2-0.2,0.5-0.3,0.7-0.5c0.1,0,0.2-0.1,0.4-0.1c0.4-0.1,0.8-0.2,1.2-0.4c0.4-0.1,0.9-0.3,1.3-0.5c0.2-0.1,0.3-0.2,0.2-0.4
				c-0.1-0.2-0.2-0.3-0.4-0.2c0,0-0.1,0-0.1,0c0.3-0.1,0.6-0.3,0.9-0.4c0,0,0.1,0,0.1-0.1c0,0,0,0,0,0c0,0,0,0.1,0,0.1l0.1,0.1
				l0.1,0c0.1,0,0.3,0,0.4-0.1l0.1-0.1c0.2-0.3,0.3-0.6,0.5-0.9l0.2-0.4l0.3-0.7l0.6-0.7c1-1.3,1.7-2.9,2.1-4.4l0.4-1.4l0.6-1.3
				c0.1-0.2,0.1-0.3,0.2-0.5c0-0.1,0.1-0.2,0.1-0.3c0-0.1,0-0.1,0-0.2c0-0.1,0-0.1-0.1-0.2c0,0,0,0,0,0c0.1,0,0.1-0.2,0.1-0.3
				c-0.1-0.1-0.2-0.1-0.3-0.1c-0.1,0-0.1,0.1-0.1,0.1l0.1-0.6c0.1-0.4,0.1-0.8,0.2-1.2c0-0.2,0.1-0.5,0-0.7c0.1-0.1,0.2-0.1,0.3-0.2
				c0.1-0.1,0.1-0.2,0-0.3c-0.1-0.1-0.2-0.1-0.3,0c-0.1,0.1-0.2,0.1-0.3,0.2c-0.2-0.1-0.5,0-0.6,0.1l-0.1,0.1
				c-0.1-0.4-0.2-0.8-0.4-1.2c0.2-0.1,0.3-0.2,0.3-0.4c0-0.2-0.1-0.4-0.3-0.4c0,0,0,0,0,0c-0.1-0.1-0.2-0.1-0.3,0c0,0,0,0-0.1,0
				h-7.7c0,0,0,0,0,0c-0.1-0.1-0.2-0.1-0.2,0c0,0,0,0,0,0h-4.8c0-0.1,0-0.1,0-0.2c-0.1-0.1-0.2-0.1-0.3,0c-0.1,0.1-0.1,0.1-0.2,0.2
				h-1.3c0.1-0.1,0.2-0.1,0.4-0.2c0.1,0,0.1-0.1,0-0.2c0-0.1-0.1-0.1-0.2,0c-0.3,0.1-0.5,0.3-0.8,0.4h-2.1c0.3-0.2,0.6-0.3,0.9-0.5
				c0.1,0,0.1-0.1,0.1-0.2c0-0.1-0.1-0.1-0.2-0.1c-0.5,0.2-0.9,0.5-1.4,0.8h-1.6c0,0,0-0.1,0-0.1c0,0-0.1-0.1-0.1,0
				c-0.1,0-0.2,0.1-0.2,0.1h-2.6c0.2-0.1,0.3-0.2,0.5-0.3c0.1-0.1,0.1-0.2,0-0.2c-0.1-0.1-0.2-0.1-0.2,0c-0.3,0.2-0.5,0.4-0.8,0.6
				h-1.7c0.3-0.2,0.6-0.5,0.9-0.7c0,0,0.1-0.1,0-0.2c0,0-0.1-0.1-0.2,0C42.8,0.3,42.5,0.6,42.1,0.9z M10.4,2.9
				c-0.2,0.2-0.3,0.4-0.5,0.6C9.9,3.5,9.8,3.6,9.8,3.7c0-0.1,0-0.3-0.1-0.4l0-0.1l0.2-0.2C10.2,2.5,10.6,2,11,1.7h0.5
				C11.1,2.1,10.8,2.5,10.4,2.9z M12.5,2.1c-0.8,0.8-1.5,1.7-2.1,2.6C10.3,4.9,10.1,5,10,5.2C9.9,4.8,9.9,4.4,9.8,3.9
				C9.9,3.8,10,3.8,10,3.7c0.4-0.5,0.8-0.9,1.2-1.4c0.1-0.1,0.3-0.3,0.4-0.4c0.1-0.1,0.1-0.1,0.2-0.2H13C12.8,1.8,12.7,2,12.5,2.1z
				 M14.4,1.8c-0.3,0.3-0.7,0.7-1,1c-0.2,0.2-0.5,0.5-0.7,0.7c-0.4,0.4-0.8,0.9-1.2,1.4c-0.1,0.2-0.3,0.3-0.4,0.5
				c-0.3,0.3-0.5,0.7-0.8,1L10.1,6c0-0.2-0.1-0.4-0.1-0.7c0.7-1,1.5-2,2.4-2.9c0.3-0.3,0.5-0.5,0.8-0.8h1.3
				C14.5,1.7,14.4,1.8,14.4,1.8z M15,3.2c-0.5,0.5-1.1,1-1.6,1.5c-0.7,0.7-1.3,1.4-1.9,2.1c-0.3,0.4-0.7,0.8-1,1.2c0,0,0,0,0,0
				l-0.2-0.7l-0.1-0.8l0,0c1-1.4,2.3-2.7,3.5-3.8c0.3-0.3,0.6-0.6,0.9-0.8c0.1-0.1,0.2-0.2,0.3-0.3h1.6C16,2.2,15.5,2.7,15,3.2z
				 M18.3,2.1c-0.5,0.4-0.9,0.8-1.3,1.3c-1.9,1.8-3.8,3.8-5.3,5.9l0,0c1.5-2.1,3.2-3.9,5.1-5.6c0.5-0.4,0.9-0.8,1.4-1.2
				c0.3-0.3,0.6-0.6,1-0.9h2.2c-0.4,0.3-0.7,0.6-1,0.9c-0.2,0.2-0.4,0.4-0.6,0.5c-0.4,0.4-0.9,0.9-1.3,1.3c-1.2,1.2-2.3,2.5-3.2,3.9
				c0,0,0,0.1,0,0.1c0,0,0.1,0,0.1,0c0.7-0.9,1.4-1.8,2.1-2.6c0.4-0.4,0.7-0.8,1.1-1.2c0.2-0.2,0.5-0.5,0.7-0.7
				c0.6-0.5,1.1-1,1.7-1.5c0.3-0.2,0.5-0.4,0.8-0.6H24c-0.2,0.1-0.3,0.3-0.5,0.4c-0.3,0.2-0.6,0.5-0.8,0.7c-1.2,1.1-2.4,2.2-3.4,3.4
				C18.8,6.8,18.4,7.4,18,8c0,0,0,0.1,0,0.1c0,0,0.1,0,0.1,0c1-1.5,2.2-2.8,3.6-4c0.9-0.8,1.9-1.5,2.8-2.3h2.6
				c-0.6,0.5-1.1,1-1.6,1.5c-1.5,1.4-2.9,3-4.2,4.5c0,0,0,0.1,0,0.1c0,0,0.1,0,0.1,0c1.9-2.2,3.9-4.3,6.2-6.1h7.4
				c-1.6,1.2-3.1,2.5-4.4,4c-0.4,0.4-0.8,0.9-1.1,1.3c-0.1,0.2-0.3,0.4-0.4,0.5c0,0,0,0.1,0,0.1c0,0,0.1,0,0.1,0
				c1.7-2.3,3.8-4.1,6.1-5.8c0.1,0,0.1-0.1,0.1-0.2h2.9C38.1,1.7,38,1.8,38,1.9c-0.7,0.6-1.3,1.2-2,1.8c-0.6,0.6-1.3,1.2-1.8,1.8
				c-0.2,0.2-0.4,0.5-0.6,0.7c-0.2,0.2-0.4,0.5-0.6,0.7c-0.2,0.2-0.3,0.4-0.5,0.6c0,0,0,0.1,0,0.1c0,0,0.1,0,0.1,0
				C33.8,5.9,35.4,4.5,37,3c0.4-0.3,0.8-0.7,1.2-1c0.1-0.1,0.2-0.2,0.3-0.3h2.6c-0.9,0.7-1.7,1.4-2.5,2.2c-0.6,0.5-1.2,1.1-1.7,1.7
				c-0.3,0.3-0.6,0.6-0.8,0.9c-0.1,0.2-0.3,0.3-0.4,0.5c-0.3,0.4-0.6,0.8-0.9,1.2l0,0c0.7-0.9,1.4-1.8,2.2-2.6
				c0.3-0.3,0.6-0.6,0.9-0.9c0.5-0.4,0.9-0.8,1.4-1.2c0.5-0.4,1.1-0.8,1.6-1.3C41,2,41.2,1.8,41.4,1.7h1.8c-0.9,0.8-1.7,1.6-2.6,2.5
				c-0.4,0.5-0.8,0.9-1.2,1.4c-0.3,0.3-0.5,0.6-0.8,0.9C38.3,7,37.9,7.5,37.5,8c0,0,0,0.1,0,0.1c0,0,0.1,0,0.1,0
				c0.4-0.5,0.8-1,1.2-1.4c0.5-0.6,1-1.2,1.5-1.7c0.9-1,1.8-1.9,2.8-2.7c0.2-0.2,0.4-0.3,0.5-0.5H46c-0.2,0.1-0.3,0.2-0.5,0.3
				c-1.9,1.4-3.6,3.1-4.9,5.1c0,0,0,0.1,0,0.1c0,0,0.1,0,0.1,0c1.1-1.7,2.5-3.1,4-4.3c0.5-0.4,1.1-0.8,1.7-1.2H48
				c-0.2,0.1-0.4,0.3-0.6,0.5c-0.8,0.6-1.6,1.4-2.3,2.1c-0.3,0.3-0.6,0.7-0.9,1c-0.2,0.2-0.3,0.4-0.5,0.6c-0.1,0.1-0.1,0.2-0.2,0.3
				c-0.3,0.4-0.5,0.7-0.8,1.1c0,0,0,0.1,0,0.1c0,0,0.1,0,0.1,0c1.5-2.1,3.3-4,5.4-5.5c0.1-0.1,0.2-0.1,0.3-0.2h2.1
				c-0.1,0.1-0.2,0.1-0.3,0.2c-0.5,0.3-1,0.7-1.5,1.1c-0.7,0.6-1.3,1.2-1.9,1.9c-0.2,0.3-0.4,0.5-0.6,0.8c-0.2,0.3-0.4,0.6-0.7,1
				c-0.1,0.2-0.2,0.4-0.3,0.6c0,0,0,0.1,0,0.1c0,0,0.1,0,0.1,0c0.1-0.2,0.2-0.4,0.3-0.6c0.4-0.7,1-1.4,1.5-2c1-1.1,2.2-2,3.5-2.8
				c0.1-0.1,0.2-0.1,0.3-0.2h1.7c-0.2,0.1-0.3,0.3-0.5,0.4c-0.4,0.3-0.8,0.7-1.1,1c-0.6,0.6-1.2,1.2-1.8,1.7
				c-1.3,1.3-2.6,2.6-3.9,3.9c0,0,0,0.1,0,0.2c0,0,0.1,0,0.2,0c1.1-1,2.1-2.1,3.2-3.1c0.8-0.7,1.5-1.5,2.3-2.2
				c0.3-0.2,0.5-0.5,0.8-0.7c0.4-0.4,0.9-0.8,1.4-1.2c0,0,0,0,0,0h2.8c-1.6,1.1-3,2.4-4.3,3.8c-0.8,0.8-1.5,1.5-2.3,2.3
				c-0.4,0.5-0.9,0.9-1.3,1.4l0,0.1l0.1,0c1.6-1.8,3.3-3.4,5-5c0.5-0.5,1.1-0.9,1.6-1.3c0.5-0.4,1.1-0.8,1.6-1.2h1.5
				c-0.9,0.8-1.7,1.6-2.5,2.4c-2,2-3.9,4.2-5.5,6.6l0,0.1l0.1,0c1.7-2.5,3.7-4.7,5.9-6.8c0.8-0.7,1.5-1.4,2.3-2.1
				c0.1-0.1,0.1-0.1,0.2-0.2h2.1c-1.7,1.1-3.1,2.6-4.5,4.1c-0.9,1.1-1.8,2.3-2.6,3.4c-0.5,0.7-1,1.4-1.6,2.2c0,0,0,0.1,0,0.1
				c0,0,0.1,0,0.1,0c1-1.4,2.1-2.8,3.2-4.2C55.9,6.6,56.5,6,57,5.4c0.4-0.4,0.8-0.8,1.2-1.2c0.2-0.2,0.4-0.3,0.6-0.5
				c0.1-0.1,0.3-0.2,0.4-0.3c0.1-0.1,0.2-0.2,0.3-0.3c0.2-0.2,0.4-0.3,0.6-0.5C60.5,2.3,61,2,61.4,1.7c0,0,0,0,0,0h2.2
				c-0.6,0.5-1.2,1-1.7,1.5c-2.1,1.8-4,3.7-5.8,5.8c-0.9,1.1-1.9,2.3-2.6,3.6c0,0,0,0.1,0,0.1c0,0,0.1,0,0.1,0
				c0.5-0.8,1.1-1.6,1.7-2.4c0.5-0.7,1.1-1.3,1.6-1.9c0.3-0.4,0.7-0.7,1-1.1c0.4-0.4,0.8-0.8,1.2-1.2c0.6-0.6,1.2-1.1,1.8-1.6
				c1-0.9,2.1-1.8,3.1-2.7c0,0,0,0,0,0h1.9c-0.6,0.5-1.2,1-1.8,1.5c-0.4,0.3-0.8,0.7-1.1,1c-0.9,0.8-1.7,1.7-2.6,2.5
				c-0.4,0.4-0.8,0.8-1.2,1.2c-1.5,1.6-2.9,3.2-4.3,4.9l0,0.1l0.1,0c1.1-1.2,2.1-2.5,3.2-3.6c0.7-0.7,1.3-1.4,2-2
				c0.7-0.7,1.4-1.3,2.1-1.9c0.4-0.4,0.9-0.8,1.3-1.1c0.8-0.7,1.7-1.5,2.6-2.2c0,0.2,0,0.3,0,0.4c0,0.1,0,0.2,0.1,0.2
				c0,0.1,0,0.2,0.1,0.4c0.1,0.3,0.2,0.6,0.3,0.9c-0.1,0.1-0.2,0.1-0.2,0.2c-0.4,0.3-0.9,0.7-1.3,1.1c-0.7,0.6-1.4,1.3-2,1.9
				c-0.6,0.6-1.2,1.2-1.8,1.8c-1.1,1.1-2.2,2.3-3.3,3.4c-0.5,0.5-1,0.9-1.4,1.4l0,0c0.5-0.5,1-1,1.5-1.5c1.3-1.4,2.7-2.7,4.1-4
				c1.1-1.1,2.2-2.1,3.4-3.1c0.4-0.3,0.8-0.7,1.2-1c0,0.1,0.1,0.2,0.1,0.3c0,0.1,0.1,0.2,0.2,0.4l0,0.1l0,0c0,0.1,0,0.2-0.1,0.2
				c0,0,0,0.1,0,0.1c-0.1,0.3-0.2,0.5-0.4,0.7c-0.1,0.1,0,0.2,0,0.3c0,0,0.1,0,0.1,0c0,0,0,0.1,0,0.1c-0.1,0.1-0.2,0.1-0.2,0.2
				c-0.5,0.3-0.9,0.7-1.4,1c-0.4,0.3-0.8,0.6-1.2,1c-0.5,0.4-0.9,0.8-1.4,1.2c-0.9,0.8-1.8,1.7-2.7,2.5c-0.5,0.4-1,0.9-1.4,1.3
				l-0.9,0.8l0,0l-0.1,0c-0.1,0.1-0.3,0.3-0.4,0.5c0,0-0.1,0-0.1,0.1l0,0c0,0,0,0,0,0.1s0,0,0.1,0l0.1,0c0,0,0.1-0.1,0.1-0.1
				c0.2-0.2,0.5-0.4,0.7-0.6c1.1-1,2.2-1.9,3.3-2.9c1.4-1.2,2.8-2.3,4.2-3.5C66,7.5,66.3,7.3,66.7,7c-0.1,0.4-0.2,0.7-0.3,1.1
				c-0.4,1.1-0.7,2.2-1.1,3.2l-0.3,0.7l-0.2,0.5c-0.2,0.1-0.4,0.2-0.5,0.4c0.1-0.1,0.3-0.3,0.5-0.4l0,0L64,14.3c0,0.1,0,0.2,0,0.3
				l0,0.1L63.8,15l-0.1,0.2l-0.5,0.5c0,0-0.1,0-0.1,0.1c-0.1-0.1-0.3-0.1-0.4,0c-0.5,0.2-1,0.5-1.5,0.7c0-0.1,0.1-0.1,0.1-0.2
				c0.1-0.2,0.2-0.3,0.4-0.5c0-0.1,0.1-0.1,0.1-0.2c0-0.1,0.1-0.2,0.2-0.3c0.2-0.3,0.4-0.7,0.5-1c0.1-0.3,0.3-0.7,0.4-1
				c0-0.2,0.1-0.3,0.1-0.5c0.1-0.2,0.1-0.4,0.1-0.6c0,0,0-0.1,0-0.1c0.1-0.1,0.2-0.1,0.3-0.2c0.3-0.2,0.6-0.5,0.8-0.7
				c0.2-0.2,0.3-0.3,0.5-0.5c0.1-0.1,0.1-0.2,0-0.3c-0.1-0.1-0.2-0.1-0.3,0c-0.5,0.5-1,1-1.6,1.5c-0.7,0.6-1.4,1.2-2,1.8l-0.5,0.5
				l0,0c0,0-0.1,0-0.1,0c-0.2,0.2-0.3,0.5-0.5,0.7l0,0.1l-0.3,0.3c0,0-0.1,0.1-0.1,0.1c0,0-0.1,0.1-0.1,0.1l0,0.1c0,0,0,0,0,0.1
				c0,0,0,0,0.1,0l0,0l0-0.1l0.1-0.1l0,0l0.2-0.2c0.3-0.4,0.7-0.8,1.1-1.1c0.2-0.1,0.3-0.3,0.5-0.4c0.4-0.3,0.8-0.6,1.2-0.9
				c0.1-0.1,0.3-0.2,0.4-0.3c0,0.2-0.1,0.4-0.2,0.6c-0.1,0.2-0.1,0.4-0.2,0.6c-0.3,0.7-0.7,1.4-1.1,2.1c-0.3,0.4-0.6,0.7-0.9,1.1
				c0,0,0,0-0.1,0c-0.5,0.3-1.1,0.5-1.6,0.8c-0.7,0.3-1.4,0.7-2.1,1c-3.1,1-6.1,2.2-8.8,3.9c-0.9,0.5-1.7,1.1-2.4,1.8
				c-0.1,0.1-0.1,0.2,0,0.3c0.1,0.1,0.2,0.1,0.3,0c0.3-0.2,0.5-0.4,0.8-0.7c0.2-0.2,0.5-0.4,0.7-0.5c0.3-0.2,0.6-0.4,1.1-0.7
				c-0.6,0.3-1.1,0.7-1.7,1.1c0,0,0,0,0,0c0,0,0,0,0,0c-0.1,0.1-0.2,0.2-0.4,0.3c0,0-0.1,0.1-0.1,0.1c-0.1,0.1-0.2,0.2-0.3,0.3
				c-0.1,0.1-0.2,0.2-0.2,0.2c-0.1,0.1-0.2,0.1-0.3,0.2l0,0.1l0,0c0,0,0,0,0,0c0,0,0,0.1,0,0.1c0,0,0.1,0,0.1,0
				c0.2-0.1,0.3-0.2,0.5-0.4c0.3-0.2,0.6-0.5,0.8-0.7c0.8-0.6,1.6-1.2,2.4-1.7c0.9-0.6,1.8-1.1,2.8-1.6c0.4-0.2,0.8-0.3,1.2-0.5
				c-1.1,0.7-2.3,1.4-3.4,2.1c0,0-0.1,0-0.1,0.1c-0.3,0.1-0.6,0.3-0.9,0.4c-0.5,0.3-1.1,0.6-1.6,0.9c-0.6,0.4-1.1,0.8-1.6,1.3
				c0,0,0,0,0,0c0,0,0,0,0,0c-0.1,0.1-0.1,0.3-0.1,0.5c0,0,0,0,0,0c-0.1,0.1-0.1,0.1-0.2,0.2c-0.4,0.3-0.7,0.7-1.1,1
				c-0.3,0.3-0.6,0.5-0.9,0.8c0,0,0,0.1,0,0.1c0,0,0.1,0,0.1,0c0.2-0.1,0.3-0.3,0.5-0.4c0.3-0.2,0.6-0.5,0.8-0.7
				c0.2-0.2,0.4-0.3,0.5-0.5c0,0.1,0,0.1,0,0.2c0,0,0,0,0,0c-0.2,0.4-0.3,0.9-0.4,1.5c0,0,0,0,0,0c-0.2,0.1-0.3,0.2-0.5,0.4
				c-0.1,0.1-0.2,0.1-0.3,0.2c0,0-0.1,0.1-0.1,0.1c-0.8-0.6-1.8-1.1-2.8-1.4c0.1-0.1,0.3-0.2,0.4-0.4c0.6-0.5,1.1-1.1,1.7-1.6
				c1.6-1.5,3.3-2.9,5.1-4.1c0.1-0.1,0.2-0.2,0.1-0.4c-0.1-0.1-0.2-0.2-0.4-0.1c-1.6,1.1-3,2.4-4.4,3.7c-0.8,0.7-1.5,1.4-2.2,2.1
				c-0.2,0.2-0.4,0.4-0.6,0.6c-0.1,0-0.2,0-0.3-0.1c-0.3-0.1-0.7-0.1-1-0.1c-0.1,0-0.3,0-0.5,0c-0.1,0-0.2,0.1-0.2,0.2
				c0,0.1,0.1,0.2,0.2,0.2c0.1,0,0.1,0,0.2,0c0.3,0,0.7,0,1,0.1c0.1,0,0.1,0,0.2,0c0,0,0,0,0,0c-0.1,0.1-0.1,0.1,0,0.2
				c0.1,0.1,0.1,0.1,0.2,0c0.1-0.1,0.1-0.1,0.2-0.2c0,0,0.1,0,0.1,0c0.3,0.1,0.6,0.2,0.9,0.3c0.7,0.3,1.2,0.6,1.8,1
				c0,0-0.1,0.1-0.1,0.1c-0.2,0.1-0.3,0.3-0.5,0.5c-0.4,0.5-0.8,0.9-1.1,1.5c0.6-0.7,1.2-1.4,1.9-1.9c0.1,0,0.1,0.1,0.2,0.1
				c0,0,0,0-0.1,0c-0.1,0.1,0,0.2,0,0.2c0.1,0.1,0.1,0.1,0.2,0.2c0,0,0,0-0.1,0c0,0-0.1,0.1,0,0.2c0,0.1,0.1,0.1,0.2,0
				c0,0,0.1-0.1,0.1-0.1c0.1,0.1,0.2,0.2,0.3,0.2c0.1,0.1,0.3,0.3,0.4,0.4c0.2,0.2,0.4,0.3,0.6,0.5c0,0,0.1,0.1,0.1,0.1
				c-0.1,0.1-0.3,0.3-0.4,0.5c0,0,0,0.1,0,0.1c0,0,0.1,0,0.1,0c0.1-0.2,0.3-0.3,0.4-0.5c0.3,0.3,0.5,0.7,0.7,1
				c-0.1,0.1-0.2,0.3-0.3,0.4c-0.2,0.3-0.4,0.6-0.6,0.9c0,0,0,0.1,0,0.1c0,0,0.1,0,0.1,0c0.2-0.4,0.5-0.7,0.8-1.1
				c0.1-0.1,0.1-0.1,0.2-0.2c0.1,0.1,0.1,0.2,0.2,0.3c0.1,0.1,0.1,0.2,0.2,0.3c-0.2,0.2-0.3,0.4-0.5,0.7c0,0,0,0.1,0,0.1
				c0,0,0.1,0,0.1,0c0.2-0.2,0.3-0.4,0.5-0.6c0.1,0.1,0.2,0.3,0.2,0.4c0.1,0.1,0.2,0.3,0.2,0.4c0.1,0.2,0.2,0.4,0.3,0.6
				c-0.1,0.1-0.1,0.1-0.2,0.2c-0.2,0.3-0.4,0.5-0.6,0.8c0,0,0,0.1,0,0.1c0,0,0.1,0,0.1,0c0.2-0.3,0.5-0.6,0.7-0.9
				c0,0.1,0.1,0.1,0.1,0.2c-0.2,0.2-0.4,0.4-0.5,0.6c0,0,0,0.1,0,0.1c0,0,0.1,0,0.1,0c0.2-0.2,0.3-0.4,0.5-0.5
				c0.3,0.6,0.5,1.2,0.8,1.8c0,0,0,0,0,0.1c0,0-0.1,0.1-0.1,0.1c-0.4,0.4-0.8,0.8-1.1,1.3l0.1,0c0.3-0.5,0.8-1,1.2-1.4
				c0.1,0.2,0.2,0.4,0.2,0.5c0.1,0.3,0.2,0.6,0.3,0.9c0,0.1,0.1,0.1,0.1,0.2c-0.4,0.4-0.9,0.8-1.3,1.2l0,0c0.4-0.4,0.8-0.8,1.3-1.1
				c0.1,0.2,0.1,0.5,0.2,0.7c0,0,0.1,0.1,0.1,0.1c0,0,0.1-0.1,0.1-0.1c0-0.3,0-0.6-0.1-0.9c0.1,0,0.1-0.1,0.2-0.1
				c0.1,0.4,0.2,0.8,0.4,1.2c0.1,0.4,0.2,0.8,0.3,1.2c-0.6,0.6-1.2,1.2-1.9,1.7c0,0,0,0.1,0,0.1c0,0,0.1,0,0.1,0
				c0.6-0.6,1.2-1.1,1.8-1.7c0.1,0.4,0.2,0.8,0.3,1.2c0,0.1,0,0.2,0,0.2c-0.1,0.1-0.1,0.1-0.2,0.2c-0.1,0.1-0.3,0.3-0.4,0.4
				c0,0,0,0.1,0,0.1c0,0,0.1,0,0.1,0c0.1-0.2,0.3-0.3,0.5-0.5c0,0,0,0,0.1-0.1c0,0.3,0.1,0.5,0.1,0.8c0.1,0.7,0.1,1.5,0.1,2.2
				c0,0,0,0,0,0c0,0,0,0.1,0,0.1c0,0,0,0,0,0c0,0.1,0,0.1,0,0.2c0,0.1,0.1,0.2,0.2,0.2c0.1,0,0.2-0.1,0.2-0.2c0-0.2,0-0.3,0-0.5
				c0.4-0.4,0.8-0.7,1.2-1c0.3-0.2,0.6-0.4,0.8-0.7c0.1-0.1,0.2-0.2,0.3-0.2c0.1-0.1,0.3-0.2,0.4-0.3l0.3-0.3l0.4,0.1
				c0,0,0.1,0,0.2,0c0.1,0,0.2-0.1,0.2-0.1c0-0.1-0.1-0.2-0.2-0.2c-0.1,0-0.4-0.1-0.5-0.1c-0.1,0-0.2-0.1-0.3,0c0,0-0.1,0.1-0.2,0.2
				c-0.1,0.1-0.1,0.1-0.2,0.2c-0.2,0.2-0.4,0.4-0.6,0.6c-0.4,0.4-0.8,0.7-1.3,1.1c-0.2,0.2-0.4,0.3-0.6,0.5c0-0.4,0-0.8,0-1.2
				c0-0.6-0.1-1.3-0.1-1.9c0.6-0.5,1.1-1,1.7-1.5c0.6-0.5,1.3-1,1.9-1.4c0.2-0.2,0.5-0.3,0.7-0.4c0,0,0.1-0.1,0-0.1
				c0,0-0.1-0.1-0.1,0c-0.5,0.3-1.1,0.7-1.6,1c-0.5,0.4-1,0.8-1.5,1.2c-0.4,0.4-0.9,0.8-1.3,1.2c0-0.2-0.1-0.5-0.1-0.7
				c0-0.3-0.1-0.5-0.1-0.8c0.1,0,0.1-0.1,0.2-0.1c1.4-1.3,3-2.5,4.5-3.6c0.1,0,0.1-0.1,0-0.2c0-0.1-0.1-0.1-0.2,0
				c-0.9,0.7-1.8,1.4-2.7,2.2c-0.6,0.5-1.3,1.1-1.9,1.7c0-0.1,0-0.2,0-0.4c0-0.3-0.1-0.7-0.2-1c-0.1-0.4-0.2-0.7-0.3-1.1
				c0.8-0.6,1.6-1.2,2.4-1.8c0.7-0.5,1.4-0.9,2.1-1.3c0.6-0.4,1.2-0.7,1.8-1c0,0,0.1-0.1,0-0.1c0,0-0.1-0.1-0.1,0
				c-2.3,1.1-4.3,2.6-6.3,4.2c-0.2-0.5-0.4-1.1-0.7-1.6c0,0,0-0.1,0-0.1c1.5-1.2,3.2-2.2,4.8-3.2c0.8-0.5,1.5-0.9,2.3-1.4
				c0.1,0,0.1-0.1,0-0.2c0-0.1-0.1-0.1-0.2,0c-0.2,0.1-0.4,0.3-0.6,0.4c-0.7,0.5-1.5,0.9-2.2,1.4C52.7,34,51.3,34.9,50,36
				c-0.3-0.6-0.6-1.1-1-1.7c0.1-0.1,0.2-0.2,0.3-0.2c0.2-0.2,0.5-0.4,0.7-0.6c0.3-0.3,0.7-0.5,1-0.7c0.5-0.3,1-0.7,1.5-1
				c0.8-0.5,1.7-1.1,2.5-1.6c0.4-0.2,0.7-0.5,1.1-0.8c0.1,0,0.1-0.1,0-0.2c0-0.1-0.1-0.1-0.2,0c-0.2,0.1-0.4,0.3-0.5,0.4
				c-0.2,0.1-0.3,0.2-0.5,0.3c-0.5,0.4-1.1,0.7-1.6,1c-0.9,0.6-1.9,1.2-2.7,1.8c-0.5,0.4-1,0.7-1.4,1.1c-0.1,0.1-0.2,0.2-0.3,0.2
				c0-0.1-0.1-0.1-0.2-0.2c1.8-2,4-3.6,6.1-5.3c0.1-0.1,0.1-0.2,0-0.3c-0.1-0.1-0.2-0.1-0.3,0c-1.8,1.4-3.5,2.9-5.1,4.4
				c-0.3,0.3-0.6,0.6-0.9,1c-0.3-0.4-0.6-0.8-1-1.2c0.9-0.9,1.8-1.8,2.8-2.6c1.1-0.9,2.2-1.8,3.3-2.6c0.1-0.1,0.1-0.2,0-0.2
				c-0.1-0.1-0.2-0.1-0.2,0c-0.3,0.2-0.5,0.4-0.8,0.6c-0.3,0.2-0.6,0.5-1,0.7c-0.1,0.1-0.2,0.2-0.4,0.3c-0.4,0.3-0.8,0.7-1.2,1
				c-0.3,0.3-0.6,0.5-0.9,0.8c-0.6,0.6-1.3,1.3-1.9,1.9c-0.1-0.2-0.3-0.3-0.4-0.5c0.5-0.5,1-1,1.5-1.5c0.2-0.2,0.5-0.4,0.7-0.6
				c0.4-0.3,0.7-0.6,1.1-0.9c0.4-0.3,0.8-0.7,1.3-1c0.5-0.3,0.9-0.7,1.4-1.1c0,0,0,0,0,0c1,0.1,2,0.3,2.9,0.5c0.3,0.1,0.7,0.2,1,0.3
				c0.3,0.1,0.6,0.2,0.8,0.4c0.2,0.1,0.5,0.2,0.7,0.4c0.2,0.1,0.4,0.2,0.6,0.4l0.1,0.1l0.4,0.5c0.2,0.2,0.3,0.5,0.4,0.7
				c0.1,0.1,0.1,0.3,0.2,0.5c0.2,0.5,0.4,1.1,0.4,1.7c0,0.2,0.2,0.4,0.4,0.5c0,0,0.1,0,0.1,0c0.1,0,0.2-0.1,0.2-0.1c0,0,0,0.1,0,0.1
				c0,0,0,0.1,0,0.1c-0.3,0-0.6,0.1-0.9,0.2c-0.1,0.1-0.5,0.2-0.6,0.3c-0.4,0.3-0.9,0.6-1.3,1c-0.2,0.1-0.5,0.2-0.7,0.4
				c-0.8,0.7-1.2,1.8-1.4,2.8c-0.1,0.2-0.1,0.5-0.1,0.7c0,0.2-0.1,0.4-0.1,0.6c-0.1,0.8-0.2,1.5-0.3,2.3c-0.1,1.2-0.2,2.4-0.2,3.7
				c0,0.4,0,0.8,0,1.1c0,0,0,0,0,0c-0.1,0.2-0.2,0.3-0.3,0.5c-0.2,0.2-0.3,0.5-0.5,0.7c-0.5,0.6-1,1.3-1.5,1.9
				c-0.3,0.3-0.6,0.7-0.9,1c-0.4,0.4-0.7,0.8-1.1,1.2c-0.2,0.2-0.4,0.5-0.7,0.7c-0.3,0.3-0.5,0.5-0.8,0.8c-0.3,0.3-0.6,0.6-0.8,0.8
				c0,0,0,0.1,0,0.1c0,0,0.1,0,0.1,0c0.6-0.6,1.2-1.2,1.8-1.8c0.6-0.6,1.2-1.3,1.8-1.9c0.6-0.6,1.1-1.3,1.7-1.9
				c0.4-0.5,0.9-1.1,1.3-1.6c0,0.7,0,1.4-0.1,2.2c0,1.2-0.1,2.4-0.1,3.5c0,0.4,0,0.8,0,1.1c0,0.3,0,0.5,0,0.8c-0.1,0-0.1,0-0.2,0
				c-1.3,0.9-2.3,2-3.4,3.2c-0.2,0.2-0.4,0.4-0.6,0.7c-0.2,0.2-0.3,0.3-0.5,0.5c-0.1,0.1-0.1,0.2-0.2,0.2c-0.1,0.2-0.3,0.4-0.4,0.5
				c-0.2,0.2-0.3,0.4-0.5,0.7l0,0c0.1-0.1,0.2-0.2,0.3-0.3c0.1-0.1,0.2-0.2,0.4-0.4c0.2-0.2,0.3-0.4,0.5-0.6
				c0.1-0.1,0.3-0.3,0.4-0.4c0.3-0.3,0.6-0.6,0.9-1c0.7-0.8,1.4-1.4,2.2-2.1c0.3-0.2,0.6-0.5,0.9-0.7c0,0.1,0,0.3,0,0.4
				c0,0.7-0.1,1.4-0.2,2.2c-0.3,0.2-0.6,0.4-0.9,0.7c-0.8,0.7-1.6,1.4-2.4,2.2c-0.6,0.6-1.3,1.2-1.9,1.8c-0.1,0-0.1,0.1,0,0.2
				c0,0.1,0.1,0.1,0.2,0c0.6-0.5,1.2-1.1,1.8-1.6c0.8-0.7,1.7-1.4,2.5-2.1c0.2-0.2,0.4-0.3,0.6-0.5c0,0.2,0,0.4-0.1,0.7
				c0-0.1,0-0.1-0.1-0.2c0-0.1-0.1-0.1-0.2-0.1c-0.1,0-0.1,0.1-0.1,0.2c0,0.7,0,1.3,0,2c0,0.1,0,0.2,0,0.3c-0.1,0.6-0.2,1.1-0.4,1.7
				c0,0.2-0.1,0.4-0.2,0.5c0,0-0.1,0-0.1,0c-0.2,0-0.4,0.1-0.5,0.4c0,0.2,0,0.4-0.1,0.5c0,0.3-0.1,0.5-0.1,0.8c0,0.1,0,0.2-0.1,0.3
				c-0.1,0.1-0.3,0.2-0.4,0.3c-0.1,0.1-0.2,0.2-0.3,0.3c0,0-0.1,0.1,0,0.2c0,0,0.1,0.1,0.1,0c0,0.1-0.1,0.2-0.1,0.2
				c0,0.1-0.1,0.1-0.1,0.2c-0.1,0.1-0.1,0.3-0.1,0.4c0.1,0.1,0.3,0.1,0.4,0.1l0,0l-0.2,0.5l-0.2,0.5c-0.1,0.2-0.2,0.3-0.3,0.5
				c-0.6,0.9-1.4,1.5-2.3,2.1c-0.9,0.6-1.9,1.1-3,1.5c0.1-0.1,0.1-0.1,0.2-0.2c0.3-0.3,0.6-0.5,0.9-0.8c0.3-0.3,0.7-0.6,1-0.9
				c0.2-0.1,0.3-0.3,0.5-0.4c0.1-0.1,0.1-0.2,0-0.2c-0.1-0.1-0.2-0.1-0.2,0c-0.8,0.7-1.7,1.5-2.5,2.2c-0.2,0.2-0.3,0.3-0.5,0.5
				c-0.1,0-0.1,0.1-0.2,0.1c-0.7,0.2-1.3,0.4-2,0.7c-0.7,0.2-1.5,0.4-2.2,0.6C41.9,73,41.5,73,41,73.1c0.1-0.1,0.2-0.3,0.3-0.4
				c0.1-0.1,0.2-0.3,0.4-0.4c0.2-0.2,0.4-0.4,0.6-0.6c0.5-0.4,1-0.8,1.4-1.2c0.3-0.2,0.6-0.4,0.8-0.6c0.1-0.1,0.1-0.2,0-0.2
				c-0.1-0.1-0.2-0.1-0.2,0c-0.2,0.1-0.3,0.2-0.5,0.4c-0.5,0.3-0.9,0.7-1.3,1.1c-0.5,0.4-1.1,0.9-1.6,1.5c-0.1,0.2-0.3,0.4-0.4,0.6
				c-0.5,0.1-0.9,0.1-1.4,0.2c-0.1,0-0.2,0-0.3,0c0.3-0.3,0.7-0.6,1-0.9c0.4-0.4,0.8-0.7,1.2-1c0.2-0.1,0.4-0.3,0.6-0.4
				c0.1,0,0.1-0.2,0.1-0.2c0-0.1-0.2-0.1-0.2-0.1c-0.2,0.1-0.4,0.3-0.6,0.4c-0.4,0.3-0.8,0.7-1.2,1c-0.4,0.4-0.8,0.8-1.2,1.2
				c-0.1,0-0.3,0-0.4,0c-0.3,0-0.6,0-0.9,0c-0.2,0-0.5,0-0.7,0c-0.2,0-0.4,0-0.6-0.1c0,0-0.1,0-0.1,0c0.2-0.2,0.3-0.3,0.5-0.5
				c0.4-0.4,0.7-0.7,1.1-1.1c0.1-0.1,0.3-0.3,0.5-0.4c0.1-0.1,0.1-0.2,0-0.2C38.1,71,38,71,37.9,71c-0.2,0.1-0.3,0.2-0.5,0.4
				c-0.6,0.6-1.2,1.2-1.8,1.8c-0.4,0-0.8-0.2-1.2-0.3c0.2-0.1,0.3-0.2,0.5-0.2c0,0,0,0,0,0c0.2,0,0.4-0.1,0.6-0.1
				c0.2,0,0.3-0.2,0.3-0.4c0-0.2-0.2-0.3-0.4-0.3c-0.1,0-0.2,0-0.4,0.1c0.5-0.4,0.9-0.8,1.4-1.2c0.1-0.1,0.1-0.1,0-0.2
				c-0.1-0.1-0.1-0.1-0.2,0c-0.1,0.1-0.2,0.2-0.4,0.3c-0.2,0.2-0.4,0.4-0.7,0.6c-0.1,0.1-0.3,0.2-0.4,0.4c-0.1-0.1-0.3-0.1-0.4,0
				c-0.2,0.1-0.4,0.2-0.6,0.3c-0.1,0-0.1,0-0.2,0c0,0,0,0,0,0c0.1-0.1,0.2-0.2,0.3-0.2c0.1-0.1,0.1-0.1,0.2-0.2l0.1-0.3
				c0-0.1,0-0.2,0-0.3c0,0,0,0,0-0.1c0,0,0-0.1-0.1-0.1l-0.1,0c-0.1-0.1-0.3-0.1-0.4-0.1l-0.2,0.2l0,0l-0.1,0.1l-0.1,0c0,0,0,0,0,0
				c-0.1,0-0.2,0-0.2,0c-0.1,0-0.2-0.1-0.3-0.2c0.2-0.2,0.4-0.3,0.6-0.5c0.4-0.3,0.7-0.6,1.1-0.9c0.3-0.3,0.6-0.6,0.9-0.8
				c-0.1,0-0.3,0.1-0.4,0.2c-0.4,0.2-0.8,0.5-1.2,0.8c-0.4,0.3-0.8,0.6-1.2,1c0,0,0,0,0,0c-0.1,0-0.2,0-0.2,0.1c0,0.1,0,0.1,0,0.2
				c-0.1,0.1-0.2,0.2-0.3,0.3c-0.2,0.2-0.5,0.5-0.7,0.7c0,0-0.1,0.1-0.1,0.1c-0.2,0-0.4-0.1-0.6-0.1c-0.3,0-0.7-0.1-1-0.1
				c0,0,0,0-0.1,0c0.1-0.1,0.2-0.2,0.3-0.2c0.1,0,0.1-0.1,0.1-0.2c0-0.1-0.1-0.1-0.2-0.1c-0.3,0.1-0.4,0.2-0.6,0.4
				c-0.1,0-0.1,0-0.2,0c-0.4-0.1-0.8-0.2-1.2-0.3c-0.2,0-0.3-0.1-0.5-0.2c0.1-0.1,0.2-0.2,0.3-0.3c0.1-0.1,0-0.1,0-0.2
				c-0.1,0-0.1,0-0.2,0c-0.1,0.1-0.2,0.3-0.4,0.4c-0.2-0.1-0.4-0.1-0.5-0.2c-0.2-0.1-0.4-0.2-0.6-0.3c-0.1,0-0.1,0-0.2,0.1
				c0,0.1,0,0.1,0.1,0.2c0.3,0.2,0.7,0.3,1,0.5c0,0,0,0,0,0c-0.1,0.1-0.1,0.1-0.2,0.2c0,0-0.1,0-0.1,0c-0.3-0.2-0.7-0.4-1-0.6
				c0,0,0,0,0.1-0.1c0-0.1,0-0.1,0-0.2c-0.1,0-0.1,0-0.2,0c0,0,0,0.1-0.1,0.1c-0.1-0.1-0.1-0.1-0.2-0.2c0.2-0.2,0.4-0.5,0.6-0.7
				c0.5-0.6,1-1.2,1.6-1.6c0.1,0,0.1-0.1,0-0.2c0-0.1-0.1-0.1-0.2,0c-0.2,0.1-0.3,0.2-0.4,0.3c-0.7,0.6-1.3,1.3-1.8,2
				c-0.4-0.4-0.9-0.8-1.3-1.2c0,0,0,0,0,0c0.1-0.1,0.2-0.2,0.3-0.4c0.1-0.1,0.2-0.2,0.2-0.3c0,0,0.1-0.1,0.1-0.1
				c0.2-0.2,0.3-0.4,0.4-0.6c0-0.1,0-0.2-0.1-0.2c-0.1,0-0.2,0-0.2,0.1c0,0.1-0.1,0.1-0.1,0.2c0,0.1-0.1,0.1-0.1,0.2
				c-0.1,0.2-0.4,0.5-0.5,0.7c-0.1,0.1-0.2,0.2-0.3,0.3c-0.6-0.7-1.2-1.3-1.7-2.1c0.1-0.1,0.1-0.2,0.2-0.3c0.2-0.3,0.5-0.5,0.8-0.7
				c0.2-0.2,0.4-0.3,0.6-0.5c0.1-0.1,0-0.1,0-0.2c-0.1-0.1-0.1,0-0.2,0c-0.1,0.2-0.3,0.3-0.4,0.5c-0.4,0.3-0.8,0.6-1.1,1
				c0,0,0,0,0-0.1c-0.2-0.4-0.5-0.7-0.7-1.1c0.2-0.2,0.4-0.4,0.6-0.6c0.2-0.2,0.4-0.4,0.6-0.6c0.1-0.1,0.1-0.2,0-0.2
				c-0.1-0.1-0.2-0.1-0.2,0c-0.1,0.1-0.2,0.2-0.3,0.3c-0.2,0.2-0.4,0.4-0.6,0.6c-0.1,0.1-0.2,0.2-0.3,0.3c-0.2-0.3-0.3-0.6-0.5-0.8
				c-0.1-0.2-0.3-0.5-0.4-0.7c0.1-0.1,0.2-0.2,0.4-0.4c0.3-0.3,0.6-0.6,0.9-0.8c0.1-0.1,0.2-0.2,0.3-0.3c0.1-0.1,0-0.1,0-0.2
				c-0.1,0-0.1,0-0.2,0c-0.4,0.5-0.9,1-1.4,1.4c-0.2-0.4-0.4-0.9-0.6-1.3c0.5-0.6,1-1.2,1.7-1.7c0.1,0,0.1-0.1,0-0.2
				c0-0.1-0.1-0.1-0.2,0c-0.1,0.1-0.2,0.1-0.3,0.2c-0.2,0.2-0.5,0.4-0.7,0.7c-0.2,0.3-0.4,0.5-0.7,0.8c-0.2-0.4-0.3-0.9-0.4-1.3
				c-0.1-0.4-0.2-0.8-0.3-1.1c0.2-0.2,0.4-0.3,0.6-0.5c0.1-0.1,0.3-0.2,0.5-0.4c0.1-0.1,0.2-0.1,0.2-0.2c0,0,0.1-0.1,0-0.2
				s-0.1-0.1-0.2,0c-0.2,0.2-0.4,0.4-0.7,0.5c0-0.1,0-0.1,0-0.2c0-0.3,0-0.7,0-1c0-0.2,0-0.5,0-0.7c0-0.6,0-1.1,0-1.7
				c0-1.5,0-3,0-4.5c0-0.8,0-1.6,0-2.4c0-0.3,0-0.6,0-0.9c0-0.7,0-1.4,0-2c-0.1-1.9-0.2-3.7-0.5-5.6c-0.1-0.8-0.3-1.5-0.4-2.3
				c-0.1-0.4-0.2-0.8-0.3-1.1c0-0.1,0-0.2-0.1-0.2c0,0,0-0.1,0-0.1c0-0.2,0-0.4-0.1-0.6c0-0.3-0.2-0.8-0.3-1.1
				c-0.1-0.2-0.1-0.3-0.2-0.5c-0.1-0.2-0.2-0.3-0.3-0.5c-0.1-0.1-0.2-0.3-0.3-0.4c-0.1-0.2-0.3-0.3-0.4-0.4
				c-0.1-0.2-0.2-0.4-0.3-0.6c-0.4-0.6-0.9-1.1-1.6-1.4c-0.1,0-0.1-0.1-0.1-0.1c-0.2-0.2-0.5-0.4-0.8-0.5c0.1-0.2,0.2-0.3,0.3-0.5
				c0.1-0.1,0.2-0.2,0.3-0.3c0.4-0.3,0.8-0.6,1.3-0.9c0.2-0.1,0.3-0.2,0.5-0.3c0.1-0.1,0.3-0.2,0.4-0.2c0.3-0.2,0.6-0.3,1-0.5
				c0.4-0.2,0.8-0.3,1.2-0.5c0.2-0.1,0.3-0.1,0.5-0.2c0.6-0.2,1.2-0.3,1.8-0.4c0.4-0.1,0.8-0.1,1.2-0.2c0.1,0,0.2,0,0.3,0.1
				c0.4,0.1,0.7,0.2,1.1,0.3c0.4,0.1,0.7,0.3,1.1,0.4c0.5,0.2,1,0.5,1.5,0.8c-0.4,0.3-0.8,0.6-1.2,0.9c-0.2,0.1-0.3,0.3-0.5,0.4
				c-0.1,0.1-0.2,0.1-0.3,0.1c-0.1,0.1-0.2,0.1-0.3,0.1c0,0-0.1,0.1-0.1,0.1c0,0,0.1,0.1,0.1,0.1c0,0,0.1,0,0.1,0c0,0,0.1,0,0.2-0.1
				c0.2-0.1,0.4-0.2,0.5-0.3c0.5-0.4,1-0.8,1.5-1.2c0,0,0,0,0,0c0.3,0.2,0.6,0.4,0.9,0.7c-0.9,0.5-1.8,1.1-2.6,1.7
				c-0.2,0.1-0.3,0.2-0.5,0.3c-0.1,0.1-0.2,0.1-0.3,0.2l0,0.1c0.2-0.1,0.4-0.2,0.6-0.4c0.3-0.2,0.7-0.4,1-0.6
				c0.4-0.2,0.7-0.5,1.1-0.7c0.2-0.1,0.4-0.3,0.7-0.4c0.1,0.1,0.2,0.1,0.3,0.2c0.1,0.1,0.2,0.2,0.4,0.3c0,0,0.1,0.1,0.1,0.1
				c-0.2,0.2-0.5,0.3-0.7,0.5c-0.9,0.6-1.7,1.3-2.6,1.9c-0.4,0.3-0.8,0.6-1.2,0.8c-0.1,0.1-0.2,0.1-0.4,0.2
				c-0.1,0.1-0.3,0.1-0.4,0.2l0,0.1c0.2-0.1,0.3-0.1,0.5-0.2c0.1-0.1,0.3-0.1,0.4-0.2c0.3-0.2,0.6-0.3,0.8-0.5
				c1.3-0.8,2.4-1.8,3.7-2.6c0.3,0.2,0.5,0.5,0.8,0.8c-0.4,0.2-0.7,0.4-1.1,0.6c-0.5,0.3-1.1,0.7-1.6,1.1c-1.4,0.9-2.7,2-4,3l0,0
				c1.1-0.9,2.3-1.8,3.5-2.6c0.5-0.4,1.1-0.7,1.6-1c0.5-0.3,1.1-0.7,1.7-0.9c0,0,0,0,0,0c0.1,0.1,0.1,0.1,0.2,0.1
				c-0.2,0.2-0.3,0.5-0.5,0.7c-0.2,0.4-0.5,0.8-0.7,1.3c0,0.1-0.1,0.1-0.1,0.2c-0.1,0.2-0.3,0.4-0.4,0.6c-1.1,0.6-2.1,1.4-3.1,2.1
				c-0.5,0.4-1,0.7-1.4,1.1c-0.5,0.3-0.9,0.6-1.4,0.9l0,0.1c0.2-0.1,0.3-0.2,0.5-0.3c0.8-0.5,1.6-1.1,2.4-1.6
				c0.9-0.7,1.9-1.3,2.8-1.9c0,0.1-0.1,0.2-0.1,0.2c0,0.1,0,0.1,0,0.2c0.1,0,0.1,0,0.2,0c0,0,0.1-0.1,0.1-0.1
				c-0.1,0.2-0.1,0.3-0.2,0.5c0,0.1,0,0.1,0.1,0.2c0.1,0,0.1,0,0.2-0.1c0.1-0.4,0.3-0.8,0.5-1.2c0.2-0.1,0.3-0.2,0.5-0.2
				c0,0,0.1-0.1,0-0.1c0,0-0.1-0.1-0.1,0c-0.1,0-0.2,0.1-0.3,0.1c0-0.1,0.1-0.2,0.1-0.2c0.5-0.6,1-1.2,1.5-1.7c0,0,0,0,0,0l0.1,0
				c0.1,0,0.2,0.1,0.2,0.1c0.1,0,0.2-0.1,0.3-0.1l0,0c0.1,0,0.2-0.1,0.3-0.3c0-0.1,0-0.2,0-0.3c0.2-0.1,0.5-0.3,0.7-0.4
				c0.5-0.3,1.1-0.5,1.7-0.8c0.2-0.1,0.4-0.2,0.5-0.3c0.1,0,0.1-0.1,0.2-0.2c0.1,0,0.2-0.1,0.2-0.2c0.2-0.2,0.4-0.3,0.5-0.5
				c0.2-0.2,0.1-0.5-0.1-0.5c-0.2-0.1-0.4,0.1-0.6,0.1c-0.6,0.2-1.2,0.6-1.7,0.9c-0.4,0.3-0.9,0.6-1.3,0.9c0-0.1,0-0.1,0-0.2
				c0-0.1,0-0.2,0-0.3c0,0,0,0,0-0.1c0.2-0.2,0.3-0.3,0.5-0.5c0,0,0.1,0.1,0.1,0.1c0,0,0.1,0,0.1,0c0,0,0-0.1,0-0.1
				c0,0-0.1-0.1-0.1-0.1c0.2-0.2,0.4-0.3,0.6-0.5c0.3-0.2,0.6-0.5,0.9-0.6c0,0,0.1-0.1,0-0.1c0,0-0.1-0.1-0.1,0
				c-0.2,0.1-0.3,0.1-0.5,0.2c-0.2,0.1-0.3,0.2-0.5,0.3c-0.1,0.1-0.2,0.2-0.4,0.3c-0.1,0.1-0.2,0.1-0.2,0.2c0,0,0,0,0,0
				c0-0.1-0.1-0.1-0.1-0.2c-0.1-0.2-0.3-0.4-0.4-0.5c0,0,0,0,0,0c0-0.2-0.2-0.4-0.3-0.4c0,0-0.1-0.1-0.1-0.1l0-0.1l0-0.2l0-0.1
				c0,0,0,0,0,0c0,0,0,0,0,0c0.1-0.1,0-0.3,0-0.4v0c0,0,0,0,0-0.1c0.4,0.4,0.8,0.7,1.2,1.1c0,0,0.1,0,0.1,0s0-0.1,0-0.1
				c-0.1-0.1-0.2-0.2-0.3-0.4c-0.1-0.1-0.2-0.2-0.2-0.3c-0.1-0.1-0.2-0.2-0.3-0.3c-0.3-0.3-0.6-0.5-0.9-0.7c-0.9-0.8-2-1.5-3-2.1
				c-0.4-0.2-0.8-0.5-1.2-0.7c-0.1-0.1-0.3-0.2-0.4-0.3c-0.6-0.5-1.2-0.9-1.9-1.3c0.2,0,0.3,0,0.5,0c0.9,0.1,1.9,0.1,2.8,0.2
				c-0.2-0.1-0.4-0.1-0.6-0.1c-0.4-0.1-0.7-0.1-1.1-0.2c-0.8-0.1-1.5-0.2-2.3-0.3c-0.3-0.2-0.6-0.4-0.9-0.5c-1.4-0.8-2.9-1.4-4.5-2
				c-0.3-0.1-0.6-0.2-1-0.3c-0.5-0.3-1-0.5-1.4-0.7c-0.4-0.2-0.9-0.4-1.3-0.6c-0.4-0.2-0.7-0.3-1.1-0.4c-0.2-0.4-0.3-0.9-0.5-1.3
				l0-0.1c0.1-0.1,0.1-0.3-0.1-0.4l-0.1-0.1l-0.3-0.8c-0.5-1.4-0.9-2.8-1.3-4.3c0.5-0.7,1.1-1.3,1.7-2C12.6,5.8,13,5.4,13.4,5
				c0.3-0.3,0.6-0.6,0.9-0.9c0.9-0.8,1.7-1.6,2.6-2.4h1.8C18.6,1.8,18.4,2,18.3,2.1z M30.3,2c-0.5,0.3-0.9,0.6-1.4,1
				c-0.7,0.5-1.3,1.1-1.9,1.7c-0.9,0.8-1.7,1.7-2.5,2.6l0,0c0.5-0.5,1-1.1,1.6-1.6C27.4,4.3,29,3,30.7,2c0,0,0.1-0.1,0-0.1
				c0,0-0.1-0.1-0.1,0C30.5,1.8,30.4,1.9,30.3,2z M29.2,4.6c-0.5,0.5-1,1-1.5,1.5c-0.2,0.3-0.5,0.5-0.7,0.8c0,0,0,0.1,0,0.1
				c0,0,0.1,0,0.1,0c0.4-0.5,0.8-1,1.2-1.4c0.2-0.2,0.3-0.3,0.5-0.5c0.3-0.3,0.6-0.6,0.9-0.8c0.4-0.3,0.7-0.6,1.1-0.9
				c0.2-0.2,0.5-0.4,0.8-0.6c0.3-0.2,0.6-0.4,0.8-0.5c0,0,0.1-0.1,0-0.1c0,0-0.1-0.1-0.1,0C31.3,2.8,30.2,3.7,29.2,4.6z M14.4,16.9
				C14.4,16.9,14.4,16.9,14.4,16.9c0.5,0.3,0.9,0.7,1.4,1c0.3,0.2,0.6,0.4,1,0.6c-0.2-0.1-0.4-0.2-0.5-0.3c-0.1-0.1-0.3-0.1-0.4-0.2
				c-0.2-0.1-0.5-0.3-0.7-0.4c-0.2-0.1-0.5-0.3-0.7-0.5c-0.1,0-0.1-0.1-0.2-0.1c-0.2-0.1-0.3-0.2-0.5-0.4
				C13.9,16.7,14.1,16.8,14.4,16.9z M48.8,18.5c-0.3,0.2-0.6,0.4-0.9,0.6c-1,0.7-2,1.5-3,2.3c-0.7,0.5-1.4,1.1-2,1.7
				c-0.6,0.5-1.2,1-1.7,1.5c-0.4,0.3-0.8,0.7-1.1,1c-0.3,0.3-0.7,0.6-1,0.9c-0.2,0.2-0.5,0.5-0.7,0.7c-0.2,0.2-0.3,0.3-0.5,0.5
				c0,0,0,0.1,0,0.1c0,0,0.1,0,0.1,0c0.4-0.4,0.7-0.7,1.1-1c0.5-0.5,1.1-1,1.6-1.5c1.4-1.2,2.8-2.3,4.2-3.4c0.4-0.3,0.9-0.7,1.3-1
				c0.8-0.6,1.5-1.1,2.3-1.7c0.2-0.1,0.4-0.3,0.6-0.4c0.3-0.2,0.6-0.4,0.9-0.6c0.1-0.1,0.1-0.2,0-0.2c-0.1-0.1-0.2-0.1-0.2,0
				C49.4,18.1,49.1,18.3,48.8,18.5z M46,18.7c-0.2,0.2-0.5,0.4-0.8,0.6c-0.7,0.6-1.5,1.1-2.2,1.7c-2.2,1.7-4.4,3.3-6.4,5.3
				c0,0,0,0.1,0,0.1c0,0,0.1,0,0.1,0c0.2-0.2,0.4-0.4,0.6-0.6c0.4-0.4,0.8-0.7,1.2-1.1c0.9-0.7,1.8-1.4,2.7-2.1
				c0.8-0.6,1.7-1.3,2.6-1.9c0.7-0.6,1.5-1.1,2.2-1.7c0.2-0.2,0.4-0.3,0.6-0.5c0.1-0.1,0.1-0.2,0-0.2c-0.1-0.1-0.2-0.1-0.2,0
				C46.3,18.5,46.2,18.6,46,18.7z M40.8,21.2c-1.4,1-2.9,1.9-4.4,3c-0.5,0.4-1,0.7-1.5,1.1c0,0,0,0.1,0,0.1c0,0,0.1,0,0.1,0
				c1.5-1.2,3.1-2.1,4.7-3.2c0.8-0.5,1.5-1,2.2-1.6c0.2-0.1,0.3-0.3,0.5-0.4c0.2-0.1,0.3-0.3,0.5-0.4c0,0,0-0.1,0-0.2
				c0,0-0.1,0-0.2,0C42.1,20.2,41.5,20.7,40.8,21.2z M37.4,22c-0.5,0.2-0.9,0.5-1.4,0.8c-0.7,0.4-1.4,0.9-2.1,1.5
				c-0.3,0.2-0.6,0.5-0.9,0.8l0,0.1l0.1,0c0.2-0.2,0.5-0.5,0.8-0.7c0.6-0.5,1.3-1,2-1.4c0.8-0.5,1.7-0.9,2.5-1.3
				c0.3-0.1,0.5-0.3,0.8-0.4c0,0,0.1-0.1,0-0.1c0,0-0.1-0.1-0.1,0C38.5,21.4,38,21.7,37.4,22z M48.9,22.5c0.1,0,0.2-0.1,0.3-0.1
				c0.2-0.1,0.3-0.2,0.5-0.3C49.4,22.2,49.2,22.3,48.9,22.5z M28,23.4c0.5,0.3,1,0.7,1.5,1.1c0.2,0.2,0.4,0.4,0.7,0.5
				c0,0-0.1,0-0.1,0c-0.2-0.1-0.3-0.2-0.5-0.3c-0.2-0.1-0.4-0.3-0.6-0.4c-0.1-0.1-0.2-0.2-0.4-0.2c0,0,0,0,0,0
				c-0.5-0.4-0.9-0.9-1.4-1.3C27.4,23,27.7,23.2,28,23.4z M47.2,24.6C47.2,24.6,47.1,24.6,47.2,24.6c0,0,0.1-0.1,0.2-0.1
				C47.3,24.5,47.2,24.6,47.2,24.6z M46.7,24.9c-0.3,0.2-0.5,0.4-0.7,0.6c0,0,0,0,0,0c0,0,0-0.1,0-0.1c0.1-0.1,0.3-0.2,0.4-0.3
				c0.2-0.1,0.4-0.2,0.6-0.3C46.9,24.8,46.8,24.8,46.7,24.9z M17,26.4C16.9,26.4,16.9,26.4,17,26.4c-0.4,0.1-0.1,0,0.1-0.1
				C17.1,26.3,17,26.4,17,26.4z M26.6,26.7c0.2,0.1,0.5,0.3,0.7,0.4c0.2,0.2,0.5,0.3,0.7,0.5c0,0,0,0,0,0c-0.1,0-0.1,0-0.2,0.1
				c-0.5-0.4-1.1-0.9-1.7-1.2c-0.1,0-0.1-0.1-0.2-0.1C26.2,26.4,26.4,26.5,26.6,26.7z M46,26.8l0,0.2c-0.2,0-0.3,0.2-0.3,0.3
				l0.2,0.1c0,0-0.1,0.1-0.1,0.1c-0.1,0.1-0.3,0.1-0.4,0.2c0-0.4,0-0.7,0.2-1.1c0,0,0,0,0,0c0,0,0,0,0,0c0,0.1,0,0.2,0,0.2
				c0,0.1,0,0.1,0.1,0.1c0.1,0,0.1,0,0.1-0.1c0-0.1,0-0.3,0.1-0.4c0.1-0.1,0.1-0.1,0.2-0.2C46,26.5,46,26.7,46,26.8z M52.7,26.9
				c-0.3,0.2-0.6,0.4-0.9,0.7c-0.5,0.4-0.9,0.7-1.4,1.1c-0.6,0.5-1.1,1-1.7,1.4c-0.6,0.6-1.2,1.2-1.8,1.8c0,0,0,0,0,0
				c-0.2-0.3-0.5-0.6-0.7-0.9c0.8-0.8,1.7-1.5,2.5-2.1c0.6-0.5,1.3-1,1.9-1.5c0.2-0.1,0.3-0.2,0.5-0.4c0.2-0.1,0.4-0.1,0.5-0.1
				C52.1,26.8,52.4,26.8,52.7,26.9z M48.7,27.3c-0.7,0.5-1.5,1.3-1.9,2c-0.1,0.1,0,0.2,0,0.3c0.1,0.1,0.2,0,0.3,0
				c0.1-0.1,0.2-0.2,0.2-0.3c0.4-0.4,0.7-0.8,1.2-1c0.1-0.1,0.3-0.2,0.5-0.3c0.1,0,0.2-0.1,0.3-0.2c0.1-0.1,0.2-0.1,0.4-0.2
				c0.3-0.1,0.5-0.2,0.8-0.3c-0.6,0.5-1.1,0.9-1.7,1.4c-0.6,0.5-1.2,1-1.8,1.5c-0.2,0.2-0.5,0.4-0.7,0.6c0,0-0.1,0.1-0.1,0.1
				c-0.1-0.1-0.2-0.2-0.3-0.4c0,0,0,0,0.1,0c0.1-0.1,0.1-0.3,0-0.5l0,0c0,0,0-0.1,0-0.1c0-0.1,0-0.1,0-0.2c0,0,0,0,0-0.1
				c0.1,0,0.1,0,0.1-0.1c0.1,0.1,0.1,0.1,0.2,0.1c0.1,0,0.2,0,0.2-0.1c0,0.1,0,0.1,0,0.2c0,0.1,0,0.1,0.1,0.1
				c-0.2,0.2-0.3,0.4-0.4,0.7c0,0,0,0,0,0c0,0,0,0,0,0c0.1-0.4,0.3-0.7,0.7-0.9c0,0,0,0,0-0.1c0,0,0,0,0,0c0,0-0.1,0-0.1,0
				c0,0,0,0,0,0c0-0.3-0.1-0.7-0.1-1c0,0,0-0.1,0-0.1c0,0,0-0.1,0-0.1c0.1-0.2,0.2-0.3,0.4-0.4c0.2-0.2,0.4-0.4,0.6-0.6l0.2-0.2
				l0.1,0c0.4-0.1,0.8-0.2,1.2-0.2C49,27.1,48.9,27.2,48.7,27.3z M31,27.7c0,0.1,0.1,0.1,0.1,0.1C31,27.9,31,28,30.9,28.1
				c0-0.2,0-0.3,0-0.5C30.9,27.6,31,27.7,31,27.7z M28.7,28.3C28.7,28.3,28.7,28.3,28.7,28.3c-0.1,0-0.2,0-0.2,0
				c-0.1-0.1-0.3-0.2-0.4-0.3c0,0-0.1-0.1-0.1-0.1c0,0,0.1,0,0.1,0c0,0,0,0,0,0C28.4,27.9,28.6,28.1,28.7,28.3z M45.6,28.3
				c-0.1,0.1-0.1,0.2-0.2,0.4c0,0.1-0.1,0.1-0.1,0.2c0,0,0,0,0,0c0-0.1,0-0.3,0-0.4C45.4,28.3,45.5,28.3,45.6,28.3
				C45.6,28.2,45.6,28.2,45.6,28.3z M28.9,28.5c0.1,0.1,0.2,0.2,0.3,0.4c-0.1-0.1-0.1-0.1-0.2-0.2c-0.1-0.1-0.2-0.2-0.3-0.3
				C28.8,28.5,28.8,28.5,28.9,28.5C28.9,28.5,28.9,28.5,28.9,28.5z M44.8,29.3C44.8,29.3,44.8,29.4,44.8,29.3c0,0.1,0,0.1,0,0.1
				C44.8,29.4,44.8,29.4,44.8,29.3c-0.2-0.1-0.4-0.2-0.6-0.3c0.2-0.1,0.4-0.3,0.6-0.4C44.8,28.9,44.8,29.1,44.8,29.3z M29.6,29.3
				C29.6,29.3,29.6,29.3,29.6,29.3C29.6,29.3,29.6,29.3,29.6,29.3C29.6,29.3,29.6,29.3,29.6,29.3z M45.1,29.6c0,0,0.1,0,0.1,0
				c0,0,0,0,0,0c0,0.1,0,0.2,0,0.2c0,0,0,0,0,0c-0.1-0.1-0.2-0.1-0.2-0.2c0,0,0,0,0,0C45,29.6,45.1,29.6,45.1,29.6z M13.5,30.2
				c-0.1,0-0.1,0-0.2,0c0,0,0,0-0.1,0l0-0.1C13.4,30.1,13.4,30.2,13.5,30.2z M29.6,30.3C29.6,30.3,29.6,30.3,29.6,30.3
				c-0.2,0.1-0.3,0.3-0.5,0.5c0.2-0.2,0.3-0.5,0.5-0.7C29.6,30.1,29.6,30.2,29.6,30.3z M61.8,34.1l0,0.8l-0.2-0.1
				c-0.2-0.2-0.4-0.3-0.6-0.4c-0.1-0.1-0.3-0.1-0.4-0.2c0.1,0,0.1-0.1,0.2-0.1c0.1-0.1,0.3-0.2,0.4-0.2c0.2-0.1,0.4-0.1,0.6-0.1
				C61.8,33.9,61.8,34,61.8,34.1z M26.1,35.3c-0.2,0.2-0.5,0.4-0.7,0.6c-1.1,0.9-2,1.9-3.4,2.5l0,0.1c0.3-0.1,0.5-0.2,0.8-0.4
				c0.2-0.1,0.3-0.2,0.5-0.3c0.4-0.2,0.8-0.6,1.1-0.9c0.2-0.2,0.5-0.4,0.7-0.6c0.7-0.6,1.4-1.2,2.1-1.6c0.2-0.1,0.4-0.2,0.6-0.3
				c0,0,0.1-0.1,0.1-0.1s-0.1-0.1-0.1-0.1C27.3,34.4,26.7,34.9,26.1,35.3z M60.8,35.4L60.8,35.4C60.8,35.5,60.8,35.5,60.8,35.4
				C60.8,35.4,60.8,35.4,60.8,35.4z M49.5,36.2c0,0.1,0,0.2,0.1,0.2c0,0,0,0-0.1,0.1c-0.1-0.3-0.2-0.7-0.4-1
				C49.3,35.8,49.4,36,49.5,36.2z M28.9,36.7L28.9,36.7c0.3-0.1,0.5-0.3,0.8-0.4c0,0,0,0,0-0.1c0,0,0,0-0.1,0
				C29.4,36.3,29.1,36.5,28.9,36.7z M27.1,36.7c-1.2,0.7-2.1,1.7-3,2.6c-0.5,0.4-0.9,0.9-1.4,1.3c-0.2,0.1-0.4,0.3-0.5,0.4
				c-0.1,0.1-0.3,0.2-0.4,0.2c-0.1,0.1-0.3,0.2-0.5,0.2l0,0l0,0c0.3-0.1,0.6-0.3,0.9-0.5c0.7-0.4,1.4-1,2-1.6c0.3-0.3,0.6-0.6,1-0.9
				c0.8-0.7,1.7-1.5,2.6-2c0.1,0,0.1-0.1,0-0.1c0-0.1-0.1-0.1-0.1,0C27.4,36.5,27.3,36.6,27.1,36.7z M49.9,37.6
				c0.1,0.2,0.1,0.5,0.2,0.7c-0.1,0-0.1,0.1-0.2,0.1c-0.1-0.6-0.2-1.1-0.3-1.7c0-0.1,0-0.2-0.1-0.2c0,0,0,0,0.1,0
				C49.7,36.9,49.8,37.3,49.9,37.6z M24.3,41.6c-0.5,0.5-1,1-1.5,1.4c-0.3,0.2-0.5,0.4-0.8,0.7c-0.1,0.1-0.2,0.2-0.3,0.2
				c-0.1,0.1-0.3,0.2-0.4,0.2c-0.1,0.1-0.3,0.1-0.5,0.2l0,0.1c0.3-0.2,0.7-0.3,1-0.5c0.4-0.3,0.9-0.6,1.2-0.9
				c0.1-0.1,0.2-0.2,0.3-0.2c0.2-0.2,0.4-0.3,0.6-0.5c0.8-0.8,1.7-1.7,2.6-2.3c0.2-0.2,0.5-0.3,0.7-0.5c0.1,0,0.1-0.1,0-0.2
				c0-0.1-0.1-0.1-0.2,0C26,39.9,25.1,40.8,24.3,41.6z M25.5,42.9c-0.1,0.1-0.3,0.2-0.4,0.4c-0.5,0.5-1,1-1.6,1.4
				c-0.2,0.2-0.5,0.3-0.7,0.5c-0.1,0-0.2,0.1-0.2,0.1l0,0.1l0.1,0c0.3-0.2,0.7-0.3,0.9-0.6c0.3-0.2,0.5-0.4,0.8-0.6
				c0.3-0.3,0.7-0.6,1.1-0.9c0.2-0.2,0.5-0.4,0.8-0.5c0.1,0,0.1-0.1,0-0.2c0-0.1-0.1-0.1-0.2,0C25.8,42.6,25.6,42.8,25.5,42.9z
				 M17.9,47.4c0,1,0,2,0,2.9c0,0.6,0,1.1,0,1.7c0,0.6-0.1,1.3-0.1,1.9c0,0.4,0,0.8-0.1,1.2c0,0.2,0,0.5,0,0.7
				c0,0.6-0.1,1.2-0.1,1.8c0,0.8,0.1,1.5,0.3,2.3c0,0,0,0,0,0.1c0,0-0.1,0.1-0.1,0.1c0-0.1,0-0.3-0.1-0.4c-0.2-1.9-0.4-3.7-0.4-5.6
				c0-0.7,0-1.4,0-2.1c0-0.8,0-1.5,0.1-2.3c0-0.7,0.1-1.3,0.1-2c0-0.2,0-0.5,0-0.7c0.1-0.8,0.1-1.5,0.2-2.3c0-0.4,0.1-0.9,0.1-1.3
				C17.8,44.7,17.8,46,17.9,47.4z M52.1,47C52.1,47,52.1,47,52.1,47C52.1,47.1,52.1,47.1,52.1,47c0.8-0.5,1.5-1,2.2-1.5
				c0.4-0.3,0.8-0.6,1.2-0.8c0,0,0.1-0.1,0-0.1s-0.1-0.1-0.1,0C54.3,45.3,53.2,46.1,52.1,47z M24.4,46.1c-0.2,0.2-0.4,0.3-0.6,0.5
				c-0.1,0.1-0.2,0.1-0.3,0.2l0,0.1c0.2-0.1,0.4-0.3,0.6-0.4c0.3-0.2,0.6-0.4,0.9-0.7c0.1-0.1,0.3-0.2,0.4-0.3
				c0.1-0.1,0.4-0.3,0.5-0.3c0.1,0,0.1-0.1,0.1-0.2c0-0.1-0.1-0.1-0.2-0.1C25.3,45.3,24.9,45.7,24.4,46.1z M24.4,49.4
				c-0.1,0.1-0.1,0.3-0.3,0.4C24,49.9,24,49.9,23.9,50c0,0-0.1,0-0.1,0.1c0,0,0,0-0.1,0c-0.2,0-0.2,0-0.4,0l0,0.1c0.1,0,0.3,0,0.4,0
				c0.4-0.1,0.6-0.3,0.9-0.6c0.1-0.2,0.4-0.6,0.6-0.7c0,0,0.1-0.1,0-0.2c0,0-0.1-0.1-0.2,0C24.7,48.8,24.5,49.2,24.4,49.4z
				 M51.4,50.8c0,0-0.1,0.1,0,0.1c0,0,0.1,0.1,0.1,0c0.2-0.1,0.5-0.2,0.7-0.3c0,0,0.1-0.1,0-0.1c0,0-0.1-0.1-0.1,0
				C51.9,50.6,51.6,50.7,51.4,50.8z M55.3,51c-0.2,0.2-0.3,0.4-0.5,0.5c-0.4,0.4-0.8,0.8-1.2,1.2c-0.2,0.1-0.4,0.2-0.5,0.3
				c-0.1,0.1-0.3,0.1-0.4,0.1c0,0-0.1,0-0.2,0c-0.1,0-0.1,0.1-0.1,0.1c0,0.1,0.1,0.1,0.1,0.1c0.1,0,0.1,0,0.2,0c0,0,0.1,0,0.1,0
				c0.1,0,0.1,0,0.2-0.1c-0.7,0.7-1.4,1.4-1.8,2.3c0,0.1,0,0.1,0,0.2c0.1,0,0.1,0,0.2,0c0.5-1,1.4-1.8,2.2-2.6c0,0,0.1-0.1,0.1-0.1
				c0,0,0,0,0.1,0c0,0,0.1-0.1,0.1-0.1c0.4-0.4,0.8-0.8,1.2-1.1c0.2-0.2,0.3-0.4,0.5-0.5c0-0.1,0-0.1,0-0.2C55.4,51,55.3,51,55.3,51
				z M18.6,58.6c0,0.2,0.2,0.3,0.4,0.3c0,0,0,0,0.1,0c-0.1,0.1-0.2,0.2-0.4,0.3c-0.1-0.4-0.1-0.7-0.1-1c0,0,0-0.1,0-0.1
				C18.5,58.3,18.5,58.5,18.6,58.6z M18.7,62.7c-0.1,0.1-0.2,0.2-0.3,0.3c0-0.1-0.1-0.2-0.1-0.3c-0.1-0.6-0.3-1.1-0.4-1.7
				c0-0.2-0.1-0.5-0.1-0.7c0,0,0.1-0.1,0.1-0.1C18.1,61,18.4,61.9,18.7,62.7z M53.3,62.8c-0.3,0.3-0.7,0.6-1,0.9
				c-0.2,0.2-0.5,0.4-0.8,0.6c-0.1,0.1-0.2,0.1-0.4,0.2c0,0-0.1,0.1,0,0.1c0,0,0.1,0.1,0.1,0c0.1,0,0.1-0.1,0.2-0.1
				c0.1,0,0.1-0.1,0.2-0.1c0.3-0.1,0.7-0.4,0.9-0.6c0.3-0.3,0.7-0.6,1.1-0.9c0.3-0.3,0.6-0.5,1-0.7c0.1,0,0.1-0.1,0.1-0.2
				c0-0.1-0.1-0.1-0.2-0.1C54,62.2,53.6,62.5,53.3,62.8z M19.2,63.9c0,0.1,0.1,0.2,0.1,0.2c-0.2,0.2-0.3,0.4-0.4,0.6
				c-0.2-0.5-0.4-1-0.5-1.5c0,0,0.1,0,0.1,0c0.1-0.1,0.2-0.2,0.3-0.3C18.9,63.3,19.1,63.6,19.2,63.9z M19.8,65
				c0.2,0.3,0.3,0.6,0.5,0.9c-0.1,0.2-0.3,0.3-0.4,0.5c0,0.1,0,0.1,0,0.2c0.1,0,0.1,0,0.2,0c0.1-0.1,0.2-0.3,0.3-0.4
				c0,0.1,0.1,0.1,0.1,0.2c0.1,0.2,0.3,0.4,0.4,0.6c0.2,0.3,0.4,0.6,0.7,0.9l0.6,0.8l0.1,0.1c-0.3-0.1-0.5-0.2-0.8-0.4
				c-0.1-0.1-0.3-0.2-0.4-0.3c0-0.1,0-0.1-0.1-0.2c-0.1,0-0.1,0-0.2,0c0,0-0.1-0.1-0.1-0.1c-0.3-0.3-0.6-0.7-0.9-1
				c-0.2-0.3-0.4-0.6-0.5-0.9c-0.1-0.3-0.3-0.6-0.4-0.8c0,0,0.1,0,0.1-0.1c0.1-0.2,0.2-0.4,0.3-0.5C19.6,64.6,19.7,64.8,19.8,65z
				 M54.4,66c-0.1,0.2-0.1,0.3-0.1,0.3C54.3,66.2,54.3,66.1,54.4,66c0-0.2,0.1-0.4,0.1-0.6c0.1-0.1,0.1-0.2,0.2-0.3
				C54.6,65.5,54.5,65.8,54.4,66z M52.7,65.6c-0.3,0.3-0.5,0.5-0.8,0.8c-0.3,0.2-0.5,0.5-0.8,0.7c-0.2,0.2-0.4,0.3-0.7,0.4
				c-0.1,0-0.1,0.1-0.1,0.2c0,0.1,0.1,0.1,0.2,0.1c0.1-0.1,0.2-0.1,0.4-0.2c0.2-0.1,0.4-0.3,0.6-0.4c0.2-0.1,0.4-0.3,0.5-0.5
				c0.3-0.3,0.6-0.6,0.9-0.9c0.1-0.1,0.1-0.2,0-0.3C52.8,65.5,52.7,65.5,52.7,65.6z M29.7,68.6c-0.3,0.4-0.8,0.7-1.1,1.1
				c-0.1,0.1-0.2,0.2-0.3,0.4c-0.2,0.3-0.4,0.6-0.6,1c0,0.1,0,0.2,0.1,0.2c0.1,0,0.2,0,0.2-0.1c0.2-0.4,0.5-0.9,0.9-1.2
				c0.1-0.1,0.3-0.3,0.4-0.4c0.1-0.1,0.2-0.2,0.3-0.3c0.1-0.1,0.1-0.1,0.2-0.2c0.1-0.1,0.2-0.2,0.2-0.2c0.1-0.1,0.1-0.2,0-0.2
				C29.9,68.5,29.8,68.5,29.7,68.6z M45.3,70.1c-0.7,0.6-1.4,1.3-1.9,2.2c0,0.1,0,0.2,0,0.2c0.1,0,0.2,0,0.2,0
				c0.3-0.5,0.7-1,1.1-1.4c0.1-0.1,0.2-0.2,0.4-0.3c0.6-0.6,1.3-1.1,2-1.6c0.1-0.1,0.1-0.2,0-0.2c-0.1-0.1-0.2-0.1-0.2,0
				C46.4,69.2,45.8,69.6,45.3,70.1z M51.1,70.4c-0.1,0.1-0.2,0.1-0.2,0.2c-0.1,0.1-0.3,0.1-0.4,0.2c0.3-0.2,0.7-0.4,1-0.7
				C51.3,70.2,51.2,70.3,51.1,70.4z M50.2,71c-0.2,0.1-0.4,0.2-0.6,0.4c-0.8,0.5-1.9,1-2.8,1.3c-0.7,0.2-1.3,0.4-2,0.6
				c-0.2,0.1-0.5,0.1-0.8,0.2c-0.1,0-0.3,0.1-0.4,0.1c-0.1,0-0.2,0-0.3,0.1c0.3-0.1,0.6-0.2,1-0.2c0.9-0.2,1.8-0.5,2.7-0.9
				c0.6-0.2,1.3-0.5,1.9-0.8c0.3-0.2,0.7-0.3,1-0.5C50,71,50.1,71,50.2,71c0-0.1,0.1-0.1,0.2-0.1C50.4,70.9,50.3,71,50.2,71z M33,71
				c0.1,0,0.1,0.1,0.1,0.1c-0.1,0.1-0.1,0.1-0.2,0.2c-0.1-0.2-0.2-0.3-0.4-0.3c-0.1,0.1-0.2,0.2,0.1,0C32.7,71,32.9,70.9,33,71z
				 M28.8,71.9c-0.1,0.1-0.2,0.2-0.2,0.2c0,0,0,0,0,0c-0.1,0-0.2,0-0.3-0.1c-0.1,0-0.3-0.1-0.4-0.1c-0.1-0.1-0.2-0.1-0.3-0.1
				c-0.2-0.1-0.4-0.2-0.6-0.3c0.1-0.1,0.1-0.2,0.2-0.2C27.7,71.5,28.3,71.7,28.8,71.9z M39.2,71.4c-0.1,0.1-0.3,0.3-0.4,0.4
				c-0.5,0.4-1,0.8-1.5,1.3c0,0,0,0.1,0,0.1s0.1,0,0.1,0c0.4-0.4,0.8-0.8,1.3-1.1c0.2-0.1,0.3-0.3,0.5-0.4c0.1-0.1,0.1-0.1,0.2-0.2
				c0,0,0-0.1,0-0.2S39.3,71.3,39.2,71.4z M32,71.6c0,0.1,0,0.2,0.1,0.2c-0.1,0.1-0.2,0.1-0.3,0.1c-0.1,0-0.2,0-0.3,0
				c0-0.1,0.3-0.3,0.5-0.5C32,71.4,32,71.5,32,71.6z M30.3,72.4L30.3,72.4l-0.2,0l-0.3,0c0,0-0.1,0-0.1,0c-0.2,0-0.5-0.1-0.7-0.1
				c0,0,0,0,0.1-0.1c0,0,0.1-0.1,0.1-0.1C29.5,72.2,29.9,72.3,30.3,72.4z"/>
		</g>
	</g>
</g>
</svg>
