<?xml version="1.0" encoding="utf-8"?>
<!-- Generator: Adobe Illustrator 20.1.0, SVG Export Plug-In . SVG Version: 6.00 Build 0)  -->
<svg version="1.1" id="Layer_1" xmlns="http://www.w3.org/2000/svg" xmlns:xlink="http://www.w3.org/1999/xlink" x="0px" y="0px"
	 viewBox="0 0 75 75" style="enable-background:new 0 0 75 93.8;" xml:space="preserve">
<g transform="scale(1 -1)" fill="#9C27B0">
	<g transform="translate(0 -75)">
		<g>
			<path marker-end="none" marker-start="none" d="M14.2,0.5c-2.3,0-4.6,0.1-7,0.2C6.2,0.8,5.1,0.8,4,0.9c-0.1,0-0.2,0-0.2,0.1
				L3.7,1.2l-0.5,0C3.1,1.3,3,1.4,3,1.6C2.8,1.8,2.9,2.2,3,2.5C3,2.6,3,2.7,3.1,2.8l0,0.1l0.1,3.5l0,0.3L3.2,7.9L3,5.3
				C3,4.3,2.9,3.4,2.8,2.5L2.7,2.4L2.6,2.5c0.1,1.2,0.2,2.4,0.3,3.7l0.1,3.4L2.9,13c-0.1,1.2-0.1,2.5-0.1,3.7c0,0.9,0,1.7-0.1,2.6
				l-0.1,8l0,0.4c0,0.6,0,1.2-0.1,1.9c0,1.1-0.1,2.3-0.1,3.4c-0.1,3.8-0.2,7.6-0.2,11.4c0,1,0,2,0,3c0,0.4,0,0.8,0,1.2
				c0,0.1,0,0.2,0,0.3c0,0.1,0,0.1,0,0.2v0.2c0,0.1,0,0.2,0,0.4l0,0.1l0.1,0.1l0.2,0c0.1,0,0.2-0.1,0.2-0.2l0-0.1l0-0.5
				c0-0.2,0-0.4,0-0.6l0-0.9l0.1,0.7L3,48.5l0.2,0.7c0.1,0.3,0.2,0.5,0.3,0.8L4,50.7l-0.2,0.2l0,0.1l0.1,0l0.2-0.2L4.2,51l0.1,0.1
				l0.1,0.1l0.1,0.2l0.1,0.1l0,0.1c0,0.1,0,0.2,0.1,0.2l0.5,0.4l0.1,0.1l0.3,0.3l0,0.1c0.5,0.9,1.1,1.7,1.6,2.6l1.7,2.4l-0.4,0
				c-0.1,0-0.1,0-0.1,0.1s0,0.1,0.1,0.1c0.1,0,0.3,0.1,0.5,0.1l0.2,0l1.2,1.7l-0.1,0.1l0,0.1l0.1,0l0.1-0.1l0.1-0.1l1.1,1.5
				c-0.1,0-0.1,0.1,0,0.2c0,0.1,0.1,0.1,0.2,0l1,1.4l0.1,0.2l0,0.1l0.1,0l0.9,1.1c0.4,0.5,0.8,1,1.3,1.6l0.1,0.1l-0.3,0.4
				c0,0.1,0,0.1,0,0.2c0.1,0,0.1,0,0.2,0l0.2-0.3l1.1,1.5c-0.1,0-0.1,0.1,0,0.2l0.2,0l2,2.5c0.6,0.8,1.1,1.5,1.7,2.3
				c0.1,0.2,0.4,0.2,0.6,0.1c0.1-0.1,0.1-0.2,0.2-0.3l0.4,0.4c0.1,0.1,0.2,0.1,0.2,0.2c0.4,0.2,0.7,0.3,1.1,0.4c0.1,0,0.2,0,0.3,0.1
				l0.3,0l0,0.1c0,0.2,0.2,0.3,0.3,0.2l1.3-0.2c0.2,0.4,0.5,0.5,0.9,0.5c0.1,0,0.2,0,0.3,0c0.1,0,0.2-0.1,0.2-0.2s-0.1-0.2-0.2-0.2
				c-0.2,0-0.7,0.1-0.9-0.2l0-0.1l0.1,0l0.5,0l2.5,0.3c0.4,0,0.8,0.1,1.3,0.1c0.1,0,0.2-0.1,0.2-0.2s-0.1-0.2-0.2-0.2
				c-0.4-0.1-0.9-0.1-1.4-0.1l0.3,0c1,0.1,2,0.2,3.1,0.3c0.3,0,0.6,0.1,0.8,0.1c0.2,0,0.3-0.1,0.4-0.3c0-0.1,0-0.2-0.1-0.3l0.4,0
				l1.2,0l1.1,0l0.2,0l1.9,0c1.5,0,3.1,0.1,4.6,0.1c0.6,0,1.3,0,1.9,0.1c1.1,0,2.3,0.1,3.4,0.1c1.1,0,2.3,0.1,3.4,0.1
				c0.3,0,0.7,0,1,0c0.2,0,0.3,0,0.5,0c0.1,0,0.3-0.1,0.4-0.1l0-0.1l1-0.1c0.3-0.1,0.7-0.3,0.9-0.6l0.1-0.2l0,0.1
				c0,0.1,0.1,0.1,0.2,0.1l0.1,0l0,0.2c0,0.1,0,0.1,0,0.2l0.1,0l0,0.9c0,0.1,0.1,0.1,0.1,0.1c0.1,0,0.1-0.1,0.1-0.1l0-1l0.1-0.1
				l0-0.5l0.2-0.2c0.2-0.2,0.4-0.5,0.5-0.9l0.1-0.9l0.1,0c0.1-0.1,0.1-0.2,0.1-0.3c0-0.2,0-0.3,0-0.5c0-0.3,0-0.5,0-0.8
				c0-0.9,0-1.7,0-2.6c0-0.7,0-1.4,0-2.1c0-1.5,0-2.9,0-4.4c0-1.1,0-2.1,0-3.2c0-0.4,0-0.9,0-1.3c0-0.5,0-1,0-1.5c0-0.2,0-0.4,0-0.6
				c0-0.1,0-0.2,0-0.3c0-0.2,0-0.4,0-0.7c0-0.5,0-0.9,0-1.4c0-1.4,0-2.8,0-4.2c0-1.7,0-3.3,0-5c0-0.8,0-1.7,0-2.5c0-0.7,0-1.4,0-2.2
				l0-2l0.1,0.1l1.2,1.2l0.4,0.5c0.1,0.1,0.2,0.3,0.3,0.4c0.3,0.4,0.6,0.8,0.9,1.1c0.3,0.3,0.6,0.6,0.8,0.8c0.4,0.4,0.8,0.9,1.2,1.3
				c1.1,1.2,2.4,2.4,4,2.9l0.7,0.1l0.3,0.1c0.2,0,0.4,0,0.5,0c0.2,0,0.5,0,0.7-0.1l0.3-0.1l0.1,0c0.3-0.1,0.5-0.1,0.8-0.2
				c0.2-0.1,0.3-0.1,0.4-0.2l0.3-0.3l0.1,0c0.3-0.1,0.6-0.3,0.8-0.6c0.1-0.1,0.2-0.3,0.3-0.4c0.1-0.2,0.2-0.4,0.2-0.7
				c0-0.1,0.1-0.2,0.1-0.3l0-0.6l0.2-0.5c0.1-0.3,0.2-0.6,0.3-0.8c0.1-0.3,0.2-0.6,0.3-0.9c0.3-0.9,0.5-1.9,0.6-2.8l0-0.9l0.1-0.1
				c0.2-0.4,0.2-1,0.1-1.4c-0.1-0.5-0.2-1.1-0.3-1.6c0-0.1,0-0.1,0-0.2l0-0.1c-0.1-0.2-0.1-0.5-0.2-0.7c-0.1-0.4-0.3-0.9-0.6-1.3
				c-0.2-0.3-0.4-0.7-0.6-1c-0.8-1.3-1.8-2.3-3.1-3.2c-0.6-0.4-1.4-0.8-2.1-1.1c-0.4-0.1-0.8-0.2-1.2-0.3c-0.1,0-0.2,0-0.3-0.1
				c-0.4,0-0.7-0.1-1.1-0.2c-0.7-0.1-1.3-0.2-1.9-0.4L61,22.3l0.3-0.3c0-0.1,0.1-0.1,0.1-0.2c0.1-0.1,0.1-0.3,0.1-0.4
				c0.1-0.6-0.3-1.2-0.7-1.6c-0.1-0.1-0.3-0.2-0.5-0.3l-0.1,0L60,19.4c-0.3-0.1-0.5-0.2-0.8-0.1c-0.6,0.1-1.2,0.6-1.5,1.2l-0.1,0.4
				l-0.8-0.8l0-0.9c0-1.9,0-3.7,0-5.6c0-2.5,0-5-0.1-7.5l-0.2-2.8l0-0.4l-0.1-0.2l0-0.5l0.2-0.2c0.1-0.1,0.1-0.3,0.1-0.4
				c-0.1-0.2-0.1-0.2-0.2-0.4c0-0.2-0.2-0.4-0.4-0.5c-0.2,0-0.4,0-0.6,0c-1.5,0.1-3.1,0.1-4.7,0.1c-4.1,0-8.2,0-12.3-0.1
				c-4-0.1-8-0.2-11.9-0.3c-1.6,0-3.1-0.1-4.7-0.1c-0.9,0-1.7,0-2.6,0C17.5,0.5,15.9,0.5,14.2,0.5z M15.5,1.3c2,0,4,0.1,6,0.1
				c0.9,0,1.9,0,2.8,0l1.2,0l-10,0.1c-1.7,0-3.3,0-5,0c-0.9,0-1.9,0-2.8,0c-0.6,0-1.2,0-1.9,0l-0.7,0L5.2,1.5l0.5,0
				c0.7,0,1.3-0.1,2-0.1c1,0,1.9,0,2.9-0.1c0.5,0,0.9,0,1.4,0C13.1,1.3,14.3,1.3,15.5,1.3z M4.4,1.5l0.2,0.1c-0.1,0-0.2,0.1-0.2,0.2
				S4.5,2,4.6,2c0.6,0,1.2,0,1.9,0c3.1,0,6.3,0.1,9.4,0.1C25.4,2.1,35,2,44.6,2.1c1.4,0,2.8,0,4.2,0.1c0.7,0,1.5,0,2.2,0.1
				c0.9,0,1.9,0.1,2.8,0.1C53.9,2.3,54,2.2,54,2l0-0.1l0.3,0l0.3,0l0.1,0.1c0.1,0.1,0.1,0.2,0.2,0.3l0.2,0.1l0.2,2.3
				c0,1,0.1,1.9,0.1,2.9l0.2,4.1l0,1.2c-0.1,0.1-0.1,0.1-0.1,0.2c0,0.6,0,1.1,0,1.7c0,0.7,0,1.4,0,2.1l0,2l-1-1
				c-0.2-0.2-0.5-0.4-0.7-0.6c-0.1-0.1-0.3-0.3-0.4-0.4c-0.3-0.2-0.7-0.5-1-0.7c-0.6-0.5-1.3-0.9-1.9-1.3l-0.6-0.4l-0.1-0.1l-0.1,0
				l-1.6-1l0-0.1l0.4-0.5c0.1-0.1,0.1-0.3,0-0.4s-0.3-0.1-0.4,0c-0.2,0.1-0.2,0.2-0.4,0.3L47.1,12c-0.3-0.6-0.6-1.2-1.1-1.7
				c-0.3-0.3-0.7-0.5-1-0.7c-0.6-0.3-1.3-0.5-2.1-0.6l-0.4,0l-0.3-0.1c-0.4-0.1-0.8-0.2-1.2-0.2c-0.3,0-0.6-0.1-0.9-0.1
				c-0.8-0.1-1.6-0.3-2.3-0.6l-0.5-0.2L37,7.5c-0.1-0.1-0.4-0.3-0.5-0.4L36.4,7c-0.1-0.1-0.3-0.2-0.4-0.1c-0.1,0-0.1,0.1-0.1,0.2
				l-0.1,0.1l-0.1,0.1l-0.2-0.5c0-0.1-0.1-0.1-0.2-0.1c-0.1,0-0.1,0.1-0.1,0.2l0.3,0.7l-0.4,0.2c-0.3,0.2-0.5,0.6-0.6,0.9l-0.2,0.4
				c0-0.1-0.1-0.2-0.1-0.3c-0.2-0.6-0.4-1.3-1-1.6c-0.1-0.1-0.3-0.1-0.4-0.1c-0.2,0-0.5,0-0.6,0.1c-0.2,0.1-0.4,0.3-0.6,0.5
				C31.2,8,31,8.6,30.8,9l-0.2,0.3c-0.2-0.4-0.4-0.7-0.6-1c-0.1-0.2-0.3-0.4-0.5-0.6c-0.2-0.2-0.3-0.2-0.6-0.2c-0.2,0-0.5,0-0.6,0
				C28,7.7,27.8,8,27.7,8.2c-0.2,0.3-0.3,0.7-0.4,1l-0.2,0.7l-0.2-0.6c-0.4-1.1-0.7-1.9-1.7-2.5c-0.1-0.1-0.3-0.1-0.4,0
				c-0.1,0.1-0.2,0.2-0.3,0.3c-0.2,0.2-0.4,0.5-0.5,0.7c-0.1,0.2-0.2,0.4-0.2,0.6c-0.2,0.4-0.3,0.8-0.4,1.2
				c-0.1,0.3-0.1,0.5-0.2,0.8L23,10.6l0-0.1c-0.1-0.3-0.2-0.7-0.4-1c-0.2-0.5-0.4-1-0.6-1.5c-0.2-0.3-0.4-0.6-0.6-0.8
				c-0.1-0.1-0.1-0.2-0.2-0.2C21,6.9,20.7,7,20.6,7.1c-0.1,0.1-0.1,0.3-0.2,0.4c-0.1,0.3-0.2,0.6-0.3,0.8c-0.2,0.6-0.4,1.2-0.6,1.8
				c-0.1,0.3-0.3,0.7-0.4,1c-0.1,0.1-0.1,0.2-0.2,0.4c-0.1,0.1-0.1,0.2-0.1,0.3c-0.1,0.2-0.2,0.3-0.3,0.5l-0.1,0.1l0-0.5
				c-0.1-1-0.2-1.9-0.4-2.9c-0.3-1.6-0.8-3.2-1.8-4.5c-0.1-0.2-0.4-0.3-0.6-0.2c-0.1,0-0.1,0.1-0.2,0.1c-0.1,0.1-0.2,0.3-0.2,0.4
				C15,5.5,15,5.9,14.9,6.3c0,0.2-0.1,0.4-0.1,0.6c0,0.5-0.1,1-0.1,1.5c0,1,0.1,2.2,0.5,3.2c0.2,0.5,0.5,1.1,0.9,1.5
				c0.1,0.1,0.1,0.1,0.2,0.2c0.2,0.2,0.5,0.3,0.8,0.4l0.5,0.1l-0.1,1.8c-0.1,0.6-0.1,1.2-0.2,1.9c-0.1,0.4-0.2,0.7-0.3,1.1
				c-0.3,0.8-0.5,1.6-1.1,2.2c-0.1,0.1-0.2,0.2-0.4,0.3l-0.1,0.1l-0.1,0c-0.1,0-0.1,0.1-0.2,0.1l-0.3,0.1l-0.4,0
				c-0.9-0.2-1.6-1.1-2-1.9c-0.1-0.2-0.2-0.4-0.3-0.6c-0.1-0.2-0.2-0.5-0.3-0.7c-0.4-1-0.8-2.1-1-3.2c-0.1-0.4-0.1-0.7-0.2-1.1
				c-0.1-0.5-0.1-0.9-0.1-1.4c0-0.5,0-0.9,0.1-1.4c0.1-0.8,0.3-1.9,0.8-2.6l0-0.1l0.4,0c0.1,0,0.2,0,0.2,0.1c0.2,0,0.3,0,0.4-0.2
				c0-0.2,0-0.3-0.2-0.4c-0.3-0.1-0.5-0.2-0.8-0.2c-0.1,0-0.1,0-0.2,0c-0.1,0-0.1,0-0.2,0.1l-0.1,0.1c-0.1,0.2-0.2,0.3-0.3,0.5
				c-0.5,1-0.7,2-0.7,3c-0.1,1.7,0.1,3.5,0.6,5.1c0.3,1.1,0.7,2,1.2,3c0.2,0.3,0.4,0.7,0.7,1c0.1,0.1,0.2,0.3,0.3,0.4
				c0.2,0.2,0.3,0.3,0.5,0.5c0.1,0.1,0.2,0.1,0.2,0.2c0.7,0.4,1.4,0.6,2.2,0.3c0.2-0.1,0.4-0.2,0.6-0.3c1.2-0.8,1.8-2.7,2.1-4
				c0.1-0.3,0.1-0.6,0.2-0.9c0.1-0.6,0.1-1.1,0.2-1.7l0-1.5l0.2-0.1c0.1-0.1,0.2-0.2,0.3-0.3c0.4-0.5,0.7-1,1-1.6
				c0.1-0.2,0.2-0.5,0.3-0.7c0.1-0.3,0.2-0.6,0.3-0.9c0.1-0.4,0.3-0.8,0.4-1.2l0.2-0.5l0.3,0.5c0.2,0.4,0.3,0.8,0.5,1.2
				c0.1,0.4,0.3,0.8,0.4,1.2c0.1,0.2,0.2,0.4,0.3,0.6c0,0.1,0.1,0.2,0.2,0.3c0.1,0.2,0.4,0.2,0.6,0.1c0.1-0.1,0.2-0.2,0.3-0.4
				c0.2-0.3,0.3-0.7,0.4-1c0.1-0.3,0.2-0.6,0.2-0.8c0.2-0.7,0.3-1.3,0.6-1.9L25,7.8l0.1,0.1c0.1,0.1,0.3,0.3,0.3,0.4
				c0,0.1,0.1,0.1,0.1,0.2c0.1,0.2,0.3,0.5,0.3,0.7c0.2,0.6,0.4,1.3,0.6,1.9c0.1,0.2,0.2,0.5,0.3,0.7c0.1,0.2,0.4,0.3,0.6,0.1
				c0.1,0,0.1-0.1,0.1-0.1l0.1-0.1c0-0.1,0-0.2,0.1-0.3c0-0.2,0.1-0.3,0.1-0.5c0.1-0.6,0.2-1.2,0.4-1.8c0-0.1,0.1-0.2,0.2-0.4
				l0.1-0.2h0.3l0.2,0.2c0.3,0.4,0.5,0.8,0.8,1.2c0.1,0.2,0.4,0.6,0.5,0.7c0.1,0.1,0.2,0.1,0.3,0.1c0.1,0,0.2,0,0.2-0.1
				c0.1-0.1,0.3-0.4,0.3-0.6c0.1-0.2,0.2-0.5,0.3-0.7C31.8,9,32,8.5,32.2,8.2L32.5,8l0.2,0c0.3,0.1,0.4,0.3,0.5,0.7
				c0.2,0.6,0.3,1.1,0.7,1.6c0.1,0.1,0.1,0.1,0.2,0.2c0.1,0.1,0.2,0.1,0.3,0.1c0.3,0,0.4-0.2,0.5-0.4C34.9,10,35,9.8,35,9.7
				c0.1-0.1,0.1-0.3,0.2-0.4c0.1-0.2,0.4-0.7,0.7-0.9l0.1,0l0.6,1.2l0.1,0.1l0.7,1.6c0.4,0.8,0.8,1.5,1.2,2.2
				c0.2,0.2,0.3,0.5,0.5,0.7c0.4,0.6,1,1.3,1.6,1.7l0.4,0.3c0.1,0.1,0.3,0.2,0.4,0.4c0.2,0.1,0.3,0.3,0.5,0.4l0.1,0l0.1,0.2
				l-0.1-0.1c-0.1,0-0.1,0-0.2,0c-0.1,0.1-0.2,0.2-0.1,0.3l0.5,0.9l-0.1,0c-0.1,0-0.1,0.1-0.1,0.2c0.1,0.2,0.2,0.4,0.3,0.5
				c0.1,0.2,0.2,0.3,0.3,0.5c0.2,0.3,0.3,0.5,0.5,0.8c0.7,1,1.4,2,2.1,2.9c1.1,1.4,2.2,2.7,3.3,3.9l3,3l-0.1,0.1
				c-0.1,0.1-0.1,0.2,0,0.3s0.2,0.1,0.3,0l0.1-0.1l0.1,0.1l3.2,3.1l0,0.1l0,6.1c0,3.7,0,7.4,0,11.1c0,2.8,0,5.7,0,8.5
				c0,1.6,0,3.3,0,4.9l0,4.4c-0.1,0-0.3,0.1-0.3,0.2c-0.1,0.5,0,1,0.1,1.5l0,0.1l-0.2,0.4l0,0.1l-0.1,0c-0.2,0-0.4,0.2-0.3,0.4
				l0,0.1L54.3,72c-0.1,0.1-0.2,0.1-0.2,0.2c-0.3,0.3-0.6,0.4-1,0.5l-0.2,0l-0.1-0.1l-4.2,0l0.4,0c0.7-0.1,1.3-0.2,2-0.3
				c0.4-0.1,0.8-0.2,1.2-0.3c0.2-0.1,0.4-0.1,0.6-0.2c0.1,0,0.1-0.1,0.1-0.2c0-0.1-0.1-0.1-0.2-0.1c-0.3,0.1-0.6,0.2-0.9,0.2
				c-0.6,0.1-1.2,0.2-1.8,0.3c-0.9,0.2-1.9,0.3-2.9,0.4l-1.9,0.1l-1.2,0c-0.5,0-1,0-1.5,0c-0.5,0-0.9,0-1.4,0c-0.9,0-1.8,0-2.7,0
				c-1.3,0-2.7,0-4,0c-0.8,0-1.7,0-2.5,0c-0.8,0-1.7,0.1-2.5,0.1l-1.3,0.1l-0.3,0l0.2-0.2c0.1,0,0.1-0.1,0-0.2c0-0.1-0.1-0.1-0.2,0
				l-0.4,0.4L26,72.5c-0.4,0-0.9-0.1-1.3-0.2l0.6-0.7c0.2-0.2,0.3-0.3,0.5-0.5l0-0.2l-0.2,0c-0.2,0.2-0.4,0.3-0.5,0.5
				c-0.1,0.1-0.3,0.3-0.4,0.4l-0.3,0.4l-1.5-0.3l-0.7-0.2l0.5-0.6c0.4-0.3,0.8-0.6,1.2-0.9c0.3-0.2,0.5-0.4,0.8-0.6
				c0.1,0,0.1-0.1,0-0.2c0-0.1-0.1-0.1-0.2,0c-0.3,0.3-0.7,0.6-1,0.8c-0.4,0.3-0.7,0.5-1,0.8L22,71.6c-0.3-0.1-0.6-0.2-0.9-0.4
				L21,71.1L20.9,71l0.2,0.2c0.1,0.1,0.2,0.1,0.3,0c0.1-0.1,0.1-0.2,0-0.3l-0.7-0.7l0.3-0.4c0.2-0.2,0.3-0.3,0.5-0.5
				c0.3-0.3,0.7-0.6,1-0.8c0.5-0.4,0.9-0.8,1.4-1.1c0.2-0.1,0.4-0.3,0.6-0.4c0.1,0,0.1-0.1,0-0.2c0-0.1-0.1-0.1-0.2,0
				c-0.2,0.1-0.4,0.3-0.6,0.5c-0.5,0.4-1,0.8-1.5,1.2c-0.2,0.2-0.3,0.3-0.5,0.5c-0.3,0.2-0.6,0.5-0.8,0.8L20.5,70l-0.2-0.2l-0.2-0.4
				L20,68.9l0.9-0.7c0.1,0,0.1-0.1,0-0.2c0-0.1-0.1-0.1-0.2,0l-0.8,0.6L19.7,68l0-0.1c0.2-0.2,0.4-0.5,0.7-0.7
				c0.3-0.3,0.7-0.6,1-0.9c0.6-0.6,1.4-1.1,2.1-1.6c0.1,0,0.1-0.1,0-0.2c0-0.1-0.1-0.1-0.2,0c-0.9,0.5-1.6,1.2-2.4,1.9
				c-0.4,0.3-0.7,0.7-1.1,1.1l-0.3,0.4l-0.1-0.3L19.5,66l0.8-0.7c0.2-0.2,0.4-0.4,0.6-0.6c0.4-0.4,0.7-0.8,1.1-1.2
				c0.1-0.1,0.1-0.2,0-0.2h-0.2c-0.2,0.2-0.5,0.5-0.7,0.7L20,65.3L20,65l-0.2-1.3l0.9-0.9c0.7-0.7,1.4-1.4,2.2-2.1
				c0.3-0.3,0.6-0.5,1-0.8c0.1-0.1,0.1-0.2,0-0.2s-0.2-0.1-0.2,0c-0.2,0.2-0.4,0.4-0.7,0.5c-0.2,0.2-0.5,0.4-0.7,0.6
				c-0.8,0.8-1.6,1.6-2.4,2.4l-0.2,0.2l0-0.2c-0.1-0.6-0.1-1.2-0.1-1.8l0-0.8l0.9-0.8c0.8-0.8,1.6-1.5,2.5-2.2
				c0.4-0.3,0.7-0.5,1.1-0.7c0.1-0.1,0.1-0.2,0.1-0.3c-0.1-0.1-0.2-0.1-0.3-0.1c-0.2,0.1-0.4,0.3-0.6,0.4c-0.7,0.5-1.3,1.1-2,1.7
				l-1.7,1.6l0-0.2c0-0.3,0-0.6,0-0.9l0-1.6l0.1-0.1c0.1-0.1,0.2-0.2,0.3-0.2c0.3-0.2,0.6-0.5,0.9-0.7c0.9-0.7,1.8-1.4,2.7-2
				c0.1,0,0.1-0.1,0-0.2c0-0.1-0.1-0.1-0.2,0c-0.6,0.4-1.2,0.9-1.7,1.3c-0.5,0.4-1,0.8-1.4,1.1c-0.2,0.2-0.4,0.3-0.6,0.5l-0.1,0.1
				l0-0.2l0.1-1c0.1,0,0.1,0,0.1-0.1c0.2-0.2,0.4-0.5,0.6-0.7c0.1-0.2,0.3-0.4,0.4-0.6c0.3-0.4,0.7-0.9,1.1-1.2
				c0.1-0.1,0.1-0.2,0-0.3s-0.2-0.1-0.3,0c-0.2,0.2-0.4,0.4-0.6,0.6c-0.4,0.4-0.6,0.9-0.9,1.3l-0.4,0.5l0-0.6c0-0.1-0.1-0.2-0.2-0.2
				c-0.1,0-0.2,0.1-0.2,0.2l0,0.2l-0.1-0.3l-0.2-0.1l0.1-0.1c0.6-0.5,1.3-1,2-1.5c0.2-0.2,0.4-0.3,0.6-0.5l0.6-0.5l0.1,0
				c0.6,0,1.1,0.1,1.7,0.2c1.5,0.1,2.9,0.2,4.4,0.3c1,0,2.1,0.1,3.2,0.1c0.9,0,1.8,0,2.6,0.1c1.6,0,3.2,0,4.8,0.1
				c1.3,0,2.5,0,3.8,0.1c1.2,0,2.4,0,3.6,0c0.2,0,0.4-0.2,0.4-0.4c0-0.2-0.2-0.4-0.4-0.4c-3.6-0.1-7.1,0-10.7,0.1c-1,0-2,0-3,0
				c-1,0-2,0-3,0c-0.9,0-1.8-0.1-2.8-0.1L23,51.8l0.8-0.7c0.1-0.1,0.1-0.2,0-0.3c-0.1-0.1-0.2-0.1-0.3,0c-0.3,0.3-0.7,0.6-1,0.9
				c-0.4,0.4-0.9,0.7-1.3,1.1c-0.7,0.5-1.3,1-2,1.6l-0.4,0.3c-0.1,0-0.1,0.1-0.2,0.1l-0.1,0.1c0,0-0.1,0-0.2,0.1
				c-0.1,0.1-0.3,0.1-0.4,0.2l-0.1,0l0.9-1c0.2-0.2,0.4-0.4,0.6-0.6c0.3-0.3,0.5-0.6,0.8-0.9c0.1-0.1,0.2-0.3,0.3-0.4
				c0.1-0.1,0-0.3-0.1-0.4c-0.1-0.1-0.3,0-0.4,0.1c-0.1,0.1-0.2,0.3-0.2,0.4c-0.1,0.1-0.2,0.3-0.3,0.4c-0.1,0.1-0.1,0.2-0.2,0.2
				c-0.3,0.3-0.5,0.6-0.8,1c-0.2,0.3-0.5,0.6-0.7,0.8c-0.1,0.1-0.2,0.3-0.3,0.4l0,0.1l-0.6,0.1c-0.2,0-0.4,0-0.5,0l-0.3,0l0.5-0.6
				c0.4-0.4,0.8-0.8,1.2-1.2c0.3-0.3,0.6-0.5,0.8-0.8c0.3-0.3,0.6-0.6,0.8-0.8c0.1-0.1,0.1-0.3,0-0.4c-0.1-0.1-0.3-0.1-0.4,0
				c-0.4,0.4-0.8,0.8-1.1,1.2c-0.4,0.4-0.8,0.9-1.2,1.3l-1,1.4l-0.8-0.1l-0.3,0l1.1-1.2c1.4-1.4,3-2.6,4.5-3.7
				c0.6-0.4,1.1-0.8,1.7-1.3c0.3-0.2,0.7-0.5,1-0.7c0.1-0.1,0.1-0.2,0-0.3s-0.2-0.1-0.3,0c-0.5,0.4-1,0.8-1.5,1.1
				c-1.1,0.8-2.1,1.7-3.2,2.5c-0.4,0.4-0.8,0.7-1.2,1.1c-0.6,0.5-1.2,1.1-1.7,1.7l-0.6,0.7l-0.2,0l0.8-1c0.4-0.4,0.8-0.8,1.2-1.2
				c0.3-0.3,0.7-0.7,1-1c0.1-0.1,0.1-0.3,0-0.3s-0.3-0.1-0.3,0c-0.8,0.8-1.6,1.7-2.4,2.6l-0.6,0.9l-0.5-0.1c-0.1,0-0.3-0.1-0.4-0.1
				L12,55l1.7-1.9c0.2-0.2,0.5-0.5,0.8-0.7c0.1-0.1,0.2-0.2,0.3-0.3c0.2-0.2,0.5-0.4,0.7-0.5c0.1-0.1,0.1-0.2,0-0.3
				c-0.1-0.1-0.2-0.1-0.3,0c-0.2,0.2-0.4,0.4-0.6,0.5c-0.4,0.4-0.8,0.7-1.1,1.1l-1.7,2L11,54.6l-0.5-0.2l0.2,0
				c0.9-1.2,2.2-2.1,3.2-3.2c0.2-0.2,0.4-0.5,0.6-0.7c0.1-0.1,0.1-0.2,0.2-0.3c0.1-0.1,0-0.2-0.1-0.3c-0.1-0.1-0.2,0-0.3,0.1
				c-0.1,0.2-0.2,0.4-0.4,0.6c-0.2,0.3-0.4,0.5-0.6,0.7c-0.3,0.3-0.7,0.7-1,1c-0.6,0.6-1.3,1.2-1.8,1.9l0,0.2l-0.6-0.3l0.2-0.2
				c0.3-0.3,0.5-0.6,0.8-1c0.5-0.7,1.1-1.3,1.8-1.8c0.1-0.1,0.1-0.2,0.1-0.3c-0.1-0.1-0.2-0.1-0.3-0.1c-0.6,0.4-1.1,1-1.5,1.5
				c-0.3,0.4-0.6,0.9-1,1.3c-0.1,0.1-0.2,0.3-0.3,0.4L9.3,54l-0.6-0.3l0.8-1c1.1-1.2,2.5-2.2,3.8-3.2c0.4-0.3,0.7-0.6,1.1-0.9
				c0.3-0.3,0.5-0.5,0.8-0.8c0.1-0.1,0.1-0.2,0-0.2c-0.1-0.1-0.2-0.1-0.2,0c-0.1,0.1-0.3,0.3-0.4,0.4c-0.4,0.4-0.8,0.8-1.2,1.1
				c-0.4,0.3-0.7,0.6-1,0.9c-0.7,0.5-1.3,1.1-1.9,1.6c-0.3,0.3-0.5,0.5-0.8,0.8c-0.1,0.1-0.2,0.2-0.3,0.3l-0.7,0.9l-0.9-0.5l-1-0.8
				C7,52,7.2,51.8,7.5,51.6c0.3-0.3,0.7-0.6,1-0.9c0.5-0.5,1-1,1.5-1.5c0.3-0.2,0.5-0.5,0.8-0.7c0.6-0.5,1.2-1,1.9-1.3
				c0.1,0,0.1-0.1,0.1-0.2c0-0.1-0.1-0.1-0.2-0.1c-0.3,0.2-0.7,0.4-1,0.6c-0.9,0.6-1.6,1.4-2.3,2.1c-0.5,0.5-1,1.1-1.5,1.6
				c-0.2,0.2-0.5,0.5-0.7,0.7l-0.4,0.4l-0.3-0.2c-0.5-0.4-0.9-0.9-1.2-1.3l-0.2-0.3l0.8-0.6c0.5-0.3,1-0.6,1.4-1
				c0.5-0.3,0.9-0.6,1.3-1c0.3-0.2,0.6-0.5,0.8-0.7c0.1-0.1,0.1-0.1,0-0.2c-0.1-0.1-0.1-0.1-0.2,0c-0.2,0.2-0.3,0.3-0.5,0.5
				c-0.6,0.5-1.3,1-2,1.5c-0.5,0.3-0.9,0.7-1.4,1l-0.4,0.3l-0.3-0.4l-0.1-0.2l0-0.2c0-0.1,0-0.3-0.1-0.4l-0.1-0.8l0.4-0.4
				C4.7,47.4,5,47.2,5.3,47c-0.3,0.1-0.6,0.3-0.8,0.6L4.1,48L4,47l-0.2-2.6l0.3-0.5l0-0.1l-0.1,0l-0.2,0.3c0-0.7,0-1.4-0.1-2
				c0-0.6,0-1.2,0-1.7c0-1-0.1-2.1-0.1-3.1l-0.1-2.6l0.1-1c0.2-1.4,0.3-2.7,0.4-4.1c0-0.5,0-1.1,0.1-1.6c0-1.2,0.1-2.4,0.1-3.6
				c0-3.1,0-6.2-0.1-9.4l-0.2-4.4l0.3-4.4c0-0.3,0.1-0.6,0.1-0.9c0-0.1,0-0.3,0.1-0.4c0-0.1,0-0.3,0-0.4c0-0.1,0-0.3,0.1-0.4
				c0.1-0.5,0.1-1,0.3-1.4c0.1-0.2,0-0.4-0.2-0.5C4.2,2,4,2.1,3.9,2.3c0,0.1-0.1,0.3-0.1,0.4l0,0.2L3.7,2.8c-0.2-0.4-0.3-0.6-0.2-1
				l0-0.1l0.1,0l0.6-0.1L4.4,1.5z M3.3,3.4l0.1,0.2c0,0.1,0.1,0.2,0.1,0.4l0,0.1l0,0.3l0,0.4l0-0.6L3.3,3.4z M15.9,6l0.2,0.3
				c0.6,1.1,0.9,2.5,1.1,3.6c0.1,0.6,0.2,1.2,0.2,1.9l0,1.1c-0.1,0-0.2-0.1-0.3-0.1L17,12.7c-0.1-0.1-0.2-0.2-0.3-0.2
				c-0.1-0.1-0.3-0.3-0.3-0.5c-0.3-0.5-0.4-1-0.5-1.5c-0.2-1.2-0.2-2.4-0.1-3.7c0-0.1,0-0.3,0.1-0.4L15.9,6z M37.5,8.5l0.3,0.2
				c0.2,0.1,0.4,0.2,0.6,0.2c0.6,0.2,1.2,0.3,1.8,0.4l0.6,0.1l0.2,0c0.2,0,0.4,0.1,0.5,0.1c0.5,0.1,1.1,0.2,1.6,0.4
				c1,0.4,1.8,0.9,2.4,1.8c0.2,0.2,0.3,0.4,0.4,0.7c0.1,0.2,0.2,0.4,0.3,0.7c0,0.1,0.1,0.1,0.1,0.2l0.1,0.1l-0.9,0.8
				c-0.1,0.1-0.2,0.1-0.4,0.2L45,14.6l0,0.1l-0.3,0.2c-0.3,0.3-0.7,0.7-1,1l-0.4,0.5L43,16.6l-0.4,0.3l0-0.1l0.1-0.2
				c0.1-0.2-0.1-0.5-0.3-0.5l-0.1,0l-0.2-0.3c-0.2-0.2-0.4-0.4-0.6-0.6c-0.2-0.2-0.3-0.3-0.5-0.5c-0.4-0.4-0.7-0.8-1.1-1.2
				c-0.3-0.3-0.5-0.6-0.8-0.9l-0.4-0.5L38,10.7c-0.2-0.3-0.3-0.6-0.4-0.9l0-0.1l0.9,0.9l0.9,1c0,0.2,0,0.4,0.1,0.5
				c0.1,0.2,0.2,0.3,0.3,0.4l0.1,0.2l0,0.1c0.1,0.2,0.3,0.3,0.4,0.4c0.2,0.1,0.3,0.2,0.5,0.2c0.3,0.1,0.6,0,0.8-0.1
				c0.1,0,0.1-0.1,0.2-0.1c0-0.1,0.1-0.3,0.1-0.4c0-0.2,0-0.4-0.1-0.6c-0.2-0.4-0.6-0.8-1-0.9l-0.1,0L40,10.9
				c-0.6-0.6-1.2-1.1-1.8-1.7L37.5,8.5z M48.1,14.5l0.3,0.3l-0.8,0.5c-0.3,0.2-0.6,0.4-0.8,0.5c-0.2,0.1-0.6,0.3-0.8,0.4
				c-0.1,0-0.2,0.1-0.3,0.1l-0.2,0l0.4-0.3c0.2-0.1,0.3-0.2,0.5-0.3c0.4-0.3,0.8-0.5,1.2-0.8L48.1,14.5z M48.8,15.1l0.9,0.7l-2,1.1
				c-0.4,0.2-0.8,0.5-1.1,0.9c-0.1,0.1-0.2,0.2-0.3,0.3c-0.1,0.1-0.1,0.2,0,0.2c0.1,0.1,0.2,0.1,0.2,0c0.6-0.8,1.7-1.3,2.6-1.8
				c0.3-0.1,0.5-0.3,0.8-0.4l1.2,1c-0.3,0.2-0.6,0.4-0.9,0.5c-0.5,0.3-1,0.6-1.5,1c-0.2,0.1-0.4,0.3-0.6,0.5c-0.1,0.1-0.1,0.2,0,0.2
				h0.2c0.2-0.2,0.4-0.3,0.5-0.5c0.2-0.2,0.5-0.4,0.7-0.5c0.1-0.1,0.3-0.2,0.4-0.2l1.4-0.8l1.3,1.1c0.5,0.5,1.1,1,1.6,1.5
				c0.3,0.3,0.6,0.7,1,1l0.1,0.2l0,0.1l-0.1-0.1l-0.2,0c-0.1,0.1-0.3,0.2-0.4,0.2c-0.3,0.1-0.5,0.3-0.8,0.4
				c-0.7,0.4-1.7,1.1-2.1,1.8c0,0.1,0,0.2,0,0.2c0.1,0,0.2,0,0.2,0c0.5-0.8,1.4-1.4,2.3-1.8c0.2-0.1,0.5-0.2,0.7-0.3
				c0.1,0,0.2-0.1,0.3-0.1l0.1-0.1l0,0.2c0,0.1,0.1,0.1,0.1,0.1c0.1,0,0.1-0.1,0.1-0.1l0-0.1l0.2,0.2l0,0.2c0,0.2,0.2,0.4,0.4,0.4
				l0.1,0l0.2,0.2c-0.1,0-0.1,0-0.2,0c-0.7,0.4-1.3,0.9-1.9,1.4c-0.3,0.2-0.5,0.4-0.8,0.6c-0.1,0.1-0.3,0.2-0.4,0.3
				c-0.1,0-0.1,0.1,0,0.2c0,0.1,0.1,0.1,0.2,0c0.1-0.1,0.3-0.2,0.4-0.3c0.3-0.2,0.6-0.4,0.9-0.6c0.6-0.4,1.2-0.9,1.9-1.3
				c0,0,0.1-0.1,0.1-0.1l0-0.1l0.9,0.9c-1,0.6-1.9,1.5-2.7,2.3c-0.1,0.1-0.1,0.2,0,0.2c0.1,0.1,0.2,0.1,0.2,0
				c0.6-0.7,1.3-1.3,2.1-1.8l0.6-0.4l-0.4,0.4c-0.1,0.1-0.2,0.2-0.3,0.3c-0.2,0.3-0.5,0.5-0.8,0.8c-0.2,0.2-0.4,0.4-0.6,0.5
				c-0.1,0.1-0.3,0.2-0.4,0.3c-0.3,0.2-0.6,0.5-0.9,0.7c-0.6,0.5-1.2,0.9-1.8,1.3c-0.2,0.1-0.3,0.2-0.5,0.3
				c-0.1,0.1-0.3,0.2-0.4,0.3l-0.1,0l-0.2-0.3c-0.2-0.3-0.5-0.5-0.7-0.7l-0.7-0.7c-0.5-0.6-0.9-1.1-1.4-1.6c-0.3-0.4-0.7-0.8-1-1.2
				c-0.3-0.4-0.7-0.7-1-1.1c-0.6-0.7-1.1-1.3-1.7-2c-0.4-0.5-0.8-1.1-1.2-1.7c-0.1-0.2-0.3-0.4-0.4-0.6c-0.2-0.4-0.5-0.8-0.7-1.2
				l0-0.1l0.2-0.1l0.1,0c0.1,0,0.2,0,0.3-0.1c0.2-0.1,0.4-0.3,0.6-0.3c0.1-0.1,0.1-0.2,0-0.3l0.5-0.3l0.6-0.4l0,0.1l0.1,0l-0.2,0
				c-0.1,0-0.2,0.1-0.2,0.2c0,0.1,0.1,0.2,0.2,0.2c0.6-0.1,1.1-0.2,1.6-0.5c0.3-0.2,0.7-0.4,1-0.6c0.3-0.2,0.5-0.3,0.8-0.4
				L48.8,15.1z M56,17.1v2.3l-0.1-0.1L56,17.1L56,17.1z M3.6,17.4L3.6,23c0,1.8-0.1,3.7-0.1,5.5c0,0.4,0,0.9,0,1.3l0,1.2l0-1.9
				c0-1.7,0-3.5,0-5.2c0-1.7,0-3.3,0.1-5L3.6,17.4z M51.5,18.7c-0.1,0.1-0.2,0.2-0.4,0.2c-0.2,0.1-0.3,0.2-0.5,0.3
				c-0.4,0.2-0.7,0.5-1.1,0.7c-0.2,0.1-0.4,0.3-0.5,0.4c-0.1,0.1-0.2,0.1-0.2,0.2c-0.1,0.1-0.1,0.2,0,0.2c0.1,0.1,0.2,0.1,0.2,0
				c0.1-0.1,0.2-0.1,0.3-0.2c0.1,0,0.2-0.1,0.2-0.2c0.1-0.1,0.3-0.2,0.5-0.3c0.4-0.2,0.7-0.5,1.1-0.7c0.2-0.1,0.4-0.3,0.6-0.4
				c0.1-0.1,0.1-0.2,0.1-0.3C51.8,18.6,51.6,18.6,51.5,18.7z M53.8,19.7c-0.1,0.1-0.2,0.2-0.3,0.2c-0.3,0.2-0.6,0.4-0.9,0.6
				c-0.6,0.4-1.3,0.9-1.8,1.5c-0.1,0.1-0.1,0.2,0,0.2c0.1,0.1,0.2,0.1,0.2,0c0.2-0.2,0.4-0.4,0.7-0.6c0.7-0.6,1.6-1,2.3-1.6
				c0.1-0.1,0.1-0.2,0.1-0.3C54,19.7,53.9,19.7,53.8,19.7z M59.7,20.4c0.1,0,0.3,0.1,0.4,0.2l0.1,0.1l0,0.1L60.1,21L60,21.1
				c-0.1,0-0.2,0.1-0.2,0.2l0,0.1l-0.2,0.1c-0.1,0-0.1,0.1-0.1,0.2l-0.1-0.2c0-0.1-0.1-0.2-0.2-0.2c-0.1,0-0.2,0.1-0.2,0.2
				c0,0.2,0.1,0.4,0.1,0.5l0.3,0.4l-0.2,0.3l-0.1-0.1c-0.2-0.3-0.5-0.6-0.8-0.9l0-0.4c0-0.1,0.1-0.3,0.2-0.4
				c0.1-0.1,0.2-0.2,0.2-0.3l0.1-0.1c0.1-0.1,0.3-0.2,0.5-0.2l0.1,0C59.5,20.4,59.6,20.4,59.7,20.4z M59.6,22.7L60,23
				c0.3,0.2,0.7,0.4,1.1,0.5c0.1,0.1,0.3,0.1,0.4,0.2c0.3,0.1,0.7,0.2,1,0.3c0.2,0,0.4,0.1,0.6,0.1c0.2,0,0.4,0.1,0.6,0.1
				c0.3,0.1,0.5,0.1,0.8,0.2c0.1,0,0.3,0.1,0.4,0.1c0.3,0.1,0.5,0.2,0.8,0.3c0.5,0.2,1,0.4,1.5,0.6c0.1,0,0.2,0.1,0.3,0.1
				c0.1,0.1,0.3,0.2,0.4,0.3c0.2,0.1,0.3,0.2,0.5,0.3l0.4,0.4l0.4,0.4c0.1,0.2,0.3,0.3,0.4,0.5c0.2,0.2,0.3,0.4,0.5,0.7
				c0.2,0.3,0.3,0.6,0.5,0.8c0.4,0.7,0.7,1.4,0.9,2.1c0.2,0.5,0.3,0.9,0.4,1.4c0.1,0.4,0.1,0.8,0.1,1.3c0,0.1,0,0.3-0.1,0.4
				c0,0.2-0.1,0.3,0,0.5c0,0.1,0,0.2,0.1,0.3l0,0.8l0,0.3l-0.1,0.3c-0.1,0.4-0.2,0.9-0.4,1.3l-0.1,0.2l-0.1,0.4l0,0.1l-0.3-0.9
				l0-0.1l0.1-0.1c0-0.1,0-0.1,0-0.2l-0.1-0.1c0-0.1,0-0.2,0-0.3c0-0.1,0-0.1-0.1-0.2l-0.1,0l-0.1-0.1l-0.3-0.3l0.1-0.3
				c0-0.1,0-0.2-0.1-0.3L70,35.1l0.1-0.4c0.1-0.4,0.1-0.9,0-1.4l-0.2-0.8c0-0.2-0.1-0.5-0.1-0.6c-0.1-0.5-0.3-0.9-0.5-1.4
				c-0.2-0.3-0.4-0.7-0.7-1c-0.1-0.1-0.2-0.2-0.3-0.3c-0.1-0.1-0.2-0.2-0.2-0.2c-0.2-0.2-0.4-0.4-0.6-0.5c-0.3-0.3-0.7-0.5-1-0.8
				L66,27.4l-0.7-0.6c-0.2-0.2-0.5-0.4-0.8-0.5c-0.2-0.1-0.3-0.2-0.5-0.3c-0.2-0.1-0.4-0.2-0.6-0.3c-0.2-0.1-0.5-0.2-0.8-0.2
				l-0.5-0.1l-0.1,0c-0.6-0.2-1.1-0.5-1.7-0.8L60,24.3l-0.3-0.7c-0.1-0.1-0.1-0.2-0.2-0.4L59.4,23L59.6,22.7z M59.3,24.3l0.1,0.1
				l0.4,0.3l0.1,0.1c0.1,0.1,0.3,0.2,0.4,0.2l0.1,0l0.8,0.6l0.7,0.5l-0.3,0.1l-0.6-0.7c-0.1-0.1-0.1-0.1-0.2-0.1l-0.2,0
				c-0.1-0.1-0.2-0.1-0.3-0.1l-0.3,0.2l0.1-0.1c0-0.1,0-0.2-0.1-0.3c-0.1-0.1-0.4-0.1-0.5,0c-0.5,0.5-1,1-1.6,1.5
				c-0.3,0.3-0.5,0.5-0.8,0.8c-0.2,0.2-0.5,0.4-0.7,0.6c-0.4,0.4-0.9,0.7-1.3,1.1c-0.2,0.2-0.4,0.3-0.6,0.5l-1.4,0.9l-0.4-0.3
				l0.1-0.1c0.2-0.1,0.3-0.3,0.5-0.4c1-0.9,2.1-1.8,3.1-2.6c0.4-0.3,0.7-0.6,1.1-0.9c0.2-0.2,0.4-0.3,0.5-0.5
				c0.3-0.3,0.6-0.5,0.9-0.8L59.3,24.3z M33,25.1c-1.1,0-2.2,0.1-3.3,0.1c-1.4,0-2.8,0.1-4.3,0.1c-3.9,0.1-7.8,0.2-11.7,0.2
				c-0.2,0-0.3,0.2-0.3,0.4c0,0.2,0.2,0.3,0.4,0.3c4.4,0,8.8-0.1,13.2-0.1c2.7,0,5.4,0,8.2-0.1c0.3,0,0.5-0.2,0.5-0.5
				s-0.2-0.5-0.5-0.5C34.3,25.1,33.7,25.1,33,25.1z M60.2,25.8l0.1,0.2l0.5,0.7l-0.1,0c-0.4,0.2-0.8,0.5-1.2,0.7
				c-0.3,0.2-0.6,0.4-0.8,0.6c-0.3,0.2-0.5,0.4-0.8,0.7c-0.3,0.3-0.5,0.5-0.8,0.8c-0.1,0.1,0,0.2,0,0.2c0.1,0.1,0.2,0,0.2,0
				c0.2-0.3,0.5-0.5,0.7-0.7c0.6-0.5,1.2-1,1.9-1.4l1-0.5l0.5,0.7l-0.6,0.4c-0.3,0.2-0.7,0.4-1,0.7c-0.5,0.4-1.1,0.8-1.5,1.4
				c0,0.1,0,0.1,0,0.2c0.1,0,0.1,0,0.2,0c0.2-0.4,0.6-0.7,1-1l2-1.3l0.8,0.9L62.3,29c-0.3,0.2-0.7,0.5-1.1,0.8
				c-0.2,0.1-0.3,0.3-0.5,0.4c-0.1,0.1-0.3,0.3-0.4,0.4c-0.3,0.3-0.5,0.6-0.8,0.9c-0.1,0.1,0,0.2,0,0.3c0.1,0.1,0.2,0,0.3,0
				c0.1-0.2,0.3-0.4,0.4-0.5c0.6-0.6,1.2-1.1,1.9-1.5l0.5-0.4l0.8,0.9l-0.6,0.4c-0.2,0.2-0.5,0.4-0.7,0.6c-0.2,0.2-0.5,0.4-0.7,0.6
				c-0.1,0.1-0.2,0.1-0.3,0.2L61.1,32c-0.1,0.1-0.1,0.2,0,0.3s0.2,0.1,0.3,0l0.1-0.1c0.1-0.1,0.3-0.2,0.4-0.3c0.3-0.3,0.7-0.6,1-0.9
				c0.2-0.2,0.7-0.6,1-0.6l0.7,0.8l0.3,0.3l0.8,0.9l0.3,0.4l-1.3,1c-0.5,0.4-1,0.9-1.4,1.4c-0.1,0.1-0.1,0.2,0,0.3
				c0.1,0.1,0.2,0.1,0.3,0c0.4-0.5,0.9-0.9,1.4-1.3c0.1-0.1,0.3-0.3,0.5-0.4c0.2-0.2,0.5-0.3,0.7-0.5l0.2-0.1l0.3,0.4
				c0.4,0.4,0.7,0.8,1.1,1.2c0.2,0.2,0.4,0.5,0.7,0.7l0.2,0.2l-1.3,1c-0.4,0.4-0.8,0.8-1,1.3c0,0.1,0,0.2,0.1,0.2s0.2,0,0.2-0.1
				c0.2-0.6,1-1.2,1.5-1.6c0.2-0.1,0.4-0.3,0.5-0.4l0.2-0.1l0.1,0l0.2,0l0.3,1.4l0,0.1l0,0.1l0.1,0.1l-0.1,0.1
				c-0.2,0.1-0.3,0.3-0.5,0.5c-0.1,0.1-0.2,0.2-0.3,0.3c-0.1,0.1-0.2,0.2-0.3,0.2c-0.1,0-0.1,0.1-0.2,0.1c-0.1,0.1-0.1,0.2-0.1,0.3
				c0.1,0.1,0.2,0.1,0.3,0.1l0.1-0.1c0.1-0.1,0.2-0.1,0.3-0.2c0.1-0.1,0.3-0.3,0.4-0.4c0.1-0.1,0.2-0.2,0.2-0.2l0.2-0.2l0,0.1
				c0.1,0.2,0.1,0.5,0.2,0.7l0,0.2l-0.7,0.8c-0.1,0.1-0.2,0.2-0.3,0.4c-0.1,0.1-0.3,0.2-0.4,0.3c-0.1,0.1-0.1,0.2,0,0.4
				s0.2,0.1,0.4,0c0.3-0.3,0.6-0.5,0.9-0.8l0.3-0.4l0,0.1L70,40.2c0,0.1-0.1,0.2-0.2,0.3c-0.1,0.2-0.3,0.4-0.5,0.6
				c0,0.1-0.1,0.1-0.1,0.2c-0.2,0.2-0.4,0.4-0.5,0.6c-0.2,0.2-0.5,0.5-0.7,0.6l-0.2,0.2c-0.3,0-0.7,0-1-0.1
				c-0.5-0.1-1.1-0.2-1.6-0.3l-0.1,0L64.7,42c0-0.1-0.1-0.3-0.2-0.4c-0.3-0.3-0.6-0.6-0.9-0.9c-0.4-0.4-0.9-0.9-1.3-1.3
				c-0.4-0.4-0.8-0.8-1.1-1.1c-0.4-0.4-0.8-0.8-1.2-1.1c-0.7-0.6-1.4-1.2-2.1-1.8l-0.3-0.2l-0.5-0.5l-2.2-2.1l-1-1.1l-0.6-0.6
				c0.6-0.4,1.3-0.7,1.9-1.1c0.2-0.2,0.5-0.4,0.7-0.5c0.3-0.3,0.6-0.5,0.9-0.8c0.5-0.4,0.9-0.8,1.3-1.2l0.4-0.4L60.2,25.8z
				 M62.6,26.7c0.2,0.1,0.4,0.2,0.6,0.3c0.3,0.1,0.5,0.3,0.8,0.4c0.4,0.3,0.9,0.5,1.3,0.8c0.4,0.3,0.8,0.5,1.2,0.9
				c0.1,0.1,0.2,0.2,0.3,0.2c0.5,0.4,1,1,1.3,1.5l0.2,0.5c0.2,0.5,0.3,1,0.4,1.5l0,0.4l0,0.5l-1-1c-0.7-0.6-1.3-1.3-2-1.9
				c-0.7-0.7-1.5-1.4-2.2-2.1c-0.3-0.3-0.6-0.7-0.9-1c-0.1-0.2-0.3-0.3-0.4-0.5l-0.5-0.6l0.3-0.2l0.1-0.1
				C62.3,26.6,62.4,26.6,62.6,26.7z M53,29.1l-0.3,0.3l-0.4,0.4l0-0.1l0-0.1l0.4-0.2L53,29.1z M43.3,30.2c-1.7,0-3.4,0.1-5.1,0.1
				c-2.2,0-4.4,0.1-6.6,0.1c-6,0.1-12,0.2-18,0.2c-0.2,0-0.3,0.2-0.3,0.4c0,0.2,0.2,0.3,0.4,0.3c6.8,0,13.5-0.1,20.3-0.1
				c4.2,0,8.3,0,12.5-0.1c0.3,0,0.5-0.2,0.5-0.5c0-0.3-0.2-0.5-0.5-0.5C45.4,30.2,44.4,30.2,43.3,30.2z M64.7,31.7
				c-0.7,0.6-1.4,1.1-2,1.7c-0.2,0.2-0.4,0.5-0.6,0.7c0,0.1-0.1,0.1-0.1,0.2c-0.1,0.1,0,0.2,0,0.2c0.1,0.1,0.2,0,0.2,0
				c0.5-0.7,1.2-1.3,1.9-1.9c0.3-0.2,0.5-0.4,0.8-0.6c0.1-0.1,0.1-0.2,0-0.3S64.8,31.6,64.7,31.7z M55.8,34.5l0.2,0.2L56,37.4
				c0,0.7-0.1,1.4-0.1,2.1c0,3.1,0,6.2,0,9.3c0,1.5,0,2.9,0,4.4c0,1,0,1.9,0,2.9c0,1.5,0,3,0,4.4c0,0.9,0,1.9,0,2.8c0,0.5,0,1,0,1.5
				c0,0.6,0,1.3,0,1.9c0,0.4,0,0.8,0,1.1c0,0.2,0,0.5,0,0.7l0,0.6l-0.1,0l-0.1,0.4l0.1-6.2c0-4.4,0-8.7,0-13.1L55.8,34.5z
				 M66.8,34.7c-0.2,0.1-0.3,0.2-0.4,0.3c-0.4,0.3-0.7,0.8-1.1,1.1c-0.1,0.1-0.3,0.3-0.4,0.4c-0.1,0.1-0.1,0.2,0,0.3
				c0.1,0.1,0.2,0.1,0.3,0c0.1-0.1,0.2-0.2,0.3-0.3c0.2-0.2,0.3-0.4,0.5-0.5c0.3-0.3,0.7-0.7,1.1-0.9c0.1-0.1,0.2-0.2,0.1-0.4
				C67.1,34.6,66.9,34.6,66.8,34.7z M35.4,35.7c-2.2,0-4.5,0-6.7,0.1c-5.3,0-10.6,0.1-16,0c-0.2,0-0.4,0.2-0.4,0.3s0.2,0.4,0.3,0.4
				c3.1,0,6.1,0.1,9.2,0.1c8.4,0,16.9,0.1,25.3,0.2c0.3,0,0.5-0.2,0.5-0.5c0-0.3-0.2-0.5-0.5-0.5c-2.4,0-4.9-0.1-7.3-0.1
				C38.4,35.7,36.9,35.7,35.4,35.7z M2.8,39.6l0,1.2c0,0.8,0.1,1.6,0.1,2.4c0,0.7,0.1,1.4,0.1,2.1l0,0.3L3,45.9
				c-0.1,0.3-0.1,0.6-0.2,0.9l0,0.7l-0.1-0.7v-0.3c0-1,0-1.9,0-2.9L2.8,39.6z M18.9,41c-2.1,0-4.3,0.1-6.4,0.2
				c-0.1,0-0.3,0.1-0.3,0.3c0,0.1,0.1,0.3,0.3,0.3c2.8-0.2,5.6-0.2,8.4-0.2c2.4,0,4.9,0.1,7.3,0.2c1.1,0,2.1,0.1,3.2,0.1
				c0.8,0,1.6,0.1,2.4,0.1c2.2,0.1,4.4,0.2,6.6,0.2c1.2,0,2.4,0.1,3.5,0.1c0.5,0,0.9,0,1.4,0c0.8,0,1.6,0.1,2.4,0.1
				c0.3,0,0.6-0.2,0.6-0.5s-0.2-0.6-0.5-0.6c-1,0-2-0.1-3-0.1c-1.1,0-2.3-0.1-3.4-0.1c-1.3,0-2.6-0.1-3.9-0.1
				c-1.1,0-2.2-0.1-3.3-0.1c-0.9,0-1.9,0-2.9,0c-1.4,0-2.8,0-4.3,0C24.4,40.9,21.6,40.9,18.9,41z M4.4,46.6v0.1h0.1
				c0.4-0.4,0.8-0.8,1.2-1.2v-0.1H5.6C5.2,45.8,4.8,46.2,4.4,46.6z M11.5,46.3c0,0.2,0.1,0.3,0.2,0.3c0.7,0.1,1.5,0.2,2.2,0.2
				c1.3,0.1,2.6,0.2,3.9,0.4c0.7,0.1,1.3,0.1,2,0.2c0.9,0.1,1.8,0.1,2.7,0.1c1.8,0.1,3.7,0.1,5.6,0.2c6.5,0.1,12.9,0.1,19.4,0.3
				c0.3,0,0.5-0.2,0.5-0.5S47.7,47,47.4,47c-3.3-0.1-6.5-0.2-9.8-0.2c-5.7,0-11.5,0-17.2-0.3c-1.5-0.1-3-0.1-4.4-0.2
				c-0.7,0-1.4-0.1-2.2-0.1c-0.7-0.1-1.4-0.1-2-0.2C11.6,46,11.5,46.1,11.5,46.3z M18.1,48.2c-0.8,0.4-1.6,1.1-2.2,1.6
				c-1.1,0.9-2.1,1.9-3.1,2.8c-0.3,0.3-0.6,0.5-0.8,0.8c-0.3,0.3-0.6,0.5-0.9,0.8l0,0.1l0.1,0c0.3-0.3,0.6-0.5,0.9-0.8
				c0.3-0.2,0.6-0.5,0.8-0.7c0.3-0.3,0.6-0.5,0.9-0.8c0.6-0.5,1.1-1,1.7-1.5c0.4-0.3,0.7-0.6,1.1-0.9c0.6-0.4,1.1-0.8,1.7-1.2
				c0.2-0.1,0.5-0.3,0.8-0.4c0.1,0,0.1-0.1,0.1-0.2c0-0.1-0.1-0.1-0.2-0.1C18.7,47.9,18.4,48,18.1,48.2z M6.3,51.6
				c0,0.1,0,0.1,0,0.2c0.1,0,0.1,0,0.2,0c0.3-0.4,0.6-0.8,1-1.1c0.1-0.1,0.2-0.1,0.3-0.2c0.1,0,0.1-0.1,0-0.2c0-0.1-0.1-0.1-0.2,0
				C7,50.5,6.7,51,6.3,51.6z M9.3,50.5c-0.1,0.1-0.1,0.2-0.2,0.2C9,50.9,8.9,51,8.7,51.1c-0.3,0.4-0.7,0.8-1,1.2l0,0.1l0.1,0
				c0.1-0.1,0.2-0.2,0.3-0.3c0.1-0.1,0.2-0.2,0.2-0.3c0.1-0.1,0.2-0.2,0.3-0.3c0.3-0.4,0.7-0.8,1-1.1c0.1-0.1,0.1-0.1,0-0.2
				c-0.1-0.1-0.1-0.1-0.2,0C9.5,50.3,9.3,50.4,9.3,50.5z M10.9,50.3c-0.3,0.4-0.7,0.7-1,1c-0.4,0.4-0.8,0.8-1.1,1.2
				c-0.1,0.2-0.2,0.4-0.3,0.5c0,0.1,0,0.2,0.1,0.2s0.2,0,0.2-0.1c0-0.1,0.1-0.2,0.2-0.3c0.1-0.2,0.2-0.3,0.4-0.5
				c0.3-0.4,0.6-0.7,1-1c0.2-0.2,0.4-0.4,0.6-0.5c0.1-0.1,0.2-0.2,0.3-0.3c0.1-0.1,0.1-0.2,0-0.3C11.1,50.2,10.9,50.2,10.9,50.3z
				 M8.1,54.5L9,55c0.5,0.2,1,0.4,1.6,0.6c0.6,0.2,1.2,0.4,1.8,0.5c0.2,0,0.4,0.1,0.6,0.1l0.1,0L13,56.4l0,0.1l0.1,0l0.2-0.2
				l1.1,0.1c0.4,0,0.8,0,1.2,0.1l1.2,0l-0.2,0.2c-0.3,0.3-0.5,0.6-0.8,0.9l0,0.1l0.1,0c0.3-0.3,0.5-0.6,0.8-0.9l0.2-0.2h0.1
				c0.5,0,0.9-0.1,1.4-0.1l0.1,0l0,1.1l0,1l-0.5,0.5l0,0.1l0.1,0l0.4-0.3l-0.1,1.2l0,0.4l-0.6,2.6c-0.1,0.7-0.2,1.4-0.3,2.1
				c0,0.4,0,0.9,0,1.3l0,0.4l-0.1,0.1l-1.3-1.7c0.4-0.4,0.7-0.7,1.1-1.1c0.1-0.1,0.1-0.2,0-0.2s-0.2-0.1-0.2,0
				c-0.2,0.2-0.4,0.4-0.6,0.6l-0.5,0.5l-0.4-0.6l-0.8-1l0.2-0.2c0.1-0.1,0.3-0.2,0.5-0.3c0.1-0.1,0.3-0.2,0.4-0.3l0.1-0.1
				c0-0.1,0-0.1,0-0.2s-0.1,0-0.2,0l-0.1,0.1c-0.1,0.1-0.3,0.2-0.4,0.3c-0.1,0-0.2,0.1-0.3,0.2l-0.4,0.3l-0.8-1l0.8-0.7v-0.2h-0.2
				c-0.2,0.2-0.4,0.4-0.7,0.7L13.8,62l-1-1.4l0-0.1c0.2-0.2,0.4-0.4,0.7-0.6c0.1-0.1,0.1-0.1,0-0.2c-0.1-0.1-0.1-0.1-0.2,0l-0.6,0.6
				l-1-1.4l0.2-0.1l0.1,0c0.1,0,0.1-0.1,0.1-0.2c0-0.1-0.1-0.1-0.2-0.1c0,0-0.1,0.1-0.2,0.1l-0.1,0.1L11,58.3l-0.7-0.9l0.5-0.3
				c0.2-0.1,0.4-0.2,0.6-0.2c0.1,0,0.1-0.1,0.1-0.2c0-0.1-0.1-0.1-0.2-0.1c-0.1,0-0.1,0-0.2,0.1c-0.1,0-0.2,0.1-0.3,0.2
				c-0.1,0.1-0.3,0.2-0.4,0.3l-0.2,0.1l-0.5-0.7L8.1,54.5z M7.6,54.8l0.5,0.6c0.4,0.5,0.7,0.9,1.1,1.4l0.5,0.7l-0.1,0.1L8.4,56
				L7.6,54.8z M18.6,55.8L18.6,55.8l-0.3,0.1L18.6,55.8z M21.5,56.5c-0.2,0.4-0.5,0.7-0.8,1.1c0,0.1,0,0.2,0,0.2c0.1,0,0.2,0,0.2,0
				c0.2-0.4,0.5-0.7,0.8-1.1c0-0.1,0-0.2,0-0.2C21.7,56.4,21.6,56.4,21.5,56.5z M36.3,57.4c-1.4,0.1-2.8,0.3-4.2,0.4
				c-0.4,0-0.7,0-1.1,0.1c-0.5,0-0.9,0-1.4,0.1c-0.8,0-1.7,0.1-2.5,0c-0.4,0-0.8,0-1.2,0c-0.1,0-0.2,0.1-0.2,0.2s0.1,0.2,0.2,0.2
				c0.2,0,0.4,0,0.7,0c0.6,0,1.2,0,1.9,0c0.8,0,1.6,0,2.4-0.1c1.2,0,2.4-0.1,3.5-0.2c2-0.1,4-0.2,6-0.3c1,0,1.9,0,2.9,0.1
				c0.4,0,0.9,0,1.3,0.1c0.2,0,0.5,0,0.7,0.1c0.2,0,0.5,0.1,0.7,0.1c0.2,0,0.5-0.1,0.5-0.4s-0.1-0.5-0.4-0.5c-0.3,0-0.6-0.1-0.9-0.1
				c-0.8-0.1-1.7-0.1-2.5-0.1C40.5,57.1,38.4,57.2,36.3,57.4z M9.8,57.6l1.1,1.5l-0.1,0.1l-0.5-0.7l-0.6-0.8L9.8,57.6z M11.1,59.2
				l0.6,0.8l0.5,0.6l-0.1,0.1l-0.9-1.1l-0.3-0.4L11.1,59.2z M12.3,60.9l1.1,1.5l-0.7-0.8L12.2,61L12.3,60.9z M44.4,61.8
				C44,61.9,43.6,62,43.2,62c-0.2,0-0.4,0.1-0.7,0.1c-0.9,0.1-1.7,0.1-2.5,0.1c-1.2,0-2.4,0-3.6-0.1c-2.5-0.1-5-0.3-7.4,0
				c-0.7,0.1-1.4,0.2-2.1,0.3c-0.2,0-0.3,0.2-0.3,0.4c0,0.2,0.2,0.3,0.4,0.3c0.6-0.1,1.3-0.3,1.9-0.3c0.4,0,0.8-0.1,1.2-0.1
				c0.5,0,1,0,1.4,0c0.7,0,1.4,0,2.1,0c1.3,0.1,2.7,0.2,4,0.2c0.6,0,1.3,0.1,1.9,0.1c0.5,0,1,0,1.5,0c0.4,0,0.8,0,1.2,0
				c0.4,0,0.7,0,1.1-0.1c0.2,0,0.3,0,0.5-0.1c0.4-0.1,0.9-0.1,1.3-0.2c0.4-0.1,0.8-0.2,1.2-0.3c0.3-0.1,0.4-0.3,0.4-0.6
				c-0.1-0.3-0.3-0.4-0.6-0.4C45.6,61.6,45,61.7,44.4,61.8z M18.5,62.4l0,0.4c0,0.9,0,1.8,0.1,2.7l0.1,1l0.3,1.7l0.1,0.4l0,0.1
				L18.6,68l-0.2-0.8c-0.1-0.4-0.1-0.8-0.1-1.2c0-0.1,0-0.3,0-0.4c-0.1-1,0.1-2,0.2-2.9L18.5,62.4z M19.4,65.1l0.1,0.2
				c0.1,0.1,0.2,0.1,0.3,0.1l0.2-0.1l-0.5,0.4L19.4,65.1z M19.1,69.2l0.3,0.4l0.1,0.3l0,0.1l0-0.1L19.1,69.2z M55.9,70l0,0.7
				c0,0.3,0,0.5,0,0.8c0,0.1,0,0.2-0.1,0.2l-0.1,0.1l0-0.3l0-0.3l0-0.8L55.9,70z M55.3,71.6l0.1,0.4v0.2l-0.1,0.1L55.3,71.6z"/>
		</g>
	</g>
</g>
</svg>
