<?xml version="1.0" encoding="utf-8"?>
<!-- Generator: Adobe Illustrator 20.1.0, SVG Export Plug-In . SVG Version: 6.00 Build 0)  -->
<svg version="1.1" id="Layer_1" xmlns="http://www.w3.org/2000/svg" xmlns:xlink="http://www.w3.org/1999/xlink" x="0px" y="0px"
	 viewBox="0 0 75.8 75.8" style="enable-background:new 0 0 75.8 93.8;" xml:space="preserve">
<g transform="scale(1 -1)" fill="#00C853">
	<g transform="translate(0 -75)">
		<g>
			<path marker-end="none" marker-start="none" d="M8.4,2c0.1,0.1,0.2,0.2,0.3,0.3c0,0-0.1,0-0.1,0C8.6,2.2,8.5,2.1,8.4,2
				c0,0-0.1,0-0.1,0c0,0,0,0.1,0,0.1c0.1,0.1,0.1,0.1,0.2,0.2c0,0,0,0.1,0,0.1c-0.1,0-0.2,0.1-0.3,0.1c-0.1,0-0.1,0-0.2,0
				c0,0-0.1,0-0.1,0.1C7.6,2.8,7.3,3,7.1,3.2C7,3.3,6.8,3.4,6.7,3.5C6.3,3.7,5.9,4,5.6,4.4C5.4,4.6,5.3,4.7,5.3,4.9
				C5.2,5,5.1,5.1,5.1,5.2C4.9,5.4,4.8,5.7,4.7,5.9C4.5,6.1,4.4,6.3,4.4,6.6C4.3,6.7,4.3,6.8,4.2,7l0,0.1c0,0.1,0.1,0.1,0.1,0.1
				c0,0-0.1,0-0.1,0.1C4,7.4,4,7.7,4.2,7.9c1.5,1.5,3,3,4.5,4.5c0,0,0,0,0,0c0,0,0,0.1,0,0.1c0,0,0.1,0,0.1,0c0,0,0,0,0,0
				c12,12,24,24,36.1,36c2.7,2.7,5.4,5.4,8.1,8.1c0.4,0.4,2.3,2.3,2.7,2.7c0.5,0.5,0.8,1.1,1.4,1.4c0.6,0.2,0.9,0.9,1.4,1.4
				c0.1,0.1,0.2,0.1,0.3,0.1c0,0,0,0,0,0c0.1,0.2,0.3,0.3,0.4,0.5c0.1,0.1,0.2,0.1,0.3,0c0.1-0.1,0.1-0.2,0-0.3c0,0,0-0.1-0.1-0.1
				c0.1,0,0.3,0,0.4,0c0.2,0,0.2-0.1,0.3-0.2c0,0,0,0,0.1,0c0.2,0,0.5-0.1,0.7-0.2c0.1-0.1,0.3-0.1,0.4-0.2c0.7-0.4,1.4-1,1.7-1.8
				c0-0.1,0.1-0.2,0.1-0.3c0,0,0,0,0,0c0,0,0.1-0.1,0.1-0.1c0.1-0.2,0.3-0.4,0.4-0.6c0.1-0.2,0.2-0.5,0.3-0.7c0-0.1-0.1-0.3-0.2-0.3
				c-0.1,0-0.2,0-0.3,0.1c0-0.1,0-0.3-0.1-0.4c0,0-0.1-0.1-0.1-0.1c0.1-0.2,0.1-0.4-0.1-0.5c-0.1-0.1-0.2-0.2-0.3-0.3
				c0,0,0-0.1,0-0.1c0-0.1-0.1-0.2-0.3-0.2c0,0,0,0,0,0c-2.1-2.1-5-5-16.4-16.5c0,0-0.1-0.1-0.1-0.1c-0.7-0.8-1.5-1.5-2.2-2.3
				c-0.5-0.5-0.9-0.9-1.4-1.4c-0.2-0.2-0.4-0.4-0.6-0.6c0,0-0.1-0.1-0.1-0.1c0,0,0,0,0,0c0-0.1-0.1-0.1-0.1-0.1
				c-9.6-9.7-19.2-19.3-28.9-29c-1-1-2-2.1-3-3.1c0.1,0,0.2,0,0.2,0c0.1,0,0.2-0.1,0.2-0.2c0-0.1-0.1-0.2-0.2-0.2
				c-0.2,0-0.4,0-0.6,0.1C9.1,2.4,8.8,2.2,8.6,1.9c0,0-0.1,0-0.1,0C8.4,1.9,8.4,2,8.4,2z M8.8,3.4C8.5,3.5,8.2,3.6,8,3.7
				c-0.1,0-0.2,0.1-0.3,0.1c0.1-0.1,0.1-0.1,0.2-0.2C8,3.5,8,3.4,7.9,3.4c0.3-0.1,0.5-0.1,0.8-0.2c0.1,0,0.1,0,0.2,0
				C8.8,3.2,8.8,3.3,8.8,3.4z M8.9,3.7C9.2,4,9.5,4.2,9.7,4.5c-0.1,0-0.3,0-0.4,0.1C8.9,4.6,8.5,4.7,8.1,4.8
				c0.2-0.3,0.5-0.6,0.7-0.9c0-0.1,0-0.2,0-0.2C8.9,3.7,8.9,3.7,8.9,3.7C8.9,3.7,8.9,3.7,8.9,3.7z M7.8,4.9C7.3,5,6.8,5.1,6.4,5.3
				C6.7,4.9,7,4.5,7.3,4.2C7.6,4.1,8,4,8.3,3.9c0.1,0,0.2-0.1,0.3-0.1C8.3,4.1,8,4.5,7.8,4.9z M7.1,4C7.1,4,7,4,7,4
				C7.1,4,7.1,3.9,7.2,3.9c0,0,0.1,0,0.1-0.1C7.2,3.9,7.2,3.9,7.1,4z M6.7,4.5C6.4,4.8,6.2,5.1,5.9,5.4c0.2-0.4,0.5-0.8,0.8-1.1
				c0,0,0.1,0,0.1,0c0,0,0,0,0.1,0C6.8,4.4,6.7,4.5,6.7,4.5z M10.1,4.8c0,0-0.1,0-0.1,0C9.7,5.1,9.4,5.3,9.1,5.6
				C9,5.7,8.9,5.9,8.8,6c-0.5,0.2-1,0.3-1.5,0.5c-0.1,0-0.1,0.1-0.1,0.1c0,0.1,0.1,0.1,0.1,0.1c0.4-0.1,0.8-0.3,1.2-0.4
				c-0.4,0.5-0.7,1-1,1.5C7.4,8,7.2,8.3,7.1,8.5c0,0-0.1,0.1-0.1,0.1C6.9,8.5,6.9,8.5,6.8,8.4C6.5,8.2,6.3,8,6,7.8
				c0.2-0.4,0.5-0.7,0.7-1.1c0.4-0.6,0.8-1.1,1.2-1.7C8.4,5,8.8,4.9,9.3,4.9C9.5,4.8,9.8,4.8,10.1,4.8C10,4.8,10,4.8,10.1,4.8z
				 M10.7,5.5c-0.4,0.1-0.8,0.2-1.2,0.3c-0.1,0-0.2,0.1-0.3,0.1c0.2-0.2,0.4-0.4,0.5-0.5c0.1-0.1,0.2-0.2,0.4-0.3c0,0,0.1-0.1,0-0.1
				C10.3,5.1,10.5,5.3,10.7,5.5z M6.6,6.6C6.3,6.9,6.1,7.3,5.8,7.7C5.7,7.6,5.6,7.5,5.4,7.4c0-0.4,0-0.8,0.1-1.1
				c0.1-0.1,0.1-0.2,0.2-0.2C5.9,5.9,6,5.8,6.1,5.7C6.5,5.4,7,5.3,7.5,5.2C7.2,5.6,6.9,6.1,6.6,6.6z M5.8,5.2L5.8,5.2L5.8,5.2
				C5.7,5.2,5.8,5.2,5.8,5.2L5.8,5.2z M5.6,5.4C5.5,5.6,5.5,5.8,5.4,6c0,0.1,0,0.1-0.1,0.2c0,0-0.1,0.1-0.1,0.1
				C5.4,6,5.5,5.7,5.6,5.4l0.1-0.2C5.7,5.3,5.7,5.4,5.6,5.4z M11,5.8c0,0-0.1,0-0.1,0.1c-0.2,0.2-0.5,0.5-0.7,0.8
				C10,6.9,9.8,7.2,9.5,7.5c-0.1,0-0.2,0.1-0.3,0.1C8.9,7.7,8.7,7.8,8.4,7.9c0,0-0.1,0.1,0,0.1c0,0,0.1,0.1,0.1,0
				C8.7,8,9,7.9,9.2,7.8c0,0,0.1,0,0.1,0C9.3,7.9,9.2,8,9.1,8.1C8.9,8.4,8.7,8.7,8.5,9C8.4,9.2,8.3,9.4,8.2,9.5c0,0,0,0,0,0
				C7.8,9.3,7.5,9,7.1,8.7c0,0,0.1-0.1,0.1-0.1c0.5-0.6,0.9-1.3,1.4-2c0.1-0.1,0.2-0.3,0.3-0.4C9.6,6,10.3,5.9,11,5.8
				C11,5.8,11,5.8,11,5.8z M12.1,6.9c-0.2,0-0.3,0.1-0.5,0.1c-0.5,0.1-1.1,0.2-1.6,0.4c0.4-0.4,0.7-0.9,1.1-1.2c0,0,0-0.1,0-0.1
				C11.5,6.3,11.8,6.6,12.1,6.9z M4.9,6.5l0,0.2c0,0,0,0.1,0,0.1C4.8,6.9,4.7,7,4.7,7.1c0,0,0,0.1,0,0.1c0,0,0,0,0,0
				C4.6,7.2,4.5,7.2,4.5,7.2c0,0,0,0,0-0.1l0-0.1c0-0.1,0.1-0.2,0.1-0.2c0.1-0.2,0.2-0.3,0.2-0.4l0.1-0.1C4.9,6.3,4.9,6.4,4.9,6.5z
				 M5.2,6.9c0,0,0-0.1,0-0.1c0,0,0,0,0,0C5.2,6.8,5.2,6.8,5.2,6.9z M13.3,8.1c-0.4,0.1-0.9,0.2-1.3,0.3c0.1-0.2,0.2-0.3,0.4-0.5
				c0.1-0.1,0-0.2,0-0.2c-0.1-0.1-0.2,0-0.2,0c-0.2,0.3-0.4,0.5-0.6,0.8c-0.1,0-0.3,0.1-0.4,0.1c-0.4,0.1-0.8,0.2-1.1,0.3
				C9.9,8.9,9.9,9,9.9,9c0,0.1,0.1,0.1,0.1,0.1c0.4-0.1,0.8-0.2,1.2-0.3c-0.5,0.7-1.1,1.4-1.6,2.1c-0.3-0.3-0.7-0.6-1-0.9
				C8.5,9.9,8.4,9.8,8.3,9.7c0.1-0.1,0.1-0.2,0.2-0.3C8.7,9.1,9,8.7,9.3,8.3c0.2-0.2,0.3-0.5,0.5-0.7c0.5-0.2,1-0.3,1.6-0.3
				c0.2,0,0.5-0.1,0.7-0.1c0.1,0,0.1,0,0.2,0C12.6,7.4,13,7.7,13.3,8.1z M6.8,8.8C6.8,8.8,6.8,8.8,6.8,8.8c0,0.1,0,0.1,0,0.1
				C6.5,8.6,6.2,8.3,5.9,8.1C6.2,8.3,6.5,8.5,6.8,8.8z M15.4,10.2c-0.3,0-0.5,0.1-0.8,0.2c0,0,0.1-0.1,0.1-0.1c0,0,0.1-0.1,0.1-0.1
				c0.1-0.1,0-0.2,0-0.2s-0.2,0-0.2,0c-0.1,0.2-0.3,0.4-0.4,0.5c-0.2,0-0.3,0.1-0.4,0.1c-0.6,0.2-1.2,0.4-1.7,0.7
				c-0.1,0-0.1,0.1,0,0.1s0.1,0.1,0.1,0c0.5-0.3,1.1-0.5,1.7-0.7c-0.1,0.1-0.2,0.3-0.3,0.4c-0.3,0.3-0.6,0.7-0.8,1.1
				c-0.2,0.3-0.5,0.7-0.6,1c0,0,0,0,0,0c-0.2-0.3-0.6-0.6-0.9-1c0.4-0.6,0.8-1.1,1.3-1.7c0.2-0.3,0.4-0.5,0.6-0.8
				c0.1-0.1,0.2-0.2,0.3-0.4c0-0.1,0.1-0.1,0.2-0.2c0.1-0.1,0.1-0.2,0.2-0.3c0-0.1,0-0.2,0-0.2c-0.1,0-0.2,0-0.2,0
				C13.2,9.2,13,9.6,12.7,10c-0.3,0.4-0.6,0.8-0.9,1.2c-0.3,0.4-0.5,0.7-0.8,1.1c-0.4-0.4-0.8-0.8-1.2-1.2c0.6-0.8,1.2-1.6,1.9-2.4
				c0.6-0.2,1.2-0.3,1.8-0.4C14.1,8.9,14.8,9.6,15.4,10.2z M7.8,9.6C7.8,9.7,7.9,9.8,8,9.8c0,0.1-0.1,0.1-0.1,0.2
				c-0.3-0.3-0.7-0.7-1-1c0,0,0-0.1,0.1-0.1C7.2,9.2,7.5,9.4,7.8,9.6z M9.4,11.2c-0.1,0.1-0.1,0.1-0.2,0.2C8.9,11,8.4,10.6,8,10.2
				c0-0.1,0.1-0.1,0.1-0.2C8.6,10.4,9,10.8,9.4,11.2z M16.1,10.9C16.1,11,16.1,11,16.1,10.9c-0.3,0.3-0.5,0.6-0.7,0.9c0,0,0,0,0,0
				c-0.6,0.1-1.3,0.3-1.9,0.6c-0.1,0.1-0.3,0.1-0.4,0.2c-0.1,0-0.1,0.1,0,0.1c0,0.1,0.1,0.1,0.1,0.1c0.1-0.1,0.3-0.1,0.4-0.2
				c0.2-0.1,0.4-0.1,0.6-0.2c0.1,0,0.2-0.1,0.3-0.1c0.2-0.1,0.4-0.1,0.6-0.1c-0.2,0.3-0.4,0.7-0.6,1c-0.2,0.4-0.5,0.7-0.7,1.1
				c-0.1,0.1-0.2,0.3-0.3,0.4c0,0,0,0-0.1,0.1c-0.2-0.2-0.3-0.4-0.5-0.5c-0.2-0.3-0.5-0.5-0.7-0.8c0.3-0.6,0.9-1.3,1.3-1.8
				c0.3-0.3,0.5-0.6,0.8-0.9c0,0,0.1,0,0.1,0c0.4-0.1,0.8-0.2,1.2-0.2C15.8,10.6,16,10.8,16.1,10.9z M16.8,11.6
				c-0.3,0.1-0.6,0.1-0.9,0.2c0,0-0.1,0-0.1,0c0.2-0.2,0.4-0.4,0.6-0.6C16.5,11.3,16.7,11.5,16.8,11.6z M10.8,12.6
				c0,0.1-0.1,0.2-0.1,0.3c-0.4-0.4-0.8-0.8-1.3-1.3c0.1-0.1,0.1-0.1,0.2-0.2C10,11.7,10.4,12.2,10.8,12.6z M17.3,12.1
				c-0.2,0.4-0.5,0.8-0.7,1.1c-0.2,0.1-0.4,0.1-0.6,0.2c-0.4,0.1-1,0.3-1.3,0.6c0,0-0.1,0.1,0,0.1c0,0,0.1,0.1,0.1,0
				c0.2-0.2,0.7-0.4,1-0.5c0.2-0.1,0.4-0.1,0.5-0.2c-0.2,0.3-0.5,0.6-0.7,0.9c-0.1,0.2-0.3,0.4-0.4,0.6c-0.2,0.3-0.4,0.6-0.5,1
				c-0.4-0.4-0.7-0.8-1.1-1.2c0.2-0.2,0.4-0.4,0.5-0.7c0.1-0.2,0.3-0.4,0.4-0.7c0.1-0.2,0.3-0.5,0.4-0.7c0.1-0.2,0.2-0.4,0.3-0.5
				c0.1-0.1,0.1-0.2,0.2-0.2c0.2,0,0.5-0.1,0.7-0.1c0.3,0,0.5-0.1,0.8-0.1C17.1,11.9,17.2,12,17.3,12.1z M18,12.9
				c-0.2,0.1-0.5,0.1-0.7,0.2c-0.1,0-0.2,0-0.3,0.1c0.1-0.1,0.2-0.2,0.2-0.3c0.1-0.1,0.2-0.3,0.3-0.4C17.7,12.5,17.9,12.7,18,12.9z
				 M11.1,12.8c0.3,0.3,0.6,0.6,0.9,0.9c0,0,0,0,0,0c0,0,0,0.1,0,0.1c0,0,0.1,0,0.1,0c0.4,0.4,0.8,0.8,1.2,1.2
				c0,0.1-0.1,0.1-0.1,0.2c-0.8-0.7-1.5-1.5-2.3-2.2C10.9,12.9,10.9,12.8,11.1,12.8C11,12.7,11,12.7,11.1,12.8
				C11,12.7,11,12.8,11.1,12.8z M18.9,13.7C18.9,13.7,18.9,13.7,18.9,13.7c0,0-0.1,0.1-0.1,0.1c-0.1,0-0.2,0.1-0.3,0.1
				c-0.3,0.1-0.5,0.2-0.8,0.3c-0.5,0.2-1.1,0.4-1.6,0.6C16,14.9,16,15,16,15c0,0.1,0.1,0.1,0.2,0c0.4-0.2,0.9-0.4,1.4-0.5
				c0.3-0.1,0.6-0.2,1-0.3c0,0,0,0,0,0c-0.5,0.6-0.8,1.1-1.2,1.6c0,0,0,0-0.1,0c-0.1,0-0.1,0.1,0,0.2c0,0,0,0,0,0
				c-0.8,1.1-1,1.3-1.1,1.6c-0.4-0.5-0.9-0.9-1.3-1.4c0.3-0.8,0.9-1.6,1.4-2.2c0.2-0.2,0.3-0.4,0.5-0.6c0,0,0.1,0,0.1,0
				c0.3-0.1,0.6-0.2,0.9-0.2c0.1,0,0.3-0.1,0.4-0.1C18.5,13.3,18.7,13.5,18.9,13.7z M20.1,14.9c-0.4,0.1-0.7,0.2-1.1,0.3
				c-0.2,0.1-0.5,0.1-0.7,0.2c-0.2,0.1-0.3,0.1-0.4,0.2c0,0,0,0,0.1-0.1c0.3-0.5,0.7-0.9,1.1-1.4c0.1,0,0.1,0,0.2-0.1
				C19.5,14.3,19.8,14.6,20.1,14.9z M22.6,17.4c-0.1,0-0.2,0-0.2,0c-0.1,0.1-0.2,0.3-0.3,0.4c0,0,0,0.1-0.1,0.1
				c-0.6,0.1-1.2,0.2-1.8,0.3c-0.1,0-0.1,0.1-0.1,0.2c0,0.1,0.1,0.1,0.2,0.1c0.4-0.1,0.9-0.2,1.4-0.3c0,0,0.1,0,0.1,0
				c-0.2,0.2-0.3,0.5-0.5,0.7c-0.2,0.3-0.4,0.6-0.5,0.8c-0.4,0.6-0.7,1.2-1,1.8c-0.4-0.4-0.8-0.9-1.2-1.3c0.1-0.2,0.2-0.4,0.3-0.5
				c0.2-0.2,0.3-0.5,0.5-0.7c0.4-0.5,0.9-1,1.3-1.5c0.2-0.2,0.4-0.5,0.6-0.7c0.1-0.1,0.1-0.2,0.2-0.2c0.1-0.1,0-0.2,0-0.2
				s-0.2,0-0.2,0c-0.1,0.2-0.2,0.4-0.4,0.5c-0.2,0.3-0.5,0.6-0.7,0.8c-0.6,0.7-1.2,1.4-1.6,2.2c-0.3-0.3-0.6-0.6-0.9-1
				c0.2-0.5,0.5-1.1,0.8-1.6c0,0,0.1,0,0.1-0.1c0.5-0.3,1.1-0.5,1.6-0.7c0.2-0.1,0.3-0.1,0.5-0.2c0.1,0,0.2-0.1,0.3-0.1
				c0.1,0,0.1-0.1,0.1-0.2s-0.1-0.1-0.2-0.1c-0.3,0.1-0.6,0.2-0.9,0.4c-0.4,0.2-0.8,0.3-1.2,0.5c0,0,0,0,0,0
				c0.1-0.2,0.2-0.4,0.4-0.5c0.2-0.3,0.5-0.6,0.7-0.8c0.1-0.1,0.2-0.2,0.3-0.3c0,0,0.1-0.1,0-0.2c0.1,0,0.2,0,0.3-0.1
				C21.1,15.9,21.8,16.7,22.6,17.4z M14.7,16.6c0.4,0.5,0.9,0.9,1.3,1.4c0,0,0,0,0,0c-0.9-0.9-1.8-1.8-2.7-2.7l0,0
				c0-0.1,0.1-0.1,0.1-0.2C13.8,15.6,14.3,16.1,14.7,16.6z M18.8,16.3c-0.2,0.3-0.4,0.6-0.6,1c-0.1,0.1-0.2,0.1-0.2,0.2
				c-0.1,0-0.1,0.1,0,0.2c0,0,0,0,0,0c-0.2,0.4-0.4,0.8-0.6,1.3c-0.3-0.3-0.5-0.6-0.8-0.9c-0.1-0.1-0.2-0.2-0.2-0.2
				c0.4-0.6,0.8-1.2,1.2-1.8c0.6-0.4,1.4-0.6,2.1-0.7C19.4,15.6,19.1,16,18.8,16.3z M22.9,17.8c-0.1,0-0.3,0-0.4,0.1
				c0-0.1,0.1-0.1,0.1-0.2c0-0.1,0-0.1,0-0.2C22.7,17.6,22.8,17.7,22.9,17.8z M24.1,19c-0.1,0.2-0.3,0.3-0.4,0.5c-0.1,0-0.2,0-0.2,0
				c-0.4,0.1-0.7,0.2-1.1,0.3c-0.3,0.1-0.4,0.3-0.7,0.5c0,0,0,0.1,0,0.1c0,0,0.1,0,0.1,0c0.4-0.5,1-0.6,1.6-0.7
				c-0.6,0.7-1.2,1.4-1.8,2.1c-0.2,0.2-0.4,0.4-0.6,0.6c-0.1,0.1-0.2,0.2-0.3,0.3c-0.3-0.3-0.6-0.6-0.8-1c0.3-0.7,0.7-1.3,1.1-1.9
				c0.4-0.6,0.8-1.2,1.3-1.7c0.3,0,0.6-0.1,0.9-0.1C23.5,18.3,23.8,18.7,24.1,19z M16.7,18.7c-0.2-0.2-0.4-0.4-0.6-0.6c0,0,0,0,0,0
				C16.9,19,16.8,18.9,16.7,18.7z M24.4,19.2C24.4,19.2,24.4,19.3,24.4,19.2C24.4,19.3,24.4,19.2,24.4,19.2
				C24.4,19.2,24.4,19.2,24.4,19.2z M25.4,20.2C25.4,20.2,25.3,20.2,25.4,20.2C25.3,20.3,25.3,20.3,25.4,20.2
				c-0.3,0.1-0.5,0.2-0.7,0.3c-0.7,0.2-1.5,0.6-2.2,1c-0.1,0-0.1,0.1,0,0.1c0,0.1,0.1,0.1,0.1,0c0.7-0.4,1.4-0.7,2.2-1
				c0,0,0.1,0,0.1,0c-0.1,0.2-0.3,0.3-0.4,0.4c-0.8,0.8-1.6,1.7-1.9,2.7c0,0.1,0,0.1,0.1,0.1c0.1,0,0.1,0,0.1-0.1
				c0.2-0.4,0.4-0.9,0.7-1.2c0.2-0.2,0.3-0.4,0.5-0.6c0.2-0.3,0.5-0.5,0.7-0.8c0.1-0.1,0.2-0.2,0.3-0.4c0.1-0.1,0.2-0.2,0.3-0.4
				c0.1,0,0.1,0,0.2,0c0.3,0.3,0.5,0.5,0.8,0.8c0,0-0.1,0-0.1,0.1c0,0.1-0.1,0.1-0.1,0.2c0,0,0,0,0,0c-0.2,0.1-0.5,0.1-0.7,0.2
				c-0.5,0.1-1.2,0.4-1.6,0.7c-0.1,0-0.1,0.1,0,0.2c0,0.1,0.1,0.1,0.2,0c0.1-0.1,0.2-0.1,0.3-0.2c0.4-0.2,0.8-0.3,1.2-0.4
				c0.1,0,0.2-0.1,0.4-0.1c-0.2,0.3-0.4,0.5-0.6,0.8c-0.2,0.3-0.4,0.5-0.7,0.8c0,0-0.1,0-0.1,0c-0.1,0-0.1,0.1-0.1,0.2l0,0
				c-0.4,0.5-0.7,1-0.8,1.6c0,0.1,0,0.1,0.1,0.1s0.1,0,0.1-0.1c0.1-0.3,0.2-0.5,0.3-0.8c0.1-0.3,0.3-0.6,0.5-0.8
				c0.4-0.2,0.8-0.3,1.2-0.5c0.2-0.1,0.4-0.2,0.7-0.2c0.2-0.1,0.5-0.1,0.7-0.2c-0.4,0.4-0.8,0.9-1.1,1.4c-0.3,0.1-0.7,0.3-1,0.4
				c-0.1,0-0.1,0.1-0.1,0.2c0,0.1,0.1,0.1,0.2,0.1c0.1-0.1,0.3-0.2,0.5-0.2c-0.4,0.5-0.7,1-1.1,1.6c0,0,0,0.1,0,0.1c0,0,0.1,0,0.1,0
				c0.4-0.6,0.8-1.2,1.3-1.8c0.4-0.1,0.8-0.2,1.2-0.3c0.2-0.1,0.4-0.1,0.7-0.2c0.1,0,0.2,0,0.3-0.1c0,0,0.1,0,0.1,0
				c-0.2,0.2-0.4,0.5-0.5,0.7c-0.3,0.4-0.6,0.8-0.8,1.2l0,0c0,0,0,0,0,0c-0.2,0.2-0.2,0.2-0.2,0.3c-0.3,0.4-0.6,0.9-0.8,1.3
				c-0.1,0.1-0.2,0.3-0.2,0.4c-1.7-1.7-3.4-3.4-5.1-5c0.3-0.2,0.5-0.4,0.8-0.7c0.4-0.4,0.8-0.9,1.2-1.3c0.4-0.4,0.7-0.8,1.1-1.2
				c0.1,0,0.3-0.1,0.4-0.1c0.1,0,0.1-0.1,0.2-0.1C24.9,19.7,25.1,20,25.4,20.2z M26.6,21.5C26.6,21.5,26.6,21.5,26.6,21.5
				C26.6,21.5,26.6,21.5,26.6,21.5C26.6,21.5,26.6,21.5,26.6,21.5z M27.7,22.6C27.7,22.6,27.7,22.6,27.7,22.6c0,0-0.1,0-0.1,0
				c-0.1,0-0.3,0.1-0.5,0.1c-0.3,0.1-0.5,0.1-0.8,0.2c-0.4,0.2-0.8,0.3-1.2,0.5c0.3-0.3,0.5-0.6,0.8-0.9c0.2-0.2,0.4-0.4,0.5-0.6
				c0,0,0.1,0,0.1,0c0.1,0,0.3-0.1,0.4-0.1C27.2,22,27.5,22.3,27.7,22.6z M28.7,23.6C28.7,23.6,28.7,23.6,28.7,23.6
				c-0.7,0.3-1.4,0.4-2.1,0.6c0.4-0.5,0.8-0.9,1.2-1.4c0,0,0,0,0-0.1C28.2,23.1,28.4,23.3,28.7,23.6z M30.4,25.3c-0.1,0-0.3,0-0.4,0
				c0,0,0-0.1,0-0.1c-0.1-0.1-0.2-0.1-0.2,0c0,0-0.1,0.1-0.1,0.1c-0.2,0-0.3,0-0.5,0.1c-0.3,0.1-0.6,0.1-0.9,0.2
				c-0.2,0.1-0.4,0.1-0.6,0.2c0.2-0.3,0.4-0.5,0.6-0.7c0.2-0.3,0.5-0.6,0.7-0.9c0.1-0.1,0-0.2,0-0.2c0,0,0,0,0,0
				c0,0,0.1-0.1,0.1-0.1C29.4,24.3,29.9,24.8,30.4,25.3z M31.7,26.6c-0.7,0.1-1.4,0.4-2.1,0.7c-0.3,0.1-0.7,0.2-1,0.3
				c-0.1,0-0.1,0.1-0.1,0.1c0,0.1,0.1,0.1,0.1,0.1c0.4-0.1,0.8-0.2,1.2-0.4c0.4-0.1,0.9-0.3,1.3-0.4c-1,1.1-1.8,2.2-2.5,3.4
				c-0.8-0.8-1.6-1.6-2.4-2.4c0.1-0.1,0.1-0.2,0.2-0.4c0.2-0.4,0.6-0.9,0.8-1.3c0.1-0.1,0.1-0.2,0.2-0.3c0.6-0.2,1.3-0.4,1.9-0.4
				c-0.8,0.9-1.4,1.9-1.9,3c0,0.1,0,0.1,0.1,0.2c0.1,0,0.1,0,0.2-0.1c0.2-0.3,0.4-0.6,0.5-1c0.5-0.8,1-1.6,1.7-2.2
				c0.3,0,0.5,0,0.8,0c0,0,0,0,0.1,0C31,25.9,31.4,26.2,31.7,26.6z M32.7,27.6c-0.3,0.1-0.6,0.2-0.9,0.2c-0.6,0.2-1.1,0.3-1.6,0.6
				c0.4-0.5,0.8-1,1.3-1.4c0,0,0-0.1,0-0.1c0.1,0,0.3-0.1,0.4-0.1C32.2,27.1,32.5,27.4,32.7,27.6z M33.1,28
				c-0.7,0.6-1.2,1.3-1.7,2.1c0,0,0,0.1-0.1,0.1c0,0-0.1,0-0.1,0.1c0,0-0.1,0.1-0.1,0.1c-0.2,0.3-0.4,0.6-0.5,0.9
				c-0.1,0.2-0.2,0.3-0.3,0.5c0,0.1-0.1,0.2-0.1,0.3c0,0,0,0.1,0,0.1c-0.5-0.5-1-1-1.5-1.5c0.4-0.7,0.8-1.3,1.3-1.9c0,0,0,0,0,0
				c0,0.1,0.1,0.1,0.2,0c0.3-0.2,0.9-0.4,1.3-0.5c0.4-0.1,0.8-0.2,1.3-0.3C32.9,27.9,32.9,27.9,33.1,28C33,27.9,33,27.9,33.1,28z
				 M34.1,29.1C34.1,29.1,34.1,29.1,34.1,29.1c-0.6,0.4-1.3,0.4-2,0.7c-0.1,0-0.2,0.1-0.3,0.1c0.1-0.1,0.1-0.2,0.2-0.2
				c0.3-0.5,0.8-1,1.3-1.4c0,0,0,0,0,0C33.6,28.5,33.9,28.8,34.1,29.1z M34,29.6c-0.3,0.3-0.5,0.6-0.7,1c0,0-0.1,0-0.1,0
				c-0.3,0.1-0.5,0.2-0.8,0.3c-0.1,0.1-0.3,0.1-0.4,0.2c-0.1,0-0.1,0.1-0.1,0.2s0.1,0.1,0.2,0.1c0.3-0.1,0.6-0.2,0.8-0.3
				c0,0-0.1,0.1-0.1,0.1c-0.2,0.3-0.4,0.6-0.6,0.9c-0.2,0.3-0.4,0.6-0.6,1c0,0.1-0.1,0.2-0.2,0.3c-0.4-0.4-0.8-0.8-1.3-1.2
				c0.1,0,0.1,0,0.1-0.1c0.3-0.5,0.6-1,1-1.6c0.3-0.3,0.7-0.4,1.2-0.5c0.2-0.1,0.4-0.1,0.6-0.2c0.1,0,0.2-0.1,0.3-0.1
				C33.8,29.6,33.9,29.6,34,29.6C34,29.6,34,29.6,34,29.6z M35.1,30c-0.4,0.1-0.8,0.2-1.2,0.4c0-0.1,0.1-0.1,0.1-0.2
				c0.2-0.2,0.4-0.4,0.6-0.7C34.7,29.7,34.9,29.8,35.1,30z M65.5,30c-0.7,0.4-1.2,1.1-1.6,1.8c-0.2,0.4-0.4,0.8-0.7,1.2
				c-0.1,0.2-0.2,0.3-0.3,0.5l-0.2,0.3l-0.3-0.1c-0.4-0.1-0.8-0.2-1.2-0.3c-0.3-0.1-0.7-0.2-1-0.3c-0.7-0.3-1.5-0.6-2.2-0.9
				c-0.1-0.1-0.3,0-0.4,0.1l0,0l-0.1,0c-0.1,0-0.1,0.1-0.1,0.2c0,0,0,0.1,0.1,0.1c0,0,0,0,0,0.1c0,0.2,0.1,0.5,0.1,0.7
				c0.2,0.5,0.5,1.1,0.7,1.6c0.1,0.3,0.3,0.6,0.5,0.9c0.1,0.1,0.1,0.2,0.2,0.4c0.1,0.1,0.1,0.3,0.2,0.5c0.1,0.2,0.3,0.3,0.5,0.2
				c0.2-0.1,0.3-0.3,0.2-0.5c0-0.1-0.1-0.2-0.1-0.4c0.1,0.2,0.2,0.3,0.3,0.5c0,0.1,0.1,0.2,0.1,0.3l0,0.1c0,0,0,0.1,0,0.1
				c0,0-0.1,0.1-0.1,0.2c-0.1,0.1-0.1,0.1-0.1,0.2c-0.1,0.1-0.1,0.1-0.2,0.2c-0.9,0.1-1.6,0.8-2,1.6c-0.1,0.3-0.2,0.5-0.4,0.8
				c0,0.1-0.1,0.2-0.1,0.3c-0.1,0.2-0.1,0.4-0.2,0.6c0,0.1-0.1,0.2-0.1,0.2c0,0.1,0,0.2,0,0.3c0.1,0.2,0.2,0.2,0.4,0.2
				c0.4,0,0.8-0.1,1.1-0.2c0.4-0.1,0.8-0.3,1.3-0.4c0.8-0.3,1.5-0.5,2.4-0.6l0.1,0c0,0.1,0.1,0.1,0.1,0.2c0.1,0.2,0.2,0.3,0.3,0.5
				c0.1,0.4,0.3,0.7,0.5,1c0,0,0,0,0,0c0.2,0.4,0.4,0.8,0.7,1.2c0.1,0.2,0.2,0.4,0.3,0.6c0.1,0.1,0.1,0.2,0.2,0.3
				c0.1,0.1,0.4,0.2,0.5,0c0,0,0,0,0,0c0,0,0,0,0,0c0.2,0.2,0.5,0.1,0.6-0.1c0-0.1,0-0.2,0.1-0.3c0-0.1,0-0.2,0-0.4
				c0-0.4,0.1-0.8,0.1-1.2c0.1-0.7,0.2-1.5,0.4-2.2l0.2-0.6c0.2,0,0.5,0,0.7-0.1c0.6-0.1,1.2-0.3,1.7-0.7c0.2-0.1,0.4-0.1,0.6-0.2
				c0.2-0.1,0.4-0.1,0.6-0.2c0.1,0,0.2,0,0.3-0.1c0.1-0.1,0.1-0.3,0.1-0.5c0-0.1-0.1-0.2-0.1-0.3c0,0,0,0,0,0
				c0.1-0.1,0.1-0.2,0.2-0.3c0.1-0.1,0.2-0.3,0.1-0.5c0-0.1-0.1-0.2-0.2-0.2c0,0-0.3-0.1-0.4-0.2c-0.3-0.1-0.5-0.2-0.8-0.3
				c-0.5-0.2-1-0.3-1.4-0.5c-0.2-0.1-0.4-0.1-0.6-0.2c-0.3-0.1-0.5-0.2-0.8-0.3l0-0.2c0-0.3,0-0.7,0-1c0-0.3,0-0.6,0-1
				c0-0.1,0-0.2,0-0.3c0,0,0-0.1,0-0.1c0-0.2,0.1-0.5,0.1-0.8c0-0.2,0-0.4,0.1-0.6c0-0.1,0-0.3,0-0.5c0-0.1-0.1-0.2-0.2-0.3
				c0,0,0-0.1,0-0.1c0-0.1,0-0.2,0-0.3l0-0.1c-0.1-0.1-0.2-0.2-0.3-0.2C65.7,29.9,65.6,29.9,65.5,30z M35.7,30.6
				c-0.2,0.2-0.4,0.5-0.5,0.7c-0.1,0.1-0.1,0.2-0.2,0.2c-0.5,0.2-0.9,0.4-1.3,0.7c-0.1,0-0.1,0.1,0,0.2s0.1,0.1,0.2,0
				c0.3-0.2,0.5-0.3,0.8-0.5c-0.4,0.6-0.8,1.2-1.1,1.8c-0.2,0.3-0.3,0.6-0.5,1c-0.4-0.4-0.8-0.8-1.2-1.2c0,0,0-0.1,0.1-0.1
				c0.2-0.3,0.3-0.5,0.5-0.8c0.4-0.6,0.7-1.2,1.2-1.8c0.2-0.1,0.4-0.2,0.6-0.2c0.2-0.1,0.4-0.1,0.7-0.2c0.2,0,0.4-0.1,0.6-0.1
				c0,0,0,0,0,0C35.5,30.4,35.6,30.5,35.7,30.6z M36.2,31.2c-0.1,0-0.1,0-0.2,0.1c-0.2,0-0.4,0.1-0.5,0.2c0.1-0.2,0.3-0.3,0.4-0.5
				C36,31,36.1,31.1,36.2,31.2z M65.3,31l0,0.2c-0.1,0.1-0.2,0.3-0.3,0.4c-0.1,0.1-0.2,0.2-0.3,0.4c0.1-0.1,0.2-0.3,0.3-0.4L65.3,31
				z M37,31.9C37,31.9,37,31.9,37,31.9c-0.2,0.2-0.5,0.5-0.7,0.7c-0.1,0.2-0.3,0.3-0.4,0.5c0,0,0,0,0,0c-0.1,0-0.2,0.1-0.2,0.1
				c-0.2,0.1-0.5,0.2-0.7,0.3c-0.1,0-0.1,0.1-0.1,0.2s0.1,0.1,0.2,0.1c0.1-0.1,0.2-0.1,0.4-0.2c-0.1,0.2-0.2,0.3-0.4,0.5
				c-0.4,0.5-0.7,1.1-0.9,1.8c-0.3-0.3-0.7-0.6-1-0.9c0,0-0.1,0-0.1-0.1c0.1-0.1,0.1-0.3,0.2-0.4c0.2-0.4,0.4-0.7,0.6-1.1
				c0.3-0.5,0.7-1.1,1.1-1.6c0.5-0.2,1-0.3,1.4-0.4C36.7,31.6,36.8,31.8,37,31.9z M37.6,32.5c-0.2,0-0.4,0.1-0.5,0.1
				c-0.2,0.1-0.4,0.1-0.6,0.2c0.2-0.2,0.5-0.5,0.7-0.7c0,0,0,0,0,0C37.3,32.3,37.4,32.4,37.6,32.5z M65.3,32.1L65.3,32.1
				c0,0.5,0,1,0,1.5c0,0.3,0,0.7,0,1c0,0,0,0.1,0,0.1c0,0.3-0.1,0.6-0.1,0.9c0,0.1,0,0.1,0,0.2c0,0.2-0.1,0.3,0.1,0.4
				c0.4,0.4,0.9,0.5,1.5,0.7c0.4,0.1,0.9,0.2,1.3,0.4c0.2,0.1,0.5,0.2,0.8,0.3c-0.5,0.5-1.2,0.8-1.8,1c-0.3,0.1-0.6,0.2-1,0.2
				c-0.2,0-0.4,0-0.5,0.1c-0.1,0.1-0.1,0.1-0.2,0.2c-0.1,0-0.2,0-0.3,0.1c-0.1,0-0.2,0.1-0.2,0.2c-0.2,1-0.3,2-0.5,3l-0.1,0.3
				l-0.1-0.1c-0.3-0.4-0.7-0.8-0.9-1.2c-0.1-0.3-0.3-0.7-0.3-1c0-0.1,0-0.2,0-0.3c0-0.2-0.1-0.3-0.3-0.4c-0.1,0-0.2,0-0.3,0
				c-0.1,0-0.1,0-0.2,0c0-0.1-0.1-0.1-0.1-0.2c-0.1-0.1-0.2-0.1-0.4-0.1c-0.3,0.1-0.6,0.1-0.9,0.2c-1,0.2-2,0.5-3,0.6
				c0-0.1,0.1-0.2,0.1-0.3c0,0,0-0.1,0-0.1c0.1-0.1,0.2-0.2,0.3-0.3c0.2-0.2,0.5-0.5,0.7-0.7c0.2-0.2,0.5-0.5,0.7-0.7
				c0,0,0.1,0,0.1,0c0.2,0,0.3-0.2,0.3-0.3c0,0,0,0,0-0.1c0.2-0.2,0.4-0.5,0.4-0.7c0-0.1,0-0.2,0-0.3c0-0.1-0.1-0.2-0.1-0.3
				c-0.1-0.2-0.3-0.6-0.5-0.8c-0.1-0.1-0.1-0.2-0.2-0.3c-0.4-0.6-0.9-1.1-1.3-1.7c0,0,0-0.1-0.1-0.1l-0.1-0.2l0.3,0.1
				c0.6,0.1,1.2,0.3,1.7,0.5c0.3,0.1,0.6,0.2,0.9,0.3c0,0,0,0,0,0c0.4,0.2,0.7,0.3,1.1,0.5c0.1,0.1,0.3,0.1,0.3,0
				c0.1-0.1,0.2-0.2,0.3-0.4c0.2-0.3,0.5-0.5,0.7-0.8c0.4-0.4,0.8-0.8,1.2-1.2L65.3,32.1z M38.7,33.6C38.7,33.6,38.6,33.6,38.7,33.6
				c-0.6,0.1-1,0.3-1.5,0.5c0.2-0.2,0.4-0.4,0.5-0.7c0.1-0.1,0-0.2,0-0.3c-0.1-0.1-0.2,0-0.3,0c-0.3,0.4-0.6,0.8-0.8,1.1
				c0,0,0,0.1-0.1,0.1c-0.1,0.1-0.2,0.1-0.3,0.2c-0.1,0-0.2,0.1-0.2,0.1c-0.1,0-0.1,0.2,0,0.2c0,0,0.1,0.1,0.1,0.1
				c-0.4,0.5-0.7,1-0.8,1.6c-0.3-0.2-0.5-0.5-0.8-0.7c0.3-0.8,0.7-1.6,1.3-2.3c0.1-0.1,0.2-0.2,0.3-0.4c0.6-0.2,1.2-0.4,1.9-0.5
				c0,0,0.1,0,0.1,0C38.2,33.1,38.4,33.4,38.7,33.6z M40.6,35.6c-0.5,0.3-0.9,0.8-1.3,1.2c-0.1,0-0.2,0.1-0.2,0.1
				C38.9,37,38.8,37,38.7,37c-0.1,0-0.1,0.1-0.1,0.2c0,0.1,0.1,0.1,0.2,0.1c0,0,0.1,0,0.1-0.1c-0.2,0.2-0.3,0.4-0.5,0.6
				c-0.2,0.3-0.3,0.5-0.5,0.8c0,0-0.1,0.2-0.1,0.3c-0.3-0.2-0.5-0.4-0.8-0.7c0.1-0.1,0.2-0.2,0.2-0.4c0.3-0.4,0.5-0.9,0.8-1.3
				c0.2-0.3,0.3-0.6,0.5-0.9c0.4-0.2,0.9-0.4,1.2-0.4c0.1,0,0.2-0.1,0.2-0.2c0-0.1-0.1-0.2-0.2-0.2c-0.3,0-0.6,0.1-0.9,0.3
				c0.1-0.1,0.1-0.2,0.2-0.4c0-0.1,0-0.2-0.1-0.2s-0.2,0-0.2,0.1c-0.1,0.2-0.3,0.5-0.4,0.7c-0.2,0.1-0.3,0.2-0.5,0.2
				c-0.2,0.1-0.4,0.2-0.7,0.3c-0.1,0-0.1,0.1-0.1,0.2s0.1,0.1,0.2,0.1c0.1,0,0.2-0.1,0.3-0.1c0.1,0,0.2-0.1,0.2-0.1
				c0.1,0,0.1-0.1,0.2-0.1c-0.1,0.2-0.2,0.3-0.3,0.5c-0.3,0.6-0.7,1.1-1,1.7c-0.5-0.4-1-0.8-1.4-1.2c0.2-0.8,0.7-1.5,1.3-2.2
				c0.2-0.1,0.4-0.2,0.6-0.3c0.4-0.2,0.9-0.4,1.4-0.4c0.1,0,0.2-0.1,0.2-0.2C39.4,34.4,40,35,40.6,35.6z M41.1,36
				c-0.1,0-0.2,0.1-0.3,0.1c0,0,0.1-0.1,0.1-0.1C40.9,36,41,36,41.1,36C41,36,41.1,36,41.1,36z M66,36.1C66,36.1,66,36.1,66,36.1
				L66,36.1C65.9,36.1,65.9,36.1,66,36.1z M66.6,36.3c0.1,0,0.3,0.1,0.4,0.1c-0.1,0-0.1,0-0.2-0.1c-0.1,0-0.2-0.1-0.4-0.2
				C66.4,36.2,66.5,36.3,66.6,36.3z M45.2,40.2c-0.5,0.4-0.8,0.9-1.1,1.5c-0.1,0.2-0.2,0.4-0.4,0.5c-0.2,0.3-0.4,0.5-0.6,0.7
				c0,0,0,0.1,0,0.1c0,0,0.1,0,0.1,0c0.1-0.1,0.2-0.2,0.3-0.3c0.1-0.1,0.1-0.2,0.2-0.2c0.2-0.3,0.4-0.6,0.7-0.9
				c0.2-0.3,0.4-0.5,0.6-0.8c0.1-0.2,0.3-0.3,0.4-0.5c1.9,1.9,3.8,3.8,5.7,5.7c0.1,0.1,0.2,0.2,0.3,0.3c-0.3,0.3-0.7,0.6-0.9,0.9
				c-0.2,0.3-0.3,0.6-0.4,0.9c0,0.1,0,0.1,0.1,0.1c0.1,0,0.1,0,0.1-0.1c0.2-0.7,0.5-0.9,1-1.4c0.1-0.1,0.2-0.2,0.2-0.2
				c0,0,0,0,0.1-0.1c0.4,0.4,0.8,0.8,1.1,1.2c-0.1,0.1-0.2,0.2-0.2,0.3c-0.2,0.3-0.4,0.5-0.5,0.8c-0.2,0.3-0.5,0.8-0.6,1.1
				c0,0.1,0,0.1,0.1,0.1s0.1,0,0.1-0.1c0-0.1,0.2-0.5,0.3-0.6c0-0.1,0.1-0.1,0.1-0.2c0.1-0.1,0.2-0.2,0.2-0.3
				c0.1-0.1,0.2-0.3,0.3-0.4c0.1-0.1,0.2-0.3,0.4-0.4c1.9,1.9,3.8,3.8,5.6,5.8c0.9,1,1.7,2,2.5,3.1c0,0-0.1,0-0.1,0
				c-0.1,0.1-0.3,0.2-0.4,0.3c0,0,0,0-0.1,0c-0.3,0.1-0.7,0.4-1,0.6c-0.6,0.5-1.2,1.1-1.5,1.9c-1.7-1.7-3.4-3.4-5.1-5.1
				c-0.4-0.5-0.8-0.9-1.2-1.4c-0.8-0.9-1.7-1.9-2.5-2.8c-3.1-3.4-6.4-6.9-9.9-10c0.5-1.1,1.2-2.2,2-3c0.1-0.1,0-0.2,0-0.2
				s-0.2,0-0.2,0c-0.3,0.3-0.5,0.6-0.7,0.9c-0.5,0.7-0.9,1.4-1.2,2.2c-0.1-0.1-0.2-0.2-0.3-0.3c-0.1-0.1-0.2-0.1-0.3-0.2
				c0-0.3,0-0.6,0.2-0.9c0.1-0.1,0.1-0.2,0.2-0.3c0.1-0.2,0.2-0.4,0.3-0.6c0.6-0.7,1.5-1.2,2.4-1.3C42.8,37.8,44,39,45.2,40.2z
				 M38.3,39.3C38.3,39.3,38.3,39.3,38.3,39.3C38.3,39.4,38.2,39.3,38.3,39.3l-0.1-0.1l0.1-0.3c0,0,0-0.1,0-0.1
				C38.4,39,38.3,39.1,38.3,39.3z M37.8,39.5c0,0,0,0.1,0,0.1c-0.3-0.3-0.5-0.5-0.8-0.8C37.3,39,37.6,39.2,37.8,39.5z M43.2,39.4
				c-0.2,0.3-0.3,0.6-0.6,0.8c-0.1,0.1-0.1,0.2-0.2,0.3c-0.2,0.3-0.5,0.7-0.6,1c0,0,0,0.1,0.1,0.1c0,0,0.1,0,0.1-0.1
				c0.2-0.6,0.6-1,1-1.5c0.2-0.2,0.3-0.4,0.4-0.6c0-0.1,0-0.1,0-0.1C43.3,39.4,43.2,39.4,43.2,39.4z M38.6,40.2
				c0.1,0.1,0.3,0.2,0.4,0.4c0,0.1-0.1,0.1-0.1,0.2c-0.2-0.2-0.4-0.4-0.7-0.7l0-0.2C38.4,40,38.5,40.1,38.6,40.2z M41.1,42.3
				c2.3,2.2,4.5,4.5,6.6,6.8c0.5,0.5,0.9,1,1.4,1.5c-3.3-3.3-6.6-6.5-10-9.8c0-0.1,0.1-0.1,0.1-0.2C39.8,41.2,40.4,41.8,41.1,42.3z
				 M46.3,41.8c-0.1,0.1-0.3,0.3-0.4,0.5c-0.1,0.2-0.3,0.4-0.4,0.6c-0.2,0.3-0.4,0.6-0.6,0.9c0,0,0,0.1,0,0.1c0,0,0.1,0,0.1,0
				c0-0.1,0.1-0.2,0.1-0.3c0.1-0.3,0.3-0.5,0.5-0.8c0.1-0.2,0.2-0.3,0.4-0.5c0.1-0.1,0.1-0.2,0.2-0.2c0,0,0.1-0.1,0.1-0.2
				c0,0,0-0.1,0-0.2C46.4,41.7,46.3,41.7,46.3,41.8z M47.5,43c-0.3,0.3-0.6,0.7-0.8,1.1c-0.2,0.2-0.3,0.5-0.4,0.8c0,0,0,0.1,0,0.1
				c0,0,0.1,0,0.1,0c0.1-0.2,0.2-0.3,0.3-0.5c0.3-0.5,0.6-0.9,1-1.3c0,0,0-0.1,0-0.2C47.6,43,47.5,43,47.5,43z M48.7,44.2
				c-0.3,0.5-0.6,0.9-0.9,1.4c-0.1,0.2-0.3,0.5-0.4,0.7c0,0.1,0,0.1,0.1,0.1s0.1,0,0.1-0.1c0-0.1,0.1-0.2,0.1-0.3
				c0.3-0.4,0.6-0.9,0.9-1.3c0.1-0.2,0.2-0.4,0.4-0.5c0-0.1,0-0.1,0-0.2C48.8,44.1,48.8,44.1,48.7,44.2z M50,45.4L50,45.4
				c-0.2,0.2-0.3,0.5-0.4,0.7l0,0l0,0C49.8,45.9,49.9,45.7,50,45.4L50,45.4z M51.7,53.6c0,0.1,0.1,0.1,0.1,0.2
				c-1.7-1.7-3.5-3.5-5.3-5.2C48.3,50.2,50,51.9,51.7,53.6z M53.1,49.8c0,0.1-0.1,0.2-0.1,0.2c-0.1,0.1-0.1,0.3-0.2,0.4
				c-0.1,0.1-0.1,0.2-0.2,0.4c0,0-0.1,0.1-0.1,0.1c0,0.1,0,0.1,0,0.1c0.1,0,0.1,0,0.1,0c0-0.1,0.1-0.1,0.1-0.2
				c0-0.1,0.1-0.2,0.1-0.3c0.2-0.4,0.3-0.8,0.7-1.1c0.1-0.1,0.1-0.1,0.2-0.2c0.1-0.1,0.1-0.1,0-0.2c-0.1-0.1-0.1-0.1-0.2,0
				C53.4,49.3,53.2,49.6,53.1,49.8z M54.6,50.3c-0.2,0.3-0.4,0.7-0.5,1c-0.1,0.3-0.3,0.6-0.4,0.9c0,0,0,0.1,0,0.1c0,0,0.1,0,0.1,0
				c0.1-0.1,0.1-0.3,0.2-0.4c0.1-0.1,0.1-0.3,0.2-0.4c0.2-0.3,0.3-0.6,0.6-0.9c0-0.1,0-0.1,0-0.2C54.7,50.2,54.6,50.2,54.6,50.3z
				 M31.7,50.9L31.7,50.9c-0.1,0-0.2,0.1-0.2,0.2c0,0.1,0,0.2,0,0.3c0,0,0,0-0.1,0.1c-0.1,0.1-0.4,0.3-0.4,0.4c-0.1,0.1,0,0.4,0,0.5
				c0,0.4,0,0.9,0,1.3c0,0.2,0,0.5,0,0.7l0,0c-0.1-0.1-0.2-0.1-0.3-0.1c-1,0-1.9,0.3-2.7,1c-0.1,0.1-0.4,0.4-0.5,0.6
				c0,0.1,0,0.2,0,0.3c0.1,0.1,0.2,0.1,0.3,0.2c0.3,0.1,0.6,0.2,0.9,0.3c0.2,0,0.4,0.1,0.6,0.1c0.6,0.1,1.2,0.2,1.8,0.4
				c0.1,0,0.2,0.1,0.4,0.1l0.1,0.1l0,0.3c0,0,0,0,0,0l0,0.2l0,0.1c0,0,0,0.1,0,0.1c0,0.4,0,0.7,0,1.1c-0.1,0.6-0.1,1.3-0.1,1.9
				c0,0.1,0,0.2,0.1,0.3c0.1,0.1,0.3,0.2,0.5,0c0.1-0.1,0.1-0.1,0.1-0.2c0.3-0.4,0.6-0.9,0.8-1.3c0.1-0.2,0.2-0.3,0.2-0.5
				c0,0,0,0,0,0c0.1-0.1,0.2-0.2,0.2-0.3l0,0c0.5,0.1,1.1,0.1,1.6,0.2c0.6,0,1.1,0.1,1.6,0.2c0.2,0,0.4,0.1,0.6,0.2
				c0.1,0,0.2,0.1,0.3,0.1c0.1,0,0.3-0.1,0.4-0.2c0-0.1,0.1-0.1,0.1-0.2c0.1-0.3,0-1-0.2-1.3c-0.3-0.6-0.7-1.1-1.2-1.6
				c-0.1-0.1-0.2-0.2-0.4-0.3L36.4,56l0-0.1c0-0.1,0.1-0.2,0.2-0.3c0.4-0.7,1.1-1.2,1.6-1.8c0.2-0.2,0.4-0.5,0.5-0.8
				c0.1-0.1,0.1-0.2,0.1-0.4c0-0.1-0.1-0.2-0.2-0.2c-0.3-0.1-0.8,0-1,0.1c-0.6,0.1-1.2,0.1-1.7,0.2c-0.2,0-0.5,0.1-0.7,0.1
				c-0.2,0-0.4,0.1-0.7,0.1c0,0-0.1,0-0.2,0l-0.2,0l0,0l0,0c0,0-0.2-0.1-0.2-0.1c-0.2-0.2-0.3-0.3-0.4-0.5c-0.3-0.4-0.7-0.8-1.2-1
				c0,0,0,0,0,0c-0.1-0.1-0.1-0.1-0.2-0.2C32,50.8,31.8,50.8,31.7,50.9z M54.5,53.6c0,0.1,0,0.1,0,0.1c0.1,0,0.1,0,0.1,0
				c0.4-0.7,0.8-1.5,1.4-2.1c0.1-0.1,0.1-0.1,0-0.2c-0.1-0.1-0.1-0.1-0.2,0C55.3,52,54.9,52.8,54.5,53.6z M32,51.8L32,51.8L32,51.8
				c0.4,0.4,0.8,0.9,1.1,1.3c0.2,0.2,0.4,0.5,0.6,0.7c0.1,0.1,0.2,0.3,0.3,0.4c0,0,0.1,0.1,0.2,0.1c0.1,0,0.2-0.1,0.3-0.1
				c0.1,0,0.1-0.1,0.2-0.1c0.1,0,0.2,0,0.2-0.1c0.1,0,0.2-0.1,0.2-0.1c0.2-0.1,0.5-0.1,0.7-0.2l0.7-0.3l-1,1.5
				c-0.1,0.2-0.2,0.4-0.4,0.5c-0.1,0.1-0.2,0.2-0.2,0.3c0,0.1,0,0.2,0,0.3c0.3,0.6,1,1.1,1.5,1.6c0.1,0.1,0.2,0.2,0.3,0.3l0.2,0.3
				l-0.7-0.1c-0.4-0.1-0.8-0.1-1.1-0.2c-0.2,0-0.4-0.1-0.6-0.1c-0.1,0-0.3-0.1-0.4-0.1c-0.1,0-0.1,0-0.2,0c-0.1,0.1-0.4,0.5-0.5,0.6
				c-0.1,0-0.2,0-0.2,0c-0.2,0-0.3,0.1-0.3,0.3c0,0.1,0,0.3-0.1,0.4c0,0.1-0.1,0.2-0.1,0.3c0,0,0,0.1-0.1,0.1l-0.3,0.4l0-0.1v0
				c0-0.2,0-0.4,0.1-0.6c0-0.6,0.1-1.2-0.1-1.8c0,0,0,0,0,0c0-0.1,0-0.2,0-0.3c0-0.1-0.1-0.2-0.2-0.2c0,0-0.1,0-0.1,0c0,0,0,0,0,0
				c-0.1-0.1-0.2-0.1-0.3-0.1c-0.2-0.1-0.3-0.1-0.5-0.2c-0.3-0.1-0.6-0.2-0.9-0.2c-0.2,0-0.5-0.1-0.7-0.1l-0.1,0l0.1,0
				c0.1,0,0.1-0.1,0.2-0.1c0.1-0.1,0.3-0.1,0.5-0.2c0.4-0.1,0.7-0.2,1.1-0.4c0.2-0.1,0.6-0.2,0.7-0.4c0.2-0.3,0.1-0.9,0-1.3
				c-0.1-0.6-0.2-1.1-0.3-1.7l0-0.1L32,51.8z M56.5,53.1c-0.3,0.4-0.6,1-0.8,1.5c0,0.1,0,0.1,0.1,0.1c0.1,0,0.1,0,0.1-0.1
				c0.2-0.5,0.5-1,0.8-1.4c0.1-0.1,0.3-0.3,0.4-0.5c0.1-0.1,0.1-0.1,0-0.2c-0.1-0.1-0.1-0.1-0.2,0C56.8,52.6,56.5,53,56.5,53.1z
				 M31.7,53.4c0,0.2,0,0.4,0,0.6c0,0.1,0,0.2,0,0.3c0,0.1,0,0.2,0,0.2l0,0.1l-0.1,0.1c-0.3,0.1-0.6,0.2-0.9,0.3
				c-0.4,0.1-0.7,0.2-1.1,0.4c-0.3,0.1-0.6,0.2-0.8,0.4c0,0,0,0-0.1,0c0,0,0,0,0,0l-0.2-0.1l0.1-0.1c0.5-0.4,1.1-0.6,1.7-0.7
				c0.2,0,0.3,0,0.5,0c0.2,0,0.4-0.2,0.3-0.4l0,0l0.1,0.1c0,0,0.1,0,0.1,0c0.2,0,0.4-0.2,0.4-0.4c0-0.5,0-1,0-1.4l0-0.1l0-0.1
				C31.7,52.9,31.7,53.2,31.7,53.4z M37.7,53.1l-0.1,0.1c-0.2,0.2-0.3,0.4-0.5,0.6c0,0,0.1-0.1,0.1-0.1c0.1-0.2,0.2-0.4,0.3-0.5
				L37.7,53.1z M34.7,53.5c-0.1,0-0.2,0.1-0.3,0.1l-0.1,0l-0.1-0.1l0,0c0.1,0,0.2,0,0.3,0C34.6,53.5,34.7,53.5,34.7,53.5
				C34.8,53.5,34.7,53.5,34.7,53.5z M57.8,54c-0.1,0.1-0.1,0.2-0.2,0.3c-0.1,0.1-0.1,0.1-0.2,0.2c-0.1,0.1-0.3,0.3-0.4,0.5
				c0,0.1-0.1,0.1-0.1,0.2c0,0.1,0,0.1,0.1,0.2c0.1,0,0.1,0,0.2-0.1c0.2-0.4,0.4-0.6,0.7-0.9c0.1-0.1,0.1-0.2,0.2-0.4
				c0-0.1,0-0.1-0.1-0.2C57.9,53.9,57.8,54,57.8,54z M58.5,56.4c0,0-0.1,0-0.1,0.1l0,0c-0.1,0-0.1,0-0.2,0c0,0.1,0,0.1,0,0.2
				c0,0,0.1,0,0.1,0c0.1,0,0.3-0.1,0.4-0.2c0,0,0.2-0.2,0.3-0.1c0.1,0,0.1,0,0.1-0.1c0-0.1,0-0.1-0.1-0.1
				C58.9,56,58.7,56.3,58.5,56.4z M58,59.8C58,59.8,58,59.8,58,59.8c-1-0.9-2-1.9-3-2.9c-0.1-0.1-0.1-0.1-0.2-0.2
				C55.9,57.7,56.9,58.8,58,59.8z M62.6,57.9C62.6,57.9,62.6,57.9,62.6,57.9C62.6,57.9,62.6,58,62.6,57.9c-0.2,0-0.3-0.1-0.4-0.3
				c-0.1-0.1-0.3-0.3-0.4-0.4c0,0,0-0.1-0.1-0.1c0,0,0-0.1,0-0.1C62.1,57.3,62.3,57.6,62.6,57.9z M61.4,57.2
				C61.4,57.2,61.4,57.2,61.4,57.2C61.3,57.2,61.3,57.2,61.4,57.2C61.3,57.2,61.3,57.2,61.4,57.2C61.3,57.2,61.4,57.2,61.4,57.2z
				 M61.3,57.2c0,0.2,0.2,0.4,0.3,0.5c0.1,0.1,0.3,0.3,0.4,0.4c0.1,0.1,0.2,0.2,0.3,0.3c0,0,0,0,0,0c-0.1,0.5-0.1,1-0.2,1.4
				c0,0,0,0,0,0c-0.1,0.1-0.3,0.2-0.4,0.4c-0.4,0.3-0.7,0.5-1.1,0.8c0,0,0-0.1,0.1-0.1c0.1-0.3,0-0.6,0-0.9c0,0,0-0.1,0-0.1
				c0,0-0.1,0-0.1,0c-0.2,0.1-0.5,0.2-0.7,0.4c-0.1,0.1-0.2,0.3-0.3,0.4L59.5,61c0,0,0-0.1,0-0.1c-0.3-0.3-0.5-0.5-0.8-0.8
				c0.1-0.8,0.7-1.5,1.3-2.1c0.1-0.1,0.2-0.2,0.3-0.2c0-0.1,0.1-0.2,0.3-0.2C60.8,57.4,61.1,57.3,61.3,57.2
				C61.3,57.2,61.3,57.2,61.3,57.2z M62.8,57.7c0,0,0,0.1,0,0.1c0,0,0,0,0,0c0-0.1-0.1-0.1-0.1-0.2C62.7,57.7,62.7,57.7,62.8,57.7z
				 M63,58.1l0,0.1c0,0.1,0,0.1,0,0.2c0,0,0,0.1,0,0.1c0-0.1-0.1-0.1-0.1-0.2C62.9,58.3,63,58.2,63,58.1L63,58.1z M34.3,58.2
				l0.3,0.1c0.2,0,0.3,0.1,0.5,0.1c0.2,0,0.4,0.1,0.6,0.1c0.2,0,0.3,0.1,0.5,0.1c-0.4,0-0.8-0.1-1.2-0.1c-0.2,0-0.4,0-0.6-0.1
				c0,0-0.1,0-0.2,0c0,0,0.1-0.1,0.1-0.1L34.3,58.2z M63,59c-0.1,0.1-0.1,0.2-0.2,0.3c0-0.1,0-0.3,0-0.4c0,0,0-0.1,0-0.1
				c0.1,0,0.1,0,0.2,0c0,0,0,0,0,0C63,58.9,63,59,63,59z M37.7,58.8l0,0.2l0,0c-0.1,0-0.2-0.1-0.3-0.1h0.1
				C37.6,58.9,37.6,58.8,37.7,58.8C37.7,58.7,37.7,58.8,37.7,58.8z M58.4,59.8c0-0.1,0.1-0.1,0.1-0.2C58.4,59.7,58.4,59.8,58.4,59.8
				z M50.6,59.8c-0.1,0.1-0.2,0.2-0.2,0.3c-0.1,0.2-0.3,0.4-0.4,0.6c-0.2,0.3-0.3,0.5-0.4,0.8c-0.2,0.4-0.4,0.9-0.7,1.3
				c-0.1,0.2-0.2,0.4-0.4,0.5l-0.4,0.4l-0.7-0.1c-0.9-0.1-1.7,0.1-2.6,0.3c-0.1,0-0.2,0-0.3,0.1c-0.1,0-0.2,0-0.3,0
				c-0.1,0-0.2,0.1-0.3,0.2c0,0,0,0-0.1,0c-0.2,0-0.3,0-0.4,0.2c-0.1,0.2,0,0.6,0.1,0.9c0.4,1,1.6,1.7,2.5,2.1
				c0.1,0.1,0.3,0.1,0.4,0.2l0.6,0.2l0,0c-0.4,0.5-0.7,1-1,1.6c-0.1,0.3-0.3,0.7-0.4,1c-0.1,0.3-0.2,0.9,0.2,1c0.1,0,0.2,0,0.3,0
				c0,0,0.1,0,0.1,0c0,0.1,0,0.1,0,0.2c0,0.2,0.1,0.3,0.3,0.3c0.1,0,0.7-0.3,0.9-0.4c0.4-0.2,0.8-0.5,1.2-0.7
				c0.2-0.2,0.5-0.3,0.7-0.5c0.2-0.1,0.3-0.2,0.5-0.3c0.3,0.2,0.5,0.4,0.8,0.6c0.6,0.6,1.2,1.2,1.8,1.8c0.2,0.2,0.4,0.5,0.6,0.7
				c0.1,0.1,0.2,0.2,0.2,0.3c0.2,0.4,0.7,0.2,0.7-0.2c0-0.1,0-0.1,0-0.2c0-0.1,0-0.2,0-0.4c0,0,0,0,0.1-0.1c0.1-0.1,0.1-0.2,0-0.3
				c0-0.3-0.1-0.6-0.1-0.9c0-0.2-0.1-0.4-0.1-0.6c0-0.1,0-0.3,0-0.4c-0.1-0.5-0.1-1.2-0.3-1.8l-0.1-0.3l0.1-0.1
				c0.1-0.1,0.2-0.1,0.3-0.2c0.3-0.2,0.7-0.4,1.1-0.6c0.9-0.5,2.1-1.1,2.5-2.2c0.1-0.2,0.1-0.5-0.1-0.6c-0.2-0.1-0.2,0-0.4,0
				c-0.2,0-0.4,0-0.5,0c-0.7-0.1-1.4-0.2-2.2-0.3c-0.5-0.1-1-0.2-1.5-0.3l-0.2-0.1l0,0c0-0.3,0-0.6,0-1c0-0.2,0-0.3-0.1-0.5
				c-0.1-0.5-0.3-1-0.4-1.5c-0.1-0.2-0.2-0.5-0.2-0.7c0-0.1-0.1-0.2-0.1-0.3c-0.1-0.1-0.1-0.2-0.3-0.2
				C50.9,59.7,50.7,59.7,50.6,59.8z M58.4,59.9C58.4,59.9,58.4,59.9,58.4,59.9C58.4,59.8,58.4,59.8,58.4,59.9
				C58.4,59.8,58.4,59.9,58.4,59.9z M58.3,60.2C58.3,60.2,58.3,60.2,58.3,60.2C58.3,60.2,58.3,60.2,58.3,60.2
				C58.3,60.1,58.3,60.1,58.3,60.2C58.3,60.1,58.3,60.1,58.3,60.2z M59.3,61.1c0,0,0.1,0,0.1,0l0,0l-0.1,0.1L59.3,61.1
				C59.3,61.2,59.3,61.2,59.3,61.1L59.3,61.1C59.2,61,59.2,61,59.1,61c-0.2-0.2-0.3-0.3-0.5-0.5c0,0,0,0,0-0.1
				C58.9,60.7,59.1,60.9,59.3,61.1z M62,60.7L62,60.7c-0.1,0.1-0.1,0.2-0.2,0.3c-0.2,0.2-0.3,0.3-0.5,0.4c-0.2,0.1-0.5,0.2-0.7,0.3
				c0,0-0.1,0-0.2,0c0,0,0-0.1,0.1-0.1c0,0,0,0,0-0.1C61,61.4,61.5,61,62,60.7C62,60.7,62,60.7,62,60.7z M50.7,61.3l0,0.1
				c0.2,0.8,0.4,1.5,0.6,2.3c0,0,0,0,0,0c0,0.1,0,0.3,0,0.4c0,0.1,0.1,0.2,0.2,0.3c0,0.1,0.1,0.3,0.1,0.4c0,0.1,0,0.3,0.1,0.4
				c0.2,0.2,0.9,0.2,1.1,0.2c0.8,0,1.5-0.1,2.3-0.1c0.1,0,0.3,0,0.5,0l0.2,0.1l-0.7,0.5c-0.3,0.3-0.7,0.5-1,0.8c0,0-0.1,0-0.1,0.1
				c-0.6,0.3-1.2,0.6-1.6,1.2c-0.1,0.1-0.1,0.2-0.1,0.3c0,0.1,0.1,0.2,0.2,0.3c0.1,0.2,0.1,0.5,0.2,0.7c0,0.1,0,0.1,0,0.2
				c0,0.1,0,0.2,0,0.3c0,0.3,0.1,0.5,0.1,0.8c0,0.3,0,0.5,0.1,0.8l0,0c-0.6-0.5-1.2-1-1.7-1.5c-0.2-0.2-0.4-0.4-0.6-0.6
				c-0.1-0.1-0.2-0.3-0.3-0.3c-0.1-0.1-0.2,0-0.3,0c0,0,0,0,0,0c-0.1-0.1-0.3-0.2-0.4-0.2h-0.2c-0.1,0-0.2,0-0.3,0
				c-0.2,0.1-0.5,0.2-0.7,0.3c-0.4,0.2-0.8,0.5-1.2,0.8c0.2-0.4,0.4-0.9,0.6-1.3c0.1-0.3,0.4-1,0.3-1.3c-0.1-0.4-0.7-0.8-1.1-1
				c-0.7-0.5-1.4-0.9-2-1.3l-0.4-0.2l0.2,0c0.2,0,0.3-0.1,0.5-0.1c0.7,0,1.4,0,2.1,0.1c0.3,0,0.5,0,0.8,0c0.2,0,0.4,0,0.6,0.1
				c0.1,0,0.2,0,0.3-0.1c0-0.1,0.1-0.2,0.1-0.3c0-0.2,0.1-0.3,0.2-0.5c0.4-0.8,0.8-1.6,1.1-2.4L50.7,61.3z M49,63.9l-0.1,0.3l0,0
				c0,0-0.1,0-0.1,0C48.8,64.1,48.9,64,49,63.9L49,63.9z M52.8,64.8c0.1,0,0.1,0,0.2,0h-0.7l-0.1,0l0-0.1
				C52.4,64.7,52.6,64.8,52.8,64.8z M44.3,64.9L44.3,64.9c0.1,0.1,0.2,0.2,0.3,0.3c0.4,0.3,0.9,0.6,1.3,0.9c0.3,0.2,0.6,0.5,1,0.7
				c0,0,0,0-0.1,0c-0.3-0.1-0.5-0.2-0.8-0.4c-0.6-0.3-1.3-0.7-1.7-1.2L44.3,64.9L44.3,64.9z M47,69.3c-0.2,0.4-0.3,0.7-0.5,1.1
				c0,0,0,0,0,0l0,0l0,0l0.1-0.2c0-0.1,0.1-0.2,0.1-0.3c0.2-0.3,0.3-0.6,0.5-1C47.1,69,47,69.1,47,69.3z"/>
		</g>
	</g>
</g>
</svg>
