<?xml version="1.0" encoding="utf-8"?>
<!-- Generator: Adobe Illustrator 20.1.0, SVG Export Plug-In . SVG Version: 6.00 Build 0)  -->
<svg version="1.1" id="Layer_1" xmlns="http://www.w3.org/2000/svg" xmlns:xlink="http://www.w3.org/1999/xlink" x="0px" y="0px"
	 viewBox="0 0 75 75" style="enable-background:new 0 0 75 93.8;" xml:space="preserve">
<g transform="scale(1 -1)" fill="#FF5252">
	<g transform="translate(0 -75)">
		<g>
			<path marker-end="none" marker-start="none" d="M37.1,4.7c-0.1,0.1,0,0.2,0.1,0.3c0.5,0.3,0.9,0.6,1.4,0.8
				C38.4,5.9,38.3,6,38.2,6c-0.2,0.1-0.5,0.2-0.7,0.3c0,0-0.1,0-0.1,0c-0.1,0-0.2,0-0.2,0.1c0,0,0,0.1,0,0.1c-0.5,0.2-1,0.5-1.5,0.7
				c-0.2,0.1-0.4,0.2-0.7,0.3c-1.7,0.8-3.3,1.7-4.9,2.6c-1.7,1-3.4,2.1-4.9,3.3c-0.5,0.4-1.1,0.8-1.6,1.3c-2.3,1.5-4.5,3.2-6.6,5
				c-0.9,0.8-1.8,1.7-2.7,2.6c-0.6,0.6-1.1,1.3-1.7,1.9c0,0.1,0,0.1,0,0.2c0.1,0,0.1,0,0.2,0c0.4-0.5,0.8-0.9,1.2-1.4
				c0.2-0.2,0.4-0.4,0.5-0.6c0.4-0.4,0.8-0.8,1.2-1.2c0.9-0.9,1.9-1.7,2.9-2.5c0.7-0.6,1.4-1.1,2.2-1.7c0,0,0,0,0,0
				c-0.8,0.7-1.5,1.4-2.2,2c0,0-0.1,0.1-0.1,0.1c-0.6,0.5-1.2,1.1-1.8,1.6c-0.5,0.5-1.1,1-1.6,1.6c-0.6,0.6-1.2,1.3-1.8,1.9
				c-0.2,0.3-0.5,0.6-0.7,0.9c0,0,0,0,0,0c0,0-0.1,0-0.1,0c-1.4,1.4-2.7,3.1-3.8,4.7c-0.5,0.7-0.9,1.4-1.3,2.1
				c-0.3,0.5-0.5,1-0.8,1.4c-0.1,0.1-0.2,0.3-0.2,0.4c-0.6,0.9-1.2,1.9-1.8,2.8c0,0.1,0,0.1,0,0.2c-0.1,0.1-0.2,0.3-0.2,0.4
				c-0.6,1-1.1,2-1.6,3c-0.2,0.5-0.5,1.1-0.7,1.6c-0.1,0.3-0.2,0.6-0.3,0.8c-0.1,0.3-0.2,0.7-0.3,1.1c-0.2,0.6-0.3,1.1-0.4,1.7
				c-0.1,0.4-0.1,0.8-0.2,1.3c-0.1,0.6-0.1,1.2-0.2,1.8c0,0.5,0,1,0,1.5c0,0.9,0.1,1.7,0.3,2.6c0,0,0,0.1,0,0.1c0,0,0,0.1,0,0.1
				c0,0,0,0,0,0c-0.2,3.1,1,6.1,3.1,8.3c0.6,0.7,1.3,1.3,2,1.8c3,2.3,6.9,3.8,10.8,3.7c0.4,0,0.9,0,1.3-0.1c0.1,0,0.2,0,0.4,0
				c0.2,0,0.4-0.1,0.6-0.1c0.2-0.1,0.5-0.1,0.7-0.1c0.1,0,0.2,0,0.2,0c0.3,0,0.5,0,0.8,0c0.3,0,0.7,0,1-0.1c0.2,0,0.3,0,0.5-0.1
				c0.3,0,0.6-0.1,0.9-0.1c0.3,0,0.5-0.1,0.8-0.2c0.2,0,0.4-0.1,0.6-0.1c0.8-0.2,1.7-0.5,2.5-0.8c0.3-0.1,0.7-0.3,1-0.4
				c0.1-0.1,0.3-0.1,0.5-0.2c0.3-0.1,0.6-0.3,0.9-0.5c0.5-0.2,0.9-0.5,1.3-0.7c0.9-0.5,1.7-1.1,2.6-1.7c0.1-0.1,0.3-0.2,0.4-0.3
				c0,0,0,0,0.1,0c0.1-0.1,0.2-0.1,0.3-0.2c1.2-0.8,2.3-1.7,3.4-2.7c0.3,0.5,0.6,1,0.9,1.5c0.4,0.7,1,1.3,1.5,1.8
				c1.5,1.6,3.4,2.7,5.5,3.5c0,0,0,0,0,0c0.6,0.4,1.3,0.8,2,1.1c0.4,0.2,0.8,0.4,1.3,0.6c0.4,0.2,0.7,0.3,1.1,0.4
				c0.4,0.1,0.8,0.3,1.3,0.4c0.3,0.1,0.5,0.1,0.8,0.2c0.1,0,0.3,0.1,0.4,0.1c0.2,0,0.5,0.1,0.7,0.1c0.2,0,0.5,0.1,0.7,0.1
				c0.4,0.1,0.8,0.1,1.2,0.1c0.6,0,1.4,0,2,0c0.2,0,0.5,0,0.7-0.1c0.4,0,0.8-0.1,1.1-0.1c1.1-0.2,2.1-0.4,3.1-0.8
				c0.7-0.2,1.4-0.5,2.1-0.8c0.2-0.1,0.4-0.2,0.7-0.3c0.1-0.1,0.2-0.1,0.3-0.2c0.2-0.1,0.3-0.2,0.5-0.3c0.2-0.1,0.4-0.2,0.6-0.4
				c0.6-0.3,1.1-0.8,1.6-1.2c1.1-0.9,2.2-2,3-3.2c1-1.2,1.9-2.5,2.5-3.9c0.2-0.4,0.3-0.8,0.5-1.2c0,0.2-0.1,0.5-0.1,0.7
				c0,0.1,0,0.1,0.1,0.1c0.1,0,0.1,0,0.1-0.1c0.1-0.4,0.1-0.7,0.2-1.1c0.3-0.1,0.5-0.2,0.8-0.4c0.1-0.1,0.2-0.2,0.1-0.3
				s-0.2-0.2-0.3-0.1c-0.2,0.1-0.4,0.2-0.6,0.3c0-0.1,0-0.2,0-0.3c1.1-4.4,0.2-9.1-1.5-13.2c-1.9-4.5-4.6-8.5-7.8-12.2
				c-0.3-0.4-0.6-0.7-1-1.1c-0.1-0.2-0.3-0.5-0.4-0.7c-0.5-0.8-1-1.5-1.5-2.2c-0.6-0.8-1.3-1.6-2-2.4c0.1-0.1,0.2-0.1,0.4-0.2
				c0.1-0.1,0.2-0.2,0.1-0.3c0-0.1-0.2-0.2-0.3-0.1c-0.2,0.1-0.4,0.1-0.5,0.2c-0.2-0.2-0.3-0.3-0.5-0.5c-1.4-1.6-3-3.1-4.6-4.5
				c-0.1-0.1-0.1-0.1-0.2-0.2c0.2-0.1,0.5-0.3,0.7-0.4c0,0,0.1-0.1,0-0.1s-0.1-0.1-0.1,0c-0.3,0.1-0.6,0.2-0.9,0.3c0,0-0.1,0-0.1,0
				c-0.4-0.4-0.8-0.7-1.3-1.1c-0.4-0.4-0.9-0.7-1.3-1.1c0,0,0-0.1,0-0.1c-0.1-0.1-0.2-0.2-0.3-0.2c-0.6-0.5-1.1-0.9-1.7-1.4
				c0.1,0,0.1-0.1,0.2-0.1c0.1-0.1,0.2-0.2,0.1-0.4s-0.2-0.2-0.4-0.1c-0.1,0.1-0.3,0.1-0.4,0.2c-0.6-0.5-1.2-0.9-1.8-1.4
				c-0.1,0-0.1-0.1-0.2-0.1c0.3,0.1,0.7,0.3,1,0.4c-0.2-0.2-0.5-0.5-0.8-0.7c-0.2-0.1-0.3-0.3-0.5-0.4c0.4-0.2,0.7-0.4,1.1-0.6
				c0.1-0.1,0.2-0.2,0.1-0.3s-0.2-0.2-0.3-0.1c-0.5,0.2-1,0.4-1.4,0.7c-0.2-0.1-0.4-0.3-0.6-0.4c-0.2-0.1-0.5-0.2-0.7-0.4
				c-0.1-0.1-0.2-0.1-0.3-0.2C42.7,8.1,41.2,7,39.5,6c0.1-0.1,0.1-0.2,0-0.3c-0.1-0.2-0.2-0.2-0.4-0.2c-0.1,0-0.1,0.1-0.2,0.1
				c-0.5-0.3-1.1-0.7-1.6-1C37.3,4.6,37.2,4.6,37.1,4.7z M40.2,6.9C39.9,7,39.7,7,39.4,7.1c-0.4-0.2-0.7-0.4-1.1-0.5c0,0,0,0,0,0
				c0.3-0.1,0.5-0.2,0.8-0.3C39.5,6.5,39.8,6.7,40.2,6.9z M38.2,6.6C38.2,6.6,38.2,6.6,38.2,6.6L38.2,6.6
				C38.2,6.6,38.2,6.6,38.2,6.6z M38.7,7.3c-0.2,0.1-0.5,0.1-0.7,0.2c-0.5,0.1-1,0.3-1.4,0.5c-0.8,0.3-1.7,0.6-2.5,1
				c-1.1,0.5-2.1,1-3.2,1.6c-0.3,0.2-0.6,0.3-0.8,0.5c-0.1,0.1-0.2,0.1-0.3,0.1c0,0,0,0-0.1,0c-0.3,0.1-0.6,0.3-0.9,0.5
				c-0.1,0.1-0.3,0.2-0.4,0.2c0.1,0,0.1-0.1,0.2-0.1c1.1-0.7,2.2-1.4,3.4-2.1c1.2-0.7,2.4-1.3,3.7-1.9c0.6-0.3,1.2-0.6,1.9-0.9
				C38,7,38.4,7.1,38.7,7.3z M41.2,7.6C41.2,7.6,41.2,7.6,41.2,7.6c0.3,0.3,0.6,0.5,0.9,0.6c-0.6-0.3-1.2-0.5-1.7-0.7
				c0-0.1,0.1-0.2,0-0.3c0,0,0,0,0.1,0c0,0,0.1,0,0.1-0.1C40.7,7.3,41,7.4,41.2,7.6z M39.3,7.5c-0.2,0.1-0.3,0.2-0.5,0.3
				c-0.1,0-0.2,0-0.3,0.1C38,8,37.5,8.2,36.9,8.3c-0.5,0.1-0.9,0.3-1.4,0.4c0.3-0.1,0.6-0.2,0.9-0.4C37.4,8.1,38.3,7.8,39.3,7.5
				C39.3,7.5,39.3,7.5,39.3,7.5z M40.7,8.3c0.3,0.2,0.6,0.4,1,0.7c-0.4,0.2-0.7,0.5-1.1,0.7c-0.8,0.6-1.7,1.2-2.5,1.8
				c-1.5,1.1-3,2.1-4.5,3.2c-0.4,0.3-0.9,0.6-1.3,0.9c-0.9,0.6-1.7,1.3-2.6,2c-0.7,0.6-1.5,1.2-2.2,1.8c-1.5,1.3-2.9,2.6-4.3,4
				c-0.9,0.9-1.8,1.9-2.6,2.9l0,0c0.7-0.9,1.5-1.7,2.3-2.5c1.4-1.5,3-2.8,4.6-4.2c2.2-1.8,4.5-3.5,6.9-5.1c1.2-0.8,2.3-1.6,3.5-2.3
				c1-0.7,2.1-1.4,3.1-2.1c0.4-0.3,0.7-0.5,1.1-0.8c0.2,0.1,0.3,0.2,0.5,0.4c0.4,0.4,0.9,0.7,1.3,1.1c0.1,0.1,0.3,0.2,0.4,0.4
				c-1.7,1-3.4,2-5,3.1c-2.1,1.4-4.2,3-6.2,4.6c-1.9,1.6-3.8,3.3-5.5,5.1c-0.5,0.5-0.9,1-1.4,1.5c-0.9,1.1-1.8,2.1-2.7,3.2
				c0,0.1,0,0.1,0,0.2s0.1,0,0.2,0c0.6-0.7,1.2-1.4,1.8-2.1c0.7-0.8,1.5-1.6,2.3-2.4c0.6-0.6,1.2-1.2,1.9-1.9
				c0.4-0.4,0.8-0.8,1.2-1.1c0.9-0.8,1.8-1.5,2.7-2.3c1.6-1.3,3.3-2.5,5-3.7c1.6-1.1,3.3-2.1,4.9-3c0.4-0.2,0.8-0.5,1.2-0.7
				c0,0,0.1,0.1,0.1,0.1c0.4,0.3,0.7,0.6,1.1,0.9c0.4,0.4,0.9,0.7,1.3,1.1c-0.8,0.4-1.5,0.9-2.2,1.4c-1.9,1.2-3.8,2.5-5.6,3.8
				c-0.4,0.3-0.8,0.6-1.1,0.8c-0.9,0.7-1.7,1.3-2.6,2c-1.5,1.2-2.9,2.4-4.3,3.6c-2,1.7-3.9,3.5-5.9,5.3l0,0.1l0.1,0
				c2-1.9,4-3.7,6.1-5.4c1.5-1.2,2.9-2.4,4.5-3.6c1.9-1.4,3.8-2.8,5.8-4.1c0.7-0.4,1.3-0.9,2-1.3c1.2-0.8,2.5-1.5,3.8-2.2
				c0.5,0.4,1,0.9,1.4,1.3c0.1,0,0.1,0.1,0.2,0.1c-0.3,0.2-0.7,0.4-1,0.6c-2.8,1.8-5.5,3.8-8,6c-1.9,1.6-3.7,3.3-5.5,5
				c-0.7,0.7-1.4,1.3-2.1,2c-1.1,1.1-2.2,2.1-3.3,3.2v0.1h0.1c3.2-3.2,6.5-6.4,10-9.4c2.4-2,4.9-3.9,7.6-5.6
				c0.8-0.5,1.7-1.1,2.6-1.5c0.7,0.6,1.4,1.3,2,2c-0.7,0.4-1.4,0.8-2.1,1.1c-1.5,0.8-2.9,1.7-4.3,2.7c-1.1,0.7-2.1,1.4-3.1,2.2
				c-1,0.7-2,1.5-2.9,2.3c-0.5,0.4-1,0.8-1.5,1.3c-2.1,1.8-4,3.6-5.9,5.6c0,0,0,0.1,0,0.1s0.1,0,0.1,0c0.9-1,1.8-1.9,2.8-2.8
				c0.3-0.3,0.6-0.6,0.9-0.9c0.3-0.3,0.6-0.5,0.9-0.8c0.6-0.5,1.2-1.1,1.8-1.6c0.5-0.4,1.1-0.9,1.6-1.3c0.4-0.3,0.7-0.6,1.1-0.8
				c0.3-0.3,0.7-0.5,1.1-0.8c0.8-0.6,1.6-1.1,2.5-1.7c0.9-0.6,1.8-1.1,2.7-1.7c0.7-0.4,1.4-0.8,2.1-1.2c0.5-0.3,1-0.6,1.6-0.8
				c0.4-0.2,0.7-0.4,1.1-0.5c0.8,0.8,1.5,1.5,2.2,2.3c-0.5,0.4-1,0.7-1.5,1c-0.8,0.5-1.6,1.1-2.4,1.6c-0.7,0.4-1.3,0.9-2,1.3
				c-1.5,1-3,2-4.6,2.9c-2.6,1.7-5.1,3.5-7.4,5.5c-0.3,0.2-0.6,0.5-0.8,0.8c-0.4,0.4-0.7,0.8-1.1,1.1c0,0,0,0.1,0,0.2
				c0,0,0.1,0,0.2,0c0.4-0.4,0.8-0.7,1.2-1.1c0.4-0.4,0.8-0.8,1.3-1.1c0.2-0.2,0.4-0.4,0.7-0.5c0.5-0.4,1-0.8,1.5-1.2
				c0.8-0.6,1.6-1.1,2.3-1.7c1.5-1.1,3.1-2,4.7-3c1.4-0.9,2.8-1.7,4.1-2.6c0.8-0.5,1.5-1,2.3-1.5c0.6-0.4,1.2-0.8,1.8-1.3
				c0.8,0.8,1.5,1.6,2.3,2.5c-1,0.5-2,1-3,1.6c-0.7,0.4-1.3,0.7-2,1.1c-3.1,1.9-6,4-8.9,6.2c-1,0.8-2,1.6-3,2.5
				c-0.2,0.2-0.5,0.4-0.7,0.6c-0.8,0.7-1.5,1.4-2.3,2.1c-0.1,0-0.1,0.1,0,0.2c0.1,0.1,0.1,0.1,0.2,0c0.4-0.4,0.8-0.7,1.2-1.1
				c0.2-0.2,0.5-0.4,0.7-0.6c0.3-0.2,0.5-0.5,0.8-0.7c0.3-0.3,0.7-0.6,1-0.9c0.3-0.2,0.6-0.5,0.8-0.7c0.7-0.5,1.3-1.1,2-1.6
				c2.9-2.2,5.9-4.2,9-6c0.9-0.5,1.7-1,2.6-1.5c0.6-0.3,1.3-0.7,1.9-1c0.7,0.8,1.4,1.6,2.1,2.4c-0.2,0.1-0.4,0.2-0.6,0.3
				c-1.1,0.6-2.2,1.2-3.3,1.8c-0.8,0.5-1.6,1-2.5,1.4c-0.4,0.3-0.9,0.5-1.3,0.8c-0.3,0.2-0.6,0.4-0.8,0.5c-0.6,0.4-1.3,0.8-1.9,1.3
				c-1.3,0.9-2.6,1.9-3.9,2.8c-0.3,0.2-0.6,0.4-0.8,0.7c-0.8,0.6-1.5,1.3-2.3,1.9c-0.2,0.2-0.5,0.4-0.7,0.6c-0.4,0.3-0.7,0.7-1.1,1
				c0,0,0,0.1,0,0.2s0.1,0,0.2,0c0.8-0.7,1.5-1.4,2.3-2c0.4-0.3,0.8-0.7,1.2-1c0.3-0.2,0.6-0.5,0.9-0.7c1-0.8,2-1.5,3-2.2
				c1.3-0.9,2.6-1.8,4-2.6c0.4-0.2,0.8-0.5,1.2-0.7c0.4-0.2,0.7-0.4,1.1-0.6c1.4-0.8,2.9-1.6,4.3-2.3c0.5-0.2,1-0.5,1.4-0.7
				c0.6,0.7,1.2,1.4,1.7,2.1c-0.3,0.1-0.5,0.3-0.8,0.4c-0.8,0.5-1.7,0.9-2.5,1.4c-1.5,0.9-3,2-4.5,3c-2.5,1.8-5,3.8-7.5,5.6
				c-0.7,0.5-1.4,1.1-2.1,1.5c-0.3,0.2-0.5,0.4-0.8,0.6c-0.1,0.1-0.3,0.2-0.4,0.3l0,0c0.3-0.2,0.7-0.4,1-0.6
				c0.1-0.1,0.2-0.2,0.4-0.2c0.2-0.1,0.4-0.3,0.5-0.4c2.4-1.8,4.9-3.6,7.4-5.3c0.9-0.6,1.8-1.2,2.6-1.8c0.7-0.4,1.3-0.9,2-1.3
				c1.1-0.7,2.3-1.4,3.4-2c0.5-0.3,1.1-0.6,1.6-0.9c0.4,0.6,0.9,1.1,1.3,1.7c-0.6,0.3-1.2,0.5-1.8,0.8c-0.7,0.3-1.3,0.7-2,1.1
				c-0.9,0.5-1.7,1-2.6,1.5c-3.4,2.1-6.6,4.3-9.7,6.7c0,0,0,0.1,0,0.1s0.1,0,0.1,0c0.6-0.5,1.2-0.9,1.9-1.4c0.9-0.6,1.8-1.2,2.7-1.9
				c0.6-0.4,1.2-0.8,1.8-1.2c1-0.6,2-1.2,3-1.8c1-0.6,2-1.1,3-1.6c0.7-0.3,1.3-0.7,2-1c0.6-0.3,1.2-0.6,1.8-0.9
				c0.4,0.5,0.7,1,1.1,1.5c0.6,1.1,1.3,2.2,1.9,3.3c0.5,0.8,0.9,1.7,1.3,2.6c-0.9,0.2-1.7,0.5-2.6,0.8c-0.6,0.2-1.1,0.4-1.7,0.7
				c-0.5,0.2-1,0.5-1.5,0.7c-0.2,0.1-0.4,0.2-0.5,0.3c-0.9,0.5-1.7,1-2.6,1.5c-1.4,0.8-2.8,1.7-4.2,2.6c0,0,0,0,0,0.1c0,0,0,0,0.1,0
				c0.6-0.4,1.2-0.7,1.8-1.1c0.6-0.4,1.2-0.7,1.8-1.1c0.4-0.2,0.9-0.5,1.3-0.7c1.2-0.7,2.4-1.3,3.7-1.8c0.9-0.4,1.8-0.7,2.7-1
				c0.6-0.2,1.2-0.3,1.8-0.5c0.4,0.9,0.8,1.7,1.2,2.6c-0.1,0-0.2,0-0.3,0.1c-0.1,0-0.3,0.1-0.4,0.1c-0.5,0.2-1,0.3-1.6,0.5
				c-0.2,0.1-0.4,0.2-0.7,0.3c-0.3,0.1-0.6,0.3-0.9,0.4c-0.5,0.2-0.9,0.5-1.3,0.7c-0.2,0.1-0.4,0.2-0.6,0.4
				c-0.4,0.2-0.7,0.4-1.1,0.7c-0.2,0.1-0.4,0.2-0.6,0.4c-0.4,0.3-0.9,0.6-1.3,0.8c-0.4,0.3-0.8,0.5-1.2,0.8c-0.8,0.5-1.6,1-2.5,1.4
				c-0.1,0-0.1,0.2-0.1,0.2c0,0.1,0.2,0.1,0.2,0.1c0.5-0.3,1.1-0.6,1.6-0.9c0.5-0.3,1-0.6,1.5-0.9c1-0.6,2.1-1.3,3.1-1.9
				c0.3-0.2,0.7-0.4,1-0.6c0.2-0.1,0.5-0.3,0.7-0.4c0.3-0.1,0.5-0.3,0.8-0.4c0.2-0.1,0.4-0.2,0.5-0.2c0.9-0.4,1.9-0.7,2.9-0.9
				c0.1,0,0.3-0.1,0.4-0.1c0,0,0,0.1,0.1,0.1c0.1,0.2,0.2,0.3,0.2,0.5c0.1,0.2,0.1,0.4,0.2,0.6c0.1,0.4,0.3,0.8,0.4,1.2
				c0.3,0.8,0.5,1.7,0.8,2.5c0.2,0.5,0.3,1.1,0.5,1.6c0.1,0.2,0.1,0.5,0.2,0.7c0.1,0.4,0.2,0.8,0.2,1.3c0.2,1.3,0.1,2.6-0.1,3.9
				c0,0.1,0,0.2-0.1,0.3c0,0,0,0.1,0,0.1c0,0.1-0.1,0.2-0.1,0.3c-0.9,0.5-1.8,1.1-2.6,1.7c-0.3,0.2-0.6,0.4-0.8,0.6l-0.8,0.6
				l-0.8-0.5l0,0c0.2,0.1,0.4,0.3,0.7,0.4c0,0,0.2,0.1,0.2,0.1c0.1,0,0.1-0.1,0.2-0.1c0.2-0.1,0.4-0.3,0.6-0.4
				c0.5-0.3,1-0.6,1.5-0.9c0.5-0.3,0.9-0.5,1.4-0.8c0.2-0.1,0.3-0.2,0.5-0.2c-0.2,0.4-0.4,0.8-0.6,1.2c-0.2,0.3-0.3,0.6-0.5,0.8
				c-0.2,0.3-0.4,0.6-0.6,0.9c-0.3,0.4-0.6,0.8-1,1.2c-1,1.1-2.1,2.1-3.4,3c-0.6,0.4-1.2,0.8-1.8,1.1c-2.8,1.5-6.2,2.5-9.3,2.4
				c-0.7,0-1.4-0.1-2.2-0.2c-0.1,0-0.1,0-0.2,0.1s0,0.1,0.1,0.2c0.5,0.1,1,0.2,1.4,0.2c0.5,0,0.9,0,1.4,0.1c0.3,0,0.7,0,1,0
				c0.5,0,0.9-0.1,1.4-0.1c0.8-0.1,1.6-0.3,2.5-0.5c0.5-0.1,0.9-0.3,1.4-0.4c0.1,0,0.2-0.1,0.3-0.1c0.3-0.1,0.6-0.2,1-0.4
				c0.5-0.2,0.9-0.4,1.3-0.6c0.2-0.1,0.4-0.2,0.6-0.3c0.4-0.2,0.8-0.5,1.2-0.8c0.7-0.5,1.3-0.9,1.9-1.5c0.7-0.6,1.3-1.2,1.9-1.9
				c0.4-0.4,0.7-0.9,1-1.3c-0.7,1.2-1.5,2.2-2.4,3.1c-0.1,0.1-0.2,0.2-0.3,0.3c0,0-0.1,0.1-0.1,0.1c-0.5,0.5-1,0.9-1.5,1.3
				c-0.6,0.4-1.2,0.8-1.8,1.2c-0.4,0.2-0.8,0.4-1.3,0.6c-1,0.5-2.1,0.9-3.3,1.1c-0.4,0.1-0.7,0.2-1.1,0.2c-0.6,0.1-1.3,0.2-1.9,0.2
				c-0.4,0-0.8,0.1-1.1,0c-0.5,0-0.9,0-1.4-0.1c-1.1-0.1-2.2-0.3-3.3-0.6c-0.2-0.1-0.4-0.1-0.5-0.2c-0.2-0.1-0.4-0.1-0.6-0.2
				c-0.3-0.1-0.5-0.2-0.8-0.3c1.1,0.2,2.1,0.3,3.2,0.3c1.1,0,2.1,0,3.2-0.1c0.4,0,0.7-0.1,1.1-0.1c0.1,0,0.1,0,0.2,0
				c0,0,0.1,0,0.1,0c0.4-0.1,0.7-0.1,1.1-0.2c0.2,0,0.5-0.1,0.7-0.2c0.3-0.1,0.6-0.2,1-0.2c0.2,0,0.3-0.1,0.5-0.1
				c0.8-0.3,1.6-0.5,2.4-0.9c0.5-0.2,1-0.5,1.4-0.9c0.1-0.1,0.3-0.2,0.4-0.3c-0.1,0-0.5,0.1-0.6,0.2c-0.5,0.1-0.9,0.3-1.4,0.4
				c-0.5,0.1-0.9,0.3-1.4,0.5c-0.1,0-0.2,0.1-0.4,0.1c-0.3,0.1-0.6,0.2-0.8,0.3c-0.6,0.2-1.3,0.3-1.9,0.4c-0.9,0.2-1.8,0.3-2.6,0.4
				c-0.2,0-0.4,0-0.6,0.1c-0.2,0-0.3-0.1-0.5-0.1c-0.4,0-0.7-0.1-1.1-0.2c-0.6-0.1-1.2-0.3-1.8-0.5c-0.5-0.1-0.9-0.3-1.3-0.5
				c0.8-0.4,1.6-0.8,2.3-1.2c0.3-0.1,0.5-0.3,0.8-0.4c0.5-0.3,0.9-0.5,1.4-0.8c0.1-0.1,0.1-0.2,0.1-0.3s-0.2-0.1-0.3-0.1
				c-0.4,0.3-0.9,0.6-1.3,0.8c-0.3,0.2-0.6,0.4-0.9,0.5c-0.8,0.4-1.5,0.9-2.3,1.3c-0.5-0.2-1.1-0.4-1.6-0.7
				c-0.4-0.2-0.8-0.4-1.2-0.6c0.8-0.6,1.5-1.2,2.3-1.7c0.2-0.1,0.5-0.3,0.7-0.4c0.4-0.2,0.8-0.3,1.2-0.5c0.2-0.1,0.2-0.2,0.2-0.4
				c-0.1-0.2-0.2-0.2-0.4-0.2c-0.7,0.3-1.4,0.7-2,1.2c-0.3,0.2-0.5,0.4-0.7,0.6c-0.4,0.4-0.9,0.8-1.3,1.2c0,0-0.1,0.1-0.1,0.1
				c-0.2-0.1-0.4-0.2-0.5-0.3c-0.2-0.1-0.4-0.2-0.5-0.3c-0.2-0.1-0.3-0.2-0.5-0.3c-0.2-0.2-0.5-0.3-0.7-0.5c0.3-0.2,0.5-0.5,0.8-0.7
				c1.1-0.9,2.1-1.8,3.4-2.4c0.3-0.1,0.5-0.2,0.8-0.3c0.2-0.1,0.2-0.2,0.2-0.4s-0.2-0.2-0.4-0.2c-1.3,0.5-2.5,1.5-3.5,2.4
				c-0.3,0.3-0.6,0.5-1,0.8c-0.2,0.2-0.4,0.4-0.6,0.5c-0.4-0.3-0.8-0.6-1.2-0.9c-0.3-0.2-0.6-0.5-0.8-0.7c0.1-0.1,0.3-0.2,0.4-0.3
				c0.4-0.3,0.9-0.7,1.4-1c1.3-0.9,2.7-1.7,4.2-2.3c0.1-0.1,0.2-0.2,0.1-0.4s-0.2-0.2-0.4-0.1c-0.3,0.1-0.5,0.2-0.8,0.4
				c-0.5,0.2-0.9,0.5-1.3,0.7c-0.8,0.4-1.5,0.9-2.2,1.4c-0.5,0.4-1,0.7-1.5,1.2c-0.1,0.1-0.2,0.1-0.2,0.2c-0.2-0.2-0.4-0.4-0.6-0.6
				c-0.2-0.2-0.3-0.3-0.5-0.5c0.1,0,0.1-0.1,0.2-0.1c1.5-1.2,3.1-2.3,4.9-3.1c0.7-0.3,1.4-0.6,2.1-0.9c0.2-0.1,0.2-0.2,0.2-0.4
				c-0.1-0.2-0.2-0.2-0.4-0.2c-0.4,0.2-0.9,0.3-1.3,0.5c-0.4,0.2-0.8,0.4-1.2,0.6c-0.9,0.5-1.7,1-2.5,1.6c-0.8,0.5-1.5,1.1-2.2,1.7
				c-0.1-0.1-0.1-0.1-0.2-0.2c-0.3-0.3-0.5-0.5-0.8-0.8c0.1-0.1,0.3-0.2,0.4-0.4c1.9-1.5,4.2-2.6,6.4-3.5c0.1-0.1,0.2-0.2,0.1-0.3
				c-0.1-0.1-0.2-0.2-0.3-0.1c-0.3,0.2-0.7,0.3-1,0.5c-0.3,0.1-0.5,0.3-0.8,0.4c-0.7,0.4-1.4,0.7-2.1,1.2c-0.7,0.4-1.4,0.8-2,1.3
				c-0.3,0.2-0.6,0.5-0.9,0.7c-0.1-0.1-0.1-0.1-0.2-0.2c0.8-0.8,1.6-1.7,2.4-2.5c0.2-0.2,0.4-0.4,0.5-0.6c0.2-0.1,0.4-0.2,0.6-0.4
				c0.2-0.1,0.4-0.2,0.6-0.3c0.1-0.1,0.1-0.2,0.1-0.3c-0.1-0.1-0.2-0.1-0.3-0.1c0.2-0.2,0.4-0.5,0.6-0.7c0.2-0.3,0.5-0.5,0.7-0.8
				c0.2-0.2,0.4-0.4,0.6-0.7c0.2-0.3,0.4-0.6,0.5-1c-0.3,0.2-0.6,0.4-0.9,0.6c-0.2,0.2-0.5,0.5-0.7,0.7c-0.4,0.4-0.7,0.8-1.1,1.2
				c-0.5,0.6-1,1.1-1.5,1.7c-0.2,0.2-0.5,0.3-0.7,0.5c-0.3,0.2-0.6,0.4-0.9,0.7c0,0,0,0,0,0c0.2-0.2,0.3-0.5,0.5-0.7
				c0.3-0.3,0.6-0.6,0.9-1c0.4-0.4,0.7-0.9,1.1-1.3c0.3-0.4,0.7-0.8,1-1.2c0.5-0.7,1-1.3,1.5-2c0.4-0.5,0.8-1.1,1.2-1.7
				c0.1-0.2,0.1-0.4-0.1-0.5c-0.2-0.1-0.4-0.1-0.5,0.1c-0.4,0.6-0.8,1.1-1.2,1.7c-0.5,0.7-1,1.3-1.6,2c-0.3,0.4-0.7,0.9-1.1,1.3
				c0.1-0.3,0.1-0.6,0.2-0.8c0,0,0-0.1,0-0.1c0,0-0.1,0-0.1,0c-0.3,0.6-0.7,1.3-1.1,1.9c-0.1,0.2-0.2,0.4-0.3,0.5
				c-0.4,0.5-0.8,0.9-1.2,1.3c-0.3,0.3-0.6,0.6-0.9,1c0,0-0.1-0.1-0.1-0.1c0,0-0.1-0.1-0.2,0s-0.1,0.1,0,0.2c0,0,0.1,0.1,0.1,0.1
				c-0.4,0.4-0.7,0.7-1.1,1.1c-1.5,1.4-3.1,2.8-4.8,3.9c-0.4,0.2-0.8,0.4-1.2,0.6c-0.5,0.3-1,0.6-1.6,0.8c-0.2,0.1-0.4,0.2-0.7,0.2
				c-0.7,0.2-1.5,0.5-2.2,0.7c-0.8,0.2-1.6,0.4-2.4,0.5c-0.8,0.1-1.6,0.2-2.4,0.3c-0.6,0-1.2,0.1-1.8,0.1c-0.7,0-1.4,0-2,0
				c-0.4,0-0.8-0.1-1.2-0.1c-0.2,0-0.3,0-0.5-0.1c-0.4,0-0.7-0.1-1.1-0.1c-0.8-0.1-1.6-0.3-2.4-0.5c-0.6-0.1-1.1-0.3-1.7-0.5
				c-2-0.6-4.1-1.6-5.7-3c-0.3-0.2-0.6-0.5-0.9-0.8c-0.2-0.5-0.4-1.1-0.6-1.6c-0.1-0.4-0.2-0.7-0.3-1.1C3,55,2.9,54.2,2.8,53.4
				c-0.1-0.5-0.1-1-0.1-1.5c-0.1-2-0.1-3.9,0.2-5.9c0.1-0.5,0.3-1.1,0.4-1.6c0.9-3.1,2.1-6,3.5-8.9c0.2-0.3,0.3-0.6,0.5-0.8
				c0.4-0.7,0.8-1.4,1.2-2.1c0.1-0.1,0.1-0.2,0.2-0.3c0.1-0.2,0.2-0.4,0.3-0.5c0.6-0.9,1.3-1.9,2-2.7c0.3-0.4,0.6-0.8,0.9-1.1
				c0.6-0.7,1.3-1.4,1.9-2.1c0.4-0.4,0.8-0.7,1.1-1.1c0.9-0.8,1.8-1.5,2.8-2.2c0.2-0.1,0.4-0.3,0.6-0.4c0.4-0.3,0.9-0.6,1.3-0.8
				c0.1-0.1,0.3-0.2,0.4-0.2c0.1,0,0.1-0.1,0.1-0.2c0-0.1-0.1-0.1-0.2-0.1c-1.1,0.4-2.2,1.1-3.2,1.8c-0.4,0.3-0.8,0.6-1.2,0.9
				c-0.1,0.1-0.2,0.2-0.3,0.2c0.4-0.4,0.7-0.8,1.1-1.2c2.1-2.2,4.3-4.2,6.7-6.1c0.5-0.3,1-0.5,1.5-0.8c0.1,0,0.1-0.1,0.1-0.2
				c0-0.1-0.1-0.1-0.2-0.1c-0.1,0.1-0.2,0.1-0.3,0.2c0.2-0.1,0.3-0.2,0.5-0.4c1.5-1.1,3.1-2.2,4.7-3.2c0.8-0.4,1.6-0.8,2.4-1.1
				c0.5-0.2,1.1-0.4,1.6-0.6c1.1-0.4,2.3-0.8,3.4-1.2c0.1,0,0.3-0.1,0.4-0.1c-1.7,1-3.3,2.1-4.9,3.2c-2.3,1.6-4.6,3.2-6.7,5
				c-1.3,1.1-2.6,2.3-3.8,3.6c-0.3,0.3-0.6,0.8-0.9,1.1c0,0,0,0.1,0,0.1c0,0,0.1,0,0.1,0c0.2-0.2,0.3-0.4,0.5-0.5
				c0.1-0.1,0.3-0.2,0.4-0.3c0.5-0.5,1-1,1.5-1.5c0.7-0.7,1.4-1.3,2.2-2c0.3-0.3,0.7-0.6,1-0.9c0.8-0.7,1.7-1.3,2.6-2
				c0.7-0.5,1.4-1,2.1-1.5c0.4-0.3,0.9-0.6,1.3-0.9c0.7-0.5,1.4-0.9,2.1-1.4c1.4-0.9,2.7-1.7,4.1-2.5c0.2-0.1,0.5-0.1,0.7-0.2
				c0.3-0.1,0.6-0.2,1-0.3C40.4,8.1,40.6,8.2,40.7,8.3z M40.7,8.1c0.4,0.2,0.8,0.4,1.2,0.7c0,0,0,0,0,0c0,0,0,0,0,0
				C41.4,8.6,41,8.3,40.7,8.1C40.6,8.1,40.7,8.1,40.7,8.1z M43.8,10c0.3,0.2,0.7,0.4,1,0.7c-0.1,0-0.1,0.1-0.2,0.1
				c-0.7-0.5-1.4-1-2.1-1.5c-0.1-0.1-0.2-0.2-0.4-0.2c0,0,0,0,0,0C42.8,9.4,43.3,9.7,43.8,10z M47.7,12.7c0.1,0.1,0.2,0.2,0.4,0.3
				c0,0,0,0,0,0c-0.1,0.1-0.3,0.2-0.4,0.2c-0.3-0.2-0.5-0.4-0.8-0.7c-0.4-0.3-0.7-0.6-1.1-0.9c-0.2-0.2-0.4-0.3-0.6-0.5
				c0.1,0,0.1-0.1,0.2-0.1C46.2,11.6,47,12.2,47.7,12.7z M29.8,11.2C29.8,11.2,29.8,11.2,29.8,11.2C29.7,11.2,29.7,11.2,29.8,11.2
				C29.8,11.2,29.8,11.2,29.8,11.2z M49.1,13.8c0.2,0.2,0.4,0.3,0.6,0.5c0.2,0.1,0.3,0.3,0.5,0.4c-0.2,0.1-0.4,0.2-0.6,0.3
				c-0.5-0.4-0.9-0.8-1.4-1.2c-0.1-0.1-0.1-0.1-0.2-0.2c0.2-0.1,0.3-0.2,0.5-0.3C48.8,13.5,49,13.7,49.1,13.8z M51.7,16.1
				c0.4,0.4,0.7,0.7,1.1,1.1c-0.2,0.1-0.4,0.2-0.6,0.3c0,0,0,0,0,0c-0.1-0.1-0.2-0.2-0.3-0.3c-0.6-0.6-1.2-1.1-1.7-1.7
				c0.2-0.1,0.4-0.2,0.6-0.3C51,15.5,51.4,15.8,51.7,16.1z M53.2,17.7c0.7,0.7,1.3,1.4,2,2.1c0,0-0.1,0-0.1,0.1
				c-0.1,0.1-0.2,0.2-0.4,0.3c-0.7-0.7-1.5-1.5-2.2-2.2C52.8,17.8,53,17.7,53.2,17.7C53.2,17.6,53.2,17.6,53.2,17.7z M58,21.7
				c0.2,0.3,0.5,0.5,0.7,0.8c-0.1,0-0.1,0.1-0.2,0.1c-0.2-0.3-0.4-0.5-0.6-0.7c-0.4-0.4-0.8-0.9-1.2-1.3c-0.2-0.2-0.4-0.5-0.7-0.7
				c0,0,0,0,0,0C56.8,20.4,57.4,21,58,21.7z M56.3,21c0.2,0.3,0.5,0.5,0.7,0.8c0,0,0,0.1,0.1,0.1c0,0,0,0-0.1-0.1c0,0-0.1,0-0.1,0
				c0,0,0,0.1,0,0.1c0.3,0.3,0.6,0.6,0.9,0.9c0,0,0,0,0,0c-0.1,0-0.2,0.1-0.3,0.1c-0.8-0.9-1.6-1.7-2.4-2.5c0.1-0.1,0.3-0.2,0.4-0.3
				C55.8,20.5,56.1,20.8,56.3,21z M61,25.4c-0.3-0.3-0.6-0.6-1-0.9c-0.4-0.5-0.7-0.9-1.1-1.4c0,0,0,0,0,0c0.1,0,0.1-0.1,0.2-0.1
				C59.8,23.7,60.4,24.5,61,25.4z M58.9,24.2c0.4,0.5,0.9,1.1,1.3,1.7c0,0,0,0,0,0c-0.7-0.8-1.4-1.6-2.2-2.4c0.1,0,0.2-0.1,0.3-0.1
				C58.5,23.6,58.7,23.9,58.9,24.2z M11.6,26.2c-0.4,0.6-0.9,1.2-1.3,1.7c-0.3,0.5-0.6,0.9-0.9,1.4c-0.3,0.4-0.6,0.9-1,1.3
				c-0.2,0.3-0.4,0.6-0.6,0.8c-0.1,0.2-0.2,0.3-0.4,0.5c0.1-0.2,0.3-0.5,0.4-0.7c0.3-0.6,0.7-1.1,1-1.6c0.3-0.4,0.6-0.8,0.9-1.2
				c0.4-0.6,0.8-1.1,1.3-1.6c0.3-0.4,0.7-0.8,1.1-1.2C12,25.8,11.8,26,11.6,26.2z M63.1,28.5c0.2,0.3,0.4,0.6,0.5,1
				c-0.2-0.3-0.4-0.5-0.5-0.8c-0.2-0.3-0.4-0.6-0.6-0.8C62.7,28,62.9,28.2,63.1,28.5z M67.3,33.8c0.3,0.5,0.6,0.9,0.9,1.4
				c-0.4-0.6-0.8-1.2-1.2-1.7c-0.2-0.3-0.4-0.5-0.6-0.8c0-0.1-0.1-0.1-0.1-0.2c-0.1-0.2-0.2-0.3-0.3-0.5
				C66.4,32.7,66.9,33.2,67.3,33.8z M65.6,32.5c0,0.1,0.1,0.1,0.1,0.2c0.2,0.4,0.4,0.8,0.6,1.2c0,0,0,0.1,0,0.1
				C66.2,33.5,65.9,33,65.6,32.5c-0.1,0-0.1-0.1-0.2-0.2c0,0,0,0,0,0C65.5,32.4,65.6,32.4,65.6,32.5z M61.1,35.3
				c-0.9,0.4-1.7,0.8-2.6,1.2c-0.5,0.3-1.1,0.5-1.6,0.8c-0.9,0.4-1.8,0.9-2.6,1.4c-1,0.6-2.1,1.2-3,2c-0.5,0.4-0.9,0.7-1.3,1.1
				c-0.2,0.1-0.3,0.3-0.5,0.5c-0.1,0.1-0.1,0.2,0,0.3c0.1,0.1,0.2,0.1,0.3,0c0.2-0.2,0.5-0.5,0.8-0.7c0.2-0.2,0.5-0.4,0.7-0.6
				c0.3-0.3,0.7-0.5,1-0.8c2.3-1.6,4.9-2.8,7.5-3.9c0.7-0.3,1.5-0.6,2.2-0.9c0.4-0.2,0.8-0.3,1.2-0.5c0.5-0.2,1-0.5,1.5-0.7
				c0.1-0.1,0.2-0.2,0.1-0.3c-0.1-0.1-0.2-0.2-0.3-0.1C63.4,34.3,62.3,34.8,61.1,35.3z M70.5,39.9c0.6,1.2,1.2,2.5,1.7,3.8
				c0.2,0.5,0.3,1,0.5,1.5c0.4,1.4,0.7,2.8,0.9,4.2c0.1,0.4,0.1,0.9,0.1,1.3c0,0.9-0.1,1.8-0.2,2.7c-0.1,0.6-0.2,1.2-0.4,1.8
				c0,0-0.1,0-0.1,0.1c0,0,0,0-0.1,0c0.1-0.6,0.2-1.2,0.2-1.9c0,0,0,0,0,0c0.1-0.7,0.2-1.4,0.2-2.1c0-0.5-0.1-1-0.2-1.5
				c0.1,0.2,0.2,0.4,0.3,0.6c-0.2-0.7-0.4-1.4-0.6-2.1c-0.2-0.5-0.3-1.1-0.5-1.6c-0.5-1.5-1-3-1.6-4.4c0-0.1-0.1-0.2-0.1-0.3
				c0,0,0,0,0,0c0-0.1,0-0.1-0.1-0.2c-0.3-0.6-0.6-1.3-0.8-1.9c0,0,0,0,0-0.1c-0.7-1.7-1.4-3.4-2.2-5.1
				C68.5,36.4,69.5,38.1,70.5,39.9z M59.9,38.8c-1.5,0.8-2.8,1.7-4.2,2.7c-0.3,0.3-0.7,0.5-1,0.8c-0.1,0.1-0.3,0.2-0.4,0.4
				c-0.4,0.4-0.8,0.8-1.2,1.2C53,43.9,53,44,53,44c0.1,0.1,0.2,0.1,0.2,0c0.4-0.4,0.8-0.7,1.3-1.1c0.2-0.1,0.3-0.3,0.5-0.4
				c0.3-0.3,0.6-0.5,1-0.8c0.7-0.5,1.4-1,2.1-1.4c1.9-1.2,3.9-2.2,6-3c0.5-0.2,1-0.4,1.5-0.5c0.2-0.1,0.2-0.2,0.2-0.4
				s-0.2-0.2-0.4-0.2C63.5,37,61.7,37.8,59.9,38.8z M3.6,40.3c0,0.1-0.1,0.1-0.1,0.2c-0.7,1.7-1.3,3.5-1.8,5.3
				c-0.1,0.3-0.2,0.6-0.2,0.9C1.8,44.9,2.3,43,3,41.2c0.3-0.7,0.6-1.4,1-2.1C3.8,39.5,3.7,39.9,3.6,40.3z M71.8,41.9
				c0,0,0,0.1,0,0.1C72,42.2,71.9,42,71.8,41.9C71.8,41.8,71.8,41.9,71.8,41.9z M72.7,44.3c0,0.1,0,0.1,0.1,0.2
				c0.1,0.1,0-0.1-0.1-0.4C72.6,44.2,72.7,44.2,72.7,44.3z M68.6,46.6c-0.1,0-0.3,0.1-0.4,0.1c-1.5,0.7-2.9,1.6-4.3,2.5
				c-0.6,0.4-1.1,0.7-1.7,1.1c-0.4,0.3-0.8,0.5-1.2,0.8c-0.4,0.2-0.8,0.4-1.2,0.7l0,0.1c0.2-0.1,0.4-0.2,0.6-0.3
				c0.5-0.3,1.1-0.6,1.6-0.9c1.3-0.7,2.5-1.5,3.8-2.2c0.8-0.4,1.7-0.8,2.5-1.1c0.3-0.1,0.5-0.2,0.8-0.3c0.2-0.1,0.5-0.2,0.7-0.2
				c0.2,0,0.2-0.2,0.2-0.4s-0.2-0.2-0.4-0.2C69.4,46.3,69,46.4,68.6,46.6z M72.6,48.7c0.1,0.1,0.1,0.3,0.2,0.4
				c0,0.4,0.1,0.8,0.1,1.3c0-0.2-0.1-0.5-0.1-0.7c-0.1-0.4-0.2-0.9-0.4-1.3c-0.1-0.2-0.1-0.5-0.2-0.7C72.3,48,72.5,48.3,72.6,48.7z
				 M70.4,48.5c-1.1,0.5-2.2,1.2-3.2,1.8c-0.7,0.4-1.3,0.9-2,1.3l-1.9,1.3l0.2-0.4c0.2-0.4,0.5-0.9,0.8-1.2
				c-0.3,0.3-0.6,0.9-0.8,1.3c-0.1,0.1-0.1,0.2-0.1,0.3c0,0-0.1,0.1,0,0.1c0,0,0.1,0,0.1-0.1c0.1-0.1,0.2-0.1,0.3-0.2
				c0.4-0.3,0.9-0.6,1.3-0.9c1.2-0.7,2.4-1.4,3.6-2c0.6-0.3,1.3-0.6,2-0.8c0.2-0.1,0.4-0.2,0.6-0.2c0.2-0.1,0.2-0.2,0.2-0.4
				c-0.1-0.2-0.2-0.2-0.4-0.2C70.7,48.4,70.6,48.5,70.4,48.5z M2,52.1c0.1,0.8,0.2,1.5,0.3,2.3c0.1,0.5,0.2,1,0.3,1.4
				c0.1,0.2,0.1,0.4,0.2,0.6c-0.1-0.2-0.2-0.5-0.3-0.7c-0.4-1-0.7-2.1-0.9-3.2l0-0.1C1.7,51.6,1.9,50.8,2,50C2,50.7,2,51.4,2,52.1z
				 M70.9,51.3c-0.4,0.2-0.7,0.4-1.1,0.6c-0.7,0.4-1.3,0.9-2,1.4c-0.2,0.1-0.5,0.3-0.7,0.4c-0.2,0.1-0.4,0.2-0.5,0.3
				c-0.1,0.1-0.2,0.1-0.3,0.2c-0.1,0-0.2,0.1-0.3,0.1c-0.1,0.1-0.3,0.1-0.4,0.1c0,0-0.1,0.1-0.1,0.1c0,0,0.1,0.1,0.1,0.1
				c0.1-0.1,0.3-0.1,0.4-0.1c0.1,0,0.3-0.1,0.4-0.2c0.1,0,0.2-0.1,0.3-0.1c0.3-0.2,0.6-0.3,0.9-0.5c1.3-0.8,2.6-1.6,4.1-2.1
				c0.1-0.1,0.2-0.2,0.1-0.3c-0.1-0.1-0.2-0.2-0.3-0.1C71.3,51.1,71.1,51.2,70.9,51.3z M1.2,54.2c0.1,0.5,0.2,1.1,0.3,1.6
				c0,0.1,0.2,0.2,0.3,0.2c0,0,0,0,0.1,0c0.2,0.5,0.4,1,0.7,1.5c0.5,1,1.1,1.9,1.7,2.7c0.1,0.2,0.2,0.4,0.3,0.6
				c0.1,0.3,0.3,0.5,0.5,0.8c-0.8-0.7-1.5-1.5-2.1-2.4c-0.1-0.2-0.3-0.4-0.4-0.6c-0.1-0.1-0.2-0.3-0.2-0.4c-0.3-0.5-0.5-1.1-0.7-1.6
				c-0.3-0.8-0.4-1.7-0.5-2.6C1.1,54.1,1.1,54.2,1.2,54.2z M39.4,55.5c-0.2,0.2-0.5,0.5-0.7,0.7c0,0-0.1-0.1-0.1-0.1
				c0-0.1,0.1-0.1,0.1-0.2c0,0,0,0,0,0c0.1,0.1,0.2,0,0.2,0c0.3-0.5,0.7-0.8,1.1-1.1C39.8,55,39.6,55.2,39.4,55.5z M72.9,55.8
				c-0.1,0.2-0.2,0.4-0.2,0.6c0,0,0,0,0,0c0-0.1,0-0.1,0.1-0.2C72.7,56,72.7,55.8,72.9,55.8c0-0.1,0-0.1,0.1-0.1
				C72.9,55.7,72.9,55.7,72.9,55.8z M38.4,56.3C38.4,56.3,38.5,56.3,38.4,56.3c-0.2,0.3-0.4,0.5-0.6,0.7c0,0-0.1,0.1-0.1,0.1
				C37.9,56.8,38.2,56.6,38.4,56.3C38.4,56.3,38.4,56.3,38.4,56.3z M39,56.9c-0.1,0-0.1,0.1-0.2,0.1c0,0,0,0,0-0.1
				c0,0-0.1-0.1-0.1-0.1c0,0,0.1-0.1,0.1-0.1C38.9,56.8,38.9,56.9,39,56.9z M39.8,57.8c0.1,0.1,0.2,0.3,0.4,0.4
				c-0.1,0.1-0.2,0.1-0.2,0.2c0,0-0.1,0.1-0.1,0.1c-0.3-0.4-0.5-0.8-0.8-1.1c0.1-0.1,0.1-0.1,0.2-0.2C39.4,57.4,39.6,57.6,39.8,57.8
				z M34.8,59.2c-0.6,0.5-1.1,1-1.7,1.5c-0.3,0.2-0.6,0.5-0.9,0.7c-0.1,0.1-0.3,0.2-0.4,0.3c-0.4,0.2-0.9,0.5-1.3,0.7
				c-0.3,0.2-0.6,0.3-1,0.4c-0.2,0.1-0.3,0.1-0.5,0.2c0.1-0.1,0.2-0.1,0.4-0.2c1.8-1,3.5-2.2,5.2-3.6c0.5-0.4,1.1-0.9,1.6-1.3
				c0.2-0.2,0.4-0.4,0.6-0.6C36.1,58,35.5,58.6,34.8,59.2z M38.2,57.6c-0.1,0.1-0.1,0.1-0.2,0.2c-0.1,0.1-0.1,0.2,0,0.3
				s0.2,0.1,0.3,0c0,0,0.1-0.1,0.1-0.1c0.2,0.4,0.5,0.8,0.8,1.1c-0.2,0.2-0.4,0.3-0.5,0.5c0-0.1-0.1-0.1-0.1-0.2
				c-0.3-0.4-0.6-0.9-0.8-1.4c0,0,0-0.1-0.1-0.1c0.2-0.1,0.3-0.3,0.5-0.4C38.1,57.5,38.1,57.6,38.2,57.6z M41.6,59.6
				c-0.2,0.2-0.4,0.3-0.6,0.5c-0.3-0.4-0.7-0.8-1-1.2c0.1-0.1,0.3-0.2,0.4-0.3C40.8,58.9,41.2,59.2,41.6,59.6z M40.5,60.8
				c0.9,1,1.9,2,2.9,2.9c-1.2-0.6-2.3-1.4-3.3-2.3c-0.5-0.5-0.9-1-1.3-1.5c0.2-0.2,0.4-0.3,0.6-0.5C39.8,59.8,40.1,60.3,40.5,60.8z
				 M7.4,61.5c2.4,1.3,5.2,2.1,7.9,2.5c0.7,0.1,1.4,0.2,2.1,0.2c0.3,0,0.7,0,1,0c1.3,0.1,2.6,0,3.9-0.1c1-0.1,2-0.2,2.9-0.5
				c-0.8,0.3-1.5,0.6-2.3,0.9c-0.7,0.3-1.4,0.5-2.2,0.7c-0.5,0.1-1,0.2-1.6,0.2c-0.4,0.1-0.9,0.1-1.3,0.1h-1.6
				c-0.3-0.1-0.5-0.2-0.8-0.3c-0.1-0.1-0.3-0.1-0.4-0.2c-0.3-0.1-0.6-0.3-1-0.5c-0.1,0-0.1,0-0.2,0.1s0,0.1,0.1,0.2
				c0.3,0.2,0.6,0.3,1,0.5c0.1,0,0.2,0.1,0.3,0.1c-0.2,0-0.4-0.1-0.6-0.1c-0.4-0.1-0.9-0.1-1.3-0.3c-0.4-0.1-0.7-0.2-1.1-0.3
				c-0.5-0.2-1.1-0.4-1.6-0.6c-0.2-0.1-0.5-0.2-0.7-0.3c-0.3-0.1-0.6-0.3-0.9-0.5c-0.2-0.1-0.5-0.3-0.7-0.4c-0.9-0.6-1.6-1.2-2.4-2
				c-0.3-0.3-0.6-0.6-0.8-0.9c-0.2-0.2-0.4-0.4-0.5-0.7C5.4,60.3,6.4,60.9,7.4,61.5z M43.9,61.5c-0.1,0.1-0.3,0.2-0.4,0.3
				c-0.1,0.1-0.1,0.2,0,0.3s0.2,0.1,0.3,0c0.1-0.1,0.3-0.3,0.5-0.4c0.7,0.5,1.4,1,2.2,1.4c-0.4,0.3-0.7,0.5-1.2,0.8c0,0,0,0,0,0
				c-0.1-0.1-0.2-0.1-0.2-0.2c-0.2-0.2-0.4-0.3-0.6-0.5c-0.3-0.2-0.6-0.5-0.9-0.7c-0.8-0.7-1.5-1.4-2.2-2.2c0.2-0.1,0.3-0.3,0.5-0.4
				c0,0,0.1-0.1,0.1-0.1C42.5,60.4,43.2,61,43.9,61.5z M6.3,62.4C6.5,62.6,6.8,62.8,7,63c0.3,0.2,0.6,0.4,0.9,0.6
				c0.5,0.3,0.9,0.6,1.4,0.8c-0.1-0.1-0.3-0.1-0.4-0.2c-0.4-0.2-0.9-0.4-1.3-0.7c-0.5-0.3-1-0.6-1.4-0.9c-0.1-0.2-0.2-0.4-0.3-0.6
				C6,62.2,6.2,62.3,6.3,62.4z M49.2,64.6c-0.2,0.1-0.4,0.2-0.6,0.3c0,0,0,0.1,0,0.1c0,0,0.1,0,0.1,0c0.2-0.1,0.5-0.3,0.7-0.4
				c1,0.4,2,0.8,3.1,1c-0.4,0-0.9,0-1.3-0.1c-1.5-0.1-3.1-0.4-4.6-0.8c-0.3-0.2-0.6-0.3-0.8-0.5c-0.1-0.1-0.3-0.2-0.4-0.3
				c0.1-0.1,0.3-0.1,0.4-0.2c0.1-0.1,0.2-0.1,0.3-0.2c0.2-0.1,0.3-0.2,0.5-0.3C47.4,63.8,48.3,64.2,49.2,64.6z M28.1,63.6
				c0,0.1,0.2,0.2,0.3,0.1c0.1-0.1,0.3-0.1,0.4-0.1c-2.5,1.3-5.2,2.3-8,2.5c0.1,0,0.1,0,0.2-0.1c0.2,0,0.5-0.1,0.7-0.1
				c0.7-0.1,1.3-0.3,2-0.5c0.4-0.1,0.7-0.2,1.1-0.4c0.3-0.1,0.7-0.3,1-0.4c0.5-0.2,1-0.4,1.4-0.6C27.5,63.8,27.8,63.6,28.1,63.6
				C28,63.5,28,63.5,28.1,63.6z"/>
		</g>
	</g>
</g>
</svg>
