<?xml version="1.0" encoding="iso-8859-1"?>
<!-- Generator: Adobe Illustrator 19.0.0, SVG Export Plug-In . SVG Version: 6.00 Build 0)  -->
<svg version="1.1" id="Layer_1" xmlns="http://www.w3.org/2000/svg" xmlns:xlink="http://www.w3.org/1999/xlink" x="0px" y="0px"
	 viewBox="0 0 392.557 392.557" style="enable-background:new 0 0 392.557 392.557;" xml:space="preserve">
<path style="fill:#56ACE0;" d="M101.754,124.825c0-1.487,0.065-2.844,0.129-4.331H21.721V308.55h26.57
	c6.012,0,10.99,4.848,10.99,10.99v35.62l43.378-43.378c2.069-2.069,4.848-3.168,7.758-3.168h161.551v-60.897
	c-8.21,1.228-16.549,1.875-24.889,1.875C166.982,249.657,101.754,193.673,101.754,124.825z"/>
<path style="fill:#FFC10D;" d="M355.362,174.344c9.956-15.063,15.321-32.194,15.321-49.519c0-56.824-55.402-102.982-123.475-102.982
	S123.604,68.065,123.604,124.825s55.402,102.982,123.475,102.982c21.915,0,43.507-4.848,62.384-14.158
	c3.232-1.939,7.822-1.681,11.119,0.453l45.188,27.022l-12.154-58.053C352.97,180.033,353.616,176.93,355.362,174.344z"/>
<path style="fill:#FFFFFF;" d="M302.287,103.298c0-13.77-11.119-24.954-24.824-25.083c-8.857-0.065-17.002,4.848-21.85,12.283
	c-4.008,6.077-12.994,6.077-17.002,0l0,0c-4.848-7.434-13.059-12.412-21.85-12.283c-13.705,0.129-24.824,11.378-24.824,25.083
	c0,16.873,30.319,50.23,55.143,72.145C271.968,153.205,302.287,119.524,302.287,103.298z"/>
<g>
	<path style="fill:#194F82;" d="M392.339,261.746l-16.485-78.998c10.925-17.778,16.614-37.818,16.614-57.923
		c0-68.848-65.228-124.768-145.325-124.768c-69.689,0-128.129,42.408-142.093,98.78H10.99C4.913,98.837,0,103.686,0,109.762V319.54
		c0,6.012,4.848,10.99,10.99,10.99h26.57v51.006c0,9.762,11.83,14.61,18.683,7.758l58.699-58.699h167.952
		c6.012,0,10.99-4.848,10.99-10.99v-76.671c6.853-2.004,13.705-4.396,20.17-7.37l62.448,37.43
		C384.323,277.778,394.149,270.732,392.339,261.746z M271.968,308.615H110.416c-2.909,0-5.689,1.164-7.758,3.168L59.281,355.16
		v-35.62c0-6.012-4.848-10.99-10.99-10.99H21.786V120.558h80.162c-0.065,1.487-0.129,2.844-0.129,4.331
		c0,68.848,65.228,124.768,145.325,124.768c8.339,0,16.679-0.646,24.889-1.875v60.832H271.968z M353.616,183.136l12.154,58.053
		l-45.123-26.958c-3.297-2.133-7.822-2.392-11.119-0.453c-18.877,9.244-40.469,14.158-62.384,14.158
		c-68.073,0-123.475-46.222-123.475-102.982S179.006,21.843,247.143,21.843s123.475,46.222,123.475,102.982
		c0,17.325-5.236,34.457-15.321,49.519C353.616,176.865,352.97,179.968,353.616,183.136z"/>
	<path style="fill:#194F82;" d="M277.139,56.429c-11.184,0-21.786,3.943-30.125,10.99c-8.339-7.046-18.941-10.99-30.125-10.99
		c-25.859,0-46.933,21.01-46.933,46.933c0,35.232,58.311,85.333,70.077,94.966l0.453,0.388c3.814,3.168,9.244,3.103,13.059-0.065
		l0.453-0.388c11.636-9.826,70.012-60.574,70.012-94.966C324.073,77.439,303.063,56.429,277.139,56.429z M246.949,175.508
		c-24.824-21.915-55.079-55.402-55.079-72.145c0-13.77,11.119-24.954,24.824-25.083c8.857-0.065,17.002,4.848,21.851,12.283
		c4.008,6.077,12.994,6.077,17.002,0c4.848-7.434,13.059-12.412,21.85-12.283c13.705,0.129,24.824,11.378,24.824,25.083
		C302.222,119.589,271.903,153.205,246.949,175.508z"/>
	<path style="fill:#194F82;" d="M68.331,209.9H47.257c-6.012,0-10.925,4.848-10.925,10.925c0,6.012,4.848,10.925,10.925,10.925
		h21.01c6.012,0,10.925-4.848,10.925-10.925S74.343,209.9,68.331,209.9z"/>
	<path style="fill:#194F82;" d="M133.689,209.9h-21.01c-6.012,0-10.925,4.848-10.925,10.925c0,6.012,4.848,10.925,10.925,10.925
		h21.01c6.012,0,10.925-4.848,10.925-10.925C144.679,214.748,139.701,209.9,133.689,209.9z"/>
</g>
<g>
</g>
<g>
</g>
<g>
</g>
<g>
</g>
<g>
</g>
<g>
</g>
<g>
</g>
<g>
</g>
<g>
</g>
<g>
</g>
<g>
</g>
<g>
</g>
<g>
</g>
<g>
</g>
<g>
</g>
</svg>
