<?xml version="1.0" encoding="iso-8859-1"?>
<!-- Generator: Adobe Illustrator 19.0.0, SVG Export Plug-In . SVG Version: 6.00 Build 0)  -->
<svg version="1.1" id="Layer_1" xmlns="http://www.w3.org/2000/svg" xmlns:xlink="http://www.w3.org/1999/xlink" x="0px" y="0px"
	 viewBox="0 0 392.533 392.533" style="enable-background:new 0 0 392.533 392.533;" xml:space="preserve">
<path style="fill:#FFFFFF;" d="M359.822,35.558H32.711c-6.012,0-10.925,4.848-10.925,10.925v216.76
	c0,6.012,4.848,10.925,10.925,10.925h29.996v66.715l66.715-66.715h230.4c6.012,0,10.925-4.848,10.925-10.925V46.419
	C370.747,40.407,365.834,35.558,359.822,35.558z"/>
<path style="fill:#CED4DA;" d="M359.822,13.772H32.711C14.675,13.772,0,28.383,0,46.484v216.76
	c0,18.036,14.675,32.711,32.711,32.711h8.145v72.339c0,9.244,11.313,13.964,17.842,7.434l79.774-79.774h221.35
	c18.101,0,32.711-14.675,32.711-32.711V46.419C392.533,28.383,377.859,13.772,359.822,13.772z M370.747,263.178
	c0,6.012-4.848,10.925-10.925,10.925H129.358l-66.715,66.65v-66.65H32.711c-6.012,0-10.925-4.848-10.925-10.925V46.419
	c0-6.012,4.848-10.925,10.925-10.925h327.111c6.012,0,10.925,4.848,10.925,10.925V263.178L370.747,263.178L370.747,263.178z"/>
<polygon style="fill:#CED4DA;" points="84.428,252.253 43.572,252.253 43.572,57.344 348.962,57.344 348.962,252.253
	120.307,252.253 84.428,288.067 "/>
<path style="fill:#FFF;" d="M259.814,130.524c0-17.325-14.933-31.224-32.517-29.414c-9.18,0.905-17.325,6.4-22.432,14.222l0,0
	c-4.008,6.077-12.994,6.077-17.002,0c-5.107-7.758-13.188-13.317-22.432-14.222c-17.648-1.681-32.517,12.154-32.517,29.414
	c0,20.558,36.396,59.41,63.418,83.071C223.289,189.546,259.814,150.435,259.814,130.524z"/>
<path style="fill:#CED4DA;" d="M230.206,79.13c-12.671,0-24.63,4.655-33.939,12.735c-9.244-8.145-21.269-12.735-33.939-12.735
	c-28.38,0-51.394,23.079-51.394,51.394c0,39.822,70.335,99.232,78.352,105.891l0,0c4.073,3.297,9.956,3.297,13.964-0.065
	c8.081-6.788,78.352-67.038,78.352-105.826C281.6,102.144,258.457,79.13,230.206,79.13z M132.719,130.524
	c0-17.325,14.933-31.224,32.517-29.414c9.18,0.905,17.325,6.4,22.432,14.222c4.008,6.077,12.994,6.077,17.002,0l0,0
	c5.107-7.758,13.188-13.317,22.432-14.222c17.648-1.681,32.517,12.154,32.517,29.414c0,19.911-36.461,59.022-63.547,83.071
	C169.115,189.934,132.719,151.082,132.719,130.524z"/>
<g>
</g>
<g>
</g>
<g>
</g>
<g>
</g>
<g>
</g>
<g>
</g>
<g>
</g>
<g>
</g>
<g>
</g>
<g>
</g>
<g>
</g>
<g>
</g>
<g>
</g>
<g>
</g>
<g>
</g>
</svg>
