<svg xmlns="http://www.w3.org/2000/svg" xmlns:xlink="http://www.w3.org/1999/xlink" version="1.1" x="0px" y="0px" viewBox="0 0 100 100" enable-background="new 0 0 100 100" xml:space="preserve"><path fill="#2196F3" d="M56.469,7.789C31.305,5.626,6.64,12.847,5.627,40.924c-0.695,19.29,3.626,31.297,19.853,34.79  c-0.743,2.106-2.596,6.677-5.784,10.362c-3.412,3.943-4.826,4.959-3.217,6.032c1.608,1.073,7.507,0.403,15.953-4.155  c5.123-2.765,10.981-8.041,14.801-11.769c2.671-0.275,5.482-0.639,8.477-1.113c41.482-6.578,38.702-29.342,38.954-37.183  C94.915,30.047,88.845,10.571,56.469,7.789z M61.84,46.785c-8.883,8.076-12.113,16.554-12.113,16.554s-9.42-5.787-16.822-16.285  c-2.886-4.092-4.104-9.249-3.992-12.516c0.179-5.293,2.961-8.793,8.164-9.331c2.921-0.302,5.18,0.936,7.178,2.781  c2.333,2.153,4.153-0.099,5.473-1.525c2.243-2.422,5.609-5.354,9.287-5.249c6.28,0.18,11.663,5.114,11.574,12.113  C70.453,37.364,67.896,41.278,61.84,46.785z"/></svg>
