<?xml version="1.0" encoding="utf-8"?>
<!-- Generator: Adobe Illustrator 20.1.0, SVG Export Plug-In . SVG Version: 6.00 Build 0)  -->
<svg version="1.1" id="Layer_1" xmlns="http://www.w3.org/2000/svg" xmlns:xlink="http://www.w3.org/1999/xlink" x="0px" y="0px"
	 viewBox="0 0 75 75" style="enable-background:new 0 0 75 93.8;" xml:space="preserve">
<style type="text/css">
	.st0{fill:none;stroke:#000000;stroke-width:1.5;stroke-linecap:round;stroke-linejoin:round;stroke-miterlimit:79.8403;}
</style>
<g transform="scale(1 -1)" fill="#3F51B5">
	<g transform="translate(0 -75)">
		<g>
			<path class="st0" d="M41.4-26.4c-0.3,0-0.5,0-0.8,0"/>
			<path class="st0" d="M36.4-25.3l0.8-0.8"/>
			<path marker-end="none" marker-start="none" d="M41.7,1.4H21.8c0.1-0.1,0.2-0.2,0.4-0.3c0,0-0.1,0-0.1,0
				c-0.2,0.1-0.3,0.2-0.5,0.3c0,0,0,0,0,0h-2.6c0,0,0-0.1,0-0.1c0-0.1-0.1-0.1-0.2,0c-0.1,0-0.2,0.1-0.3,0.1h-3.1
				c-0.1,0-0.1,0-0.2,0c0,0,0,0,0,0h-4.6c0,0,0.1,0,0.1-0.1c0.1,0,0.1-0.1,0-0.2c0-0.1-0.1-0.1-0.2,0c-0.1,0.1-0.3,0.2-0.4,0.3H4.5
				l0-0.1l0-0.1c0-0.1,0-0.3-0.2-0.4C4.1,0.8,3.9,0.8,3.8,1C3.6,1.3,3.3,1.7,3.2,2c0,0.1-0.1,0.1-0.1,0.2H2.8
				C2.6,2.3,2.6,2.4,2.5,2.6l0,0.1l0,0l0,0l0,0H2.4C2.2,2.8,2.1,3,2.1,3.2c0,0.3,0.1,0.7,0.1,1c0,0.1,0,0.1,0,0.2
				c0,0.2,0,0.5,0.1,0.7c0,0,0,0.1,0.1,0.1c0,0.1,0,0.1,0,0.2C2.2,5.5,1.9,5.8,1.6,6l0,0c0.3-0.2,0.6-0.4,0.9-0.7c0,0,0,0.1,0,0.1
				C2.7,6.1,2.9,6.8,3,7.4C3.3,8.2,3.5,9.1,3.8,10l0.2,0.7l0,0.1c0.1,0.4,0.2,0.8,0.3,1.2c0.2,0.5,0.3,0.9,0.5,1.3
				c0,0.1,0.1,0.1,0.1,0.2l0.1,0.1l0,0c0.1,0.3,0.3,0.6,0.4,0.9c0.1,0.2,0.2,0.4,0.3,0.6c0.1,0.2,0.2,0.3,0.2,0.5c0,0,0,0.1-0.1,0.1
				c-0.1,0.2,0,0.4,0.2,0.4c0,0,0.1,0,0.1,0.1c0,0,0,0,0,0c0.1,0.2,0.2,0.4,0.3,0.7c0,0.1,0.1,0.2,0.1,0.2l0,0l0.1,0.1
				c0,0,0.1,0.1,0.2,0.1c0,0,0,0,0.1,0c0.2,0,0.3,0,0.4-0.1c0.1-0.1,0.1-0.3,0.1-0.4l0-0.1c0.2,0.1,0.4,0.3,0.6,0.4
				c0.5,0.3,0.9,0.6,1.4,0.9c0.1,0.1,0.3,0.2,0.4,0.2c0.8,0.4,1.7,0.7,2.6,1c0.4,0.1,0.8,0.3,1.2,0.4c1.1,0.5,2.3,1,3.4,1.5
				c0.7,0.3,1.3,0.6,2,0.9c0.1,0.1,0.3,0.1,0.4,0.2c1.8,0.9,3.6,1.8,5.4,2.7c1.2,0.8,2.3,1.7,3.3,2.7c0.1,0.1,0.2,0.2,0.3,0.3
				c0,0.1,0,0.1,0,0.2c0,1.5,0,2.9-0.2,4.4c0,0.1,0,0.1,0,0.2c0,0,0,0-0.1,0.1c-0.1,0.1-0.1,0.1-0.2,0.2c-0.1,0-0.3,0-0.4,0.2
				c-0.3,0.5-0.7,1-1,1.5c-0.2,0.2-0.3,0.3-0.5,0.5c0,0,0,0.1,0,0.1h0.1c0,0,0.1-0.1,0.1-0.1c-0.3,0.5-0.5,1-0.8,1.4
				c-0.1,0.2-0.2,0.3-0.2,0.5c-0.1,0.1-0.1,0.2-0.2,0.2c-0.1,0.1-0.2,0.2-0.3,0.3c-0.1,0.1-0.2,0.1-0.3,0.2c0,0,0,0,0,0.1
				c0,0,0,0,0.1,0c0,0,0.1-0.1,0.1-0.1c-0.8,1.2-1.5,2.4-2.1,3.7c0-0.2-0.1-0.3-0.3-0.4c-0.1,0-0.1,0-0.2,0c-0.1,0-0.3,0-0.4,0
				l-0.1,0c-0.4,0-0.5,0-0.8,0.3c0,0,0,0-0.1,0c-0.1,0-0.3,0-0.4,0.1c-0.1,0.1-0.3,0.5-0.4,0.7c0,0.1-0.1,0.2-0.1,0.3
				c0,0,0,0.1,0,0.1c-0.3,0.4-0.5,0.9-0.6,1.2l-0.2,0.5l0,0.1c-0.2,0.5-0.3,1-0.5,1.4C18.3,47.2,18,48.6,18,50c0,0.7,0.1,1.4,0.4,2
				c0.2,0.3,0.3,0.5,0.6,0.7c0.1,0.1,0.2,0.1,0.3,0.2c0.3,0.1,0.6,0.1,0.9-0.1c0,0.2,0,0.3,0,0.5c0,0.3,0,0.7,0,1.1
				c0,0.1,0,0.1,0,0.2c-0.1,0.1-0.2,0.3-0.3,0.5c0,0-0.1,0.1-0.1,0.1c-0.1,0.1-0.1,0.2-0.2,0.4c0,0.1,0,0.2-0.1,0.2
				c0,0.1,0,0.1,0.1,0.2c0.1,0,0.1,0,0.2-0.1c0.1-0.4,0.2-0.7,0.4-0.9c0,0.1,0,0.2,0,0.3c0,0.2-0.1,0.4-0.1,0.5
				c-0.1,0.2-0.1,0.4-0.2,0.6c-0.1,0.5-0.3,1-0.4,1.5c-0.1,0.5-0.3,1.1-0.4,1.7c-0.1,0.2-0.1,0.5-0.2,0.7c-0.1,0.1-0.1,0.1-0.2,0.2
				c0,0,0,0.1,0,0.1c0,0,0.1,0,0.1,0c0,0,0,0,0,0c0,0.1,0,0.1,0,0.2c-0.1,0.8-0.3,1.7-0.3,2.6c-0.1,0-0.1,0.1-0.2,0.1l0,0
				c0,0,0.1-0.1,0.2-0.1c0,0.5,0,1.1,0.1,1.6c0.1,0.7,0.3,1.5,0.6,2.2c0.2,0.4,0.3,0.7,0.5,1c0,0,0,0.1,0,0.1
				c-0.2,0.2-0.3,0.4-0.5,0.6c0,0,0,0.1,0,0.1c0,0,0.1,0,0.1,0c0.1-0.2,0.3-0.3,0.4-0.5c0.3,0.4,0.6,0.8,0.9,1.1
				c-0.2,0.3-0.4,0.6-0.6,0.9c0,0,0,0.1,0,0.1c0,0,0.1,0,0.1,0c0.2-0.3,0.3-0.5,0.5-0.8c0,0,0,0,0,0c0.2,0.2,0.4,0.4,0.6,0.6
				c0.2,0.2,0.4,0.4,0.6,0.5c0,0,0,0,0,0c0,0,0,0.1,0,0.1c0,0,0.1,0,0.1,0c0,0,0,0,0,0c0,0,0.1,0.1,0.1,0.1c1.2,0.9,2.5,1.5,3.9,2
				c1.5,0.5,3.4,0.8,5,0.5c0.3,0,0.5-0.1,0.8-0.2c0,0,0,0,0.1,0c-0.1,0.1-0.2,0.3-0.4,0.5c0,0,0,0.1,0,0.1c0,0,0.1,0,0.1,0
				c0.1-0.2,0.2-0.3,0.4-0.5c0,0,0.1,0,0.1,0.1c0,0,0,0,0,0c0,0.1,0,0.1,0.1,0.1c0.1,0,0.2,0,0.3,0c0.2,0.1,0.4,0.2,0.7,0.3
				c0,0,0,0.1,0,0.1c0,0.1,0.1,0.1,0.2,0c0,0,0.1,0,0.1-0.1c0.7,0.2,1.5,0.3,2.2,0.3c0.5,0,0.9,0,1.4,0c0.6,0,1.1-0.1,1.7-0.1
				c0.4,0,0.8,0,1.2,0c0.9,0,1.8-0.1,2.7-0.3c3.1-0.5,6-1.6,8.3-3.7c0.1-0.1,0.1-0.1,0.2-0.2c0.2-0.2,0.3-0.3,0.5-0.5
				c0.4-0.5,0.8-1.1,1.2-1.6c0.1-0.2,0.2-0.4,0.3-0.6c0.4-0.8,0.7-1.8,1-2.7c0.3-1.2,0.4-2.5,0.4-3.7c0-0.4,0-0.7-0.1-1.1
				c0-0.2,0-0.4-0.1-0.5c-0.1-0.6-0.2-1.3-0.3-1.9c0.1-0.5,0.2-1,0.2-1.4c0-0.3,0-0.6,0-0.9c0-0.1,0-0.3,0-0.4c0-0.3,0-0.7,0-1
				c0-0.1,0-0.3,0-0.4c0-0.1-0.1-0.1-0.1-0.1c-0.1,0-0.1,0.1-0.1,0.1c0,0.1,0,0.3,0,0.4c0,0.2,0,0.4,0,0.6c0,0.7-0.1,1.4-0.2,2
				c-0.1-0.5-0.3-1.1-0.5-1.6c-0.1-0.2-0.1-0.3-0.2-0.5c0,0,0,0,0,0c0-0.5,0-0.9-0.1-1.4c0-0.2,0-0.4-0.1-0.6c0.1,0,0.3,0,0.3-0.1
				c0.1-0.1,0.3-0.3,0.4-0.4c0,0,0,0,0,0c0.1-0.1,0.3-0.5,0.4-0.6c0-0.1,0-0.2,0.1-0.2c0.1-0.1,0.1-0.4,0.1-0.5
				c0.1-0.6,0.1-1.1,0.1-1.7c0-0.2,0-0.4,0-0.6c0-0.3,0-0.7-0.1-1c-0.1-0.4-0.1-0.8-0.2-1.2c-0.2-1.2-0.6-2.3-1.1-3.4
				c-0.1-0.2-0.2-0.4-0.3-0.6c-0.3-0.6-0.7-1.1-1.2-1.5c-0.1-0.1-0.2-0.1-0.4-0.2c-0.2-0.1-0.4,0-0.5,0.2c-0.1,0.2,0,0.4,0.2,0.5
				c0.2,0,0.5,0.3,0.6,0.5c0,0,0,0,0,0c0,0,0,0,0,0c-0.2,0-0.3,0-0.5,0c0,0,0.1-0.1,0.1-0.1c0.1-0.1,0.1-0.2,0-0.2
				c-0.1-0.1-0.2-0.1-0.2,0c-0.1,0.1-0.3,0.2-0.4,0.4c-0.3-0.8-0.6-1.6-1.1-2.4c-0.1-0.1-0.2-0.2-0.2-0.4c-0.1-0.3-0.2-0.5-0.3-0.8
				c-0.2-0.5-0.5-1.1-0.7-1.6c-0.3-0.7-0.8-1.4-1.2-2.1c-0.2-0.3-0.5-0.7-0.8-1c-0.1-0.1-0.2-0.2-0.3-0.3c-0.1-0.1-0.2-0.2-0.3-0.3
				c-0.2-0.2-0.3-0.3-0.5-0.5c0-0.1,0-0.2,0-0.2c0-1.4,0.2-2.9,0.3-4.3l0-0.1l0.1-0.4l0,0c0.3-0.2,0.6-0.5,0.9-0.7
				c0.3-0.2,0.7-0.5,1-0.7c0.6-0.4,1.2-0.8,1.8-1.2c0.5-0.3,0.9-0.6,1.4-0.8c0.3-0.2,0.6-0.3,1-0.5c1.1-0.4,2.2-0.8,3.3-1.3
				c0.5-0.2,1-0.4,1.5-0.6c0.2-0.1,0.4-0.1,0.6-0.2c0.3-0.1,0.7-0.3,1-0.4c0.5-0.2,0.9-0.4,1.4-0.7c0.2-0.1,0.4-0.2,0.6-0.3
				c0.2-0.1,0.3-0.2,0.5-0.3c0.1,0,0.3-0.1,0.4-0.1c0,0,0,0.1,0,0.2c0,0.1,0.1,0.1,0.2,0.1c0.3-0.2,0.6-0.3,0.9-0.5c0,0,0,0,0,0
				c0.6-0.1,1.2-0.3,1.7-0.4c0.5-0.1,1.1-0.3,1.6-0.5c0.2,0,0.3-0.2,0.2-0.4c0-0.2-0.2-0.3-0.4-0.2c-0.1,0-0.2,0-0.2,0
				c0.4-0.1,0.7-0.3,1.1-0.4c0.1,0,0.1-0.1,0.2-0.2c0,0.2,0.2,0.3,0.3,0.3h0.1c0.1,0,0.2,0,0.2-0.1l0.1-0.1l0,0l0,0
				c0.2-0.2,0.3-0.5,0.5-0.7l0.3-0.6l0.3-0.4l0.3-0.2c0.2-0.2,0.4-0.4,0.6-0.6c0.1-0.1,0.2-0.2,0.3-0.3c0.2-0.3,0.4-0.6,0.6-0.9
				c0.3-0.5,0.6-0.9,0.8-1.4c0.2-0.3,0.3-0.7,0.4-1c0.1-0.3,0.2-0.7,0.3-1c0.1-0.3,0.2-0.7,0.3-1l0-0.2l0.5-1.1
				c0.1-0.2,0.2-0.4,0.3-0.7c0-0.1,0.1-0.2,0.1-0.3c0.1-0.1,0-0.3,0-0.4l0-0.1c0,0,0,0,0,0c0,0,0,0,0,0c0.1,0,0.1-0.2,0.1-0.2
				c0-0.1-0.2-0.1-0.2-0.1c-0.1,0-0.2,0.1-0.3,0.1l0.1-0.7c0.1-0.5,0.2-1,0.2-1.5c0-0.1,0-0.3,0-0.4c0.1-0.1,0.3-0.1,0.4-0.2
				c0.1-0.1,0.1-0.2,0.1-0.3c-0.1-0.1-0.2-0.1-0.3-0.1C73,3,72.8,3.1,72.7,3.2c-0.1-0.1-0.3-0.1-0.5,0c0,0-0.1,0-0.1,0.1l-0.1,0.2
				l0,0.1c0,0,0,0,0,0c0-0.1,0-0.1-0.1-0.2c0-0.1-0.1-0.3-0.1-0.4c0-0.1-0.1-0.2-0.1-0.3c-0.1-0.2-0.1-0.3-0.2-0.5
				c0.2,0,0.3-0.2,0.3-0.4c0-0.2-0.1-0.4-0.3-0.4c0,0,0,0,0,0c-0.1-0.1-0.2-0.1-0.3-0.1c0,0,0,0-0.1,0H62c-0.1-0.1-0.2-0.1-0.2,0
				c0,0,0,0,0,0H56c0,0,0-0.1,0-0.1c-0.1-0.1-0.2-0.1-0.3,0c-0.1,0.1-0.2,0.1-0.3,0.2h-1.6c0.1-0.1,0.3-0.1,0.4-0.2
				c0.1,0,0.1-0.1,0.1-0.2c0-0.1-0.1-0.1-0.2-0.1c-0.3,0.1-0.6,0.3-0.9,0.4h-2.5c0,0,0,0,0,0c0.3-0.2,0.7-0.3,1-0.5
				c0.1,0,0.1-0.1,0.1-0.2c0-0.1-0.1-0.1-0.2-0.1c-0.6,0.2-1.1,0.5-1.6,0.8h-1.9c0,0,0-0.1,0-0.1c0,0-0.1-0.1-0.1,0
				c-0.1,0-0.2,0.1-0.3,0.1h-3c0.2-0.1,0.4-0.2,0.5-0.3c0.1-0.1,0.1-0.2,0.1-0.2c0-0.1-0.2-0.1-0.2-0.1c-0.3,0.2-0.7,0.4-1,0.6h-2.1
				c0.3-0.2,0.7-0.4,1-0.7c0.1,0,0.1-0.1,0-0.2c0-0.1-0.1-0.1-0.2,0C42.5,0.8,42.1,1.1,41.7,1.4z M4.2,3.5C4,3.8,3.8,4,3.5,4.2
				c0-0.2,0-0.3-0.1-0.5l0.2-0.2c0.3-0.4,0.6-0.7,1-1.1C4.7,2.4,4.9,2.3,5,2.2h0.6C5.1,2.6,4.7,3.1,4.2,3.5z M4.3,5.2
				C4.1,5.4,4,5.6,3.8,5.8C3.7,5.4,3.6,4.9,3.6,4.5v0c0,0,0,0,0,0c0.3-0.3,0.6-0.6,0.9-0.9c0.3-0.3,0.7-0.7,1.1-1
				c0.1-0.1,0.3-0.2,0.4-0.3h1.4C6.2,3.1,5.2,4.1,4.3,5.2z M8.2,3c-0.7,0.6-1.4,1.2-2,1.8C5.5,5.4,4.7,6.2,4,7
				C3.9,6.6,3.9,6.3,3.8,5.9C3.9,5.8,4,5.7,4,5.6c0.3-0.3,0.6-0.7,0.9-1C5.5,4,6.1,3.5,6.7,2.9c0.3-0.3,0.6-0.5,1-0.8h1.5
				C8.9,2.4,8.5,2.7,8.2,3z M9.3,4c-0.5,0.4-1,0.8-1.4,1.2C6.6,6.3,5.5,7.4,4.4,8.6c0,0,0,0,0-0.1L4.2,7.9L4.1,7.7
				c0-0.2-0.1-0.3-0.1-0.5c1-1.3,2.3-2.3,3.5-3.4c0.4-0.3,0.8-0.7,1.2-1C9,2.7,9.1,2.6,9.3,2.4c0.1-0.1,0.2-0.2,0.3-0.3h1.9
				C10.8,2.8,10,3.4,9.3,4z M11.9,4C9.7,5.8,7.6,7.7,5.8,9.8l0,0C6.4,9.2,7,8.5,7.7,7.9C8.3,7.2,9,6.6,9.7,6c1.4-1.2,3-2.4,4.5-3.5
				c0.1-0.1,0.3-0.2,0.4-0.3h2.6c-0.6,0.5-1.3,0.9-1.9,1.4c-0.5,0.4-1,0.8-1.5,1.3c-1.4,1.2-2.6,2.5-3.8,3.9c0,0,0,0.1,0,0.1
				c0,0,0.1,0,0.1,0c0.4-0.5,0.8-0.9,1.3-1.4c0.8-0.9,1.8-1.7,2.7-2.5c0.7-0.6,1.5-1.2,2.2-1.7c0.5-0.3,0.9-0.7,1.4-1h2.6
				c-0.2,0.1-0.4,0.2-0.5,0.4c-0.2,0.2-0.5,0.3-0.7,0.5c-1.1,0.8-2.2,1.7-3.2,2.6c-0.4,0.3-0.7,0.7-1.1,1.1c-0.5,0.5-1,1.2-1.5,1.8
				c0,0,0,0.1,0,0.1c0,0,0.1,0,0.1,0c0.9-1.1,1.9-2.2,3-3.1c0.4-0.3,0.8-0.7,1.2-1c0.1-0.1,0.2-0.2,0.3-0.2c0.3-0.3,0.7-0.5,1.1-0.8
				c0.6-0.4,1.2-0.8,1.8-1.3H24c-1.1,0.8-2.1,1.6-3.1,2.5c-0.5,0.4-1,0.9-1.5,1.4c-0.2,0.2-0.3,0.3-0.5,0.5C18.2,7,17.6,7.6,17,8.2
				c0,0,0,0.1,0,0.1c0,0,0.1,0,0.1,0C17.6,7.8,18,7.4,18.5,7c0.7-0.6,1.3-1.2,2-1.8c0.3-0.3,0.6-0.5,0.9-0.8
				c0.4-0.4,0.9-0.7,1.4-1.1c0.5-0.4,1.1-0.8,1.6-1.1c0,0,0,0,0,0h8.7c-0.6,0.4-1.1,0.7-1.7,1.1C31,3.6,30.5,4,30,4.4
				c-1.4,1.1-2.7,2.3-3.8,3.6c0,0,0,0.1,0,0.1c0,0,0.1,0,0.1,0c2-2.3,4.6-4.2,7.2-5.8c0.1,0,0.1-0.1,0.1-0.2H37
				c-0.1,0-0.1,0.1-0.2,0.1c-1.2,0.9-2.4,1.8-3.5,2.8c-0.8,0.7-1.7,1.4-2.4,2.2c-0.2,0.2-0.4,0.5-0.6,0.7c0,0,0,0.1,0,0.1
				c0,0,0.1,0,0.1,0c0.9-1.1,2-2,3-2.9c0.3-0.2,0.5-0.4,0.8-0.6c0.5-0.4,0.9-0.7,1.4-1.1c0.5-0.3,0.9-0.7,1.4-1
				c0.1-0.1,0.3-0.2,0.4-0.3h3.1c0,0-0.1,0.1-0.1,0.1c-0.3,0.2-0.6,0.4-0.8,0.6c-0.5,0.3-0.9,0.7-1.4,1c-1.9,1.4-3.7,3-5.2,4.8l0,0
				c1.3-1.6,2.9-3,4.5-4.1c0.4-0.3,0.8-0.6,1.1-0.8c0.5-0.3,1-0.7,1.5-1c0.2-0.2,0.5-0.3,0.7-0.5H43c-1,0.8-2,1.6-3,2.5
				c-0.5,0.5-1,0.9-1.5,1.4c-0.3,0.3-0.5,0.5-0.8,0.8c-0.5,0.5-1,1-1.5,1.5c0,0,0,0.1,0,0.1c0,0,0.1,0,0.1,0
				c1.6-1.6,3.1-3.2,4.9-4.6c0.6-0.5,1.2-1,1.9-1.4c0.2-0.1,0.3-0.2,0.5-0.3h2.7c-0.2,0.1-0.4,0.2-0.6,0.3c-0.5,0.3-1.1,0.7-1.6,1.1
				c-1.6,1.2-2.9,2.4-4.2,4c0,0,0,0.1,0,0.1c0,0,0.1,0,0.1,0c1.4-1.8,3.2-3.3,5.2-4.6c0.5-0.3,1-0.6,1.5-0.9h2
				c-0.2,0.1-0.5,0.3-0.7,0.5c-0.7,0.5-1.4,1.1-2.1,1.6c-1.2,1.1-2.3,2.2-3.4,3.5c0,0,0,0.1,0,0.1c0,0,0.1,0,0.1,0
				c1.8-2.1,3.9-4,6.3-5.4c0.1-0.1,0.2-0.1,0.3-0.2h2.6c-0.1,0.1-0.2,0.1-0.3,0.2c-0.6,0.4-1.2,0.8-1.8,1.2
				c-0.6,0.4-1.1,0.8-1.6,1.3C48,4.9,47.9,5,47.8,5.1c-0.3,0.3-0.6,0.6-0.9,1c-0.3,0.4-0.6,0.8-0.9,1.2c-0.1,0.2-0.2,0.3-0.3,0.5
				c0,0,0,0.1,0,0.1c0,0,0.1,0,0.1,0c0.1-0.2,0.3-0.5,0.5-0.7c0.2-0.2,0.3-0.5,0.5-0.7c0.1-0.1,0.1-0.2,0.2-0.3
				c0.2-0.3,0.5-0.5,0.7-0.7c1.4-1.3,3-2.4,4.7-3.2h2c-0.2,0.2-0.5,0.4-0.7,0.6c-0.4,0.3-0.9,0.7-1.3,1c-0.7,0.5-1.4,1.1-2,1.7
				c-1.5,1.3-3,2.6-4.6,3.8c0,0-0.1,0.1,0,0.2c0,0,0.1,0.1,0.2,0c1.1-0.9,2.3-1.9,3.4-2.8c0.6-0.5,1.2-1,1.9-1.5
				c0.4-0.3,0.8-0.7,1.3-1c0.3-0.2,0.6-0.5,0.9-0.7C53.9,3,54.4,2.6,55,2.2h3.3c-0.5,0.3-0.9,0.6-1.4,0.9c-0.3,0.2-0.5,0.4-0.8,0.5
				c-0.7,0.5-1.3,1-1.9,1.5c-0.9,0.7-1.8,1.5-2.7,2.3c-0.4,0.4-0.8,0.7-1.3,1.1c-0.4,0.4-0.9,0.8-1.3,1.2l0,0.1l0.1,0
				c1.2-1.2,2.5-2.3,3.8-3.3c0.4-0.3,0.8-0.7,1.2-1c0.4-0.3,0.7-0.5,1.1-0.8c1.2-0.8,2.3-1.7,3.6-2.4h1.8c-0.4,0.3-0.8,0.6-1.2,1
				c-1,0.8-1.9,1.6-2.8,2.4c-1.9,1.7-3.7,3.6-5.4,5.5l0,0.1l0.1,0c1.9-2.3,4.1-4.4,6.4-6.3c1-0.8,2-1.6,3-2.3
				c0.2-0.1,0.4-0.3,0.5-0.4h2.6c-0.1,0.1-0.3,0.2-0.4,0.2c-1.3,0.8-2.6,1.7-3.7,2.8c-1.6,1.5-3.1,3.1-4.6,4.8
				c-0.5,0.6-1,1.2-1.5,1.8c0,0,0,0.1,0,0.1c0,0,0.1,0,0.1,0c1.7-2,3.4-3.9,5.3-5.7C59.5,5.6,60.2,5,61,4.4c0.2-0.1,0.3-0.2,0.5-0.3
				c1-0.7,1.9-1.4,3-1.9c0,0,0,0,0.1-0.1h2.6c-1.2,0.9-2.5,1.8-3.7,2.7c-1,0.8-2,1.6-3,2.5c-0.5,0.5-1,0.9-1.5,1.4
				c-0.8,0.7-1.5,1.5-2.2,2.2c-0.6,0.6-1.1,1.3-1.6,2c0,0,0,0.1,0,0.1c0,0,0.1,0,0.1,0c0.4-0.6,0.8-1.1,1.3-1.6
				c0.4-0.4,0.7-0.8,1.1-1.2c0.4-0.4,0.7-0.7,1.1-1.1c1-1,2.1-1.9,3.2-2.7c1.9-1.5,3.8-2.8,5.7-4.2c0,0,0,0,0,0h2.3
				c-0.5,0.3-1,0.7-1.4,1c-0.2,0.2-0.4,0.3-0.7,0.5c-0.5,0.3-0.9,0.7-1.3,1c-1.9,1.5-3.7,3.1-5.5,4.8c-1.3,1.3-2.7,2.5-4,3.9v0.1
				h0.1c1.1-1.1,2.2-2.2,3.4-3.2c1.1-1,2.2-1.9,3.3-2.9c0.7-0.6,1.4-1.1,2.2-1.7c0.4-0.3,0.8-0.6,1.2-0.9C68,4,68.8,3.4,69.7,2.8
				c0.2-0.1,0.4-0.3,0.6-0.4c0,0.1,0,0.2,0,0.3c0,0.1,0.1,0.2,0.1,0.4c0.1,0.4,0.2,0.9,0.4,1.3c-2.3,1.5-4.3,3.3-6.4,5
				c-0.6,0.6-1.3,1.1-1.9,1.7c-1.2,1-2.4,2.1-3.6,3.1l0,0.1c1.3-1.1,2.7-2.3,4-3.4c2.2-1.9,4.5-3.8,7-5.4c0.3-0.2,0.7-0.5,1.1-0.7
				c0.1,0.2,0.2,0.3,0.2,0.4c0,0.1,0.1,0.1,0.1,0.2l0.1,0.1c0,0.1,0,0.1-0.1,0.2c0,0.1-0.1,0.3-0.2,0.4c-0.1,0.2-0.2,0.3-0.4,0.4
				c-0.1,0.1-0.1,0.2,0,0.3c0.1,0,0.1,0.1,0.2,0c0,0,0,0.1,0,0.1c-0.2,0.1-0.3,0.2-0.5,0.3C69.7,7.6,69,8,68.3,8.5
				c-2.3,1.6-4.4,3.3-6.5,5l-1.7,1.2l0,0l-0.1,0c-0.2,0.2-0.4,0.3-0.5,0.5c0,0-0.1,0-0.1,0.1l0,0c0,0,0,0,0,0.1h0.1l0.1-0.1
				c0.1,0,0.1-0.1,0.1-0.1c0.3-0.2,0.5-0.4,0.8-0.6c1.3-1,2.6-1.9,3.9-2.9c1.2-0.9,2.4-1.8,3.7-2.6c0.6-0.4,1.1-0.8,1.7-1.1
				c0.3-0.2,0.6-0.4,0.9-0.6c-0.1,0.2-0.1,0.4-0.2,0.6c-0.3,1-0.7,1.9-1.1,2.8l-0.7,1.5L68.4,13c0,0,0,0,0,0
				c-0.2,0.1-0.5,0.3-0.7,0.4c0.2-0.2,0.5-0.3,0.7-0.4l0,0l-0.1,0.2c-0.2,0.3-0.3,0.6-0.5,0.9c-0.1,0.2-0.2,0.3-0.3,0.5
				c-0.1,0.1-0.1,0.2,0,0.3l0,0l-0.3,0.6l0,0c-0.1,0.1-0.2,0.2-0.3,0.3c-0.2,0.1-0.3,0.2-0.5,0.4c-0.1-0.1-0.3-0.1-0.4,0
				c-0.6,0.3-1.3,0.5-1.9,0.8c0.6-0.6,1.2-1.3,1.6-2.1c0.4-0.7,0.6-1.4,0.8-2.1c0,0,0-0.1,0-0.1c0.4-0.2,0.7-0.5,1.1-0.8
				c0.3-0.2,0.5-0.4,0.8-0.6c0.1-0.1,0.1-0.2,0-0.3c-0.1-0.1-0.2-0.1-0.3,0c-0.8,0.7-1.7,1.3-2.5,2c-0.4,0.3-0.7,0.6-1.1,0.8
				c-0.4,0.3-0.8,0.6-1.1,0.9l-0.2,0.1l0,0l0,0c0,0-0.1,0-0.1,0c-0.2,0.2-0.4,0.5-0.6,0.7l-0.1,0.1l-0.1,0.1c0,0-0.2,0.2-0.3,0.3
				l0,0l0,0l0,0c0,0.1,0.1,0.1,0.1,0l0.1-0.1l0,0l0.1-0.1l0.3-0.3c1-1,2.2-1.8,3.4-2.6c0.1-0.1,0.2-0.2,0.3-0.2
				c-0.1,0.3-0.2,0.6-0.3,0.9c-0.1,0.3-0.3,0.6-0.4,0.9c-0.1,0.2-0.2,0.4-0.3,0.5c-0.2,0.3-0.5,0.7-0.8,1c-0.1,0.1-0.1,0.1-0.2,0.2
				c-0.1,0.1-0.2,0.2-0.3,0.3c-0.2,0.2-0.3,0.3-0.5,0.5c-0.2,0.1-0.5,0.2-0.7,0.3c-0.3,0.1-0.7,0.3-1,0.4c-0.9,0.4-1.8,0.7-2.7,1.1
				c0,0,0,0,0,0c-2.4,0.7-4.8,1.4-7.2,2.4c-0.7,0.3-1.5,0.6-2.2,1c-0.5,0.3-1.1,0.6-1.6,0.8c-0.3,0.2-0.6,0.4-0.9,0.5
				c-0.5,0.3-1,0.6-1.5,1c-0.1,0.1-0.1,0.2-0.1,0.3c0.1,0.1,0.2,0.1,0.3,0.1c1.5-1.1,3.1-1.9,4.8-2.7c-0.7,0.3-1.4,0.7-2.1,1.1
				c-0.7,0.4-1.3,0.7-1.9,1.2c-0.2,0.1-0.4,0.3-0.6,0.4c-0.3,0.2-0.6,0.4-0.8,0.6c-0.1,0-0.1,0.1-0.1,0.1c0,0-0.1,0.1-0.1,0.1
				c0,0,0-0.1,0-0.1c0-0.1-0.1-0.2-0.2-0.2c-0.1,0-0.2,0.1-0.2,0.2c0,0.2-0.1,0.4-0.1,0.6c-0.1,0.1-0.1,0.1-0.2,0.2c0,0,0,0.1,0,0.1
				c0,0,0.1,0,0.1,0c0,0,0,0.1,0,0.1c-0.4,0.4-0.9,0.8-1.3,1.1c-0.7,0.6-1.5,1.1-2.2,1.7c-0.2,0.1-0.4,0.3-0.5,0.4
				c-0.1,0-0.3-0.1-0.4-0.1c-0.4-0.1-0.9-0.3-1.3-0.4c-0.2-0.1-0.5-0.1-0.7-0.1c-0.1,0-0.2,0-0.2,0.1c0,0.1,0,0.2,0.1,0.2
				c0.2,0,0.5,0.1,0.7,0.2c0.5,0.1,0.9,0.3,1.4,0.4c-0.1,0.1-0.2,0.1-0.3,0.2c-0.3-0.1-0.5-0.2-0.8-0.2c-0.2-0.1-0.5-0.1-0.7-0.1
				c-0.1,0-0.2,0-0.2,0.1c0,0.1,0,0.2,0.1,0.2c0.4,0.1,0.7,0.2,1.1,0.3c0,0,0.1,0,0.1,0c-0.1,0-0.1,0.1-0.2,0.1
				c-0.3,0.2-0.6,0.3-0.8,0.5l0,0.1l0.1,0c0.3-0.2,0.6-0.3,0.8-0.5c0.1,0,0.2-0.1,0.2-0.1c0.3,0.1,0.7,0.2,1,0.4
				c-0.2,0.2-0.5,0.3-0.7,0.5c-0.3,0.2-0.7,0.5-1,0.7c-0.2,0.1-0.4,0.2-0.5,0.3c0,0,0,0,0,0.1c0,0,0,0,0.1,0
				c0.3-0.2,0.6-0.3,0.9-0.5c0.5-0.3,1-0.7,1.5-1c0.4,0.2,0.7,0.4,1.1,0.6c-0.3,0.3-0.7,0.5-1,0.8c-0.4,0.3-0.7,0.5-1.1,0.8
				c0,0,0,0,0,0.1c0,0,0,0,0.1,0c0.4-0.3,0.8-0.6,1.2-1c0.3-0.2,0.6-0.5,0.9-0.7c0.4,0.2,0.8,0.5,1.2,0.8c0,0,0.1,0.1,0.1,0.1
				c0,0,0,0,0,0c-0.1,0-0.1-0.1-0.2-0.1c0,0-0.1,0-0.1,0c0,0,0,0.1,0,0.1c0,0,0.1,0,0.1,0c0,0,0,0,0,0c-0.5,0.4-1.1,0.9-1.6,1.3
				c-0.3,0.2-0.6,0.4-0.9,0.6c0,0,0,0,0,0.1c0,0,0,0,0.1,0c0.1-0.1,0.2-0.1,0.4-0.2c0.3-0.2,0.6-0.4,0.9-0.6
				c0.2-0.1,0.4-0.3,0.6-0.4c0.3-0.2,0.5-0.4,0.8-0.6c0,0,0.1,0,0.1-0.1c0.4,0.2,0.7,0.4,1.1,0.6c0,0.1,0,0.2,0,0.3
				c-0.3,0.2-0.5,0.4-0.8,0.6c-0.2,0.2-0.5,0.4-0.7,0.6c-0.5,0.5-1,0.9-1.6,1.3c0,0,0,0.1,0,0.1c0,0,0.1,0,0.1,0
				c0.2-0.1,0.4-0.3,0.6-0.4c0.3-0.2,0.6-0.5,1-0.8c0.3-0.2,0.5-0.4,0.8-0.7c0.2-0.2,0.5-0.4,0.7-0.6c0,0,0,0,0,0c0,0,0,0.1,0,0.1
				c0,0.1,0.2,0.1,0.2,0c0.1,0,0.1-0.2,0.1-0.3c0,0,0-0.1,0-0.1c0.1,0.1,0.2,0.2,0.4,0.3c0,0.1,0,0.3,0,0.4c0,0.2,0.2,0.3,0.3,0.3
				c0.1,0,0.2-0.1,0.2-0.1c0.1,0.1,0.1,0.1,0.2,0.2c0.1,0.1,0.1,0.1,0.2,0.2c0,0,0,0-0.1,0c-0.4,0.2-0.8,0.5-1.2,0.7
				c-0.3,0.2-0.6,0.4-0.8,0.6c-0.4,0.3-0.8,0.6-1.1,0.8c-0.4,0.3-0.7,0.5-1.1,0.8c-0.1,0-0.1,0.1,0,0.2c0,0.1,0.1,0.1,0.2,0
				c1.3-1,2.8-2,4.2-2.9c0.1,0,0.1-0.1,0.1-0.1c0.2,0.2,0.4,0.3,0.6,0.5c0,0,0.1,0.1,0.1,0.1c0,0.1,0.1,0.1,0.1,0.2
				c0.1,0.1,0.2,0.3,0.3,0.4c0,0,0.1,0.1,0.1,0.1c0.2,0.3,0.4,0.6,0.5,0.9c0,0,0,0.1,0.1,0.1c-0.1,0-0.1,0.1-0.2,0.1
				c-0.9,0.6-1.8,1.3-2.5,2c-0.4,0.4-0.9,0.8-1.2,1.2c0,0,0,0.1,0,0.1c0,0,0.1,0,0.1,0c0.4-0.4,0.8-0.8,1.2-1.1
				c0.5-0.4,0.9-0.8,1.4-1.2c0.4-0.3,0.7-0.5,1.1-0.7c0.1-0.1,0.2-0.1,0.3-0.2c0,0,0,0.1,0,0.1l0.1,0.2l0.2,0.6
				c-0.1,0.1-0.2,0.2-0.3,0.2c-0.1,0.1-0.3,0.2-0.4,0.3c-0.2,0.2-0.4,0.3-0.6,0.5c-0.7,0.6-1.3,1.3-2,1.9c0,0,0,0.1,0,0.1
				c0,0,0.1,0,0.1,0c0.3-0.3,0.6-0.6,0.9-0.9c0.8-0.7,1.5-1.4,2.4-1.9c0.2,0.4,0.3,0.8,0.5,1.3c-0.5,0.3-1,0.7-1.4,1.1
				c-0.3,0.2-0.6,0.5-0.9,0.8c-0.1,0.1-0.2,0.2-0.3,0.3c-0.1,0.1-0.2,0.2-0.4,0.4c-0.1,0.1-0.3,0.3-0.5,0.5c0,0,0,0.1,0,0.2
				c0,0,0.1,0,0.2,0c0.7-0.7,1.4-1.3,2.1-1.9c0.4-0.3,0.8-0.7,1.3-1c0.1,0.2,0.1,0.4,0.2,0.6c0.1,0.2,0.2,0.4,0.3,0.7l0,0l0.1,0.1
				c0,0,0,0-0.1,0c-0.4,0.3-0.8,0.5-1.2,0.8c-0.2,0.1-0.3,0.2-0.5,0.3c-0.3,0.2-0.7,0.5-1,0.7c0,0,0,0.1,0,0.1c0,0,0.1,0,0.1,0
				c0.1-0.1,0.3-0.2,0.5-0.3c0.4-0.2,0.8-0.5,1.1-0.7c0.4-0.3,0.9-0.5,1.3-0.8c0.1,0,0.2,0,0.3,0l0.1,0l0.1-0.1
				c0-0.1,0.1-0.1,0.1-0.2c0,0,0,0,0,0c0,0.1,0,0.2,0.1,0.3c0,0,0.1,0.1,0.2,0.1c0.1,0,0.2,0.1,0.3,0.1c0,0,0.1,0.1,0.2,0.1
				c0,0,0.1,0.1,0.1,0.1c0.3,0.2,0.4,0.4,0.6,0.6c-0.4,0.3-0.7,0.5-1.1,0.8c-0.5,0.4-0.9,0.7-1.4,1.1c-0.3,0.3-0.7,0.6-1,1
				c0,0,0,0.1,0,0.1s0.1,0,0.1,0c0.1-0.1,0.2-0.2,0.3-0.3c0.2-0.2,0.4-0.4,0.7-0.6c0.3-0.3,0.6-0.5,1-0.8c-0.1,0.1-0.2,0.2-0.3,0.3
				c-0.3,0.3-0.7,0.6-0.9,1c0,0.1,0,0.2,0,0.2c0.1,0,0.2,0,0.2,0c0.2-0.4,0.5-0.6,0.8-0.9c0.2-0.2,0.4-0.3,0.5-0.5
				c0.1-0.1,0.1-0.2,0-0.3c0,0-0.1-0.1-0.1-0.1c0.3-0.2,0.6-0.4,0.9-0.6c0.1-0.1,0.2-0.1,0.3-0.2c0.1,0.1,0.2,0.3,0.3,0.4l0.1,0.3
				l0.1,0.5c-0.1,0-0.1,0.1-0.2,0.1c-0.1,0-0.2,0.1-0.2,0.1c-0.3,0.1-0.6,0.3-0.9,0.5c-0.1,0.1-0.3,0.2-0.5,0.3
				c-0.2,0.2-0.4,0.3-0.6,0.5c-0.2,0.1-0.3,0.3-0.5,0.4c-0.2,0.2-0.4,0.3-0.6,0.4c-0.2,0.1-0.4,0.2-0.6,0.3
				c-0.2,0.1-0.5,0.2-0.7,0.3c-0.1,0-0.1,0.1-0.1,0.2c0,0.1,0.1,0.1,0.2,0.1c0.6-0.2,1.2-0.4,1.7-0.8c0.2-0.1,0.3-0.2,0.5-0.3
				c0,0,0,0,0,0.1c0.1,0.1,0.2,0.1,0.2,0c0,0,0.3-0.3,0.3-0.3c0.1-0.1,0.2-0.2,0.4-0.3c0.1-0.1,0.2-0.2,0.3-0.3c0,0,0.2-0.1,0.2-0.2
				c0.1-0.1,0.3-0.2,0.4-0.3c0.3-0.2,0.6-0.3,0.9-0.4l0,0l0.2,0.9c0,0.1,0.1,0.2,0.2,0.3l0.1,0l0,0.2c0.2,1,0.3,2,0.3,2.9
				c0,0.3,0,0.6-0.1,0.9c0,0.2-0.1,0.4-0.1,0.5c0,0.1-0.1,0.4-0.2,0.6c0,0,0,0.1,0,0.1h-0.1l0,0c0,0,0-0.1,0-0.1
				c-0.1-0.6-0.2-1.2-0.3-1.8c0,0,0,0,0,0c0.1-0.1,0.1-0.2,0-0.3c0,0-0.1-0.1-0.1-0.1c0-0.3-0.1-0.5-0.1-0.8c0,0,0-0.1-0.1-0.1
				c0,0-0.1,0.1-0.1,0.1c0,0,0,0.1,0,0.1c0,0-0.1,0-0.1,0c0-0.1,0-0.1-0.1-0.2H52c-0.6,0.6-1.2,1.3-1.9,1.9c0,0,0,0-0.1,0.1
				c-0.8,0.6-1.6,1.2-2.3,1.9c0,0,0,0.1,0,0.1c0,0,0.1,0,0.1,0c0.7-0.7,1.5-1.3,2.2-1.8c0,0,0,0,0,0h0.3c0.4-0.4,0.7-0.7,1.1-1.1
				c0.3-0.2,0.7-0.5,1-0.7c0,0,0,0,0,0c0,0.2,0,0.3,0.1,0.5c0,0,0,0,0,0c0,0-0.1,0.1-0.1,0.1c-0.1,0.1-0.2,0.1-0.3,0.2
				c-0.6,0.3-1,0.5-1.3,1.1c-0.1,0-0.1,0-0.2,0.1c-0.1,0.1-0.1,0.3,0,0.5c0.2,0.2,0.3,0.4,0.5,0.5c0,0,0,0,0,0c0,0,0,0,0,0
				c-0.2,0.1-0.4,0.2-0.5,0.4c-0.6,0.4-1.1,0.9-1.7,1.3c-0.6,0.5-1.2,1-1.9,1.5c-0.1,0-0.1,0.1,0,0.2c0,0.1,0.1,0.1,0.2,0
				c0.8-0.7,1.7-1.3,2.5-2c0.5-0.3,0.9-0.7,1.4-1c0.1,0.6,0.2,1.2,0.3,1.8c-0.5,0.4-1,0.8-1.5,1.3c-0.3,0.3-0.6,0.6-0.9,0.9
				c-0.4,0.4-0.8,0.8-1.2,1.1c-0.2,0.2-0.5,0.3-0.7,0.5c0,0,0,0,0,0.1c0,0,0,0,0.1,0c0.2-0.2,0.4-0.3,0.6-0.5
				c0.4-0.3,0.9-0.7,1.3-1.1c0.8-0.7,1.5-1.4,2.4-2c0,0,0,0.1,0,0.1c0,0.1,0,0.2,0,0.2c0,0.1,0.1,0.2,0.1,0.2
				c0.1,0.3,0.1,0.6,0.2,0.9c-0.3,0.2-0.6,0.5-0.8,0.7c-0.2,0.2-0.4,0.4-0.6,0.6c-0.4,0.5-0.9,0.9-1.4,1.3c-0.2,0.1-0.3,0.2-0.5,0.4
				c-0.2,0.1-0.4,0.3-0.6,0.4c0,0,0,0,0,0.1c0,0,0,0,0.1,0c0.1-0.1,0.2-0.1,0.3-0.2c0.1-0.1,0.2-0.1,0.3-0.2
				c0.1-0.1,0.3-0.2,0.4-0.3c0.3-0.2,0.5-0.4,0.8-0.6c0.4-0.4,0.9-0.8,1.3-1.2c0.3-0.3,0.6-0.5,0.9-0.7c0,0.2,0.1,0.5,0.2,0.7
				c0.1,0.4,0.2,0.8,0.2,1.2c-0.1,0.1-0.3,0.3-0.4,0.4c-0.3,0.3-0.6,0.6-1,0.8c-0.4,0.4-0.9,0.7-1.3,1.1c-0.4,0.3-0.8,0.7-1,1.1
				c0,0,0,0.1,0,0.2c0,0,0.1,0,0.2,0c0.7-0.8,1.5-1.4,2.3-2c0.2-0.2,0.4-0.3,0.6-0.5c0.3-0.2,0.5-0.4,0.8-0.6
				c0.1,0.5,0.2,0.9,0.2,1.4c0.1,0.4,0.1,0.9,0.1,1.3c0,0.2,0,0.5,0,0.7l0,0.1h-0.2c-0.1,0.2-0.3,0.3-0.4,0.5c0,0,0,0-0.1-0.1
				c-0.1,0-0.1,0-0.2,0l0,0l0,0l0,0l0,0l0,0l0,0l0,0l0.1,0.1c0,0,0,0.1,0,0.1c-0.7,0.7-1.4,1.5-2.4,1.9c-0.2,0.1-0.4,0.1-0.5,0.2
				c0,0-0.1,0,0,0.1c0,0,0,0.1,0.1,0c0.1,0,0.2-0.1,0.3-0.1c0.1,0,0.2-0.1,0.3-0.1c0.3-0.1,0.6-0.3,0.8-0.4c0.3-0.2,0.7-0.4,0.9-0.6
				c0.3-0.2,0.5-0.4,0.7-0.6c0.2-0.2,0.5-0.4,0.7-0.6l0,0.1l0,0.1c0,0.2,0,0.5-0.1,0.7c0,0.2,0,0.5-0.1,0.7
				c-0.1,0.3-0.1,0.6-0.1,0.8c0,0.1,0,0.2-0.1,0.2c-0.4,0.3-0.8,0.7-1.2,1.1c-0.2,0.1-0.3,0.3-0.4,0.5c-0.1,0.1-0.1,0.1-0.2,0.2
				c-0.2,0.2-0.4,0.4-0.6,0.6c-0.2,0.2-0.4,0.3-0.6,0.4c-0.1,0.1-0.2,0.1-0.3,0.1c-0.1,0-0.1,0.1-0.1,0.2c0,0.1,0.1,0.1,0.2,0.1
				c0.1-0.1,0.3-0.1,0.4-0.2c0.3-0.2,0.5-0.3,0.8-0.6c0.4-0.3,0.7-0.6,1-0.9c0.1-0.1,0.3-0.3,0.4-0.4c0.2-0.2,0.4-0.3,0.5-0.5
				c0,0.1,0,0.2-0.1,0.2L52,67l-0.2,0.5c-0.6,1-1.6,1.9-2.6,2.5c-0.3,0.2-0.6,0.4-0.9,0.5c-0.2,0.1-0.4,0.2-0.7,0.4
				c-0.5,0.2-0.9,0.5-1.4,0.7c0.1-0.1,0.1-0.1,0.2-0.2c0.3-0.3,0.6-0.5,0.9-0.8c0.3-0.3,0.7-0.6,1-0.8c0.2-0.1,0.3-0.3,0.5-0.4
				c0.1-0.1,0.1-0.2,0-0.2c-0.1-0.1-0.2-0.1-0.2,0c-0.8,0.7-1.7,1.5-2.5,2.2c-0.2,0.2-0.3,0.3-0.5,0.5c-0.1,0-0.1,0.1-0.2,0.1
				c-0.4,0.1-0.8,0.3-1.2,0.4c-0.3,0.1-0.5,0.2-0.8,0.2c-0.2,0.1-0.4,0.1-0.7,0.2c-0.5,0.1-1,0.3-1.6,0.4c-0.4,0.1-0.9,0.2-1.3,0.2
				c0.1-0.1,0.2-0.3,0.3-0.4c0.1-0.1,0.2-0.3,0.4-0.4c0.2-0.2,0.4-0.4,0.6-0.6c0.5-0.4,1-0.8,1.4-1.1c0.3-0.2,0.6-0.4,0.8-0.6
				c0.1-0.1,0.1-0.2,0-0.2c-0.1-0.1-0.2-0.1-0.2,0c-0.2,0.1-0.3,0.2-0.5,0.4c-0.5,0.3-0.9,0.7-1.3,1.1c-0.5,0.4-1.1,0.9-1.6,1.5
				c-0.1,0.2-0.3,0.4-0.4,0.6c-0.1,0-0.2,0-0.4,0c-0.3,0-0.7,0.1-1,0.1c-0.1,0-0.2,0-0.3,0c0.3-0.3,0.7-0.6,1-0.9
				c0.4-0.3,0.8-0.7,1.2-1c0.2-0.1,0.4-0.3,0.6-0.4c0.1,0,0.1-0.2,0.1-0.2c0-0.1-0.2-0.1-0.2,0c-0.2,0.1-0.4,0.3-0.6,0.4
				c-0.4,0.3-0.8,0.7-1.2,1c-0.4,0.4-0.8,0.8-1.2,1.2c-0.1,0-0.3,0-0.4,0c-0.3,0-0.6,0-0.9,0c-0.2,0-0.5,0-0.7,0
				c-0.2,0-0.4,0-0.6-0.1c0,0-0.1,0-0.1,0c0.2-0.2,0.3-0.3,0.5-0.5c0.4-0.4,0.7-0.7,1.1-1.1c0.1-0.1,0.3-0.3,0.5-0.4
				c0.1-0.1,0.1-0.2,0-0.2c-0.1-0.1-0.2-0.1-0.2,0c-0.2,0.1-0.3,0.2-0.5,0.4c-0.6,0.6-1.2,1.2-1.8,1.8c-0.4,0-0.8-0.2-1.2-0.3
				c0.1,0,0.1-0.1,0.2-0.1c0.1,0,0.2-0.1,0.3-0.1c0,0,0,0,0,0c0.1,0,0.2,0,0.3,0c0.1,0,0.3,0,0.4-0.1c0.2,0,0.3-0.2,0.3-0.4
				c0-0.2-0.2-0.3-0.4-0.3c-0.1,0-0.2,0-0.4,0.1c0.5-0.4,0.9-0.8,1.4-1.2c0.1-0.1,0.1-0.1,0-0.2c-0.1-0.1-0.1-0.1-0.2,0
				c-0.1,0.1-0.2,0.2-0.4,0.3c-0.2,0.2-0.4,0.4-0.7,0.6c-0.1,0.1-0.3,0.2-0.4,0.4c-0.1-0.1-0.3-0.1-0.4,0c-0.1,0-0.2,0.1-0.3,0.2
				c-0.1,0-0.2,0.1-0.3,0.1c-0.1,0-0.2,0-0.3,0c-0.1,0-0.2,0-0.3,0c-0.1-0.2-0.3-0.4-0.3-0.7c-0.1-0.2-0.3-0.4-0.6-0.3
				c-0.2,0.1-0.4,0.3-0.3,0.6c0,0.1,0.1,0.3,0.1,0.4c-0.5,0-1.1-0.1-1.6-0.2c-0.3-0.1-0.7-0.1-1-0.2c0.1-0.1,0.2-0.1,0.2-0.1
				c0.1,0,0.1-0.1,0.1-0.2c0-0.1-0.1-0.1-0.2-0.1c-0.2,0.1-0.3,0.2-0.4,0.3c0,0,0,0-0.1,0c-0.3-0.1-0.7-0.2-1-0.3
				c-0.2-0.1-0.5-0.2-0.7-0.3c0.3-0.3,0.7-0.7,1.1-0.8c0.1,0,0.1-0.1,0.1-0.2c0-0.1-0.1-0.1-0.2-0.1c-0.5,0.2-0.9,0.6-1.3,1
				c-0.4-0.2-0.8-0.3-1.2-0.6c0.3-0.4,0.7-0.7,1.1-0.9c0.1,0,0.1-0.1,0-0.2c0-0.1-0.1-0.1-0.2,0c-0.3,0.2-0.6,0.4-0.9,0.7
				c-0.1,0.1-0.2,0.2-0.3,0.3c-0.1-0.1-0.2-0.1-0.3-0.2c-0.3-0.2-0.6-0.4-0.9-0.6c0.1-0.1,0.3-0.2,0.4-0.4c0.3-0.3,0.6-0.4,0.9-0.6
				c0.1-0.1,0.3-0.2,0.5-0.2c0.1,0,0.1-0.1,0.1-0.2c0-0.1-0.1-0.1-0.2-0.1c-0.1,0-0.2,0.1-0.2,0.1c-0.1,0.1-0.3,0.1-0.4,0.2
				c-0.3,0.2-0.5,0.4-0.8,0.6c-0.2,0.1-0.3,0.3-0.5,0.5c0,0-0.1-0.1-0.1-0.1c-0.2-0.1-0.4-0.3-0.5-0.4c-0.1-0.1-0.2-0.2-0.3-0.2
				l-0.2-0.2l0,0c0.6-0.4,1.2-0.8,1.8-1.1c0.1,0,0.1-0.2,0.1-0.2c0-0.1-0.2-0.1-0.2-0.1c-0.6,0.4-1.2,0.8-1.8,1.3L22,68.2l-0.4-0.5
				c-0.1-0.2-0.2-0.3-0.3-0.5c0-0.1-0.1-0.2-0.1-0.2c0.4-0.5,0.9-1,1.3-1.5c0.1-0.1,0-0.2,0-0.2c-0.1-0.1-0.2,0-0.2,0
				c-0.4,0.5-0.8,1-1.2,1.5c0-0.1-0.1-0.1-0.1-0.2c-0.2-0.4-0.3-0.8-0.4-1.2c0-0.1,0-0.1,0-0.2c0,0,0,0,0,0c0.2-0.2,0.5-0.5,0.8-0.7
				c0.2-0.2,0.4-0.3,0.6-0.5c0.1,0,0.1-0.1,0.2-0.1c0,0,0-0.1,0-0.1c0,0-0.1,0-0.1,0c-0.5,0.3-0.9,0.8-1.3,1.2
				c-0.1,0.1-0.1,0.1-0.2,0.2c-0.1-0.5-0.2-1-0.2-1.4c0.1-0.1,0.3-0.2,0.4-0.4c0,0,0-0.1,0-0.1h-0.1c-0.1,0.1-0.2,0.2-0.3,0.3
				c0-0.1,0-0.3,0-0.4c0-0.5-0.1-1-0.1-1.5c0.3-0.3,0.6-0.6,0.9-0.8c0,0,0,0,0-0.1c0,0,0,0-0.1,0c-0.4,0.2-0.7,0.5-0.9,0.8
				c0-0.7,0-1.4,0-2.1c0,0,0,0,0,0c0.4-0.5,1-1.1,1.5-1.4c0,0,0.1-0.1,0-0.1c0,0-0.1-0.1-0.1,0c-0.5,0.3-0.9,0.8-1.3,1.3
				c0,0-0.1,0.1-0.1,0.1c0-0.3,0-0.6,0-0.8c0.1-0.6,0.3-1.2,0.4-1.8c0,0,0-0.1,0-0.1c0.1-0.1,0.2-0.2,0.3-0.4
				c0.3-0.4,0.7-0.8,1.1-1.2c0,0,0-0.1,0-0.1c0,0-0.1,0-0.1,0c-0.4,0.4-0.8,0.8-1.1,1.2c0.1-0.6,0.3-1.2,0.4-1.8
				c0.1,0,0.1-0.1,0.2-0.1c0.1-0.1,0.2-0.2,0.3-0.3c0-0.1,0.1-0.1,0.2-0.2c0,0,0.1-0.1,0.1-0.2c0.1-0.1,0.1-0.2,0-0.2
				c-0.1-0.1-0.2-0.1-0.2,0c-0.1,0.1-0.2,0.2-0.3,0.3c0,0-0.1,0.1-0.1,0.1c0.1-0.3,0.1-0.6,0.2-0.8c0-0.2-0.1-0.3-0.2-0.3
				c0,0,0,0-0.1,0c0-0.1,0-0.2,0.1-0.3c0.1-0.1,0.1-0.2,0.2-0.3c0.1-0.2,0.1-0.5,0.1-0.7c0-0.1-0.1-0.3-0.2-0.3
				c-0.1,0-0.3,0.1-0.3,0.2c0,0.1,0,0.2,0,0.3c-0.1,0.2-0.2,0.4-0.3,0.5c0-0.4,0-0.7,0-1.1c0.2-0.1,0.3-0.3,0.5-0.4
				c0.1-0.1,0.3-0.2,0.4-0.3c0.1,0,0.1-0.1,0.1-0.2c0-0.1-0.1-0.1-0.2-0.1c-0.1,0-0.4,0.2-0.5,0.3c-0.1,0.1-0.2,0.2-0.3,0.3
				c0-0.2,0-0.3,0.1-0.5c0,0,0-0.1-0.1-0.1c0,0-0.1,0-0.1,0.1c0,0.2-0.1,0.4-0.1,0.7c0,0-0.1,0.1-0.1,0.1l-0.1,0
				c-0.1,0-0.1,0.1-0.1,0.2c0,0,0,0.1,0.1,0.1h0.1c0,0,0,0,0.1,0c0,0.2-0.1,0.4-0.1,0.5c0,0.2-0.1,0.4-0.1,0.7l0,0l-0.1,0
				c0.1-0.2,0-0.4-0.1-0.5l0,0c-0.1-0.3-0.3-0.5-0.5-0.7c-0.2-0.4-0.3-1-0.3-1.4c0,0,0,0,0-0.1c0.4-1.6,0.5-3.2,0.7-4.8
				c0-0.1,0-0.2,0-0.3l0.2-0.4l0.3-0.6c0.1-0.2,0.2-0.3,0.3-0.5c0.2-0.3,0.5-0.7,0.8-0.9c0,0,0,0,0.1,0c0.1,0,0.1,0.2,0.1,0.2
				c0.1,0.1,0.3,0.2,0.4,0.1c0.1,0,0.1-0.1,0.1-0.1c-0.1,0.2-0.1,0.3-0.2,0.5c0,0.1-0.1,0.2-0.1,0.2c-0.1,0.2-0.2,0.3-0.3,0.5
				c-0.1,0.1,0,0.2,0,0.2c0,0,0,0,0.1,0c-0.1,0.2-0.1,0.4-0.2,0.6c0,0,0,0.1,0,0.1c0,0,0.1,0,0.1,0c0.1-0.3,0.2-0.6,0.3-0.9
				c0.1-0.1,0.1-0.2,0.2-0.2c0.1-0.1,0.2-0.2,0.3-0.3c0.1-0.2,0.2-0.3,0.3-0.5c0.1-0.1,0.2-0.3,0.2-0.4c-0.1,0.2-0.1,0.4-0.2,0.6
				c-0.1,0.3-0.2,0.6-0.2,0.9c0,0.2,0,0.5,0,0.7c0.1-0.2,0.3-0.4,0.3-0.6c0-0.1,0.1-0.2,0.1-0.3c0.1-0.2,0.1-0.5,0.2-0.7
				c0.2-0.7,0.5-1.4,0.7-2c0.1-0.2,0.2-0.4,0.2-0.6c0.2-0.4,0.4-0.8,0.7-1.2c0.4-0.7,0.8-1.4,1.2-2.1c0.1-0.1,0.3-0.2,0.4-0.3
				c0.8-0.7,1.7-1.4,2.6-2c0,0,0.1,0.1,0.1,0.1c0,0,0.1,0,0.1,0c0.1-0.1,0.1-0.4,0.1-0.6c0-0.1,0-0.1,0-0.2c0.4-0.3,0.9-0.5,1.4-0.7
				c0,0,0.1-0.1,0-0.1c0,0-0.1-0.1-0.1,0c-0.3,0.1-0.6,0.3-0.8,0.4c0.1-0.1,0.3-0.2,0.4-0.3c0.5-0.4,1-0.8,1.6-1.1
				c0.8-0.6,1.7-1.2,2.5-1.7c0.1-0.1,0.1-0.2,0-0.2c-0.1-0.1-0.2-0.1-0.2,0c-0.3,0.2-0.5,0.4-0.8,0.6c-0.3,0.2-0.6,0.5-0.9,0.7
				c-0.9,0.6-1.7,1.3-2.6,2c-0.1,0.1-0.3,0.2-0.4,0.3c0-0.2,0-0.4,0-0.5c0-0.1,0-0.3,0-0.4c0,0,0-0.1,0-0.1c0.1-0.1,0.1-0.1,0.2-0.2
				c0.2-0.2,0.4-0.4,0.6-0.5c0.1-0.1,0.3-0.2,0.4-0.3c0.2-0.1,0.3-0.3,0.5-0.4c0.2-0.2,0.5-0.5,0.7-0.7c0.1-0.1,0.1-0.2,0-0.3H32
				c-0.1,0.1-0.3,0.3-0.4,0.4c-0.3,0.3-0.6,0.6-0.9,0.9c-0.1,0.1-0.3,0.2-0.4,0.3c-0.1,0.1-0.3,0.3-0.4,0.4c0-0.1,0-0.3,0-0.4
				c0-0.4,0-0.8,0-1.2c0.1-0.6,0.1-1.1,0.1-1.7c0-0.5,0-0.9,0-1.4c0-0.2-0.2-0.4-0.3-0.4l0,0l0,0c0,0,0-0.1,0-0.1c0,0,0,0,0,0
				c0-0.1,0-0.3,0-0.4c0-0.1,0-0.4,0-0.5c0,0,0,0,0-0.1c-0.1-0.2-0.4-0.3-0.6-0.2c-0.1,0.1-0.2,0.2-0.2,0.3
				c-0.3-0.2-0.5-0.4-0.8-0.6c-1-0.7-2.1-1.4-3.2-1.9c-0.2-0.1-0.4-0.2-0.7-0.3c-0.5-0.3-1-0.5-1.5-0.7c0,0-0.1-0.1-0.1-0.1
				c-0.8-0.5-1.7-1-2.5-1.5c0.1,0,0.3,0,0.4,0c1.2,0.1,2.3,0.1,3.5,0.2c-0.2-0.1-0.6-0.1-0.8-0.1c-0.5-0.1-0.9-0.1-1.4-0.2
				c-0.8-0.1-1.6-0.2-2.4-0.3c-0.4-0.2-0.8-0.4-1.2-0.6c-1.3-0.6-2.6-1.1-4-1.5c-0.5-0.2-1-0.3-1.6-0.5c-0.3-0.1-0.5-0.1-0.8-0.2
				c-0.1-0.1-0.2-0.1-0.4-0.2c-1.1-0.5-2.2-1-3.3-1.4c-0.3-0.1-0.5-0.2-0.8-0.3C7,15.5,6.9,15.2,6.8,15l-0.3-0.7l0,0
				c0.1-0.1,0-0.3-0.1-0.4l-0.2-0.1L6,13.1c-0.6-1.5-1.2-2.9-1.6-4.4c1.1-1.2,2.2-2.2,3.5-3.2C8.2,5.3,8.4,5,8.7,4.8
				c0.3-0.3,0.7-0.6,1.1-0.9c0.7-0.6,1.5-1.2,2.2-1.7c0,0,0,0,0,0h2.1C13.4,2.8,12.6,3.4,11.9,4z M26.9,2.9
				c-0.4,0.3-0.9,0.5-1.3,0.8c-0.5,0.4-1.1,0.8-1.6,1.2c-0.2,0.2-0.4,0.4-0.7,0.5c-0.9,0.7-1.7,1.5-2.6,2.3l0,0c1-0.9,1.9-1.7,3-2.5
				c0.6-0.5,1.2-1,1.9-1.4c0.3-0.2,0.7-0.4,1-0.6c0.5-0.3,1-0.5,1.5-0.8c0,0,0.1-0.1,0-0.1c0,0-0.1-0.1-0.1,0
				C27.7,2.5,27.3,2.7,26.9,2.9z M29.1,3.2c-1.2,0.7-2.3,1.5-3.3,2.4c-0.6,0.6-1.3,1.2-1.8,1.8c0,0,0,0.1,0,0.1c0,0,0.1,0,0.1,0
				c0.9-1,2-2,3-2.7c0.3-0.2,0.7-0.5,1-0.7c0.7-0.5,1.4-0.9,2.2-1.3c0,0,0.1-0.1,0-0.1c0,0-0.1-0.1-0.1,0C29.9,2.8,29.5,3,29.1,3.2z
				 M71.2,3.5L71.2,3.5c0,0.1,0.1,0.1,0.1,0.2l0,0.1L71.2,3.5L71.2,3.5z M66.6,16.6L66.6,16.6L66.6,16.6
				C66.5,16.6,66.5,16.6,66.6,16.6L66.6,16.6z M7.5,16.8L7.5,16.8L7.5,16.8z M8.2,17c0.3,0.1,0.5,0.2,0.8,0.3
				c0.7,0.4,1.4,0.8,2.1,1.2c0.2,0.1,0.5,0.2,0.7,0.4c0,0-0.1,0-0.1,0c-0.7-0.2-1.3-0.5-2-0.9c-0.3-0.1-0.6-0.3-0.9-0.5
				c-0.3-0.2-0.6-0.3-0.8-0.5C8.1,17,8.2,17,8.2,17z M54.7,21c-1.3,0.6-2.5,1.3-3.7,2c-0.1,0.1-0.2,0.1-0.4,0.2
				c-0.5,0.2-1.1,0.5-1.6,0.7c-0.4,0.2-0.8,0.4-1.1,0.6c-0.7,0.4-1.4,0.8-2,1.4c0,0,0,0.1,0,0.1c0,0,0.1,0,0.1,0
				c0.3-0.2,0.5-0.3,0.8-0.5c0.4-0.2,0.9-0.4,1.3-0.6c-0.3,0.2-0.7,0.5-1,0.7c-0.4,0.3-0.8,0.6-1.2,0.9c0,0,0,0,0,0
				c0-0.1,0-0.1,0-0.2v0l0,0c0,0,0-0.1,0-0.1c0-0.1-0.1-0.2-0.2-0.3c0.2-0.1,0.4-0.3,0.5-0.4c0.9-0.7,1.9-1.3,2.9-1.9
				c0.7-0.4,1.4-0.8,2.1-1.1c0.7-0.3,1.4-0.7,2.1-1C53.7,21.3,54.2,21.1,54.7,21C54.7,21,54.7,21,54.7,21z M24.3,23.4
				c0.8,0.5,1.7,1,2.4,1.5c0.4,0.2,0.7,0.5,1.1,0.7c0.2,0.2,0.5,0.4,0.7,0.6c0,0.3,0,0.7,0,1c-0.2-0.2-0.3-0.3-0.5-0.5
				c-0.2-0.2-0.3-0.3-0.5-0.5c0,0,0,0,0.1,0c0.2,0.1,0.3,0,0.4-0.1s0-0.3-0.1-0.4c-0.1,0-0.1-0.1-0.2-0.1c-0.3-0.2-0.6-0.4-0.9-0.5
				c-0.3-0.2-0.6-0.3-0.9-0.5c-0.1-0.1-0.2-0.1-0.3-0.2c-0.5-0.5-1.1-0.9-1.7-1.3C24,23.2,24.1,23.3,24.3,23.4z M42.9,25.4
				c-0.4,0.2-0.8,0.4-1.2,0.6c-0.7,0.4-1.4,0.7-2.2,1.1c0,0,0,0,0,0.1c0,0,0,0,0.1,0c1.1-0.6,2.3-1.1,3.4-1.7
				c0.5-0.3,1.1-0.6,1.6-0.9c0.2-0.1,0.5-0.3,0.7-0.5c0,0,0.1-0.1,0-0.1c0,0-0.1-0.1-0.1,0C44.4,24.5,43.7,25,42.9,25.4z M41.3,24.9
				c-0.1,0.1-0.2,0.2-0.2,0.2l0,0c0.3-0.4,0.8-0.8,1.3-0.9l0,0C41.9,24.4,41.7,24.5,41.3,24.9z M44.7,25c-0.2,0.2-0.5,0.3-0.7,0.5
				c-0.2,0.1-0.4,0.3-0.5,0.4c-0.2,0.2-0.5,0.4-0.7,0.5c-0.5,0.4-1.1,0.8-1.6,1.2c-0.2,0.1-0.4,0.3-0.6,0.4
				c-0.2,0.1-0.4,0.3-0.7,0.4c-0.3,0.2-0.6,0.3-0.9,0.5c0,0,0,0,0,0.1c0,0,0,0,0.1,0c0.3-0.2,0.5-0.3,0.8-0.5c0.5-0.3,1.1-0.7,1.6-1
				c0.6-0.4,1.1-0.8,1.7-1.1c0.2-0.1,0.4-0.3,0.6-0.4c0.4-0.3,0.8-0.6,1.2-0.9c0.2-0.2,0.4-0.4,0.7-0.5c0,0,0-0.1,0-0.1
				c0,0-0.1,0-0.1,0C45.2,24.6,45,24.9,44.7,25z M44.9,26.9l0,0.6l-0.1,0C44.8,27.3,44.8,27.1,44.9,26.9c0-0.1,0-0.3,0-0.5
				c0,0,0,0,0,0C44.9,26.5,44.9,26.7,44.9,26.9z M44.1,28.3c-0.6,0.4-1.2,0.8-1.8,1.3c-0.4,0.3-0.8,0.6-1.1,0.9
				c-0.3-0.1-0.6-0.2-0.9-0.3c0.3-0.2,0.6-0.4,0.9-0.6c0.9-0.6,1.7-1.2,2.5-1.9c0.2-0.1,0.3-0.3,0.5-0.4
				C44.2,27.6,44.1,28,44.1,28.3z M44,29.6c0,0.2,0,0.3,0,0.5c-0.5,0.3-1,0.6-1.4,1c-0.2-0.1-0.5-0.2-0.7-0.3
				c-0.1-0.1-0.2-0.1-0.3-0.1c0.3-0.2,0.6-0.4,0.8-0.6c0.6-0.4,1.2-0.9,1.8-1.3C44,29,44,29.3,44,29.6z M44.8,29.9l0,0.8
				c0-0.1,0-0.3-0.1-0.4c0,0,0,0,0,0L44.8,29.9z M40.8,30.8c-0.1,0.1-0.2,0.1-0.3,0.2c-0.2-0.1-0.5-0.2-0.7-0.3
				c-0.1,0-0.2-0.1-0.3-0.1c0.1-0.1,0.2-0.1,0.3-0.2C40.2,30.5,40.5,30.6,40.8,30.8z M43.9,31.8c-0.2-0.1-0.4-0.2-0.6-0.4
				c-0.2-0.1-0.3-0.2-0.5-0.3c0.4-0.3,0.8-0.5,1.2-0.8C43.9,30.9,43.9,31.3,43.9,31.8z M42.1,31.3C42.1,31.3,42.1,31.4,42.1,31.3
				c0,0.1,0,0.1-0.1,0.1c-0.1,0-0.1,0.1-0.2,0.1c0,0-0.1,0-0.1-0.1c-0.3-0.2-0.6-0.3-1-0.4l0,0c0.1-0.1,0.2-0.1,0.3-0.2
				C41.4,31,41.7,31.2,42.1,31.3z M44.6,31.6c0,0.1,0,0.1,0,0.2c-0.1,0-0.1,0.1-0.2,0.1c0-0.2,0-0.3,0.1-0.5c0-0.2,0-0.3,0.1-0.5
				C44.6,31.1,44.6,31.4,44.6,31.6z M43.6,32.2c0,0,0,0.1,0,0.1c-0.1,0.1-0.1,0.1-0.2,0.2c-0.3-0.2-0.6-0.4-0.8-0.5
				c-0.2-0.1-0.4-0.2-0.6-0.3c0,0,0.1,0,0.1-0.1c0.1,0,0.1-0.1,0.2-0.2C42.7,31.7,43.2,31.9,43.6,32.2z M44.6,31.8
				C44.6,31.7,44.6,31.7,44.6,31.8C44.6,31.8,44.6,31.8,44.6,31.8C44.6,31.8,44.6,31.8,44.6,31.8z M44.6,32.3
				C44.6,32.2,44.5,32.2,44.6,32.3c-0.1-0.1,0-0.1,0-0.2c0,0,0,0,0,0C44.6,32.1,44.6,32.2,44.6,32.3z M44.5,32.2
				C44.5,32.2,44.4,32.2,44.5,32.2C44.4,32.2,44.4,32.2,44.5,32.2c0-0.1,0-0.1,0-0.1C44.5,32.1,44.5,32.2,44.5,32.2z M43.9,32.5
				c0,0.1,0,0.2,0,0.3c-0.1-0.1-0.2-0.2-0.3-0.2C43.6,32.6,43.7,32.5,43.9,32.5C43.8,32.5,43.8,32.5,43.9,32.5
				C43.8,32.5,43.9,32.5,43.9,32.5z M44.3,32.9c0,0,0,0.1,0.1,0.1L44.3,32.9l0.1,0c0,0,0-0.1,0-0.1c0,0,0.1,0,0.1,0.1
				c0,0,0,0.1,0,0.1c0,0-0.1,0-0.1,0c0,0,0,0,0,0.1c0,0,0,0-0.1,0c0-0.1,0-0.2,0-0.3C44.3,32.8,44.3,32.9,44.3,32.9z M29.4,33.2
				c0,0.1,0,0.2,0,0.3l0,0.1c0,0,0,0,0,0l0-0.1c0-0.1,0-0.2-0.1-0.2c0,0,0,0,0,0c0,0,0.1-0.1,0-0.2c0,0-0.1,0-0.1,0c0,0,0,0,0,0
				c0.1-0.1,0.1-0.1,0.2-0.2C29.4,33,29.4,33.1,29.4,33.2z M43.1,33C43.1,33,43.1,33,43.1,33C43.1,33,43.1,33,43.1,33
				C43.1,33,43.1,33,43.1,33z M44.8,33.1c0,0,0,0.1,0,0.1C44.7,33.3,44.7,33.2,44.8,33.1C44.7,33.2,44.7,33.1,44.8,33.1
				C44.7,33.1,44.7,33.1,44.8,33.1z M29.1,33.8c-0.1,0-0.1,0.1-0.2,0.1c-0.1,0.1-0.2,0.2-0.3,0.2c0-0.1,0.1-0.3,0.1-0.4
				c0.1-0.1,0.2-0.2,0.3-0.3C29.1,33.6,29.1,33.7,29.1,33.8z M29.2,34.2C29.2,34.2,29.2,34.2,29.2,34.2c-0.9,0.6-1.8,1.4-2.6,2.1
				c-0.1,0-0.1,0.1-0.2,0.1c0-0.1,0.1-0.1,0.1-0.2c0.8-0.9,1.7-1.6,2.6-2.3C29.2,34.1,29.2,34.1,29.2,34.2z M28.2,34.4
				c-0.3,0.2-0.6,0.4-0.9,0.7c0.2-0.3,0.5-0.5,0.7-0.8C28.1,34.4,28.1,34.4,28.2,34.4z M28.1,36.8c-0.3,0.2-0.6,0.4-0.8,0.6
				c-0.3,0.2-0.5,0.4-0.8,0.6c-0.3,0.2-0.6,0.4-0.8,0.6c-0.2,0.1-0.4,0.3-0.6,0.5l0,0.1c0.1-0.1,0.3-0.3,0.5-0.4
				c0.3-0.2,0.6-0.5,0.9-0.7c0.5-0.4,1-0.8,1.6-1.1c0.2-0.1,0.4-0.3,0.7-0.4c0,0,0,0,0-0.1c0,0,0,0-0.1,0
				C28.5,36.6,28.3,36.7,28.1,36.8z M45.5,37.8c-0.2,0.1-0.3,0.2-0.5,0.3c-0.6,0.5-1.2,0.9-1.7,1.5c0,0,0,0.1,0,0.1c0,0,0.1,0,0.1,0
				c0.1-0.2,0.3-0.4,0.5-0.5c0.3-0.3,0.7-0.5,1-0.8c0.3-0.2,0.7-0.5,1-0.7c0.2-0.1,0.3-0.3,0.5-0.4c0.1,0,0.1-0.1,0-0.2
				c0-0.1-0.1-0.1-0.2,0C46,37.4,45.8,37.6,45.5,37.8z M50.5,41.3c0.1,0.1,0.1,0.2,0.2,0.3c0,0,0,0,0,0c0,0-0.1,0.1-0.1,0.1
				c-0.1-0.2-0.1-0.3-0.2-0.5c0-0.1-0.1-0.2-0.1-0.3C50.3,40.9,50.4,41.1,50.5,41.3z M22.5,42c0,0.1-0.1,0.1-0.1,0.2
				c0-0.1,0-0.1,0-0.2c0,0,0,0,0-0.1c0,0,0.1-0.1,0.1-0.1c0,0,0,0,0.1-0.1C22.6,41.9,22.6,42,22.5,42z M22.4,42.3
				C22.4,42.3,22.5,42.3,22.4,42.3C22.5,42.3,22.4,42.3,22.4,42.3z M49.6,43.9c-0.2,0.2-0.5,0.6-0.8,0.7c-0.1,0-0.2,0-0.3,0
				c-0.1,0-0.1,0.1-0.1,0.1c0,0.1,0.1,0.1,0.1,0.1c0,0,0.1,0,0.2,0c0,0,0.1,0,0.1,0c0.3,0,0.7-0.4,0.9-0.6c0.2-0.2,0.5-0.5,0.8-0.6
				c0.1,0,0.1-0.2,0.1-0.3c0-0.1-0.2-0.1-0.3-0.1C50.1,43.3,49.8,43.6,49.6,43.9z M21.9,46.1c-0.3,0.2-0.6,0.5-0.9,0.6
				c-0.1,0-0.2,0.1-0.4,0.1c-0.1,0-0.1,0.1-0.1,0.1c0,0.1,0.1,0.1,0.1,0.1c0.1,0,0.2,0,0.3-0.1c0.1,0,0.2-0.1,0.3-0.1
				c0.1-0.1,0.3-0.2,0.5-0.3c0.4-0.3,0.8-0.6,1.2-0.9c0.1,0,0.1-0.1,0-0.2c0-0.1-0.1-0.1-0.2,0C22.4,45.6,22.1,45.8,21.9,46.1z
				 M51.1,46.5c-0.1,0.1-0.2,0.2-0.3,0.3c-0.2,0.2-0.4,0.4-0.5,0.7c0,0.1,0,0.2,0.1,0.2c0.1,0,0.2,0,0.2-0.1c0.2-0.4,0.7-0.8,1-1.1
				c0.1-0.1,0.1-0.2,0-0.3c-0.1-0.1-0.2-0.1-0.3,0C51.3,46.3,51.2,46.4,51.1,46.5z M22.3,46.9c-0.4,0.3-0.8,0.6-1.2,1
				c-0.2,0.2-0.3,0.4-0.4,0.6c0,0,0,0.1,0,0.1c0,0,0.1,0,0.1,0c0.5-0.8,1.2-1.3,2-1.7c0.1,0,0.1-0.1,0-0.2c0-0.1-0.1-0.1-0.2,0
				C22.6,46.7,22.4,46.8,22.3,46.9z M51.6,47.2c-0.1,0.2-0.3,0.3-0.5,0.4c-0.2,0.1-0.4,0.3-0.6,0.5c-0.6,0.5-1.2,1-1.8,1.4
				c-0.4,0.3-0.8,0.5-1.1,0.8c0,0,0,0,0,0.1c0,0,0,0,0.1,0c0.2-0.1,0.4-0.2,0.6-0.4c0.2-0.1,0.3-0.2,0.5-0.4
				c0.6-0.4,1.1-0.8,1.7-1.2c0,0,0,0.1,0,0.1c0,0.1,0,0.2,0.2,0.2c0.1,0,0.2,0,0.2-0.2c0-0.4,0.6-0.6,0.9-0.8
				c0.1-0.1,0.2-0.2,0.3-0.3c0,0,0-0.1,0.1-0.1c0,0,0,0,0,0c0.1,0,0.1-0.1,0-0.2c0,0,0,0-0.1-0.1c0,0,0-0.1-0.1-0.1
				C51.8,47.1,51.7,47.1,51.6,47.2z M21.1,49.4c-0.1,0.1-0.3,0.3-0.4,0.3c0,0-0.1,0.1-0.1,0.1c-0.1,0-0.1,0.1,0,0.2
				c0,0.1,0.1,0.1,0.2,0c0.1,0,0.1-0.1,0.2-0.1c0.2-0.1,0.4-0.3,0.5-0.4c0.3-0.3,0.6-0.7,1-0.9c0.1,0,0.1-0.1,0.1-0.2
				c0-0.1-0.1-0.1-0.2-0.1C21.8,48.6,21.5,49,21.1,49.4z M52.8,49.5c0.1,0.5,0.1,1.1,0.1,1.6c-0.1-0.1-0.2-0.2-0.3-0.3h-0.2
				c-0.1,0.1-0.1,0.2,0,0.2c0,0,0.1,0.1,0.1,0.1c-0.1,0-0.2,0-0.3,0c0-0.1,0-0.2,0-0.2c0-0.1-0.1-0.3-0.2-0.3c0-0.1,0-0.2,0-0.3
				c0-0.1-0.1-0.1-0.1-0.1c-0.1,0-0.1,0.1-0.1,0.1c0,0.1,0,0.2,0,0.3c-0.1,0-0.2,0-0.2,0.1c0,0-0.1-0.1-0.1-0.1
				C51.6,49.9,52.3,49.8,52.8,49.5C52.8,49.5,52.8,49.5,52.8,49.5z M21.8,50.3L21.8,50.3L21.8,50.3L21.8,50.3l-0.1,0.1l0.2,0l0.2,0
				l0,0l0,0l0,0l0,0l0,0l0,0c0-0.1,0-0.1-0.1-0.1C21.8,50.2,21.8,50.3,21.8,50.3z M52.8,51.5C52.8,51.5,52.8,51.5,52.8,51.5
				C52.8,51.5,52.8,51.5,52.8,51.5C52.8,51.5,52.8,51.5,52.8,51.5z M52.5,52.1c0.2,0,0.3,0.1,0.5,0.1c0,0,0,0,0,0c0,0.2,0,0.3,0,0.5
				c0,0.2,0,0.4,0,0.6c0,0,0,0,0,0c0-0.1-0.1-0.1-0.2-0.1c-0.1,0-0.1,0.1-0.1,0.2c0.1,0.6,0.2,1.2,0.4,1.8c0,0.4,0,0.7,0,1.1
				c0,0.1,0,0.1,0,0.2c-0.1-0.6-0.3-1.3-0.4-1.9c0-0.2-0.1-0.5-0.1-0.7c0-0.1,0-0.2,0-0.2c0-0.1,0-0.2,0-0.2c0,0,0,0-0.1-0.1
				c-0.1-0.4-0.1-0.8-0.2-1.2C52.3,52.1,52.4,52.1,52.5,52.1z M20.7,52.7C20.7,52.8,20.7,52.7,20.7,52.7
				C20.7,52.7,20.7,52.7,20.7,52.7C20.7,52.7,20.7,52.7,20.7,52.7z M53.7,57.5c0,0.2,0.1,0.4,0.1,0.6c0,0.1-0.1,0.2-0.1,0.3
				c0,0.1-0.1,0.2-0.1,0.3c-0.1-0.4-0.1-0.8-0.2-1.2c0-0.3,0.1-0.7,0.1-1C53.6,56.9,53.6,57.2,53.7,57.5z M54,59.2
				c0.1,0.9,0.2,1.8,0.1,2.7c0,0.4,0,0.8-0.1,1.3c0,0.3-0.1,0.6-0.1,0.8c-0.1,0.3-0.1,0.6-0.2,1c-0.1,0.6-0.4,1.2-0.6,1.7
				c0,0,0,0,0,0.1c0.2-0.8,0.4-1.5,0.6-2.3c0.2-1.2,0.3-2.5,0.2-3.7c0-0.4-0.1-0.7-0.1-1.1c0-0.1,0.1-0.1,0.1-0.2
				c0-0.1,0.1-0.2,0.1-0.3C53.9,59.1,54,59.1,54,59.2z M50.4,62.2c-0.2,0.2-0.4,0.3-0.6,0.5c-0.1,0.1-0.2,0.1-0.2,0.2
				c-0.1,0.1-0.3,0.2-0.4,0.3c-0.2,0.1-0.3,0.2-0.5,0.3c-0.1,0-0.1,0.1-0.1,0.2c0,0.1,0.1,0.1,0.2,0.1c1.5-0.8,2.5-1.9,3.7-3
				c0.1-0.1,0.1-0.2,0-0.3h-0.3C51.6,61,51,61.7,50.4,62.2z M19.8,61.3c0,0.2,0,0.5,0,0.7c-0.1,0.1-0.1,0.2-0.2,0.3
				c0-0.6,0.1-1.1,0.2-1.7C19.8,60.8,19.8,61.1,19.8,61.3z M19.8,62.3c0,0.2,0,0.3,0,0.5c0,0.4,0,0.7,0.1,1.1
				c-0.1,0.1-0.2,0.2-0.3,0.3c0-0.1,0-0.1,0-0.2c0-0.5,0-1.1,0-1.6c0,0,0.1-0.1,0.1-0.1c0,0,0.1-0.1,0.1-0.1
				C19.8,62.2,19.8,62.3,19.8,62.3z M20.1,65.6C20.1,65.6,20.1,65.6,20.1,65.6c0,0.1,0,0.1-0.1,0.2c-0.1,0.1-0.1,0.1-0.2,0.2
				c0-0.1-0.1-0.2-0.1-0.4c-0.1-0.4-0.2-0.8-0.2-1.2c0.1-0.1,0.2-0.2,0.3-0.3C20,64.6,20.1,65.1,20.1,65.6z M20.7,67.3
				c0,0-0.1,0.1-0.1,0.1c-0.2-0.3-0.3-0.7-0.5-1.1C20,66.3,20,66.1,20,66c0.1-0.1,0.1-0.2,0.2-0.3C20.3,66.2,20.5,66.8,20.7,67.3z
				 M21.1,68.1c0,0.1,0.1,0.1,0.1,0.2c0.1,0.1,0.2,0.2,0.3,0.3c0,0,0.1,0.1,0.1,0.2c0,0,0,0-0.1,0.1c-0.3-0.3-0.6-0.7-0.8-1.1
				c0-0.1-0.1-0.1-0.1-0.2c0,0,0.1-0.1,0.1-0.1C20.9,67.8,21,68,21.1,68.1z M22.7,69.8c0.1,0.1,0.2,0.1,0.3,0.2c0,0-0.1,0.1-0.1,0.1
				l-0.3-0.2c-0.3-0.3-0.6-0.5-0.9-0.8c0,0,0.1,0,0.1-0.1C22.1,69.3,22.4,69.5,22.7,69.8z M44.2,70.3c-0.7,0.6-1.4,1.3-1.9,2.2
				c0,0.1,0,0.2,0,0.2c0.1,0,0.2,0,0.2,0c0.3-0.5,0.7-1,1.1-1.4c0.1-0.1,0.2-0.2,0.4-0.3c0.6-0.6,1.3-1.1,2-1.6
				c0.1-0.1,0.1-0.2,0-0.2C46,69,45.9,69,45.8,69C45.3,69.4,44.7,69.8,44.2,70.3z M23.4,70.3c0.3,0.2,0.7,0.4,1,0.6
				c0,0-0.1,0.1-0.2,0.1c0,0-0.1-0.1-0.1-0.1l-0.7-0.4l-0.4-0.3l-0.1,0c0,0,0.1-0.1,0.1-0.1C23.2,70.2,23.3,70.2,23.4,70.3z
				 M49.8,70.7C49.8,70.7,49.8,70.7,49.8,70.7c0.2-0.1,0.4-0.2,0.5-0.4C50.2,70.4,50,70.6,49.8,70.7z M48.1,71.9
				C48,72,47.8,72,47.7,72.1c-0.1,0.1-0.3,0.1-0.4,0.2c-0.1,0.1-0.2,0.1-0.4,0.2c-0.3,0.1-0.6,0.2-0.9,0.4c-0.3,0.1-0.7,0.2-1,0.3
				c-0.6,0.2-1.2,0.3-1.9,0.5c-0.4,0.1-0.8,0.2-1.2,0.2c0.3-0.1,0.7-0.2,1-0.3c0.3-0.1,0.6-0.2,1-0.3c0.5-0.1,0.9-0.3,1.4-0.5
				c0.5-0.2,0.9-0.3,1.4-0.5c0.3-0.1,0.6-0.3,0.9-0.4c0.1-0.1,0.2-0.1,0.3-0.2c0.2-0.1,0.5-0.2,0.7-0.4c0.1,0,0.2-0.1,0.3-0.2
				c0.3-0.1,0.6-0.3,0.8-0.5C49.3,71.2,48.7,71.6,48.1,71.9z M31.2,70.8c0,0.1,0,0.2,0.1,0.2c0.1,0.1,0.2,0.1,0.3,0.1
				c0.1,0,0.3,0,0.4,0.1c0.2,0.1,0.2,0.2,0.3,0.3c0.1,0,0.3,0.1,0.4,0.1c0.1,0,0.1,0,0.1-0.1c0-0.1,0-0.1-0.1-0.1
				c0-0.1-0.1-0.1-0.2-0.1c-0.1,0-0.2-0.1-0.2-0.1c-0.1,0-0.2,0-0.3,0c-0.2-0.1-0.2-0.2-0.4-0.3c-0.1-0.1-0.1-0.1-0.2-0.1
				C31.3,70.7,31.2,70.7,31.2,70.8z M25.8,71.6c-0.1,0.1-0.1,0.1-0.2,0.2c-0.3-0.1-0.5-0.2-0.8-0.4c-0.1-0.1-0.3-0.1-0.4-0.2
				c0.1,0,0.1-0.1,0.2-0.1C25,71.2,25.4,71.4,25.8,71.6z M38.1,71.6c-0.1,0.1-0.3,0.3-0.4,0.4c-0.5,0.4-1,0.8-1.4,1.3
				c0,0,0,0.1,0,0.1c0,0,0.1,0,0.1,0c0.4-0.4,0.8-0.8,1.3-1.1c0.2-0.1,0.3-0.3,0.5-0.4c0.1-0.1,0.1-0.1,0.2-0.2c0,0,0-0.1,0-0.2
				C38.3,71.5,38.2,71.5,38.1,71.6z M27.7,72.3c0,0-0.1,0.1-0.1,0.1c0,0,0,0,0,0c-0.4-0.1-0.8-0.2-1.2-0.3c-0.2-0.1-0.4-0.1-0.6-0.2
				c0,0,0,0,0,0c0,0,0.1-0.1,0.1-0.1C26.6,71.9,27.1,72.1,27.7,72.3z M28.1,72.4c0.4,0.1,0.8,0.2,1.2,0.3c0.1,0,0.2,0,0.3,0.1
				c-0.6,0-1.2-0.1-1.7-0.2c0,0,0,0,0.1-0.1c0,0,0,0,0-0.1C28.1,72.3,28.1,72.4,28.1,72.4z"/>
		</g>
	</g>
</g>
</svg>
