<?xml version="1.0" encoding="utf-8"?>
<!-- Generator: Adobe Illustrator 20.1.0, SVG Export Plug-In . SVG Version: 6.00 Build 0)  -->
<svg version="1.1" id="Layer_1" xmlns="http://www.w3.org/2000/svg" xmlns:xlink="http://www.w3.org/1999/xlink" x="0px" y="0px"
	 viewBox="0 0 75 75" style="enable-background:new 0 0 75 93.8;" xml:space="preserve">
<g transform="scale(1 -1)" fill="#2196F3">
	<g transform="translate(0 -75)">
		<g>
			<path marker-end="none" marker-start="none" d="M7.9,1.9c0,0.1,0,0.1,0,0.1c0.5,0.3,1,0.7,1.5,1c0.2,0.1,0.3,0.2,0.5,0.4
				c0.1,0.1,0.2,0.2,0.3,0.3C10.1,3.9,9.9,4.1,10,4.3c0,0.1,0.1,0.1,0.1,0.2c0,0,0.1,0.1,0.2,0.1c0,0,0,0,0,0c0,0.1,0,0.1,0.1,0.1
				c0.2,0,0.4,0.1,0.6,0.1c0.1,0,0.2,0.1,0.3,0.1c0.3,0.2,0.5,0.4,0.8,0.6c0.2,0.2,0.4,0.4,0.6,0.6c0.2,0.2,0.5,0.5,0.7,0.7
				c0.2,0.2,0.4,0.5,0.6,0.7c-0.1-0.1-0.1-0.1-0.2-0.2c-0.4-0.4-0.9-0.8-1.4-1.2c-0.1-0.1-0.3-0.3-0.4-0.4c-0.1-0.1-0.3-0.3-0.5-0.3
				c-0.2-0.1-0.3-0.1-0.5-0.1c0,0-0.1,0-0.1,0c0,0,0,0.1,0,0.1c0,0.2,0.1,0.4,0.2,0.5c0.1,0.1,0.2,0.2,0.4,0.3
				c0.2,0.2,0.4,0.4,0.7,0.6c0.3,0.3,0.7,0.7,1,1c0.5,0.5,0.9,0.9,1.4,1.4c1,1.1,2,2.2,2.7,3.5c0.6,1.4,0.9,3.1,0.9,4.6
				c0,0.3,0,0.6-0.1,0.9c-1.6,0-3.2,0.5-4.6,1.2c-0.6,0.3-1.1,0.6-1.7,1c-1,0.4-1.9,0.8-2.8,1.3c-0.1,0.1-0.1,0.2-0.1,0.3
				C9,22.1,9.1,22.1,9.2,22c0.2-0.1,0.4-0.2,0.6-0.3c0.2-0.1,0.5-0.3,0.7-0.4c-0.2,0.2-0.4,0.4-0.7,0.5h0c-0.2,0.2-0.3,0.3-0.5,0.5
				c-0.5,0.4-0.8,0.7-1.2,1.1C8,23.7,7.8,24,7.6,24.2c-0.5,0.6-0.9,1.2-1.3,1.8c-0.9,1.2-1.6,2.5-2,3.9c-0.2,0.4-0.4,0.9-0.6,1.4
				c0.1-0.3,0.2-0.6,0.3-1c0-0.1,0-0.1-0.1-0.1c-0.1,0-0.1,0-0.1,0.1c-0.6,1.6-1,3.2-1.2,4.8c-0.2,0.8-0.3,1.7-0.4,2.6
				c0,0,0,0.1,0,0.1c0,0.3-0.1,0.6-0.1,0.9c0.1-1.3,0.2-2.6,0.4-3.9c0.2-1.1,0.4-2.1,0.7-3.1c0.1-0.5,0.3-1,0.4-1.5
				c0.2-0.6,0.5-1.3,0.7-1.9c0.1-0.2,0.2-0.4,0.3-0.6c0.1-0.2,0.2-0.4,0.3-0.5c0.2-0.3,0.4-0.7,0.6-1c0.2-0.2,0.3-0.5,0.5-0.7
				C6.4,24.6,7,24,7.6,23.4C8,23,8.5,22.7,9,22.4C9.1,22.3,9.1,22.2,9,22C9,21.9,8.8,21.9,8.7,22c-0.5,0.3-0.9,0.6-1.3,1
				C7,23.3,6.6,23.7,6.2,24c-1.6,1.9-2.7,4-3.4,6.4c-0.3,0.9-0.5,1.7-0.7,2.6c-0.2,0.7-0.3,1.5-0.4,2.2c-0.1,0.9-0.2,1.9-0.3,2.8
				c-0.1,1.5-0.2,3.1-0.2,4.7c0,0.9,0,1.9,0.1,2.8c0,0.3,0,0.5,0.1,0.8c0-0.2-0.1-0.3-0.1-0.5c0-0.1-0.1-0.2-0.2-0.1
				c-0.1,0-0.2,0.1-0.1,0.2c0.2,0.6,0.3,1.2,0.5,1.7c0.2,0.6,0.4,1.2,0.6,1.7c0,0.1,0.1,0.2,0.1,0.4c0,0,0,0,0,0c0,0,0,0,0,0
				c0.1,0.3,0.3,0.7,0.4,1C2.7,51.6,3,52.3,3.3,53c0.1,0.2,0.1,0.3,0.2,0.5c0.4,1,0.8,1.9,1.3,2.8c0.3,0.5,0.6,0.9,0.9,1.3
				c0.5,0.8,1,1.6,1.6,2.4c0.3,0.4,0.6,0.8,0.9,1.2c-0.2-0.1-0.3-0.2-0.5-0.3c-0.3-0.2-0.6-0.4-0.9-0.6c-0.1-0.1-0.2,0-0.3,0.1
				c-0.1,0.1,0,0.2,0.1,0.3c0.7,0.4,1.3,0.9,2,1.3c0.2,0.1,0.4,0.2,0.6,0.4c0,0,0,0,0,0c0.5,0.5,1,1.1,1.5,1.5
				c-0.1,0-0.1-0.1-0.2-0.1c-0.1-0.1-0.3-0.2-0.4-0.3c-0.1-0.1-0.2-0.2-0.3-0.3c-0.2-0.2-0.4-0.4-0.6-0.6C9,62.3,8.8,62.1,8.7,62
				c-0.1-0.1-0.2-0.1-0.3,0c-0.1,0.1-0.1,0.2,0,0.3c0.3,0.3,0.5,0.6,0.8,0.9c0.3,0.3,0.6,0.5,0.9,0.7c0.3,0.2,0.6,0.5,0.9,0.6
				c0.3,0.2,0.6,0.4,0.9,0.5c0.1,0.1,0.2,0.2,0.4,0.3c0.7,0.6,1.4,1.2,2.2,1.7c0.5,0.3,1,0.7,1.6,1c0.2,0.1,0.4,0.3,0.6,0.4
				c0.3,0.1,0.6,0.3,0.9,0.4c0.2,0.1,0.5,0.2,0.7,0.2c0.3,0.1,0.7,0.2,1,0.3c0,0,0.1,0,0.1,0c0,0,0-0.1,0-0.1
				c-0.2-0.1-0.4-0.2-0.6-0.3c-0.5-0.3-1.1-0.6-1.6-0.9c-0.6-0.4-1.3-0.7-1.9-1.2c-0.2-0.2-0.5-0.3-0.7-0.5
				c-0.1-0.1-0.1-0.1-0.2-0.1c0.2,0.1,0.4,0.2,0.6,0.2c1.6,0.6,3.3,1,5,1.3c1,0.2,2.1,0.4,3.2,0.5c0.5,0.1,1.1,0.1,1.6,0.2
				c0.7,0.1,1.4,0.1,2.1,0.2c0.5,0,1,0.1,1.5,0.1c4.5,0.6,9.1,0.8,13.6,0.8c0.5,0,1.1,0,1.6,0c0.9,0,1.9,0,2.8,0c1.3,0,2.7,0,4-0.1
				c0.5,0,1.1,0,1.6-0.1c1.1-0.1,2.2-0.2,3.2-0.3c0.1,0,0.2-0.1,0.2-0.2c0-0.1-0.1-0.2-0.2-0.2c-1,0-2.1-0.1-3.1-0.1
				c-0.7,0-1.4,0-2.1,0.1c-0.7,0-1.4,0-2.1,0.1c-0.8,0-1.6,0-2.4,0.1c-0.2,0-0.4,0-0.6,0c0.1,0,0.2,0,0.3,0c0.3,0,0.5,0,0.8-0.1
				c0.5,0,0.9-0.1,1.4-0.1c0.9-0.1,1.8-0.2,2.8-0.3c0.3,0,0.5-0.1,0.8-0.1c-0.1,0-0.1,0.1-0.1,0.2c0,0.1,0.1,0.2,0.2,0.2
				c0.6,0,1.3,0,1.9-0.1c1.3-0.1,2.5-0.3,3.7-0.6c0.9-0.2,1.7-0.5,2.6-0.9c0.3-0.1,0.6-0.3,0.9-0.4c0.4-0.2,0.7-0.4,1.1-0.6
				c1-0.6,1.9-1.3,2.8-2.2c0.3-0.3,0.6-0.6,0.9-0.9c0.2-0.3,0.5-0.5,0.7-0.8c0.1-0.1,0.2-0.2,0.3-0.3c0.2-0.3,0.4-0.5,0.6-0.8
				c0,0,0,0,0,0c0.3-0.3,0.7-0.7,1-1.1c0.4-0.5,0.9-1,1.3-1.6c0.1-0.1,0.1-0.2,0.2-0.3c0.3-0.5,0.7-1,1-1.5c0.3-0.5,0.5-0.9,0.8-1.4
				c0.2-0.4,0.5-0.9,0.7-1.4c0.4-0.9,0.7-1.8,1-2.8c0,0,0,0,0,0c0,0.2,0.1,0.3,0.2,0.3s0.3-0.1,0.3-0.2c0.1-0.7,0.2-1.4,0.3-2.2
				c0.1-0.2,0.2-0.3,0.2-0.5c0,0,0.1-0.1,0.1-0.1c0.2-0.1,0.3-0.3,0.5-0.4c0.1-0.1,0.2-0.3,0.1-0.4c-0.1-0.1-0.3-0.2-0.4-0.1
				c0,0-0.1,0-0.1,0.1c0-0.1,0-0.1,0-0.2c0-0.1,0-0.1,0-0.1c-0.1,0-0.1,0-0.1,0c-0.1,0.1-0.1,0.1-0.2,0.2c0-0.2,0-0.3,0-0.5
				c0-0.5,0.1-1,0.1-1.4c0-0.8,0.1-1.5,0-2.3c0-0.1,0-0.3,0-0.4c0-0.3,0.1-0.5,0.1-0.8c0-0.5,0.1-1,0.1-1.5c0.1-2.5,0-5-0.6-7.4
				c-0.1-0.4-0.2-0.8-0.4-1.2c-0.3-0.8-0.7-1.6-1.1-2.3c-0.2-0.3-0.4-0.6-0.6-0.9c0,0-0.1-0.1-0.1,0c0,0-0.1,0.1,0,0.1
				c0.2,0.5,0.4,1,0.6,1.5c0.2,0.6,0.4,1.1,0.5,1.7c0.1,0.3,0.1,0.5,0.2,0.8c0.1,0.2,0.1,0.5,0.2,0.7c0.1,0.3,0.1,0.7,0.2,1
				c0.1,0.6,0.2,1.3,0.3,1.9c0,0.2,0,0.5,0.1,0.7c-0.1-0.8-0.3-1.6-0.5-2.4c-0.1-0.8-0.3-1.5-0.5-2.3c-0.2-0.7-0.4-1.4-0.7-2.1
				c-0.1-0.2-0.2-0.5-0.3-0.7c-0.1-0.2-0.1-0.3-0.2-0.5c0,0,0-0.1,0-0.2c0,0,0-0.1-0.1-0.1c-0.1-0.1-0.1-0.3-0.2-0.4
				c-0.1-0.2-0.2-0.5-0.3-0.8c-0.1-0.2-0.2-0.5-0.4-0.7c-0.2-0.4-0.5-0.9-0.7-1.3c-0.4-0.7-0.9-1.3-1.3-2c-0.4-0.5-0.9-1-1.3-1.5
				c-0.1-0.1-0.2-0.1-0.3-0.1c-0.3-0.3-0.7-0.6-1-0.8c-0.8-0.6-1.7-1.2-2.6-1.7l-0.5-0.3l-0.8-0.6c-0.2-0.1-0.3-0.2-0.5-0.3
				c0.3,0,0.6,0,0.8,0c-0.1-0.1-0.6-0.1-0.7-0.1c-0.2,0-0.4,0-0.6-0.1c-0.2-0.1-0.5-0.2-0.7-0.3c-0.3-0.1-0.9-0.2-1.1-0.2l-0.1,0
				c-0.1,0-0.1,0.1-0.2,0.1c-0.5-0.1-1.1-0.2-1.6-0.2c-0.3-0.1-0.6-0.2-0.9-0.3c-0.4-0.1-0.8-0.3-1.3-0.4c0,0-0.1,0-0.1,0
				c0,0,0,0.1,0,0.1c0.4,0.2,0.7,0.3,1.1,0.5c-0.7-0.1-1.4-0.2-2.1-0.2c-0.7-0.1-1.5-0.2-2.2-0.2c-1.4-0.3-2.8-0.6-4.1-0.8
				c-2.1-0.3-4.2-0.6-6.3-0.7c-0.6,0-1.3,0-1.9,0c-0.4,0-0.7,0-1.1,0c-0.2,0-0.3,0.1-0.3,0.3c0,0,0,0,0,0h-0.2c-1.4,0-2.8,0-4.2,0.2
				c0-0.1-0.1-0.2-0.2-0.3c0.1-0.1,0.1-0.2,0-0.2c0-0.1-0.1-0.1-0.2-0.1c-0.9-1.4-2.1-2.5-3.4-3.5c0,0,0.1-0.1,0.1-0.1
				c0.1,0,0.1-0.2,0.1-0.3c0-0.1-0.2-0.1-0.3-0.1c-0.1,0-0.3,0.1-0.4,0.1c-0.2-0.1-0.4-0.3-0.6-0.4l-0.4-0.2l-0.5-0.5
				c-0.4-0.3-0.8-0.7-1.2-1c-0.4-0.3-0.9-0.6-1.3-0.9c0,0,0-0.1,0-0.1c-0.1-0.1-0.2-0.1-0.3-0.1c-1.4-0.9-2.8-1.8-4.2-2.6
				c-1-0.5-2-1.1-3.1-1.5c-1.8-0.8-3.7-1.4-5.6-1.9c0,0-0.1,0-0.1,0c0,0,0,0.1,0,0.1c1,0.4,1.9,0.8,2.8,1.2c-0.1,0-0.3-0.1-0.4-0.1
				c-0.3-0.1-0.7-0.1-1-0.2c-0.6-0.1-1.5-0.2-2.1,0C10.1,2.7,9.1,2.2,8,1.8C8,1.8,7.9,1.8,7.9,1.9z M16.4,5.6
				c0.5,0.1,0.9,0.3,1.4,0.5c0.3,0.1,0.7,0.2,1,0.4c0,0,0,0,0,0c-0.1,0-0.2-0.1-0.3-0.1C18,6.2,17.5,6,17,5.9
				c-0.6-0.2-1.1-0.4-1.7-0.5c-0.5-0.1-1-0.3-1.5-0.4c-0.3-0.1-0.6-0.1-1-0.2c0,0,0,0,0,0C14,4.9,15.2,5.2,16.4,5.6z M17.7,6.5
				c0.2,0.1,0.4,0.1,0.6,0.2C18.1,6.9,18,7,17.8,7.1C17.4,7.4,17,7.7,16.5,8c-0.2,0.1-0.3,0.2-0.5,0.3c-0.1,0-0.1,0.1-0.1,0.2
				c0,0.1,0.1,0.1,0.2,0.1c0.4-0.2,0.7-0.4,1.1-0.6c0.4-0.2,0.7-0.5,1.1-0.7c0.1-0.1,0.3-0.2,0.4-0.3c0.5,0.2,1,0.4,1.5,0.6
				C20,7.7,19.8,7.8,19.6,8c-0.7,0.6-1.4,1.2-2,1.9c-0.1,0.1,0,0.2,0,0.2c0.1,0.1,0.2,0,0.2,0c0.1-0.1,0.2-0.3,0.3-0.4
				c0.3-0.3,0.5-0.6,0.8-0.8c0.3-0.3,0.6-0.5,0.9-0.8c0.2-0.2,0.4-0.3,0.6-0.5c0.5,0.2,1,0.4,1.5,0.7c-0.1,0-0.1,0.1-0.2,0.1
				c-0.8,0.5-1.4,1.1-2.3,1.4c-0.1,0-0.2,0.2-0.1,0.3c0,0.1,0.2,0.2,0.3,0.1c0.3-0.1,0.5-0.2,0.8-0.4c0.1,0,0.2-0.1,0.2-0.1
				c0.1-0.1,0.2-0.1,0.3-0.2c0.2-0.1,0.3-0.2,0.5-0.3c0.3-0.2,0.7-0.5,1-0.7c0.4,0.2,0.8,0.4,1,0.5c-0.1,0.1-0.3,0.2-0.4,0.4
				c-0.4,0.4-0.8,0.7-1.1,1.1c-0.3,0.3-0.6,0.6-0.9,0.9c-0.2,0.1-0.3,0.3-0.5,0.4c-0.1,0.1-0.1,0.2,0,0.3c0.1,0.1,0.2,0.1,0.3,0
				c0.5-0.4,0.9-0.8,1.4-1.2c0.4-0.4,0.9-0.8,1.3-1.2c0.2-0.1,0.3-0.3,0.5-0.4c0.1,0.1,0.3,0.1,0.4,0.2l0.4,0.2L25,9.9l0.6,0.4
				c0.3,0.3,0.6,0.6,0.9,0.9c0,0,0,0,0,0c0,0,0,0,0,0c-0.1-0.1-0.3-0.2-0.4-0.3c0,0-0.1,0-0.1,0c0,0,0,0.1,0,0.1
				c0.1,0.1,0.3,0.2,0.4,0.2c-0.7,0.4-1.5,1.1-2,1.7c-0.3,0.3-0.6,0.6-0.9,0.9c-0.2,0.2-0.4,0.4-0.5,0.6c-0.1,0.1-0.2,0.2-0.3,0.3
				c-0.1,0.1,0,0.2,0,0.2c0.1,0.1,0.2,0,0.2,0c0.5-0.6,1-1.2,1.6-1.7c0.7-0.7,1.5-1.3,2.3-1.7c0,0,0,0,0.1,0
				c0.2,0.2,0.4,0.5,0.6,0.8c-0.2,0.2-0.4,0.4-0.7,0.5c-0.2,0.1-0.3,0.3-0.5,0.4c-0.7,0.6-1.3,1.3-1.9,2c-0.6,0.7-1.2,1.4-1.8,2
				c-0.1,0.1-0.1,0.2,0,0.3c0.1,0.1,0.2,0.1,0.3,0c0.4-0.4,0.7-0.8,1.1-1.3c0.5-0.6,1.1-1.2,1.6-1.8c0.4-0.4,0.9-0.8,1.3-1.2
				c0.2-0.2,0.5-0.4,0.7-0.5c0.1,0.1,0.2,0.3,0.2,0.4c0.1,0.2,0.2,0.4,0.3,0.6c0.2,0.5,0.3,0.9,0.4,1.4c-0.4,0.3-0.7,0.6-1.1,0.9
				c-0.2,0.2-0.3,0.3-0.5,0.5c-0.5,0.4-0.9,0.9-1.4,1.3l-1,0.8l0.1-0.2c0.1-0.3,0.3-0.5,0.6-0.6c0,0,0.1-0.1,0.1-0.1
				c0,0-0.1-0.1-0.1-0.1c0,0-0.1,0-0.1,0C25,18,25,18.1,24.8,18.3c-0.1,0.1-0.2,0.3-0.2,0.4c-0.1,0.2-0.2,0.4-0.3,0.5
				c-0.1,0.1,0,0.2,0.1,0.2c0,0,0.1,0,0.1-0.1c0.2-0.2,0.4-0.3,0.7-0.5c0.6-0.4,1.1-0.8,1.6-1.3c0.4-0.3,0.8-0.6,1.1-0.9
				c0.3-0.2,0.6-0.5,0.9-0.8c0,0.2,0,0.4,0.1,0.5c0,0.1,0,0.2,0,0.3c-0.4,0.1-0.8,0.2-1.2,0.3c-0.1,0-0.1,0.1-0.1,0.1
				c0,0.1,0.1,0.1,0.1,0.1c0.4-0.1,0.7-0.2,1.1-0.3c0,0.4,0,0.8-0.1,1.2c0-0.1,0.1-0.3,0.2-0.4c0-0.1,0.1-0.2,0.1-0.3
				c0-0.1,0.1-0.2,0.1-0.3c0-0.1,0.1-0.2,0.1-0.3c0.6-0.1,1.2-0.3,1.8-0.4c0,0,0,0,0,0c-0.1,0.1-0.2,0.1-0.3,0.2
				c-0.2,0.2-0.4,0.4-0.7,0.5c-0.5,0.5-1.1,0.9-1.6,1.4c-0.6,0.5-1.2,1.1-1.7,1.6c-0.3,0.2-0.6,0.5-0.8,0.7c-0.1,0.1-0.1,0.2,0,0.2
				c0.1,0.1,0.2,0.1,0.2,0c0.8-0.7,1.6-1.4,2.3-2.1c1-0.9,1.9-1.7,2.9-2.5c0,0,0,0,0.1,0c0.1,0.3,0.2,0.6,0.2,0.9
				c-0.2,0.1-0.5,0.1-0.7,0.2c-0.2,0-0.3,0.2-0.2,0.3c0,0.2,0.2,0.3,0.3,0.2c0.2-0.1,0.4-0.1,0.7-0.2c0,0,0,0.1,0,0.1
				c0,0.1,0,0.1,0,0.2c-0.5,0.4-1,0.8-1.6,1.2c-1,0.8-2.1,1.7-3.1,2.5c-0.1,0.1-0.1,0.1,0,0.2c0.1,0.1,0.2,0.1,0.2,0
				c1.1-1,2.3-1.9,3.5-2.8c0.3-0.2,0.6-0.4,0.9-0.7c0,0,0,0.1,0,0.1c0,0.1,0,0.2-0.1,0.3c0,0.1-0.1,0.3-0.1,0.4c0,0.1,0,0.1,0.1,0.1
				c0.1,0,0.1,0,0.1-0.1c0.1-0.2,0.1-0.5,0.2-0.7c0-0.1,0-0.2,0-0.3c0.3-0.2,0.5-0.4,0.8-0.6c0,0,0,0,0,0c0.2,0.4,0.3,0.8,0.4,1.2
				c0,0.1,0.1,0.1,0.1,0.2c-0.9,0.9-1.7,1.8-2.6,2.6c-0.3,0.3-0.6,0.6-0.9,0.9c-0.3,0.3-0.6,0.6-0.9,0.9c0,0,0,0.1,0,0.1
				c0,0,0.1,0,0.1,0c0.3-0.3,0.7-0.7,1.1-1c0.4-0.4,0.9-0.8,1.3-1.3c1.2-1.1,2.3-2.2,3.6-3.2c0.4-0.3,0.8-0.6,1.2-0.9
				c0.1-0.1,0.2-0.1,0.3-0.2c1.4,0.2,2.9,0.3,4.4,0.5c-0.7,0.4-1.3,0.9-2,1.3c-1.1,0.7-2.3,1.6-3.3,2.5c-0.6,0.6-1.2,1.1-1.7,1.7
				c-0.2,0.3-0.4,0.5-0.6,0.8c-0.1,0.2-0.3,0.5-0.4,0.7c0,0.1,0,0.2,0,0.2c0.1,0,0.2,0,0.2,0c0.1-0.2,0.3-0.4,0.5-0.6
				c0.8-1,1.7-1.9,2.7-2.7c0.4-0.3,0.7-0.5,1.1-0.8c1.2-0.8,2.4-1.6,3.6-2.4c0.3-0.2,0.6-0.4,0.9-0.6c0.1,0,0.3,0,0.4,0
				c0.8,0.1,1.6,0.2,2.4,0.2c-0.3,0.2-0.6,0.4-0.9,0.6c-1,0.8-2.1,1.5-3.1,2.3c-1.2,0.9-2.4,1.9-3.6,2.8c-0.1,0.1-0.1,0.2,0,0.3
				c0.1,0.1,0.2,0.1,0.3,0c2.6-2.1,5.3-4.1,8.1-6c0,0,0,0,0,0c0.3,0,0.6,0,0.9,0.1c0.5,0,0.9,0.1,1.4,0.1c-0.4,0.3-0.9,0.5-1.3,0.8
				c-0.7,0.4-1.3,0.9-2,1.4c-0.5,0.4-0.9,0.7-1.4,1.1c-1.5,1.3-2.9,2.6-4.3,4c-0.1,0.1-0.1,0.2,0,0.2c0.1,0.1,0.2,0.1,0.2,0
				c1-0.9,1.9-1.8,2.9-2.7c0.6-0.5,1.2-1,1.8-1.5c0.5-0.3,0.9-0.7,1.4-1c0.3-0.2,0.7-0.4,1-0.7c0.1-0.1,0.3-0.2,0.5-0.3
				c0.6-0.4,1.2-0.7,1.8-1.1c0.1-0.1,0.3-0.1,0.4-0.2c0.3,0,0.6,0,0.8,0.1c0.5,0,0.9,0.1,1.4,0.1c0,0,0.1,0,0.1,0.1
				c-0.2,0.1-0.4,0.2-0.5,0.3c-0.5,0.3-0.9,0.6-1.3,0.9c-2.5,1.7-4.6,3.9-6.5,6.2c-0.1,0.1-0.1,0.2,0,0.3c0.1,0.1,0.2,0.1,0.3,0
				c1.5-1.9,3.3-3.7,5.2-5.1c1-0.8,2.1-1.5,3.3-2.1c0,0,0.1,0,0.1-0.1c0.4,0.2,0.8,0.4,1.2,0.6c0.2,0.1,0.5,0.2,0.7,0.3
				c0.2,0.1,0.3,0.1,0.5,0.2c-1.1,0.8-2.3,1.7-3.3,2.6c-1.1,0.9-2.2,1.9-3.3,2.9c-0.5,0.5-1,1-1.5,1.5c-0.1,0.1-0.1,0.2,0,0.3
				c0.1,0.1,0.2,0.1,0.3,0c0.4-0.4,0.7-0.8,1.1-1.1c0.4-0.4,0.8-0.7,1.2-1.1c0.5-0.5,1.1-1,1.7-1.4c1.2-1,2.6-1.9,3.9-2.8
				c0.2-0.2,0.4-0.3,0.7-0.5c0.7,0.3,1.4,0.6,2.2,0.9c-0.1,0.1-0.2,0.1-0.3,0.2c-3.1,1.8-5.9,4-8.2,6.8c-0.1,0.1-0.1,0.2,0,0.3
				c0.1,0.1,0.2,0.1,0.3,0c2.4-2.8,5.3-5,8.6-6.7c0.7-0.4,1.4-0.7,2.1-1c0.1-0.1,0.2-0.2,0.1-0.4c-0.1-0.1-0.2-0.2-0.4-0.1
				c-0.6,0.3-1.2,0.6-1.8,0.9c-0.7-0.3-1.4-0.7-2.1-1c0.1-0.1,0.3-0.2,0.4-0.3c0.1-0.1,0.2-0.3,0.1-0.4s-0.3-0.2-0.4-0.1
				c-0.2,0.2-0.5,0.3-0.7,0.5c-0.5-0.2-1-0.5-1.5-0.7c-0.3-0.1-0.6-0.2-0.9-0.3c0,0,0,0,0.1,0c0.4,0,0.8,0.1,1.2,0.1
				c0.6,0,1.1,0.1,1.7,0.1c0.2,0.1,0.4,0.1,0.6,0.2c1.2,0.3,2.4,0.7,3.6,1.1c0.2,0.1,0.5,0.2,0.7,0.3c0.4,0.2,0.8,0.4,1.1,0.6
				c0.2,0.1,0.3,0.2,0.5,0.3c-0.4,0.3-0.9,0.6-1.3,0.8c-0.6,0.4-1.2,0.7-1.7,1.1c-2.6,1.6-5.3,3.2-7.8,5c-0.1,0.1-0.1,0.2,0,0.2
				c0.1,0.1,0.2,0.1,0.2,0c1.3-0.9,2.6-1.8,3.9-2.6c1.2-0.8,2.5-1.5,3.8-2.2c0.8-0.5,1.6-0.9,2.4-1.4c0.4-0.2,0.7-0.4,1.1-0.7
				c0.2,0.1,0.5,0.3,0.7,0.4c0.2,0.1,0.4,0.2,0.6,0.4c-2.8,1.5-5.3,3.6-7.6,5.8c-0.1,0.1-0.1,0.2,0,0.3c0.1,0.1,0.2,0.1,0.3,0
				c0.2-0.2,0.5-0.5,0.7-0.7c0.7-0.7,1.4-1.3,2.1-1.9c1.2-0.9,2.4-1.8,3.7-2.6c0.4-0.2,0.8-0.4,1.2-0.7c0.8,0.6,1.6,1.2,2.4,1.9
				c-0.3,0.1-0.7,0.2-1,0.4c-0.3,0.2-0.6,0.3-1,0.5c-0.4,0.2-0.8,0.5-1.2,0.7c-0.4,0.2-0.7,0.5-1.1,0.8c-0.8,0.6-1.5,1.2-2.3,1.9
				c-1,0.9-2.1,1.8-3.1,2.8c-0.1,0.1-0.1,0.2,0,0.3c0.1,0.1,0.2,0.1,0.3,0c0.9-0.9,1.9-1.7,2.9-2.5c0.8-0.7,1.6-1.4,2.5-2
				c0.3-0.2,0.7-0.5,1-0.7c0.2-0.1,0.4-0.3,0.6-0.4c0.3-0.1,0.5-0.3,0.8-0.4c0.2-0.1,0.3-0.2,0.5-0.2c0.2-0.1,0.4-0.2,0.5-0.3
				c0.1-0.1,0.3-0.1,0.4-0.2c0.1-0.1,0.2-0.1,0.3-0.2c0,0,0.1,0,0.1-0.1c0.2,0.2,0.4,0.4,0.6,0.7c0.2,0.2,0.3,0.4,0.5,0.5
				c-1,0.4-2,1-2.9,1.7c-0.5,0.3-1,0.7-1.4,1c-1.3,1-2.5,2.2-3.7,3.4c-0.1,0.1-0.1,0.2,0,0.3s0.2,0.1,0.3,0c0.2-0.3,0.5-0.5,0.8-0.8
				c0.2-0.2,0.5-0.5,0.7-0.7c0.3-0.3,0.6-0.5,0.9-0.8c0.8-0.7,1.6-1.3,2.5-1.9c1-0.7,2.1-1.3,3.3-1.8c0.1,0.2,0.1,0.3,0.2,0.5
				c0.2,0.6,0.4,1.3,0.5,1.9c0,0,0,0,0,0c-0.2-0.3-0.5-0.5-0.8-0.7c-0.2-0.1-0.4-0.3-0.5-0.4c0.1,0.2,0.3,0.4,0.4,0.6
				c0.2,0.2,0.3,0.5,0.5,0.8c-0.2,0.1-0.3,0.2-0.5,0.3c-0.5,0.3-1,0.6-1.5,0.9c-0.8,0.5-1.6,1.2-2.3,1.9c-0.3,0.3-0.6,0.6-0.9,0.9
				c-0.3,0.4-0.7,0.8-1,1.3c-0.1,0.1,0,0.2,0.1,0.3c0.1,0.1,0.2,0,0.3-0.1c0.1-0.2,0.3-0.4,0.4-0.6c0.3-0.4,0.6-0.8,1-1.2
				c0.3-0.3,0.5-0.5,0.8-0.7c1.1-0.9,2.3-1.7,3.6-2.4c0.1,0,0.2-0.1,0.3-0.1c0,0,0,0.1,0.1,0.1c0.1,0.1,0.2,0.3,0.3,0.4
				c0,0,0,0.1,0,0.1c0,0.1,0.1,0.2,0.2,0.2c0.1,0.2,0.3,0.4,0.4,0.6c0.1,0.1,0.2,0.2,0.2,0.4c-0.3,0.2-0.6,0.3-0.9,0.5
				c-1.1,0.7-2,1.5-2.9,2.4c-1,1-1.9,1.9-2.9,2.8c-0.1,0.1-0.1,0.2,0,0.3c0.1,0.1,0.2,0.1,0.3,0c0.2-0.2,0.5-0.4,0.7-0.6
				c0.4-0.4,0.8-0.8,1.2-1.2c1.4-1.4,2.9-2.9,4.8-3.7c0.2,0.4,0.4,0.9,0.6,1.4c0.1,0.3,0.2,0.6,0.3,0.9c0,0,0,0.1,0.1,0.1
				c0,0,0,0,0,0C70,35.8,69,36.7,68,37.6c-0.3,0.3-0.6,0.5-0.9,0.8c-0.1,0.1-0.3,0.2-0.4,0.3c-0.2,0.2-0.5,0.4-0.8,0.5
				c-0.1,0.1-0.1,0.2-0.1,0.3c0.1,0.1,0.2,0.1,0.3,0.1c0.1-0.1,0.3-0.2,0.4-0.3c0.4-0.3,0.7-0.5,1.1-0.8c1-0.9,2.1-1.8,3.2-2.6
				c0.1-0.1,0.3-0.2,0.4-0.3c0.1,0.3,0.1,0.6,0.1,0.9c0.1,0.7,0.2,1.4,0.3,2.1c0,0.2,0,0.4,0,0.6c-0.2,0.2-0.5,0.5-0.7,0.7
				c-0.4,0.3-0.8,0.7-1.2,1c-0.6,0.5-1.3,1-2,1.4c-0.1,0.1-0.1,0.2-0.1,0.3c0.1,0.1,0.2,0.1,0.3,0.1c0.1-0.1,0.2-0.1,0.3-0.2
				c0.1-0.1,0.2-0.1,0.3-0.2c0.4-0.2,0.7-0.5,1-0.8c0.1-0.1,0.3-0.2,0.4-0.3c0.4-0.4,0.9-0.7,1.3-1.1c0.1-0.1,0.2-0.2,0.3-0.2
				c0,0.4,0,0.8,0,1.2c0,0.5,0,1.1,0,1.6c-0.5,0.4-1,0.8-1.5,1.2c-0.5,0.4-0.9,0.8-1.4,1.1c-0.4,0.3-0.7,0.6-1.1,0.8
				c-0.1,0.1-0.1,0.2,0,0.3c0.1,0.1,0.2,0.1,0.3,0c0.2-0.1,0.4-0.3,0.6-0.4c0.2-0.1,0.4-0.3,0.5-0.4c0.5-0.4,0.9-0.8,1.4-1.1
				c0.4-0.3,0.7-0.6,1.1-0.8c0,0,0.1-0.1,0.1-0.1c0,0.1,0,0.2,0,0.3c0,0.8-0.1,1.7-0.3,2.6c-0.2,1.5-0.5,3-0.9,4.4
				c0,0.1,0,0.1-0.1,0.2c-0.2,0.2-0.3,0.4-0.5,0.5c-0.1,0.1-0.1,0.2-0.2,0.2c-0.2,0.2-0.4,0.4-0.6,0.6c-0.2,0.2-0.5,0.4-0.7,0.5
				c0,0,0,0,0,0c0-0.2,0-0.4-0.1-0.6c0-0.1,0-0.1-0.1-0.1c-0.1,0-0.1,0-0.1,0.1c-0.1,0.2-0.2,0.4-0.3,0.6c-0.1,0.1-0.1,0.3-0.1,0.5
				c-0.1,0.2-0.1,0.5-0.2,0.7c-0.1,0.4-0.2,0.8-0.3,1.2c-0.2,1-0.5,1.9-0.8,2.9c-0.2,0.6-0.4,1.2-0.6,1.8c0,0.1,0,0.3,0.1,0.3
				c0.1,0,0.3,0,0.3-0.1c0.3-0.9,0.6-1.8,0.9-2.7c0.3-0.8,0.5-1.6,0.7-2.4c0.1-0.4,0.2-0.9,0.4-1.3c0-0.1,0-0.2,0.1-0.3
				c0.1,0.1,0.2,0.1,0.3,0c0.3-0.2,0.6-0.4,0.8-0.6c0.2-0.2,0.5-0.4,0.7-0.6c-0.2,0.7-0.5,1.5-0.8,2.1c-0.2,0.4-0.4,0.9-0.5,1.3
				c0,0.1,0,0.2,0.1,0.2c-0.2,0.5-0.5,0.9-0.7,1.4c-0.9,1.6-1.9,3.2-3,4.6c-0.5,0.5-1.1,1.1-1.7,1.5c-0.5,0.4-0.9,0.8-1.4,1.1
				c-0.2,0.1-0.4,0.2-0.6,0.3c-0.7,0.3-1.5,0.6-2.3,0.9c-0.3,0.1-0.5,0.2-0.8,0.3c0.4-0.3,0.9-0.6,1.3-0.9c0.3-0.2,0.6-0.5,0.9-0.7
				c0,0,0-0.1,0-0.1c0,0-0.1,0-0.1,0c-0.4,0.2-0.7,0.5-1.1,0.7c-0.3,0.2-0.6,0.3-0.9,0.5c-0.4,0.2-0.9,0.4-1.4,0.7
				c-0.8,0.4-1.6,0.7-2.4,1c-0.1,0-0.2,0.1-0.3,0.1c-1.7,0.4-3.4,0.7-5.1,0.9c-0.5,0-1,0.1-1.5,0.1c-1.2,0.1-2.4,0.2-3.6,0.3
				c-1.1,0.1-2.2,0.1-3.4,0.2c-0.8,0-1.6,0-2.4,0c-1.3-0.1-2.5-0.2-3.7-0.4c-0.2,0-0.3,0-0.5-0.1c0.4,0,0.8-0.1,1.2-0.2
				c1-0.1,2-0.3,2.9-0.6c0.7-0.2,1.3-0.4,1.9-0.6c0.3-0.1,0.7-0.3,1-0.4c0,0,0,0,0-0.1c0,0,0,0-0.1,0c-0.4,0.1-0.7,0.1-1.1,0.2
				c-0.9,0.2-1.9,0.3-2.8,0.5c-0.9,0.2-1.8,0.3-2.7,0.4c-0.7,0.1-1.5,0.2-2.2,0.2C31.9,67,31.4,67,31,67c-1.2-0.2-2.4-0.5-3.6-0.7
				c-0.8-0.2-1.6-0.4-2.4-0.6c-0.4-0.1-0.7-0.2-1.1-0.3c-0.2-0.1-0.4-0.1-0.6-0.2c-0.9-0.3-1.8-0.5-2.7-0.8c-0.1,0-0.2,0-0.2,0.1
				c0,0.1,0,0.2,0.1,0.2c1.3,0.4,2.5,0.8,3.8,1.1c1,0.3,2,0.5,3,0.8c0.6,0.1,1.2,0.3,1.7,0.4c-1.1,0-2.2-0.1-3.3-0.2
				c-1.1-0.1-2.2-0.2-3.3-0.4c-0.3-0.1-0.7-0.1-1-0.2c-0.7-0.1-1.3-0.3-2-0.4c-0.6-0.1-1.3-0.3-1.9-0.5c-0.6-0.2-1.2-0.4-1.8-0.6
				c-0.3-0.1-0.5-0.2-0.8-0.3c-0.1-0.1-0.3-0.2-0.5-0.3c-0.8-0.5-1.5-0.9-2.3-1.5c-0.2-0.1-0.4-0.3-0.7-0.5c0-0.1,0-0.1-0.1-0.2
				c-0.1-0.1-0.3-0.3-0.4-0.4c-0.5-0.5-1-1-1.5-1.5c-0.4-0.5-0.8-0.9-1.2-1.4c0,0,0.1,0,0.1-0.1c0.1-0.1,0.1-0.3,0-0.4
				C8,58,7.8,57.7,7.6,57.5c-0.4-0.4-0.7-0.9-1-1.4c-0.3-0.4-0.5-0.7-0.7-1.1c-0.3-0.5-0.6-1-0.8-1.5c0,0,0,0,0-0.1c0,0,0,0,0,0
				C5,53.2,5,53,4.9,52.8C5,53,5.1,53.1,5.2,53.3c0.3,0.6,0.6,1.2,1,1.8c0.6,1,1.2,1.9,1.9,2.8c0,0,0.1,0.1,0.1,0c0,0,0.1-0.1,0-0.2
				C8,57.4,7.8,57,7.5,56.6c-0.5-0.7-1-1.5-1.4-2.3c-0.4-0.8-0.8-1.6-1.1-2.4c-0.4-0.9-0.7-1.9-1-2.8c-0.1-0.4-0.3-0.9-0.4-1.3
				c-0.2-0.8-0.4-1.6-0.5-2.4c-0.1-0.3-0.1-0.7-0.2-1c0-0.5,0-1.1,0-1.6c0-1,0.2-2,0.4-3c0.1-0.7,0.3-1.4,0.5-2.1
				c0.1-0.3,0.2-0.7,0.3-1c0.1-0.4,0.2-0.7,0.3-1.1c0.1-0.4,0.3-0.8,0.4-1.2c0.1-0.3,0.3-0.6,0.4-1c1-2.3,2.2-4.5,3.5-6.6
				c0,0,0,0.1,0.1,0.1c0.1,0.1,0.2,0,0.2,0c1.4-1.6,2.9-3,4.5-4.3c0.6-0.5,1.2-1,1.7-1.5c0.1-0.1,0.1-0.2,0-0.3s-0.2-0.1-0.3,0
				c-1.1,1-2.2,2-3.3,3c-1,0.9-1.9,1.8-2.8,2.8C9,26.7,9,26.6,9.1,26.5c1-1.5,2-3,3.2-4.5c-0.2,0.1-0.5,0.5-0.7,0.7
				c-0.4,0.5-0.9,0.9-1.3,1.4c-0.8,0.9-1.5,1.8-2.1,2.8c-0.6,0.9-1.1,1.8-1.6,2.7c-0.2,0.3-0.3,0.6-0.5,0.9
				c-0.1,0.3-0.3,0.6-0.4,0.9c-0.3,0.6-0.6,1.2-0.9,1.9c-0.4,0.9-0.7,1.8-1,2.7c-0.5,1.6-1,3.4-1.2,5.1c0-0.2,0-0.3,0-0.5
				c0-0.9,0-1.8,0.1-2.6c0-0.3,0-0.5,0.1-0.8c0-0.2,0.1-0.5,0.1-0.7C2.9,36,3,35.7,3,35.3c0.2-1,0.5-2,0.8-3
				c0.3-0.7,0.5-1.4,0.8-2.2C4.8,30,4.9,29.7,5,29.5c0,0,0,0,0,0c0.2-0.3,0.4-0.6,0.6-0.9c0.2-0.3,0.4-0.7,0.6-1
				c0.7-1.1,1.6-2.1,2.5-3c0.2-0.2,0.3-0.3,0.5-0.5c0.2-0.1,0.3-0.3,0.5-0.4c1.3-1.1,2.8-2,4.3-2.7c0.1-0.1,0.2-0.2,0.1-0.3
				c-0.1-0.1-0.2-0.2-0.3-0.1c-0.8,0.4-1.5,0.8-2.2,1.2c0-0.1,0-0.1-0.1-0.2c0,0-0.1-0.1-0.2-0.1c0.4-0.3,0.8-0.6,1.2-0.9
				c1.7-0.5,3.4-0.8,5.2-0.8c0,0.1,0.1,0.2,0.2,0.2c0.1,0,0.2,0,0.3-0.1c0,0,0,0,0-0.1c0.3,0,0.7,0,1,0c0,0.1,0.1,0.2,0.2,0.2
				c0.1,0,0.2-0.1,0.2-0.2c0,0,0,0,0-0.1c0.1-0.1,0.1-0.1,0.1-0.2c0-0.1,0-0.2-0.1-0.2c0-0.4-0.1-0.8-0.1-1.1
				c-0.2-1.6-0.6-3.3-1.2-4.8c-0.2-0.6-0.4-1.1-0.7-1.7c-0.1-0.3-0.2-0.6-0.4-0.8c-0.5-0.9-1-1.7-1.5-2.5c-0.2-0.3-0.4-0.6-0.6-0.8
				c-0.1-0.1-0.2-0.2-0.3-0.3c-0.2-0.3-0.4-0.5-0.6-0.8c-0.3-0.3-0.6-0.6-0.8-1c0,0-0.1-0.1-0.1-0.1C14.8,5.6,16.2,6,17.7,6.5z
				 M19.2,6.6L19.2,6.6C19.2,6.6,19.2,6.6,19.2,6.6C19.1,6.6,19.1,6.6,19.2,6.6C19.2,6.6,19.2,6.6,19.2,6.6z M23.2,11.9
				c-0.4,0.3-0.8,0.7-1.2,1c-0.2,0.2-0.5,0.4-0.7,0.6c-0.1,0.1-0.1,0.2,0,0.2c0.1,0.1,0.2,0.1,0.2,0c0.2-0.1,0.3-0.2,0.5-0.4
				c0.2-0.2,0.5-0.4,0.7-0.6c0.7-0.6,1.5-1.1,2.2-1.7c0.1-0.1,0.2-0.2,0.3-0.3c0.1-0.1,0.1-0.2,0-0.3c-0.1-0.1-0.2-0.1-0.3,0
				C24.4,10.9,23.8,11.4,23.2,11.9z M28.7,12.7l1.1,1c0.1,0.1,0.2,0.2,0.3,0.4c0,0,0,0,0,0.1c0,0,0,0,0,0c-0.4-0.3-0.8-0.7-1.2-1
				c0-0.1-0.1-0.1-0.1-0.2L28.7,12.7z M29.7,14.4c-0.1,0.1-0.2,0.2-0.3,0.3c0-0.2-0.1-0.3-0.1-0.5c0-0.1-0.1-0.2-0.1-0.3
				c0,0,0-0.1,0-0.1C29.4,14,29.5,14.2,29.7,14.4z M30.4,14.5C30.4,14.5,30.4,14.5,30.4,14.5C30.4,14.5,30.4,14.5,30.4,14.5
				C30.4,14.5,30.4,14.5,30.4,14.5z M31.3,16.1C31.3,16.2,31.4,16.2,31.3,16.1C31.4,16.2,31.3,16.2,31.3,16.1
				c-0.7,0.2-1.3,0.3-1.9,0.5c0.1-0.4,0.1-0.8,0.1-1.2c0,0,0-0.1,0-0.1c0.2-0.2,0.4-0.4,0.6-0.5C30.5,15.2,30.9,15.7,31.3,16.1z
				 M37.6,16.1C37.5,16.1,37.5,16.1,37.6,16.1c-0.4,0.2-0.6,0.4-0.9,0.6c-0.3,0-0.6,0.1-0.9,0.1c-0.2,0-0.3,0-0.5,0.1
				c-0.1,0-0.3,0-0.4-0.1c0.1-0.1,0.1-0.2,0-0.3c-0.1-0.1-0.2-0.1-0.3,0c-0.1,0.1-0.2,0.2-0.3,0.2c-0.2,0-0.5-0.1-0.7-0.1
				c-0.1-0.2-0.1-0.3-0.2-0.5c1.1-0.1,2.1-0.1,3.2-0.1C36.8,16.1,37.2,16.1,37.6,16.1z M39.1,16.2c1.5,0.1,3,0.2,4.5,0.4
				c-0.1,0-0.1,0-0.2,0c-1.3,0-2.6-0.1-3.8,0c-0.6,0-1.2,0.1-1.8,0.1c0.1-0.1,0.2-0.1,0.3-0.2c0.2-0.1,0.3-0.2,0.5-0.3
				C38.7,16.2,38.9,16.2,39.1,16.2z M18.7,16.4c0.1,0.3,0.1,0.7,0.1,1c0,0.3,0,0.5,0,0.8c-0.1,0-0.2,0-0.2,0c0-0.3,0.1-0.6,0.1-0.8
				c0-0.4,0-0.7,0-1.1C18.7,16.3,18.7,16.4,18.7,16.4z M32.2,16.9c0.1,0.1,0.2,0.2,0.3,0.2c0,0.1,0.1,0.1,0.1,0.2c0,0,0,0,0,0
				c-0.1,0-0.3,0.1-0.4,0.1c0,0,0-0.1,0-0.1c0-0.2-0.1-0.4-0.1-0.6C32.1,16.8,32.1,16.9,32.2,16.9z M33.9,17.1
				c-0.1,0-0.1,0.1-0.2,0.1c0,0,0,0,0,0c0-0.1,0-0.1-0.1-0.2C33.7,17,33.8,17,33.9,17.1z M44.6,17.3c0.4,0,0.8,0.1,1.1,0.1
				c-0.1,0-0.1,0.1-0.2,0.1c-0.1,0-0.2,0-0.3,0c-1,0-2-0.1-3-0.1c0,0,0-0.1,0-0.1c-0.1-0.1-0.2-0.1-0.3-0.1c-0.1,0-0.1,0.1-0.2,0.1
				c-0.1,0-0.3,0-0.4,0c-0.9,0-1.8-0.1-2.7-0.1c0.4,0,0.9,0,1.3,0C41.5,17.1,43.1,17.2,44.6,17.3z M34.1,18.9
				C34,19,34,19.1,33.9,19.1c0-0.1,0-0.2,0-0.2c0-0.4,0-0.8-0.1-1.2c0.3-0.1,0.7-0.1,1-0.2c0.3-0.1,0.6-0.1,1-0.1
				C35.2,17.9,34.6,18.4,34.1,18.9z M48.1,17.7c-0.3,0-0.7,0-1-0.1c-0.2,0-0.5,0-0.7,0c0,0,0.1-0.1,0.1-0.1
				C47,17.6,47.6,17.6,48.1,17.7z M32.2,18.2c0-0.1,0-0.1,0-0.2c0.1,0,0.2,0,0.3-0.1C32.5,18.1,32.3,18.2,32.2,18.2z M56.6,18.3
				c0.3,0,0.6,0,0.9,0.1c0.4,0.2,0.7,0.4,1.1,0.5c0.1,0.1,0.3,0.2,0.4,0.2c-0.6-0.1-1.2-0.3-1.8-0.4c-0.5-0.2-1-0.4-1.6-0.5
				C55.9,18.2,56.3,18.2,56.6,18.3z M19.2,19.1c-0.3,0-0.5,0-0.8,0c0.1-0.2,0.1-0.4,0.1-0.6c0.1,0,0.3,0,0.4,0c0,0,0.1,0,0.1-0.1
				c0,0,0,0,0.1,0C19.1,18.7,19.1,18.9,19.2,19.1z M17.9,19.1C17.9,19.1,17.9,19.1,17.9,19.1c-0.5,0.1-0.9,0.1-1.3,0.2
				c-1,0.1-1.9,0.3-2.8,0.5c1.1-0.6,2.3-1.1,3.6-1.2c0.2,0,0.4,0,0.6,0C18,18.7,18,18.9,17.9,19.1z M59.9,19
				c0.5,0.2,1.1,0.5,1.6,0.7c0.5,0.3,1,0.6,1.5,0.9c-0.1,0-0.2,0.1-0.2,0.1c0,0,0,0,0,0c-0.3-0.2-0.7-0.5-1-0.7
				c-0.5-0.3-1-0.6-1.6-0.9C60.1,19.1,60,19,59.9,19C59.9,19,59.9,19,59.9,19z M59.6,19.5c0.1,0.1,0.2,0.1,0.3,0.2
				C59.8,19.6,59.7,19.6,59.6,19.5c-0.1,0-0.2,0-0.3,0C59.4,19.5,59.5,19.5,59.6,19.5z M15.9,21.6c-0.6,0.5-1.2,1-1.8,1.5
				c-0.4,0.3-0.8,0.7-1.1,1c-0.2,0.2-0.3,0.4-0.5,0.6c-0.1,0.1-0.1,0.2-0.2,0.3c0,0.1,0,0.2,0.1,0.2c0.1,0,0.2,0,0.2-0.1
				c0.1-0.2,0.2-0.4,0.3-0.5c0.3-0.5,0.8-0.9,1.3-1.3c0.6-0.5,1.3-1,1.9-1.5c0.2-0.2,0.5-0.4,0.7-0.6c0.2-0.2,0.4-0.4,0.6-0.6
				c0.1-0.1,0.2-0.2,0.3-0.3c0.1-0.1,0.1-0.2,0-0.3c-0.1-0.1-0.2-0.1-0.3,0C17,20.7,16.5,21.2,15.9,21.6z M64.3,21.4
				c0.2,0.1,0.4,0.3,0.7,0.5c-0.5-0.3-1.1-0.6-1.6-0.8c0,0-0.1,0-0.1-0.1c0.1,0,0.1-0.1,0.2-0.1C64,21.2,64.1,21.3,64.3,21.4z
				 M65.4,22.2c0.2,0.1,0.4,0.3,0.5,0.4c0.7,0.9,1.4,1.9,2.1,2.9c0,0,0-0.1-0.1-0.1c-0.2-0.3-0.4-0.5-0.6-0.8
				c-0.3-0.3-0.5-0.6-0.8-0.8c-0.3-0.3-0.6-0.6-0.9-0.8c-0.2-0.2-0.4-0.4-0.6-0.6c0,0,0.1-0.1,0.1-0.1c0-0.1,0-0.2,0-0.3
				C65.2,22,65.3,22.1,65.4,22.2z M10.2,22.6c-0.2,0.1-0.4,0.3-0.6,0.4c0.3-0.3,0.5-0.5,0.8-0.8c0.2-0.2,0.4-0.3,0.6-0.5
				C10.8,22,10.5,22.3,10.2,22.6z M19.1,22.4c-0.2,0.1-0.4,0.2-0.6,0.3c-0.5,0.3-1,0.7-1.5,1c-0.5,0.3-0.9,0.7-1.4,0.9
				c-0.1,0-0.2,0.1-0.3,0.1c-0.1,0-0.2,0.1-0.3,0.1c-0.1,0.1-0.2,0.1-0.4,0.1c-0.1,0-0.1,0.1-0.1,0.1c0,0.1,0.1,0.1,0.1,0.1
				c0.1-0.1,0.2-0.1,0.4-0.1c0.1,0,0.2-0.1,0.3-0.2c0.2-0.1,0.4-0.2,0.6-0.3c0.2-0.1,0.4-0.2,0.5-0.4c0.6-0.4,1.1-0.8,1.7-1.2
				c0.2-0.1,0.3-0.2,0.5-0.3c0.1-0.1,0.3-0.1,0.5-0.2c0.2-0.1,0.4-0.2,0.5-0.3c0,0,0,0,0-0.1c0,0,0,0-0.1,0
				C19.5,22.2,19.3,22.3,19.1,22.4z M69.3,29.1c0,0-0.1,0-0.1,0.1c0-0.2-0.1-0.3-0.1-0.5C69.2,28.8,69.3,29,69.3,29.1z M69.9,31.1
				C69.9,31,70,31,69.9,31.1c0.1-0.2,0-0.4,0-0.5c0.2,0.5,0.4,0.9,0.5,1.4c0,0.1,0.1,0.3,0.1,0.4c-0.2-0.4-0.3-0.7-0.5-1
				c-0.2-0.4-0.4-0.7-0.6-1c0-0.1-0.1-0.3-0.1-0.4c0.1,0,0.1-0.1,0.2-0.1C69.7,30.1,69.8,30.6,69.9,31.1z M2.5,35.5
				c0,0,0-0.3,0.1-0.6C2.5,35.2,2.5,35.3,2.5,35.5z M48.2,38.8l-0.4,0.5c-0.2,0.1-0.3,0.3-0.4,0.4c-1.1,1.3-1.4,3.1-1,4.6
				c0.4,1.5,1.5,2.6,2.9,3.1c0.8,0.3,1.4,0.3,2.2,0.2c0.6-0.1,1.2-0.4,1.7-0.8c0.2-0.1,0.3-0.2,0.5-0.4c0.2-0.2,0.3-0.3,0.5-0.5
				c0.3-0.4,0.6-0.7,0.8-1.2c0.3-0.5,0.5-1.1,0.6-1.7c0.2-0.1,0.4-0.2,0.6-0.3c0.4-0.2,0.7-0.3,1-0.6c0.1,0,0.1-0.1,0.1-0.2
				c0-0.1-0.1-0.1-0.2-0.1c-0.1,0-0.3,0-0.5,0.1c-0.1,0-0.3,0.1-0.4,0.2c-0.2,0.1-0.4,0.2-0.6,0.3c0.1-1.2-0.1-2.5-0.8-3.4
				c-0.3-0.4-0.6-0.7-1-1c-0.3-0.2-0.7-0.4-1-0.5C51.1,37.1,49.3,37.6,48.2,38.8z M37.6,37.5c-0.2,0-0.4,0.1-0.6,0.1
				c-0.2,0.1-0.4,0.2-0.7,0.3c-0.8,0.4-1.4,1.2-1.8,1.9c-0.7,1.1-1,2.8-0.9,4.1c0.1,0.4,0.1,0.8,0.3,1.2c0.2,0.7,0.7,1.4,1.3,1.9
				c0.1,0.1,0.3,0.2,0.4,0.3c0.1,0.1,0.4,0,0.6,0c0.4,0,0.7,0,1-0.2l0.4-0.2l0.2,0c0.3,0,0.5,0,0.8,0c0.1,0,0.3-0.1,0.5-0.1
				c0.1,0,0.2-0.1,0.3-0.1c0.1,0,0.2-0.1,0.3-0.1c0,0,0.1,0,0.1-0.1c0.1-0.1,0.3-0.1,0.4-0.2c0.3-0.2,0.5-0.3,0.7-0.6
				c0.1-0.1,0.2-0.2,0.2-0.2c0.1-0.1,0.2-0.2,0.2-0.3c0.2-0.2,0.4-0.5,0.5-0.8c0.5-1.1,0.6-2.3,0.4-3.5c-0.1-0.4-0.3-1-0.5-1.3
				c-0.1-0.2-0.2-0.3-0.3-0.5c-0.2-0.2-0.3-0.4-0.5-0.6C40,37.8,38.7,37.3,37.6,37.5z M22.9,37.8c-0.2,0.1-0.3,0.2-0.5,0.3l-0.2,0.1
				l-0.1,0c-0.6,0.2-1.2,0.7-1.6,1.2c-0.3,0.3-0.5,0.7-0.6,1.1c-0.2,0.5-0.3,1-0.3,1.5l0,0.2c0,0.2,0,0.3,0,0.5
				c0,0.4,0.1,0.8,0.2,1.2c0,0.1,0.1,0.2,0.1,0.3c0,0.1,0.1,0.2,0.1,0.3c0.2,0.4,0.4,0.7,0.7,1c1.1,1.1,2.6,1.6,4.1,1.4
				c0.7-0.1,1.2-0.4,1.7-0.7l0.3-0.2l0.1,0c0.2-0.1,0.4-0.3,0.5-0.4c0.3-0.3,0.6-0.7,0.9-1.1c0.3-0.6,0.5-1.1,0.5-1.7
				c0.1-0.5,0-1-0.1-1.5c-0.1-0.6-0.3-1-0.6-1.5c-0.5-0.7-1.1-1.2-1.9-1.5l-0.1,0c-0.6-0.4-1.4-0.7-2.2-0.6
				C23.5,37.6,23.2,37.7,22.9,37.8z M26.1,38.2L26.1,38.2c0.2,0.1,0.4,0.3,0.6,0.4L26.1,38.2z M38.8,38.3l0.4,0.1l0.3,0.2
				c0.3,0.2,0.6,0.3,0.9,0.6c0.3,0.2,0.5,0.6,0.7,0.9c0.1,0.1,0.1,0.3,0.2,0.4l0,0.1l-0.1-0.2c-0.6-0.8-1.4-1.3-2.4-1.5
				c-0.2,0-0.4-0.1-0.6-0.1c-0.5,0-1,0.1-1.5,0.2c-0.2,0.1-0.3,0.1-0.4,0.2c-0.2,0.1-0.4,0.2-0.6,0.3l-0.1,0.1
				c0.7-1,1.7-1.6,2.9-1.5C38.5,38.3,38.7,38.3,38.8,38.3z M51.8,38.7c-0.1,0.1-0.3,0.2-0.4,0.3c-1,0.7-2,1.5-2.9,2.4
				c-0.1,0.1-0.3,0.2-0.4,0.4c0-0.1,0-0.3,0-0.5c0-0.3,0-0.6,0.2-0.9c0.1-0.2,0.2-0.3,0.3-0.5c0-0.1,0.1-0.2,0.2-0.3
				c0.1-0.1,0.3-0.3,0.4-0.4l0.1-0.1l0.2-0.1c0.2,0,0.4-0.1,0.7-0.1c0.1,0,0.3-0.1,0.2-0.3l0-0.1c0.3-0.1,0.6-0.1,0.9,0
				C51.4,38.6,51.6,38.6,51.8,38.7z M50.4,38.5L50.4,38.5L50,38.6C50.1,38.6,50.2,38.5,50.4,38.5C50.4,38.5,50.4,38.5,50.4,38.5z
				 M50.4,38.5L50.4,38.5C50.4,38.5,50.4,38.5,50.4,38.5z M24.7,38.8l0.4,0l0.4,0.1l0.4,0.3c0.7,0.6,1.2,1.4,1.5,2.2
				c0,0-0.1,0-0.1,0c-0.1,0.1-0.2,0.2-0.3,0.2c-0.1,0.1-0.2,0.2-0.4,0.3c-0.3,0.3-0.7,0.5-1,0.8c-0.1,0.1-0.2,0.2-0.4,0.3
				c-0.8,0.7-1.6,1.5-2.3,2.3c-0.1,0.1,0,0.2,0,0.2c0.1,0.1,0.2,0,0.2,0c0.1-0.2,0.3-0.3,0.5-0.5c0.5-0.5,1.1-1.1,1.7-1.6
				c0.5-0.4,0.9-0.8,1.4-1.2c0.2-0.2,0.4-0.3,0.6-0.5c0,0.1,0,0.2,0.1,0.4c0,0.3,0,0.6,0,0.9c0,0.2-0.1,0.4-0.1,0.6l-0.2,0.6
				L27,44.6c-0.2,0.3-0.4,0.4-0.6,0.7c-0.1,0.1-0.2,0.2-0.3,0.2c-0.1,0.1-0.2,0.1-0.3,0.2c-0.2,0.1-0.3,0.2-0.5,0.2
				c0.2-0.2,0.3-0.5,0.5-0.7c0,0,0-0.1,0-0.1c0,0-0.1,0-0.1,0c-0.2,0.3-0.4,0.6-0.6,0.9c0,0,0,0-0.1,0c-0.2,0-0.3,0.1-0.5,0.1
				l-0.4,0l-0.4,0c-0.8-0.1-1.6-0.4-2.3-1l-0.5-0.5l-0.3-0.4L20.6,44l-0.1-0.1c0,0,0-0.1-0.1-0.1c0.1-0.2,0.2-0.3,0.3-0.5
				c0,0.1,0.1,0.2,0.1,0.2c0,0.1,0.1,0.1,0.1,0.2c-0.1-0.2-0.1-0.3-0.2-0.5c0.9-1.1,2.1-1.9,3.2-2.7c0.5-0.3,0.9-0.7,1.4-1
				c0.1-0.1,0.1-0.2,0-0.3c-0.1-0.1-0.2-0.1-0.3,0c-0.2,0.2-0.4,0.4-0.7,0.5c-0.2,0.2-0.4,0.3-0.6,0.4c-0.9,0.7-1.9,1.4-2.7,2.3
				c-0.1,0.1-0.3,0.3-0.4,0.4c0-0.3,0-0.6,0.1-0.9c0.2-0.3,0.5-0.6,0.8-0.9c0.4-0.4,0.8-0.8,1.2-1.3c0.1-0.1,0.1-0.2,0-0.3
				c-0.1-0.1-0.2-0.1-0.3,0c-0.1,0.1-0.2,0.2-0.3,0.3c-0.1,0.1-0.2,0.3-0.4,0.4c-0.3,0.3-0.5,0.6-0.8,0.9c0.2-0.6,0.5-1,0.9-1.5
				l0.1-0.1l0.1-0.1c0.2-0.1,0.4-0.2,0.7-0.3c0.3-0.1,0.8-0.3,1.1-0.3c0.1,0,0.2,0,0.3,0C24.5,38.8,24.6,38.8,24.7,38.8z M52.3,39
				l0.2,0.1l0.2,0.2c0.4,0.4,0.7,0.7,1,1.2c0.5,0.8,0.6,1.8,0.5,2.8c-0.2,0.2-0.5,0.3-0.7,0.5c-0.5,0.3-1,0.7-1.4,1.1
				c-0.2,0.2-0.5,0.4-0.7,0.6c-0.3,0.2-0.5,0.5-0.8,0.7c0,0-0.1,0.1-0.1,0.2c-0.1,0-0.2,0-0.3-0.1c-0.5-0.2-0.9-0.4-1.3-0.8
				c0.8-0.6,1.5-1.2,2.3-1.9c0.4-0.3,0.8-0.6,1.2-0.9c0.5-0.4,0.9-0.8,1.4-1.1c0.1-0.1,0.1-0.3,0-0.4c-0.1-0.1-0.3-0.1-0.4,0
				c-0.4,0.4-0.8,0.7-1.2,1.1c-0.3,0.2-0.5,0.5-0.8,0.7c-0.9,0.8-1.9,1.5-2.8,2.3c-0.1-0.1-0.2-0.2-0.3-0.4c-0.4-0.6-0.7-1.3-0.8-2
				c0.2-0.2,0.5-0.5,0.7-0.7c0.5-0.5,1-1,1.5-1.4c0.6-0.5,1.1-0.9,1.8-1.3C51.9,39.2,52.1,39.1,52.3,39L52.3,39z M72.5,39.8
				c0,0.6,0,1.1,0.1,1.7c0,0.2,0,0.4,0,0.6c0,0,0,0-0.1,0c0,0-0.1,0-0.1,0l0,0c0-0.6,0.1-1.2,0.1-1.9c0-0.3,0-0.6,0-0.9
				C72.5,39.6,72.5,39.7,72.5,39.8z M40.4,40.6l0.2,0.3l0.2,0.3c0.1,0.1,0.1,0.2,0.2,0.3c0.1,0.1,0.1,0.3,0.1,0.4
				c0.1,0.2,0.1,0.7,0.1,1c0,0.2,0,0.4-0.1,0.6c0,0.1-0.1,0.3-0.1,0.4c0,0.1-0.1,0.3-0.2,0.4c0,0,0,0.1-0.1,0.1
				c0,0.1-0.1,0.1-0.1,0.2c-0.8,0.5-1.6,1-2.1,1.8l0,0l-0.1,0l0,0c-0.3,0.1-0.5,0.1-0.8,0c-0.1,0-0.3,0-0.4-0.1
				c-0.4-0.1-0.8-0.3-1.2-0.5c-0.1-0.1-0.3-0.2-0.4-0.3l-0.1-0.1l-0.1-0.2c-0.2-0.4-0.3-0.8-0.3-1.2c0.2-0.3,0.5-0.6,0.7-0.8
				c0.7-0.8,1.3-1.5,2.1-2.2c0.2-0.2,0.4-0.3,0.6-0.5c0.1-0.1,0.1-0.2,0-0.3c-0.1-0.1-0.2-0.1-0.3,0c-0.6,0.5-1.3,1.2-1.8,1.8
				c-0.4,0.5-0.8,1-1.2,1.4c0-0.1,0-0.2,0-0.3c0-0.2,0.1-0.3,0.1-0.5c0.1-0.4,0.4-0.9,0.7-1.2c0,0,0-0.1,0-0.1c0,0-0.1,0-0.1,0
				c-0.5,0.4-0.9,1-1.1,1.6c-0.1,0.2-0.1,0.5-0.1,0.7c0,0.1,0,0.1,0,0.2c-0.1,0.1-0.1,0.1-0.2,0.2l-0.1-0.1
				c-0.2-0.4-0.2-0.9-0.1-1.4c0-0.2,0.1-0.3,0.1-0.4l0.2-0.4l0.2-0.4c0.2-0.4,0.6-0.7,0.9-0.9C37.3,39.5,39.2,39.4,40.4,40.6z
				 M35.5,39.7L35.5,39.7l-0.2,0.2C35.4,39.9,35.4,39.8,35.5,39.7L35.5,39.7z M52.4,40.5c-0.5,0.4-0.9,0.7-1.4,1.1
				c-0.4,0.3-0.7,0.7-1.1,1c-0.4,0.4-0.8,0.8-1.2,1.2c-0.1,0.1-0.1,0.2,0,0.3c0.1,0.1,0.2,0.1,0.3,0c0.5-0.6,1.2-1.2,1.8-1.7
				c0.8-0.7,1.6-1.3,2.5-1.9c0.1-0.1,0.2-0.3,0.1-0.4C53.3,40,53.1,39.9,53,40C52.8,40.1,52.6,40.3,52.4,40.5z M24.9,41.2
				c-0.4,0.3-0.7,0.6-1,1c-0.8,0.8-1.6,1.7-2.4,2.5c-0.1,0.1-0.1,0.2,0,0.3c0.1,0.1,0.2,0.1,0.3,0c0.4-0.5,0.9-0.9,1.4-1.4
				c0.6-0.6,1.2-1.2,1.9-1.8c0.5-0.4,1-0.8,1.5-1.1c0.1-0.1,0.2-0.2,0.1-0.4c-0.1-0.1-0.2-0.2-0.4-0.1
				C25.7,40.5,25.3,40.8,24.9,41.2z M37.7,42.9c-0.3,0.3-0.5,0.5-0.8,0.8c-0.2,0.2-0.4,0.4-0.5,0.5c-0.2,0.2-0.4,0.4-0.5,0.5
				c0,0,0,0.1,0,0.1c0,0,0.1,0,0.1,0c0.2-0.2,0.4-0.4,0.6-0.6c0.6-0.6,1.3-1.2,1.9-1.8c0.3-0.3,0.7-0.5,1-0.8
				c0.2-0.2,0.5-0.4,0.8-0.5c0.1-0.1,0.1-0.2,0.1-0.3c-0.1-0.1-0.2-0.1-0.3-0.1C39.3,41.3,38.4,42.1,37.7,42.9z M20.6,41.6l0,0.3
				c0,0,0,0.1,0,0.1c-0.1,0.1-0.1,0.2-0.2,0.3c0-0.1,0-0.1,0-0.2c0-0.1,0.1-0.3,0.1-0.4L20.6,41.6z M39.6,42.5
				c-0.7,0.7-1.2,1.5-1.9,2.2c-0.3,0.3-0.5,0.6-0.8,0.9c-0.1,0.1-0.1,0.2,0,0.2h0.2c0.3-0.3,0.6-0.6,0.9-0.9c0.3-0.4,0.7-0.8,1-1.2
				c0.4-0.5,0.8-0.9,1.3-1.3c0.1-0.1,0.2-0.2,0.4-0.3c0.1-0.1,0.1-0.2,0-0.3c-0.1-0.1-0.2-0.1-0.3,0C40.2,42,39.9,42.3,39.6,42.5z
				 M46.9,42L46.9,42c0,0.2,0,0.3,0,0.4c0,0.2,0.1,0.4,0.1,0.5c-0.1,0.1-0.1,0.1-0.2,0.2c0-0.3,0-0.5,0-0.8L46.9,42z M47.7,42.1
				L47.7,42.1c0,0.1,0,0.1,0,0.1C47.7,42.2,47.7,42.2,47.7,42.1L47.7,42.1z M20.7,43c-0.1,0.1-0.2,0.2-0.2,0.3c0,0-0.1,0.1-0.1,0.1
				c0-0.1-0.1-0.3-0.1-0.4c0.1,0,0.1,0,0.2-0.1c0-0.1,0.1-0.2,0.1-0.3C20.6,42.7,20.7,42.9,20.7,43z M72.5,43.5c0,0.7-0.1,1.3-0.1,2
				c-0.1,0.5-0.2,1.1-0.3,1.6c-0.2,0.8-0.4,1.6-0.7,2.5c0,0.1,0,0.1-0.1,0.2c-0.1,0.1-0.2,0.2-0.3,0.3c0.2-0.6,0.3-1.3,0.5-2
				c0.1-0.4,0.2-0.8,0.2-1.2c0.1-0.5,0.2-0.9,0.2-1.4c0.1-0.9,0.2-1.8,0.3-2.7c0.1,0,0.1-0.1,0.2-0.1C72.5,43,72.5,43.2,72.5,43.5z
				 M47.1,43.6c0.4,1.2,1.3,2.5,2.5,3.1l0.4,0.1l-0.3-0.1c-0.2-0.1-0.4-0.2-0.6-0.2c-0.1,0-0.2-0.1-0.3-0.2l-0.4-0.2L48,45.9
				c-0.4-0.4-0.7-0.8-0.9-1.3c-0.1-0.3-0.2-0.5-0.2-0.8c0.1-0.1,0.2-0.2,0.2-0.3C47.1,43.5,47.1,43.6,47.1,43.6z M53.3,45.3
				c-0.3,0.3-0.6,0.5-1,0.7L52,46.2l-0.3,0.1c-0.2,0-0.3,0.1-0.5,0.1c0.9-0.9,1.9-1.7,3-2.4C54,44.4,53.7,44.9,53.3,45.3z
				 M34.9,44.3l0,0.1L34.9,44.3L34.9,44.3C34.9,44.3,34.9,44.3,34.9,44.3L34.9,44.3z M39.2,46c0.2-0.3,0.5-0.6,0.8-0.8
				c0.2-0.1,0.3-0.2,0.5-0.4C40.1,45.3,39.7,45.7,39.2,46z M2.4,47.8c0.1,0.4,0.2,0.8,0.3,1.1c0,0,0,0.1,0,0.1c0,0.5,0,1,0.1,1.5
				c-0.3-0.7-0.5-1.3-0.7-2c0-0.8,0-1.6,0-2.4c0-0.3,0-0.6,0-1C2.1,46.1,2.2,47,2.4,47.8z M35.1,45.8l0.2,0.2
				c0.2,0.1,0.3,0.3,0.5,0.4l0.4,0.2l-0.3,0l-0.3-0.2c-0.1-0.1-0.2-0.2-0.3-0.3L35.1,45.8z M3.9,52.7c0.2,0.4,0.4,0.8,0.5,1.2
				c0.3,0.8,0.8,1.5,1.2,2.3c0.2,0.3,0.4,0.7,0.6,1c0.1,0.2,0.2,0.3,0.4,0.5c0.2,0.3,0.4,0.6,0.7,0.8c0.9,1.1,1.8,2,2.9,2.9
				c0.1,0.1,0.2,0.1,0.3,0.2c-0.1-0.1-0.3-0.2-0.4-0.3c-0.6-0.5-1.1-0.9-1.7-1.5c-0.5-0.5-1-1-1.5-1.6c-0.1-0.2-0.3-0.3-0.4-0.5
				c-1.1-1.7-2.1-3.4-2.9-5.3c-0.1-0.4-0.2-0.8-0.3-1.2c0-0.2-0.1-0.5-0.1-0.7C3.4,51.3,3.6,52,3.9,52.7z M70.3,52.8
				C70.3,52.8,70.3,52.8,70.3,52.8c-0.1,0.2-0.2,0.4-0.3,0.6c0.1-0.3,0.2-0.7,0.4-1c0.1-0.4,0.3-0.8,0.4-1.3
				c0.1-0.1,0.2-0.2,0.2-0.2C70.8,51.5,70.5,52.1,70.3,52.8z M9.2,61.2c0.6,0.5,1.2,1,1.8,1.4c0.2,0.1,0.3,0.2,0.5,0.4
				c-0.5-0.2-1-0.5-1.5-0.8c-0.4-0.4-0.7-0.8-1.1-1.3C9,61,9.1,61.1,9.2,61.2z M11.3,62.2c-0.2-0.1-0.5-0.4-0.8-0.6
				C10.7,61.8,11,62,11.3,62.2z M11.4,62.2C11.4,62.2,11.4,62.2,11.4,62.2C11.4,62.2,11.3,62.2,11.4,62.2
				C11.3,62.2,11.4,62.2,11.4,62.2z M12,63.8c0.4,0.2,0.8,0.4,1.2,0.6c0,0-0.1,0.1-0.1,0.1c-0.1,0.1,0,0.3,0.1,0.3
				c0.7,0.3,1.3,0.5,2,0.8c0.1,0.1,0.3,0.1,0.5,0.2c1,0.4,2.1,0.7,3.1,1c0.6,0.2,1.3,0.3,1.9,0.5c0.5,0.1,1.1,0.3,1.6,0.4
				c-1.8-0.2-3.6-0.6-5.4-1.1c-1.1-0.3-2.3-0.7-3.4-1.2c-0.2-0.1-0.3-0.1-0.5-0.2C13,65.1,12.9,65,12.8,65c-0.6-0.5-1.2-1.1-1.8-1.7
				C11.3,63.5,11.7,63.6,12,63.8z M60.5,65.5c0.1-0.1,0.3-0.2,0.4-0.3c0,0,0,0,0.1,0C60.8,65.3,60.7,65.5,60.5,65.5z M57,66.8
				c-0.1,0-0.1,0.1-0.1,0.2c-0.4,0-0.8,0-1.1,0c-0.1,0-0.2,0-0.3,0c0.7-0.2,1.4-0.4,2.1-0.6c0.2-0.1,0.3-0.1,0.5-0.2
				C57.8,66.5,57.4,66.7,57,66.8z M56,67.4c-1,0.2-1.9,0.4-2.9,0.5c-0.3,0-0.6,0.1-0.9,0.1c-0.3,0-0.7,0-1,0c0.2,0,0.4-0.1,0.6-0.1
				c0.4,0,0.9-0.1,1.3-0.1c0.9-0.1,1.8-0.2,2.8-0.3c0.1,0,0.2,0,0.3,0C56.1,67.4,56,67.4,56,67.4z M27.7,67.7
				C27.7,67.7,27.7,67.7,27.7,67.7c0.4,0.1,0.8,0.1,1.2,0.2c0.4,0.1,0.7,0.1,1.1,0.1c0.5,0.1,1,0.1,1.5,0.2c-0.5,0-0.9,0-1.4,0
				c-0.7-0.1-1.5-0.2-2.2-0.3c-0.7-0.1-1.4-0.2-2.1-0.3C26.3,67.7,27,67.7,27.7,67.7z"/>
		</g>
	</g>
</g>
</svg>
