<?xml version="1.0" encoding="utf-8"?>
<!-- Generator: Adobe Illustrator 20.1.0, SVG Export Plug-In . SVG Version: 6.00 Build 0)  -->
<svg version="1.1" id="Layer_1" xmlns="http://www.w3.org/2000/svg" xmlns:xlink="http://www.w3.org/1999/xlink" x="0px" y="0px"
	 viewBox="0 0 75 75" style="enable-background:new 0 0 75 93.8;" xml:space="preserve">
<g transform="scale(1 -1)" fill="#607D8B">
	<g transform="translate(0 -75)">
		<g>
			<path marker-end="none" marker-start="none" d="M68.4,0.2c-0.2,0-0.4,0-0.5,0.1c-0.2,0-0.3,0.1-0.5,0.1c0,0-0.1,0-0.1,0
				c-1.3,0.3-2.5,1-3.5,1.8c-0.7,0.5-1.3,1-1.9,1.6c0-0.1,0-0.1,0-0.2c0,0,0,0,0,0c0,0,0,0,0,0c0,0.1,0,0.2,0,0.3
				c-0.4,0.4-0.9,0.9-1.3,1.3c-0.4,0.4-0.7,0.8-1.1,1.2c-0.2,0.3-0.5,0.6-0.7,0.9c-0.2,0.2-0.4,0.4-0.5,0.6c-0.2-0.1-0.3,0-0.4,0.2
				c-0.1,0.1,0,0.2,0,0.3c-0.5,0.5-1,1.1-1.4,1.7c-0.3,0.4-0.7,0.8-1,1.2c-0.5,0.6-0.9,1.3-1.3,2c0.1-0.1,0.3-0.2,0.4-0.4
				c-0.2,0.3-0.4,0.6-0.6,0.9c0,0-0.1,0-0.1,0.1c0,0-0.1,0-0.1,0c0,0-0.1,0-0.1,0.1c0,0,0,0.1,0,0.1c-0.1,0.1-0.2,0.1-0.3,0.2
				c-0.4,0.3-0.9,0.6-1.3,1c-0.2,0.2-0.4,0.3-0.5,0.5c-0.4-0.2-0.8-0.5-1.3-0.7c-0.5-0.3-1.1-0.5-1.6-0.8c-0.1,0-0.2-0.1-0.3-0.1
				c-0.1-0.1-0.3-0.1-0.8-0.4c0,0,0.1,0,0.1,0.1c-0.3-0.1-0.6-0.3-0.8-0.4c-0.4-0.2-0.9-0.4-1.3-0.5c-1.1-0.4-2.2-0.8-3.4-1.2
				c-0.7-0.2-1.4-0.4-2-0.5c-0.1,0-0.2,0-0.4-0.1c-1.1-0.3-2.2-0.5-3.3-0.6c-1.1-0.2-2.2-0.3-3.4-0.3c-1.2,0-2.4,0.2-3.6,0.5
				c-0.2,0-0.3,0.1-0.5,0.1c-1,0.2-2.1,0.4-3.1,0.7c-0.3,0.1-0.5,0.2-0.8,0.2c-0.5,0.1-1,0.3-1.6,0.5c-0.5,0.2-1,0.4-1.5,0.6
				c-0.1,0-0.1,0-0.2,0c-1.5,0.5-3,1-4.4,1.7c-0.3,0.1-0.7,0.3-1,0.4c-0.3,0.2-0.7,0.3-1,0.5c-0.5,0.3-1.1,0.6-1.6,0.9
				c-0.4,0.2-0.7,0.5-1,0.7c-0.2,0.1-0.3,0.2-0.5,0.4c-0.1,0.1-0.2,0.1-0.3,0.2c-0.5,0.4-1,0.7-1.5,1.1c-0.5,0.4-0.9,0.7-1.3,1.1
				c-0.5,0.5-1,1-1.4,1.5c-0.2,0.3-0.5,0.6-0.7,0.9c0.3-0.3,0.6-0.5,0.9-0.8c-0.9,1-1.8,2.2-2.4,3.4c-0.2,0.4-0.4,0.8-0.6,1.2
				c-0.1,0.2-0.1,0.4-0.2,0.5c-0.4,0.5-0.8,1-1.2,1.5c0.3-0.4,0.7-0.7,1.1-1.1c0,0.1-0.1,0.2-0.1,0.3c-0.2,0.3-0.3,0.5-0.5,0.8
				c-0.5,0.9-1,1.8-1.4,2.7c-0.3,0.7-0.6,1.3-0.9,2c-0.2,0.6-0.4,1.3-0.6,2c0,0,0,0.1,0,0.1c0,0,0.1,0,0.1,0
				c0.3-0.6,0.6-1.3,0.8-1.9c0.2-0.5,0.5-1.1,0.7-1.6C3,31,3.2,30.6,3.4,30.1c0.2-0.3,0.3-0.7,0.5-1c-0.6,1.5-1.2,3-1.6,4.5
				c-0.2,0.8-0.5,1.5-0.7,2.3c-0.1,0.2-0.2,0.5-0.3,0.7c-0.2,0.6-0.3,1.1-0.4,1.7c0.1-1.2,0.4-2.4,0.7-3.5c0.1-0.5,0.3-0.9,0.4-1.4
				c0,0,0-0.1,0-0.1c0,0-0.1,0-0.1,0c-0.1,0.2-0.2,0.4-0.3,0.6c-0.3,0.6-0.5,1.2-0.7,1.8c-0.6,1.8-0.9,3.7-0.8,5.7
				c0,0.5,0,1.1,0.1,1.6c0.1,1,0.2,1.9,0.4,2.9c0,0.1,0,0.1,0,0.1c0.1,0.7,0.1,1.5,0.3,2.2c0.3,2,0.9,3.9,1.7,5.8c0,0,0,0,0.1,0
				c0,0,0,0,0-0.1c-0.2-0.5-0.4-0.9-0.5-1.4c-0.2-0.5-0.3-1-0.5-1.5c-0.1-0.5-0.2-1-0.4-1.4c-0.1-0.3-0.1-0.7-0.2-1.1
				c-0.1-0.3-0.1-0.7-0.1-1c0.2,0.8,0.4,1.6,0.6,2.4c0.5,1.6,1.1,3.2,1.7,4.7c0.2,0.5,0.5,1.1,0.8,1.6c0.2,0.5,0.5,1,0.8,1.5
				c0.1,0.2,0.2,0.4,0.3,0.6c0.1,0.3,0.3,0.5,0.4,0.8C5.8,59.7,6,60,6.2,60.4c-0.6-0.8-1.2-1.7-1.7-2.5c-0.2-0.3-0.4-0.7-0.6-1.1
				C4,56.9,4,57.1,4.1,57.3c0.1,0.3,0.2,0.6,0.4,1c0.6,1.5,1.4,2.9,2.5,4.2c0.1,0.1,0.2,0.2,0.2,0.3c1.5,1.8,3.5,3.3,5.4,4.5
				c0.2,0.1,0.4,0.2,0.5,0.3c0.5,0.5,1,0.9,1.5,1.4c0.6,0.5,1.3,1.1,1.9,1.5c0.1,0,0.1,0,0.2,0c0-0.1,0-0.1,0-0.2
				c-0.4-0.3-0.7-0.6-1.1-0.8c-0.2-0.2-0.5-0.4-0.7-0.6c0,0,0.1,0,0.1,0.1c0.9,0.6,1.9,1.1,2.9,1.5c0,0,0.1,0,0.1,0.1
				c-0.7-0.3-1.3-0.6-2-1c0,0.1,0.2,0.2,0.2,0.3c0.1,0.1,0.3,0.2,0.4,0.3c0.1,0.1,0.3,0.2,0.4,0.3c1.1,0.8,2.2,1.3,3.4,1.7
				c0.2,0.1,0.4,0.1,0.6,0.2c0.1,0.1,0.2,0.1,0.3,0.2c0.3,0.2,0.7,0.4,1,0.6c0,0,0.1,0,0.1,0s0-0.1,0-0.1c-0.2-0.1-0.3-0.2-0.5-0.3
				c1,0.3,1.9,0.5,2.9,0.7c0.6,0.2,1.2,0.4,1.8,0.5c0,0,0,0,0,0c0,0.1,0.1,0.1,0.1,0.1c0.2,0,0.3,0,0.5,0c0,0,0,0,0.1,0
				c0.4,0.2,0.9,0.3,1.4,0.4c0.6,0.1,1.3,0.2,1.9,0.2c1,0.1,2,0.1,3,0c0.3,0,0.5,0,0.8-0.1c0.1,0,0.2,0,0.4,0c0,0,0,0,0,0
				c0,0,0,0,0.1,0c0.7,0.1,1.4,0.2,2.2,0.3c0.1,0,0.2-0.1,0.2-0.2c0,0,0-0.1,0-0.1c0.1,0,0.2,0,0.3,0c2.1-0.2,4.1-1,6-1.8
				c0.6-0.3,1.2-0.5,1.8-0.8c0.1,0,0.1-0.1,0.2-0.1c0,0,0,0,0,0c0.1-0.1,0.3-0.1,0.4-0.2c0.5-0.2,1-0.3,1.4-0.5
				c0.4-0.1,0.8-0.3,1.1-0.5c1-0.4,2-0.9,3-1.4c0.5-0.3,1-0.6,1.6-0.9c0.1,0,0.1-0.1,0.1-0.2c0-0.1-0.1-0.1-0.2-0.1
				c-0.2,0.1-0.5,0.3-0.7,0.4c-0.2,0.1-0.5,0.3-0.7,0.4c-0.6,0.3-1.2,0.6-1.9,0.9c-0.4,0.2-0.8,0.4-1.2,0.5
				c-0.2,0.1-0.3,0.1-0.5,0.2c0.1-0.1,0.3-0.2,0.4-0.2c0.2-0.1,0.3-0.2,0.5-0.3c0.2-0.1,0.5-0.3,0.7-0.4c0.1-0.1,0.2-0.1,0.3-0.2
				c0.3-0.2,0.7-0.3,1-0.5c0.4-0.2,0.8-0.5,1.2-0.7c0.2-0.1,0.5-0.3,0.7-0.4c0.2-0.1,0.4-0.3,0.5-0.4c0.3-0.2,0.6-0.4,0.8-0.6
				c0,0,0.1-0.1,0.1-0.1c0,0,0,0,0,0c0.1-0.1,0.2-0.1,0.2-0.2c0.3-0.3,0.6-0.5,0.9-0.8c0.2-0.2,0.4-0.4,0.6-0.5
				c0.4-0.3,0.8-0.7,1.1-1.1c0.7-0.7,1.3-1.4,1.9-2.2c1.1-1.3,2-2.8,2.9-4.3c0.4-0.6,0.7-1.3,1-1.9c0-0.1,0-0.2-0.1-0.2
				c-0.1,0-0.2,0-0.2,0.1c-0.5,0.9-1,1.8-1.5,2.7c-0.4,0.7-0.9,1.4-1.4,2.1c-0.3,0.5-0.7,1-1.1,1.4c-0.3,0.3-0.6,0.7-0.8,1
				c-0.4,0.5-0.9,0.9-1.3,1.4c-1.3,1.3-2.8,2.4-4.3,3.4c-0.1,0.1-0.3,0.2-0.4,0.3c0.7-0.6,1.3-1.1,1.9-1.8c0.6-0.6,1.1-1.1,1.7-1.7
				c0.2-0.2,0.4-0.4,0.5-0.6c0.2-0.2,0.4-0.4,0.5-0.6c0.1-0.1,0.2-0.3,0.3-0.4c0,0,0.1-0.1,0.1-0.1c-0.4,0.6-0.8,1.1-1.2,1.7
				c-0.4,0.5-0.8,1-1.2,1.5l0,0.1l0.1,0c0.5-0.5,1.1-1.1,1.6-1.6c0.5-0.5,1-1.1,1.4-1.7c0.2-0.3,0.4-0.6,0.6-0.8
				c0.3-0.5,0.6-1,0.9-1.5c0.5-0.8,0.9-1.6,1.4-2.5c0.2-0.3,0.3-0.7,0.5-1c0.1-0.1,0.1-0.3,0.2-0.4c0-0.1,0.1-0.2,0.3-0.8
				c0,0,0-0.1,0-0.1c0.4-0.7,0.7-1.5,0.9-2.3c0.1-0.3,0.2-0.6,0.3-1c0,0.2,0,0.3,0,0.5c0,0.3,0,0.5,0,0.8c0,0.1-0.1,0.2-0.1,0.3
				c-0.1,0.4-0.3,0.7-0.4,1.1c0,0.1-0.1,0.2-0.1,0.3c-0.1,0.1-0.1,0.3-0.2,0.5c-0.1,0.2-0.1,0.3-0.2,0.5c-0.1,0.4-0.4,0.7-0.5,1.1
				c0,0.1,0,0.1,0,0.2s0.1,0,0.2,0c0.3-0.5,0.6-0.9,0.9-1.4c0.2-0.3,0.3-0.6,0.5-0.9c0.2-0.4,0.4-0.9,0.6-1.3c0.4-1,0.7-2.1,0.9-3.2
				c0.2-0.9,0.3-1.8,0.4-2.8c0.2-2.2,0.2-4.5-0.1-6.7c0-0.4,0-0.8-0.1-1.2c-0.1-1-0.2-1.9-0.3-2.9c-0.1-0.6-0.2-1.2-0.4-1.8
				c-0.1-0.5-0.2-0.9-0.3-1.4c-1.1-4.2-3.1-8.2-6-11.6c0,0,0,0,0,0c0,0,0,0,0.1,0c1-0.5,1.8-1.2,2.6-2c0.2-0.2,0.4-0.4,0.6-0.6
				c0,0,0.1-0.1,0.1-0.1c0.1,0,0.1,0,0.2,0c0,0,0.1-0.1,0.1-0.1c0.1,0,0.1-0.1,0.2-0.1c0.8-0.5,1.6-1.1,2.3-1.6c1-0.7,2-1.5,3-2.3
				c0.3-0.2,0.6-0.5,0.9-0.7c0,0,0,0,0.1,0c0,0,0,0,0,0c0.3-0.2,0.6-0.5,0.9-0.8c0,0,0.1-0.1,0.1-0.1c0.2-0.1,0.3-0.3,0.5-0.4
				c0.6-0.5,1.2-1.1,1.8-1.6c0.2-0.2,0.3-0.3,0.5-0.5c0.2-0.2,0.4-0.5,0.7-0.7c0.1-0.1,0.3-0.3,0.4-0.5c0.1-0.2,0.2-0.3,0.4-0.5
				c0,0,0,0,0,0c0.1-0.1,0.1-0.1,0.2-0.2c0.3-0.3,0.5-0.6,0.8-0.9c0.1-0.2,0.2-0.3,0.4-0.5c0-0.1,0-0.1,0-0.2c0,0-0.1,0-0.1,0
				c0,0,0-0.1,0-0.1c0,0-0.1-0.1-0.1-0.1c0-0.1,0.1-0.2,0.1-0.3c0.2-0.4,0.3-0.9,0.4-1.4c0,0,0,0,0,0c0.2-0.4,0.5-0.8,0.7-1.2
				c0-0.1,0-0.1,0-0.2c-0.1,0-0.1,0-0.2,0c-0.2,0.3-0.3,0.6-0.5,0.9c0,0,0,0,0,0c0,0,0,0,0,0c0-0.1,0-0.2,0-0.4
				c0-0.4-0.2-0.8-0.4-1.2c-0.1-0.5-0.3-0.9-0.6-1.3C73,2,72.7,1.6,72.4,1.4c-0.2-0.3-0.5-0.5-0.8-0.7C70.6,0.1,69.5,0,68.4,0.2z
				 M69.7,2.2c-0.4-0.2-0.8-0.4-1.2-0.6c-0.1-0.1-0.2-0.1-0.4-0.2c0-0.1-0.1-0.1-0.1-0.2c0.3-0.1,0.6-0.2,1-0.2
				C69.2,1.4,69.4,1.8,69.7,2.2z M70.4,1.4c0.1,0.1,0.2,0.3,0.3,0.5c0.3,0.4,0.5,0.9,0.8,1.2c-0.4-0.2-0.8-0.4-1.2-0.6
				C70,2,69.7,1.5,69.4,1C69.7,1.1,70.1,1.2,70.4,1.4z M67.4,1.5C67.4,1.5,67.4,1.5,67.4,1.5c0.4,0.4,0.7,0.8,1,1.3
				c0.1,0.1,0.1,0.2,0.2,0.4c-0.4-0.2-0.9-0.4-1.3-0.6c0-0.2-0.1-0.4-0.1-0.6c0-0.1,0-0.2-0.1-0.3C67.2,1.5,67.2,1.5,67.4,1.5
				C67.3,1.4,67.3,1.4,67.4,1.5z M72.1,2c0.2,0.2,0.4,0.5,0.5,0.8c-0.3-0.3-0.5-0.7-0.8-1c-0.1-0.1-0.1-0.1-0.2-0.2
				C71.7,1.7,71.9,1.9,72.1,2z M65.3,1.7c-0.1,0.1-0.2,0.1-0.3,0.2C65.1,1.9,65.2,1.8,65.3,1.7C65.3,1.7,65.3,1.7,65.3,1.7z
				 M66.8,2.3c-0.1,0-0.1-0.1-0.2-0.1c-0.1,0-0.2,0-0.3,0.1s0,0.2,0.1,0.3c0.2,0.1,0.3,0.1,0.5,0.2C67,3.1,67,3.4,67.1,3.6
				c-0.2-0.1-0.5-0.2-0.7-0.3c-0.2-0.1-0.4-0.1-0.6-0.2c-0.1-0.2-0.1-0.5-0.2-0.7C66,2.2,66.3,2,66.8,1.8C66.8,2,66.8,2.1,66.8,2.3z
				 M69.9,2.6c0.2,0.3,0.3,0.6,0.4,0.8c0.1,0.2,0.2,0.4,0.2,0.5c-0.3-0.1-0.5-0.2-0.8-0.4c-0.3-0.1-0.6-0.3-0.9-0.4c0,0,0,0,0,0
				c-0.1-0.2-0.1-0.3-0.2-0.5c-0.1-0.2-0.1-0.3-0.2-0.5c0-0.1-0.1-0.3-0.2-0.4C68.9,2.1,69.4,2.4,69.9,2.6z M72.5,3.3
				c0.1,0.1,0.2,0.3,0.3,0.4c0,0,0,0.1,0.1,0.1c-0.2-0.1-0.5-0.2-0.7-0.4c-0.4-0.4-0.6-0.9-0.9-1.5C71.7,2.4,72.1,2.9,72.5,3.3z
				 M65.6,3.1c-0.1,0-0.2-0.1-0.4-0.1c-0.1,0-0.3,0-0.3,0.1c0,0.1,0,0.3,0.1,0.3c0.2,0.1,0.4,0.1,0.6,0.2c0.1,0.3,0.1,0.6,0.2,0.8
				c0,0,0,0,0,0.1c0,0,0,0,0,0c-0.4-0.2-0.7-0.4-1.1-0.5c0-0.3-0.1-0.5-0.1-0.8c0.2-0.2,0.4-0.3,0.6-0.5c0.1-0.1,0.2-0.1,0.3-0.2
				C65.6,2.7,65.6,2.9,65.6,3.1z M71.7,3.5c0.2,0.3,0.5,0.5,0.8,0.7c0.1,0.1,0.2,0,0.2,0c0.1-0.1,0-0.2,0-0.2c0.1,0,0.2,0.1,0.3,0.2
				c0,0.1,0,0.3,0,0.4c0,0.1,0,0.3,0.1,0.4c0,0.2,0,0.3,0,0.5C72.4,5,71.7,4.6,71,4.2c0-0.1-0.1-0.1-0.1-0.2
				c-0.1-0.2-0.2-0.4-0.3-0.6c-0.1-0.2-0.2-0.3-0.2-0.5C70.8,3.1,71.3,3.3,71.7,3.5z M68.7,3.5c0.2,0.4,0.4,0.8,0.5,1.1
				c-0.6-0.3-1.2-0.6-1.8-0.8c-0.1-0.3-0.1-0.6-0.2-0.9C67.8,3.1,68.3,3.3,68.7,3.5z M64.6,3.9c-0.1-0.1-0.3-0.1-0.4-0.2
				c0,0-0.1,0-0.1,0c0,0,0,0,0,0c0.1-0.1,0.3-0.3,0.4-0.4C64.5,3.6,64.6,3.7,64.6,3.9z M63.4,3.5C63.4,3.5,63.4,3.5,63.4,3.5
				c0,0,0.1-0.1,0.1-0.1C63.5,3.4,63.5,3.5,63.4,3.5z M63.4,3.6c-0.1,0.1-0.3,0.3-0.4,0.4c-0.1,0.1-0.2,0.2-0.4,0.4
				C62.4,4.6,62.2,4.8,62,5c0-0.1,0-0.1,0-0.2c0,0,0.1-0.1,0.1-0.1c0.3-0.3,0.6-0.6,1-0.9C63.1,3.8,63.2,3.7,63.4,3.6
				C63.4,3.6,63.4,3.6,63.4,3.6z M70.7,4.3c0,0.1,0,0.1,0.1,0.2c0,0.1,0.1,0.1,0.2,0.1c0,0,0.1-0.1,0.1-0.1c0.7,0.3,1.4,0.7,2.1,1.1
				c0,0.3,0,0.6,0,0.9c0,0.1,0,0.2,0,0.3c0,0,0,0-0.1,0c-1.1-0.8-2.3-1.4-3.5-2c-0.2-0.4-0.3-0.7-0.4-1.1
				C69.6,3.8,70.1,4.1,70.7,4.3z M67.2,4.2c0,0.1,0.1,0.3,0.1,0.4c0,0.2,0.1,0.4,0.1,0.6c0,0,0,0.1,0,0.1c-0.4-0.2-0.7-0.4-1.1-0.6
				C66.1,4.4,66,4,66,3.7C66.4,3.9,66.8,4,67.2,4.2z M74,4.5c0,0.2,0.1,0.4,0.1,0.6c0,0,0,0.1,0,0.1c0,0,0,0,0,0
				c0-0.3,0-0.6-0.1-0.9c0-0.1,0-0.1-0.1-0.1c0-0.2,0-0.3-0.1-0.5C73.9,4,74,4.3,74,4.5z M64,4.2c0.2,0.1,0.4,0.2,0.6,0.2
				c0,0.4,0.1,0.8,0.1,1.2c0,0.1,0,0.2,0,0.2c0,0,0,0,0,0c-0.3-0.2-0.7-0.3-1-0.5c0,0,0-0.1,0-0.1c0-0.2-0.1-0.3-0.1-0.5
				c0,0,0.1-0.1,0.1-0.1c0,0,0-0.1,0-0.1c0,0-0.1,0-0.1,0c0,0,0,0,0,0c0-0.1,0-0.1,0-0.2c0.1-0.1,0.2-0.2,0.3-0.3
				C63.8,4.1,63.9,4.2,64,4.2z M69.2,5c0.1,0,0.2,0.1,0.3,0.1c0.1,0.2,0.2,0.3,0.3,0.5c0,0,0.1,0,0.1,0c0,0,0-0.1,0-0.1
				c-0.1-0.1-0.1-0.2-0.2-0.4c0.7,0.3,1.3,0.6,1.9,1c0.3,0.2,0.6,0.4,0.9,0.6c0.1,0.1,0.3,0.2,0.4,0.3c-0.1,0.2-0.2,0.4-0.4,0.5
				c-0.1,0.1-0.2,0.3-0.3,0.4c-0.7-0.4-1.5-0.8-2.2-1.3c-0.7-0.4-1.3-0.8-2-1.1c-0.1,0-0.1-0.1-0.2-0.1c0-0.4-0.1-0.8-0.2-1.2
				C68.1,4.6,68.7,4.8,69.2,5z M63.5,4.6C63.3,4.7,63.1,4.8,63,5c0,0-0.1,0-0.1,0c0.2-0.2,0.4-0.4,0.5-0.6
				C63.4,4.4,63.4,4.5,63.5,4.6z M66,5c0,0.1,0,0.2,0.1,0.3c0,0.1,0.1,0.1,0.2,0.1c0.1,0,0.1-0.1,0.1-0.2c0-0.1,0-0.1,0-0.2
				c0.4,0.2,0.7,0.3,1.1,0.5c0,0,0,0.1,0,0.1c0,0.2,0,0.3,0,0.5c0,0.1,0,0.2,0,0.3c0,0.1,0.1,0.2,0.2,0.2c0.1,0,0.2-0.1,0.2-0.2
				c0-0.2,0-0.5,0-0.7c0.9,0.4,1.8,0.9,2.6,1.4c0.6,0.3,1.1,0.6,1.7,0.9c0,0-0.1,0.1-0.1,0.1c-0.2,0.2-0.3,0.5-0.5,0.7
				c-0.1,0.1-0.1,0.2-0.2,0.2c-0.9-0.4-1.8-0.9-2.7-1.4c-1.2-0.6-2.4-1.3-3.6-1.9c-0.1-0.4-0.1-0.8-0.2-1.2c0-0.1,0-0.2,0-0.2
				C65.2,4.7,65.6,4.8,66,5z M63.6,5.2C63.6,5.2,63.6,5.2,63.6,5.2c-0.1,0-0.2-0.1-0.4-0.2c0.1-0.1,0.2-0.2,0.3-0.3
				C63.5,5,63.5,5.1,63.6,5.2z M61.9,5.1c0,0.1-0.1,0.1-0.1,0.2c-0.2,0.3-0.5,0.5-0.7,0.8c0-0.1,0-0.2,0-0.3c0,0,0.1-0.1,0.1-0.1
				c0.3-0.3,0.5-0.5,0.8-0.8C61.8,5,61.9,5.1,61.9,5.1z M62.5,5.4c-0.1,0.1-0.3,0.3-0.4,0.4c0,0,0,0,0-0.1
				C62.2,5.6,62.3,5.5,62.5,5.4C62.5,5.4,62.5,5.4,62.5,5.4z M63.7,5.9c0,0.3,0.1,0.7,0.1,1c-0.5-0.2-1-0.5-1.5-0.7
				c0-0.1,0-0.1-0.1-0.2c0.2-0.2,0.4-0.4,0.6-0.5C63.1,5.7,63.4,5.8,63.7,5.9z M60.9,6.2c-0.4,0.4-0.8,0.9-1.1,1.3
				c-0.1,0.1-0.2,0.2-0.3,0.4c0,0,0,0,0-0.1c0,0,0-0.1-0.1-0.1c0,0,0,0,0,0c0.2-0.3,0.4-0.6,0.7-0.8c0.2-0.2,0.4-0.4,0.5-0.7
				c0.1-0.1,0.2-0.2,0.3-0.4C60.9,6,60.9,6.1,60.9,6.2z M62,5.9C61.9,6,61.9,6,61.8,6.1c0,0,0,0,0,0c0,0,0,0,0,0
				C61.9,6,61.9,6,62,5.9C62,5.9,62,5.9,62,5.9z M64.8,6.4c0,0.3,0,0.6,0,0.9c0,0,0,0.1,0,0.1c-0.2-0.1-0.5-0.2-0.7-0.4
				c0-0.4-0.1-0.7-0.2-1.1C64.2,6.2,64.5,6.3,64.8,6.4z M62.2,6.8c0.1,0.4,0.2,0.8,0.2,1.2c-0.1,0-0.2-0.1-0.3-0.1
				c-0.3-0.2-0.6-0.3-0.9-0.5c0-0.1,0-0.2-0.1-0.3c0.2-0.2,0.4-0.4,0.5-0.5C61.8,6.7,62,6.7,62.2,6.8z M69.1,8.4
				c0.7,0.3,1.4,0.7,2.1,1c-0.2,0.2-0.4,0.5-0.6,0.7c-0.3-0.1-0.7-0.3-1-0.4c-0.5-0.2-0.9-0.4-1.4-0.7c-0.2-0.1-0.5-0.2-0.8-0.3
				c-0.4-0.2-0.8-0.4-1.2-0.5c-0.3-0.1-0.6-0.3-1-0.5c0,0,0,0,0,0c0-0.4-0.1-0.7-0.1-1.1C66.5,7.2,67.8,7.8,69.1,8.4z M63.6,7.4
				c0.1,0,0.1,0.1,0.2,0.1c0,0,0,0,0,0c0,0.1,0.1,0.2,0.2,0.2c0.1,0,0.1,0,0.2-0.1c0.2,0.1,0.5,0.2,0.7,0.3c0,0,0,0.1,0,0.1
				c0,0.1,0.1,0.2,0.2,0.2c0.1,0,0.2-0.1,0.2-0.1c0.8,0.4,1.6,0.7,2.5,1.1c0.3,0.1,0.7,0.3,1,0.4c0.6,0.2,1.1,0.4,1.7,0.6
				c-0.1,0.2-0.3,0.3-0.4,0.5c-0.1,0.1-0.3,0.2-0.4,0.3c-0.2,0.2-0.4,0.4-0.6,0.5c-0.2-0.1-0.3-0.1-0.5-0.2
				c-0.9-0.4-1.8-0.9-2.7-1.4C65,9.4,64.2,9,63.4,8.5c-0.2-0.1-0.4-0.2-0.6-0.3c0,0,0,0,0-0.1c-0.1-0.4-0.2-0.8-0.3-1.2
				C62.8,7.1,63.2,7.3,63.6,7.4z M61.1,7.3C61,7.3,61,7.3,61.1,7.3c-0.1-0.1,0-0.1,0-0.1C61,7.3,61,7.3,61.1,7.3z M73.6,7.5
				C73.6,7.5,73.6,7.5,73.6,7.5c-0.1,0.1-0.1,0.3-0.2,0.4c0-0.1,0-0.1,0.1-0.2C73.5,7.7,73.5,7.6,73.6,7.5
				C73.5,7.5,73.5,7.5,73.6,7.5C73.6,7.5,73.6,7.5,73.6,7.5z M72.8,7.8c-0.1,0.1-0.2,0.3-0.3,0.4c0,0,0,0-0.1,0
				C72.6,8,72.7,7.9,72.8,7.8C72.8,7.8,72.8,7.8,72.8,7.8z M61.2,8c0,0.3,0.1,0.6,0.2,0.9c0,0.2,0,0.3,0.1,0.5c0,0.1,0,0.2,0,0.3
				c-0.2-0.1-0.5-0.3-0.7-0.4c-0.3-0.2-0.6-0.4-1-0.6c-0.1,0-0.1,0.1-0.1,0.1c0,0,0,0,0,0c0.1-0.1,0.5-0.6,1-1.1
				C60.8,7.8,61,7.9,61.2,8z M59.3,8c-0.1,0.1-0.2,0.3-0.3,0.4c0,0-0.1,0-0.1,0C59,8.2,59,8.2,59.3,7.8C59.3,7.8,59.3,7.9,59.3,8z
				 M62.5,8.5c0,0.4,0,0.8,0,1.2c0,0.1,0.1,0.2,0.2,0.2S63,9.8,63,9.7c0-0.3-0.1-0.7-0.1-1c0.7,0.3,1.3,0.6,2,0.9
				c0.8,0.4,1.6,0.8,2.4,1.2c0.4,0.2,0.8,0.4,1.2,0.6c0.2,0.1,0.3,0.1,0.5,0.2c-0.4,0.3-0.8,0.6-1.2,0.9c-0.7-0.3-1.5-0.6-2.2-0.9
				c-0.8-0.3-1.5-0.7-2.3-1.1c-0.5-0.3-1-0.5-1.5-0.8c0-0.2-0.1-0.4-0.1-0.5c0-0.1-0.1-0.3-0.1-0.4c-0.1-0.3-0.1-0.6-0.2-0.9
				C61.7,8.2,62.1,8.3,62.5,8.5z M72.4,8.4c-0.1,0.1-0.2,0.2-0.3,0.4C72,8.9,71.9,9,71.7,9.2c0,0-0.1,0.1-0.1,0.1c0,0,0,0,0,0
				C71.7,9.2,71.9,9,72,8.8C72.1,8.7,72.2,8.5,72.4,8.4C72.4,8.3,72.4,8.3,72.4,8.4z M58.5,8.9c-0.1,0.1-0.1,0.1-0.2,0.2
				c-0.2,0.2-0.4,0.5-0.5,0.7c0,0-0.1,0.1-0.1,0.1C58,9.5,58.3,9.2,58.5,8.9C58.5,8.9,58.5,8.9,58.5,8.9z M59.4,9.3
				c0,0,0.1,0,0.1,0.1c0,0,0,0,0,0c0.1,0.3,0.1,0.6,0.2,0.9c-0.4-0.2-0.7-0.3-1.1-0.5c-0.1,0.1-0.1,0.1-0.2,0.2c0,0,0,0,0,0
				c0.2-0.2,0.4-0.4,0.8-0.8C59.3,9.3,59.4,9.3,59.4,9.3z M61.2,10.1c0.1,0,0.2,0.1,0.2,0.1c0,0.1,0,0.1,0,0.2c0,0.1,0,0.2,0,0.3
				c0,0.1,0,0.2,0,0.3c0,0,0,0,0,0c0,0,0,0-0.1,0c-0.4-0.2-0.9-0.4-1.3-0.6c-0.1-0.3-0.2-0.6-0.3-1C60.2,9.7,60.7,9.9,61.2,10.1z
				 M58.4,10.2C58.2,10.4,58.1,10.4,58.4,10.2C58.4,10.2,58.4,10.2,58.4,10.2z M58.4,10.4c0,0.1,0,0.3,0.1,0.4
				c0,0.3,0.1,0.6,0.2,0.9c-0.4-0.2-0.8-0.3-1.2-0.5c0.1-0.2,0.3-0.3,0.4-0.5c0,0,0,0,0.3-0.3C58.2,10.4,58.3,10.4,58.4,10.4z
				 M65.5,11.9c0.7,0.3,1.4,0.5,2.2,0.8c-0.1,0.1-0.2,0.2-0.3,0.3c-0.2,0.2-0.5,0.4-0.7,0.6c-1.5-0.9-3.2-1.7-4.8-2.5
				c0,0,0.1-0.1,0.1-0.1c0-0.1,0-0.2,0-0.4c0-0.1,0-0.2,0-0.3C63,10.9,64.2,11.4,65.5,11.9z M57.4,10.6L57.4,10.6
				c0,0-0.2,0.1-0.3,0.3c0,0,0,0,0,0C57.2,10.7,57.3,10.6,57.4,10.6C57.4,10.5,57.4,10.5,57.4,10.6z M59.9,10.9
				c0.1,0.4,0.1,0.8,0.2,1.2c0,0.1,0,0.2,0,0.2c-0.4-0.2-0.8-0.4-1.2-0.6c0-0.1-0.1-0.3-0.1-0.4c-0.1-0.3-0.2-0.6-0.2-1
				C59,10.6,59.4,10.8,59.9,10.9z M66.5,13.7c-0.1,0.1-0.3,0.3-0.4,0.4c-0.2,0.2-0.4,0.4-0.6,0.6c-0.1,0.1-0.2,0.1-0.3,0.2
				c-1.5-0.8-3-1.6-4.5-2.3c-0.1-0.6-0.2-1.1-0.4-1.6C62.4,11.8,64.5,12.6,66.5,13.7z M35.2,11.4c2.1,0.2,4.1,0.5,6.2,1
				c0.2,0.1,0.5,0.2,0.7,0.2c0.5,0.2,0.9,0.3,1.4,0.5c1,0.4,1.9,0.8,2.8,1.2c0.2,0.2,0.5,0.4,0.7,0.6c0,0,0.1,0,0.2,0
				c0,0,0-0.1,0-0.1c0.2,0.1,0.2,0.1,0.3,0.1c0.1,0.1,0.2,0.1,0.3,0.2c0.1,0.1,0.2,0.2,0.4,0.3c0.1,0.1,0.3,0.2,0.4,0.3
				c0.4,0.3,0.7,0.6,1,0.9c0.1,0.1,0.3,0.3,0.4,0.4c0.3,0.3,0.5,0.6,0.8,0.9c-1.1-0.6-2.2-1.3-3.3-1.9c-1.3-0.7-2.6-1.5-4-2.1
				c-0.9-0.5-1.9-0.9-2.8-1.3c-0.6-0.2-1.2-0.5-1.8-0.7c-0.4-0.1-0.9-0.2-1.3-0.3c-0.1,0-0.1,0-0.2,0.1c0,0.1,0,0.1,0.1,0.2
				c0.4,0.2,0.8,0.3,1.3,0.5c0.5,0.2,1,0.3,1.5,0.5c0.7,0.3,1.5,0.6,2.2,0.9c1.6,0.7,3.2,1.5,4.8,2.4c1.5,0.8,2.9,1.6,4.4,2.5
				c0,0,0.1,0,0.1,0s0-0.1,0-0.1c-0.2-0.1-0.5-0.3-0.7-0.4c0,0,0.1,0,0.1,0c0.1-0.1,0.1-0.2,0-0.3c-0.3-0.3-0.5-0.7-0.8-1
				c-0.2-0.3-0.5-0.6-0.8-0.8c0.3,0.1,0.6,0.3,0.8,0.4c0,0,0.1,0,0.1,0s0-0.1,0-0.1c-0.3-0.2-0.7-0.3-1-0.5c0,0,0,0,0-0.1
				c0-0.1,0-0.2-0.1-0.2c-0.4-0.2-0.8-0.4-1.2-0.6c-0.1-0.1-0.3-0.2-0.4-0.3c-0.7-0.4-1.3-0.8-2-1.2c0.2,0.1,0.3,0.1,0.5,0.2
				c0.6,0.2,1.3,0.5,1.9,0.8c0.5,0.2,1.1,0.5,1.6,0.8c0.5,0.2,1,0.5,1.4,0.8c-0.1,0.1-0.1,0.2-0.2,0.4c-0.1,0-0.1,0-0.2,0
				c0,0,0,0-0.1,0s0,0,0,0.1c0,0,0.1,0.1,0.1,0.1c-0.1,0.1-0.1,0.3-0.1,0.4c0,0.2-0.1,0.4,0.1,0.5c0,0,0,0,0,0l0,0.1l0.1,0
				c0,0,0,0,0,0c0,0,0,0,0,0l0.2,0.1l0,0.1c0,0,0,0.1,0.1,0.1c0,0,0,0,0,0c0,0.1,0.1,0.1,0.2,0.1c0,0,0,0,0,0c0,0,0,0,0.1,0l0.1,0
				l0.3,0.2c0.2,0.1,0.3,0.3,0.5,0.4c0.2,0.1,0.4,0.3,0.5,0.5c0.2,0.1,0.3,0.3,0.5,0.4c0.3,0.3,0.6,0.6,1,0.9
				c0.3,0.2,0.5,0.5,0.7,0.7c0.3,0.3,0.7,0.6,1,0.9c0,0,0.1,0,0.1,0.1c0,0.1,0.1,0.1,0.1,0.2c0,0.1,0,0.2,0,0.3
				c0.1,0.1,0.2,0.1,0.3,0.1c1.3,1.8,2.4,3.7,3.3,5.7c0.5,1,0.9,1.9,1.3,2.9c0.4,0.9,0.7,1.9,1,2.9c0.1,0.3,0.2,0.7,0.3,1
				c0.4,1.8,0.6,3.7,0.7,5.6c0,0.5,0.1,1.1,0.1,1.6c0.1,1.1,0.1,2.3,0,3.5c0,0.8,0,1.6-0.1,2.4c0,0.2-0.1,0.4-0.1,0.5
				c-0.1,0.5-0.2,1-0.4,1.5c-0.1,0.3-0.2,0.5-0.2,0.8c-0.1,0.3-0.2,0.6-0.3,0.9c-0.2,0.8-0.5,1.6-0.8,2.4c-0.1,0.1-0.1,0.3-0.2,0.4
				c0,0-0.1,0-0.1,0.1c0,0.1-0.1,0.2-0.1,0.2c0,0,0-0.1-0.1-0.1c0,0-0.1,0-0.1,0.1c-0.3,0.7-0.5,1.4-0.9,2c-0.3,0.6-0.6,1.2-1,1.8
				c0,0.1-0.1,0.1-0.1,0.2c0,0.1-0.1,0.1-0.1,0.2c-0.7,1.1-1.5,2.2-2.4,3.1c-0.1,0.1-0.2,0.2-0.2,0.2c-0.1,0.1-0.2,0.2-0.3,0.3
				c-0.1,0.1-0.3,0.3-0.4,0.4c-0.1,0.1-0.3,0.3-0.4,0.4c-0.4,0.3-0.8,0.7-1.2,1c0,0-0.1,0.1,0,0.2c0,0,0.1,0.1,0.2,0
				c0.2-0.1,0.4-0.3,0.6-0.4c-0.5,0.4-0.9,0.9-1.4,1.3c-0.9,0.8-1.8,1.5-2.8,2.2c-0.3,0.2-0.6,0.4-0.9,0.6c-0.7,0.5-1.3,0.9-2,1.3
				c-0.7,0.3-1.4,0.6-2.1,0.9c-0.6,0.2-1.2,0.4-1.7,0.6c-0.4,0.1-0.9,0.3-1.3,0.4c-0.7,0.2-1.4,0.5-2,0.7c-0.9,0.2-1.8,0.3-2.8,0.4
				c-1.3,0.2-2.6,0.3-3.9,0.3c-0.9,0-1.8,0.1-2.7,0.1c-0.7-0.1-1.5-0.3-2.2-0.4c-0.7-0.2-1.4-0.3-2.1-0.5c-1.1-0.3-2.2-0.6-3.2-0.9
				c-0.2-0.1-0.5-0.2-0.7-0.2c-0.3-0.1-0.6-0.3-0.9-0.4c-0.2-0.1-0.3-0.1-0.5-0.2c-0.3-0.2-0.7-0.3-1-0.5c0,0,0,0.1,0,0.1
				c0.1,0.1,0.2,0.2,0.3,0.3c-1.2-0.5-2.3-1-3.5-1.5c-0.5-0.3-1-0.5-1.6-0.8c-0.1-0.1-0.2-0.2-0.4-0.3c-0.4-0.3-0.8-0.6-1.2-1
				c-0.2-0.1-0.3-0.3-0.5-0.4c-0.1-0.1-0.3-0.2-0.4-0.4c-0.3-0.3-0.6-0.5-0.9-0.8c-0.5-0.5-1-1-1.5-1.5c-0.1-0.1-0.2-0.2-0.3-0.3
				c0.3,0.1,0.6,0.3,0.8,0.4c0.2,0.1,0.4,0.2,0.5,0.2c0.2,0.1,0.4,0.2,0.7,0.3c0.1,0,0.1,0,0.1-0.1s0-0.1-0.1-0.1
				c-0.2-0.1-0.4-0.2-0.7-0.3c-0.3-0.1-0.6-0.3-0.9-0.4c-0.3-0.2-0.7-0.3-1-0.5c-0.8-0.9-1.5-1.8-2.1-2.8c-0.8-1.2-1.4-2.4-1.9-3.7
				c0,0.1,0.1,0.2,0.1,0.4c0.1,0.3,0.2,0.7,0.3,1c-0.9-1.6-1.7-3.2-2.5-4.8c-0.3-0.7-0.5-1.5-0.8-2.2c-0.1-0.4-0.2-0.8-0.3-1.2
				c-0.6-2.9-0.8-5.8-0.7-8.8c0-0.4,0.1-0.8,0.1-1.3c0.1-1.6,0.3-3.2,0.6-4.8c0.1-0.8,0.3-1.6,0.5-2.4c0.1-0.4,0.2-0.8,0.3-1.2
				c0.1-0.4,0.3-0.8,0.4-1.2c0,0.1-0.1,0.1-0.1,0.2c-0.1,0.2-0.2,0.4-0.2,0.6c-0.2,0.5-0.5,1.1-0.6,1.6C3.2,33,3.1,33.3,3,33.5
				c0.1-0.2,0.1-0.5,0.2-0.7c0.2-0.6,0.3-1.2,0.5-1.8c0.1-0.3,0.2-0.6,0.3-0.9c0.2-0.6,0.5-1.1,0.7-1.7c0.2-0.5,0.4-1,0.6-1.5
				c0-0.1,0.1-0.2,0.1-0.2c0.2-0.3,0.4-0.7,0.6-1c0,0,0.1-0.1,0.2-0.3c0.2-0.3,0.5-0.5,0.7-0.8c0.9-0.9,1.8-1.9,2.7-2.9
				c0.4-0.4,0.7-0.7,1.1-1.1c0.2-0.2,0.3-0.3,0.5-0.5c0,0,0,0,0,0c0.1,0,0.1-0.1,0.2-0.1c0.8-0.5,1.8-0.9,2.7-1.2c0,0,0.1-0.1,0-0.1
				c0,0-0.1-0.1-0.1,0c-0.8,0.3-1.6,0.6-2.3,1c0.2-0.2,0.4-0.4,0.6-0.6c0.3-0.3,0.6-0.6,0.9-0.8c1.2-0.8,2.4-1.5,3.7-2.1
				c0.1,0,0.1-0.1,0.1-0.2c0-0.1-0.1-0.1-0.2-0.1c-0.7,0.3-1.3,0.6-2,1c0.2-0.1,0.4-0.3,0.6-0.4c0.2-0.1,0.4-0.3,0.6-0.4
				c0.1,0,0.1-0.1,0.2-0.1c0.2-0.1,0.4-0.1,0.6-0.2c0.5-0.2,0.9-0.3,1.4-0.5c1.4-0.6,2.9-1.2,4.3-1.7c0.3-0.1,0.6-0.2,0.9-0.3
				c0.2,0,0.3,0,0.5,0c0.1,0,0.1-0.1,0.1-0.1c0,0,0,0,0,0c0.5-0.2,1-0.3,1.5-0.5c0.5-0.1,1.1-0.1,1.7-0.1c0,0,0.1,0,0.1-0.1
				c0,0,0-0.1-0.1-0.1c-0.3,0-0.6,0-0.8,0c0.4-0.1,0.8-0.2,1.2-0.3c0.7-0.2,1.4-0.3,2.1-0.4c1.2-0.1,2.4-0.1,3.6,0
				c1.3,0.1,2.5,0.3,3.7,0.6c0.5,0.1,1,0.3,1.5,0.4c0,0,0.1,0,0.1,0s0-0.1,0-0.1c-0.5-0.1-1-0.3-1.5-0.4c-1.1-0.3-2.2-0.4-3.3-0.6
				c-0.7-0.1-1.4-0.1-2-0.1c0.9-0.1,1.8-0.1,2.7-0.1C34.6,11.4,34.9,11.4,35.2,11.4z M40.8,11.7c0.4,0,0.8,0.1,0.2,0c0,0,0,0,0,0
				C40.9,11.7,40.8,11.7,40.8,11.7z M58.1,12c0.2,0.1,0.4,0.1,0.6,0.2c0,0,0,0,0,0c0,0.3,0.1,0.6,0.1,0.9c-0.1,0-0.1-0.1-0.2-0.1
				c-0.4-0.2-0.9-0.4-1.3-0.6c0-0.2-0.1-0.5-0.1-0.8C57.5,11.8,57.8,11.9,58.1,12z M56.9,12.1c0,0,0,0.1,0,0.1
				C56.8,12.2,56.8,12.2,56.9,12.1c-0.1,0.1-0.2,0-0.2,0c0.1-0.1,0.1-0.2,0.2-0.2C56.8,12,56.8,12,56.9,12.1z M54.8,12.7
				c0.1-0.2,0.2-0.3,0.3-0.5c0,0,0.1-0.1,0.1-0.1C55.1,12.4,55,12.5,54.8,12.7z M60.1,12.8C60.1,12.8,60.1,12.8,60.1,12.8
				c0,0.2,0.1,0.3,0.3,0.3c0.1,0,0.1,0,0.2-0.1c1.5,0.6,3,1.4,4.5,2.1c-0.3,0.2-0.6,0.4-0.9,0.6c-0.6-0.3-1.3-0.6-1.9-0.9
				c-0.7-0.3-1.3-0.6-2-1c-0.3-0.2-0.7-0.3-1-0.5c0-0.1,0-0.1,0-0.2c0-0.3-0.1-0.6-0.2-0.8C59.4,12.5,59.8,12.6,60.1,12.8z
				 M56.4,12.6c0.2,0.1,0.3,0.1,0.5,0.2c0.1,0.4,0.1,0.8,0.2,1.2c-0.4-0.2-0.9-0.5-1.3-0.8c0,0,0,0-0.1,0c0.2-0.2,0.4-0.5,0.5-0.7
				C56.4,12.5,56.4,12.5,56.4,12.6z M58.6,13.4c0.1,0,0.2,0.1,0.2,0.1c0,0.3,0,0.5,0,0.8c0,0.1,0.1,0.3,0.2,0.3s0.3-0.1,0.3-0.2
				c0-0.2,0-0.4,0-0.6c1,0.4,2,0.9,3.1,1.3c0.6,0.2,1.2,0.5,1.7,0.7c-0.4,0.3-0.8,0.6-1.3,0.9c-0.9-0.3-1.7-0.7-2.5-1
				c-0.9-0.4-1.8-0.9-2.7-1.4c0,0,0,0,0,0c-0.1-0.4-0.1-0.7-0.2-1.1c0-0.1,0-0.2,0-0.2C57.8,13.1,58.2,13.2,58.6,13.4z M55.8,13.2
				C55.8,13.2,55.7,13.2,55.8,13.2l-0.1,0C55.7,13.2,55.7,13.2,55.8,13.2z M55.7,13.3L55.7,13.3L55.7,13.3z M55.3,14L55.3,14
				c0.2,0.2,0.3,0.3,0.4,0.4c0,0,0,0-0.1,0c-0.1,0-0.2-0.1-0.3-0.1C55.4,14.2,55.3,14.1,55.3,14L55.3,14z M55.1,14.2
				C55.1,14.2,55.1,14.2,55.1,14.2C55.1,14.1,55.1,14.1,55.1,14.2C55.1,14.1,55.1,14.1,55.1,14.2z M54.8,14.7
				c0.1,0.1,0.2,0.1,0.4,0.2c0,0.1,0,0.2,0,0.3c0,0.1,0,0.1,0.1,0.1c0.1,0,0.1,0,0.1-0.1c0-0.1,0-0.1,0-0.2c0.2,0.1,0.4,0.2,0.5,0.2
				c0,0,0,0,0,0c0.4,0.4,0.9,0.7,1.3,1c-0.1-0.1-0.3-0.1-0.4-0.2c-0.9-0.4-1.7-0.8-2.6-1.1l0.1-0.1c0.1,0,0.2,0,0.3-0.1
				C54.7,14.7,54.7,14.7,54.8,14.7C54.7,14.6,54.7,14.7,54.8,14.7z M59.5,15.5c1.1,0.4,2.1,0.8,3.2,1.2c-0.1,0.1-0.2,0.1-0.3,0.2
				c-0.4,0.3-0.7,0.5-1.1,0.8c-0.4-0.2-0.7-0.4-1.1-0.6c-0.4-0.2-0.8-0.4-1.1-0.7c-0.1-0.1-0.2-0.1-0.3-0.2
				c-0.2-0.3-0.5-0.5-0.7-0.8c-0.2-0.2-0.4-0.4-0.6-0.6c0-0.1,0-0.2,0-0.2C58.3,15,58.9,15.2,59.5,15.5z M55.8,16.1
				c0.3,0.1,0.5,0.2,0.8,0.3c0.1,0.1,0.3,0.1,0.4,0.2c0.3,0.1,0.6,0.2,1,0.3c0.1,0,0.2,0,0.3,0.1c0,0,0,0,0.1,0
				c0.3,0.3,0.6,0.7,0.9,1l0.6,0.7c-0.2,0.1-0.4,0.3-0.5,0.4c-0.3,0.2-0.7,0.5-1,0.8c-0.2,0.2-0.5,0.4-0.7,0.6
				c-0.2,0.1-0.2,0.4,0,0.5c0,0,0,0-0.1,0c-0.1,0.1-0.2,0.1-0.3,0.2c-0.1,0-0.2,0.1-0.2,0.1c0,0,0,0,0,0c-0.1-0.1-0.2-0.2-0.3-0.4
				c-0.3-0.3-0.6-0.6-0.9-0.8c-0.4-0.3-0.8-0.7-1.2-1c-0.2-0.2-0.5-0.4-0.7-0.5c0,0-0.1,0-0.1,0c0,0,0,0.1,0,0.1
				c0.5,0.4,0.9,0.8,1.3,1.2c0,0,0,0,0,0c0,0-0.1,0.1-0.1,0.1c-0.1-0.1-0.2-0.2-0.3-0.3c-0.5-0.5-1-0.9-1.5-1.4
				c-0.2-0.2-0.5-0.4-0.7-0.6l-0.4-0.3l0.1-0.1c0-0.1,0.1-0.1,0.1-0.2c0,0,0,0,0.1,0c0.8,0.3,1.5,0.6,2.2,0.9
				c0.5,0.2,0.9,0.3,1.4,0.4c0.1,0,0.2,0,0.2-0.1s0-0.2-0.1-0.2c-0.2-0.1-0.4-0.1-0.7-0.2c-0.2-0.1-0.4-0.1-0.6-0.2
				c-0.2-0.1-0.4-0.2-0.6-0.2c-0.4-0.2-0.9-0.4-1.3-0.6c0,0,0,0,0,0c0.1-0.1,0-0.2,0-0.2c-0.1,0-0.1-0.1-0.2-0.1
				c0.1-0.1,0.2-0.3,0.3-0.4c1.3,0.5,2.6,0.9,3.7,1.8c0.1,0.1,0.2,0,0.2,0c0.1-0.1,0-0.2,0-0.2c-0.3-0.2-0.5-0.4-0.8-0.6
				c-0.2-0.1-0.5-0.3-0.7-0.4c-0.5-0.3-1-0.5-1.5-0.7c-0.2-0.1-0.4-0.2-0.6-0.3c0.1-0.1,0.1-0.2,0.2-0.3l0.1-0.1l0,0
				C54.5,15.6,55.2,15.8,55.8,16.1z M14,17.2c-0.8,0.6-1.6,1.3-2.4,2c-1.1,0.9-2.1,1.8-3.1,2.9c0.6-0.8,1.2-1.6,1.9-2.3
				c1.2-1.1,2.6-2,4-2.9c0.1-0.1,0.2-0.1,0.3-0.2C14.4,16.9,14.2,17,14,17.2z M29.9,17.2c-0.4,0-0.7,0.1-1.1,0.2
				c-0.6,0.1-1.1,0.2-1.7,0.4c-0.3,0.1-0.6,0.2-0.9,0.4c-0.1,0-0.2,0.1-0.3,0.1c-0.2,0.1-0.4,0.2-0.6,0.3c0,0,0,0,0,0
				c-0.1,0-0.2,0-0.3,0.1c-0.5,0.2-1,0.4-1.5,0.6c-1,0.4-1.9,0.9-2.8,1.5c0,0-0.1,0.1,0,0.1c0,0,0.1,0.1,0.1,0
				c0.3-0.1,0.7-0.3,1.1-0.4c0.3-0.1,0.6-0.2,0.9-0.3c0.7-0.2,1.4-0.5,2.2-0.7c0.8-0.2,1.6-0.5,2.4-0.7c0.5-0.1,1-0.2,1.5-0.3
				c0.5-0.1,1-0.2,1.5-0.3c0.2,0,0.3-0.1,0.5-0.1c0.2,0,0.4,0,0.6-0.1c-0.4,0.3-0.8,0.5-1.2,0.8c-0.6,0.4-1.1,0.8-1.7,1.3
				c-0.2,0.2-0.4,0.4-0.6,0.6c-0.3,0.3-0.6,0.6-0.9,0.8c-1.1,1-2.2,2-3.3,3.1l0,0.1l0.1,0c1.1-1.1,2.2-2.1,3.4-3.1
				c0.5-0.4,1-0.8,1.5-1.2c0.3-0.2,0.5-0.4,0.8-0.6c0.7-0.6,1.5-1.1,2.2-1.6c0.1,0,0.1-0.1,0-0.2c0,0,0,0,0,0c0,0,0.1,0,0.1,0
				c0.3,0,0.6,0,0.9-0.1c0.2,0,0.5,0,0.7,0c0.8,0,1.6,0,2.4,0c0.1,0,0.1,0,0.2,0c0.2,0,0.5,0.1,0.7,0.1c0.2,0,0.4,0.1,0.5,0.1
				c-0.8,0-1.6,0-2.4,0c-0.1,0-0.1,0-0.1,0.1s0,0.1,0.1,0.1c1.1,0.1,2.2,0.3,3.3,0.5c-0.4,0.2-0.7,0.5-1.1,0.7
				c-0.9,0.6-1.7,1.2-2.5,1.9c0,0-0.1,0-0.1-0.1c0,0,0,0,0,0c0.1,0,0.1,0,0.2,0.1c-0.4,0.3-0.8,0.7-1.2,1.1c-0.7,0.6-1.3,1.3-2,2
				c-0.6,0.6-1.2,1.2-1.8,1.9c0,0,0,0.1,0,0.1s0.1,0,0.1,0c0.8-0.8,1.6-1.6,2.5-2.4c0.4-0.4,0.8-0.8,1.3-1.1
				c0.2-0.1,0.3-0.3,0.5-0.4c0.3-0.3,0.6-0.6,1-0.8c0.1,0.1,0.3,0.2,0.4,0.3c0.1,0,0.1,0.1,0.2,0.1c0,0,0,0,0.1,0c0,0,0.1,0,0.1,0.1
				c0.2,0.1,0.2,0.1,0.3,0.2c0,0,0.1,0,0.1,0c0,0-0.1,0-0.1,0c-0.1,0-0.2-0.1-0.3-0.2c0,0-0.1,0-0.2-0.1c-0.2-0.1-0.4-0.2-0.5-0.3
				c0,0,0,0-0.1,0c0,0,0.1-0.1,0.1-0.1c1.1-0.9,2.3-1.8,3.7-2.6c0.4,0.1,0.8,0.2,1.2,0.2c0.2,0,0.4,0.1,0.7,0.2
				c0.5,0.1,0.9,0.2,1.4,0.4c0.6,0.2,1.2,0.4,1.8,0.6c0.2,0.1,0.5,0.2,0.7,0.3c0.1,0,0.1,0,0.2,0.1c-0.2,0.1-0.3,0.2-0.5,0.3
				c-0.9,0.5-1.8,1.1-2.7,1.8c-0.5,0.4-1.1,0.8-1.6,1.2c-0.6,0.5-1.2,1-1.9,1.5c-0.9,0.7-1.8,1.3-2.8,1.9c0,0,0,0.1,0,0.1
				c0,0,0.1,0,0.1,0c0.2-0.2,0.5-0.3,0.7-0.5c0.2-0.1,0.4-0.2,0.6-0.4c0.4-0.3,0.9-0.6,1.3-0.9c1.1-0.8,2.2-1.6,3.3-2.4
				c1.3-0.9,2.5-1.8,3.9-2.5c0.1,0,0.2,0.1,0.3,0.1c0.8,0.4,1.6,0.9,2.3,1.4c0.3,0.2,0.6,0.4,0.9,0.6c0.3,0.2,0.7,0.5,1,0.7
				c0.1,0.1,0.2,0.1,0.2,0.2c0,0,0.1,0.1,0.1,0.1c0,0-0.1,0-0.1,0.1c-0.1,0.1,0,0.2,0,0.2c0.2,0.1,0.4,0.3,0.5,0.4
				c-0.2,0.1-0.3,0.2-0.5,0.3c0-0.2,0-0.3,0-0.5c0-0.2-0.2-0.4-0.4-0.4c-0.2,0-0.4,0.2-0.4,0.4c0,0.2,0,0.5,0.1,0.7c0,0,0,0,0,0
				c-0.5,0.3-1,0.5-1.5,0.8c-0.8,0.5-1.5,0.9-2.3,1.6l0,0c1.1-0.9,2.4-1.6,3.7-2.2c0,0,0,0,0,0.1c-0.1,0.1-0.2,0.2-0.2,0.3
				c0,0.6,0,1.2-0.2,1.8c-1.1,0.8-2.3,1.6-3.4,2.4c-0.6,0.4-1.2,0.8-1.8,1.1c0,0,0,0.1,0,0.1c0,0,0.1,0,0.1,0
				c0.3-0.2,0.6-0.4,0.9-0.5c0.6-0.4,1.1-0.7,1.7-1.1c0.8-0.5,1.6-1.1,2.5-1.6c-0.1,0.3-0.2,0.6-0.3,0.8c0,0,0,0,0,0
				c-0.3,0.2-0.5,0.3-0.8,0.5c-0.4,0.2-0.7,0.4-1.1,0.7c-0.5,0.3-1,0.5-1.5,0.8c-0.9,0.5-1.9,0.9-2.8,1.4c-1.5,0.5-2.9,1.2-4.2,2
				c-0.1-0.1-0.3-0.1-0.4,0c0.3-0.2,0.7-0.5,1-0.7c1.1-0.7,2.3-1.3,3.4-2c0.1,0,0.1-0.1,0.1-0.2s-0.1-0.1-0.2-0.1
				c-1.1,0.5-2.1,1.1-3,1.7c-0.3,0.2-0.5,0.4-0.8,0.6c-0.3,0.2-0.6,0.5-0.9,0.7c-0.3,0.2-0.5,0.4-0.8,0.7c-0.4,0.3-0.7,0.7-1.1,1.1
				c0,0,0,0-0.1,0c-0.2,0.1-0.4,0.2-0.6,0.4c-0.1,0-0.2,0-0.3-0.1c-0.3-0.1-0.7-0.1-1-0.1c0.1-0.1,0.2-0.1,0.3-0.2
				c0.1,0,0.1-0.1,0.1-0.2c0-0.1-0.1-0.1-0.2-0.1c-0.2,0.1-0.5,0.3-0.7,0.4c0,0-0.1,0.1-0.1,0.1c-0.1,0-0.2,0-0.3,0
				c0,0,0.1-0.1,0.1-0.1c0-0.1-0.1-0.2-0.2-0.2c-0.3,0-0.7-0.1-1,0c-0.5,0.1-1,0.2-1.5,0.5c0,0,0,0-0.1,0l-0.1,0l0-0.3
				c0-0.2,0-0.4,0-0.6c0,0,0.1,0,0.1,0c0.1-0.1,0.2-0.3,0.1-0.4c0,0-0.1-0.1-0.1-0.1c0-0.3,0-0.5,0.1-0.8c0-0.1-0.1-0.2-0.2-0.2
				c-0.1,0-0.2,0.1-0.2,0.2c0,0.1,0,0.3,0,0.4c-0.3-0.3-0.6-0.6-0.9-0.8c0-0.1,0-0.2-0.1-0.3c-0.3-0.1-0.5-0.3-0.8-0.4
				c-0.1-0.1-0.2-0.1-0.3-0.2c-0.5-0.3-0.9-0.5-1.4-0.8c-0.6-0.3-1.2-0.6-1.8-0.9c-0.4-0.2-0.8-0.4-1.2-0.6
				c-0.7-0.4-1.5-0.8-2.2-1.2c-0.4-0.2-0.7-0.5-1.1-0.7c-0.2-0.1-0.4-0.3-0.6-0.5c-0.2-0.4-0.5-0.9-0.7-1.3c-0.5-1-0.9-2-1-3.2
				c0-0.1,0-0.2,0-0.2c0,0-0.1-0.1-0.1-0.1c0-0.1,0-0.3,0-0.4c0-0.1-0.1-0.1-0.1-0.1c0-0.1,0.1-0.3,0.2-0.4c0-0.1,0-0.2,0-0.2
				c0.1,0,0.1-0.1,0.2-0.1c0.6-0.4,1.2-0.8,1.8-1.1c0.4-0.2,0.8-0.5,1.2-0.7c0.9-0.5,1.8-0.9,2.8-1.4c1.3-0.6,2.5-1.2,3.7-1.9
				c0,0,0,0,0-0.1c0,0,0,0-0.1,0c-1.2,0.4-2.4,0.8-3.5,1.3c-1,0.4-2,0.9-2.9,1.5c-0.4,0.2-0.8,0.5-1.2,0.7c-0.5,0.3-0.9,0.6-1.4,0.9
				c0,0-0.1,0-0.1,0.1c-0.6,0.3-1.1,0.6-1.6,1c-0.3,0.3-0.6,0.6-1,0.8c-0.2,0.2-0.4,0.4-0.6,0.6c-0.3,0.3-0.6,0.6-0.9,0.9
				c-1.2,1.2-2.2,2.4-3.1,3.9c-0.8,1.2-1.4,2.5-1.8,3.9c0,0,0,0.1,0,0.1c0,0,0.1,0,0.1,0c0.3-0.8,0.6-1.5,0.9-2.2
				c0.1-0.2,0.2-0.4,0.3-0.6c0.2-0.5,0.5-0.9,0.8-1.3c0.2-0.3,0.4-0.6,0.7-0.9c0.5-0.6,1-1.3,1.6-1.8c0.1-0.1,0.2-0.2,0.3-0.3
				c-0.1,0.2-0.2,0.3-0.3,0.5c-0.4,0.6-0.7,1.2-1.1,1.8c-0.2,0.2-0.3,0.3-0.5,0.5c-0.2,0.3-0.5,0.5-0.7,0.8C10,30,9.7,30.7,9.4,31.3
				c-0.7,1.4-1.4,3-1.8,4.5c-0.1,0.4-0.3,0.9-0.3,1.4c-0.1,0.5-0.2,1.1-0.3,1.6c-0.2,1.1-0.3,2.1-0.3,3.2c0,0.4,0,0.8,0,1.2
				c0,0.4,0,0.7,0.1,1.1c0,0.6,0.1,1.2,0.2,1.7c0.1,0.6,0.2,1.2,0.3,1.8c0.2,0.7,0.3,1.4,0.6,2c0,0.1,0,0.3,0.1,0.4
				c0,0,0,0.1,0.1,0.1c0.3,0.9,0.3,1.1,0.4,1.3c0.2,0.4,0.3,0.8,0.5,1.1c0.1,0.3,0.3,0.5,0.4,0.8c0.1,0.2,0.2,0.3,0.3,0.5
				c0,0.1,0,0.1,0.1,0.2c0.1,0.2,0.2,0.5,0.3,0.7c0,0,0.1,0.1,0.1,0.1c0,0,0.1-0.1,0.1-0.1c0-0.1,0-0.1-0.1-0.2
				c0.2,0.4,0.5,0.7,0.8,1c0.1,0.2,0.3,0.3,0.4,0.4c0,0,0.1,0,0.1,0s0-0.1,0-0.1c-0.4-0.4-0.7-0.8-1-1.3c-0.2-0.3-0.3-0.5-0.5-0.8
				c-0.1-0.3-0.2-0.5-0.3-0.8c-0.1-0.4-0.2-0.8-0.4-1.2c0-0.1,0-0.1-0.1-0.2c0.4,0.7,0.9,1.4,1.4,2c0.4,0.9,0.8,1.8,1.3,2.6
				c0.2,0.4,0.5,0.8,0.7,1.2c-0.1-0.1-0.3-0.2-0.4-0.3c-0.2-0.2-0.4-0.4-0.6-0.6c0,0-0.1,0-0.1,0c0,0,0,0.1,0,0.1
				c0.4,0.7,0.9,1.4,1.4,2c0.2,0.2,0.4,0.5,0.7,0.7l0,0l0,0c0,0,0,0,0.1,0.1c0.4,0.4,0.4,0.4,0.5,0.5c0.4,0.3,0.8,0.6,1.2,0.9
				c0.4,0.3,0.7,0.5,1.1,0.8c0.1,0.1,0.2,0.1,0.3,0.2c0.1,0.1,0.2,0.2,0.4,0.3c0.3,0.2,0.5,0.4,0.8,0.6c0.4,0.3,0.8,0.5,1.2,0.8
				c0.1,0.1,0.2,0.2,0.4,0.2c0.1,0.1,0.2,0.2,0.3,0.4c0.1,0.1,0.1,0.1,0.2,0c0,0,0.1-0.1,0.1-0.1c0.1,0.1,0.2,0.1,0.4,0.2
				c0,0-0.1,0-0.1,0c0.1,0.1,0.2,0.2,0.3,0.3c0.3,0.2,0.6,0.4,0.9,0.6c1,0.7,2.2,1.1,3.4,1.6c0.4,0.2,0.9,0.3,1.4,0.4c0,0,0,0,0,0
				c0,0,0,0.1,0,0.1c0.3,0.1,0.6,0.2,0.9,0.3c0.2,0.1,0.5,0.1,0.7,0.2c0.2,0,0.3,0.1,0.5,0.1c0.8,0.2,1.3,0.4,1.8,0.4
				c0.4,0.2,0.8,0.5,1.2,0.7c0.5,0.3,1.1,0.6,1.6,0.9c0,0,0.1,0,0.1,0c0,0,0-0.1,0-0.1c-0.3-0.2-0.6-0.3-0.9-0.5
				c-0.5-0.3-1-0.6-1.4-0.9c1,0.2,2.1,0.2,3.2,0.2c0.7,0,1.4,0,2-0.1c1.5-0.1,3-0.4,4.5-0.8c0.5-0.1,0.9-0.3,1.4-0.4
				c0.6-0.2,1.1-0.4,1.7-0.6c0.1,0,0.1-0.1,0.1-0.2c0-0.1-0.1-0.1-0.2-0.1c-0.8,0.3-1.6,0.5-2.4,0.8c-0.7,0.2-1.3,0.3-2,0.5
				c-0.5,0.1-1,0.2-1.4,0.2c-0.8,0.1-1.7,0.2-2.5,0.2c-0.5,0-0.9,0-1.8-0.1c0.2,0,0.5,0,0.7,0c0.6,0,1.2-0.1,1.8-0.1
				c0.3,0,0.6-0.1,0.9-0.1c0.3,0,0.5-0.1,0.8-0.2c0.2,0,0.3-0.1,0.5-0.1c0.1,0,0.1,0,0.2-0.1c0.4-0.1,0.8-0.2,1.2-0.3
				c0.3-0.1,0.6-0.2,0.9-0.3c0.1,0,0.3-0.1,0.4-0.1c0.2-0.1,0.4-0.2,0.7-0.2c0.7-0.3,1.3-0.5,2-0.9c0.4-0.2,0.9-0.4,1.3-0.7
				c0.2-0.1,0.5-0.3,0.8-0.4c0.2-0.2,0.5-0.3,0.7-0.5c0.4-0.3,0.9-0.6,1.3-0.9c0,0,0,0,0,0c-0.3,0.2-0.6,0.5-0.9,0.7
				c-0.3,0.2-0.6,0.4-1,0.7c-0.5,0.3-0.9,0.6-1.4,0.8c-0.4,0.2-0.9,0.4-1.3,0.6c-0.2,0.1-0.3,0.2-0.5,0.2c-0.3,0.1-0.5,0.2-0.8,0.3
				c-0.1,0-0.1,0.1-0.1,0.1c0,0.1,0.1,0.1,0.1,0.1c0.3-0.1,0.6-0.1,0.9-0.2c0.7-0.2,1.3-0.4,1.9-0.7c0.6-0.3,1.1-0.6,1.6-0.9
				c0,0,0,0,0,0.1c0,0,0.1,0.1,0.1,0c0.9-0.5,1.9-1,2.7-1.7c0.6-0.5,1.1-1,1.6-1.5c0.6-0.6,1.1-1.3,1.6-1.9c0.3-0.4,0.6-0.9,1-1.3
				c-0.1,0.2-0.2,0.3-0.2,0.5c-0.3,0.5-0.6,1-0.8,1.6c0,0,0,0.1,0,0.1c0,0,0.1,0,0.1,0c0.3-0.5,0.7-0.9,1-1.4
				c0.3-0.4,0.5-0.8,0.7-1.2c0.4-0.7,0.8-1.3,1.1-2c0.2-0.5,0.5-1,0.7-1.6c0-0.1,0.1-0.2,0.1-0.3c0.2-0.4,0.4-0.8,0.6-1.2
				c0.3-0.6,0.5-1.2,0.7-1.8c0.1-0.2,0.1-0.4,0.2-0.6c0.2-0.5,0.4-1.1,0.5-1.7c0.1-0.4,0.2-0.9,0.3-1.3c0.1,0,0.1,0.1,0.2,0.1
				c0.4,0.3,0.8,0.7,1.3,1.1c0.4,0.4,0.8,0.7,1.3,1c0,0,0.1,0,0.1,0s0-0.1,0-0.1c-0.4-0.3-0.7-0.6-1.1-0.9c-0.2-0.2-0.5-0.4-0.7-0.6
				c-0.3-0.2-0.5-0.5-0.8-0.7c-0.1-0.1-0.1-0.1-0.2-0.2c0.2-0.7,0.3-1.3,0.3-2c0.1-0.6,0.1-1.3,0.1-1.9c0-0.2,0-0.5,0-0.8
				c0-0.4-0.1-0.9-0.2-1.3c-0.1-0.3-0.1-0.6-0.2-0.9c-0.1-0.3-0.2-0.7-0.3-1c0,0,0,0-0.1-0.1c0-1.8-0.2-3.6-0.8-5.3
				c-0.2-0.6-0.5-1.2-0.8-1.7c-0.3-0.8-0.7-1.6-1.1-2.4c-0.2-0.4-0.4-0.8-0.7-1.2c-0.5-0.8-1.1-1.6-1.7-2.3
				c-0.2-0.2-0.4-0.5-0.6-0.7c-0.2-0.3-0.4-0.6-0.6-0.9c-0.3-0.3-0.6-0.7-0.8-1c-0.1-0.2-0.3-0.3-0.4-0.4c-0.7-0.8-1.6-1.5-2.4-2.1
				c-0.1,0-0.1,0-0.2,0c0,0.1,0,0.1,0,0.2c0.9,0.6,1.6,1.3,2.3,2.1c0.2,0.2,0.5,0.5,0.7,0.8c-0.2-0.2-0.4-0.3-0.6-0.5
				c-0.5-0.4-0.9-0.7-1.4-1.1c-0.9-0.6-1.9-1.3-2.9-1.8c0,0,0,0,0,0c-0.4-0.3-0.9-0.6-1.3-0.8c-0.4-0.2-0.7-0.4-1.1-0.6
				c-0.6-0.3-1.3-0.6-2-0.8c-1.8-0.6-3.7-1-5.5-1.2c-0.1,0-0.2,0-0.3,0c-0.1,0-0.3-0.1-0.4-0.1c-0.6-0.1-1.3-0.2-1.9-0.3
				c-0.6,0-1.1-0.1-1.7-0.1C31.1,17.1,30.5,17.2,29.9,17.2z M61,18c-0.2,0.1-0.3,0.2-0.4,0.4c-0.1-0.1-0.1-0.2-0.2-0.2
				c-0.1-0.2-0.3-0.4-0.4-0.6c-0.1-0.1-0.1-0.2-0.2-0.2C60.1,17.5,60.5,17.7,61,18z M39.6,18.6c0.5,0.1,1,0.2,1.4,0.4
				c0.1,0,0.3,0.1,0.4,0.1c-0.5-0.2-1-0.3-1.6-0.4c0,0-0.1,0-0.1-0.1c-0.2-0.1-0.3-0.1-0.5-0.2c0,0,0,0,0,0
				C39.5,18.6,39.5,18.6,39.6,18.6z M31.5,20.8c-0.7,0.5-1.4,1.1-2.1,1.7c-1.3,1-2.5,2-3.7,3.1c0,0,0,0.1,0,0.1c0,0,0.1,0,0.1,0
				c1.9-1.7,3.9-3.1,5.9-4.7c0.7-0.5,1.3-1.1,2-1.7c0.1,0,0.1-0.1,0-0.2c0-0.1-0.1-0.1-0.2,0C32.9,19.7,32.2,20.3,31.5,20.8z
				 M39.3,21.3c-1.5,0.9-2.9,1.9-4.3,3c-0.5,0.4-1,0.9-1.5,1.3c-0.3,0.3-0.6,0.6-0.9,1c-0.2,0.2-0.3,0.4-0.5,0.6c0,0,0,0.1,0,0.1
				c0,0,0.1,0,0.1,0c0.7-0.9,1.5-1.7,2.3-2.4c0.3-0.2,0.6-0.5,0.8-0.7c0.6-0.4,1.2-0.8,1.8-1.2c0.5-0.3,1-0.7,1.6-1
				c0.9-0.6,1.8-1.1,2.7-1.7c0.1-0.1,0.1-0.2,0.1-0.2c-0.1-0.1-0.2-0.1-0.2-0.1C40.6,20.5,40,20.9,39.3,21.3z M56.3,21.2L56.3,21.2
				L56.3,21.2c0,0-0.1-0.1-0.1-0.1C56.2,21.1,56.3,21.1,56.3,21.2z M22.7,21.4c-0.4,0.5-0.8,0.7-1.3,1.1c-0.1,0.1-0.3,0.2-0.4,0.3
				c-0.1,0.1-0.2,0.2-0.3,0.3c-0.2,0.2-0.3,0.4-0.4,0.6c0,0,0,0.1,0,0.1c0,0,0.1,0,0.1,0c0.1-0.4,0.7-0.8,1-1.1
				c0.3-0.2,0.7-0.5,1.1-0.7c0.1-0.1,0.2-0.2,0.3-0.3c0-0.1,0-0.1,0-0.2S22.8,21.4,22.7,21.4z M34.1,21.6
				C34.1,21.6,34.1,21.6,34.1,21.6C34.1,21.6,34.1,21.6,34.1,21.6z M7.7,22.9c-0.3,0.3-0.5,0.6-0.8,1c-0.1,0.2-0.3,0.4-0.4,0.6
				c-0.2,0.2-0.2,0.3-0.3,0.4c0-0.1,0.1-0.2,0.1-0.3c0,0,0,0,0-0.1c0.2-0.4,0.5-0.7,0.7-1.1c0.4-0.6,0.8-1.1,1.3-1.6
				C8,22.2,7.9,22.6,7.7,22.9z M22.1,23.7L22.1,23.7c0.2-0.1,0.4-0.2,0.6-0.4c0.3-0.2,0.5-0.4,0.8-0.5c0.2-0.1,0.4-0.3,0.7-0.4
				c0.2-0.2,0.5-0.3,0.8-0.4c0,0,0,0,0-0.1c0,0,0,0-0.1,0C23.8,22.3,23,23.1,22.1,23.7z M57.5,22.6c-0.1,0-0.1,0-0.2,0
				c-0.1-0.1-0.1-0.2-0.2-0.2c0,0,0.1,0,0.1-0.1C57.3,22.4,57.4,22.5,57.5,22.6z M45.7,22.9c-0.1,0.1-0.2,0.2-0.4,0.3
				c-0.2,0.2-0.4,0.4-0.7,0.6c-0.2,0.1-0.3,0.3-0.5,0.4c-0.3,0.3-0.6,0.5-1,0.8c-0.3,0.2-0.6,0.4-0.8,0.7c-1,0.8-2.1,1.6-3.1,2.4
				c-0.4,0.3-0.8,0.6-1.2,1c0,0,0,0.1,0,0.1c0,0,0.1,0,0.1,0c1.1-0.9,2.3-1.8,3.5-2.7c0.6-0.4,1.1-0.8,1.7-1.3
				c1.1-0.8,2.1-1.6,3.1-2.5c0.1-0.1,0.1-0.2,0-0.3c-0.1-0.1-0.2-0.1-0.3,0C46,22.6,45.9,22.8,45.7,22.9z M57.3,22.8
				c0.1,0.1,0.2,0.2,0.2,0.4C58.1,23.9,57.8,23.4,57.3,22.8C57.3,22.8,57.3,22.8,57.3,22.8z M57.7,22.9L57.7,22.9
				c0.1,0.1,0.2,0.2,0.2,0.2c0.6,0.8,1.2,1.7,1.7,2.5c0.5,0.8,0.9,1.6,1.3,2.4c0.1,0.2,0.2,0.5,0.3,0.7c0.1,0.2,0.2,0.5,0.3,0.7
				c0.1,0.3,0.2,0.6,0.4,0.9c0,0.1,0.1,0.2,0.1,0.3c-0.1-0.3-0.2-0.6-0.4-0.9c-0.1-0.3-0.3-0.6-0.4-0.9c-0.2-0.5-0.5-1-0.7-1.4
				c-0.2-0.3-0.4-0.7-0.6-1c-0.4-0.6-0.8-1.3-1.2-1.9c-0.2-0.3-0.4-0.5-0.5-0.8c-0.2-0.3-0.4-0.6-0.6-0.8
				C57.6,22.8,57.6,22.9,57.7,22.9z M16.1,23.8C16.1,24,16,24.2,16,24.4c-0.1,0.3-0.1,0.7-0.1,1c0,0.1,0,0.2,0,0.2
				c0,0.3,0.1,0.6,0.2,0.8c0.3,1,1.1,1.8,1.9,2.5c0,0.1,0.1,0.2,0.1,0.2c0.1,0.1,0.2,0.2,0.4,0.2c0.2,0.2,0.4,0.3,0.6,0.5
				c0.3,0.2,0.5,0.3,0.8,0.5c0.1,0.1,0.3,0.2,0.4,0.3c0.3,0.2,0.6,0.4,0.9,0.5c0.6,0.3,1.2,0.7,1.8,1c-0.1,0-0.2-0.1-0.3-0.1
				c-1.1-0.4-2.2-0.9-3.2-1.5c-0.4-0.2-0.8-0.4-1.1-0.6l-1-0.7l-0.1-0.1c0-0.1-0.2-0.2-0.3-0.3l0,0v-0.5c0-0.1-0.1-0.1-0.1-0.1
				s-0.1,0.1-0.1,0.1c0,0.1,0,0.6,0,0.6c0.1,0.1,0.2,0.2,0.2,0.2c0,0,0.1,0.1,0.1,0.1c0,0,0,0.1,0,0.1l0,0c0.3,0.2,0.6,0.4,0.9,0.6
				c0.4,0.2,0.7,0.4,1.1,0.7c1.3,0.8,2.7,1.4,4.1,2.1c0.6,0.3,1.3,0.6,1.9,0.9c0.4,0.2,0.9,0.4,1.4,0.5c0.2,0.1,0.4,0.1,0.6,0.2
				c0.7,0.5,1.4,1,1.9,1.6c-0.1,0.5-0.1,1-0.2,1.5c-0.5,0.3-0.9,0.8-1.3,1.2c-0.6,0.5-1.1,1.1-1.5,1.8c-0.2,0.3-0.4,0.6-0.6,0.9
				c-0.2,0.4-0.4,0.8-0.6,1.2c-0.1,0.1-0.1,0.3-0.2,0.4c-0.1,0.4-0.3,0.7-0.4,1.1c0,0.1-0.1,0.3-0.1,0.4c-0.1,0.3-0.2,0.6-0.2,1
				c-0.1,0.7-0.2,1.5-0.2,2.2c0,0.4,0,0.8,0,1.2v0c0,0.1,0,0.2,0,0.3c0,0.3,0,0.7,0,1c0,0.2,0,0.5,0.1,0.7c0,0.3,0.1,0.6,0.1,0.9
				c0,0.2,0.1,0.4,0.1,0.5c0.1,0.3,0.1,0.6,0.2,0.9c0,0.2,0.1,0.3,0.2,0.5c0,0.1,0.1,0.1,0.1,0.2c0.1,0.4,0.3,0.8,0.4,1.1
				c0.3,0.7,0.6,1.3,1,1.9c0,0,0,0.1,0,0.1c0,0-0.1,0.1,0,0.2c0.5,1.1,1.5,2,2.5,2.6c0.3,0.1,0.5,0.3,0.8,0.4c0.1,0,0.2,0.1,0.3,0.1
				c0.1,0,0.2,0.1,0.3,0.1c0.2,0.1,0.5,0.2,0.8,0.2c0.2,0,0.3,0.1,0.5,0.1c0,0,0,0,0.1,0c0.3,0,0.7,0.1,1,0.1c0.1,0,0.2,0,0.3,0
				c0,0,0.1,0,0.1,0c0.1,0,0.1,0,0.2,0c0.1,0,0.2,0,0.2,0h0.1c0,0,0.1,0,0.2,0c0.5,0,1.2-0.1,1.7-0.2c0.2,0,0.5-0.1,0.6-0.2
				c0.1,0,0.2-0.1,0.2-0.1c0.1-0.1,0.2-0.1,0.3-0.2c0.2-0.1,0.4-0.2,0.5-0.3c0.2-0.1,0.4-0.2,0.6-0.4c0.1-0.1,0.3-0.2,0.4-0.3
				c0.1-0.1,0.2-0.1,0.3-0.2c0.4-0.3,0.9-0.7,1.2-1.1c0,0,0,0,0,0c0.1,0.1,0.2,0.1,0.3,0c0.1-0.1,0.1-0.1,0.2-0.2
				c0.1-0.1,0.2-0.3,0.4-0.4c0.1-0.2,0.2-0.3,0.3-0.5c0-0.1,0.1-0.2,0.1-0.2c0,0,0.1-0.1,0.1-0.2c0.1-0.2,0.2-0.3,0.3-0.5
				c0.1-0.1,0.1-0.3,0.2-0.4c0.1-0.2,0.3-0.4,0.4-0.7c0.1-0.2,0.2-0.4,0.3-0.6c0.1-0.2,0.2-0.5,0.3-0.7c0.1-0.2,0.2-0.5,0.3-0.7
				c0.1-0.2,0.1-0.4,0.2-0.6c0.1-0.3,0.2-0.6,0.3-1c0-0.2,0.1-0.4,0.1-0.6c0.1-0.2,0.1-0.5,0.1-0.8c0.1-0.7,0.1-1.4,0.1-2.1
				c0-0.2,0-0.6-0.1-0.8c0-0.1-0.1-0.3-0.1-0.4c-0.1-0.2-0.1-0.5-0.2-0.7c-0.2-0.5-0.3-1-0.5-1.5c-0.1-0.2-0.1-0.4-0.2-0.6
				c-0.1-0.4-0.3-0.8-0.4-1.1c-0.5-1.2-1.2-2.5-2.2-3.2c0,0,0,0,0-0.1c0,0-0.1-0.1-0.1-0.1c-0.1-0.1-0.2-0.2-0.2-0.2
				c-0.2-0.2-0.3-0.3-0.5-0.5c-0.4-0.3-0.7-0.6-1.1-0.8c0,0-0.1,0-0.1-0.1c-0.1-0.3-0.1-0.7,0-1.1c0.1-0.1,0.3-0.2,0.4-0.3
				c-0.1,0.1-0.3,0.2-0.4,0.3c0-0.3,0.1-0.5,0.2-0.7c0-0.1,0.1-0.2,0.2-0.3c0.1-0.1,0.2-0.3,0.3-0.4c0.1-0.1,0.1-0.2,0.1-0.3
				c0.5-0.3,1-0.6,1.6-0.9c-0.2,0.2-0.5,0.3-0.7,0.5c-0.1,0-0.1,0.1,0,0.2s0.1,0.1,0.2,0c0.2-0.1,0.4-0.3,0.7-0.4
				c0.4-0.3,0.8-0.5,1.3-0.7c0.3-0.2,0.7-0.3,1-0.5c1.1-0.4,2.2-0.7,3.3-1c0.7-0.2,1.5-0.4,2.2-0.7c0,0,0.1,0,0.1-0.1c0,0,0,0,0,0
				c0.1,0.1,0.2,0,0.3-0.1c0,0,0,0,0-0.1c0.2-0.1,0.4-0.2,0.6-0.3c0.3-0.1,0.5-0.3,0.7-0.5c0.1,0,0.1-0.1,0.1-0.2
				c0-0.1-0.1-0.1-0.2-0.1c-0.2,0.1-0.4,0.1-0.6,0.2c0-0.1,0.1-0.1,0.1-0.2c0.1-0.1,0.1-0.2,0.2-0.3c0.1-0.1,0.3-0.2,0.4-0.2
				c0.2-0.1,0.4-0.3,0.7-0.5c0.2-0.1,0.4-0.3,0.6-0.5c0.1-0.1,0.1-0.2,0.1-0.2c0,0,0,0,0.1,0c0.1,0,0.1-0.2,0.1-0.2
				c0-0.1-0.2-0.1-0.2-0.1c0,0,0,0,0,0c-0.1-0.1-0.3-0.1-0.5,0c-0.3,0.2-0.5,0.4-0.8,0.6c0.1-0.3,0.1-0.5,0.2-0.8
				c0.3-0.2,0.6-0.4,0.9-0.6c0.1,0,0.1-0.2,0.1-0.2c0-0.1-0.2-0.1-0.2-0.1c-0.2,0.1-0.4,0.3-0.7,0.4c0-0.1,0-0.3,0.1-0.4
				c0-0.3,0-0.5,0.1-0.8c0-0.2-0.1-0.3-0.2-0.4c0-0.1,0-0.2,0-0.3c0.3-0.1,0.5-0.2,0.7-0.4c0.5,0.4,0.9,0.9,1.3,1.4
				c0.8,1,1.6,1.9,2.2,3c0.2,0.4,0.5,0.8,0.7,1.3c0.4,1.2,0.8,2.5,1.1,3.7c-0.1-0.2-0.2-0.4-0.3-0.6c0,0-0.1-0.1-0.1,0
				c0,0-0.1,0.1,0,0.1c0.1,0.3,0.2,0.5,0.3,0.8c0,0.1,0.1,0.2,0.1,0.4c0,0.1,0.1,0.1,0.1,0.2c-0.1-0.1-0.3-0.1-0.4-0.2
				c-0.3-0.2-0.7-0.4-1-0.7c0,0-0.1,0-0.1,0c0,0,0,0.1,0,0.1c0.2,0.2,0.4,0.3,0.7,0.5c0.3,0.2,0.6,0.3,0.9,0.5
				c0,0.1,0.1,0.2,0.1,0.4c0.1,0.7,0.3,1.4,0.4,2c0.1,0.4,0.2,0.9,0.2,1.3c0.2,0.9,0.3,1.8,0.5,2.6c0,0,0,0.1,0.1,0.1c0,0,0,0,0,0
				c0,0.4,0,0.9,0,1.3c0,0.2-0.1,0.5-0.2,0.7c-0.2,0.7-0.3,1.4-0.6,2c0,0.1-0.1,0.3-0.1,0.4c-0.1,0.4-0.3,0.7-0.4,1.1
				c-0.1,0.3-0.3,0.6-0.4,0.9c-0.3,0.6-0.6,1.2-0.9,1.8c-0.2,0.3-0.4,0.6-0.5,0.9c0,0,0,0.1,0,0.1c0,0,0.1,0,0.1,0
				c0.3-0.6,0.7-1.1,1-1.7c0.2-0.4,0.4-0.8,0.6-1.2c0.2-0.4,0.3-0.8,0.5-1.2c0.2-0.5,0.4-1,0.6-1.5c0.1-0.3,0.2-0.6,0.3-1
				c0,0.1,0,0.1,0,0.2c0,0,0,0.1,0.1,0.1c0,0.6-0.1,1.3-0.2,1.9c-0.2,1.1-0.6,2.3-1,3.3c-0.1,0.3-0.2,0.5-0.3,0.8
				c-0.1,0.2-0.2,0.4-0.3,0.6c-0.1,0.1-0.1,0.3-0.2,0.4c-0.1,0.2-0.2,0.4-0.3,0.6c-0.2,0.3-0.3,0.6-0.5,0.9
				c-0.6,1.2-1.3,2.3-2.1,3.4c-0.6,0.8-1.2,1.6-1.8,2.4c-0.2,0.2-0.4,0.5-0.5,0.7c-0.1,0.1-0.1,0.2-0.2,0.3
				c-0.3,0.3-0.6,0.5-0.9,0.8c-0.4,0.4-0.9,0.7-1.3,1c-0.1,0.1-0.3,0.2-0.4,0.3c-0.3,0.2-0.7,0.5-1,0.7c-0.2,0.1-0.4,0.2-0.6,0.4
				c-0.2,0.1-0.4,0.3-0.6,0.4c-0.6,0.3-1.2,0.7-1.8,1c-0.5,0.2-1,0.5-1.5,0.7c-0.2,0.1-0.4,0.2-0.6,0.2c-0.2,0.1-0.5,0.2-0.7,0.3
				c-0.6,0.2-1.3,0.4-1.9,0.6c-1.2,0.3-2.4,0.4-3.6,0.5c-1.3,0.1-2.5,0.1-3.8,0c0,0,0,0,0,0c-1.1-0.4-2.1-0.8-3.2-1.2
				c-0.1-0.1-0.3-0.2-0.4-0.3c-0.2-0.1-0.4-0.2-0.6-0.3c0,0-0.1,0-0.1,0c0,0,0,0.1,0,0.1c-0.1-0.1-0.3-0.1-0.4-0.2
				c0.7,0.1,1.4,0.2,2,0.3c0.4,0.1,0.9,0.1,1.3,0.1c0.3,0,0.7,0,1,0.1c0.8,0,1.6,0,2.3,0c0.5,0,1,0,1.6,0c0.1,0,0.2-0.1,0.2-0.2
				c0-0.1-0.1-0.2-0.2-0.2c-0.5,0-0.9,0-1.4,0c-0.8,0-1.6,0-2.3,0c-1.3-0.4-2.4-1.1-3.5-1.9c-0.4-0.3-0.8-0.6-1.2-0.9
				c-0.3-0.2-0.5-0.3-0.8-0.5c0.2,0.2,0.4,0.5,0.7,0.7c0.3,0.3,0.7,0.5,1,0.8c0.2,0.2,0.4,0.3,0.7,0.4c0.2,0.1,0.3,0.2,0.5,0.3
				c0.2,0.1,0.4,0.2,0.6,0.4c0.4,0.2,0.8,0.4,1.1,0.6c-0.7-0.1-1.4-0.1-2.1-0.2c-0.7-0.1-1.4-0.2-2-0.4c-0.3-0.1-0.6-0.1-0.8-0.2
				c-0.7-0.2-1.4-0.4-2.1-0.6c-0.3-0.1-0.7-0.3-1-0.4c-1-0.5-2-0.9-3-1.5c-0.2-0.3-0.5-0.6-0.7-0.9c-0.3-0.4-0.6-0.7-0.9-1.1
				c-0.1-0.1-0.3-0.3-0.4-0.4c-0.5-0.5-1-1-1.4-1.5C14.1,57,13,55.8,12,54.5c-0.1-0.1-0.2-0.3-0.3-0.4c-0.1-0.3-0.3-0.6-0.4-0.8
				c-0.3-0.5-0.5-1.1-0.8-1.6c-0.1-0.4-0.2-0.9-0.4-1.3c-0.5-1.9-0.9-3.7-1.1-5.6C9,43.9,8.9,43,8.9,42.1c0-0.4,0-0.8,0-1.2
				c0-0.7,0-1.4-0.1-2.1c0-0.3,0-0.7,0-1l0,0L8.7,38c0.1-0.4,0.3-0.8,0.4-1.2C9,36.8,9,36.9,8.9,37c-0.1,0.2-0.2,0.4-0.3,0.6
				c0.3-1.1,0.6-2.3,0.9-3.4c0.1-0.3,0.2-0.5,0.3-0.8c0.2-0.6,0.5-1.2,0.8-1.9c0.2-0.4,0.5-0.8,0.7-1.2c0.2-0.4,0.5-0.9,0.7-1.3l0,0
				c-0.1,0-0.2,0.1-0.2,0.2c-0.1,0.1-0.3,0.3-0.4,0.4c0.1-0.2,0.2-0.4,0.3-0.6c0.3-0.5,0.6-0.9,1-1.4c0,0,0-0.1,0-0.1
				c0.4-0.7,0.9-1.4,1.4-2c0.4-0.5,1-1.1,1.5-1.5c0.3-0.3,0.6-0.5,0.8-0.7C16.3,23.4,16.2,23.6,16.1,23.8z M16.6,25.5
				c0.1,0.6,0.4,1.3,0.6,1.9c-0.5-0.7-0.8-1.5-0.8-2.5c0-0.1,0-0.2,0-0.4C16.5,24.9,16.6,25.2,16.6,25.5z M46.6,24.9
				c-0.3,0.2-0.5,0.4-0.8,0.6c-0.1,0.1-0.3,0.2-0.4,0.3c-0.3,0.2-0.6,0.5-0.8,0.8c-0.7,0.7-1.5,1.4-2.2,2c-0.1,0.1-0.1,0.2,0,0.2
				c0.1,0.1,0.2,0.1,0.2,0c0.4-0.3,0.7-0.6,1.1-0.9c0.5-0.4,0.9-0.8,1.4-1.2c0.5-0.4,0.9-0.8,1.4-1.2c0.2-0.2,0.5-0.4,0.7-0.5
				c0.1-0.1,0.1-0.2,0.1-0.3c-0.1-0.1-0.2-0.1-0.3-0.1C46.9,24.7,46.8,24.8,46.6,24.9z M5.6,25.5c-0.1,0.1-0.1,0.1-0.2,0.2
				C5.5,25.6,5.6,25.5,5.6,25.5c0.1-0.2,0.2-0.3,0.3-0.5C5.8,25.1,5.7,25.3,5.6,25.5z M38.1,32.4c-2,1.4-3.8,3-5.8,4.4l0,0.1l0.1,0
				c0.7-0.6,1.5-1.1,2.2-1.7c0.6-0.4,1.1-0.9,1.7-1.3c0.6-0.5,1.2-0.9,1.9-1.3c0.5-0.3,0.9-0.6,1.4-0.9c0.6-0.4,1.2-0.7,1.8-1.1
				c0.1,0,0.1-0.1,0-0.2s-0.1-0.1-0.2,0C40.2,30.9,39.1,31.6,38.1,32.4z M37.5,30.8c-0.5,0.4-1.1,0.8-1.6,1.2
				c-0.8,0.5-1.5,1.1-2.3,1.6c-0.3,0.2-0.7,0.5-1,0.7c-0.3,0.2-0.5,0.4-0.8,0.6c-0.6,0.4-1.2,0.9-1.7,1.5l0,0
				c0.9-0.8,1.9-1.6,2.9-2.3c0.7-0.5,1.5-1,2.2-1.5c0.7-0.5,1.3-0.9,2-1.4c0.3-0.2,0.6-0.5,0.9-0.7c0,0,0-0.1,0-0.1s-0.1,0-0.1,0
				C37.9,30.6,37.7,30.7,37.5,30.8z M47.8,30.6c0,0,0,0.1,0,0.1c-0.2,0.1-0.5,0.2-0.7,0.3c-0.5,0.2-1,0.4-1.4,0.5
				c0.8-0.3,1.5-0.7,2.3-1.1C47.9,30.5,47.8,30.6,47.8,30.6z M55.2,31.3c0,0,0,0.1,0.1,0.1c0,0,0,0,0,0.1c0,0,0,0,0,0
				C55.1,31.2,55.1,31.2,55.2,31.3z M55.2,31.4C55.2,31.4,55.2,31.4,55.2,31.4C55.2,31.4,55.2,31.4,55.2,31.4z M55.3,31.6
				C55.3,31.6,55.3,31.6,55.3,31.6C55.3,31.7,55.3,31.6,55.3,31.6C55.3,31.5,55.3,31.5,55.3,31.6c0-0.1-0.1-0.1-0.1-0.1c0,0,0,0,0,0
				C55.3,31.5,55.3,31.6,55.3,31.6z M56.4,34.4c0.1,0.3,0.2,0.5,0.2,0.8c0.1,0.3,0.1,0.6,0.2,1c-0.1-0.1-0.1-0.1-0.2-0.2
				c0,0,0,0,0,0c-0.3-1.5-0.7-2.9-1.2-4.3C55.8,32.6,56.1,33.5,56.4,34.4z M9.2,33.6c-0.8,2.2-1.3,4.4-1.5,6.7c0,0.1,0,0.3,0,0.4
				c0,0.2-0.1,0.4-0.1,0.6c-0.1,0.6-0.1,1.2-0.1,1.9c0,0.8,0,1.6,0,2.4c0,0,0,0,0,0c0,0,0,0,0,0c0-0.4,0-0.9-0.1-1.3
				c0-0.6,0-1.3,0-1.9c0-0.3,0-0.6,0.1-0.9c0-0.5,0.1-0.9,0.1-1.4c0.2-1.3,0.4-2.5,0.7-3.8c0.1-0.3,0.2-0.6,0.3-0.9
				c0.3-0.8,0.5-1.5,0.8-2.3c0-0.1,0-0.1,0.1-0.2C9.3,33.2,9.2,33.4,9.2,33.6z M37,35.4c-0.1,0.1-0.1,0.3-0.2,0.5
				c-0.1,0.4-0.2,0.9-0.2,1.4c-0.1,0.1-0.2,0.1-0.3,0.2c-0.2-0.1-0.4-0.1-0.6-0.2c-0.2-0.1-0.4-0.1-0.6-0.1c0.1,0,0.1-0.1,0.2-0.1
				c0.1,0,0.1-0.2,0.1-0.2c0,0,0,0,0,0c0.1-0.1,0.2-0.2,0.3-0.3c0.2-0.2,0.5-0.5,0.7-0.7c0.2-0.1,0.3-0.3,0.9-0.7
				C37.1,35.1,37.1,35.2,37,35.4z M56.8,36.3c0,0.1,0,0.2,0.1,0.3c0.1,0.6,0.2,1.2,0.2,1.8c0,0.4,0.1,0.9,0.1,1.3
				c0-0.2-0.1-0.3-0.1-0.5c0,0,0-0.1,0-0.1c-0.1-1-0.3-2-0.5-3C56.7,36.2,56.8,36.3,56.8,36.3z M37.3,36.8
				C37.3,36.8,37.3,36.8,37.3,36.8L37.3,36.8C37.3,36.8,37.3,36.8,37.3,36.8C37.3,36.8,37.3,36.8,37.3,36.8z M1.7,37
				c-0.2,1.3-0.4,2.6-0.5,3.9c-0.1-0.4,0-0.8,0-1.3c0-0.4,0.1-0.8,0.2-1.3c0.1-0.4,0.2-0.8,0.3-1.1c0-0.1,0.1-0.2,0.1-0.3
				C1.8,36.9,1.7,36.9,1.7,37z M30.1,37.7c-0.1,0-0.2,0.1-0.4,0.1l0,0l0-0.1c0-0.1,0-0.1,0-0.2c0.6-0.5,1.4-0.6,2.2-0.5
				C31.3,37.2,30.7,37.4,30.1,37.7z M36,37.7C35.9,37.7,35.9,37.7,36,37.7c-0.2,0.2-0.4,0.3-0.6,0.5c-0.5,0.4-1,0.9-1.5,1.4
				c-0.7,0.7-1.4,1.4-2.1,2.1l0,0.1l0.1,0c0.6-0.6,1.2-1.2,1.9-1.8c0.4-0.3,0.7-0.6,1.1-0.9c0.2-0.1,0.3-0.2,0.5-0.4
				c0.2-0.2,0.4-0.3,0.6-0.5c0.2-0.1,0.3-0.2,0.5-0.4c0.1,0,0.1,0.1,0.2,0.1c0,0,0.1,0.1,0.1,0.1c0,0-0.1,0-0.1,0
				c-0.2-0.1-0.4,0.1-0.5,0.3c-0.1,0.2,0.1,0.4,0.3,0.5c0.1,0,0.3,0.1,0.4,0.2c0,0-0.1,0-0.1,0c-0.1,0-0.1,0-0.1,0.1
				c0,0.1,0,0.1,0.1,0.1c0.1,0,0.2,0,0.2,0c0,0,0,0-0.1,0c-1.2,0.8-2.4,1.6-3.3,2.7c-0.2,0.3-0.4,0.6-0.5,0.9c0,0,0,0.1,0,0.1
				c0,0,0.1,0,0.1,0c0.2-0.3,0.4-0.6,0.6-0.9c0.7-0.9,1.9-1.7,2.9-2.3c0.2-0.1,0.4-0.3,0.6-0.4c0.1,0,0.2,0.1,0.3,0.1
				c0.2,0.2,0.5,0.3,0.7,0.5c0.1,0,0.1,0.1,0.2,0.1c-0.4,0.3-0.8,0.6-1.2,1c-0.2,0.2-0.5,0.4-0.7,0.7c-0.6,0.6-1.3,1.3-1.9,2
				c0,0,0,0.1,0,0.1s0.1,0,0.1,0c0.6-0.7,1.2-1.3,1.9-2c0.3-0.3,0.6-0.6,0.9-0.8c0.1-0.1,0.2-0.2,0.4-0.3c0.2-0.1,0.3-0.2,0.5-0.3
				c0.1,0,0.1-0.1,0.2-0.1c0.1,0.1,0.2,0.2,0.2,0.3c0.3,0.3,0.5,0.7,0.7,1.1c-1.1,0.7-1.9,1.6-2.8,2.6c-0.2,0.3-0.5,0.5-0.7,0.8
				l0,0.1l0.1,0c0.3-0.4,0.7-0.7,1-1c0.2-0.2,0.4-0.4,0.5-0.6c0.6-0.6,1.3-1.2,2-1.7c0,0,0,0,0,0c0.2,0.4,0.5,0.9,0.6,1.4
				c-0.6,0.4-1.2,1-1.7,1.5c-0.3,0.3-0.5,0.6-0.8,0.9c-0.3,0.4-0.6,0.8-1,1.2c0,0,0,0.1,0,0.1c0,0,0.1,0,0.1,0
				c0.7-0.8,1.4-1.7,2.2-2.5c0.4-0.3,0.8-0.7,1.2-1c0.1,0.2,0.1,0.3,0.2,0.5c0,0.1,0.1,0.3,0.1,0.4c0.1,0.3,0.2,0.7,0.3,1
				c0,0,0,0.1,0,0.1c0,0-0.1,0-0.1,0c-0.3,0.2-0.7,0.5-1,0.7c-0.7,0.6-1.4,1.4-2,2.1c0,0,0,0.1,0,0.1c0,0,0.1,0,0.1,0
				c0.4-0.5,0.8-0.9,1.2-1.3c0.3-0.3,0.7-0.6,1-0.9c0.1-0.1,0.3-0.2,0.4-0.3c0.1-0.1,0.3-0.2,0.4-0.2c0,0,0,0,0.1-0.1
				c0,0.1,0.1,0.2,0.1,0.3c0.1,0.4,0.1,0.7,0.2,1.1c0,0.1,0,0.1,0,0.2c0,0-0.1,0-0.2,0c-0.2,0.2-0.3,0.3-0.5,0.4
				c-0.4,0.3-0.8,0.5-1.2,0.7c-0.5,0.4-0.7,0.9-0.8,1.5c0,0.1,0,0.1,0.1,0.1c0.1,0,0.1,0,0.1-0.1c0-0.1,0-0.2,0.1-0.3
				c0.1-0.5,0.4-0.9,0.8-1.2c0.3-0.2,0.7-0.4,1.1-0.6c0.1-0.1,0.2-0.2,0.3-0.2c0.1-0.1,0.1-0.1,0.2-0.2c0.1,0.9,0.2,1.6,0.2,2.3
				c0,0.3-0.1,0.6-0.1,1c-0.1,0.6-0.2,1.1-0.4,1.7c-0.5,1.6-1.2,3.1-2.3,4.4c-0.1,0.1-0.2,0.2-0.3,0.4c-0.4,0.4-0.9,0.9-1.3,1.2
				c-0.3,0.2-0.7,0.5-1,0.7c-0.1,0-0.1,0.1-0.1,0.2c0,0.1,0.1,0.1,0.2,0.1c0.2-0.1,0.4-0.2,0.6-0.3c0.3-0.2,0.6-0.4,0.8-0.6
				c-0.3,0.2-0.6,0.5-0.9,0.7l-0.3,0.2l-0.9,0.4c-0.4,0.2-0.8,0.2-1.3,0.3c-0.1,0-0.2,0-0.3,0c-0.9,0.1-1.9-0.1-2.7-0.4
				c-0.1,0-0.2-0.1-0.3-0.1c0.4,0,0.8,0.1,1.1,0.1c0.1,0,0.3-0.1,0.3-0.3S32.3,59,32.1,59c-0.6,0-1.2,0-1.8,0
				c-0.2,0-0.5-0.1-0.7-0.1c-0.3-0.2-0.7-0.4-1-0.6c-0.4-0.2-0.7-0.5-1-0.8c-0.6-0.6-1.2-1.2-1.7-2c-0.3-0.5-0.5-1.1-0.7-1.7
				c0.1,0,0.2-0.2,0.1-0.3c-0.1-0.5-0.3-1-0.4-1.5c-0.1-0.3-0.2-0.6-0.2-0.9c0-0.2-0.1-0.5-0.1-0.7c0-0.5,0-0.9,0-1.4
				c0.1-1.4,0.2-2.8,0.5-4.2c0.1-0.3,0.2-0.7,0.3-1c0.2-0.5,0.4-1,0.6-1.6c0,0,0.1,0,0.1-0.1c0.5-1.3,1.5-2.5,2.6-3.3c0,0,0,0,0,0.1
				l0,0l0,0.1c0,0,0,0.1,0,0.1c0.1,0.2,0.5,0.3,0.6,0c0.1-0.2,0-0.3,0.1-0.5c0-0.1,0-0.2,0-0.2c0.5-0.2,1-0.4,1.5-0.5
				c0.1,0,0.2,0,0.4-0.1c-0.1,0.1-0.2,0.2-0.3,0.3c-0.2,0.1-0.3,0.3-0.5,0.4c-0.4,0.3-0.7,0.5-1.1,0.8c-0.2,0.1-0.4,0.2-0.6,0.3
				c0,0-0.1,0.1,0,0.1c0,0,0.1,0.1,0.1,0c0.2-0.1,0.4-0.2,0.7-0.3c0.2-0.1,0.4-0.2,0.5-0.3c0.1-0.1,0.3-0.2,0.4-0.3
				c0.2-0.2,0.5-0.4,0.7-0.6c0.2-0.2,0.4-0.3,0.6-0.5c0.2-0.1,0.3-0.2,0.5-0.4c0.2-0.1,0.4-0.1,0.7-0.1c-0.1,0-0.2,0.1-0.2,0.1
				c-0.1,0-0.1,0.1-0.1,0.2c0,0.1,0.1,0.1,0.2,0.1c0.2-0.1,0.5-0.2,0.7-0.3c0.1,0,0.2,0,0.2,0c-0.1,0-0.1,0.1-0.2,0.1
				c-0.3,0.2-0.6,0.5-0.9,0.7c-0.1,0.1-0.3,0.2-0.4,0.4c-0.1,0.1-0.2,0.2-0.3,0.3c-0.1,0.1-0.3,0.3-0.4,0.4
				c-0.2,0.2-0.5,0.5-0.6,0.8c0,0,0,0.1,0,0.1c0,0,0.1,0,0.1,0c0.2-0.2,0.4-0.5,0.6-0.7c0.7-0.8,1.4-1.3,2.3-1.9
				c0.1,0,0.1-0.1,0.2-0.1c0.1,0,0.3,0.1,0.4,0.1c0.1,0,0.3-0.1,0.3-0.2c0,0,0,0,0-0.1C35.3,37.4,35.7,37.5,36,37.7z M36.7,37.6
				C36.6,37.6,36.6,37.5,36.7,37.6C36.6,37.5,36.6,37.5,36.7,37.6C36.7,37.5,36.7,37.5,36.7,37.6z M28.8,38.2
				c-0.1,0.1-0.3,0.1-0.4,0.2c0,0,0.1-0.1,0.1-0.1C28.7,38.3,28.8,38.3,28.8,38.2C28.8,38.2,28.8,38.2,28.8,38.2z M8.4,39.3
				c-0.1,0.4-0.2,0.9-0.2,1.4c-0.1,1,0,2,0,3c0.1,2.1,0.5,4.2,1,6.2c0,0.2,0.1,0.3,0.1,0.5c-0.2-0.3-0.3-0.6-0.4-0.9
				c-0.2-0.4-0.3-0.8-0.5-1.2c-0.3-1.7-0.5-3.5-0.5-5.3c0-0.8,0.1-1.5,0.2-2.3C8.2,40.2,8.2,39.7,8.4,39.3c0-0.1,0-0.2,0.1-0.3
				C8.4,39.1,8.4,39.2,8.4,39.3z M57.9,40.1c0,0.1,0,0.2,0.1,0.3c0.2,0.7,0.2,1.3,0.2,2c0,0.3,0,0.6,0,0.9c0,0.2,0,0.5,0,0.7
				c0,0.3,0,0.6-0.1,0.9c-0.1,0.5-0.2,1.1-0.3,1.6c0,0.1,0,0.2-0.1,0.2c-0.1-0.1-0.1-0.1-0.2-0.2c0,0,0,0,0,0c0-0.3,0.1-0.6,0.1-1
				c0-0.2,0.1-0.4,0.1-0.6c0-0.3,0.1-0.6,0.1-0.9c0-0.3,0-0.6,0.1-0.8c0,0,0-0.1,0-0.1c0,0-0.1,0-0.1,0c0,0.3-0.1,0.6-0.1,0.9
				c0,0.1,0,0.1,0,0.2c0-0.1,0-0.1,0-0.2c0-0.2,0-0.4,0-0.6c0-0.1,0-0.2,0-0.3c0-0.3,0-0.6,0.1-0.8c0,0,0-0.1,0-0.1s-0.1,0-0.1,0
				c0,0.1,0,0.2,0,0.4c0,0,0-0.1,0-0.1c0-0.1,0-0.2,0-0.3c0-0.3,0.1-0.6,0.1-0.9c0.1-0.5,0.1-1,0.1-1.6C57.9,39.9,57.9,40,57.9,40.1
				z M27,40.5C27,40.5,27,40.5,27,40.5C27,40.5,27,40.5,27,40.5C27,40.4,27,40.4,27,40.5z M1.6,43.5c0-0.2,0-0.3-0.1-0.5
				c-0.1,0.2-0.1,0.5-0.1,0.7c0,0.3,0,0.6,0,0.9c0-0.2-0.1-0.4-0.1-0.6c0.1-0.6,0.2-1.3,0.3-1.9C1.5,42.6,1.5,43,1.6,43.5z
				 M64.2,43.6c0,0.5,0,1.1,0,1.6c0,0.3-0.1,0.7-0.1,1c0,0,0,0.1,0,0.1c0,0,0,0,0.1,0c-0.1,1-0.2,2-0.3,3c-0.1,0.5-0.2,1.1-0.3,1.6
				c0-0.3,0.1-0.6,0.1-0.9c0.1-0.6,0.1-1.2,0.1-1.7c0-0.2,0-0.5,0-0.7c0-0.2,0-0.3,0.1-0.5c0-0.3,0.1-0.6,0.1-0.8c0,0,0,0,0,0
				c0,0,0.1,0,0.1-0.1c0.1-0.9,0.1-1.9,0.1-2.9c0-0.2,0-0.5,0-0.7c0-0.2,0-0.3,0-0.5C64.1,42.6,64.2,43.1,64.2,43.6z M0.9,44.4
				c0,0.2,0.1,0.4,0.1,0.6c0.1,0.7,0.3,1.5,0.5,2.2c0,0.1,0.1,0.2,0.1,0.3c0,0.1,0,0.2,0,0.3c0.3,1.4,0.7,2.8,1.2,4.2
				c0.1,0.3,0.2,0.5,0.3,0.8c0.4,1.1,0.8,2.3,1.3,3.4c0.7,1.5,1.5,3,2.4,4.3c0.3,0.4,0.5,0.8,0.8,1.2c0,0-0.1,0-0.1,0
				c-0.1,0.1-0.1,0.2,0,0.2c0.2,0.2,0.4,0.4,0.7,0.5c0.1,0.1,0.1,0.1,0.2,0.2c0.4,0.5,0.8,1,1.3,1.4c0.5,0.5,1,1.1,1.6,1.5
				c-0.1,0-0.1-0.1-0.2-0.2c-0.2-0.1-0.3-0.3-0.5-0.4c-0.5-0.5-1.1-0.9-1.6-1.5c-0.3-0.3-0.6-0.6-0.8-0.9c-0.2-0.3-0.5-0.5-0.7-0.8
				c-0.8-1.1-1.5-2.3-2.2-3.6c-0.8-1.4-1.5-2.9-2.1-4.5c-0.3-0.8-0.6-1.6-0.8-2.4c-0.2-0.6-0.4-1.3-0.5-1.9
				c-0.1-0.3-0.1-0.6-0.2-0.8c0-0.2-0.1-0.4-0.2-0.7c-0.1-0.3-0.1-0.5-0.2-0.8c-0.2-0.9-0.3-1.8-0.4-2.7c0-0.5-0.1-0.9-0.1-1.4
				C0.8,43.5,0.8,43.9,0.9,44.4z M57.7,47.1c-0.1,0.2-0.1,0.5-0.2,0.7c-0.1,0.3-0.1,0.5-0.2,0.8c0.1-0.5,0.2-1.1,0.2-1.6
				C57.6,47,57.6,47,57.7,47.1z M42.2,49.7c0-0.1,0.1-0.4,0.1-0.7C42.3,49.2,42.3,49.4,42.2,49.7z M8.7,50.9
				c0.2,0.7,0.4,1.5,0.7,2.2c-0.6-1.1-1-2.3-1.3-3.5c0-0.1,0-0.3-0.1-0.4C8.2,49.8,8.5,50.4,8.7,50.9z M40.5,50.2
				c-0.1,0.1-0.1,0.1-0.2,0.2c-0.1,0.1-0.3,0.3-0.4,0.5c-0.5,0.5-1.1,0.9-1.6,1.4c0,0,0,0.1,0,0.2s0.1,0,0.2,0
				c0.2-0.2,0.4-0.4,0.6-0.6c0.3-0.2,0.6-0.5,0.9-0.8c0.2-0.2,0.3-0.3,0.5-0.5c0.1-0.1,0.2-0.3,0.3-0.5c0-0.1,0.1-0.2,0.1-0.2
				c0,0,0,0-0.1,0C40.7,50,40.6,50.1,40.5,50.2z M7,60c0.5,0.8,1,1.5,1.6,2.3c0,0,0,0,0,0c0,0.1,0.1,0.1,0.1,0.2
				c0,0-0.3-0.1-0.5-0.3c-0.7-1-1.4-2-2-3c-0.4-0.7-0.8-1.6-1.2-2.4C5.6,57.9,6.3,59,7,60z M14.6,58.3c0.7,0.7,1.4,1.4,2,2.2
				c0.2,0.2,0.3,0.3,0.5,0.5c0.2,0.2,0.4,0.4,0.5,0.6c-0.6-0.4-1.2-0.8-1.7-1.2c-0.3-0.3-0.5-0.6-0.8-0.9c-0.6-0.8-1.2-1.6-1.7-2.4
				C13.7,57.4,14.1,57.9,14.6,58.3z M28.1,58.5c0.5,0.4,1,0.7,1.5,1c0.3,0.1,0.5,0.3,0.8,0.4c0.3,0.1,0.6,0.3,1,0.4
				c-1.3-0.1-2.7-0.6-3.7-1.4c0.1,0,0.2,0,0.2-0.1C28,58.7,28,58.6,28.1,58.5C28,58.5,28,58.5,28.1,58.5z M9.3,63.3
				c0.1,0.2,0.3,0.3,0.4,0.5c0,0,0,0,0,0c0.4,0.5,0.8,1,1.3,1.5c-0.5-0.4-0.9-0.9-1.3-1.3c-0.3-0.3-0.6-0.6-0.9-1
				C9,63.1,9.2,63.2,9.3,63.3z M19.9,63.6c1.4,0.7,2.8,1.2,4.2,1.8c0.5,0.2,0.9,0.3,1.4,0.5c0.4,0.1,0.7,0.2,1.1,0.4
				c0.4,0.1,0.8,0.2,1.1,0.4c0,0,0,0,0,0c0.3,0.2,0.5,0.3,0.8,0.5c0,0-0.1,0-0.1,0c-0.3,0-0.5,0-0.8,0c-0.7-0.2-1.5-0.5-2.2-0.7
				c-0.5-0.2-1-0.4-1.5-0.6c0,0,0.1,0,0.1-0.1c0-0.1,0-0.2-0.1-0.2c-0.5-0.2-1-0.3-1.5-0.5c-0.2-0.1-0.4-0.2-0.7-0.3
				c-0.7-0.3-1.4-0.7-2.1-1.1c0,0,0,0,0,0C19.7,63.5,19.8,63.6,19.9,63.6z M29.7,67.3c-0.1,0-0.2,0-0.4,0c-0.1-0.1-0.2-0.1-0.2-0.2
				C29.3,67.1,29.5,67.2,29.7,67.3z M33.1,68C33.1,68,33.1,68,33.1,68c0,0-0.1,0-0.1,0C33,68,33,68,33.1,68C33.1,68,33.1,68,33.1,68
				z M32.9,68C32.8,68.1,32.7,68.1,32.9,68C32.9,68,32.9,68,32.9,68z M33.2,68.1C33.2,68.1,33.1,68.1,33.2,68.1
				C33.1,68.1,33.1,68.1,33.2,68.1C33.1,68.1,33.2,68.1,33.2,68.1z M33.4,68.1c0.2,0,0,0-0.2,0C33.2,68.1,33.3,68.1,33.4,68.1z
				 M14.4,68.2c0.1,0.1,0.1,0.1,0.2,0.2C14.5,68.4,14.5,68.3,14.4,68.2c0,0-0.1,0-0.2-0.1C14.3,68.2,14.3,68.2,14.4,68.2z
				 M15.4,68.7c-0.2-0.1-0.3-0.1-0.5-0.2c0,0-0.1-0.1-0.1-0.1C15,68.5,15.2,68.6,15.4,68.7z M22.2,71.9c0.2,0.1,0.4,0.2,0.6,0.4
				c-0.1,0-0.2-0.1-0.3-0.1c-0.3-0.1-0.6-0.2-1-0.3c-0.4-0.1-0.8-0.3-1.2-0.4c-0.2-0.1-0.3-0.1-0.5-0.2c-0.2-0.1-0.4-0.2-0.5-0.3
				c0,0,0,0-0.1,0C20.2,71.3,21.2,71.6,22.2,71.9z M27.3,73.3C27.3,73.3,27.3,73.3,27.3,73.3c-0.1,0-0.1,0-0.1,0
				C27.2,73.3,27.2,73.3,27.3,73.3z"/>
		</g>
	</g>
</g>
</svg>
