<?xml version="1.0" encoding="utf-8"?>
<!-- Generator: Adobe Illustrator 20.1.0, SVG Export Plug-In . SVG Version: 6.00 Build 0)  -->
<svg version="1.1" id="Layer_1" xmlns="http://www.w3.org/2000/svg" xmlns:xlink="http://www.w3.org/1999/xlink" x="0px" y="0px"
	 viewBox="0 0 75 75" style="enable-background:new 0 0 75 93.8;" xml:space="preserve">
<g transform="scale(1 -1)" fill="#607D8B">
	<g transform="translate(0 -75)">
		<g>
			<path marker-end="none" marker-start="none" d="M41.1,1.9c-0.7,0-1.4-0.1-2.1-0.1c-2.1,0-4.3,0-6.5,0.5c-0.5,0.1-1,0.2-1.4,0.5
				C31,2.8,30.7,3,30.6,3.1c0,0-0.1,0.1-0.1,0.2c-0.1,0.2-0.2,0.5-0.2,0.8c-0.1,0.1-0.1,0.2-0.1,0.3c0,0.3,0,0.5,0,0.8
				c0,0.1,0,0.1,0,0.2c0,0.1,0,0.3,0,0.4c0,0.6,0,1.1,0,1.7c0,0.4,0,0.7,0,1.1c0,0.7,0,1.5-0.1,2.2c0,0.2,0,0.5,0,0.7
				c0,0-0.1,0-0.1,0.1c-0.1,0.1-0.3,0.1-0.4,0.2l0,0l-0.1,0c-0.1,0.1-0.2,0.1-0.4,0.2c-0.1,0-0.1,0-0.2,0.1
				c-0.8,0.2-1.5,0.6-2.2,0.9c-0.3,0.1-0.5,0.3-0.8,0.4c0-0.1-0.1-0.1-0.1-0.2c-1-0.7-1.8-1.4-2.6-2.3c-0.7-0.7-1.3-1.4-2-2
				c-0.3-0.3-0.6-0.6-1-0.8c-0.7-0.5-1.9-1.1-2.8-0.8c-0.2,0.1-0.3,0.1-0.5,0.2c-0.6,0.3-1.1,0.8-1.6,1.2c-0.3,0.2-0.6,0.5-0.8,0.7
				c-0.1,0-0.1,0.1-0.1,0.1c-0.2,0.1-0.4,0.3-0.5,0.5c-0.4,0.3-0.7,0.7-1,1c-0.4,0.4-0.8,0.9-1.1,1.3c-0.1,0.1-0.2,0.2-0.3,0.3
				c-0.1,0.1-0.1,0.2-0.2,0.2c-0.1,0-0.1,0.1-0.2,0.1c-1,0.9-2.2,1.9-2.4,3.4c0,0.1,0,0.1,0,0.2c-0.1-0.1-0.3-0.1-0.4-0.2
				c-0.1-0.1-0.3,0-0.3,0.1s0,0.3,0.1,0.3c0.1,0,0.1,0.1,0.2,0.1c0,0,0.1,0,0.1,0.1c0,0.1-0.1,0.1-0.1,0.2c-0.1,0.1-0.1,0.3,0,0.4
				c0.1,0.1,0.3,0.1,0.4,0c0,0,0-0.1,0.1-0.1c0,0,0,0.1,0,0.1c0.2,0.8,0.7,1.7,1.1,2.3c0.2,0.2,0.4,0.5,0.5,0.7
				c0.1,0.2,0.3,0.3,0.4,0.5c0.1,0.2,0.3,0.3,0.4,0.5c0.4,0.5,0.8,0.9,1.3,1.3c0.1,0.1,0.3,0.2,0.4,0.3c0.1,0.1,0.1,0.1,0.2,0.2
				c0.3,0.2,0.5,0.3,0.8,0.5c0.1,0.1,0.3,0.2,0.5,0.3c0,0,0.1,0.1,0.2,0c-0.2,0.3-0.4,0.6-0.5,0.9c-0.2,0.4-0.4,0.9-0.6,1.4
				c-0.2,0.5-0.3,1.1-0.4,1.6c-0.1,0.5-0.2,1-0.2,1.5c-0.5,0-0.9,0-1.4,0c0,0,0,0,0.1-0.1c0,0,0-0.1,0-0.1c0.1-0.2-0.1-0.4-0.2-0.5
				c-0.1,0-0.2-0.1-0.3-0.1c-0.1,0-0.3,0-0.4-0.1c-0.2,0-0.4,0-0.7,0c-0.2,0-0.3,0-0.5,0c-0.2,0-0.4,0-0.6,0.1
				c-0.5,0.1-1.1,0.2-1.6,0.3l-0.3,0.1l-0.3,0c-0.6,0-1.1,0-1.7,0c-0.5,0-1,0-1.5,0c-0.2,0-0.6,0-0.7,0c-0.1,0-0.1,0.1-0.2,0.1
				c0,0.1-0.1,0.1-0.1,0.2c0,0.1-0.1,0.2-0.1,0.3c-0.1,0.2-0.2,0.4-0.3,0.7c-0.1,0.2-0.2,0.4-0.3,0.7c0,0-0.1,0.1-0.1,0.1
				c-0.1,0.1-0.2,0.3-0.2,0.4c0,0,0,0.1,0,0.1c-0.2,0.4-0.4,0.9-0.5,1.3C1,33.5,1,34.1,1,34.6c0,0.4,0,0.8,0.1,1.2c0,0,0,0,0,0
				c0,0.2,0,0.4,0,0.6c0,0.2,0,0.4,0,0.6c0,0.4,0,0.9,0,1.3c0,0.7,0.1,1.4,0.1,2.2c0,0.3,0.1,0.7,0.1,1.1c0,0.2,0.1,0.3,0.1,0.5
				c0,0.1,0.1,0.2,0.1,0.3c0,0.2,0.1,0.4,0.2,0.6c0.2,0.6,0.5,1.1,1,1.4c0.1,0.1,0.4,0.2,0.6,0.2c0.4,0,0.9,0.1,1.3,0.1
				c1,0,2,0,3-0.1c0.4,0,0.8-0.1,1.2-0.1c0.4,0,0.9-0.1,1.4-0.1c0.1,0,0.2,0,0.2,0c0.7,0,1.3,0,2,0.1c0,0.1,0,0.2,0.1,0.3
				c0,0.1,0.1,0.2,0.1,0.2c0.2,0.6,0.4,1.2,0.6,1.7c0.3,0.6,0.5,1.1,0.8,1.7c0.1,0.2,0.1,0.4,0.2,0.5c0.1,0.2,0.3,0.3,0.4,0.2
				l0.1-0.1l0.1,0.2c0.1,0.2,0.3,0.3,0.4,0.5c0.1,0.1,0.1,0.1,0.2,0.1c0,0,0,0,0,0c0,0.1,0.1,0.2,0.1,0.3c-0.1-0.1-0.3,0-0.4,0.1
				c-0.2,0.3-0.4,0.6-0.6,0.9l-0.1,0.1l-0.1,0c0,0-0.1,0-0.1,0c-0.1,0-0.2,0.1-0.3,0.2c-0.2,0.2-0.4,0.4-0.6,0.5
				c-0.2,0.2-0.5,0.4-0.7,0.6c-0.3,0.3-0.6,0.5-0.8,0.8c-0.3,0.3-0.6,0.6-0.9,0.9c-0.3,0.3-0.5,0.6-0.8,0.9
				c-0.4,0.5-0.9,1.1-1.2,1.6c-0.1,0.1-0.1,0.3-0.2,0.4c0,0-0.1,0.1-0.1,0.1c0,0,0,0.1,0,0.1l0,0l-0.1,0.1c0,0-0.1-0.1-0.1-0.1
				c0-0.1-0.1-0.1-0.1-0.2c0-0.1-0.1-0.2-0.1-0.4l0,0l0.3-0.4c0.1-0.1,0.2-0.2,0.3-0.3c0.2-0.2,0.4-0.4,0.6-0.6
				c0.5-0.5,0.9-0.9,1.4-1.4c0.7-0.6,1.4-1.2,2.1-1.9c0.5-0.4,0.9-0.8,1.4-1.2l0.1-0.1c0.1-0.1,0.3-0.2,0.4-0.4l0,0l0.1-0.1
				c0.2-0.3-0.2-0.6-0.5-0.5l-0.1,0.1c-0.2,0.2-0.4,0.3-0.5,0.5c-0.3,0.3-0.7,0.5-1,0.8c-1.2,0.9-2.4,1.7-3.6,2.7
				c-0.5,0.4-0.8,0.8-1.2,1.3c-0.1,0.1-0.2,0.3-0.2,0.4c-0.1,0.2-0.3,0.5-0.3,0.8c0,0.1,0,0.1,0,0.2c0,0.7,0.5,1.4,0.8,2
				c0.1,0.1,0.2,0.2,0.2,0.4c0.5,1.2,1.2,2.3,2,3.4c0.3,0.3,0.5,0.7,0.8,1c0.5,0.6,1.1,1.1,1.7,1.7c0.2,0.2,0.4,0.3,0.6,0.5
				c0.2,0.1,0.4,0.3,0.6,0.4c0.2,0.1,0.5,0.2,0.7,0.4c0.4,0.2,0.7,0.3,1.1,0.4c0.2,0.1,0.3,0,0.4-0.2c0,0,0,0,0,0c0,0,0.1,0,0.1,0.1
				c0,0.1,0,0.2,0.1,0.2c0.1,0.1,0.3,0.2,0.4,0.1c0,0,0,0,0,0c0.2,0,0.4,0,0.4-0.2c0-0.1,0.1-0.1,0.1-0.2c1.3-1,2.6-2,3.9-3.2
				c0,0,0,0,0,0c0.4-0.3,0.8-0.6,1.2-0.9c0.1-0.1,0.3-0.2,0.4-0.4c0.1-0.1,0.2-0.2,0.4-0.3c0,0,0.1-0.1,0.1-0.1
				c0.1-0.2,0.2-0.4,0.2-0.6c0.3,0.1,0.5,0.2,0.8,0.3c0.2,0.1,0.4,0.1,0.5,0.2c0.1,0.1,0.2,0.1,0.4,0.2c0.5,0.3,0.9,0.6,1.4,0.9
				c0.1,0.1,0.2,0.1,0.3,0.2c0.2,0.1,0.3,0.2,0.5,0.3c0.2,0.1,0.4,0.2,0.7,0.3c0.2,0.1,0.4,0,0.5-0.2c0.1,0.1,0.3,0.1,0.4,0.1
				c-0.1,0.9-0.1,1.9,0,2.8c0,0.2,0,0.3,0,0.5c-0.1,0.4-0.1,0.8,0,1.2c0,0.6,0,1.1,0.1,1.7c0,0.3,0.1,0.5,0.1,0.8
				c0,0.1,0,0.1,0.1,0.2c0,0.1,0,0.3,0.1,0.4c0.1,0.3,0.2,0.6,0.3,0.9c0.3,0.7,1,1.3,1.7,1.6c0.3,0.1,0.6,0.2,0.9,0.2
				c0.9,0.2,1.8,0.2,2.7,0.1c0.3,0,0.7,0,1-0.1c0.6-0.1,1.1-0.1,1.7-0.2c0.5-0.1,0.9-0.1,1.4-0.2c0.5-0.1,1-0.2,1.5-0.3
				c0.1,0,0.2,0,0.3,0c0.6,0,1.3,0,1.9,0c0.1,0,0.2,0,0.3,0c0.3,0,0.6,0,0.8,0c0.1,0,0.3,0,0.4,0c0.1,0,0.2-0.1,0.3-0.2
				c0.1-0.1,0.1-0.4,0.1-0.5c0-0.1,0-0.2,0.1-0.3c0.1-0.7,0.2-1.4,0.2-2.1c0-1.1,0-2.2,0-3.3c0-1.1-0.1-2.3,0-3.4c0,0,0-0.1,0-0.1
				c0.2-0.1,0.4-0.1,0.6-0.2c0,0,0,0,0,0.1c0.1,0.1,0.3,0.1,0.4,0c0.1-0.1,0.2-0.2,0.3-0.3c0.1,0,0.1,0,0.2,0c0.5-0.1,1-0.3,1.5-0.4
				c0.7-0.2,1.4-0.4,2-0.5c0.2-0.1,0.5-0.2,0.7-0.2c0.1,0,0.2-0.1,0.2-0.2c0,0,0,0,0,0c0.4,0.4,0.9,0.8,1.4,1.3
				c0.2,0.2,0.5,0.4,0.7,0.6c0.2,0.2,0.4,0.3,0.6,0.5c0.2,0.1,0.3,0.3,0.5,0.4c0.8,0.9,1.7,1.8,2.7,2.5c0.2,0.1,0.4,0.1,0.6-0.1
				c0.1-0.1,0.1-0.2,0.1-0.3c0,0,0.1-0.1,0.1-0.1c0.3,0.1,0.7,0.2,1,0.2c1,0,2.1-1,2.8-1.6c0.3-0.3,0.6-0.6,0.9-1
				c0.7-0.8,1.3-1.6,1.9-2.5c0,0,0,0,0,0c0.4-0.3,0.8-0.7,1.1-1c0.7-0.7,1.3-1.4,1.8-2.1c0.1-0.1,0.1-0.3,0-0.5c0-0.1,0-0.2-0.1-0.3
				c-0.1-0.2-0.3-0.4-0.4-0.6c-0.1-0.1-0.1-0.2-0.2-0.2c-0.2-0.2-0.4-0.4-0.5-0.7c0,0,0-0.1-0.1-0.1c0.1,0,0.1-0.1,0.2-0.1
				c0.2-0.2,0.2-0.5,0-0.7c-0.5-0.5-1-1-1.6-1.4c-0.2-0.2-0.5-0.4-0.7-0.6c-0.2-0.2-0.5-0.4-0.8-0.6c-0.1-0.1-0.2-0.2-0.3-0.2
				c-0.1-0.1-0.2-0.3-0.3-0.4c-0.1-0.2-0.3-0.2-0.5-0.2l0,0c-0.2-0.2-0.3-0.5-0.5-0.7c0,0,0,0,0-0.1c0.3-0.2,0.6-0.5,0.9-0.7
				c0.1-0.1,0.1-0.2,0-0.2c-0.1-0.1-0.2-0.1-0.2,0c-0.3,0.2-0.6,0.5-0.8,0.7c-0.1-0.2-0.1-0.3-0.2-0.5c0.1-0.2,0.2-0.4,0.2-0.6
				c0-0.1,0.1-0.3,0.1-0.4c0.1,0,0.1-0.1,0.2-0.2c0.1-0.2,0.1-0.4,0.2-0.7c0.1-0.4,0.2-0.8,0.3-1.1l0-0.2l0,0.1
				c0.1-0.2,0.1-0.4,0.2-0.6c0.1-0.2,0.1-0.4,0.2-0.5l0.1-0.2l0.1-0.2c0,0,0-0.1,0-0.1l0,0l0,0l0-0.1c0-0.1,0-0.2,0-0.3
				c0,0,0-0.1,0-0.1c0.7-0.1,1.4-0.1,2.1-0.2c0.5,0,1,0,1.5-0.1c0.9,0,1.8,0,2.7-0.1c0.5,0,1,0,1.4,0c0.4,0,0.8,0,1.2-0.1
				c0.4,0,0.8-0.1,1.2-0.1c0.1,0,0.2,0,0.3-0.1c0.2-0.1,0.3-0.4,0.3-0.7c0.1-0.2,0.1-0.5,0.2-0.7c0.1-0.3,0.1-0.6,0.1-1
				c0-0.3,0-0.5,0.1-0.8c0-0.4,0-0.7,0-1.1c0-0.5,0-1,0-1.5c0-0.8-0.1-1.7-0.1-2.5c0-0.4,0-0.8,0-1.2c0-0.1,0-0.2,0-0.3
				c0-0.3,0.1-0.6,0.1-0.9c0-0.4,0.1-0.8,0.1-1.1c0-0.1,0-0.3,0-0.4c0-0.1-0.1-0.3-0.2-0.4l-0.1,0l-0.1-0.1
				c-0.1-0.1-0.2-0.2-0.2-0.3c-0.2-0.2-0.4-0.5-0.7-0.6c-0.1,0-0.2,0-0.3,0c-0.2,0-0.3,0-0.5,0c-0.2,0-0.5,0-0.7,0
				c-1.7-0.4-3.4-0.5-5.1-0.6c-0.9,0-1.8-0.1-2.7-0.1c-0.1,0-0.2,0-0.3,0h0c0-0.1-0.1-0.3-0.1-0.4c0.1-0.1,0.3-0.2,0.4-0.2
				c0.1,0,0.1-0.1,0.1-0.2c0-0.1-0.1-0.1-0.2-0.1c-0.1,0.1-0.3,0.1-0.4,0.2c-0.3-0.8-0.6-1.7-0.9-2.5c0,0,0,0,0,0
				c0.1-0.1,0.1-0.2,0-0.3c0-0.1-0.1-0.1-0.2-0.1c-0.2-0.5-0.4-0.9-0.7-1.4c-0.1-0.2-0.2-0.4-0.4-0.7c0.3-0.2,0.7-0.4,1-0.6
				c0.3-0.2,0.7-0.4,1-0.6c0.4-0.2,0.7-0.4,1.1-0.6c0.1,0,0.1-0.1,0.1-0.2c0-0.1-0.1-0.1-0.2-0.1c-0.9,0.5-1.7,1-2.5,1.5
				c0.3-0.3,0.6-0.6,0.9-0.9c1.1-1.1,2.2-2.2,3.1-3.5c0.2-0.3,0.4-0.6,0.6-0.9c0-0.1,0.1-0.1,0.1-0.2c0.1-0.1,0.3-0.2,0.4-0.3
				c0.2-0.1,0.2-0.4,0.1-0.6c0,0,0-0.1-0.1-0.1c0.1-0.1,0.1-0.3,0.1-0.4c0,0,0-0.1,0-0.1c0,0,0.1,0.1,0.1,0.1
				c0.2,0.1,0.3,0.3,0.5,0.4c0.2,0.2,0.5,0.2,0.7,0c0.2-0.2,0.2-0.5,0-0.7c-0.3-0.2-0.6-0.5-0.8-0.8c-0.3-0.4-0.7-0.7-1-1.1
				c-0.2-0.2-0.4-0.5-0.7-0.7c-0.2-0.3-0.5-0.5-0.7-0.8c0,0,0,0,0,0c0.3-0.3,0.6-0.7,0.9-1c0,0,0-0.1,0-0.2s-0.1,0-0.2,0
				c-0.2,0.1-0.4,0.3-0.5,0.4c-0.2,0.1-0.4,0.3-0.6,0.4c0,0-0.1-0.1-0.1-0.1c-0.5-0.5-1-1-1.5-1.5c0.2-0.1,0.4-0.3,0.5-0.4
				c0.1-0.1,0.1-0.3,0.1-0.4c-0.1-0.1-0.3-0.1-0.4-0.1c-0.2,0.1-0.4,0.3-0.6,0.4c-0.5-0.4-1-0.9-1.5-1.3c-0.8-0.7-1.9-1.3-3-1.6
				c-0.2,0-0.8-0.1-1-0.1c-0.2,0.1-0.3,0.2-0.4,0.4c-0.2,0.2-0.5,0.5-0.7,0.7c-0.5,0.5-1,0.9-1.6,1.4c-0.5,0.4-1,0.9-1.5,1.3
				c-0.4,0.3-0.8,0.7-1.2,1.1c-0.4,0.4-0.7,0.7-1,1.1c-0.1,0-0.1-0.1-0.2-0.1c-0.1,0-0.1-0.1-0.2-0.1c0.1-0.1,0.2-0.2,0.4-0.3
				c0.8-0.6,1.5-1.3,2.3-1.9c0.1-0.1,0.1-0.2,0-0.2c-0.1-0.1-0.2-0.1-0.2,0c-0.9,0.8-1.8,1.6-2.7,2.4c-0.1,0-0.1-0.1-0.2-0.1
				l-0.3-0.1l-0.2-0.1c-0.2-0.1-0.4-0.2-0.6-0.3c0.1-0.1,0.2-0.1,0.2-0.2c0.1-0.1,0.1-0.2,0-0.2s-0.2-0.1-0.2,0
				c-0.1,0.1-0.3,0.2-0.4,0.3c-0.6-0.2-1.1-0.5-1.7-0.6c0.2-0.1,0.3-0.3,0.5-0.4c0.1-0.1,0.1-0.2,0-0.3c-0.1-0.1-0.2-0.1-0.3,0
				c-0.2,0.2-0.5,0.4-0.7,0.6c-0.2-0.1-0.4-0.1-0.6-0.1c0.2-0.9,0.4-1.9,0.4-2.9c0.1,0,0.1-0.1,0.2-0.1c0.1,0,0.1-0.1,0.1-0.2
				c0-0.1-0.2-0.1-0.2-0.1c0,0,0,0,0,0c0-0.8,0-1.6,0-2.3c0-0.2,0-0.4,0-0.5c0.2-0.2,0.5-0.4,0.7-0.7c0.1,0,0.1-0.1,0-0.2
				C46.1,5,46,5,45.9,5.1c-0.2,0.2-0.4,0.3-0.6,0.5c0-0.2,0-0.5-0.1-0.7c-0.1-0.5-0.1-1.1-0.1-1.6c0-0.1,0-0.2,0-0.2
				c0.2-0.1,0.4-0.3,0.6-0.4c0.1-0.1,0.1-0.2,0.1-0.4C45.7,2,45.5,2,45.4,2.1c-0.2,0.1-0.3,0.2-0.5,0.3l0,0
				c-0.2-0.2-0.6-0.3-0.9-0.3l-0.1,0l0,0c0,0,0,0,0,0C43.9,2,43.8,2,43.7,2c0,0-0.1,0-0.1,0l-0.1,0l-0.1,0h-0.2l-1.1-0.1
				c-0.2,0-0.4,0-0.5,0c0.1-0.1,0.2-0.2,0.3-0.2c0.1,0,0.1-0.1,0-0.2c0-0.1-0.1-0.1-0.2,0C41.5,1.6,41.3,1.7,41.1,1.9z M40,2.7
				c-0.1,0.1-0.1,0.1-0.2,0.2c-0.5,0-0.9,0-1.4-0.1c0.1,0,0.1-0.1,0.2-0.1C39,2.7,39.5,2.7,40,2.7z M37.9,2.8c0,0-0.1,0-0.2,0
				c-0.6,0-1.2,0-1.8,0c0.1,0,0.2-0.1,0.2-0.1c0.6,0,1.3,0,1.9,0C38,2.7,37.9,2.8,37.9,2.8z M41.6,2.8c0.2,0,0.5,0,0.7,0
				C42.2,2.9,42.1,3,42,3.1c-0.4,0-0.8-0.1-1.2-0.1c-0.2,0-0.4,0-0.6,0c0.1-0.1,0.2-0.1,0.2-0.2C40.8,2.7,41.2,2.8,41.6,2.8z
				 M35.5,2.9c-0.2,0-0.5,0-0.7,0c-0.4,0-0.8,0.1-1.2,0.1c-0.5,0.1-1.1,0.1-1.6,0.2c-0.1,0-0.1,0.1-0.1,0.2c0,0.1,0.1,0.1,0.2,0.1
				c0.9-0.1,1.9-0.2,2.8-0.3c-0.8,0.5-1.6,1.1-2.5,1.6c-0.3,0.2-0.6,0.4-0.9,0.5c0-0.7-0.1-1.3-0.1-2c0.1-0.1,0.3-0.1,0.4-0.1
				C32.5,3,33.2,3,33.9,2.9c0.2,0,0.4,0,0.7-0.1c0.4,0,0.8-0.1,1.2-0.1C35.7,2.8,35.6,2.8,35.5,2.9z M42.9,2.9L42.9,2.9l0.2,0.9
				c-0.9,0.7-1.8,1.5-2.6,2.3c-0.4,0.4-0.9,0.8-1.3,1.3c-0.6,0.6-1.3,1.2-1.9,1.8c-0.8,0.8-1.6,1.5-2.4,2.3c-0.5,0.5-1,0.9-1.6,1.4
				c-0.3,0.3-0.6,0.5-0.9,0.7c-0.1,0-0.1,0.1,0,0.2c0,0.1,0.1,0.1,0.2,0c0.6-0.5,1.1-0.9,1.7-1.4c0.7-0.6,1.3-1.2,2-1.8
				c1.2-1.1,2.3-2.2,3.5-3.2c0.6-0.5,1.2-1.1,1.8-1.6c0.6-0.5,1.1-0.9,1.7-1.4c0.2,0.9,0.4,1.7,0.6,2.6c-0.3,0.3-0.6,0.6-1,0.8
				c-0.3,0.3-0.6,0.5-0.9,0.8c-1,0.9-2.1,1.8-3.1,2.7c-0.3,0.2-0.6,0.5-0.8,0.8c0,0,0,0,0,0c0-0.1-0.2-0.1-0.3-0.1
				c-1.8,0.7-3.3,2.1-4.6,3.4c-0.4,0.4-0.9,0.8-1.3,1.2c-0.3,0.3-0.6,0.5-0.8,0.8c-0.2,0.1-0.4,0.3-0.5,0.4c-0.3,0.3-0.7,0.5-1,0.8
				l0,0.1l0.1,0c0.2-0.1,0.4-0.2,0.5-0.4c0.2-0.1,0.3-0.2,0.5-0.4c0.5-0.4,0.9-0.8,1.4-1.2c0.4-0.3,0.7-0.6,1.1-1
				c0.7-0.6,1.4-1.2,2.2-1.8c0.4-0.3,0.9-0.6,1.3-0.9c0.4-0.2,0.8-0.5,1.2-0.7c-1.3,1.2-2.6,2.4-3.8,3.7c0,0,0,0.1,0,0.1
				c0,0,0.1,0,0.1,0c2.1-2.2,4.4-4.2,6.8-6.2c0.9-0.8,1.9-1.6,2.8-2.4c0.1-0.1,0.3-0.2,0.4-0.3c0,0.2,0.1,0.4,0.1,0.6
				c0.1,0.5,0.2,1.1,0.2,1.7c-0.2,0.1-0.4,0.2-0.5,0.4c-1.7,1.2-3.5,2.4-5,3.9c-0.8,0.8-1.6,1.6-2.3,2.5c-0.2,0.3-0.4,0.6-0.6,0.8
				c0,0,0,0,0,0.1s0,0,0.1,0c0.3-0.5,0.7-1,1.1-1.5c0.6-0.7,1.3-1.4,2.1-2c1.5-1.3,3.2-2.4,4.8-3.5c0.1-0.1,0.2-0.1,0.3-0.2
				c0,0.1,0,0.2,0,0.2c0,0.6,0,1.2-0.1,1.8c-0.1,0-0.1,0-0.2,0c-0.2,0-0.3,0.2-0.3,0.3c0,0.2,0.2,0.3,0.3,0.3c0.3,0,0.7,0,1,0.1
				c-0.5,0.4-1,0.7-1.5,1.1c-0.6,0.5-1.3,0.9-1.9,1.4c-1.1,0.8-2.1,1.5-3.1,2.4c-0.1,0-0.1,0.1,0,0.2c0,0.1,0.1,0.1,0.2,0
				c0.5-0.5,1.1-0.9,1.7-1.4c1-0.8,2.1-1.5,3.2-2.3c0.6-0.4,1.2-0.9,1.8-1.3c0,0,0,0,0.1,0c0.1,0,0.1,0,0.2,0l0.2,0.1l0,0
				c0,0.2,0.1,0.4,0.3,0.5c0.2,0.1,0.3,0.1,0.5,0.2c0,0,0.1,0,0.1,0c-1.2,0.9-2.4,1.9-3.6,2.8c-0.6,0.5-1.2,0.9-1.8,1.4
				c-0.3,0.2-0.6,0.4-0.8,0.7c-0.4,0.4-0.9,0.7-1.3,1.1c0,0,0,0.1,0,0.1c0,0,0.1,0,0.1,0c0.3-0.2,0.5-0.4,0.8-0.6
				c0.2-0.2,0.5-0.3,0.7-0.5c1.5-1.1,2.9-2.2,4.3-3.3c0.7-0.5,1.3-1,2-1.5c0.1,0,0.3,0.1,0.4,0.1c0.4,0.1,0.8,0.2,1.2,0.4
				c0,0,0,0,0,0c-0.3,0.3-0.7,0.6-1,0.9c-1.9,1.7-3.7,3.3-5.5,5c-0.1,0-0.2-0.1-0.2-0.1c-0.4-0.2-0.9-0.3-1.4-0.4
				c-0.4-0.1-0.8-0.2-1.2-0.2c-0.1,0-0.2,0.1-0.2,0.2c0,0.1,0.1,0.2,0.2,0.2c0.5,0.1,1.1,0.2,1.6,0.3c0.1,0,0.2,0,0.2,0.1
				c-0.6-0.1-1.2-0.1-1.8-0.2c-0.5,0-0.9,0-1.4,0c-0.6,0-1.1,0-1.7,0.1c-1.1,0.1-2.2,0.3-3.2,0.6c-0.3,0.1-0.7,0.2-1,0.3
				c-0.2,0.1-0.4,0.1-0.6,0.2c-0.2,0-0.5,0.1-0.7,0.1c-0.2,0-0.5,0.1-0.7,0.2c-0.2,0.1-0.3,0.1-0.5,0.2c-0.2,0.1-0.3,0.1-0.5,0.2
				c-0.3,0.1-0.7,0.3-1,0.5c-0.3,0.2-0.6,0.4-0.9,0.7c0,0,0,0,0,0c-0.2,0.1-0.4,0.2-0.5,0.4c-1.1,0.8-2.1,1.9-2.9,3.1
				c-0.3,0.4-0.6,0.9-0.8,1.4c-0.2,0.3-0.4,0.7-0.5,1.1c-0.4,0.8-0.7,1.6-0.9,2.4c-0.2,0.6-0.3,1.2-0.4,1.7
				c-0.1,0.3-0.1,0.6-0.2,0.9c0,0.2,0,0.4-0.1,0.5c-0.1,0.5-0.1,1-0.1,1.5c0,0.8,0,1.6,0,2.3c0,0.4,0.1,0.8,0.1,1.3
				c0,1.1,0.1,2.3,0.4,3.4c1.1,3.8,3.7,6.9,7.1,8.9c0.6,0.4,1.2,0.7,1.9,1c0.4,0.2,0.8,0.4,1.3,0.5c0.6,0.2,1.3,0.4,1.9,0.6
				c0.4,0.1,0.8,0.2,1.2,0.3c0.2,0,0.3,0.1,0.5,0.1c0.3,0,0.6,0,0.9-0.1c0,0,0,0,0,0c0,0,0,0,0,0c-0.3-0.1-0.6-0.2-0.9-0.3
				c-0.2,0-0.4-0.1-0.6-0.1c-0.4-0.1-0.7-0.1-1-0.2c-1.2-0.3-2.4-0.7-3.5-1.2c-1.4-0.7-2.8-1.5-4-2.5c-0.3-0.2-0.6-0.5-0.8-0.7
				c0.1-0.2,0.2-0.4,0.4-0.5c0.2,0.2,0.4,0.3,0.6,0.4c0.1,0.1,0.2,0.1,0.2,0.2c0.2,0.2,0.4,0.4,0.6,0.6c-0.1,0.1-0.2,0.2-0.3,0.4
				c0,0,0,0.1,0,0.1s0.1,0,0.1,0c0.1-0.1,0.2-0.2,0.3-0.3c0.3,0.3,0.7,0.6,1.1,0.9c0.2,0.1,0.3,0.3,0.5,0.4c0,0,0,0,0,0
				c0,0,0,0.1,0,0.1s0.1,0,0.1,0c0,0,0,0,0,0c0,0,0.1,0.1,0.1,0.1c0.1,0.1,0.3,0.2,0.4,0.3c0.5,0.4,1.1,0.7,1.7,1
				c1.4,0.7,3,1.1,4.6,1.3l0,0c0,0,0,0.1,0,0.1c0,0,0.1,0,0.1,0c0,0,0,0,0,0c1.9,0.2,3.8,0,5.7-0.5c0.6-0.2,1.4-0.6,2-0.9
				c0.1-0.1,0.3-0.2,0.4-0.3c0,0,0,0,0.1-0.1c1.9-0.9,3.7-2.1,5.2-3.6c0.3-0.2,0.5-0.4,0.8-0.6c0.2-0.2,0.4-0.3,0.5-0.5
				c0.1-0.1,0.3-0.3,0.4-0.4c0,0,0.1-0.1,0.1-0.1c0,0,0,0,0.1,0c0.1,0,0.2,0,0.2-0.1c0.2-0.3,0.4-0.7,0.6-1c0.1-0.1,0.2-0.3,0.4-0.5
				c0.5-0.7,1-1.5,1.4-2.3c0.2-0.4,0.4-0.8,0.6-1.2c0-0.1,0.1-0.2,0.1-0.4c0.2-0.2,0.5-0.3,0.7-0.5c0.7-0.5,1.3-1,2-1.5
				c1-0.7,1.9-1.4,2.9-2c0.9-0.6,1.8-1.2,2.7-1.8c1.1-0.7,2.2-1.4,3.4-2c0.7-0.4,1.3-0.7,2-1c0.6-0.3,1.1-0.5,1.7-0.8
				c0.1,0,0.1-0.2,0.1-0.3c0-0.1-0.2-0.1-0.3-0.1c-0.5,0.2-1,0.4-1.5,0.7c-0.4,0.2-0.8,0.4-1.2,0.6c-0.6,0.3-1.2,0.6-1.8,1
				c-0.6,0.4-1.2,0.8-1.8,1.2c-0.9,0.6-1.9,1.3-2.8,1.9c-1.8,1.3-3.6,2.7-5.4,4c-0.2,0.2-0.5,0.4-0.7,0.5c0,0,0-0.1,0-0.1
				c0.1-0.3,0.2-0.7,0.3-1c0.1-0.4,0.2-0.8,0.3-1.3c0.1-0.2,0.1-0.5,0.1-0.8c0.8-0.6,1.6-1.1,2.3-1.6c0.6-0.4,1.3-0.8,1.9-1.2
				c0.4-0.3,0.8-0.5,1.2-0.7c0.3-0.2,0.6-0.4,0.9-0.5c0.3-0.2,0.6-0.3,0.9-0.5c0.5-0.3,1.1-0.5,1.6-0.8c0.3-0.1,0.5-0.2,0.8-0.4
				c0.2-0.1,0.4-0.2,0.6-0.3c0.3-0.1,0.6-0.3,1-0.4c0.6-0.2,1.2-0.5,1.8-0.7c0.1,0,0.1-0.1,0.1-0.2c0.9,0.1,1.8,0.1,2.7,0.1
				c0.6,0.1,1.1,0.2,1.7,0.4c0,0.1,0.1,0.1,0.2,0.2l0,0l0,0.2c0,0.2,0,0.5,0,0.7c-0.1,0.1-0.1,0.2-0.1,0.3c0,0.4,0,0.8,0,1.3
				c0,0.4-0.1,0.7-0.1,1.1c0,0-0.1,0-0.1,0c-0.3,0.2-0.6,0.4-0.9,0.6c-0.6,0.4-1.1,0.8-1.7,1.2c-1.6,1.2-3.1,2.5-4.7,3.8
				c-0.6,0.5-1.2,1-1.8,1.5c0,0-0.1,0-0.1,0c-0.3-0.1-0.5-0.1-0.8-0.2c-0.4-0.1-0.7-0.2-1.1-0.3c0,0-0.1,0-0.1,0.1
				c0,0,0,0.1,0.1,0.1c0.4,0.1,0.7,0.2,1.1,0.3c-0.1,0-0.1,0.1-0.2,0.1c-0.1,0.2-0.2,0.5-0.2,0.7c0,0.1-0.1,0.2-0.1,0.3
				c-0.1,0-0.1,0-0.2,0c-0.2,0-0.3,0.1-0.5,0.1c-0.2,0.1-0.3,0.3-0.2,0.4c0,0.1,0.1,0.1,0.1,0.2c-0.2,0.1-0.3,0.3-0.5,0.4l-1.5,1.2
				l0-0.1c0-0.1,0.1-0.3,0.1-0.4c0-0.3,0.1-0.7,0.4-0.9c0,0,0.1,0,0.1-0.1l0,0c-0.4,0.2-0.4,0.7-0.5,1.1c0,0.1-0.1,0.3-0.1,0.4l0,0
				l0.1,0c0,0,0.1,0,0.1,0c0.1-0.1,0.2-0.2,0.3-0.2c0.3-0.2,0.6-0.4,0.9-0.6c0.4-0.3,0.8-0.5,1.2-0.8c0,0,0.1,0,0.1,0
				c0,0.1-0.1,0.3-0.1,0.4c0,0.2-0.1,0.4-0.1,0.6c0,0,0,0,0,0c-1,1-2,2.1-3.1,3c-0.4,0.4-0.9,0.8-1.3,1.1c-0.3,0.2-0.5,0.4-0.7,0.6
				c-0.2,0.2-0.5,0.4-0.7,0.5c0,0,0,0.1,0,0.1s0.1,0,0.1,0c0.2-0.2,0.5-0.4,0.7-0.6c0.5-0.4,1.1-0.8,1.6-1.3c0.8-0.7,1.6-1.3,2.3-2
				c0.3-0.3,0.6-0.6,0.9-0.9l0,0l-0.2,0.6L61,47.3c-0.1,0.3-0.3,0.6-0.4,0.9c-0.3,0.6-0.5,1.1-0.8,1.7c-0.1-0.1-0.3-0.1-0.4-0.2
				c-0.2-0.1-0.4,0-0.5,0.1c-0.1,0.2,0,0.4,0.1,0.5c0.2,0.1,0.4,0.2,0.5,0.4c0,0.1,0,0.2,0.1,0.2c0,0.1,0.1,0.3,0.2,0.3c0,0,0,0,0,0
				c-0.3,0.2-0.5,0.4-0.8,0.7c-0.4,0.4-0.8,0.8-1.3,1.1c-0.3,0.3-0.7,0.6-1,1c-0.2,0.2-0.4,0.3-0.5,0.5c0,0,0,0.1,0,0.2s0.1,0,0.2,0
				c0.7-0.7,1.5-1.4,2.3-2c0.4-0.3,0.8-0.7,1.2-1.1c0.1-0.1,0.3-0.2,0.4-0.3c0.1,0,0.1,0.1,0.2,0.1c0.3,0.2,0.6,0.4,0.9,0.6
				c0.2,0.2,0.3,0.3,0.5,0.5c0.4,0.5,0.7,0.9,1.1,1.4c-0.2,0.2-0.3,0.3-0.5,0.5c-0.3,0.3-0.6,0.7-0.9,1c-0.2,0.2-0.4,0.4-0.6,0.6
				C61,56,61,56,61.1,56.1c0.1,0.1,0.1,0.1,0.2,0c0.5-0.5,1-1,1.5-1.5c0.2-0.2,0.4-0.4,0.6-0.6c0.5,0.6,1,1.3,1.5,1.9
				c0.1,0.2,0.3,0.3,0.4,0.5c0,0,0,0,0,0c0,0,0.1,0.1,0.1,0.1c-0.2,0.2-0.3,0.3-0.5,0.4l0,0.1l0.1,0c0.2-0.1,0.3-0.3,0.5-0.4
				c0.1,0.1,0.1,0.3,0.2,0.4c0.1,0.2,0.3,0.3,0.5,0.2c0,0,0,0,0,0c0.1,0.1,0.1,0.1,0.2,0.2c0,0,0,0.1-0.1,0.1c0,0.1-0.1,0.1-0.1,0.2
				c0,0,0,0,0,0c0-0.1-0.1-0.1-0.1-0.1c-0.2-0.1-0.5-0.1-0.6,0.1c-0.1,0.2-0.3,0.4-0.4,0.6c0,0-0.1,0-0.1,0.1
				c-0.3,0.3-0.6,0.6-0.9,0.9c-0.6,0.6-1.1,1.1-1.7,1.7c-0.7,0.7-1.5,1.4-2.2,2.1c-0.3,0.3-0.7,0.6-1,0.9c-0.3,0.3-0.7,0.5-1,0.8
				c0,0-0.1-0.1-0.1-0.1c-0.5-0.3-1-0.6-1.4-1.1c-0.2-0.2-0.4-0.4-0.6-0.6c-0.3-0.3-0.5-0.6-0.8-0.9c-0.8-0.9-1.6-1.8-2.7-2.2
				c-0.2-0.1-0.3-0.1-0.5-0.2c-0.2,0-0.4-0.1-0.6-0.1c-0.1,0-0.3,0.1-0.3,0.2s0.1,0.3,0.2,0.3h0c-0.1,0,0,0.1,0,0.1
				c0.5,0.5,0.9,0.9,1.4,1.4c-0.4-0.3-0.8-0.7-1.2-1.1c-0.2-0.2-0.4-0.4-0.5-0.6c-0.1-0.1-0.2-0.1-0.3,0c-0.1,0.1-0.1,0.2,0,0.3
				c0,0,0.1,0.1,0.1,0.1c-0.2,0.1-0.3,0.1-0.5,0.2c0.1-0.1,0.1-0.3,0.1-0.4c0.2-0.1,0.2-0.4,0.1-0.5c-0.1-0.2-0.4-0.2-0.6-0.1
				c-0.1,0.1-0.3,0.2-0.4,0.3c-0.3,0.2-0.6,0.3-0.8,0.5c-0.2,0.1-0.5,0.3-0.8,0.4c-1.2,0.4-2.4,0.6-3.5,1c-0.2,0-0.2,0.2-0.2,0.4
				s0.2,0.2,0.4,0.2c0.6-0.2,1.1-0.3,1.7-0.4c-0.4,0.1-0.9,0.3-1.3,0.4c0,0,0,0,0,0c0,0,0,0,0,0c-0.1,0-0.2,0-0.3,0.1
				c-0.2,0.1-0.4,0.1-0.7,0.2c0-0.1-0.1-0.2-0.1-0.3c-0.1-0.2-0.1-0.3-0.1-0.5c0-0.1-0.1-0.1-0.2-0.1S43.1,62,43.2,62
				c0.1,0.3,0.1,0.6,0.2,0.8c-0.1,0-0.2,0.1-0.3,0.1c-0.1,0-0.2,0.2-0.1,0.3s0.2,0.2,0.3,0.1c0.1,0,0.1,0,0.2-0.1c0,0.1,0,0.2,0,0.3
				c0,0.2,0,0.4,0,0.6c0,0.1,0,0.2,0,0.3c0,0.2,0,0.4,0,0.7c0,0.3-0.1,0.5-0.1,0.8c-0.1,0.6-0.2,1.2-0.4,1.7
				c-0.1,0.2-0.1,0.5-0.2,0.7c-0.1,1-0.2,2-0.2,3c0,0.1,0,0.1,0,0.2c-0.5,0-1,0.1-1.5,0.2c-0.4,0-0.8,0-1.3,0
				c-1.8,0.1-3.6,0.1-5.4,0.2c-0.8,0-1.6,0-2.4-0.1c-0.2,0-0.5,0-0.8-0.1l-0.2-0.1L31,71.6c0,0-0.1-0.1-0.1-0.1
				c0.2-0.1,0.2-0.3,0.2-0.5c-0.3-0.9-0.5-1.9-0.6-2.8c-0.1-0.5-0.1-1-0.2-1.5c-0.1-0.8-0.1-1.6-0.1-2.4c0-0.3,0-0.7,0-1
				c0.3,0.1,0.6,0.1,0.8,0.2c0.3,0,0.5-0.2,0.5-0.4s-0.1-0.5-0.4-0.5c-0.3,0-0.6-0.1-1-0.1c0-0.1,0-0.1,0-0.2c0-0.1-0.1-0.2-0.2-0.2
				h0c0,0-0.1-0.1-0.1-0.1c0,0,0-0.1,0-0.1c0-0.3,0-0.5,0.1-0.8c0-0.1-0.1-0.3-0.2-0.3c-0.1,0-0.3,0.1-0.3,0.2
				c-0.1,0.3-0.1,0.6-0.2,0.9c-0.1,0-0.2-0.1-0.4-0.1c-0.2,0-0.4-0.1-0.6-0.2c-0.3-0.1-0.5-0.2-0.8-0.3c-0.9-0.4-1.7-0.8-2.6-1.2
				c-0.2-0.1-0.4-0.2-0.6-0.2c0.1-0.2,0.1-0.4-0.1-0.6c-0.2-0.2-0.5-0.2-0.7,0c-0.1,0.1-0.1,0.2-0.2,0.2c-0.3-0.1-0.5-0.1-0.8-0.1
				c-0.1,0-0.2,0.1-0.3,0.2c0,0.1,0.1,0.2,0.2,0.3c0.2,0,0.3,0.1,0.5,0.1c-0.7,0.8-1.6,1.5-2.4,2.2c-0.4,0.3-0.7,0.7-1.1,1
				c-0.4,0.3-0.7,0.7-1,1c-0.2,0.2-0.4,0.4-0.6,0.7c-0.3,0.2-0.5,0.3-0.8,0.5c-0.1,0.1-0.3,0.1-0.4,0.2c-0.1-0.1-0.2-0.2-0.4-0.2
				c0,0,0-0.1,0.1-0.1c0.1-0.2,0-0.4-0.2-0.5c-0.5-0.2-0.9-0.4-1.3-0.7c-0.4-0.3-0.7-0.5-1.1-0.8c-0.5-0.4-1-0.8-1.4-1.2
				c-1.3-1.4-2.5-2.9-3.7-4.4l0.2-0.2c0.1,0,0.2-0.1,0.3-0.2c0.2-0.2,0.4-0.5,0.6-0.7c0.7-0.7,1.3-1.3,2-1.9
				c0.6-0.5,1.2-1.1,1.7-1.7c0.1-0.1,0.3-0.3,0.4-0.4c0.1-0.1,0.2-0.2,0.2-0.2c0.2-0.3,0.5-0.6,0.7-0.9c0.1-0.1,0.2-0.3,0.3-0.4
				c0.1-0.2,0.2-0.3,0.3-0.5c0.1-0.1,0-0.3-0.1-0.4c0.1,0.2,0.1,0.2,0.1,0.2c0.1,0.2,0.3,0.3,0.5,0.2c0.2-0.1,0.3-0.3,0.2-0.5
				c-0.1-0.3-0.3-0.6-0.4-0.8c-0.3-0.7-0.7-1.4-1-2.1c-0.3-0.7-0.6-1.3-0.9-2c-0.1-0.3-0.2-0.5-0.3-0.8c0.2-0.1,0.3-0.2,0.3-0.4
				c0-0.3-0.2-0.5-0.5-0.5c0,0-0.1,0-0.1,0c0,0,0-0.1,0-0.1c-0.1-0.2-0.1-0.5-0.2-0.7c-0.1-0.2-0.1-0.5-0.2-0.7
				c0-0.1-0.2-0.2-0.3-0.2c-0.1,0-0.2,0.2-0.2,0.3c0.1,0.5,0.2,0.9,0.3,1.4c-0.2,0-0.3,0-0.5,0l-0.2-0.5c0-0.1-0.1-0.1-0.2-0.1
				c-0.1,0-0.1,0.1-0.1,0.2c0.1,0.1,0.1,0.2,0.2,0.3c-1.3,0-2.5,0.1-3.8,0.3c-1.7,0-3.4-0.1-5.1-0.2c-0.1,0-0.1,0-0.2,0
				c0,0-0.1-0.1-0.1-0.1c0.1,0,0.1-0.1,0.1-0.2c-0.5-1.4-0.7-2.8-0.9-4.3C2,38.5,2,38.1,1.9,37.6c0-0.1,0-0.2,0-0.2
				c0-0.9,0.1-1.8,0.1-2.6c0.1-0.7,0.1-1.5,0.3-2.3L2.6,32l0.6-0.1c0.2,0,0.5-0.1,0.7-0.1c0.7-0.1,1.3-0.3,2-0.4
				c0.4-0.1,0.9-0.2,1.3-0.3c1.8-0.5,3.7-1,5.5-0.9c0.1,0,0.1,0,0.2,0c0,0.1,0,0.1,0,0.2c0,0.3,0,0.7,0,1c0,0.1,0.1,0.1,0.1,0
				c0-0.2,0-0.4,0-0.5c0,0.3,0.5,0.4,0.7,0.1l0-0.1l0,0l0-0.2c0,0,0-0.1,0.1-0.1c0,0,0-0.1,0-0.1l0.2-0.7l0.1-0.3
				c0.1-0.2,0.1-0.4,0.2-0.7l0.1-0.3l0.4-1.1c0.2-0.4,0.3-0.8,0.5-1.2c0.1-0.2,0.3-0.9,0.3-1c0,0,0-0.1,0-0.1l-0.1-0.1l0-0.1
				c0.1-0.2,0.2-0.4,0.3-0.6c0.1-0.1,0-0.2,0-0.3c0,0,0.1-0.1,0.1-0.1c0.2-0.2,0.3-0.5,0.5-0.7c0.1-0.1,0.1-0.3,0-0.4
				c-0.1-0.1-0.3-0.1-0.4,0c-0.2,0.1-0.4,0.2-0.5,0.4c-0.1,0.1-0.1,0.1-0.2,0.2c-0.3-0.2-0.5-0.5-0.8-0.7c-0.5-0.5-0.9-0.9-1.3-1.4
				c-0.4-0.5-0.8-1.1-1.3-1.6c-0.1-0.1-0.2-0.2-0.3-0.3c0.5,0.4,1,0.9,1.5,1.3c0.6,0.6,1.2,1.1,1.8,1.7c0.1,0.1,0.4,0.1,0.5,0
				c0.1-0.1,0.1-0.4,0-0.5c-1.2-1.1-2.4-2.3-3.7-3.3c-0.4-0.3-0.9-0.7-1.3-1c-0.3-0.2-0.5-0.3-0.8-0.5c0-0.1,0-0.1,0-0.2
				c0-0.2,0-0.3,0-0.4c0.7-0.8,1.5-1.6,2.3-2.4c0.5-0.5,1-1,1.6-1.5c0.3-0.3,0.6-0.6,0.9-0.8c0.1-0.1,0.2-0.2,0.3-0.3
				c0.2-0.2,0.4-0.3,0.7-0.5c0.1-0.1,0.3-0.3,0.5-0.4c0.3-0.3,0.6-0.7,1-1c0.2-0.2,0.4-0.4,0.6-0.6c0.1-0.2,0.3-0.3,0.5-0.5
				c0,0,0.1-0.1,0.1-0.1l0.1,0l0.1,0c0.2,0.1,0.4,0.2,0.5,0.3C19,9,19.6,9.4,20.1,9.8c0.4,0.4,0.8,0.7,1.2,1.1
				c-0.1,0-0.1,0.1-0.2,0.1c-0.3,0.2-0.6,0.4-0.9,0.6c-0.9,0.5-1.8,1.1-2.5,1.9c0,0,0,0.1,0,0.1c0,0,0.1,0,0.1,0
				c0.8-0.8,1.7-1.4,2.7-1.9c0.2-0.1,0.5-0.3,0.8-0.4c0.1,0,0.1-0.1,0.2-0.1c0.2,0.1,0.3,0.3,0.5,0.4c0.3,0.3,0.6,0.6,1,0.9
				c-0.4,0.3-0.9,0.5-1.3,0.8c-1.1,0.7-2.2,1.4-2.9,2.5c0,0,0,0.1,0,0.1c0,0,0.1,0,0.1,0c0.5-0.7,1.1-1.2,1.8-1.7
				c0.5-0.3,1-0.6,1.5-0.9c0.3-0.2,0.6-0.4,0.9-0.5c0.1,0.1,0.1,0.1,0.2,0.2c0.2,0.2,0.4,0.4,0.6,0.6c-0.6,0.4-1.1,0.8-1.7,1.2
				c-0.7,0.5-1.3,1-1.9,1.6c0,0,0,0.1,0,0.1c0,0,0.1,0,0.1,0c0.7-0.7,1.6-1.4,2.4-2c0.4-0.3,0.8-0.5,1.2-0.8c0,0,0,0,0.1,0.1
				c0.2,0.2,0.4,0.4,0.5,0.6c0.1,0.2,0.3,0.3,0.5,0.2c-0.3,0.2-0.6,0.5-0.9,0.7c-0.9,0.7-1.8,1.4-2.5,2.3c0,0,0,0.1,0,0.1
				c0,0,0.1,0,0.1,0c1.2-1.4,2.8-2.4,4.3-3.4c0,0,0,0,0,0c0.2-0.1,0.4-0.2,0.6-0.3c0.1,0,0.3,0,0.3-0.1c0,0,0.1-0.1,0.1-0.1l0.4-0.2
				c0,0,0,0,0.1,0.1c-0.1,0-0.2,0.1-0.3,0.1c-0.3,0.2-0.6,0.3-0.9,0.5c-0.3,0.2-0.7,0.4-1,0.6c-0.1,0-0.1,0.1-0.1,0.2
				s0.1,0.1,0.2,0.1c0.2-0.1,0.4-0.2,0.6-0.4c0.5-0.3,0.9-0.5,1.4-0.7c0,0,0.1,0,0.1-0.1c-0.4,0.4-0.8,0.8-1.3,1.3
				c-0.5,0.5-1.1,1.1-1.7,1.6c-0.3,0.2-0.6,0.5-0.8,0.7c-0.3,0.2-0.6,0.5-0.8,0.7c0,0,0,0.1,0,0.1c0,0,0.1,0,0.1,0
				c0.9-0.7,1.7-1.4,2.5-2.2c0.9-0.8,1.8-1.7,2.8-2.5c1-0.4,2.1-0.7,3.1-0.9c-0.1,0-0.1,0.1-0.2,0.1c-0.4,0.2-0.7,0.5-1,0.8
				c-0.2,0.2-0.5,0.4-0.7,0.6c-0.4,0.4-0.9,0.9-1.3,1.3c-0.4,0.4-0.9,0.9-1.3,1.3c-0.1,0.1-0.3,0.3-0.5,0.4
				c-0.3,0.2-0.5,0.4-0.8,0.6l0,0.1c0.4-0.3,0.8-0.6,1.1-1c0.6-0.6,1.2-1.2,1.8-1.7c1.1-1,2.2-2,3.6-2.6c0.1,0,0.1-0.1,0.1-0.2
				c0,0-0.1-0.1-0.1-0.1c0,0,0,0,0,0c0-0.2-0.2-0.3-0.4-0.3c-0.2,0-0.4,0.1-0.6,0.1c0-0.7,0.1-1.5,0-2.2c0,0,0-0.1,0-0.1
				c1-0.9,2-1.8,3-2.7c1.6-1.3,3.3-2.6,5-3.9c0.1,0,0.2,0,0.4,0c0.4,0,0.9,0.1,1.4,0.2c-0.2,0.2-0.5,0.3-0.7,0.5
				c-1.2,0.9-2.4,1.8-3.5,2.7c-0.7,0.6-1.4,1.2-2.1,1.8c-0.9,0.8-1.8,1.6-2.7,2.4c0,0,0,0.1,0,0.1c0,0,0.1,0,0.1,0
				c2-1.8,4.2-3.6,6.4-5.2c0.8-0.6,1.6-1.1,2.4-1.7c0.2-0.1,0.4-0.3,0.7-0.4c0.1,0,0.2,0,0.2,0c0.1,0,0.3-0.1,0.3-0.2
				c0-0.1,0-0.1,0-0.2C42.5,3.1,42.7,3,42.9,2.9L42.9,2.9z M43.9,3L43.9,3c0.1,0,0.2,0,0.2,0c-0.1,0-0.1,0.1-0.2,0.1L43.9,3z
				 M37.3,3.2c-0.2,0.2-0.5,0.3-0.7,0.5c-1.7,1-3.4,2.2-4.7,3.7c0,0,0,0.1,0,0.1c0,0,0.1,0,0.1,0c0.4-0.4,0.8-0.8,1.2-1.2
				c0.1-0.1,0.3-0.2,0.4-0.4c0.2-0.2,0.5-0.4,0.7-0.5c0.7-0.5,1.5-1,2.3-1.5c0.4-0.2,0.8-0.5,1.2-0.7c0.5,0,1,0,1.5,0.1
				c-0.9,0.7-1.7,1.3-2.5,2C35.8,6,35,6.7,34.1,7.5c-0.8,0.7-1.7,1.5-2.5,2.3c0-0.6,0-1.2,0-1.9c0-0.8,0-1.5-0.1-2.3
				C32,5.3,32.5,5,32.9,4.7c0.8-0.5,1.6-1,2.4-1.5C36,3.2,36.6,3.2,37.3,3.2z M44.3,3.6l0.1,1.5l0,0.5l0-0.2
				c-0.1-0.5-0.2-1.1-0.4-1.6C44.1,3.7,44.2,3.6,44.3,3.6L44.3,3.6z M31,9.1c0,0.7,0,1.4,0,2c0,0.4,0,0.8,0,1.2
				c-0.1,0-0.3,0.1-0.4,0.1c0-0.1,0.1-0.1,0.1-0.2c0-0.1,0-0.1,0-0.2c0.1-0.1,0.1-0.2,0.1-0.3c0-0.1,0-0.2-0.1-0.3
				c0-0.2,0-0.5,0-0.7c0-0.7,0.1-1.3,0.1-2c0-0.5,0.1-1,0.1-1.5C30.9,7.9,31,8.5,31,9.1z M58,9.1C58,9.1,58,9.1,58,9.1
				C58.1,9.2,58.1,9.2,58,9.1C58.1,9.2,58.1,9.2,58,9.1C58,9.1,58,9.1,58,9.1C58,9.1,58,9.1,58,9.1z M59.8,10.2
				c-0.1,0-0.1,0.1-0.2,0.1c-0.2-0.2-0.4-0.3-0.7-0.5c-0.2-0.1-0.4-0.3-0.6-0.4c0,0,0-0.1,0-0.1C58.9,9.5,59.4,9.9,59.8,10.2z
				 M57.2,9.4L57.2,9.4c0.1,0.1,0.1,0.1,0.2,0.1c-0.4,0.2-0.7,0.4-1.1,0.6L57.2,9.4z M16.6,10.2c-0.3,0.2-0.6,0.5-0.8,0.7
				c-0.1,0.1-0.2,0.1-0.3,0.2c-0.1,0.1-0.3,0.1-0.5,0.2c0,0,0,0,0,0.1c0,0,0,0,0.1,0c0.1-0.1,0.3-0.1,0.4-0.2
				c0.4-0.2,0.9-0.5,1.2-0.8c0.3-0.2,0.6-0.4,1-0.6c0.1,0,0.2-0.1,0.4-0.1c0.1,0,0.1-0.1,0.1-0.2c0-0.1-0.1-0.1-0.2-0.1
				C17.5,9.5,16.9,9.9,16.6,10.2z M14.5,10.3c-0.4,0.3-0.8,0.6-1.1,0.8c0.3-0.3,0.6-0.6,0.9-0.8c0.1-0.1,0.3-0.2,0.4-0.3
				c0.1-0.1,0.2-0.1,0.3-0.2c0.1-0.1,0.3-0.2,0.4-0.3C15.1,9.8,14.8,10,14.5,10.3z M57.8,9.8c0.4,0.3,0.8,0.6,1.2,0.9
				c-0.2,0.1-0.4,0.3-0.7,0.4c-2.8,1.8-5.4,4-7.8,6.2c-1,0.9-2,1.8-3,2.8c-0.6,0.5-1.2,1-1.7,1.6l0,0.1l0.1,0c0.5-0.5,1.1-1,1.7-1.5
				c0.9-0.8,1.8-1.6,2.8-2.5c1.3-1.2,2.7-2.3,4.1-3.3c0.6-0.5,1.3-0.9,1.9-1.4c0.8-0.6,1.6-1.1,2.5-1.6c0.2-0.1,0.5-0.3,0.7-0.4
				c0.4,0.3,0.8,0.7,1.3,1c0,0-0.1,0.1-0.1,0.1c-0.5,0.4-1.1,0.9-1.6,1.3c-0.8,0.7-1.6,1.3-2.4,2c-1,0.9-2,1.7-3,2.6
				c-0.4,0.4-0.8,0.7-1.3,1.1c-1.2,1-2.4,2-3.7,2.9c-0.3,0.2-0.7,0.5-1,0.7c0,0,0,0,0,0c-1.1-0.7-2.2-1.2-3.5-1.6
				c0.2-0.2,0.5-0.4,0.7-0.6c0.3-0.3,0.6-0.5,0.9-0.8c0.4-0.4,0.8-0.8,1.3-1.2c0.6-0.6,1.3-1.2,1.9-1.8c0.5-0.4,0.9-0.9,1.4-1.3
				c0,0.1,0,0.1,0.1,0.2c0.1,0.1,0.3,0.1,0.4,0c1.9-1.7,3.8-3.4,6-4.7c0.2-0.1,0.2-0.3,0.1-0.5c0,0,0,0,0,0
				C57.1,10.1,57.5,9.9,57.8,9.8C57.8,9.8,57.8,9.8,57.8,9.8z M55.1,10.6c-1.1,1.1-2.3,2.2-3.5,3.3c0,0,0,0,0,0.1
				c-0.5,0.4-1,0.9-1.5,1.4c-1.5,1.4-2.9,2.9-4.4,4.2c-0.6,0.5-1.1,1-1.7,1.5c-0.2-0.1-0.3-0.1-0.5-0.1c-0.4-0.2-0.9-0.4-1.4-0.6
				c2.2-2,4.5-4,6.8-5.9c0,0,0.1,0,0.1,0l0.2,0.1l0.4,0.2c0,0,0,0,0,0c0,0.1,0,0.3,0.1,0.3c0.1,0.1,0.4,0.1,0.5-0.1
				c0,0,0-0.1,0.1-0.1c0,0,0,0,0.1,0c0.2-0.1,0.3-0.2,0.3-0.4c0.8-1,1.7-1.8,2.7-2.5c0.5-0.4,1-0.8,1.4-1.2c0.2-0.2,0.4-0.3,0.6-0.5
				C55.2,10.4,55.1,10.5,55.1,10.6z M60.2,10.5c0.4,0.3,0.8,0.7,1.1,1c0,0-0.1,0.1-0.1,0.1c0,0,0,0,0,0c-0.2-0.1-0.3-0.3-0.5-0.4
				c-0.2-0.2-0.5-0.4-0.7-0.6c0,0,0,0,0.1,0C60.1,10.6,60.2,10.5,60.2,10.5C60.2,10.5,60.2,10.5,60.2,10.5z M17.3,11.9
				c-0.3,0.2-0.5,0.3-0.8,0.5c-0.1,0.1-0.3,0.2-0.4,0.3l0,0.1l0.1,0c0.1-0.1,0.3-0.3,0.5-0.4c0.1-0.1,0.2-0.2,0.3-0.2
				c0.1-0.1,0.2-0.1,0.3-0.2c0.1-0.1,0.2-0.1,0.3-0.2c0.2-0.1,0.5-0.3,0.8-0.4c0.3-0.1,0.7-0.3,1-0.4c0.1,0,0.1-0.1,0.1-0.1
				c0-0.1-0.1-0.1-0.1-0.1C18.6,11.2,17.9,11.5,17.3,11.9z M63.3,13.5C63.3,13.5,63.3,13.5,63.3,13.5c-0.1-0.1-0.1-0.1-0.2-0.2
				c-0.5-0.5-1-0.9-1.5-1.4c0,0,0.1-0.1,0.1-0.1C62.3,12.4,62.8,12.9,63.3,13.5z M62.8,14c-0.2,0.1-0.3,0.3-0.5,0.4
				c-0.2,0.2-0.5,0.4-0.7,0.6c-0.8,0.6-1.6,1.2-2.4,1.8c-0.7,0.5-1.5,1.1-2.3,1.6c-2.6,1.8-5.2,3.6-7.6,5.8c0,0,0,0,0,0
				c-0.3-0.3-0.7-0.6-1.6-1.1c0,0,0,0,0.1,0c0.3-0.3,0.7-0.5,1-0.8c0.6-0.4,1.1-0.8,1.6-1.3c1-0.8,2.1-1.7,3.1-2.5
				c1.3-1,2.5-2.1,3.8-3.1c0.9-0.8,1.8-1.5,2.8-2.2c0.3-0.2,0.6-0.5,0.9-0.7c0,0,0.1-0.1,0.1-0.1C61.6,12.9,62.2,13.4,62.8,14z
				 M30.3,12.5c-0.2,0.1-0.5,0.2-0.7,0.3c0,0,0,0,0,0c0.1,0,0.2,0,0.3-0.1c0.1,0,0.3-0.1,0.3-0.2C30.3,12.4,30.3,12.5,30.3,12.5z
				 M30.4,12.5C30.4,12.5,30.4,12.5,30.4,12.5c0,0,0.1-0.1,0.2-0.1C30.6,12.4,30.5,12.5,30.4,12.5z M63.8,15c0.1,0.1,0.3,0.2,0.5,0
				c0.1-0.1,0.1-0.3,0.1-0.4c0.2,0.2,0.4,0.5,0.7,0.7c-1,0.7-1.9,1.4-2.9,2.1c-0.5,0.3-0.9,0.6-1.4,0.9c-1.2,0.8-2.5,1.7-3.8,2.5
				c-2.2,1.4-4.4,2.8-6.4,4.4c0,0,0,0,0,0c-0.3-0.4-0.7-0.7-1.1-1.1c0.1-0.1,0.3-0.2,0.4-0.4c0.8-0.7,1.6-1.3,2.4-1.9
				c0.5-0.4,1-0.7,1.5-1.1c2.1-1.4,4.2-2.8,6.3-4.2c1-0.7,2-1.4,3-2.1c0.1-0.1,0.2-0.1,0.3-0.2C63.3,14.5,63.6,14.8,63.8,15z
				 M65.4,15.8c0,0,0.1,0.1,0.1,0.1c0,0.1-0.1,0.1-0.1,0.2c0,0.1,0,0.2,0,0.3c0,0.1-0.1,0.3-0.1,0.4c-0.1,0.3-0.3,0.7-0.4,1
				c-0.2,0.1-0.5,0.3-0.7,0.4c-0.3,0.2-0.6,0.4-0.9,0.6c-1.3,0.9-2.5,1.8-3.7,2.8c-0.2,0.1-0.3,0.3-0.5,0.4c-0.1-0.1-0.2-0.1-0.3,0
				c-0.1,0.1-0.1,0.2-0.1,0.3c-1.8,1.4-3.7,2.8-5.5,4.2c-0.3,0.2-0.6,0.4-0.9,0.7c-0.2-0.3-0.4-0.6-0.6-0.8c-0.3-0.4-0.7-0.7-1-1
				c0.9-0.7,1.8-1.3,2.7-1.9c1-0.7,2-1.3,3.1-1.9c1.1-0.7,2.3-1.4,3.5-2.1c0.4-0.3,0.9-0.5,1.3-0.8c0.3-0.2,0.6-0.4,0.9-0.6
				c0.8-0.5,1.6-1.1,2.3-1.7c0.3-0.2,0.6-0.5,0.9-0.7C65.3,15.6,65.3,15.7,65.4,15.8z M10.8,19c0.2,0.3,0.5,0.5,0.7,0.8
				c-0.1,0-0.1,0-0.2,0.1c-0.1,0.1-0.1,0.2-0.1,0.3c-0.5-0.6-1-1.2-1.4-2C10.2,18.5,10.5,18.7,10.8,19z M59.5,22.5
				c-0.1-0.1-0.1-0.2-0.2-0.2c0.5-0.3,0.9-0.7,1.4-1c0.3-0.2,0.5-0.4,0.8-0.6C60.8,21.3,60.1,21.9,59.5,22.5z M43.5,21.4
				c0.1,0,0.2,0.1,0.3,0.1c1.3,0.7,2.5,1.6,3.7,2.6c-0.8-0.6-1.7-1.2-2.7-1.6c-0.3-0.1-0.6-0.3-0.8-0.4c-0.4-0.3-1-0.6-1.5-0.8
				c-0.2-0.1-0.3-0.1-0.5-0.2C42.4,21.1,43,21.3,43.5,21.4z M38.4,21.1c0.5,0,1,0.1,1.5,0.2c0.6,0.1,1.2,0.3,1.8,0.5
				c0.3,0.1,0.6,0.2,0.9,0.3c0.3,0.1,0.6,0.2,0.9,0.3c0.1,0,0.1,0.1,0.2,0.1c0.4,0.2,0.7,0.4,1.1,0.7c0,0,0.1,0,0.1,0
				c0,0,0-0.1,0-0.1c0,0,0,0,0,0c0.2,0.1,0.3,0.2,0.5,0.3c0.5,0.3,0.9,0.6,1.4,0.9c0.2,0.1,0.3,0.2,0.5,0.4c0.3,0.3,0.7,0.6,1,0.9
				c0.3,0.3,0.6,0.5,0.9,0.8c0,0,0,0,0,0c-0.2,0.1-0.3,0.3-0.4,0.4c0,0,0,0.1,0,0.1c0,0,0.1,0,0.1,0c0.2-0.1,0.3-0.3,0.5-0.4
				c0.4,0.4,0.8,0.7,1.2,1.1c0,0,0,0,0.1,0c1,1.4,1.9,3,2.5,4.6c0.2,0.8,0.3,1.5,0.4,2.3c-0.1,0-0.1,0.1-0.2,0.1c0,0,0,0.1,0,0.1
				c0,0,0.1,0,0.1,0c0,0,0.1-0.1,0.1-0.1c0.1,1.2,0.1,2.5,0,3.7c-0.2,0.7-0.3,1.4-0.6,2.1c-0.3,1-0.7,1.9-1.2,2.9
				c0.3-0.6,0.5-1.2,0.6-1.8c0-0.2,0.1-0.3,0.1-0.5c0-0.2,0.1-0.4,0.1-0.6c0,0,0,0,0-0.1s0,0-0.1,0c-0.2,0.5-0.4,1.1-0.7,1.6
				c-0.6,1.2-1.2,2.3-2,3.3c-0.3,0.3-0.6,0.5-0.8,0.8c-0.7,0.6-1.4,1.2-2,1.8c-0.5,0.4-1,0.8-1.3,1.3c-0.1,0.1,0,0.2,0,0.2
				c0.1,0.1,0.2,0,0.2,0c0.4-0.5,0.9-0.9,1.3-1.3c0.5-0.5,1.1-0.9,1.6-1.3c-0.4,0.5-0.8,0.9-1.3,1.4c-0.4,0.4-0.8,0.8-1.2,1.2
				c-1.1,1-2.3,1.9-3.6,2.6c0.4-0.4,0.7-0.9,1.1-1.3c0.5-0.6,0.9-1.1,1.4-1.7c0.1-0.1,0.1-0.2,0-0.3c-0.1-0.1-0.2-0.1-0.3,0
				c-0.8,1-1.6,2-2.4,3c-0.1,0-0.5,0.2-0.6,0.3c-0.5,0.2-1,0.4-1.5,0.7c-0.7,0.3-1.4,0.5-2.2,0.7c-0.5,0-0.9,0-1.4,0
				c-0.1,0-0.2,0.1-0.2,0.2c-0.1,0-0.2,0-0.2,0c0.6-0.7,1.3-1.4,2-2c0.8-0.7,1.6-1.4,2.4-2.2c0.1-0.1,0.1-0.2,0-0.3s-0.2-0.1-0.3,0
				c-0.2,0.2-0.4,0.4-0.6,0.6c-0.3,0.4-0.7,0.8-1.1,1.1c-0.8,0.9-1.7,1.8-2.5,2.7c-0.8,0-1.5-0.1-2.3-0.3c0.5-0.7,1.1-1.3,1.7-1.9
				c0.2-0.2,0.5-0.4,0.7-0.7c0.6-0.5,1.3-1,2-1.5c0.1-0.1,0.1-0.2,0.1-0.3c-0.1-0.1-0.2-0.1-0.3-0.1c-0.4,0.2-0.8,0.5-1.1,0.8
				c-0.5,0.4-1,0.8-1.5,1.3c-0.6,0.6-1.1,1.1-1.6,1.8c-0.1,0.1-0.2,0.3-0.3,0.4c0,0,0,0,0,0c-0.8-0.2-1.5-0.4-2.3-0.7
				c1.1-1.2,2.4-2.3,3.6-3.3c0.5-0.4,1-0.7,1.5-1.1c0.1-0.1,0.1-0.2,0-0.3c-0.1-0.1-0.2-0.1-0.3,0c-0.8,0.6-1.5,1.3-2.3,2
				c-0.9,0.9-1.8,1.8-2.7,2.7c0,0,0,0,0,0c-0.7-0.3-1.4-0.7-2.1-1.1c0.7-0.9,1.6-1.6,2.5-2.4c0.4-0.3,0.9-0.7,1.3-1
				c0.2-0.1,0.4-0.3,0.6-0.4c0.2-0.2,0.4-0.4,0.7-0.5c0.1-0.1,0.1-0.2,0-0.3c-0.1-0.1-0.2-0.1-0.3,0c-0.2,0.2-0.4,0.4-0.6,0.5
				c-0.6,0.5-1.1,1-1.7,1.5c-0.9,0.8-1.8,1.6-2.6,2.6c-0.5-0.3-1.1-0.7-1.6-1.1c0.2,0.1,0.3,0.1,0.5,0.2c0.3,0.1,0.7,0.2,1,0.3l0,0
				l0,0c-0.3-0.2-0.6-0.3-0.8-0.5c-0.2-0.1-0.3-0.2-0.5-0.3c0.6-0.6,1.1-1.2,1.8-1.8c0.2-0.2,0.5-0.4,0.7-0.6
				c0.2-0.2,0.5-0.4,0.8-0.5c0.3-0.2,0.6-0.4,1-0.6c0.1-0.1,0.1-0.2,0.1-0.3c-0.1-0.1-0.2-0.1-0.3-0.1c-0.3,0.2-0.7,0.5-1,0.7
				c-0.1,0.1-0.2,0.1-0.3,0.2c-0.4,0.3-0.7,0.6-1,0.9c-0.7,0.6-1.3,1.3-1.9,2c-0.3-0.2-0.5-0.4-0.8-0.5c-0.3-0.2-0.5-0.4-0.8-0.6
				c0.5-0.6,1-1.1,1.6-1.7c0.4-0.4,0.9-0.8,1.3-1.2c0.2-0.2,0.5-0.4,0.8-0.6c0.1,0,0.1-0.1,0-0.2c-0.1-0.1-0.1-0.1-0.2,0
				c-0.9,0.7-1.8,1.6-2.6,2.4c-0.4,0.4-0.7,0.8-1,1.1c-0.2-0.1-0.4-0.3-0.6-0.5c0,0-0.1-0.1-0.1-0.1c-0.2-0.3-0.4-0.6-0.7-0.9
				c0.4-0.4,0.8-0.7,1.2-1c0.4-0.3,0.8-0.6,1.1-0.9c0.2-0.1,0.3-0.3,0.5-0.4c0.1-0.1,0.3-0.3,0.4-0.4c0.1-0.1,0-0.2,0-0.2
				s-0.2,0-0.2,0c-0.1,0.1-0.2,0.2-0.3,0.3c-0.1,0.1-0.2,0.2-0.3,0.3c-0.1,0.1-0.3,0.2-0.4,0.4c-0.3,0.3-0.6,0.5-0.9,0.8
				c-0.4,0.3-0.8,0.7-1.2,1.1c-0.5-0.7-0.9-1.4-1.2-2.1c0.4-0.4,0.8-0.7,1.2-1c0.8-0.6,1.6-1.2,2.4-1.7c0.1,0,0.1-0.2,0-0.2
				c0-0.1-0.2-0.1-0.2,0c-0.3,0.2-0.6,0.4-1,0.7c-0.4,0.3-0.8,0.6-1.2,0.9c-0.4,0.4-0.9,0.8-1.3,1.2c0,0,0,0,0,0
				c-0.3-0.6-0.5-1.3-0.6-2c0.4-0.3,0.7-0.6,1.1-0.9c0.9-0.8,1.8-1.5,2.8-2.2c0.1,0,0.1-0.1,0-0.2c0-0.1-0.1-0.1-0.2,0
				c-1.1,0.9-2.2,1.9-3.3,2.8c-0.2,0.1-0.4,0.3-0.5,0.4c0-0.2-0.1-0.4-0.1-0.5c0,0,0-0.1-0.1,0s-0.1,0,0,0.1c0,0.2,0.1,0.4,0.1,0.6
				c-0.1,0.1-0.3,0.2-0.4,0.3c-0.1-0.2-0.1-0.3-0.1-0.5c0-0.2-0.1-0.4-0.1-0.6c0,0.2,0,0-0.1-0.6c0.3-0.4,0.7-0.8,1-1.1
				c0.5-0.5,1-0.9,1.5-1.3c0.3-0.3,0.6-0.5,0.9-0.8c0.1,0,0.1-0.1,0-0.2c0-0.1-0.1-0.1-0.2,0c-0.2,0.1-0.3,0.3-0.5,0.4
				c-0.3,0.2-0.5,0.5-0.8,0.7c-0.7,0.6-1.5,1.3-2.1,2.1c-0.1-0.5-0.2-0.8-0.2-1.2c0,0,0,0,0,0c0-0.3,0-0.6,0-1.1c0,0,0,0.1,0.1,0.1
				c0,0,0.1,0,0.1-0.1c0-0.2,0-0.3,0.1-0.5c0.4-0.3,0.8-0.6,1.2-0.9c0.4-0.3,0.8-0.7,1.1-1c0.5-0.5,1-0.9,1.6-1.4
				c0.2-0.2,0.4-0.3,0.7-0.5c0.1,0,0.1-0.1,0-0.2s-0.1-0.1-0.2,0c-1.2,0.9-2.3,1.9-3.4,2.9c-0.3,0.3-0.6,0.5-1,0.8
				c0-0.3,0.1-0.5,0.1-0.8c0.1-0.3,0.1-0.7,0.1-1.1c0-0.2,0.1-0.4,0.1-0.5c0.4-0.4,0.7-0.7,1.1-1c0.2-0.2,0.5-0.4,0.8-0.6
				c0.2-0.1,0.4-0.3,0.6-0.4c0.4-0.2,0.7-0.5,1.1-0.7c0.1,0,0.1-0.1,0-0.2s-0.1-0.1-0.2,0c-1.2,0.7-2.3,1.7-3.4,2.7
				c0.1-0.3,0.1-0.7,0.2-1c0.1-0.4,0.2-0.8,0.3-1.2c0.1-0.1,0.2-0.1,0.2-0.2c0.3-0.2,0.6-0.5,0.8-0.7c0.3-0.3,0.6-0.6,1-0.9
				c0.2-0.2,0.5-0.5,0.7-0.7c0.1,0,0.1-0.1,0-0.2h-0.2c-0.5,0.4-0.9,0.9-1.4,1.4c-0.3,0.3-0.6,0.5-0.9,0.8c-0.1,0.1-0.2,0.2-0.3,0.3
				c0.1-0.4,0.2-0.8,0.4-1.2c0.1-0.4,0.3-0.8,0.4-1.2c0.1-0.2,0.2-0.3,0.3-0.5c0.2-0.3,0.4-0.6,0.6-0.9c0.6-0.9,1.3-1.7,2-2.5v-0.1
				h-0.1c-0.6,0.5-1.1,1.2-1.6,1.8c-0.1,0.2-0.3,0.4-0.4,0.6c-0.1,0.1-0.2,0.3-0.3,0.4c-0.1,0.1-0.2,0.2-0.2,0.4c0,0,0,0,0,0
				c0.1-0.2,0.2-0.4,0.3-0.6c0-0.1,0.1-0.2,0.1-0.3c0.1,0,0.1,0,0.2-0.1c0.4-0.6,0.8-1.1,1.2-1.7c0.7-0.9,1.7-1.7,2.6-2.4
				c0.2-0.1,0.4-0.3,0.6-0.4c1.1-0.7,2.2-1.3,3.5-1.7c0.2-0.1,0.4-0.1,0.6-0.2c0.6-0.1,1.2-0.3,1.8-0.4c0.5-0.1,1.1-0.1,1.6-0.1
				c1.1,0,2.2,0.2,3.2,0.5c0.3,0.1,0.7,0.2,1,0.3c0.2,0.1,0.4,0.1,0.6,0.2l0.1,0l0-0.1c-0.5-0.4-0.9-0.7-1.5-0.9
				c-0.3-0.1-0.6-0.2-1-0.3c-0.2,0-0.4-0.1-0.6-0.1C38.1,21,38.3,21,38.4,21.1z M61.1,21.9c-0.3,0.4-0.7,0.9-1,1.3
				c0,0,0,0.1-0.1,0.1C60,23.2,60,23.1,59.9,23c0,0,0-0.1-0.1-0.1c0.3-0.3,0.6-0.6,0.9-0.8c0.2-0.2,0.5-0.4,0.7-0.6
				C61.3,21.6,61.2,21.7,61.1,21.9z M59.1,22.9c0,0.1,0,0.2,0.1,0.3c0.1,0.1,0.1,0.1,0.2,0.1c0,0,0.1,0.1,0.1,0.1
				c0.1,0.2,0.2,0.3,0.3,0.5c-0.1,0.2,0,0.4,0.1,0.5c0,0,0,0,0,0c-0.1,0.1-0.2,0.1-0.3,0.2c-0.1-0.1-0.1-0.1-0.2-0.2
				c-0.1-0.1-0.2-0.1-0.3-0.1c-0.1,0.1-0.1,0.2-0.1,0.3c0.1,0.1,0.1,0.1,0.2,0.2c-0.4,0.3-0.7,0.5-1.1,0.8c-1.2,0.8-2.3,1.6-3.5,2.4
				c-0.5,0.3-0.9,0.6-1.4,0.9c-0.1-0.1-0.1-0.2-0.2-0.3c0,0-0.1-0.1-0.1,0c0,0,0,0,0,0c-0.2-0.4-0.4-0.9-0.7-1.4
				c1.5-1.1,3-2.1,4.5-3.2c0.6-0.5,1.3-0.9,2-1.4c0,0,0.1-0.1,0.1-0.1C58.9,22.7,59,22.8,59.1,22.9z M46.6,22.8
				c0.4,0.3,0.9,0.5,1.3,0.8c0.1,0.1,0.2,0.2,0.3,0.2c0.2,0.2,0.5,0.4,0.7,0.6c-0.1,0.1-0.1,0.1-0.2,0.2c-0.7-0.7-1.5-1.4-2.4-2
				C46.4,22.7,46.5,22.7,46.6,22.8z M29.1,22.9c0,0.1,0.1,0.1,0.2,0.1c-0.4,0.2-0.8,0.5-1.1,0.7c-0.1,0.1-0.2,0.2-0.3,0.3
				c-0.2,0.1-0.4,0.3-0.6,0.4c-0.5,0.4-1,0.9-1.4,1.3c-0.1,0.1-0.1,0.1-0.2,0.2c-0.2,0.1-0.3,0.3-0.5,0.4c0.2-0.3,0.4-0.5,0.5-0.8
				c0.2-0.2,0.4-0.5,0.6-0.7c0.5-0.4,1-0.7,1.5-1c0.1-0.1,0.1-0.2,0.1-0.3c0-0.1-0.1-0.1-0.1-0.1c0.2-0.2,0.5-0.3,0.7-0.4
				c0,0,0.1,0,0.1-0.1c0,0,0,0,0,0c0,0,0,0,0,0C28.8,23,28.9,22.9,29.1,22.9C29,22.9,29.1,22.9,29.1,22.9z M14.8,23.8
				C14.8,23.8,14.8,23.8,14.8,23.8C14.8,23.8,14.8,23.8,14.8,23.8C14.8,23.8,14.8,23.8,14.8,23.8z M60.6,25.3
				C60.6,25.3,60.5,25.3,60.6,25.3c-0.1,0.1-0.2,0.1-0.2,0.1l0,0l-0.2-0.3c-0.1-0.1-0.2-0.3-0.3-0.4c0.1-0.1,0.2-0.1,0.3-0.2
				C60.3,24.8,60.5,25,60.6,25.3z M49.7,25.2c0.1,0.1,0.2,0.3,0.3,0.4c-0.1,0.1-0.1,0.1-0.2,0.2c-0.3-0.3-0.5-0.6-0.8-0.9
				c-0.1-0.1-0.1-0.1-0.2-0.2c0.1-0.1,0.1-0.1,0.2-0.2C49.2,24.7,49.5,25,49.7,25.2z M60.5,26.5l0.3,0.5c-0.2,0.1-0.3,0.2-0.5,0.4
				c-0.7,0.6-1.5,1.1-2.2,1.6c-1.2,0.8-2.4,1.6-3.5,2.3c-0.1-0.3-0.2-0.5-0.3-0.8c-0.2-0.5-0.5-1-0.8-1.5c0.5-0.3,0.9-0.6,1.4-0.9
				c1.5-1,3-2,4.5-3c0,0,0.1,0,0.1-0.1C59.8,25.5,60.1,26,60.5,26.5z M50.2,25.7c0.2,0.3,0.4,0.6,0.7,0.8c0.2,0.3,0.4,0.6,0.6,0.8
				c0,0.1,0.1,0.1,0.1,0.2c0,0-0.1,0.1-0.1,0.1c-0.1-0.1-0.1-0.3-0.2-0.4c-0.2-0.4-0.5-0.8-0.8-1.2c0,0-0.1,0-0.1,0c0,0,0,0.1,0,0.1
				c0.1,0.2,0.3,0.4,0.4,0.6c0.1,0.2,0.2,0.3,0.3,0.5c-0.3-0.5-0.7-0.9-1.1-1.4C50,25.8,50,25.8,50.2,25.7
				C50.1,25.7,50.1,25.7,50.2,25.7z M14,26.8c-0.1,0.2-0.2,0.5-0.2,0.7L13.6,28l-0.1,0.3c-0.1,0.2-0.1,0.4-0.2,0.6
				c-0.1,0.2-0.1,0.4-0.2,0.7l0,0.1c0,0,0,0,0,0c0.2-0.9,0.4-1.8,0.8-2.6c0.1-0.2,0.2-0.4,0.3-0.7C14.1,26.5,14,26.6,14,26.8z
				 M60.9,27.3l0.1,0.2l0.1,0.3c0.2,0.6,0.4,1.2,0.6,1.7c0,0,0,0,0,0.1c-1.9,1-3.7,1.9-5.5,3c-0.4,0.3-0.9,0.5-1.3,0.8
				c-0.1-0.5-0.2-1-0.3-1.4c0-0.2-0.1-0.3-0.1-0.4c1.2-0.7,2.4-1.5,3.6-2.2c0.5-0.3,0.9-0.6,1.4-0.9c0.2-0.1,0.4-0.3,0.6-0.4
				c0.1-0.1,0.2-0.2,0.3-0.2c0.1-0.1,0.2-0.2,0.3-0.2C60.8,27.4,60.9,27.3,60.9,27.3z M23.2,29c-0.2,0.5-0.4,0.9-0.6,1.4
				c-0.2,0.6-0.5,1.3-0.6,2c0,0.2-0.1,0.3-0.1,0.5c0,0-0.1,0.1-0.1,0.1c0,0-0.1,0.1-0.1,0.1c0.2-0.8,0.4-1.6,0.7-2.3
				c-0.2,0.3-0.1,0.1,0-0.1c0.3-1,0.7-1.9,1.2-2.7l0,0c0,0,0.1-0.1,0.4-0.5C23.7,28,23.4,28.5,23.2,29z M51.9,28.1
				c0,0,0.1,0.1,0.1,0c0,0,0,0,0,0c0.2,0.3,0.3,0.6,0.5,0.9c0.1,0.1,0.1,0.2,0.2,0.4c-0.1,0-0.1,0.1-0.2,0.1
				c-0.1-0.2-0.2-0.4-0.4-0.6c-0.1-0.1-0.2-0.2-0.2-0.4c0,0,0-0.1-0.1-0.1c-0.1-0.2-0.2-0.4-0.3-0.6c0,0,0.1-0.1,0.1-0.1
				C51.7,27.9,51.8,28,51.9,28.1z M53.3,31c0-0.1-0.1-0.1-0.1-0.2c-0.2-0.4-0.4-0.8-0.7-1.3c0.1,0,0.1-0.1,0.2-0.1
				C52.9,30,53.1,30.5,53.3,31z M62,29.9c0,0,0,0.1,0,0.1c0,0,0,0.1,0,0.1c0,0,0,0,0,0c-0.2,0-0.3,0.1-0.3,0.3s0.1,0.3,0.3,0.3
				c0.1,0,0.2,0,0.4,0c0.1,0.2,0.1,0.3,0.2,0.5c0,0.1,0.1,0.2,0.1,0.3c-0.1,0.1-0.3,0.1-0.4,0.2c-0.6,0.2-1.2,0.5-1.7,0.8
				c-1,0.5-2,0.9-2.9,1.5c-0.3,0.2-0.6,0.4-0.9,0.5c-0.3,0.2-0.7,0.4-1,0.7c-0.1,0.1-0.2,0.2-0.4,0.2c0-0.6-0.1-1.2-0.2-1.8
				c0.2-0.1,0.4-0.2,0.6-0.4c0.4-0.3,0.8-0.5,1.2-0.7c1.2-0.7,2.5-1.3,3.8-2C61.1,30.3,61.5,30.1,62,29.9
				C61.9,29.9,61.9,29.9,62,29.9z M3.3,30l2.2,0l-0.3,0.2c-0.3,0.2-0.5,0.3-0.7,0.5c-0.1,0-0.2,0-0.3,0.1c-0.3,0.1-0.7,0.1-1,0.2
				c-0.1,0-0.3,0-0.4,0.1c0.1-0.1,0.1-0.2,0.2-0.3L3.3,30z M7.6,30L7.6,30c0,0-0.1,0-0.2,0.1C7.4,30.1,7.4,30.1,7.6,30L7.6,30z
				 M37.8,30.5c-0.2,0-0.4,0.1-0.6,0.1c0,0-0.1,0-0.1,0c-0.3,0-0.6,0-0.9,0.1c-0.4,0.1-0.7,0.1-1.1,0.2c-1.1,0.3-1.9,0.7-2.7,1.5
				c-0.3,0.3-0.6,0.7-0.8,1l0,0l-0.1,0.1c-0.2,0.3-0.3,0.6-0.4,0.9l-0.1,0.4L31,35.6c-0.5,2.4,0.1,5.1,2,6.7
				c0.2,0.2,0.4,0.3,0.7,0.5c0.1,0.1,0.3,0.2,0.5,0.3c0.5,0.2,1,0.4,1.6,0.5l0.1,0l0.4,0.1c0.2,0,0.5,0.1,0.7,0.1c0.3,0,0.7,0,1,0
				c0.1,0,0.3,0,0.4-0.1c0.8-0.1,1.6-0.4,2.3-0.8c0.3-0.2,0.7-0.4,1-0.7c0.4-0.3,0.8-0.7,1.1-1.1c0,0,0.1-0.1,0.1-0.1
				c0.2-0.2,0.3-0.4,0.4-0.7c0.9-0.7,1.7-1.6,2.2-2.7c0.1-0.3,0.2-0.6,0.3-0.9c0.1-0.3,0-0.6,0-0.9c-0.1,0.1-0.1,0.3-0.2,0.4
				c0,0.1-0.1,0.2-0.1,0.3c-0.1,0.2-0.2,0.4-0.2,0.7c-0.2,0.4-0.3,0.7-0.6,1.1c-0.3,0.4-0.7,0.9-1.1,1.2c0,0,0-0.1,0-0.1l0.1-0.2
				c0-0.1,0.1-0.3,0.2-0.4c0.1-0.3,0.2-0.6,0.3-1c0.2-1.2,0.2-2.4-0.3-3.5c-0.1-0.3-0.2-0.5-0.4-0.8c-0.2-0.4-0.5-0.8-0.8-1.1
				c-0.9-1-2.1-1.6-3.3-1.9c0,0,0.1-0.1,0.1-0.1c0-0.1-0.1-0.2-0.2-0.2c-0.1,0-0.2,0-0.3-0.1C38.5,30.4,38.1,30.4,37.8,30.5z
				 M63.6,30.9c0.2,0,0.5,0,0.7,0c-0.2,0.1-0.4,0.1-0.5,0.2c-0.1,0-0.3,0.1-0.4,0.1c0-0.1-0.1-0.3-0.1-0.4
				C63.4,30.9,63.5,30.9,63.6,30.9z M67.7,31.2c-0.4,0.1-0.8,0.3-1.2,0.4c-1.5,0.6-2.9,1.3-4.2,2.1c-1.7,0.9-3.3,2-4.8,3.1
				c-0.8,0.5-1.5,1.1-2.3,1.6c0-0.2,0-0.3,0.1-0.4c0.1-0.8,0.1-1.6,0.1-2.4c0.1,0,0.1-0.1,0.2-0.1c0.3-0.2,0.7-0.4,1-0.6
				c0.8-0.5,1.6-0.9,2.4-1.3c1.3-0.6,2.6-1.2,4-1.7c0.1,0,0.3,0,0.4-0.1c0.6-0.2,1.3-0.4,1.9-0.6C66,31.1,66.8,31.1,67.7,31.2z
				 M39.9,31.7c0.4,0.2,0.8,0.4,1.2,0.6c0.1,0.1,0.2,0.1,0.3,0.2c0.1,0.1,0.2,0.1,0.3,0.2c0.1,0.1,0.1,0.1,0.2,0.2
				c0.3,0.3,0.5,0.6,0.8,0.9c0.1,0.1,0.1,0.2,0.2,0.3c0.1,0.1,0.1,0.2,0.2,0.3c0.2,0.4,0.4,0.9,0.4,1.3c0,0.2,0.1,0.4,0.1,0.6
				c0,0.2,0,0.5,0,0.7c0,0.1,0,0.3,0,0.4c0,0.3-0.1,0.6-0.2,0.9L43,39.2L42.6,40c-0.1,0.2-0.2,0.4-0.4,0.6c0,0.1-0.1,0.1-0.1,0.2
				c-0.4,0.3-0.8,0.5-1.3,0.7c-0.3,0.2-0.7,0.3-1,0.4c-0.4,0.2-0.9,0.3-1.3,0.5c-0.1,0-0.1,0.1-0.1,0.2s0.1,0.1,0.2,0.1
				c0.2-0.1,0.4-0.1,0.6-0.2c0.3-0.1,0.6-0.2,0.9-0.3c0.4-0.2,0.9-0.4,1.3-0.6c0,0,0.1,0,0.1,0c0,0,0,0,0,0c-0.6,0.6-1.3,1-2.1,1.4
				L38.9,43l-0.8,0.1c-0.2,0-0.5,0-0.8,0c-0.2,0-0.5,0-0.7,0c-0.2,0-0.4,0-0.6-0.1l-0.5-0.1l-0.7-0.3c-0.1-0.1-0.2-0.1-0.3-0.2
				c-0.1-0.1-0.2-0.1-0.3-0.2c-0.5-0.3-0.9-0.9-1.2-1.3l-0.3-0.4l-0.3-0.7c-0.1-0.2-0.2-0.4-0.3-0.6c-0.1-0.4-0.2-0.7-0.4-1
				c-0.1-0.3-0.1-0.6-0.2-0.9c0-1.1,0.5-2.2,1.1-3c0.2-0.3,0.4-0.5,0.6-0.8c0.8-0.9,1.7-1.6,2.8-2c0.1,0,0.2,0,0.3,0v0l-0.2,0
				c0.1,0,0.2-0.1,0.2-0.1l0.1,0c0.1,0,0.2,0,0.4,0C37.8,31.2,39,31.4,39.9,31.7z M54,31.6C54,31.6,54,31.6,54,31.6
				C54,31.6,54,31.6,54,31.6C54,31.6,54,31.6,54,31.6C54,31.6,54,31.6,54,31.6z M54.3,32.8c0.1,0.3,0.1,0.6,0.2,0.9
				c-0.1,0.1-0.2,0.1-0.3,0.2c0-0.7-0.1-1.4-0.2-2c0,0,0,0,0,0C54.1,32.1,54.2,32.4,54.3,32.8z M34.2,32.1c-0.9,0.7-1.8,1.7-2.2,2.7
				c-0.1,0.3-0.3,0.6-0.4,0.9c-0.1,0.2-0.1,0.4-0.1,0.6c0,0,0-0.1,0-0.2l0,0l0-0.3c0-0.2,0.1-0.4,0.1-0.6c0-0.2,0.1-0.3,0.2-0.5
				c0-0.1,0.1-0.3,0.1-0.4c0.3-0.6,0.7-1.3,1.2-1.7c0.2-0.1,0.3-0.3,0.5-0.4l0.4-0.2l0.4-0.2c0,0,0,0,0,0
				C34.4,31.9,34.3,32,34.2,32.1z M71.6,32.5c-0.3,0.2-0.6,0.3-0.9,0.5c-0.6,0.3-1.2,0.7-1.8,1.1c-0.4,0.2-0.7,0.5-1.1,0.7
				c-1.1,0.8-2.2,1.6-3.3,2.5c-1.4,1.2-2.8,2.4-4.3,3.6c-0.7,0.6-1.5,1.2-2.2,1.8c-0.7,0.6-1.5,1.2-2.2,1.7
				c-0.4,0.3-0.8,0.6-1.2,0.8c0,0,0,0,0,0.1s0,0,0.1,0c0.4-0.3,0.8-0.5,1.1-0.8c0.7-0.5,1.4-1,2.1-1.6c1.5-1.2,3-2.4,4.5-3.6
				c0.9-0.8,1.9-1.5,2.9-2.3c0.4-0.3,0.9-0.7,1.3-1c0.5-0.3,1-0.7,1.4-1c1.3-0.9,2.7-1.7,4.1-2.5c0.1-0.1,0.1-0.2,0.1-0.3
				c-0.1-0.1-0.2-0.1-0.3-0.1C72,32.4,71.8,32.4,71.6,32.5z M21.7,33.6c0,0.2-0.1,0.3-0.1,0.5c-0.1,0.4-0.2,0.8-0.3,1.1
				c0-0.4,0.1-0.7,0.1-1.1c0-0.3,0.1-0.5,0.1-0.8c0.1-0.1,0.2-0.1,0.3-0.2c0,0,0,0,0,0C21.8,33.3,21.7,33.5,21.7,33.6z M54.5,34
				c0.1,0.5,0.1,1,0.2,1.4c0,0.1,0,0.3,0,0.4c-0.1,0.1-0.2,0.1-0.2,0.2c0-0.6-0.1-1.3-0.2-1.9C54.4,34,54.4,34,54.5,34
				C54.5,33.9,54.5,33.9,54.5,34z M53.7,34.8c0,0.1,0,0.3,0,0.4c0-0.3-0.1-0.5-0.1-0.8c0,0,0,0,0,0C53.7,34.6,53.7,34.7,53.7,34.8z
				 M54.7,36c0,0.2,0,0.4,0,0.6c0,0.4,0,0.9-0.1,1.3c0,0.1,0,0.3,0,0.4c0,0.1,0,0.3-0.1,0.4c0,0,0,0.1,0,0.1
				c-0.2,0.1-0.4,0.3-0.6,0.4c0,0,0,0,0,0c0-0.1,0.1-0.3,0.1-0.4c0.1-0.5,0.2-1.1,0.3-1.6c0-0.4,0.1-0.7,0.1-1.1
				C54.6,36.1,54.6,36,54.7,36C54.7,36,54.7,36,54.7,36z M72.4,37.9c0,0.4,0,0.7-0.1,1.1c-0.1,0.1-0.2,0.2-0.3,0.3
				c-0.4,0.3-0.9,0.7-1.3,1c-0.3,0.2-0.7,0.5-1.1,0.7c-0.5,0.3-1.1,0.7-1.6,1c-0.3,0.2-0.6,0.3-0.8,0.5c0,0-0.1,0.1,0,0.1
				s0.1,0.1,0.1,0c0.3-0.2,0.5-0.3,0.8-0.5c0.4-0.2,0.8-0.5,1.2-0.8c0.7-0.4,1.4-0.9,2.1-1.4c0.3-0.2,0.6-0.4,0.8-0.6c0,0,0,0,0,0
				c0,0.2,0.1,0.4,0.3,0.5c0,0.2-0.1,0.4-0.1,0.6c-0.1,0.3-0.2,0.7-0.3,1c-0.1,0.3-0.2,0.5-0.2,0.8c-0.1,0.2,0.1,0.5,0.3,0.6
				c0.1,0,0.2,0,0.3,0l0,0L72.6,43L71.8,43c-0.7,0.1-1.4,0.1-2.1,0.1c-0.5,0-1.1,0-1.6,0c-0.9,0-1.8-0.1-2.7-0.2
				c-0.5-0.1-0.9-0.1-1.4-0.2c1.5-1.3,3.1-2.5,4.7-3.7c1.3-1,2.5-2,3.8-2.9C72.5,36.7,72.5,37.3,72.4,37.9z M54.1,37.7
				c0,0.3,0,0.6,0,0.9c0,0.2-0.1,0.5-0.1,0.7c-0.1,0.1-0.2,0.1-0.3,0.2c0-0.3,0.1-0.7,0.1-1c0.1-0.3,0.1-0.5,0.2-0.8
				c0-0.2,0.1-0.4,0.1-0.6C54.1,37.3,54.1,37.5,54.1,37.7z M53.8,41.9c0,0.1-0.1,0.2-0.1,0.3c-0.2,0.1-0.4,0.3-0.6,0.4
				c0.2-0.4,0.3-0.8,0.4-1.2c0,0,0,0,0-0.1c0,0,0,0-0.1,0c0,0.1-0.1,0.1-0.1,0.2c0.1-0.6,0.2-1.1,0.3-1.7c0,0,0-0.1,0-0.1
				c0.3-0.2,0.6-0.4,0.9-0.6C54.4,40,54.1,40.9,53.8,41.9z M52.1,43.9c-0.3,0.6-0.7,1.2-1.2,1.8c-0.6,0.8-1.3,1.7-2,2.5
				c-0.5,0.5-1,0.9-1.5,1.4c-0.1,0.1-0.3,0.2-0.4,0.2c-0.1,0-0.1,0.1-0.1,0.2c-0.2,0.1-0.4,0.3-0.6,0.4c-0.5,0.3-0.9,0.6-1.4,0.9
				c-0.6,0.4-1.2,0.7-1.9,0.9c-0.1,0-0.2,0.1-0.3,0.1c0.8-0.3,1.5-0.8,2.1-1.2c0.2-0.1,0.4-0.3,0.6-0.4c0,0,0,0,0,0
				c0.3-0.2,0.5-0.3,0.8-0.5c0.1-0.1,0.2-0.2,0.4-0.3c0.2-0.1,0.4-0.3,0.6-0.5c0.6-0.5,1.1-1,1.6-1.5c1.3-1.4,2.5-3.2,3.4-4.9
				c0.2-0.4,0.4-0.8,0.6-1.3C52.6,42.4,52.3,43.2,52.1,43.9z M52.9,43.9c0,0.1-0.1,0.2-0.1,0.3c0,0.1-0.1,0.2-0.1,0.2
				c0.2-0.5,0.4-1.1,0.5-1.7c0.2-0.1,0.4-0.3,0.5-0.4C53.4,42.9,53.1,43.4,52.9,43.9z M23,44.5c-0.1,0.1-0.1,0.1-0.2,0.2
				c-0.1-0.2-0.2-0.5-0.4-0.7c-0.2-0.4-0.3-0.8-0.5-1.2c0.1-0.1,0.2-0.2,0.4-0.3C22.5,43.2,22.7,43.8,23,44.5z M63.3,42.8
				c-0.1,0.1-0.3,0.2-0.4,0.3c0-0.1,0-0.1,0-0.2c0-0.1,0-0.2-0.1-0.3C63,42.7,63.2,42.8,63.3,42.8z M65.5,43.3c0,0,0.1,0,0.1,0
				c-0.2,0-0.5,0-0.7,0c-0.6,0.1-1.2,0.1-1.7,0.2c0,0-0.1,0-0.1,0c0.1-0.1,0.2-0.2,0.3-0.2c0.2-0.1,0.3-0.3,0.5-0.4
				C64.4,43.1,65,43.2,65.5,43.3z M24.2,46.7C24.2,46.7,24.2,46.7,24.2,46.7c-0.3-0.3-0.5-0.7-0.7-1c-0.1-0.2-0.3-0.5-0.4-0.7
				c0,0,0-0.1-0.1-0.1c0.1,0,0.1-0.1,0.2-0.2c0,0,0,0,0,0C23.4,45.5,23.8,46.1,24.2,46.7z M22.3,45.3C22.2,45.2,22.2,45.2,22.3,45.3
				C22.2,45.2,22.2,45.2,22.3,45.3z M22.5,45.7c0.1,0.3,0.3,0.6,0.5,0.8c0,0,0,0,0-0.1c-0.1-0.2-0.2-0.4-0.3-0.6
				c-0.1-0.1-0.1-0.3-0.2-0.4l0,0C22.4,45.5,22.4,45.6,22.5,45.7z M24,47.3C23.9,47.4,23.9,47.4,24,47.3c-0.1,0.1-0.1,0.2,0,0.2
				c0,0,0.1,0,0.1,0c0,0,0,0,0-0.1c0.1,0.1,0.2,0.2,0.2,0.3c0.4,0.4,0.8,0.7,1.2,1.1c-0.1,0.2-0.2,0.4-0.4,0.5
				c-0.3-0.3-0.6-0.6-0.9-1c-0.1-0.2-0.3-0.3-0.4-0.5c-0.1-0.2-0.2-0.3-0.4-0.5c0,0,0,0,0.1,0c0,0,0.1-0.1,0-0.1
				c-0.1-0.3-0.3-0.6-0.4-0.9C23.4,46.7,23.7,47,24,47.3z M51.1,46.5C51.1,46.5,51,46.5,51.1,46.5c-0.1,0.1-0.2,0.2-0.3,0.3
				c0,0-0.1,0.1-0.1,0.1c0,0,0.1-0.1,0.1-0.1c0.1-0.1,0.2-0.2,0.3-0.4C51.1,46.4,51.1,46.4,51.1,46.5z M42.7,48.2
				c-0.3,0.3-0.6,0.5-0.9,0.8c-0.8,0.8-1.6,1.7-2.3,2.6c-0.4,0.4-0.8,0.9-1.2,1.3c-0.1,0.1-0.1,0.2,0,0.2s0.2,0.1,0.2,0
				c0.6-0.7,1.2-1.3,1.8-2c0.7-0.7,1.3-1.4,2.1-2.1c0.3-0.3,0.6-0.6,0.9-0.8c0.1-0.1,0.1-0.2,0-0.4c-0.1-0.1-0.2-0.1-0.4,0
				C43,48,42.9,48.1,42.7,48.2z M60.9,50.4C60.9,50.4,60.8,50.5,60.9,50.4c-0.1,0-0.1,0-0.2,0c0,0,0,0,0,0c0-0.1,0.1-0.1,0.1-0.2
				C60.8,50.3,60.9,50.4,60.9,50.4z M42,52.1C42,52.1,42,52.2,42,52.1c0,0,0.1-0.1,0.1-0.1C42.1,52.1,42,52.1,42,52.1z M59.6,54.7
				c-0.4,0.4-0.9,0.8-1.4,1.2c-0.1,0-0.1,0.1,0,0.2c0,0.1,0.1,0.1,0.2,0c0.4-0.4,0.9-0.8,1.4-1.2c0.5-0.4,0.9-0.7,1.4-1.1
				c0.2-0.1,0.4-0.3,0.5-0.4c0.2-0.1,0.3-0.2,0.5-0.3c0.1-0.1,0.1-0.2,0.1-0.3c-0.1-0.1-0.2-0.1-0.3-0.1
				C61.1,53.4,60.3,54,59.6,54.7z M52.9,60.8c0.1,0,0.1,0.1,0.2,0.1c0.1,0.1,0.2,0.2,0.3,0.3c0.2,0.1,0.4,0.3,0.5,0.5
				c0.5,0.5,1,1.1,1.4,1.7c0.1,0.2,0.3,0.4,0.5,0.6c0,0,0,0,0,0c-0.2-0.1-0.4-0.2-0.6-0.4c-0.4-0.4-0.7-0.8-1-1.2
				c-0.2-0.3-0.4-0.5-0.7-0.8c-0.1-0.1-0.2-0.3-0.3-0.4c-0.2-0.2-0.5-0.5-0.8-0.7C52.6,60.6,52.7,60.7,52.9,60.8z M11.5,62.2
				c0.6,0.6,1.3,1.2,2,1.7c0.1,0.1,0.2,0.2,0.3,0.3c0.4,0.4,0.9,0.8,1.4,1.2c-0.3-0.2-0.7-0.3-1-0.5c-0.4-0.2-0.7-0.5-1.1-0.7
				c-1.3-1-2.4-2.3-3.3-3.7C10.3,61.1,10.9,61.7,11.5,62.2z M61.4,63.3c-0.1,0.1-0.2,0.3-0.4,0.4c-0.5,0.5-1.1,1.1-1.8,1.4
				c-0.1,0-0.1,0-0.2,0.1l-0.2,0l-0.2,0c0.9-0.6,1.9-1.3,2.8-2C61.5,63.2,61.4,63.3,61.4,63.3z M29.9,65.4c0,0.2,0,0.4,0,0.6
				c0-0.4-0.1-0.8,0-1.2c0-0.3,0-0.6,0.1-1C29.9,64.4,29.9,64.9,29.9,65.4z M44.2,67.6c0,0.6,0,1.2,0,1.8c0,0.8-0.1,1.6-0.2,2.3
				l0,0.3l-0.4,0c0-0.3-0.2-0.5-0.5-0.4h0c0,0,0-0.1,0-0.1c0,0,0-0.1,0-0.1c0.1,0.1,0.2,0.1,0.3,0.1c0.3,0,0.5-0.1,0.5-0.4
				c0.1-0.9,0.2-1.9,0.2-2.8c0-0.7,0-1.4,0-2.1c0,0,0,0,0-0.1C44.2,66.5,44.2,67.1,44.2,67.6z M35.1,72.7c-0.2,0-0.3,0-0.5,0
				c-0.2,0-0.4,0-0.6,0C34.5,72.7,34.8,72.7,35.1,72.7z"/>
		</g>
	</g>
</g>
</svg>
