<?xml version="1.0" encoding="iso-8859-1"?>
<!-- Generator: Adobe Illustrator 19.0.0, SVG Export Plug-In . SVG Version: 6.00 Build 0)  -->
<svg version="1.1" id="Layer_1" xmlns="http://www.w3.org/2000/svg" xmlns:xlink="http://www.w3.org/1999/xlink" x="0px" y="0px"
	 viewBox="0 0 392.663 392.663" style="enable-background:new 0 0 392.663 392.663;" xml:space="preserve">
<path style="fill:#56ACE0;" d="M161.875,153.341h12.671c6.012,0,10.925,4.848,10.925,10.925v27.216l43.378-35.62
	c1.939-1.616,4.396-2.457,6.982-2.457h134.917V21.851H161.939v131.491H161.875z"/>
<path style="fill:#FFFFFF;" d="M301.188,72.21c0-8.986-8.469-16.097-17.907-13.511c-3.297,0.905-6.077,3.168-7.952,6.012
	c-4.267,6.465-13.77,6.465-18.036,0l0,0c-1.875-2.844-4.655-5.107-7.951-6.012c-9.438-2.521-17.907,4.461-17.907,13.511
	c0,9.244,17.002,29.414,34.78,45.511C284.186,101.301,301.188,80.873,301.188,72.21z"/>
<path style="fill:#56ACE0;" d="M92.703,310.756c-35.362,0-64.84,26.053-70.077,60.057H162.78
	C157.543,336.808,128.194,310.756,92.703,310.756z"/>
<g>
	<path style="fill:#FFC10D;" d="M92.703,208.291c-13.123,0-23.79,10.667-23.79,23.79c0,13.123,10.667,23.79,23.79,23.79
		s23.79-10.667,23.79-23.79C116.493,218.958,105.826,208.291,92.703,208.291z"/>
	<path style="fill:#FFC10D;" d="M299.83,310.756c-35.362,0-64.84,26.053-70.077,60.057h140.154
		C364.671,336.808,335.192,310.756,299.83,310.756z"/>
</g>
<path style="fill:#56ACE0;" d="M299.83,208.291c-13.123,0-23.79,10.667-23.79,23.79c0,13.123,10.667,23.79,23.79,23.79
	c13.123,0,23.79-10.667,23.79-23.79C323.62,218.958,312.954,208.291,299.83,208.291z"/>
<g>
	<path style="fill:#194F82;" d="M381.673,0.065H151.014c-6.012,0-10.925,4.848-10.925,10.925v153.341
		c0,6.012,4.848,10.925,10.925,10.925h12.671v39.434c0,9.18,10.731,14.287,17.842,8.404l58.182-47.838h141.964
		c6.012,0,10.925-4.848,10.925-10.925V10.925C392.533,4.913,387.685,0.065,381.673,0.065z M370.747,153.341L370.747,153.341H235.83
		c-2.521,0-4.913,0.84-6.982,2.457l-43.378,35.62v-27.216c0-6.012-4.848-10.925-10.925-10.925h-12.671V21.851h208.808v131.491
		H370.747z"/>
	<path style="fill:#194F82;" d="M259.232,140.606l0.065,0.065c4.008,3.297,9.826,3.297,13.77-0.065l0.065-0.065
		c8.275-6.982,49.713-43.055,49.713-68.331c0.129-19.782-15.903-35.879-35.685-35.879c-7.564,0-14.869,2.392-20.881,6.723
		c-5.947-4.331-13.188-6.723-20.881-6.723c-19.782,0-35.879,16.097-35.879,35.879C209.584,98.133,250.958,133.754,259.232,140.606z
		 M249.341,58.699c3.297,0.905,6.077,3.168,7.951,6.012c4.267,6.465,13.77,6.465,18.036,0c1.875-2.844,4.655-5.107,7.952-6.012
		c9.438-2.521,17.907,4.461,17.907,13.511c0,8.663-17.002,29.156-34.909,45.511c-17.842-16.097-34.844-36.331-34.844-45.511
		C231.434,63.289,239.903,56.178,249.341,58.699z"/>
	<path style="fill:#194F82;" d="M92.703,288.97C41.568,288.97,0,330.537,0,381.673c0,6.012,4.848,10.925,10.925,10.925H174.61
		c6.012,0,10.925-4.848,10.925-10.925C185.535,330.537,143.903,288.97,92.703,288.97z M22.626,370.812
		c5.236-33.939,34.715-60.057,70.077-60.057s64.84,26.053,70.077,60.057H22.626z"/>
	<path style="fill:#194F82;" d="M92.703,277.721c25.212,0,45.576-20.493,45.576-45.576c0.065-25.083-20.428-45.576-45.576-45.576
		c-25.212,0-45.576,20.493-45.576,45.576C47.127,257.293,67.62,277.721,92.703,277.721z M92.703,208.291
		c13.123,0,23.79,10.667,23.79,23.79c0,13.123-10.667,23.79-23.79,23.79s-23.79-10.602-23.79-23.79
		C68.913,218.893,79.58,208.291,92.703,208.291z"/>
	<path style="fill:#194F82;" d="M299.83,288.97c-51.135,0-92.703,41.568-92.703,92.703c0,6.012,4.848,10.925,10.925,10.925h163.685
		c6.012,0,10.925-4.848,10.925-10.925C392.533,330.537,350.966,288.97,299.83,288.97z M229.624,370.812
		c5.236-33.939,34.715-60.057,70.077-60.057s64.84,26.053,70.077,60.057H229.624z"/>
	<path style="fill:#194F82;" d="M345.406,232.081c0-25.083-20.493-45.576-45.576-45.576c-25.212,0-45.576,20.493-45.576,45.576
		c0,25.212,20.493,45.576,45.576,45.576C324.978,277.721,345.406,257.228,345.406,232.081z M276.04,232.081
		c0-13.123,10.667-23.79,23.79-23.79s23.79,10.667,23.79,23.79c0,13.123-10.667,23.79-23.79,23.79
		C286.707,255.871,276.04,245.269,276.04,232.081z"/>
</g>
<g>
</g>
<g>
</g>
<g>
</g>
<g>
</g>
<g>
</g>
<g>
</g>
<g>
</g>
<g>
</g>
<g>
</g>
<g>
</g>
<g>
</g>
<g>
</g>
<g>
</g>
<g>
</g>
<g>
</g>
</svg>
