<?xml version="1.0" encoding="iso-8859-1"?>
<!-- Generator: Adobe Illustrator 19.0.0, SVG Export Plug-In . SVG Version: 6.00 Build 0)  -->
<svg version="1.1" id="Layer_1" xmlns="http://www.w3.org/2000/svg" xmlns:xlink="http://www.w3.org/1999/xlink" x="0px" y="0px"
	 viewBox="0 0 392.613 392.613" style="enable-background:new 0 0 392.613 392.613;" xml:space="preserve">
<polygon style="fill:#FFC10D;" points="334.125,217.68 343.111,200.096 325.527,209.017 311.499,195.054 314.602,214.577 
	296.889,223.563 316.477,226.666 319.644,246.254 328.565,228.605 348.153,231.644 "/>
<path style="fill:#194F82;" d="M387.329,240.112l-26.57-26.57l17.067-33.552c4.784-9.374-5.236-19.394-14.61-14.61l-33.552,17.067
	l-26.57-26.57c-7.434-7.434-20.105-1.034-18.36,9.438l5.883,37.172l-33.552,17.002c-9.374,4.784-7.176,18.747,3.232,20.428
	l37.172,5.883l5.883,37.172c1.616,10.408,15.58,12.606,20.428,3.232l17.067-33.552l37.172,5.883
	C388.428,260.088,394.828,247.482,387.329,240.112z M319.644,246.254l-3.103-19.523l-19.523-3.103l17.648-8.986l-3.103-19.523
	l13.964,13.964l17.648-8.986l-8.986,17.648l13.964,13.964l-19.523-3.103L319.644,246.254z"/>
<polygon style="fill:#56ACE0;" points="334.125,65.05 343.111,47.401 325.527,56.387 311.499,42.359 314.602,62.011 296.889,70.933 
	316.477,74.036 319.644,93.559 328.565,75.975 348.153,79.078 "/>
<g>
	<path style="fill:#194F82;" d="M387.329,87.353l-26.505-26.505l17.002-33.487c4.784-9.438-5.236-19.459-14.675-14.675
		l-33.487,17.002l-26.505-26.44c-7.499-7.499-20.17-1.034-18.489,9.438l5.883,37.107l-33.487,17.002
		c-9.438,4.784-7.176,18.877,3.232,20.493l37.107,5.883l5.883,37.042c1.616,10.408,15.709,12.671,20.493,3.232l17.002-33.487
		l37.107,5.883C388.299,107.522,394.763,94.852,387.329,87.353z M319.644,93.559l-3.103-19.523l-19.523-3.103l17.648-8.986
		l-3.103-19.523l13.964,13.964l17.648-9.051l-8.986,17.648l13.964,13.964l-19.523-3.103L319.644,93.559z"/>
	<path style="fill:#194F82;" d="M184.533,219.555c0.129,4.848,3.556,8.792,8.016,10.02c-3.62,13.77-6.012,28.251-6.659,43.636
		c-0.259,6.012,4.461,10.731,10.537,11.313c6.077,0.582,11.055-4.655,11.313-10.537c3.426-91.022,80.808-156.768,81.907-157.737
		c4.655-3.879,5.236-10.731,1.422-15.386c-3.814-4.655-10.731-5.236-15.386-1.422c-2.521,2.069-45.964,38.853-71.499,96.97
		c-13.576-88.954-84.299-148.816-87.531-151.467c-4.655-3.879-11.507-3.232-15.386,1.422c-3.879,4.655-3.232,11.507,1.422,15.386
		C103.402,62.529,181.107,128.08,184.533,219.555z"/>
</g>
<polygon style="fill:#56ACE0;" points="77.931,171.005 81.034,151.417 67.006,165.446 49.357,156.395 58.343,174.108 
	44.315,188.072 63.838,184.969 72.889,202.617 75.992,183.094 95.515,179.991 "/>
<g>
	<path style="fill:#194F82;" d="M135.273,175.725l-33.293-17.002l5.883-36.913c1.616-10.537-11.055-16.937-18.554-9.438
		l-26.44,26.44l-33.293-17.002c-9.438-4.784-19.523,5.236-14.675,14.675l16.937,33.293l-26.57,26.505
		c-7.499,7.499-1.034,20.17,9.438,18.554l36.913-5.883l17.002,33.293c4.784,9.438,18.941,7.176,20.558-3.232l5.883-36.913
		l36.913-5.883C142.448,194.666,144.711,180.508,135.273,175.725z M72.889,202.617l-8.986-17.648l-19.523,3.103l13.964-13.964
		l-8.986-17.648l17.648,8.986l13.964-13.964l-3.103,19.523l17.648,8.986l-19.523,3.103L72.889,202.617z"/>
	<path style="fill:#194F82;" d="M275.685,252.201c-2.133,1.745-46.545,39.24-72.145,98.65
		c-16.679-84.234-83.653-139.701-86.82-142.287c-4.655-3.814-11.507-3.103-15.321,1.552c-3.814,4.655-3.103,11.507,1.552,15.321
		c0.776,0.646,78.998,65.228,82.36,156.638c0.259,5.883,5.042,10.537,10.925,10.537h7.887c4.719,0,9.115-3.103,10.537-7.887
		c19.523-68.525,74.279-115.006,75.055-115.652c4.655-3.879,5.236-10.731,1.422-15.386
		C287.192,248.969,280.275,248.387,275.685,252.201z"/>
</g>
<g>
</g>
<g>
</g>
<g>
</g>
<g>
</g>
<g>
</g>
<g>
</g>
<g>
</g>
<g>
</g>
<g>
</g>
<g>
</g>
<g>
</g>
<g>
</g>
<g>
</g>
<g>
</g>
<g>
</g>
</svg>
