<?xml version="1.0" encoding="iso-8859-1"?>
<!-- Generator: Adobe Illustrator 19.0.0, SVG Export Plug-In . SVG Version: 6.00 Build 0)  -->
<svg version="1.1" id="Layer_1" xmlns="http://www.w3.org/2000/svg" xmlns:xlink="http://www.w3.org/1999/xlink" x="0px" y="0px"
	 viewBox="0 0 392.426 392.426" style="enable-background:new 0 0 392.426 392.426;" xml:space="preserve">
<path style="fill:#FFFFFF;" d="M303.838,226.003c0-29.608-24.113-53.721-53.721-53.721c-18.166,0-34.909,9.115-44.865,24.372
	c-4.655,6.4-13.446,6.594-18.23,0c-9.956-15.192-26.764-24.372-44.865-24.372c-23.596,0-43.572,15.321-50.747,36.461h38.788
	c6.012,0,10.925,4.848,10.925,10.925s-4.848,10.925-10.925,10.925H88.889c0.84,6.659,3.297,13.964,7.176,21.786h23.337
	c6.012,0,10.925,4.848,10.925,10.925c0,6.012-4.848,10.925-10.925,10.925h-10.279c24.048,34.78,63.612,72.533,87.079,92.897
	C231.564,335.902,303.838,264.726,303.838,226.003z"/>
<path style="fill:#56ACE0;" d="M250.117,194.197c-10.731,0-20.687,5.43-26.634,14.481c-12.929,19.717-41.826,19.717-54.691,0
	c-5.947-9.051-15.903-14.481-26.634-14.481c-17.648,0-31.935,14.287-31.935,31.935c0,21.527,41.244,71.176,85.786,111.838
	c44.024-40.792,85.98-91.281,85.98-111.838C282.053,208.484,267.766,194.197,250.117,194.197z"/>
<path style="fill:#194F82;" d="M250.117,150.625c-20.558,0-39.951,8.339-54.044,22.82c-14.093-14.545-33.358-22.82-54.044-22.82
	c-41.632,0-75.507,33.875-75.507,75.507c0,60.509,109.964,153.341,122.57,163.749c4.267,3.297,8.857,3.297,13.964-0.065
	C215.596,379.28,325.56,285.09,325.56,226.132C325.624,184.435,291.814,150.625,250.117,150.625z M108.929,274.164h10.279
	c6.012,0,10.925-4.848,10.925-10.925c0-6.012-4.848-10.925-10.925-10.925H95.871c-3.814-7.822-6.335-15.127-7.176-21.786h41.309
	c6.012,0,10.925-4.848,10.925-10.925s-4.848-10.925-10.925-10.925H91.216c7.176-21.204,27.216-36.461,50.747-36.461
	c18.166,0,34.909,9.115,44.865,24.372c4.784,6.594,13.576,6.4,18.23,0c9.956-15.192,26.764-24.372,44.865-24.372
	c29.608,0,53.721,24.113,53.721,53.721c0,38.659-72.145,109.899-107.701,140.994C172.541,346.698,132.978,308.944,108.929,274.164z"
	/>
<path style="fill:#FFC10D;" d="M367.968,102.851c5.301-8.727,2.521-20.17-6.206-25.6c-5.43-3.297-12.024-3.62-17.778-0.905
	c-6.788,3.168-15.063-1.293-15.58-9.438c-0.259-6.271-3.556-11.96-8.857-15.192c-8.792-5.301-20.299-2.521-25.665,6.271
	c-6.659,10.925,0,45.77,7.628,70.788C327.499,123.732,361.632,113.389,367.968,102.851z"/>
<path style="fill:#194F82;" d="M373.075,58.633c-7.822-4.719-16.679-6.594-25.471-5.624c-3.168-8.21-8.986-15.192-16.743-20.04
	c-19.006-11.572-43.96-5.495-55.467,13.576c-15.451,25.406,4.396,86.174,8.469,98.069c2.327,5.495,6.4,7.758,11.96,7.176
	c12.541-1.939,75.701-12.929,90.764-37.689C398.093,95.223,392.081,70.334,373.075,58.633z M293.947,57.987
	c5.301-8.792,16.743-11.572,25.665-6.271c5.301,3.232,8.663,8.986,8.857,15.192c0.517,8.21,8.792,12.606,15.58,9.438
	c5.689-2.715,12.283-2.392,17.778,0.905c8.727,5.301,11.507,16.743,6.206,25.6c-6.4,10.537-40.469,20.881-66.392,25.859
	C293.947,103.627,287.354,68.847,293.947,57.987z"/>
<path style="fill:#FFC10D;" d="M97.164,98.52c2.133-26.117,1.293-61.608-7.434-70.788c-7.046-7.499-18.877-7.822-26.376-0.711
	c-4.59,4.331-6.594,10.602-5.495,16.743c1.228,8.145-5.947,14.158-13.188,12.541c-6.206-1.487-12.541,0.259-17.131,4.655
	c-7.434,7.046-7.758,18.877-0.711,26.246C35.232,96.193,70.723,99.037,97.164,98.52z"/>
<path style="fill:#194F82;" d="M105.568,12.734C90.246-3.492,64.582-4.203,48.485,11.118c-6.659,6.271-10.796,14.352-12.154,23.079
	c-8.792,0.84-17.131,4.59-23.725,10.796C-3.556,60.379-4.267,85.979,10.99,102.076c19.911,21.204,84.04,18.618,96.646,17.842
	c5.495-0.711,9.051-3.685,10.214-9.568C119.402,97.938,125.931,34.391,105.568,12.734z M27.41,60.96
	c4.655-4.331,11.055-6.012,17.131-4.655c7.37,1.616,14.481-4.396,13.188-12.541c-1.099-6.206,0.905-12.412,5.495-16.743
	c7.499-7.111,19.329-6.723,26.376,0.711c8.727,9.244,9.568,44.735,7.434,70.788c-26.376,0.517-61.867-2.392-70.4-11.378
	C19.717,79.772,20.04,68.007,27.41,60.96z"/>
<path style="fill:#56ACE0;" d="M216.242,57.728c-4.008-0.905-8.21,0.323-11.184,3.168c-5.172,5.172-14.739,4.073-17.778-3.943
	c-1.487-3.879-4.719-6.723-8.727-7.628c-6.594-1.487-13.123,2.715-14.61,9.244c-1.745,7.822,9.115,29.026,21.786,46.998
	c19.135-11.055,38.077-25.729,39.822-33.293C226.974,65.744,222.772,59.215,216.242,57.728z"/>
<path style="fill:#194F82;" d="M220.962,36.459c-6.853-1.552-13.899-0.905-20.17,1.681c-4.655-5.042-10.667-8.598-17.519-10.149
	c-18.295-4.073-36.525,7.499-40.598,25.794c-5.301,23.79,25.212,64.582,31.354,72.533c3.814,4.331,8.339,5.236,13.705,3.038
	c12.606-6.594,54.109-29.737,59.087-52.299C250.828,58.827,239.257,40.597,220.962,36.459z M185.665,105.631
	c-12.671-17.907-23.596-39.176-21.786-46.998c1.487-6.594,8.016-10.731,14.61-9.244c4.008,0.905,7.24,3.814,8.727,7.628
	c3.103,8.145,12.671,9.18,17.778,3.943c3.038-2.844,7.176-4.073,11.184-3.168c6.594,1.487,10.731,8.016,9.244,14.61
	C223.806,79.902,204.865,94.512,185.665,105.631z"/>
<g>
</g>
<g>
</g>
<g>
</g>
<g>
</g>
<g>
</g>
<g>
</g>
<g>
</g>
<g>
</g>
<g>
</g>
<g>
</g>
<g>
</g>
<g>
</g>
<g>
</g>
<g>
</g>
<g>
</g>
</svg>
