<?xml version="1.0" encoding="iso-8859-1"?>
<!-- Generator: Adobe Illustrator 19.0.0, SVG Export Plug-In . SVG Version: 6.00 Build 0)  -->
<svg version="1.1" id="Layer_1" xmlns="http://www.w3.org/2000/svg" xmlns:xlink="http://www.w3.org/1999/xlink" x="0px" y="0px"
	 viewBox="0 0 392.567 392.567" style="enable-background:new 0 0 392.567 392.567;" xml:space="preserve">
<path style="fill:#FFFFFF;" d="M181.536,200.663c21.01-37.301,57.471-48.808,91.863-33.358c9.632,4.848,17.455,10.667,23.402,17.131
	c20.558-31.418,31.418-58.053,31.418-77.188c0-47.127-35.232-85.463-78.416-85.463c-31.806,0-53.269,9.826-65.422,29.931
	c-4.202,6.4-13.899,7.822-18.618,0c-12.218-20.105-33.616-29.931-65.422-29.931c-35.103,0-64.84,25.212-74.861,59.798h51.846
	c6.012,0,10.925,4.848,10.925,10.925c0,6.012-4.848,10.925-10.925,10.925H22.053c-0.065,1.293-0.129,2.521-0.129,3.879
	c0,5.624,0.84,11.636,2.457,18.036h31.289c6.012,0,10.925,4.848,10.925,10.925c0,6.012-4.848,10.925-10.925,10.925H31.944
	c27.345,61.737,103.434,140.541,142.998,177.131c2.651-2.457,5.947-5.624,9.762-9.374
	C174.554,274.941,167.766,227.685,181.536,200.663z"/>
<path style="fill:#56ACE0;" d="M347.095,229.042c-16.485-8.339-29.608-9.051-41.051-2.004c-7.37,4.655-15.903-0.905-16.614-8.404
	c-1.034-13.382-9.244-23.467-25.859-31.935c-23.014-10.99-48.743-0.453-62.578,23.79c-16.549,32.711,8.404,117.657,23.014,157.867
	c41.18-12.347,124.897-43.055,140.994-74.796C377.35,269.188,369.269,240.291,347.095,229.042z"/>
<path style="fill:#FFC10D;" d="M181.536,200.663c21.01-37.301,57.471-48.808,91.863-33.358c2.263,1.164,4.331,2.327,6.4,3.556
	c22.949-35.491,26.634-54.756,26.634-63.547c0-35.103-25.406-63.677-56.63-63.677c-31.354,0-41.697,11.055-46.804,19.394l0,0
	c-12.735,20.945-43.184,20.945-55.855,0c-5.107-8.339-15.451-19.394-46.804-19.394c-23.079,0-43.055,15.709-51.846,38.012h28.832
	c6.012,0,10.925,4.848,10.925,10.925c0,6.012-4.848,10.925-10.925,10.925H43.839c-0.065,1.228-0.129,2.521-0.129,3.879
	c0,5.43,1.099,11.442,3.168,18.036h8.792c6.012,0,10.925,4.848,10.925,10.925c0,5.883-4.719,10.667-10.537,10.925
	C78.877,192,129.689,250.57,174.813,294.141l4.331-4.978C172.615,256.065,170.611,222.061,181.536,200.663z"/>
<path style="fill:#194F82;" d="M356.922,209.648c-16.291-8.275-31.547-10.796-45.253-7.952c25.471-37.818,38.4-69.56,38.4-94.448
	C350.069,48.162,305.075,0,249.867,0c-32.776,0-57.859,9.374-74.731,27.927C158.198,9.374,133.116,0,100.34,0
	C45.002,0,0.009,48.162,0.009,107.248c0,89.147,160.905,233.891,167.758,240.032c4.59,3.556,9.438,3.685,14.61-0.065
	c0.259-0.259,3.491-3.168,8.857-8.275c7.111,23.725,13.964,41.891,15.903,46.675c1.551,4.396,6.723,8.145,13.059,6.594
	c14.222-3.879,139.248-39.499,164.202-88.695C402.239,268.347,389.827,226.263,356.922,209.648z M223.944,368.356
	c-14.61-40.21-39.564-125.156-23.014-157.867c13.834-24.178,39.564-34.78,62.578-23.79c16.614,8.404,24.889,18.554,25.859,31.935
	c0.711,7.499,9.374,13.059,16.614,8.404c11.442-7.111,24.63-6.335,41.051,2.004c22.174,11.184,30.19,40.21,17.842,64.517
	C348.906,325.366,265.124,356.073,223.944,368.356z M31.944,147.071H55.54c6.012,0,10.925-4.848,10.925-10.925
	c0-6.012-4.848-10.925-10.925-10.925H24.251c-1.552-6.335-2.457-12.347-2.457-18.036c0-1.293,0.129-2.521,0.129-3.879h55.337
	c6.012,0,10.925-4.848,10.925-10.925c0-6.012-4.848-10.925-10.925-10.925H25.415c10.02-34.651,39.822-59.798,74.861-59.798
	c31.806,0,53.269,9.826,65.422,29.931c4.719,7.822,14.481,6.4,18.618,0c12.218-20.105,33.616-29.931,65.422-29.931
	c43.248,0,78.416,38.335,78.416,85.463c0,19.135-10.925,45.64-31.418,77.188c-6.012-6.465-13.77-12.283-23.402-17.131
	c-34.457-15.515-70.853-3.943-91.863,33.358c-13.705,27.022-6.853,74.279,3.168,114.36c-3.814,3.62-7.111,6.853-9.762,9.374
	C135.378,287.806,59.289,208.937,31.944,147.071z"/>
<g>
</g>
<g>
</g>
<g>
</g>
<g>
</g>
<g>
</g>
<g>
</g>
<g>
</g>
<g>
</g>
<g>
</g>
<g>
</g>
<g>
</g>
<g>
</g>
<g>
</g>
<g>
</g>
<g>
</g>
</svg>
