<?xml version="1.0" encoding="iso-8859-1"?>
<!-- Generator: Adobe Illustrator 19.0.0, SVG Export Plug-In . SVG Version: 6.00 Build 0)  -->
<svg version="1.1" id="Layer_1" xmlns="http://www.w3.org/2000/svg" xmlns:xlink="http://www.w3.org/1999/xlink" x="0px" y="0px"
	 viewBox="0 0 392.663 392.663" style="enable-background:new 0 0 392.663 392.663;" xml:space="preserve">
<g>
	<path style="fill:#FFFFFF;" d="M21.851,154.602v68.461h44.606c6.012,0,10.925,4.848,10.925,10.925
		c0,6.012-4.848,10.925-10.925,10.925H21.851v24.63h21.075c6.012,0,10.925,4.848,10.925,10.925c0,6.012-4.848,10.925-10.925,10.925
		H21.851v56.889l108.865-96.84L21.851,154.602z"/>
	<polygon style="fill:#FFFFFF;" points="321.616,348.218 321.616,154.602 212.622,251.378 	"/>
	<path style="fill:#FFFFFF;" d="M303.838,361.6l-107.572-95.612l-17.325,15.386c-4.008,3.491-10.408,3.685-14.481,0L147.2,265.988
		L39.628,361.6H303.838z"/>
</g>
<g>
	<path style="fill:#FFC10D;" d="M332.477,119.434c6.012,0,10.925,4.848,10.925,10.925v121.083h27.41V44.38l-84.364,75.055H332.477z"
		/>
	<polygon style="fill:#FFC10D;" points="253.608,119.434 353.034,30.998 88.824,30.998 188.315,119.434 	"/>
	<polygon style="fill:#FFC10D;" points="71.046,119.434 155.475,119.434 71.046,44.38 	"/>
</g>
<polygon style="fill:#56ACE0;" points="303.838,141.22 39.628,141.22 171.701,258.554 "/>
<path style="fill:#194F82;" d="M381.737,9.212H60.186c-6.012,0-10.925,4.848-10.925,10.925v99.297H10.925
	C4.913,119.434,0,124.283,0,130.36v242.166c0,6.012,4.848,10.925,10.925,10.925h321.551c6.012,0,10.925-4.848,10.925-10.925v-99.362
	h38.335c6.012,0,10.925-4.848,10.925-10.925V20.137C392.598,14.061,387.749,9.212,381.737,9.212z M303.838,141.22L171.701,258.554
	L39.628,141.22H303.838z M164.525,281.374c4.073,3.685,10.408,3.491,14.481,0l17.325-15.386L303.903,361.6H39.628L147.2,265.988
	L164.525,281.374z M21.851,291.329h21.075c6.012,0,10.925-4.848,10.925-10.925c0-6.012-4.848-10.925-10.925-10.925H21.851v-24.63
	h44.606c6.012,0,10.925-4.848,10.925-10.925c0-6.012-4.848-10.925-10.925-10.925H21.851v-68.525l108.865,96.84L21.851,348.218
	V291.329z M321.616,348.218l-108.994-96.84l108.929-96.84v193.681H321.616z M155.475,119.434H71.046V44.38L155.475,119.434z
	 M88.824,30.998H352.97l-99.362,88.436h-65.293L88.824,30.998z M370.812,251.378h-27.41V130.295c0-6.012-4.848-10.925-10.925-10.925
	h-46.028l84.364-74.99V251.378z"/>
<g>
</g>
<g>
</g>
<g>
</g>
<g>
</g>
<g>
</g>
<g>
</g>
<g>
</g>
<g>
</g>
<g>
</g>
<g>
</g>
<g>
</g>
<g>
</g>
<g>
</g>
<g>
</g>
<g>
</g>
</svg>
