<?xml version="1.0" encoding="iso-8859-1"?>
<!-- Generator: Adobe Illustrator 19.0.0, SVG Export Plug-In . SVG Version: 6.00 Build 0)  -->
<svg version="1.1" id="Layer_1" xmlns="http://www.w3.org/2000/svg" xmlns:xlink="http://www.w3.org/1999/xlink" x="0px" y="0px"
	 viewBox="0 0 392.663 392.663" style="enable-background:new 0 0 392.663 392.663;" xml:space="preserve">
<g>
	<path style="fill:#FFFFFF;" d="M236.541,370.844c5.301,0,9.632-4.331,9.632-9.632v-40.081H21.786v40.081
		c0,5.301,4.331,9.632,9.632,9.632H236.541z"/>
	<path style="fill:#FFFFFF;" d="M21.786,299.281h224.388v-35.168l-11.96,10.214c-3.491,2.844-7.822,3.232-11.636,1.552
		c-3.879-1.745-6.335-5.624-6.335-9.891v-45.64c-15.968-1.552-28.509-14.998-28.509-31.354v-80.808
		c0-17.39,14.158-31.547,31.547-31.547h26.958V31.644c0-5.301-4.331-9.632-9.632-9.632H31.547c-5.301,0-9.632,4.331-9.632,9.632"/>
</g>
<path style="fill:#FFC10D;" d="M43.572,277.495h180.816v-1.099c-0.646-0.129-1.228-0.323-1.875-0.517
	c-3.879-1.745-6.335-5.624-6.335-9.891v-45.64c-15.968-1.552-28.509-14.998-28.509-31.354v-80.808
	c0-17.39,14.158-31.547,31.547-31.547h5.172V43.733H43.572"/>
<path style="fill:#56ACE0;" d="M286.772,201.147c1.939-1.681,4.461-2.521,7.046-2.521h67.232c5.301,0,9.632-4.331,9.632-9.632
	v-80.808c0-5.301-4.331-9.632-9.632-9.632h-141.77c-5.301,0-9.632,4.331-9.632,9.632v80.743c0,5.301,4.331,9.632,9.632,9.632h7.887
	c6.012,0,10.925,4.848,10.925,10.925v32.905L286.772,201.147z"/>
<g>
	<path style="fill:#194F82;" d="M157.996,42.182h-48.032c-6.012,0-10.925,4.848-10.925,10.925c0,6.012,4.848,10.925,10.925,10.925
		h48.032c6.012,0,10.925-4.848,10.925-10.925C168.921,47.095,164.073,42.182,157.996,42.182z"/>
	<path style="fill:#194F82;" d="M109.964,356.881h48.032c6.012,0,10.925-4.848,10.925-10.925c0-6.012-4.848-10.925-10.925-10.925
		h-48.032c-6.012,0-10.925,4.848-10.925,10.925C99.038,351.968,103.952,356.881,109.964,356.881z"/>
	<path style="fill:#194F82;" d="M198.659,63.968h9.374c6.012,0,10.925-4.848,10.925-10.925c0-6.012-4.848-10.925-10.925-10.925
		h-9.374c-6.012,0-10.925,4.848-10.925,10.925C187.798,59.119,192.646,63.968,198.659,63.968z"/>
	<path style="fill:#194F82;" d="M243.006,137.665h-9.374c-6.012,0-10.925,4.848-10.925,10.925c0,6.012,4.848,10.925,10.925,10.925
		h9.374c6.012,0,10.925-4.848,10.925-10.925C253.931,142.513,249.018,137.665,243.006,137.665z"/>
	<path style="fill:#194F82;" d="M294.788,137.665h-9.374c-6.012,0-10.925,4.848-10.925,10.925c0,6.012,4.848,10.925,10.925,10.925
		h9.374c6.012,0,10.925-4.848,10.925-10.925S300.8,137.665,294.788,137.665z"/>
	<path style="fill:#194F82;" d="M346.634,137.665h-9.374c-6.012,0-10.925,4.848-10.925,10.925c0,6.012,4.848,10.925,10.925,10.925
		h9.374c6.012,0,10.925-4.848,10.925-10.925S352.646,137.665,346.634,137.665z"/>
	<path style="fill:#194F82;" d="M360.986,76.574h-92.962V31.58c0-17.39-14.158-31.547-31.547-31.547H31.547
		C14.158,0.032,0,14.19,0,31.58v329.632c0,17.325,14.158,31.418,31.547,31.418h205.059c17.39,0,31.547-14.158,31.547-31.547V245.56
		l29.737-25.212h63.224c17.39,0,31.547-14.158,31.547-31.547v-80.679C392.533,90.731,378.376,76.574,360.986,76.574z
		 M246.238,361.083c0,5.301-4.331,9.632-9.632,9.632H31.547c-5.301,0-9.632-4.331-9.632-9.632v-40.016h224.388L246.238,361.083
		L246.238,361.083z M246.238,299.281H21.786V192.097h20.299c6.012,0,10.925-4.848,10.925-10.925c0-6.012-4.848-10.925-10.925-10.925
		H21.786v-19.394h40.857c6.012,0,10.925-4.848,10.925-10.925c0-6.012-4.848-10.925-10.925-10.925H21.786V31.644
		c0-5.301,4.331-9.632,9.632-9.632h205.059c5.301,0,9.632,4.331,9.632,9.632v44.994h-26.958c-17.39,0-31.547,14.158-31.547,31.547
		v80.743c0,16.356,12.541,29.802,28.509,31.354v45.64c0,4.267,2.457,8.145,6.335,9.891c3.814,1.681,8.145,1.228,11.636-1.552
		l11.96-10.214v35.232L246.238,299.281L246.238,299.281z M370.747,188.865c0,5.301-4.331,9.632-9.632,9.632h-67.232
		c-2.521,0-5.107,0.905-7.046,2.521l-48.679,41.244v-32.84c0-6.012-4.848-10.925-10.925-10.925h-7.887
		c-5.301,0-9.632-4.331-9.632-9.632v-80.808c0-5.301,4.331-9.632,9.632-9.632h141.77c5.301,0,9.632,4.331,9.632,9.632V188.8l0,0
		V188.865z"/>
</g>
<g>
</g>
<g>
</g>
<g>
</g>
<g>
</g>
<g>
</g>
<g>
</g>
<g>
</g>
<g>
</g>
<g>
</g>
<g>
</g>
<g>
</g>
<g>
</g>
<g>
</g>
<g>
</g>
<g>
</g>
</svg>
